<?xml version="1.0" encoding="utf-8"?>
<!-- Generator: Adobe Illustrator 23.0.1, SVG Export Plug-In . SVG Version: 6.00 Build 0)  -->
<svg version="1.1" id="レイヤー_1" xmlns="http://www.w3.org/2000/svg" xmlns:xlink="http://www.w3.org/1999/xlink" x="0px"
	 y="0px" viewBox="0 0 557.3 506.6" style="enable-background:new 0 0 557.3 506.6;" xml:space="preserve">
<style type="text/css">
	.st0{fill-rule:evenodd;clip-rule:evenodd;fill:#888888;}
	.st1{fill-rule:evenodd;clip-rule:evenodd;fill:#DEDEDE;}
	.st2{fill:#FFFFFF;stroke:#DEDEDE;stroke-miterlimit:10;}
	.st3{fill:#DEDEDE;}
	.st4{fill:#CCCCCC;}
	.st5{fill:#DEDEDE;stroke:#DEDEDE;stroke-linecap:round;stroke-linejoin:round;stroke-miterlimit:10;}
	.st6{fill-rule:evenodd;clip-rule:evenodd;fill:#FFFFFF;stroke:#DEDEDE;stroke-miterlimit:10;}
	.st7{fill:#FFC4BB;stroke:#0D343F;stroke-width:2;stroke-linecap:round;stroke-linejoin:round;stroke-miterlimit:10;}
	.st8{fill:#FFFFFF;stroke:#0D343F;stroke-width:2;stroke-linecap:round;stroke-linejoin:round;stroke-miterlimit:10;}
	
		.st9{fill:none;stroke:#0D343F;stroke-width:2;stroke-linecap:round;stroke-linejoin:round;stroke-miterlimit:10;stroke-dasharray:2.837;}
	.st10{fill:#888888;}
	.st11{fill:#0D343F;}
	.st12{fill:#EDEDED;}
	.st13{fill:#FFFFFF;stroke:#0D343F;stroke-width:1.5;stroke-linecap:round;stroke-linejoin:round;stroke-miterlimit:10;}
	.st14{fill:#AAAAAA;}
	.st15{fill:#ECECEC;}
	.st16{fill:none;stroke:#0D343F;stroke-width:2;stroke-miterlimit:10;}
	.st17{fill:none;stroke:#0D343F;stroke-width:2;stroke-linecap:round;stroke-linejoin:round;stroke-miterlimit:10;}
	.st18{fill:#ECECEC;stroke:#0D343F;stroke-width:2;stroke-linecap:round;stroke-linejoin:round;stroke-miterlimit:10;}
	.st19{fill:#DEDEDE;stroke:#0D343F;stroke-width:2;stroke-linecap:round;stroke-linejoin:round;stroke-miterlimit:10;}
	.st20{fill:#233740;}
	.st21{fill:#37C8A3;stroke:#0D343F;stroke-width:2;stroke-linecap:round;stroke-linejoin:round;stroke-miterlimit:10;}
	.st22{fill:#F1C1B9;}
	.st23{fill:#37C8A3;}
	.st24{fill:#B1E0D3;stroke:#0D343F;stroke-width:2;stroke-linecap:round;stroke-linejoin:round;stroke-miterlimit:10;}
	.st25{fill:#79C8A4;stroke:#233740;stroke-width:2;stroke-linecap:round;stroke-linejoin:round;stroke-miterlimit:10;}
	.st26{fill:#F1C1B9;stroke:#233740;stroke-width:2;stroke-miterlimit:10;}
	.st27{fill:#FFC4BB;stroke:#233740;stroke-width:0.5;stroke-miterlimit:10;}
	.st28{fill:#77C5A1;stroke:#233740;stroke-width:0.5;stroke-miterlimit:10;}
	.st29{fill:#233740;stroke:#233740;stroke-width:0.5;stroke-miterlimit:10;}
	.st30{fill:none;stroke:#233740;stroke-width:0.5;stroke-miterlimit:10;}
	.st31{fill:#233740;stroke:#233740;stroke-width:2;stroke-miterlimit:10;}
	.st32{fill:#FFFFFF;stroke:#233740;stroke-width:2;stroke-linecap:round;stroke-linejoin:round;stroke-miterlimit:10;}
	.st33{fill:none;stroke:#233740;stroke-width:2;stroke-linecap:round;stroke-linejoin:round;stroke-miterlimit:10;}
	.st34{fill:#FFFFFF;stroke:#233740;stroke-width:2;stroke-miterlimit:10;}
	.st35{fill:#FFFFFF;}
	.st36{fill:#F1C1B9;stroke:#233740;stroke-width:1.5;stroke-miterlimit:10;}
	.st37{fill:#37C8A3;stroke:#233740;stroke-width:1.5;stroke-miterlimit:10;}
	.st38{fill:#F1C1B9;stroke:#233740;stroke-width:2;stroke-linecap:round;stroke-miterlimit:10;}
	.st39{fill:#DD8D85;stroke:#0D343F;stroke-width:2;stroke-linecap:round;stroke-linejoin:round;stroke-miterlimit:10;}
	.st40{fill:#37C8A3;stroke:#233740;stroke-width:2;stroke-miterlimit:10;}
	.st41{fill:none;stroke:#233740;stroke-width:2;stroke-miterlimit:10;}
	.st42{fill:#EFBAD5;stroke:#233740;stroke-width:2;stroke-linecap:round;stroke-linejoin:round;stroke-miterlimit:10;}
	.st43{fill:#DED99C;stroke:#233740;stroke-width:2;stroke-linecap:round;stroke-linejoin:round;stroke-miterlimit:10;}
	.st44{fill:#A8E1E2;stroke:#233740;stroke-width:2;stroke-linecap:round;stroke-linejoin:round;stroke-miterlimit:10;}
	.st45{fill:#FFC4BB;}
</style>
<path class="st0" d="M510.6,439.7c0,35.8-102.1,64.8-228.1,64.8s-228.1-29-228.1-64.8s102.1-64.8,228.1-64.8
	C408.4,374.9,510.6,403.9,510.6,439.7z"/>
<g id="BACKGROUND">
</g>
<path class="st1" d="M510.6,433c0,35.8-102.1,64.8-228.1,64.8S54.4,468.8,54.4,433s102.1-64.8,228.1-64.8
	C408.4,368.2,510.6,397.2,510.6,433z"/>
<g>
	<path class="st2" d="M463.2,137.5l-16.3-20.6c0,0,14.1-9.9,14.4-25.2c12.9-4.2,39.7-7.5,47.3-8.4l-28,22.3c-1.4-1-3.3-1-4.7,0.1
		c-1.7,1.3-2,3.8-0.6,5.5c1.3,1.7,3.8,2,5.5,0.6c1.4-1.1,1.8-3,1.2-4.5L510,85c-2.6,7.2-12,32.6-18.9,44.2
		C476.1,126.1,463.2,137.5,463.2,137.5z"/>
	<path class="st3" d="M490.9,129.2c7-11.6,16.3-36.9,18.9-44.2l-28,22.3c0.6,1.6,0.2,3.4-1.2,4.5c-1.7,1.3-4.2,1.1-5.5-0.6l-20.1,16
		l8.2,10.3C463.2,137.5,476.1,126.1,490.9,129.2z"/>
	<g>
		<path class="st3" d="M347.2,212.9L347.2,212.9c-2.9-3.6-2.3-8.9,1.4-11.8l101.1-80.3l10.4,13.1L359,214.2
			C355.4,217.1,350.1,216.5,347.2,212.9z"/>
		<path class="st3" d="M347.2,212.9L347.2,212.9c-2.9-3.6-2.3-8.9,1.4-11.8l101.1-80.3l10.4,13.1L359,214.2
			C355.4,217.1,350.1,216.5,347.2,212.9z"/>
	</g>
	<g>
		<g>
			<path class="st4" d="M458.8,139.1l-14.4-18.2c-1.3-1.6-1-3.9,0.6-5.2l1.2-0.9c1.6-1.3,3.9-1,5.2,0.6l14.4,18.2
				c1.3,1.6,1,3.9-0.6,5.2l-1.2,0.9C462.4,141,460,140.7,458.8,139.1z"/>
			<path class="st4" d="M458.8,139.1l-14.4-18.2c-1.3-1.6-1-3.9,0.6-5.2l1.2-0.9c1.6-1.3,3.9-1,5.2,0.6l14.4,18.2
				c1.3,1.6,1,3.9-0.6,5.2l-1.2,0.9C462.4,141,460,140.7,458.8,139.1z"/>
		</g>
	</g>
	<g>
		<path class="st5" d="M435.4,70.2C459.7,53,493.5,58.7,510.7,83c17.2,24.3,11.5,58.1-12.8,75.3l-0.5-0.7
			c23.9-16.9,29.6-50.2,12.6-74.1c-16.9-23.9-50.1-29.6-74-12.6L435.4,70.2z"/>
		<polygon class="st5" points="478.9,39.9 479.7,39.3 541.6,126.8 540.9,127.3 		"/>
		<g>
			<rect x="506.3" y="79.3" transform="matrix(0.8161 -0.5779 0.5779 0.8161 45.6995 310.2405)" class="st5" width="8" height="8"/>
			<path class="st5" d="M504.1,82.3l7.3-5.1l5.1,7.3l-7.3,5.1L504.1,82.3z M511.1,78.4l-5.8,4.1l4.1,5.8l5.8-4.1L511.1,78.4z"/>
		</g>
		<g>
			<rect x="431.6" y="66.5" transform="matrix(0.8159 -0.5781 0.5781 0.8159 39.3916 264.8281)" class="st5" width="8" height="8"/>
			<path class="st5" d="M429.4,69.5l7.2-5.1l5.1,7.3l-7.3,5.1L429.4,69.5z M436.5,65.6l-5.8,4.1l4.1,5.8l5.8-4.1L436.5,65.6z"/>
		</g>
		<g>
			<rect x="493.7" y="154.2" transform="matrix(0.8161 -0.578 0.578 0.8161 0.1044 316.7896)" class="st5" width="8" height="8"/>
			<path class="st5" d="M491.5,157.2l7.2-5.1l5.1,7.3l-7.3,5.1L491.5,157.2z M498.5,153.2l-5.8,4.1l4.1,5.8l5.8-4.1L498.5,153.2z"/>
		</g>
		<g>
			<path class="st5" d="M543.7,130.5c-1.8,1.3-4.3,0.9-5.6-0.9c-1.3-1.8-0.9-4.3,1-5.6c1.8-1.3,4.3-0.9,5.6,0.9
				C545.9,126.7,545.5,129.2,543.7,130.5z"/>
			<path class="st5" d="M537,126.5c0.2-1.2,0.8-2.2,1.8-2.9c2-1.4,4.8-0.9,6.2,1.1c0.7,1,1,2.1,0.8,3.3s-0.8,2.2-1.8,2.9l0,0
				c-1,0.7-2.1,1-3.3,0.8s-2.2-0.8-2.9-1.8C537.1,128.8,536.8,127.6,537,126.5z M544.9,127.8c0.2-0.9-0.1-1.9-0.6-2.7
				c-1.1-1.6-3.4-2-5-0.8c-1.6,1.1-2,3.4-0.8,5c0.5,0.8,1.4,1.3,2.3,1.5c0.9,0.2,1.9-0.1,2.7-0.6l0,0
				C544.2,129.6,544.7,128.8,544.9,127.8z"/>
		</g>
		<g>
			<path class="st5" d="M481.6,42.9c-1.8,1.3-4.3,0.9-5.6-0.9c-1.3-1.8-0.9-4.3,0.9-5.6s4.3-0.9,5.6,1
				C483.8,39.1,483.4,41.6,481.6,42.9z"/>
			<path class="st5" d="M474.9,38.9c0.2-1.1,0.8-2.2,1.8-2.9c2-1.4,4.8-0.9,6.2,1.1s0.9,4.8-1.1,6.2l0,0c-2,1.4-4.8,0.9-6.2-1.1
				C475,41.2,474.7,40,474.9,38.9z M482.8,40.2c0.2-0.9,0-1.9-0.6-2.7c-1.1-1.6-3.4-2-5-0.8c-1.6,1.1-2,3.4-0.8,5
				c1.1,1.6,3.4,2,5,0.8C482.2,41.9,482.7,41.1,482.8,40.2z"/>
		</g>
	</g>
</g>
<g>
	<g>
		<g>
			<g>
				<g>
					<path class="st1" d="M189.6,123.3c4,3,7.6,6.5,10.6,10.4l13.6-2.5l9,21l-11.2,8.1c0.7,4.9,0.8,9.9,0.2,14.9l11.4,7.9l-8.5,21.2
						l-13.6-2.2c-3,4-6.5,7.6-10.4,10.6l2.5,13.6l-21,9l-8.1-11.2c-4.9,0.7-9.9,0.8-14.9,0.2l-7.9,11.4l-21.2-8.5l2.2-13.6
						c-4-3-7.6-6.5-10.6-10.4l-13.6,2.5l-9-21l11.2-8.1c-0.7-4.9-0.8-9.9-0.2-14.9l-11.4-7.9l8.5-21.2l13.6,2.2
						c3-4,6.5-7.6,10.4-10.6l-2.5-13.6l21-9l8.1,11.2c4.9-0.7,9.9-0.8,14.9-0.2l7.9-11.4l21.2,8.5L189.6,123.3L189.6,123.3z
						 M165.9,146c-12.6-5-26.9,1-31.9,13.6c-5.1,12.6,1,26.9,13.6,31.9c12.6,5.1,26.9-1,31.9-13.6
						C184.6,165.4,178.5,151.1,165.9,146z"/>
				</g>
			</g>
		</g>
	</g>
	<g>
		<g>
			<g>
				<g>
					<path class="st6" d="M79.8,67.8c2.3,1.7,4.3,3.7,6,5.9l7.6-1.4l5,11.8l-6.3,4.5c0.4,2.7,0.4,5.6,0.1,8.4l6.4,4.4l-4.8,11.9
						l-7.7-1.2c-1.7,2.3-3.7,4.3-5.9,6l1.4,7.6l-11.8,5l-4.5-6.3c-2.7,0.4-5.6,0.4-8.4,0.1l-4.4,6.4l-11.9-4.8l1.2-7.7
						c-2.3-1.7-4.3-3.7-6-5.9l-7.6,1.4l-5-11.8l6.3-4.5c-0.4-2.7-0.4-5.6-0.1-8.4L23,84.8L27.9,73l7.7,1.2c1.7-2.3,3.7-4.3,5.9-6
						L40,60.6l11.8-5l4.5,6.3c2.7-0.4,5.6-0.4,8.4-0.1l4.4-6.4L81,60.2L79.8,67.8L79.8,67.8z M66.6,80.6c-7.1-2.8-15.1,0.6-17.9,7.6
						c-2.8,7.1,0.6,15.1,7.6,17.9c7.1,2.8,15.1-0.6,17.9-7.6S73.6,83.4,66.6,80.6z"/>
				</g>
			</g>
		</g>
	</g>
</g>
<g>
	<g>
		<path class="st7" d="M363.9,407.9H204.3c-13.9,0-25.2-10.9-25.2-24.4V39.3c0-13.5,11.3-24.4,25.2-24.4h159.6
			c13.9,0,25.2,10.9,25.2,24.4v344.3C389.1,397,377.8,407.9,363.9,407.9z"/>
		<path class="st8" d="M376.3,39v340.9c0,8-6.7,14.5-14.9,14.5H206.8c-8.3,0-14.9-6.5-14.9-14.5V39c0-8,6.7-14.5,14.9-14.5h25.8
			c1.4,0,2.7,0.8,3.4,2l2.7,5.3c1.2,2.4,3.8,4,6.6,4h77.5c2.8,0,5.4-1.5,6.6-4l2.7-5.3c0.6-1.2,1.9-2,3.4-2h25.8
			C369.6,24.5,376.3,31,376.3,39z"/>
		<path class="st8" d="M316.6,29.6h-62.4c-1.5,0-2.6-1.1-2.6-2.5l0,0c0-1.4,1.2-2.5,2.6-2.5h62.4c1.5,0,2.6,1.1,2.6,2.5l0,0
			C319.2,28.5,318.1,29.6,316.6,29.6z"/>
	</g>
	<path class="st9" d="M353.3,381.8h-142c-4.6,0-8.4-3.8-8.4-8.4v-52.1c0-4.6,3.8-8.4,8.4-8.4h142c4.6,0,8.4,3.8,8.4,8.4v52.1
		C361.6,378,357.9,381.8,353.3,381.8z"/>
	<path class="st9" d="M351.2,212.8h-80.1c-4.6,0-8.3-3.2-8.3-7.1v-34.1c0-3.9,3.7-7.1,8.3-7.1h80.1c4.6,0,8.3,3.2,8.3,7.1v34.1
		C359.5,209.6,355.8,212.8,351.2,212.8z"/>
	<g>
		<path class="st10" d="M215.3,305.4c-3.4,0-6.2-2.8-6.2-6.2v-62.6c0-3.4,2.8-6.2,6.2-6.2h145c3.4,0,6.2,2.8,6.2,6.2v62.6
			c0,3.4-2.8,6.2-6.2,6.2H215.3z"/>
		<path class="st11" d="M360.2,231.3c2.9,0,5.2,2.3,5.2,5.2v62.6c0,2.9-2.3,5.2-5.2,5.2H215.3c-2.9,0-5.2-2.3-5.2-5.2v-62.6
			c0-2.9,2.3-5.2,5.2-5.2H360.2 M360.2,229.3H215.3c-4,0-7.2,3.2-7.2,7.2v62.6c0,4,3.2,7.2,7.2,7.2h145c4,0,7.2-3.2,7.2-7.2v-62.6
			C367.4,232.6,364.2,229.3,360.2,229.3L360.2,229.3z"/>
	</g>
	<g>
		<path class="st12" d="M210.8,299.1c-4.1,0-7.5-3.4-7.5-7.5v-60.1c0-4.1,3.4-7.5,7.5-7.5h141.8c4.1,0,7.5,3.4,7.5,7.5v60.1
			c0,4.1-3.4,7.5-7.5,7.5H210.8z"/>
		<path class="st11" d="M352.5,225.1c3.6,0,6.5,2.9,6.5,6.5v60.1c0,3.6-2.9,6.5-6.5,6.5H210.8c-3.6,0-6.5-2.9-6.5-6.5v-60.1
			c0-3.6,2.9-6.5,6.5-6.5H352.5 M352.5,223.1H210.8c-4.7,0-8.5,3.8-8.5,8.5v60.1c0,4.7,3.8,8.5,8.5,8.5h141.8c4.7,0,8.5-3.8,8.5-8.5
			v-60.1C361,226.9,357.2,223.1,352.5,223.1L352.5,223.1z"/>
	</g>
	<g>
		<path class="st13" d="M306.6,247.4h-36.8c-1,0-1.8-0.8-1.8-1.8l0,0c0-1,0.8-1.8,1.8-1.8h36.8c1,0,1.8,0.8,1.8,1.8l0,0
			C308.4,246.6,307.6,247.4,306.6,247.4z"/>
		<path class="st13" d="M289.9,254.6h-20c-1,0-1.8-0.8-1.8-1.8l0,0c0-1,0.8-1.8,1.8-1.8h20c1,0,1.8,0.8,1.8,1.8l0,0
			C291.7,253.8,290.9,254.6,289.9,254.6z"/>
		<path class="st13" d="M351.4,254.6h-54.2c-1,0-1.8-0.8-1.8-1.8l0,0c0-1,0.8-1.8,1.8-1.8h54.2c1,0,1.8,0.8,1.8,1.8l0,0
			C353.2,253.8,352.4,254.6,351.4,254.6z"/>
		<path class="st13" d="M300.8,261.8h-31c-1,0-1.8-0.8-1.8-1.8l0,0c0-1,0.8-1.8,1.8-1.8h31c1,0,1.8,0.8,1.8,1.8l0,0
			C302.6,261,301.8,261.8,300.8,261.8z"/>
		<path class="st13" d="M327.1,261.8h-19.5c-1,0-1.8-0.8-1.8-1.8l0,0c0-1,0.8-1.8,1.8-1.8h19.5c1,0,1.8,0.8,1.8,1.8l0,0
			C328.9,261,328.1,261.8,327.1,261.8z"/>
		<path class="st13" d="M351.4,261.8h-17.9c-1,0-1.8-0.8-1.8-1.8l0,0c0-1,0.8-1.8,1.8-1.8h17.9c1,0,1.8,0.8,1.8,1.8l0,0
			C353.2,261,352.4,261.8,351.4,261.8z"/>
		<path class="st13" d="M351.4,269.1h-81.6c-1,0-1.8-0.8-1.8-1.8l0,0c0-1,0.8-1.8,1.8-1.8h81.6c1,0,1.8,0.8,1.8,1.8l0,0
			C353.2,268.3,352.4,269.1,351.4,269.1z"/>
		<path class="st13" d="M314.7,276.3h-44.9c-1,0-1.8-0.8-1.8-1.8l0,0c0-1,0.8-1.8,1.8-1.8h44.9c1,0,1.8,0.8,1.8,1.8l0,0
			C316.5,275.5,315.7,276.3,314.7,276.3z"/>
		<path class="st13" d="M351.4,276.3H322c-1,0-1.8-0.8-1.8-1.8l0,0c0-1,0.8-1.8,1.8-1.8h29.4c1,0,1.8,0.8,1.8,1.8l0,0
			C353.2,275.5,352.4,276.3,351.4,276.3z"/>
		<path class="st13" d="M296.2,283.5h-26.4c-1,0-1.8-0.8-1.8-1.8l0,0c0-1,0.8-1.8,1.8-1.8h26.4c1,0,1.8,0.8,1.8,1.8l0,0
			C298,282.7,297.2,283.5,296.2,283.5z"/>
		<path class="st13" d="M329.7,283.5h-26.4c-1,0-1.8-0.8-1.8-1.8l0,0c0-1,0.8-1.8,1.8-1.8h26.4c1,0,1.8,0.8,1.8,1.8l0,0
			C331.5,282.7,330.7,283.5,329.7,283.5z"/>
		<path class="st13" d="M351.4,283.5h-15.3c-1,0-1.8-0.8-1.8-1.8l0,0c0-1,0.8-1.8,1.8-1.8h15.3c1,0,1.8,0.8,1.8,1.8l0,0
			C353.2,282.7,352.4,283.5,351.4,283.5z"/>
		<path class="st13" d="M306.6,290.8h-36.8c-1,0-1.8-0.8-1.8-1.8l0,0c0-1,0.8-1.8,1.8-1.8h36.8c1,0,1.8,0.8,1.8,1.8l0,0
			C308.4,290,307.6,290.8,306.6,290.8z"/>
		<path class="st13" d="M351.4,247.4h-36.8c-1,0-1.8-0.8-1.8-1.8l0,0c0-1,0.8-1.8,1.8-1.8h36.8c1,0,1.8,0.8,1.8,1.8l0,0
			C353.2,246.6,352.4,247.4,351.4,247.4z"/>
	</g>
	<g>
		<g>
			<path class="st14" d="M203.3,233.1v-1.5c0-4.1,3.4-7.5,7.5-7.5h141.8c4.1,0,7.5,3.4,7.5,7.5v1.5H203.3z"/>
			<path class="st11" d="M352.5,225.1c3.6,0,6.5,2.9,6.5,6.5v0.5H204.3v-0.5c0-3.6,2.9-6.5,6.5-6.5H352.5 M352.5,223.1H210.8
				c-4.7,0-8.5,3.8-8.5,8.5v2.5H361v-2.5C361,226.9,357.2,223.1,352.5,223.1L352.5,223.1z"/>
		</g>
		<g>
			<g>
				<path class="st15" d="M331.1,228.8c0,1.1-0.9,2-2,2s-2-0.9-2-2s0.9-2,2-2S331.1,227.7,331.1,228.8z"/>
			</g>
			<g>
				<path class="st15" d="M341.2,228.8c0,1.1-0.9,2-2,2s-2-0.9-2-2s0.9-2,2-2S341.2,227.7,341.2,228.8z"/>
			</g>
			<g>
				<path class="st15" d="M351.2,228.8c0,1.1-0.9,2-2,2s-2-0.9-2-2s0.9-2,2-2S351.2,227.7,351.2,228.8z"/>
			</g>
		</g>
	</g>
	<g>
		<path class="st16" d="M247.4,212.8h-34c-3.9,0-7.2-3.2-7.2-7.2v-34c0-3.9,3.2-7.2,7.2-7.2h34c3.9,0,7.2,3.2,7.2,7.2v34
			C254.6,209.6,251.4,212.8,247.4,212.8z"/>
		<g>
			<polyline class="st17" points="222.9,181.7 216,188.6 223,195.7 			"/>
			<polyline class="st17" points="238,181.7 244.9,188.6 237.9,195.7 			"/>
			<line class="st17" x1="233.7" y1="181.7" x2="227.2" y2="195.7"/>
		</g>
	</g>
	<g>
		<path class="st7" d="M351.8,328v39.1c0,2.1-1.7,3.8-3.8,3.8h-55.6c-2.1,0-3.8-1.7-3.8-3.8V328c0-2.1,1.7-3.8,3.8-3.8H348
			C350.1,324.1,351.8,325.9,351.8,328z"/>
		<path class="st18" d="M348.1,336.5c0,5.1-4.1,9.2-9.2,9.2s-9.2-4.1-9.2-9.2s4.1-9.2,9.2-9.2C344,327.3,348.1,331.4,348.1,336.5z"
			/>
		<path class="st8" d="M325.7,371h-33.3c-2.1,0-3.8-1.7-3.8-3.8V361l14.6-25.3c0.8-1.3,2.7-1.3,3.4,0l11,19.1l8.2,14.2
			C326.1,369.6,326.1,370.4,325.7,371z"/>
		<path class="st18" d="M340.1,371h-31.9l9.4-16.2l5-8.7c0.7-1.2,2.4-1.2,3.1,0L340.1,371z"/>
	</g>
	<g>
		<path class="st15" d="M214,291.5c-2.1,0-3.9-1.7-3.9-3.9v-43.5c0-2.1,1.7-3.9,3.9-3.9h43.5c2.1,0,3.9,1.7,3.9,3.9v43.5
			c0,2.1-1.7,3.9-3.9,3.9H214z"/>
		<path class="st11" d="M257.5,241.3c1.6,0,2.9,1.3,2.9,2.9v43.5c0,1.6-1.3,2.9-2.9,2.9H214c-1.6,0-2.9-1.3-2.9-2.9v-43.5
			c0-1.6,1.3-2.9,2.9-2.9L257.5,241.3 M257.5,239.3H214c-2.7,0-4.9,2.2-4.9,4.9v43.5c0,2.7,2.2,4.9,4.9,4.9h43.5
			c2.7,0,4.9-2.2,4.9-4.9v-43.5C262.4,241.5,260.2,239.3,257.5,239.3L257.5,239.3z"/>
	</g>
	<g>
		<path class="st19" d="M255.2,370.9h-31.5c-4.3,0-7.7-3.5-7.7-7.7v-31.5c0-4.3,3.5-7.7,7.7-7.7h31.5c4.3,0,7.7,3.5,7.7,7.7v31.5
			C262.9,367.4,259.4,370.9,255.2,370.9z"/>
		<path class="st20" d="M233.9,338.6l13.5,7.8c0.8,0.5,0.8,1.7,0,2.2l-13.5,7.8c-0.8,0.5-1.9-0.1-1.9-1.1v-15.5
			C232,338.7,233.1,338.1,233.9,338.6z"/>
	</g>
	<g>
		<rect x="270.1" y="326.1" class="st7" width="11.8" height="12.1"/>
		<rect x="270.2" y="342.2" class="st21" width="11.8" height="12.1"/>
		<rect x="270.2" y="357.9" class="st19" width="11.8" height="12.1"/>
	</g>
	<g>
		<g>
			<g>
				<path class="st22" d="M240.8,94.6c-0.4,0-0.8-0.3-0.9-0.7l-1.5-4.5h-7.6l-1.5,4.5c-0.1,0.4-0.5,0.7-0.9,0.7h-5.5
					c-0.3,0-0.6-0.2-0.8-0.4s-0.2-0.6-0.1-0.9l9.3-25c0.1-0.4,0.5-0.7,0.9-0.7h4.8c0.4,0,0.8,0.3,0.9,0.6l9.4,25
					c0.1,0.3,0.1,0.7-0.1,0.9c-0.2,0.3-0.5,0.4-0.8,0.4L240.8,94.6L240.8,94.6z M236.3,83.3l-1.7-5.2l-1.7,5.2H236.3z"/>
				<path class="st20" d="M237,68.6l9.4,25h-5.5l-1.7-5.2h-9l-1.7,5.2H223l9.3-25H237 M231.5,84.3h6.2l-3.1-9.4L231.5,84.3
					 M237,66.6h-4.8c-0.8,0-1.6,0.5-1.9,1.3l-9.3,25c-0.2,0.6-0.1,1.3,0.2,1.8c0.4,0.5,1,0.9,1.6,0.9h5.5c0.9,0,1.6-0.6,1.9-1.4
					l1.3-3.8h6.2l1.3,3.8c0.3,0.8,1,1.4,1.9,1.4h5.5c0.7,0,1.3-0.3,1.6-0.9c0.4-0.5,0.5-1.2,0.2-1.8l-9.4-25
					C238.5,67.1,237.8,66.6,237,66.6L237,66.6z M234.2,82.3l0.3-1l0.4,1H234.2L234.2,82.3z"/>
			</g>
			<g>
				<path class="st20" d="M256,75l0.2,2.1c0.6-0.8,1.4-1.4,2.3-1.8s1.9-0.6,3-0.6c0.9,0,1.7,0.1,2.4,0.4c0.7,0.2,1.3,0.7,1.9,1.2
					c0.5,0.6,0.9,1.3,1.2,2.2c0.3,0.9,0.4,2,0.4,3.3v11.8h-5V81.7c0-0.6-0.1-1.1-0.2-1.5s-0.3-0.7-0.6-0.9c-0.3-0.2-0.6-0.4-0.9-0.5
					c-0.4-0.1-0.8-0.1-1.3-0.1c-0.7,0-1.4,0.2-1.9,0.5s-0.9,0.8-1.3,1.3v13.1h-5V75H256z"/>
			</g>
			<g>
				<path class="st20" d="M276.9,75l0.2,2.1c0.6-0.8,1.4-1.4,2.3-1.8s1.9-0.6,3-0.6c0.9,0,1.7,0.1,2.4,0.4c0.7,0.2,1.3,0.7,1.9,1.2
					c0.5,0.6,0.9,1.3,1.2,2.2c0.3,0.9,0.4,2,0.4,3.3v11.8h-5V81.7c0-0.6-0.1-1.1-0.2-1.5s-0.3-0.7-0.6-0.9c-0.3-0.2-0.6-0.4-0.9-0.5
					c-0.4-0.1-0.8-0.1-1.3-0.1c-0.7,0-1.4,0.2-1.9,0.5s-0.9,0.8-1.3,1.3v13.1h-5V75H276.9z"/>
			</g>
			<g>
				<path class="st20" d="M293.2,70.2c0-0.7,0.2-1.4,0.7-1.8c0.5-0.5,1.2-0.7,2-0.7c0.4,0,0.8,0.1,1.2,0.2c0.3,0.1,0.6,0.3,0.9,0.5
					c0.2,0.2,0.4,0.5,0.6,0.8c0.1,0.3,0.2,0.7,0.2,1c0,0.4-0.1,0.7-0.2,1s-0.3,0.6-0.6,0.8c-0.2,0.2-0.5,0.4-0.9,0.5
					c-0.3,0.1-0.7,0.2-1.2,0.2c-0.4,0-0.8-0.1-1.1-0.2c-0.3-0.1-0.6-0.3-0.9-0.5c-0.2-0.2-0.4-0.5-0.6-0.8
					C293.3,70.9,293.2,70.6,293.2,70.2z M298.5,93.6h-5V75h5V93.6z"/>
			</g>
			<g>
				<path class="st20" d="M312.4,93.9c-1.4,0-2.7-0.2-3.9-0.7c-1.1-0.5-2.1-1.1-2.9-1.9s-1.4-1.8-1.8-2.9s-0.6-2.3-0.6-3.5v-0.7
					c0-1.4,0.2-2.7,0.6-3.9c0.4-1.2,1-2.2,1.7-3c0.8-0.8,1.7-1.5,2.7-2c1.1-0.5,2.3-0.7,3.6-0.7c1.3,0,2.5,0.2,3.5,0.7
					c1,0.4,1.9,1.1,2.6,1.9s1.2,1.8,1.6,2.9c0.3,1.1,0.5,2.4,0.5,3.7v2.1h-11.8c0.1,0.6,0.2,1.2,0.5,1.6c0.2,0.5,0.6,0.9,0.9,1.3
					c0.4,0.4,0.8,0.6,1.3,0.8c0.5,0.2,1.1,0.3,1.7,0.3c0.9,0,1.7-0.2,2.5-0.5s1.4-0.9,2-1.6l2.4,2.7c-0.3,0.4-0.7,0.8-1.1,1.2
					c-0.4,0.4-1,0.8-1.6,1.1c-0.6,0.3-1.3,0.6-2.1,0.8C314.1,93.8,313.3,93.9,312.4,93.9z M311.8,78.7c-0.5,0-1,0.1-1.4,0.3
					c-0.4,0.2-0.8,0.5-1,0.8c-0.3,0.3-0.5,0.7-0.7,1.2s-0.3,1-0.4,1.6h6.9v-0.4c0-0.5-0.1-1-0.2-1.4s-0.3-0.8-0.6-1.1
					c-0.3-0.3-0.6-0.5-1-0.7C312.9,78.8,312.4,78.7,311.8,78.7z"/>
			</g>
			<g>
				<path class="st20" d="M327.5,69.9c0,0.6-0.1,1.1-0.2,1.7c-0.2,0.6-0.4,1.2-0.7,1.7c-0.3,0.6-0.6,1.1-1,1.6s-0.8,0.9-1.2,1.3
					l-2.3-1.4c0.2-0.3,0.4-0.7,0.6-1.1s0.3-0.8,0.5-1.2c0.1-0.4,0.2-0.8,0.3-1.3c0.1-0.5,0.1-1,0.1-1.5V67h3.9L327.5,69.9
					L327.5,69.9z"/>
			</g>
			<g>
				<path class="st20" d="M338.3,88.4c0-0.3-0.1-0.5-0.2-0.7s-0.3-0.4-0.6-0.6c-0.3-0.2-0.7-0.4-1.2-0.5c-0.5-0.2-1.1-0.3-1.9-0.5
					c-0.9-0.2-1.8-0.5-2.6-0.8c-0.8-0.3-1.5-0.7-2.1-1.2s-1.1-1-1.4-1.6s-0.5-1.3-0.5-2.1c0-0.8,0.2-1.5,0.5-2.2s0.8-1.3,1.5-1.8
					c0.6-0.5,1.4-1,2.3-1.3s2-0.5,3.1-0.5c1.2,0,2.3,0.1,3.2,0.4c1,0.3,1.8,0.7,2.4,1.2c0.7,0.5,1.2,1.2,1.5,1.9
					c0.4,0.7,0.5,1.5,0.5,2.4h-5c0-0.7-0.2-1.3-0.7-1.8S335.9,78,335,78c-0.8,0-1.5,0.2-1.9,0.6c-0.5,0.4-0.7,0.9-0.7,1.4
					c0,0.3,0.1,0.5,0.2,0.7s0.3,0.4,0.6,0.6c0.3,0.2,0.6,0.3,1.1,0.5c0.4,0.1,1,0.3,1.6,0.4c1,0.2,1.9,0.4,2.8,0.7
					c0.9,0.3,1.6,0.7,2.2,1.1c0.6,0.5,1.1,1,1.5,1.6s0.5,1.4,0.5,2.3c0,0.8-0.2,1.6-0.6,2.3c-0.4,0.7-0.9,1.3-1.6,1.8
					s-1.5,0.9-2.5,1.2c-1,0.3-2,0.4-3.2,0.4c-1.3,0-2.5-0.2-3.4-0.6c-1-0.4-1.8-0.8-2.5-1.4s-1.2-1.3-1.5-2s-0.5-1.5-0.5-2.3h4.7
					c0,0.5,0.1,0.9,0.3,1.2c0.2,0.3,0.4,0.6,0.7,0.9c0.3,0.2,0.7,0.4,1.1,0.5s0.8,0.2,1.3,0.2c0.9,0,1.7-0.2,2.2-0.5
					C338.1,89.5,338.3,89,338.3,88.4z"/>
			</g>
		</g>
		<g>
			<g>
				<path class="st23" d="M212.7,136.8c-0.6,0-1-0.4-1-1v-25c0-0.6,0.4-1,1-1h9.8c1.6,0,3,0.2,4.3,0.7s2.4,1.1,3.3,1.9
					s1.6,1.8,2.1,3c0.5,1.1,0.7,2.4,0.7,3.7c0,1.3-0.2,2.6-0.7,3.7s-1.2,2.1-2.1,2.9s-2,1.4-3.3,1.8c-1.2,0.4-2.7,0.6-4.3,0.6h-3.6
					v7.8c0,0.6-0.4,1-1,1h-5.2V136.8z M222.5,121.8c0.6,0,1.2-0.1,1.6-0.2c0.4-0.1,0.7-0.3,0.9-0.5s0.4-0.5,0.5-0.8
					c0.1-0.4,0.2-0.7,0.2-1.2c0-0.4-0.1-0.8-0.2-1.2c-0.1-0.4-0.3-0.7-0.5-1s-0.5-0.5-1-0.7c-0.4-0.2-0.9-0.3-1.5-0.3h-3.6v5.9
					C218.9,121.8,222.5,121.8,222.5,121.8z"/>
				<path class="st20" d="M222.5,110.8c1.5,0,2.8,0.2,4,0.6s2.1,1,3,1.7c0.8,0.7,1.4,1.6,1.8,2.6s0.6,2.1,0.6,3.3
					c0,1.2-0.2,2.3-0.6,3.3s-1,1.8-1.8,2.5s-1.8,1.2-3,1.6s-2.5,0.6-4,0.6h-4.6v8.8h-5.2v-25H222.5 M217.9,122.8h4.6
					c0.7,0,1.4-0.1,1.9-0.3c0.5-0.2,1-0.4,1.3-0.8c0.3-0.3,0.6-0.7,0.7-1.2c0.2-0.5,0.2-1,0.2-1.5s-0.1-1.1-0.2-1.6
					c-0.2-0.5-0.4-0.9-0.7-1.3s-0.8-0.7-1.3-0.9c-0.5-0.2-1.2-0.3-1.9-0.3h-4.6V122.8 M222.5,108.8h-9.8c-1.1,0-2,0.9-2,2v25
					c0,1.1,0.9,2,2,2h5.2c1.1,0,2-0.9,2-2V129h2.6c1.7,0,3.2-0.2,4.6-0.7c1.4-0.5,2.6-1.1,3.6-2c1-0.9,1.8-2,2.4-3.2
					c0.5-1.2,0.8-2.6,0.8-4.1s-0.3-2.8-0.8-4.1c-0.5-1.3-1.3-2.4-2.3-3.3s-2.2-1.6-3.6-2.1C225.7,109,224.2,108.8,222.5,108.8
					L222.5,108.8z M219.9,117h2.6c0.5,0,0.8,0.1,1.1,0.2c0.2,0.1,0.5,0.2,0.6,0.4c0.2,0.2,0.3,0.4,0.3,0.6c0.1,0.3,0.1,0.6,0.1,0.9
					s0,0.6-0.1,0.8c-0.1,0.2-0.1,0.3-0.3,0.4c-0.1,0.1-0.3,0.2-0.6,0.3c-0.3,0.1-0.7,0.2-1.2,0.2h-2.6L219.9,117L219.9,117z"/>
			</g>
			<g>
				<path class="st20" d="M235.3,126.3c0-1.4,0.2-2.6,0.6-3.8c0.4-1.2,1-2.2,1.7-3s1.7-1.5,2.8-2c1.1-0.5,2.3-0.7,3.7-0.7
					c1.4,0,2.7,0.2,3.8,0.7c1.1,0.5,2,1.1,2.8,2c0.8,0.8,1.3,1.8,1.7,3c0.4,1.2,0.6,2.4,0.6,3.8v0.4c0,1.4-0.2,2.6-0.6,3.8
					s-1,2.1-1.7,3c-0.7,0.8-1.7,1.5-2.8,2c-1.1,0.5-2.3,0.7-3.7,0.7c-1.4,0-2.7-0.2-3.8-0.7c-1.1-0.5-2-1.1-2.8-2
					c-0.8-0.8-1.3-1.8-1.7-3c-0.4-1.2-0.6-2.4-0.6-3.8V126.3z M240.3,126.7c0,0.8,0.1,1.5,0.2,2.1c0.1,0.7,0.4,1.2,0.7,1.7
					c0.3,0.5,0.7,0.9,1.2,1.2s1.1,0.4,1.8,0.4c0.7,0,1.3-0.1,1.8-0.4c0.5-0.3,0.9-0.7,1.2-1.2c0.3-0.5,0.5-1.1,0.7-1.7
					c0.1-0.7,0.2-1.4,0.2-2.1v-0.4c0-0.7-0.1-1.4-0.2-2.1s-0.4-1.2-0.7-1.7c-0.3-0.5-0.7-0.9-1.2-1.2c-0.5-0.3-1.1-0.4-1.8-0.4
					c-0.7,0-1.3,0.1-1.8,0.4s-0.9,0.7-1.2,1.2c-0.3,0.5-0.5,1.1-0.7,1.7c-0.1,0.7-0.2,1.4-0.2,2.1V126.7z"/>
			</g>
			<g>
				<path class="st20" d="M267.6,121.9c-0.2,0-0.5-0.1-0.9-0.1c-0.3,0-0.6,0-0.9,0c-1,0-1.8,0.2-2.4,0.5s-1,0.8-1.3,1.4v12.2h-5
					v-18.6h4.7l0.1,2.2c0.5-0.8,1-1.4,1.7-1.9s1.5-0.7,2.4-0.7c0.3,0,0.5,0,0.8,0.1c0.3,0,0.5,0.1,0.7,0.2L267.6,121.9z"/>
			</g>
			<g>
				<path class="st20" d="M278,112.6v4.6h3.2v3.6H278v9.3c0,0.4,0,0.7,0.1,1s0.2,0.5,0.4,0.6c0.2,0.1,0.4,0.2,0.6,0.3
					s0.5,0.1,0.8,0.1s0.6,0,0.8,0c0.2,0,0.5-0.1,0.6-0.1v3.8c-0.4,0.1-0.9,0.2-1.3,0.3c-0.5,0.1-1,0.1-1.7,0.1
					c-0.8,0-1.5-0.1-2.2-0.3s-1.2-0.5-1.7-1c-0.5-0.4-0.8-1-1.1-1.7c-0.3-0.7-0.4-1.5-0.4-2.5v-9.8h-2.7v-3.6h2.7v-4.6h5.1V112.6z"
					/>
			</g>
			<g>
				<path class="st20" d="M286.6,135.8v-14.9h-2.8v-3.6h2.8v-1.6c0-1.1,0.2-2,0.5-2.8s0.8-1.5,1.4-2.1s1.3-1,2.1-1.3
					c0.8-0.3,1.8-0.4,2.8-0.4c0.5,0,0.9,0,1.3,0.1s0.8,0.1,1.2,0.2l-0.1,3.8c-0.4-0.1-0.9-0.2-1.5-0.2c-0.9,0-1.6,0.2-2.1,0.6
					s-0.7,1.1-0.7,1.9v1.6h3.7v3.6h-3.7v14.9h-4.9V135.8z"/>
			</g>
			<g>
				<path class="st20" d="M298.3,126.3c0-1.4,0.2-2.6,0.6-3.8c0.4-1.2,1-2.2,1.7-3s1.7-1.5,2.8-2c1.1-0.5,2.3-0.7,3.7-0.7
					c1.4,0,2.7,0.2,3.8,0.7c1.1,0.5,2,1.1,2.8,2c0.7,0.8,1.3,1.8,1.7,3c0.4,1.2,0.6,2.4,0.6,3.8v0.4c0,1.4-0.2,2.6-0.6,3.8
					s-1,2.1-1.7,3c-0.8,0.8-1.7,1.5-2.8,2c-1.1,0.5-2.3,0.7-3.7,0.7c-1.4,0-2.7-0.2-3.8-0.7c-1.1-0.5-2-1.1-2.8-2
					c-0.8-0.8-1.3-1.8-1.7-3c-0.4-1.2-0.6-2.4-0.6-3.8V126.3z M303.2,126.7c0,0.8,0.1,1.5,0.2,2.1c0.1,0.7,0.4,1.2,0.7,1.7
					c0.3,0.5,0.7,0.9,1.2,1.2s1.1,0.4,1.8,0.4c0.7,0,1.3-0.1,1.8-0.4c0.5-0.3,0.9-0.7,1.2-1.2c0.3-0.5,0.5-1.1,0.7-1.7
					c0.1-0.7,0.2-1.4,0.2-2.1v-0.4c0-0.7-0.1-1.4-0.2-2.1s-0.4-1.2-0.7-1.7c-0.3-0.5-0.7-0.9-1.2-1.2c-0.5-0.3-1.1-0.4-1.8-0.4
					c-0.7,0-1.3,0.1-1.8,0.4s-0.9,0.7-1.2,1.2c-0.3,0.5-0.5,1.1-0.7,1.7c-0.1,0.7-0.2,1.4-0.2,2.1V126.7z"/>
			</g>
			<g>
				<path class="st20" d="M325.4,135.8h-5v-26.4h5V135.8z"/>
			</g>
			<g>
				<path class="st20" d="M330.7,112.4c0-0.7,0.3-1.4,0.8-1.8c0.5-0.5,1.2-0.7,2-0.7c0.4,0,0.8,0.1,1.2,0.2c0.3,0.1,0.6,0.3,0.9,0.5
					c0.2,0.2,0.4,0.5,0.6,0.8c0.1,0.3,0.2,0.7,0.2,1c0,0.4-0.1,0.7-0.2,1s-0.3,0.6-0.6,0.8c-0.2,0.2-0.5,0.4-0.9,0.5
					c-0.3,0.1-0.7,0.2-1.2,0.2c-0.4,0-0.8-0.1-1.2-0.2c-0.3-0.1-0.6-0.3-0.9-0.5c-0.2-0.2-0.4-0.5-0.6-0.8
					C330.7,113.1,330.7,112.8,330.7,112.4z M335.9,135.8h-5v-18.6h5V135.8z"/>
			</g>
			<g>
				<path class="st20" d="M340.5,126.3c0-1.4,0.2-2.6,0.6-3.8c0.4-1.2,1-2.2,1.7-3s1.7-1.5,2.8-2c1.1-0.5,2.3-0.7,3.7-0.7
					c1.4,0,2.7,0.2,3.8,0.7c1.1,0.5,2,1.1,2.8,2c0.7,0.8,1.3,1.8,1.7,3c0.4,1.2,0.6,2.4,0.6,3.8v0.4c0,1.4-0.2,2.6-0.6,3.8
					s-1,2.1-1.7,3c-0.8,0.8-1.7,1.5-2.8,2c-1.1,0.5-2.3,0.7-3.7,0.7c-1.4,0-2.7-0.2-3.8-0.7c-1.1-0.5-2-1.1-2.8-2
					c-0.7-0.8-1.3-1.8-1.7-3c-0.4-1.2-0.6-2.4-0.6-3.8V126.3z M345.4,126.7c0,0.8,0.1,1.5,0.2,2.1c0.1,0.7,0.4,1.2,0.7,1.7
					c0.3,0.5,0.7,0.9,1.2,1.2s1.1,0.4,1.8,0.4c0.7,0,1.3-0.1,1.8-0.4c0.5-0.3,0.9-0.7,1.2-1.2c0.3-0.5,0.5-1.1,0.7-1.7
					s0.2-1.4,0.2-2.1v-0.4c0-0.7-0.1-1.4-0.2-2.1s-0.4-1.2-0.7-1.7c-0.3-0.5-0.7-0.9-1.2-1.2c-0.5-0.3-1.1-0.4-1.8-0.4
					c-0.7,0-1.3,0.1-1.8,0.4s-0.9,0.7-1.2,1.2c-0.3,0.5-0.5,1.1-0.7,1.7c-0.1,0.7-0.2,1.4-0.2,2.1V126.7z"/>
			</g>
		</g>
	</g>
</g>
<g>
	<g>
		<g>
			<path class="st21" d="M338.2,426.9c-1.1,19,9.7,38.6,33.4,46.2c21.8,7,45.6,7.1,67.1-2.5c39-17.5,17.7-59.5-9.3-76.1
				c-12.5-7.7-27.8-12.2-43.2-11.6C356.1,384.1,339.4,405.1,338.2,426.9"/>
			<path class="st24" d="M343.5,418.5c-1.1,19,9.7,38.6,33.4,46.2c21.8,7,45.6,7.1,67.1-2.5c39-17.5,17.7-59.5-9.3-76.1
				c-12.5-7.7-27.8-12.2-43.2-11.6C361.4,375.8,344.7,396.7,343.5,418.5"/>
			<path class="st20" d="M418,443c6.7-0.4,13.4-1.9,19.4-4.7c30.4-14,10.1-42.4-13.6-52.8c-10.3-4.5-21.6-6.5-31.7-5.4
				c-0.7,0.1-1.4,0.2-2,0.2c-8.5,1.2-14.7,4.4-19.1,9.8c-4.5,5.5-6.7,13-6,20.7C366.8,431.3,393.2,444.6,418,443z"/>
		</g>
		<g>
			<path class="st25" d="M373.5,407.1c0,24.7,18.9,35,42.2,35c23.3,0,42.2-10.3,42.2-35s-18.9-54.4-42.2-54.4
				S373.5,382.3,373.5,407.1z"/>
			<path class="st26" d="M437.2,401.7c1.6-6.4-6.5-13.8-17.9-16.6c-11.4-2.8-22,0.2-23.5,6.6c-1.6,6.4,6.5,13.8,17.9,16.6
				C425.1,411.1,435.6,408.1,437.2,401.7z"/>
			<g>
				<path class="st27" d="M444.7,388.5c-0.3,2.7-2.4,4.7-4.8,4.5c-0.8-0.1-1.5-0.4-2.1-0.9c-0.7,0.4-1.4,0.5-2.2,0.4
					c-2.4-0.2-4.1-2.6-3.8-5.3c0.3-2.7,2.4-4.7,4.8-4.5c0.8,0.1,1.5,0.4,2.1,0.9c0.7-0.4,1.4-0.5,2.2-0.4
					C443.2,383.4,444.9,385.8,444.7,388.5z"/>
				<path class="st28" d="M437.5,381.9c0,0,0.4-4-5.6-4.8C432.2,378.7,432.6,380.9,437.5,381.9z"/>
				<path class="st29" d="M433.3,383.6c-1.7,1.6-2.3,4.3-1.3,6.4c1,2.2,3.5,3.5,5.8,2.4c1.3,0.9,2.9,1.1,4.3,0.4
					c2.3-1.1,3.4-4.1,2.6-6.5c-0.8-2.6-3.5-4.3-6.1-3.1c-0.3-0.2-0.8-0.6-1.2-0.6c-0.1,0-0.1,0-0.2-0.1c-0.2-0.1-0.5-0.1-0.7-0.1
					C435.4,382.3,434.2,382.8,433.3,383.6z M432.2,386.9c0.4-2.2,2.4-4.3,4.8-3.7c0.3,0.1,0.7,0.2,1,0.4c0.7,0.4,1.3,1.1,1.7,1.9
					c0.2,0.4,0.3,0.9,0.4,1.3c0,0.2,0.1,0.5,0.1,0.7s-0.1,0.5,0,0.7s0.3,0.3,0.5,0.2c0.2-0.1,0.2-0.3,0.2-0.5c0-0.5,0-1.1-0.1-1.6
					c-0.2-0.9-0.7-1.8-1.3-2.5c1.4-0.5,2.9-0.1,3.9,1c1.7,1.9,1.6,5-0.2,6.8c-0.8,0.8-2,1.3-3.2,1.1c-0.4-0.1-0.8-0.2-1.1-0.4
					c-0.3-0.1-0.6-0.5-0.8-0.5c-0.2,0-0.4,0.2-0.6,0.2c-0.2,0.1-0.3,0.1-0.5,0.2c-0.4,0.1-0.7,0.1-1.1,0.1
					C433.1,392,431.8,389.2,432.2,386.9z"/>
				<path class="st29" d="M437.8,392.6c-1,0.5-2.2,0.5-3.2,0.1c-1.2-0.4-2.2-1.4-2.7-2.6c-1-2.2-0.4-5,1.3-6.6
					c1.2-1,2.7-1.5,4.1-1.1c0.1,0,0.1,0,0.2,0.1c0.4,0,0.9,0.4,1.2,0.6c1.1-0.5,2.3-0.5,3.5,0c1.3,0.6,2.3,1.8,2.7,3.2
					c0.8,2.6-0.4,5.5-2.7,6.7c-0.7,0.4-1.5,0.5-2.3,0.4C439.1,393.3,438.4,393,437.8,392.6z M438.8,383.4c-0.3-0.2-0.9-0.6-1.2-0.6
					c-0.1,0-0.1,0-0.2-0.1c-1.4-0.4-2.8,0-3.9,1c-1.7,1.5-2.2,4.2-1.3,6.3c0.5,1.2,1.4,2.1,2.6,2.5c1,0.4,2.1,0.3,3.1-0.1h0.1h0.1
					c1.2,0.9,2.8,1.1,4.2,0.4c2.2-1.1,3.3-3.9,2.6-6.4c-0.4-1.3-1.4-2.5-2.6-3c-0.4-0.2-0.8-0.3-1.2-0.3
					C440.1,382.9,439.4,383.1,438.8,383.4z M433,390.8c-0.8-1.1-1.2-2.6-0.9-4c0.2-1.3,1-2.6,2.1-3.3c0.9-0.6,1.9-0.7,2.8-0.5
					c0.4,0.1,0.7,0.2,1,0.4c0.7,0.4,1.3,1.1,1.7,1.9c0.2,0.4,0.3,0.9,0.4,1.4c0,0.2,0.1,0.5,0.1,0.7c0,0.1,0,0.2,0,0.3
					c0,0.1,0,0.3,0,0.4s0.1,0.1,0.1,0.1s0.1,0,0.2,0c0.1-0.1,0.1-0.2,0.1-0.4v-0.1c0-0.5,0-1-0.1-1.5c-0.2-1-0.7-1.8-1.3-2.5
					l-0.1-0.1l0.2-0.1c1.4-0.5,3-0.2,4.1,1c1.7,1.9,1.6,5.1-0.2,7c-0.9,0.9-2.1,1.3-3.3,1.2c-0.4-0.1-0.8-0.2-1.2-0.4
					c-0.1-0.1-0.2-0.1-0.3-0.2c-0.2-0.1-0.3-0.3-0.5-0.3c-0.1,0-0.2,0.1-0.3,0.1c-0.1,0-0.1,0.1-0.2,0.1c-0.2,0.1-0.3,0.1-0.5,0.2
					c-0.4,0.1-0.8,0.1-1.2,0.1C434.6,392.2,433.7,391.7,433,390.8z M438.5,392c0.1,0.1,0.2,0.1,0.3,0.2c0.3,0.2,0.7,0.3,1.1,0.4
					c1.1,0.2,2.2-0.3,3.1-1.1c1.8-1.8,1.9-4.9,0.2-6.7c-1-1-2.4-1.4-3.7-1c0.6,0.7,1,1.5,1.3,2.4c0.1,0.5,0.2,1.1,0.1,1.6v0.1
					c0,0.2,0,0.4-0.2,0.6c-0.1,0.1-0.2,0.1-0.4,0c-0.1-0.1-0.2-0.2-0.3-0.3c0-0.1,0-0.3,0-0.5c0-0.1,0-0.2,0-0.2
					c0-0.2,0-0.5-0.1-0.7c-0.1-0.5-0.2-0.9-0.4-1.3c-0.4-0.8-0.9-1.4-1.6-1.8c-0.3-0.2-0.6-0.3-0.9-0.4c-0.9-0.2-1.8-0.1-2.6,0.5
					c-1,0.7-1.8,1.9-2,3.1c-0.2,1.3,0.1,2.8,0.9,3.8c0.6,0.8,1.5,1.3,2.5,1.4c0.4,0,0.7,0,1.1-0.1c0.2,0,0.3-0.1,0.5-0.1
					c0.1,0,0.1-0.1,0.2-0.1c0.1-0.1,0.3-0.2,0.4-0.1C438.1,391.7,438.3,391.8,438.5,392z"/>
				<path class="st29" d="M438.7,382.6C438.7,382.6,438.8,382.6,438.7,382.6c0.2,0,0.4-0.2,0.3-0.3c0,0,0-0.7,0.2-1.5
					c0.3-1,1-1.6,2-1.8c0.2,0,0.3-0.2,0.2-0.4c0-0.2-0.2-0.3-0.4-0.2c-1.2,0.2-2.1,1-2.5,2.2c-0.3,0.9-0.3,1.7-0.3,1.7
					C438.5,382.5,438.6,382.6,438.7,382.6z"/>
				<path class="st29" d="M438.3,382.4c0,0,0-0.9,0.3-1.8c0.4-1.3,1.3-2,2.6-2.3c0.2,0,0.5,0.1,0.5,0.3c0,0.2-0.1,0.5-0.3,0.5
					c-0.9,0.2-1.6,0.7-1.9,1.7c-0.2,0.7-0.2,1.4-0.2,1.5c0,0.2-0.2,0.4-0.4,0.5c0,0,0,0-0.1,0C438.5,382.7,438.3,382.6,438.3,382.4z
					 M441.2,378.5c-1.2,0.2-2,1-2.4,2.1c-0.3,0.9-0.3,1.7-0.2,1.7c0,0.1,0.1,0.2,0.2,0.2s0.2-0.1,0.2-0.2s0-0.8,0.2-1.6
					c0.4-1,1.1-1.7,2.1-1.9c0.1,0,0.2-0.1,0.2-0.2C441.4,378.6,441.3,378.5,441.2,378.5z"/>
				<path class="st29" d="M437.5,382.1c-2.2-0.4-3.8-1.2-4.7-2.2c-0.8-1-1-2.1-1.1-2.8c0-0.1,0-0.2,0.1-0.2c0.1-0.1,0.1-0.1,0.2-0.1
					c1.4,0.2,2.6,0.5,3.5,1.1c0.7,0.5,1.3,1,1.7,1.7c0.7,1.2,0.6,2.2,0.6,2.3c0,0.1,0,0.1-0.1,0.2
					C437.6,382.1,437.5,382.1,437.5,382.1z M433.2,379.5c0.8,0.9,2.1,1.5,4,2c0-0.4-0.1-1-0.5-1.6c-0.3-0.6-0.9-1.1-1.5-1.5
					c-0.8-0.5-1.8-0.8-2.9-1C432.4,378.1,432.6,378.9,433.2,379.5z"/>
				<path class="st20" d="M437.4,382.2c-2.3-0.4-3.8-1.2-4.7-2.3c-0.9-1-1-2.1-1.1-2.9c0-0.1,0-0.2,0.1-0.3c0.1-0.1,0.2-0.1,0.3-0.1
					c1.4,0.2,2.6,0.6,3.5,1.1c0.8,0.5,1.4,1,1.8,1.7c0.7,1.2,0.6,2.3,0.6,2.3c0,0.1-0.1,0.2-0.2,0.3
					C437.7,382.2,437.6,382.3,437.4,382.2C437.5,382.2,437.4,382.2,437.4,382.2z M431.8,377.1C431.8,377.1,431.7,377.2,431.8,377.1
					c0.1,0.8,0.3,1.9,1.1,2.8c0.9,1,2.4,1.7,4.6,2.2h0.1l0.1-0.1c0,0,0.1-1.1-0.6-2.2c-0.4-0.7-1-1.2-1.7-1.7
					C434.5,377.6,433.3,377.2,431.8,377.1C431.9,377,431.9,377,431.8,377.1z M437.2,381.6c-2-0.4-3.3-1.1-4.1-2
					c-0.6-0.7-0.8-1.5-0.9-2.2v-0.2h0.2c1.2,0.2,2.2,0.5,3,1c0.7,0.4,1.2,0.9,1.6,1.6s0.5,1.3,0.5,1.7v0.2L437.2,381.6z
					 M433.3,379.5c0.7,0.9,2,1.5,3.8,1.9c0-0.4-0.2-0.9-0.5-1.4c-0.3-0.6-0.8-1.1-1.5-1.5s-1.6-0.7-2.7-0.9
					C432.5,378.2,432.8,378.8,433.3,379.5z"/>
				<path class="st30" d="M437.4,382.2c-2.3-0.4-3.8-1.2-4.7-2.3c-0.9-1-1-2.1-1.1-2.9c0-0.1,0-0.2,0.1-0.3c0.1-0.1,0.2-0.1,0.3-0.1
					c1.4,0.2,2.6,0.6,3.5,1.1c0.8,0.5,1.4,1,1.8,1.7c0.7,1.2,0.6,2.3,0.6,2.3c0,0.1-0.1,0.2-0.2,0.3
					C437.7,382.2,437.6,382.3,437.4,382.2z M431.8,377.1C431.8,377.1,431.7,377.2,431.8,377.1c0.1,0.8,0.3,1.9,1.1,2.8
					c0.9,1,2.4,1.7,4.6,2.2h0.1l0.1-0.1c0,0,0.1-1.1-0.6-2.2c-0.4-0.7-1-1.2-1.7-1.7C434.5,377.6,433.3,377.2,431.8,377.1
					C431.9,377,431.9,377,431.8,377.1z M437.2,381.6c-2-0.4-3.3-1.1-4.1-2c-0.6-0.7-0.8-1.5-0.9-2.2v-0.2h0.2c1.2,0.2,2.2,0.5,3,1
					c0.7,0.4,1.2,0.9,1.6,1.6s0.5,1.3,0.5,1.7v0.2L437.2,381.6z M433.3,379.5c0.7,0.9,2,1.5,3.8,1.9c0-0.4-0.2-0.9-0.5-1.4
					c-0.3-0.6-0.8-1.1-1.5-1.5s-1.6-0.7-2.7-0.9C432.5,378.2,432.8,378.8,433.3,379.5z"/>
				<path class="st29" d="M440.1,389.5c0.2,0,0.3-0.1,0.3-0.3c0-0.2-0.1-0.3-0.3-0.3c-0.2,0-0.3,0.1-0.3,0.3
					C439.8,389.3,440,389.5,440.1,389.5z"/>
				<path class="st29" d="M439.7,389.1c0-0.2,0.2-0.4,0.5-0.4c0.2,0,0.4,0.2,0.4,0.5c0,0.2-0.2,0.4-0.5,0.4
					C439.9,389.6,439.7,389.4,439.7,389.1z M440,389.2c0,0.1,0.1,0.2,0.2,0.2s0.2-0.1,0.2-0.2s-0.1-0.2-0.2-0.2S440,389.1,440,389.2
					z"/>
			</g>
			<path class="st26" d="M434.5,410l-0.1,2.5C434.4,410.9,434.5,410,434.5,410z"/>
			<path class="st31" d="M461.7,407.8c-13.4-0.8-24.7,7.1-25.8,16.6c-1.1,9.6,8.6,17.3,22,18.1c13.4,0.8,25.6-5.8,26.7-15.3
				C485.6,417.6,475.1,408.5,461.7,407.8z"/>
			<path class="st32" d="M484,427.4c-0.7,6.1-5.8,10.8-12.8,13.4l2-29.7C480.1,414.7,484.7,420.9,484,427.4z"/>
			<path class="st31" d="M418.9,408.2c-17.3-1.9-31.5,5.5-32.7,15.6c-1.1,10.1,11.4,19.1,28.7,21c17.3,1.9,32.7-4.1,33.8-14.1
				C449.9,420.5,436.2,410.1,418.9,408.2z"/>
			<path class="st32" d="M448,430.8c-0.7,6.4-7.2,11.1-16.2,13.2l1.8-31.4C442.8,417.1,448.7,424,448,430.8z"/>
			<path class="st26" d="M383.4,421.8c-3.4,4.2-5.7,9.2-5.8,14.3c0,1.4-0.1,1.9,1.5,1.8c1.8,0,3.6-0.5,5.4-0.7
				c2.2-0.2,4.4-0.3,6.6-0.4c1.6,0,3.6,0.4,5.2,0.1c1.8-0.3,3.6-1.3,5.5-1.8c2-0.5,4.1-0.8,6.3-1c3.1-0.3,6.5,0,9.6-0.4
				c1.3-0.2,2.2-1.1,3.3-1.8c1.3-0.8,2.7-1.5,4.2-2.1c2.9-1.1,6-1.8,9.1-2.1c1.1-0.1,2.6,0.2,3.7-0.1c1.1-0.2,2-1.1,2.8-1.7
				c2-1.5,4.1-3.1,6.5-4.2c2.2-1.1,4.5-1.9,7-2.3c2.6-0.5,4.6-0.4,6.5-2.3c1-0.9,1.2-2.2,2.3-3.2c1.2-1.1,2.8-1.8,4.5-2.2
				c0.7-0.2,1.5-0.4,1.8-0.9c-8.2-3.6-16.8-4.8-25.9-5.9c-9.2-1-18.5-1.3-27.7,0.1c-9.3,1.4-18.3,4.8-25.3,10.2
				C388.2,416.8,385.7,419,383.4,421.8z"/>
			<path class="st33" d="M388.9,416l5.8,20.5"/>
			<path class="st33" d="M396.4,411.4l20.8,21.9"/>
			<path class="st33" d="M406.6,407.7l31.6,19.9"/>
			<path class="st33" d="M420.2,404.6l36.6,13.9"/>
			<path class="st25" d="M381.3,375.6c0.9-1,1.9-1.9,3-2.5c3.2-1.9,7.1-2.2,10.5-1.4c3.6,0.8,6.9,2.6,9.8,4.9
				c4.5,3.4,8.8,7.9,14.1,8.6c1,0.1,1.9,0.1,2.9,0.4c0.7,0.2,1.5,0.6,2,1.4c0.6,0.9,0.1,1.9-0.1,2.9c-0.5,2.4-1.1,4.7-1.6,7.1
				c-1.1,4.6-2.4,9.2-3.8,13.7c-0.3,1.1-0.8,2.3-1.7,2.9c-0.7,0.5-1.6,0.5-2.5,0.3c-3.2-0.4-6.2-2-9.2-3.3
				c-6.8-2.9-14.3-4.6-19.7-10c-2.7-2.8-4.7-6.5-6-10.3c-0.8-2.5-1.4-5.1-1.1-7.7C378.4,379.8,379.6,377.5,381.3,375.6z"/>
			<path class="st27" d="M396,386.3c-0.3,2.7-2.4,4.7-4.8,4.5c-0.8-0.1-1.5-0.4-2.1-0.9c-0.7,0.4-1.4,0.5-2.2,0.4
				c-2.4-0.2-4.1-2.6-3.8-5.3c0.3-2.7,2.4-4.7,4.8-4.5c0.8,0.1,1.5,0.4,2.1,0.9c0.7-0.4,1.4-0.5,2.2-0.4
				C394.5,381.3,396.2,383.6,396,386.3z"/>
			<path class="st28" d="M388.8,379.7c0,0,0.4-4-5.6-4.8C383.6,376.7,384,378.7,388.8,379.7z"/>
			<path class="st29" d="M384.7,381.5c-1.7,1.6-2.3,4.3-1.3,6.4c1,2.2,3.5,3.5,5.8,2.4c1.3,0.9,2.9,1.1,4.3,0.4
				c2.3-1.1,3.4-4.1,2.6-6.5c-0.8-2.6-3.5-4.3-6.1-3.1c-0.3-0.2-0.8-0.6-1.2-0.6c-0.1,0-0.1,0-0.2-0.1c-0.2-0.1-0.5-0.1-0.7-0.1
				C386.8,380.2,385.6,380.6,384.7,381.5z M383.6,384.7c0.4-2.2,2.4-4.3,4.8-3.7c0.3,0.1,0.7,0.2,1,0.4c0.7,0.4,1.3,1.1,1.7,1.9
				c0.2,0.4,0.3,0.9,0.4,1.3c0,0.2,0.1,0.5,0.1,0.7s-0.1,0.5,0,0.7s0.3,0.3,0.5,0.2c0.2-0.1,0.2-0.3,0.2-0.5c0-0.5,0-1.1-0.1-1.6
				c-0.2-0.9-0.7-1.8-1.3-2.5c1.4-0.5,2.9-0.1,3.9,1c1.7,1.9,1.6,5-0.2,6.8c-0.8,0.8-2,1.3-3.2,1.1c-0.4-0.1-0.8-0.2-1.1-0.4
				c-0.3-0.1-0.6-0.5-0.8-0.5c-0.2,0-0.4,0.2-0.6,0.2c-0.2,0.1-0.3,0.1-0.5,0.2c-0.4,0.1-0.7,0.1-1.1,0.1
				C384.5,389.8,383.2,387,383.6,384.7z"/>
			<path class="st29" d="M389.1,390.4c-1,0.5-2.2,0.5-3.2,0.1c-1.2-0.4-2.2-1.4-2.7-2.6c-1-2.2-0.4-5,1.3-6.6c1.2-1,2.7-1.5,4.1-1.1
				c0.1,0,0.1,0,0.2,0.1c0.4,0,0.9,0.4,1.2,0.6c1.1-0.5,2.3-0.5,3.5,0c1.3,0.6,2.3,1.8,2.7,3.2c0.8,2.6-0.4,5.5-2.7,6.7
				c-0.7,0.4-1.5,0.5-2.3,0.4C390.4,391.1,389.7,390.9,389.1,390.4z M390.1,381.2L390.1,381.2c-0.3-0.2-0.9-0.6-1.2-0.6
				c-0.1,0-0.1,0-0.2-0.1c-1.4-0.4-2.8,0-3.9,1c-1.7,1.5-2.2,4.2-1.3,6.3c0.5,1.2,1.4,2.1,2.6,2.5c1,0.4,2.1,0.3,3.1-0.1h0.1h0.1
				c1.2,0.9,2.8,1.1,4.2,0.4c2.2-1.1,3.3-3.9,2.6-6.4c-0.4-1.3-1.4-2.5-2.6-3c-0.4-0.2-0.8-0.3-1.2-0.3
				C391.4,380.8,390.7,380.9,390.1,381.2z M384.4,388.7c-0.8-1.1-1.2-2.6-0.9-4c0.2-1.3,1-2.6,2.1-3.3c0.9-0.6,1.9-0.7,2.8-0.5
				c0.4,0.1,0.7,0.2,1,0.4c0.7,0.4,1.3,1.1,1.7,1.9c0.2,0.4,0.3,0.9,0.4,1.4c0,0.2,0.1,0.5,0.1,0.7c0,0.1,0,0.2,0,0.3
				c0,0.1,0,0.3,0,0.4s0.1,0.1,0.1,0.1s0.1,0,0.2,0c0.1-0.1,0.1-0.2,0.1-0.4v-0.1c0-0.5,0-1-0.1-1.5c-0.2-1-0.7-1.8-1.3-2.5
				l-0.2-0.1l0.2-0.1c1.4-0.5,3-0.2,4.1,1c1.7,1.9,1.6,5.1-0.2,7c-0.9,0.9-2.1,1.3-3.3,1.2c-0.4-0.1-0.8-0.2-1.2-0.4
				c-0.1-0.1-0.2-0.1-0.3-0.2c-0.2-0.1-0.3-0.3-0.5-0.3c-0.1,0-0.2,0.1-0.3,0.1c-0.1,0-0.1,0.1-0.2,0.1c-0.2,0.1-0.3,0.1-0.5,0.2
				c-0.4,0.1-0.8,0.1-1.2,0.1C386,390.1,385.1,389.5,384.4,388.7z M389.8,389.8c0.1,0.1,0.2,0.1,0.3,0.2c0.3,0.2,0.7,0.3,1.1,0.4
				c1.1,0.2,2.2-0.3,3.1-1.1c1.8-1.8,1.9-4.9,0.2-6.7c-1-1-2.4-1.4-3.7-1c0.6,0.7,1,1.5,1.3,2.4c0.1,0.5,0.2,1.1,0.1,1.6v0.1
				c0,0.2,0,0.4-0.2,0.6c-0.1,0.1-0.2,0.1-0.4,0c-0.1-0.1-0.2-0.2-0.3-0.3c0-0.1,0-0.3,0-0.5c0-0.1,0-0.2,0-0.2c0-0.2,0-0.5-0.1-0.7
				c-0.1-0.5-0.2-0.9-0.4-1.3c-0.4-0.8-0.9-1.4-1.6-1.8c-0.3-0.2-0.6-0.3-0.9-0.4c-0.9-0.2-1.8-0.1-2.6,0.5c-1,0.7-1.8,1.9-2,3.1
				c-0.2,1.3,0.1,2.8,0.9,3.8c0.6,0.8,1.5,1.3,2.5,1.4c0.4,0,0.7,0,1.1-0.1c0.2,0,0.3-0.1,0.5-0.1c0.1,0,0.1-0.1,0.2-0.1
				c0.1-0.1,0.3-0.2,0.4-0.1C389.4,389.5,389.6,389.7,389.8,389.8z"/>
			<path class="st29" d="M390,380.5C390,380.5,390.1,380.5,390,380.5c0.2,0,0.4-0.2,0.3-0.3c0,0,0-0.7,0.2-1.5c0.3-1,1-1.6,2-1.8
				c0.2,0,0.3-0.2,0.2-0.4c0-0.2-0.2-0.3-0.4-0.2c-1.2,0.2-2.1,1-2.5,2.2c-0.3,0.9-0.3,1.7-0.3,1.7
				C389.8,380.3,389.9,380.5,390,380.5z"/>
			<path class="st20" d="M389.6,380.2c0,0,0-0.9,0.3-1.8c0.4-1.3,1.3-2,2.6-2.3c0.2,0,0.5,0.1,0.5,0.3c0,0.2-0.1,0.5-0.3,0.5
				c-0.9,0.2-1.6,0.7-1.9,1.7c-0.2,0.7-0.2,1.4-0.2,1.5c0,0.2-0.2,0.4-0.4,0.5c0,0,0,0-0.1,0C389.8,380.6,389.6,380.4,389.6,380.2z
				 M392.5,376.5c-1.2,0.2-2,1-2.4,2.1c-0.3,0.9-0.3,1.7-0.2,1.7c0,0.1,0.1,0.2,0.2,0.2s0.2-0.1,0.2-0.2s0-0.8,0.2-1.6
				c0.4-1,1.1-1.7,2.1-1.9c0.1,0,0.2-0.1,0.2-0.2C392.7,376.5,392.6,376.5,392.5,376.5C392.5,376.4,392.5,376.4,392.5,376.5z"/>
			<path class="st30" d="M392.5,376.5c-1.2,0.2-2,1-2.4,2.1c-0.3,0.9-0.3,1.7-0.2,1.7c0,0.1,0.1,0.2,0.2,0.2s0.2-0.1,0.2-0.2
				s0-0.8,0.2-1.6c0.4-1,1.1-1.7,2.1-1.9c0.1,0,0.2-0.1,0.2-0.2C392.7,376.5,392.6,376.5,392.5,376.5z M389.6,380.2
				c0,0,0-0.9,0.3-1.8c0.4-1.3,1.3-2,2.6-2.3c0.2,0,0.5,0.1,0.5,0.3c0,0.2-0.1,0.5-0.3,0.5c-0.9,0.2-1.6,0.7-1.9,1.7
				c-0.2,0.7-0.2,1.4-0.2,1.5c0,0.2-0.2,0.4-0.4,0.5c0,0,0,0-0.1,0C389.8,380.6,389.6,380.4,389.6,380.2z"/>
			<path class="st29" d="M388.8,380c-2.2-0.4-3.8-1.2-4.7-2.2c-0.8-1-1-2.1-1.1-2.8c0-0.1,0-0.2,0.1-0.2c0.1-0.1,0.1-0.1,0.2-0.1
				c1.4,0.2,2.6,0.5,3.5,1.1c0.7,0.5,1.3,1,1.7,1.7c0.7,1.2,0.6,2.2,0.6,2.3c0,0.1,0,0.1-0.1,0.2C388.9,380,388.8,380,388.8,380z
				 M384.6,377.5c0.8,0.9,2.1,1.5,4,2c0-0.4-0.1-1-0.5-1.6c-0.3-0.6-0.9-1.1-1.5-1.5c-0.8-0.5-1.8-0.8-2.9-1
				C383.8,376.1,384,376.8,384.6,377.5z"/>
			<path class="st20" d="M388.7,380.1c-2.3-0.4-3.8-1.2-4.7-2.3c-0.9-1-1-2.1-1.1-2.9c0-0.1,0-0.2,0.1-0.3c0.1-0.1,0.2-0.1,0.3-0.1
				c1.4,0.2,2.6,0.6,3.5,1.1c0.8,0.5,1.4,1,1.8,1.7c0.7,1.2,0.6,2.3,0.6,2.3c0,0.1-0.1,0.2-0.2,0.3
				C389,380.1,388.9,380.1,388.7,380.1C388.8,380.1,388.7,380.1,388.7,380.1z M383.2,374.9c0,0-0.1,0.1,0,0.1
				c0.1,0.7,0.3,1.8,1.1,2.7c0.9,1,2.4,1.7,4.6,2.2h0.1l0.1-0.1c0,0,0.1-1.1-0.6-2.2c-0.4-0.7-1-1.2-1.7-1.7
				c-0.9-0.5-2.1-0.9-3.5-1.1C383.3,374.8,383.3,374.9,383.2,374.9z M388.5,379.5c-2-0.4-3.3-1.1-4.1-2c-0.6-0.7-0.8-1.5-0.9-2.2
				v-0.2h0.2c1.2,0.2,2.2,0.5,3,1c0.7,0.4,1.2,0.9,1.6,1.6s0.5,1.3,0.5,1.7v0.2L388.5,379.5z M384.7,377.4c0.7,0.9,2,1.5,3.8,1.9
				c0-0.4-0.2-0.9-0.5-1.4c-0.3-0.6-0.8-1.1-1.5-1.5s-1.6-0.7-2.7-0.9C383.9,376.1,384.2,376.8,384.7,377.4z"/>
			<path class="st30" d="M388.7,380.1c-2.3-0.4-3.8-1.2-4.7-2.3c-0.9-1-1-2.1-1.1-2.9c0-0.1,0-0.2,0.1-0.3c0.1-0.1,0.2-0.1,0.3-0.1
				c1.4,0.2,2.6,0.6,3.5,1.1c0.8,0.5,1.4,1,1.8,1.7c0.7,1.2,0.6,2.3,0.6,2.3c0,0.1-0.1,0.2-0.2,0.3
				C389,380.1,388.9,380.1,388.7,380.1z M383.2,374.9c0,0-0.1,0.1,0,0.1c0.1,0.7,0.3,1.8,1.1,2.7c0.9,1,2.4,1.7,4.6,2.2h0.1l0.1-0.1
				c0,0,0.1-1.1-0.6-2.2c-0.4-0.7-1-1.2-1.7-1.7c-0.9-0.5-2.1-0.9-3.5-1.1C383.3,374.8,383.3,374.9,383.2,374.9z M388.5,379.5
				c-2-0.4-3.3-1.1-4.1-2c-0.6-0.7-0.8-1.5-0.9-2.2v-0.2h0.2c1.2,0.2,2.2,0.5,3,1c0.7,0.4,1.2,0.9,1.6,1.6s0.5,1.3,0.5,1.7v0.2
				L388.5,379.5z M384.7,377.4c0.7,0.9,2,1.5,3.8,1.9c0-0.4-0.2-0.9-0.5-1.4c-0.3-0.6-0.8-1.1-1.5-1.5s-1.6-0.7-2.7-0.9
				C383.9,376.1,384.2,376.8,384.7,377.4z"/>
			<path class="st29" d="M391.4,387.3c0.2,0,0.3-0.1,0.3-0.3c0-0.2-0.1-0.3-0.3-0.3c-0.2,0-0.3,0.1-0.3,0.3
				C391.1,387.2,391.3,387.3,391.4,387.3z"/>
			<path class="st29" d="M391,387c0-0.2,0.2-0.4,0.5-0.4c0.2,0,0.4,0.2,0.4,0.5c0,0.2-0.2,0.4-0.5,0.4
				C391.2,387.4,391,387.2,391,387z M391.3,387c0,0.1,0.1,0.2,0.2,0.2s0.2-0.1,0.2-0.2s-0.1-0.2-0.2-0.2
				C391.4,386.8,391.3,386.9,391.3,387z"/>
			<path class="st27" d="M416.2,399.5c-0.3,2.7-2.4,4.7-4.8,4.5c-0.8-0.1-1.5-0.4-2.1-0.9c-0.7,0.4-1.4,0.5-2.2,0.4
				c-2.4-0.2-4.1-2.6-3.8-5.3c0.3-2.7,2.4-4.7,4.8-4.5c0.8,0.1,1.5,0.4,2.1,0.9c0.7-0.4,1.4-0.5,2.2-0.4
				C414.8,394.6,416.5,396.9,416.2,399.5z"/>
			<path class="st28" d="M409.1,393c0,0,0.4-4-5.6-4.8C403.8,389.9,404.3,392,409.1,393z"/>
			<path class="st29" d="M404.9,394.8c-1.7,1.6-2.3,4.3-1.3,6.4c1,2.2,3.5,3.5,5.8,2.4c1.3,0.9,2.9,1.1,4.3,0.4
				c2.3-1.1,3.4-4.1,2.6-6.5c-0.8-2.6-3.5-4.3-6.1-3.1c-0.3-0.2-0.8-0.6-1.2-0.6c-0.1,0-0.1,0-0.2-0.1c-0.2-0.1-0.5-0.1-0.7-0.1
				C407,393.5,405.8,393.9,404.9,394.8z M403.8,397.9c0.4-2.2,2.4-4.3,4.8-3.7c0.3,0.1,0.7,0.2,1,0.4c0.7,0.4,1.3,1.1,1.7,1.9
				c0.2,0.4,0.3,0.9,0.4,1.3c0,0.2,0.1,0.5,0.1,0.7s-0.1,0.5,0,0.7s0.3,0.3,0.5,0.2c0.2-0.1,0.2-0.3,0.2-0.5c0-0.5,0-1.1-0.1-1.6
				c-0.2-0.9-0.7-1.8-1.3-2.5c1.4-0.5,2.9-0.1,3.9,1c1.7,1.9,1.6,5-0.2,6.8c-0.8,0.8-2,1.3-3.2,1.1c-0.4-0.1-0.8-0.2-1.1-0.4
				c-0.3-0.1-0.6-0.5-0.8-0.5c-0.2,0-0.4,0.2-0.6,0.2c-0.2,0.1-0.3,0.1-0.5,0.2c-0.4,0.1-0.7,0.1-1.1,0.1
				C404.7,403,403.4,400.2,403.8,397.9z"/>
			<path class="st29" d="M409.3,403.6c-1,0.5-2.2,0.5-3.2,0.1c-1.2-0.4-2.2-1.4-2.7-2.6c-1-2.2-0.4-5,1.3-6.6c1.2-1,2.7-1.5,4.1-1.1
				c0.1,0,0.1,0,0.2,0.1c0.4,0,0.9,0.4,1.2,0.6c1.1-0.5,2.3-0.5,3.5,0c1.3,0.6,2.3,1.8,2.7,3.2c0.8,2.6-0.4,5.5-2.7,6.7
				c-0.7,0.4-1.5,0.5-2.3,0.4C410.7,404.3,410,404.1,409.3,403.6z M410.3,394.5h-0.1c-0.2-0.2-0.8-0.6-1.1-0.6c-0.1,0-0.1,0-0.2-0.1
				c-1.4-0.4-2.8,0-3.9,1c-1.7,1.5-2.2,4.2-1.3,6.3c0.5,1.2,1.4,2.1,2.6,2.5c1,0.4,2.1,0.3,3.1-0.1h0.1h0.1c1.2,0.9,2.8,1.1,4.2,0.4
				c2.2-1.1,3.3-3.9,2.6-6.4c-0.4-1.3-1.4-2.5-2.6-3c-0.4-0.2-0.8-0.3-1.2-0.3C411.7,394.1,411,394.2,410.3,394.5z M404.7,401.9
				c-0.8-1.1-1.2-2.6-0.9-4c0.2-1.3,1-2.6,2.1-3.3c0.9-0.6,1.9-0.7,2.8-0.5c0.4,0.1,0.7,0.2,1,0.4c0.7,0.4,1.3,1.1,1.7,1.9
				c0.2,0.4,0.3,0.9,0.4,1.4c0,0.2,0.1,0.5,0.1,0.7c0,0.1,0,0.2,0,0.3c0,0.1,0,0.3,0,0.4s0.1,0.1,0.1,0.1s0.1,0,0.2,0
				c0.1-0.1,0.1-0.2,0.1-0.4v-0.1c0-0.5,0-1-0.1-1.5c-0.2-1-0.7-1.8-1.3-2.5l-0.1-0.1l0.2-0.1c1.4-0.5,3-0.2,4.1,1
				c1.7,1.9,1.6,5.1-0.2,7c-0.9,0.9-2.1,1.3-3.3,1.2c-0.4-0.1-0.8-0.2-1.2-0.4c-0.1-0.1-0.2-0.1-0.3-0.2c-0.2-0.1-0.3-0.3-0.5-0.3
				c-0.1,0-0.2,0.1-0.3,0.1c-0.1,0-0.1,0.1-0.2,0.1c-0.2,0.1-0.3,0.1-0.5,0.2c-0.4,0.1-0.8,0.1-1.2,0.1
				C406.2,403.3,405.3,402.8,404.7,401.9z M410,403c0.1,0.1,0.2,0.1,0.3,0.2c0.3,0.2,0.7,0.3,1.1,0.4c1.1,0.2,2.2-0.3,3.1-1.1
				c1.8-1.8,1.9-4.9,0.2-6.7c-1-1-2.4-1.4-3.7-1c0.6,0.7,1,1.5,1.3,2.4c0.1,0.5,0.2,1.1,0.1,1.6v0.1c0,0.2,0,0.4-0.2,0.6
				c-0.1,0.1-0.2,0.1-0.4,0c-0.1-0.1-0.2-0.2-0.3-0.3c0-0.1,0-0.3,0-0.5c0-0.1,0-0.2,0-0.2c0-0.2,0-0.5-0.1-0.7
				c-0.1-0.5-0.2-0.9-0.4-1.3c-0.4-0.8-0.9-1.4-1.6-1.8c-0.3-0.2-0.6-0.3-0.9-0.4c-0.9-0.2-1.8-0.1-2.6,0.5c-1,0.7-1.8,1.9-2,3.1
				c-0.2,1.3,0.1,2.8,0.9,3.8c0.6,0.8,1.5,1.3,2.5,1.4c0.4,0,0.7,0,1.1-0.1c0.2,0,0.3-0.1,0.5-0.1c0.1,0,0.1-0.1,0.2-0.1
				c0.1-0.1,0.3-0.2,0.4-0.1C409.6,402.7,409.8,402.9,410,403z"/>
			<path class="st29" d="M410.3,393.8c0.2,0,0.4-0.2,0.3-0.3c0,0,0-0.7,0.2-1.5c0.3-1,1-1.6,2-1.8c0.2,0,0.3-0.2,0.2-0.4
				c0-0.2-0.2-0.3-0.4-0.2c-1.2,0.2-2.1,1-2.5,2.2c-0.3,0.9-0.3,1.7-0.3,1.7C410,393.6,410.1,393.8,410.3,393.8z"/>
			<path class="st20" d="M409.9,393.5c0,0,0-0.9,0.3-1.8c0.4-1.3,1.3-2,2.6-2.3c0.2,0,0.5,0.1,0.5,0.3c0,0.2-0.1,0.5-0.3,0.5
				c-0.9,0.2-1.6,0.7-1.9,1.7c-0.2,0.7-0.2,1.4-0.2,1.5c0,0.2-0.2,0.4-0.4,0.5c0,0,0,0-0.1,0C410,393.9,409.9,393.7,409.9,393.5z
				 M412.7,389.7c-1.2,0.2-2,1-2.4,2.1c-0.3,0.9-0.3,1.7-0.2,1.7c0,0.1,0.1,0.2,0.2,0.2s0.2-0.1,0.2-0.2s0-0.8,0.2-1.6
				c0.4-1,1.1-1.7,2.1-1.9c0.1,0,0.2-0.1,0.2-0.2C412.9,389.7,412.9,389.7,412.7,389.7C412.8,389.7,412.8,389.7,412.7,389.7z"/>
			<path class="st30" d="M412.7,389.7c-1.2,0.2-2,1-2.4,2.1c-0.3,0.9-0.3,1.7-0.2,1.7c0,0.1,0.1,0.2,0.2,0.2s0.2-0.1,0.2-0.2
				s0-0.8,0.2-1.6c0.4-1,1.1-1.7,2.1-1.9c0.1,0,0.2-0.1,0.2-0.2C412.9,389.7,412.9,389.7,412.7,389.7z M409.9,393.5
				c0,0,0-0.9,0.3-1.8c0.4-1.3,1.3-2,2.6-2.3c0.2,0,0.5,0.1,0.5,0.3c0,0.2-0.1,0.5-0.3,0.5c-0.9,0.2-1.6,0.7-1.9,1.7
				c-0.2,0.7-0.2,1.4-0.2,1.5c0,0.2-0.2,0.4-0.4,0.5c0,0,0,0-0.1,0C410,393.9,409.9,393.7,409.9,393.5z"/>
			<path class="st29" d="M409,393.3c-2.2-0.4-3.8-1.2-4.7-2.2c-0.8-1-1-2.1-1.1-2.8c0-0.1,0-0.2,0.1-0.2c0.1-0.1,0.1-0.1,0.2-0.1
				c1.4,0.2,2.6,0.5,3.5,1.1c0.7,0.5,1.3,1,1.7,1.7c0.7,1.2,0.6,2.2,0.6,2.3c0,0.1,0,0.1-0.1,0.2C409.2,393.3,409.1,393.3,409,393.3
				z M404.8,390.7c0.8,0.9,2.1,1.5,4,2c0-0.4-0.1-1-0.5-1.6c-0.3-0.6-0.9-1.1-1.5-1.5c-0.8-0.5-1.8-0.8-2.9-1
				C404.1,389.3,404.3,390,404.8,390.7z"/>
			<path class="st29" d="M409,393.4c-2.3-0.4-3.8-1.2-4.7-2.3c-0.9-1-1-2.1-1.1-2.9c0-0.1,0-0.2,0.1-0.3c0.1-0.1,0.2-0.1,0.3-0.1
				c1.4,0.2,2.6,0.6,3.5,1.1c0.8,0.5,1.4,1,1.8,1.7c0.7,1.2,0.6,2.3,0.6,2.3c0,0.1-0.1,0.2-0.2,0.3
				C409.2,393.4,409.1,393.4,409,393.4z M403.5,388.1C403.5,388.1,403.4,388.2,403.5,388.1c0.1,0.8,0.3,1.9,1.1,2.8
				c0.9,1,2.4,1.7,4.6,2.2h0.1l0.1-0.1c0,0,0.1-1.1-0.6-2.2c-0.4-0.7-1-1.2-1.7-1.7C406.2,388.6,405,388.2,403.5,388.1L403.5,388.1z
				 M408.8,392.8c-2-0.4-3.3-1.1-4.1-2c-0.6-0.7-0.8-1.5-0.9-2.2v-0.2h0.2c1.2,0.2,2.2,0.5,3,1c0.7,0.4,1.2,0.9,1.6,1.6
				s0.5,1.3,0.5,1.7v0.2L408.8,392.8z M404.9,390.6c0.7,0.9,2,1.5,3.8,1.9c0-0.4-0.2-0.9-0.5-1.4c-0.3-0.6-0.8-1.1-1.5-1.5
				s-1.6-0.7-2.7-0.9C404.2,389.3,404.4,390,404.9,390.6z"/>
			<g>
				<path class="st20" d="M484.2,352.6c0,0.3,0,0.6,0,0.8c0,3.8-1.3,8.6-4.1,11.3c-3,3-8.7,3.3-12.5,3.6c-2.2,0.2-4.5,0.3-6.5-0.4
					c-4-1.3-5.6-4.9-6.4-8.2c-2.4-9.4-2.6-18.9-2.7-28.5c0-8.1-0.2-19.7,9.2-25.2c6.3-3.7,9-2.4,11.3,3c3.3,7.5,2,15.8,4.7,23.5
					c1.1,3.3,2.9,6.3,4.3,9.4C483,345.4,484.1,349,484.2,352.6z"/>
				<path class="st34" d="M375.9,332.9c-1.5,30.2,19.5,43.4,46.1,44.8c14.3,0.7,32.3-2.1,41.7-14.5c4.8-6.5,2.1-10.6,0.5-17.7
					c-1.7-7.7,0.5-14.7,2-22.2c1.6-8.5-1.6-19.1-4.8-26.9c-5.9-14.1-17.7-27.3-33.9-28.1C400.9,266.9,377.4,302.7,375.9,332.9z"/>
				<path class="st20" d="M442.6,344.6c-0.2,4.3,3.1,7.9,7.3,8.1c4.3,0.2,7.9-3.1,8.1-7.3c0.2-4.3-3.1-7.9-7.3-8.1
					C446.4,337.2,442.8,340.3,442.6,344.6z"/>
				<path class="st35" d="M448.9,350.5c1.8,0.1,3.3-1.3,3.4-3c0.1-1.8-1.3-3.3-3-3.4c-1.8-0.1-3.3,1.3-3.4,3
					C445.9,348.9,447.3,350.4,448.9,350.5z"/>
				<path class="st35" d="M452.5,343.4c1,0,1.8-0.7,1.8-1.7s-0.7-1.8-1.7-1.8s-1.8,0.7-1.8,1.7C450.8,342.5,451.5,343.3,452.5,343.4
					z"/>
				<path class="st22" d="M408,364.4c0.4,1.5,3.5,2,7,1.1c3.4-0.9,5.9-2.9,5.5-4.4s-3.5-2-7-1.1C409.9,360.9,407.6,362.9,408,364.4z
					"/>
				<path class="st22" d="M447.4,357.5c0.4,1.5,3.5,2,7,1.1c3.4-0.9,5.9-2.9,5.5-4.4s-3.5-2-7-1.1
					C449.3,353.9,447,355.9,447.4,357.5z"/>
				<path class="st20" d="M404.4,351.4c-0.2,4.3,3.1,7.9,7.3,8.1c4.3,0.2,7.9-3.1,8.1-7.3c0.2-4.3-3.1-7.9-7.3-8.1
					C408.2,343.9,404.6,347.2,404.4,351.4z"/>
				<path class="st35" d="M410.9,357.3c1.8,0,3.2-1.4,3.2-3.2c0-1.8-1.4-3.2-3.2-3.2c-1.8,0-3.2,1.4-3.2,3.2
					C407.8,355.8,409.2,357.3,410.9,357.3z"/>
				<path class="st35" d="M414.4,350.2c1,0,1.8-0.8,1.8-1.8s-0.8-1.8-1.8-1.8s-1.8,0.8-1.8,1.8C412.6,349.4,413.4,350.2,414.4,350.2
					z"/>
				<path class="st20" d="M474.7,317c0.2,9.8-3.2,18.8-12.3,24.2c0.3-5.6-4.2-10.4-9.5-12.3c-5.2-1.9-10.9-1.3-16.4-0.3
					c-9.7,1.9-19.1,5.1-28.1,9.3c-7.5,3.5-12.5,10.1-15.9,17.5c-1.1,2.4-2.5,4.4-2.9,7c-0.1,0.7-0.2,8.7,0.6,8.4
					c-8.1,2.4-16.9-1.6-22.3-8s-7.8-14.8-9-23.1c-2.9-20.2,1.2-42.4,15.5-56.9c14-14.2,35.9-18.9,55.5-15c10.1,2,20,6.2,27.9,12.9
					C466.9,288.5,474.3,303.3,474.7,317z"/>
				<path class="st20" d="M402.8,303.6c-2.4,7.1-4.1,14.4-5.4,21.8c-1.9,11.5-4.1,27.9,3.5,37.8c0.9,1.2,2,2.4,2.7,3.8
					s1,3.1,0.2,4.5c-0.9,1.6-2.7,2.1-4.4,2.5c-4.6,0.9-9.3,1.3-13.9,1.1c-3.6-0.2-7.4-0.7-10.5-2.4c-8.3-4.3-13.3-15.1-15.9-24
					c-3.4-11.6-2.3-24.4,0.4-36C367.6,278.2,402.8,303.6,402.8,303.6z"/>
				<path class="st33" d="M433.2,364c0.2,0.9,1.7,1.3,3.3,0.9c1.6-0.4,2.8-1.4,2.6-2.2"/>
				<path class="st36" d="M375.2,309.2c3.6-0.6,6-4.1,5.4-7.7s-4.1-6-7.7-5.4s-6,4.1-5.4,7.7C368.1,307.4,371.5,309.8,375.2,309.2z"
					/>
				<path class="st37" d="M371.6,296.2l-1.4-2.1c0.6-0.5,1.1-1.2,1.3-2.1c0.4-1.9-1.3-4-1.3-4s-2.4,1.1-2.8,3.1
					c-0.1,0.3-0.1,0.7,0,1c-0.3-0.2-0.7-0.4-1.1-0.5c-1.9-0.4-4,1.3-4,1.3s1.1,2.4,3.1,2.8c0.8,0.2,1.6,0,2.3-0.3l1.5,2.3
					c0.4,0.6,1.3,0.8,1.9,0.4c0.1-0.1,0.2-0.1,0.2-0.2C371.9,297.5,372,296.7,371.6,296.2z"/>
			</g>
			<path class="st38" d="M447.6,373l-9.8,31.9c-0.1,0.4-0.4,0.6-0.8,0.7l-26.5,2c-0.5,0-0.9,0.4-0.9,0.9v1.7c0,0.5,0.4,0.9,0.9,0.9
				l72.3-1.4c0.4,0,0.7-0.2,0.9-0.6l12.7-33.3c0.2-0.6-0.2-1.2-0.8-1.3l-47.3-2.2C448.1,372.3,447.7,372.6,447.6,373z"/>
			<path class="st37" d="M474.3,391.6c-0.3-1-1-1.8-1.9-2.2c-0.8-0.3-1.6-0.3-2.4,0c-0.2-0.1-0.5-0.4-0.8-0.4h-0.1
				c-1-0.3-2.1,0-2.8,0.7c-1.2,1.1-1.6,3-0.9,4.5c0.4,0.8,1,1.5,1.9,1.8c0.7,0.3,1.5,0.2,2.2-0.1c0.4,0.3,0.9,0.5,1.4,0.5
				c0.5,0.1,1.1,0,1.6-0.3C474,395.4,474.8,393.4,474.3,391.6z"/>
			<path class="st37" d="M470,389.2C470,389.2,470.1,389.2,470,389.2c0.2,0,0.3-0.1,0.3-0.3c0-0.1,0-0.5,0.2-1
				c0.2-0.7,0.7-1,1.3-1.2c0.2,0,0.3-0.2,0.2-0.3c0-0.2-0.2-0.3-0.3-0.2c-0.9,0.2-1.5,0.7-1.8,1.6c-0.2,0.6-0.2,1.2-0.2,1.2
				C469.8,389.1,469.9,389.2,470,389.2z"/>
			<path class="st37" d="M469.2,388.9c0.1,0,0.2,0,0.2,0c0.1,0,0.1-0.1,0.1-0.2c0,0,0.1-0.8-0.4-1.6c-0.3-0.5-0.7-0.9-1.2-1.2
				c-0.6-0.4-1.5-0.6-2.4-0.8c-0.1,0-0.2,0-0.2,0.1c-0.1,0.1-0.1,0.1-0.1,0.2c0.1,0.5,0.2,1.3,0.8,2
				C466.6,388,467.6,388.6,469.2,388.9z"/>
			<path class="st34" d="M437.2,401.8c-1.4,5.8-10.1,8.8-20.2,7.2l6.6-22.5C432.6,389.9,438.5,396.2,437.2,401.8z"/>
			<path class="st29" d="M411.7,400.5c0.2,0,0.3-0.1,0.3-0.3c0-0.2-0.1-0.3-0.3-0.3c-0.2,0-0.3,0.1-0.3,0.3
				C411.4,400.4,411.5,400.5,411.7,400.5z"/>
			<path class="st29" d="M411.3,400.2c0-0.2,0.2-0.4,0.5-0.4c0.2,0,0.4,0.2,0.4,0.5c0,0.2-0.2,0.4-0.5,0.4
				C411.4,400.6,411.3,400.4,411.3,400.2z M411.5,400.2c0,0.1,0.1,0.2,0.2,0.2s0.2-0.1,0.2-0.2s-0.1-0.2-0.2-0.2
				S411.5,400.1,411.5,400.2z"/>
			<path class="st27" d="M387.9,414.3c-0.3,2.7-2.4,4.7-4.8,4.5c-0.8-0.1-1.5-0.4-2.1-0.9c-0.7,0.4-1.4,0.5-2.2,0.4
				c-2.4-0.2-4.1-2.6-3.8-5.3c0.3-2.7,2.4-4.7,4.8-4.5c0.8,0.1,1.5,0.4,2.1,0.9c0.7-0.4,1.4-0.5,2.2-0.4
				C386.5,409.2,388.2,411.6,387.9,414.3z"/>
			<path class="st28" d="M380.8,407.6c0,0,0.4-4-5.6-4.8C375.5,404.5,375.9,406.7,380.8,407.6z"/>
			<path class="st29" d="M376.6,409.4c-1.7,1.6-2.3,4.3-1.3,6.4c1,2.2,3.5,3.5,5.8,2.4c1.3,0.9,2.9,1.1,4.3,0.4
				c2.3-1.1,3.4-4.1,2.6-6.5c-0.8-2.6-3.5-4.3-6.1-3.1c-0.3-0.2-0.8-0.6-1.2-0.6c-0.1,0-0.1,0-0.2-0.1c-0.2-0.1-0.5-0.1-0.7-0.1
				C378.7,408.1,377.5,408.6,376.6,409.4z M375.5,412.7c0.4-2.2,2.4-4.3,4.8-3.7c0.3,0.1,0.7,0.2,1,0.4c0.7,0.4,1.3,1.1,1.7,1.9
				c0.2,0.4,0.3,0.9,0.4,1.3c0,0.2,0.1,0.5,0.1,0.7s-0.1,0.5,0,0.7s0.3,0.3,0.5,0.2c0.2-0.1,0.2-0.3,0.2-0.5c0-0.5,0-1.1-0.1-1.6
				c-0.2-0.9-0.7-1.8-1.3-2.5c1.4-0.5,2.9-0.1,3.9,1c1.7,1.9,1.6,5-0.2,6.8c-0.8,0.8-2,1.3-3.2,1.1c-0.4-0.1-0.8-0.2-1.1-0.4
				c-0.3-0.1-0.6-0.5-0.8-0.5c-0.2,0-0.4,0.2-0.6,0.2c-0.2,0.1-0.3,0.1-0.5,0.2c-0.4,0.1-0.7,0.1-1.1,0.1
				C376.4,417.8,375.1,415,375.5,412.7z"/>
			<path class="st29" d="M381.1,418.3c-1,0.5-2.2,0.5-3.2,0.1c-1.2-0.4-2.2-1.4-2.7-2.6c-1-2.2-0.4-5,1.3-6.6c1.2-1,2.7-1.5,4.1-1.1
				c0.1,0,0.1,0,0.2,0.1c0.4,0,0.9,0.4,1.2,0.6c1.1-0.5,2.3-0.5,3.5,0c1.3,0.6,2.3,1.8,2.7,3.2c0.8,2.6-0.4,5.5-2.7,6.7
				c-0.7,0.4-1.5,0.5-2.3,0.4C382.4,419,381.7,418.7,381.1,418.3z M382,409.2L382,409.2c-0.3-0.2-0.9-0.6-1.2-0.6
				c-0.1,0-0.1,0-0.2-0.1c-1.4-0.4-2.8,0-3.9,1c-1.7,1.5-2.2,4.2-1.3,6.3c0.5,1.2,1.4,2.1,2.6,2.5c1,0.4,2.1,0.3,3.1-0.1h0.1h0.1
				c1.2,0.9,2.8,1.1,4.2,0.4c2.2-1.1,3.3-3.9,2.6-6.4c-0.4-1.3-1.4-2.5-2.6-3c-0.4-0.2-0.8-0.3-1.2-0.3
				C383.4,408.7,382.7,408.9,382,409.2z M376.3,416.6c-0.8-1.1-1.2-2.6-0.9-4c0.2-1.3,1-2.6,2.1-3.3c0.9-0.6,1.9-0.7,2.8-0.5
				c0.4,0.1,0.7,0.2,1,0.4c0.7,0.4,1.3,1.1,1.7,1.9c0.2,0.4,0.3,0.9,0.4,1.4c0,0.2,0.1,0.5,0.1,0.7c0,0.1,0,0.2,0,0.3
				c0,0.1,0,0.3,0,0.4s0.1,0.1,0.1,0.1s0.1,0,0.2,0c0.1-0.1,0.1-0.2,0.1-0.4v-0.1c0-0.5,0-1-0.1-1.5c-0.2-1-0.7-1.8-1.3-2.5
				l-0.1-0.1l0.2-0.1c1.4-0.5,3-0.2,4.1,1c1.7,1.9,1.6,5.1-0.2,7c-0.9,0.9-2.1,1.3-3.3,1.2c-0.4-0.1-0.8-0.2-1.2-0.4
				c-0.1-0.1-0.2-0.1-0.3-0.2c-0.2-0.1-0.3-0.3-0.5-0.3c-0.1,0-0.2,0.1-0.3,0.1c-0.1,0-0.1,0.1-0.2,0.1c-0.2,0.1-0.3,0.1-0.5,0.2
				c-0.4,0.1-0.8,0.1-1.2,0.1C377.9,417.9,377,417.5,376.3,416.6z M381.7,417.8c0.1,0.1,0.2,0.1,0.3,0.2c0.3,0.2,0.7,0.3,1.1,0.4
				c1.1,0.2,2.2-0.3,3.1-1.1c1.8-1.8,1.9-4.9,0.2-6.7c-1-1-2.4-1.4-3.7-1c0.6,0.7,1,1.5,1.3,2.4c0.1,0.5,0.2,1.1,0.1,1.6v0.1
				c0,0.2,0,0.4-0.2,0.6c-0.1,0.1-0.2,0.1-0.4,0c-0.1-0.1-0.2-0.2-0.3-0.3c0-0.1,0-0.3,0-0.5c0-0.1,0-0.2,0-0.2c0-0.2,0-0.5-0.1-0.7
				c-0.1-0.5-0.2-0.9-0.4-1.3c-0.4-0.8-0.9-1.4-1.6-1.8c-0.3-0.2-0.6-0.3-0.9-0.4c-0.9-0.2-1.8-0.1-2.6,0.5c-1,0.7-1.8,1.9-2,3.1
				c-0.2,1.3,0.1,2.8,0.9,3.8c0.6,0.8,1.5,1.3,2.5,1.4c0.4,0,0.7,0,1.1-0.1c0.2,0,0.3-0.1,0.5-0.1c0.1,0,0.1-0.1,0.2-0.1
				c0.1-0.1,0.3-0.2,0.4-0.1C381.3,417.5,381.6,417.6,381.7,417.8z"/>
			<path class="st29" d="M382,408.4c0.2,0,0.4-0.2,0.3-0.3c0,0,0-0.7,0.2-1.5c0.3-1,1-1.6,2-1.8c0.2,0,0.3-0.2,0.2-0.4
				c0-0.2-0.2-0.3-0.4-0.2c-1.2,0.2-2.1,1-2.5,2.2c-0.3,0.9-0.3,1.7-0.3,1.7C381.7,408.3,381.9,408.4,382,408.4z"/>
			<path class="st29" d="M381.6,408.1c0,0,0-0.9,0.3-1.8c0.4-1.3,1.3-2,2.6-2.3c0.2,0,0.5,0.1,0.5,0.3c0,0.2-0.1,0.5-0.3,0.5
				c-0.9,0.2-1.6,0.7-1.9,1.7c-0.2,0.7-0.2,1.4-0.2,1.5c0,0.2-0.2,0.4-0.4,0.5c0,0,0,0-0.1,0C381.8,408.5,381.6,408.4,381.6,408.1z
				 M384.5,404.3c-1.2,0.2-2,1-2.4,2.1c-0.3,0.9-0.3,1.7-0.2,1.7c0,0.1,0.1,0.2,0.2,0.2s0.2-0.1,0.2-0.2s0-0.8,0.2-1.6
				c0.4-1,1.1-1.7,2.1-1.9c0.1,0,0.2-0.1,0.2-0.2C384.7,404.4,384.6,404.3,384.5,404.3z"/>
			<path class="st29" d="M380.7,407.9c-2.2-0.4-3.8-1.2-4.7-2.2c-0.8-1-1-2.1-1.1-2.8c0-0.1,0-0.2,0.1-0.2s0.1-0.1,0.2-0.1
				c1.4,0.2,2.6,0.5,3.5,1.1c0.7,0.5,1.3,1,1.7,1.7c0.7,1.2,0.6,2.2,0.6,2.3c0,0.1,0,0.1-0.1,0.2
				C380.9,407.9,380.8,407.9,380.7,407.9z M376.5,405.3c0.8,0.9,2.1,1.5,4,2c0-0.4-0.1-1-0.5-1.6c-0.3-0.6-0.9-1.1-1.5-1.5
				c-0.8-0.5-1.8-0.8-2.9-1C375.7,403.9,375.9,404.7,376.5,405.3z"/>
			<path class="st29" d="M380.7,408c-2.3-0.4-3.8-1.2-4.7-2.3c-0.9-1-1-2.1-1.1-2.9c0-0.1,0-0.2,0.1-0.3c0.1-0.1,0.2-0.1,0.3-0.1
				c1.4,0.2,2.6,0.6,3.5,1.1c0.8,0.5,1.4,1,1.8,1.7c0.7,1.2,0.6,2.3,0.6,2.3c0,0.1-0.1,0.2-0.2,0.3C380.9,408,380.8,408,380.7,408z
				 M375.1,402.7C375.1,402.7,375,402.8,375.1,402.7c0.1,0.8,0.3,1.9,1.1,2.8c0.9,1,2.4,1.7,4.6,2.2h0.1l0.1-0.1
				c0,0,0.1-1.1-0.6-2.2c-0.4-0.7-1-1.2-1.7-1.7C377.8,403.2,376.6,402.8,375.1,402.7C375.2,402.7,375.1,402.7,375.1,402.7z
				 M380.5,407.4c-2-0.4-3.3-1.1-4.1-2c-0.6-0.7-0.8-1.5-0.9-2.2V403h0.2c1.2,0.2,2.2,0.5,3,1c0.7,0.4,1.2,0.9,1.6,1.6
				s0.5,1.3,0.5,1.7v0.2L380.5,407.4z M376.6,405.3c0.7,0.9,2,1.5,3.8,1.9c0-0.4-0.2-0.9-0.5-1.4c-0.3-0.6-0.8-1.1-1.5-1.5
				s-1.6-0.7-2.7-0.9C375.8,404,376,404.6,376.6,405.3z"/>
			<path class="st29" d="M383.4,415.3c0.2,0,0.3-0.1,0.3-0.3c0-0.2-0.1-0.3-0.3-0.3c-0.2,0-0.3,0.1-0.3,0.3
				C383.1,415.1,383.2,415.3,383.4,415.3z"/>
			<path class="st29" d="M383,414.9c0-0.2,0.2-0.4,0.5-0.4c0.2,0,0.4,0.2,0.4,0.5c0,0.2-0.2,0.4-0.5,0.4
				C383.2,415.4,383,415.2,383,414.9z M383.2,415c0,0.1,0.1,0.2,0.2,0.2s0.2-0.1,0.2-0.2s-0.1-0.2-0.2-0.2
				C383.4,414.8,383.3,414.9,383.2,415z"/>
		</g>
	</g>
	<g>
		<g>
			<path class="st39" d="M230.6,423.7c1.1,19-9.7,38.6-33.4,46.2c-21.8,7-45.6,7.1-67.1-2.5c-39-17.5-17.7-59.5,9.3-76.1
				c12.5-7.7,27.8-12.2,43.2-11.6C212.8,381,229.4,402,230.6,423.7"/>
			<path class="st7" d="M225.4,415.3c1.1,19-9.7,38.6-33.4,46.2c-21.8,7-45.6,7.1-67.1-2.5c-39-17.5-17.7-59.5,9.3-76.1
				c12.5-7.7,27.8-12.2,43.2-11.6C207.5,372.6,224.1,393.6,225.4,415.3"/>
			<path class="st20" d="M150.8,439.9c-6.7-0.4-13.4-1.9-19.4-4.7c-30.4-14-10.1-42.4,13.6-52.8c10.3-4.5,21.6-6.5,31.7-5.4
				c0.7,0.1,1.4,0.2,2,0.2c8.5,1.2,14.7,4.4,19.1,9.8c4.5,5.5,6.7,13,6,20.7C202.1,428.2,175.6,441.5,150.8,439.9z"/>
		</g>
		<g>
			<path class="st40" d="M139.4,363.6c4.6,6.3-2.4,19.3-15.6,29c-13.2,9.7-27.7,12.4-32.3,6.2c-4.6-6.3,2.4-19.3,15.6-29
				C120.3,360,134.8,357.3,139.4,363.6z"/>
			<path class="st40" d="M193.6,405.6c0,24.4-18.7,34.6-41.7,34.6s-41.7-10.2-41.7-34.6s18.7-53.8,41.7-53.8
				C174.9,351.7,193.6,381.1,193.6,405.6z"/>
			<g>
				<path class="st20" d="M183,273.7c0,0,8.4-2.9,10.8,3.2c0,0-8.4-2.2-6.7,3.6"/>
				<path class="st20" d="M185,275.3c0,0,0.9-8.9-5.6-9.8c0,0,4.1,7.7-2,7.4"/>
			</g>
			<path class="st20" d="M85.2,348.1c0,0.3,0,0.5,0,0.8c-0.2,3.8,0.9,8.5,3.5,11.4c2.8,3,8.3,3.6,12.2,4.1c2.1,0.3,4.4,0.5,6.4,0
				c4-1.1,5.7-4.6,6.7-7.7c2.9-9.1,3.5-18.5,4-27.9c0.4-7.9,1.1-19.5-7.8-25.3c-6-3.9-8.7-2.8-11.3,2.4c-3.6,7.2-2.8,15.5-5.8,22.9
				c-1.3,3.1-3.2,6-4.7,9C86.7,341,85.4,344.5,85.2,348.1z"/>
			<path class="st26" d="M148.7,406.6c17.1-1.9,31.2,5.5,32.3,15.4c1.1,10-11.3,18.9-28.3,20.7c-17.1,1.9-32.4-4-33.5-14
				C118.1,418.8,131.7,408.5,148.7,406.6z"/>
			<path class="st26" d="M171.6,390.4c-1.5-6.3-11.9-9.2-23.2-6.5s-19.2,10.1-17.7,16.4s11.9,9.2,23.2,6.5
				C165.2,404.1,173.1,396.7,171.6,390.4z"/>
			<path class="st34" d="M192.9,334c0,29.9-21.4,41.9-47.7,41.9c-14.2,0-31.8-3.6-40.4-16.3c-4.4-6.6-1.6-10.6,0.3-17.5
				c2-7.5,0.2-14.6-0.8-22c-1.2-8.4,2.5-18.8,6-26.3c6.4-13.6,18.9-26,34.8-26C171.6,267.6,192.9,304.1,192.9,334z"/>
			<g>
				<g>
					<g>
						<path class="st20" d="M126.6,342.2c0,4.2-3.4,7.6-7.6,7.6c-4.2,0-7.6-3.4-7.6-7.6s3.4-7.6,7.6-7.6
							C123.2,334.7,126.6,338.1,126.6,342.2z"/>
					</g>
					<g>
						<path class="st35" d="M120,347.7c-1.7,0-3.2-1.4-3.2-3.2c0-1.7,1.4-3.2,3.2-3.2s3.2,1.4,3.2,3.2
							C123.1,346.3,121.7,347.7,120,347.7z"/>
					</g>
				</g>
				<g>
					<path class="st35" d="M116.8,340.5c-1,0-1.7-0.8-1.7-1.7c0-1,0.8-1.7,1.7-1.7c1,0,1.7,0.8,1.7,1.7
						C118.5,339.8,117.7,340.5,116.8,340.5z"/>
				</g>
			</g>
			<path class="st22" d="M159.8,363.5c-0.5,1.5-3.6,1.8-6.9,0.7c-3.3-1.1-5.6-3.2-5.2-4.6c0.5-1.5,3.6-1.8,6.9-0.7
				C158,360,160.3,362,159.8,363.5z"/>
			<path class="st22" d="M121.2,354.6c-0.5,1.5-3.6,1.8-6.9,0.7c-3.3-1.1-5.6-3.2-5.2-4.6c0.5-1.5,3.6-1.8,6.9-0.7
				C119.4,351.1,121.7,353.2,121.2,354.6z"/>
			<g>
				<g>
					<g>
						<path class="st20" d="M164,350.8c0,4.2-3.4,7.6-7.6,7.6c-4.2,0-7.6-3.4-7.6-7.6s3.4-7.6,7.6-7.6
							C160.6,343.3,164,346.6,164,350.8z"/>
					</g>
					<g>
						<path class="st35" d="M157.3,356.3c-1.7,0-3.2-1.4-3.2-3.2c0-1.7,1.4-3.2,3.2-3.2c1.7,0,3.2,1.4,3.2,3.2
							S159.1,356.3,157.3,356.3z"/>
					</g>
				</g>
				<g>
					<path class="st35" d="M154.2,349.1c-1,0-1.7-0.8-1.7-1.7c0-1,0.8-1.7,1.7-1.7c1,0,1.7,0.8,1.7,1.7
						C155.9,348.4,155.1,349.1,154.2,349.1z"/>
				</g>
			</g>
			<path class="st20" d="M96.2,313.4c-0.7,9.6,2.2,18.7,11,24.5c0-5.5,4.7-10.1,9.9-11.7s10.9-0.7,16.2,0.5
				c9.5,2.3,18.6,6,27.2,10.5c7.2,3.8,11.9,10.6,14.9,18c1,2.4,2.2,4.4,2.5,7c0.1,0.7-0.2,8.5-1,8.2c7.8,2.7,16.8-0.8,22.4-6.8
				c5.6-6.1,8.4-14.2,10-22.3c3.9-19.8,0.9-41.9-12.5-56.9c-13.1-14.8-34.5-20.4-54.1-17.6c-10.1,1.5-20.1,5.1-28.1,11.4
				C105.4,285.7,97.2,300,96.2,313.4z"/>
			<path class="st20" d="M167.8,303.7c2,7.1,3.3,14.5,4.2,21.8c1.3,11.5,2.7,27.7-5.3,37.1c-1,1.2-2.1,2.2-2.9,3.6
				c-0.8,1.3-1.1,3-0.4,4.4c0.8,1.6,2.6,2.2,4.2,2.6c4.5,1.2,9.1,1.7,13.7,1.8c3.6,0,7.3-0.3,10.5-1.9c8.3-3.9,14-14.2,16.9-22.9
				c3.9-11.4,3.4-23.9,1.3-35.6C203.9,280.4,167.8,303.7,167.8,303.7z"/>
			<path class="st41" d="M169,357.3c-2.4,7.9-10,11.7-17.2,9.5s-11.4-9.5-9-17.5c2.4-7.9,9.4-9.9,16.6-7.7
				C166.7,343.9,171.4,349.4,169,357.3z"/>
			<path class="st41" d="M129.5,348.3c-2.3,7.6-9.3,11.3-16,9.3s-10.4-9-8.1-16.6c2.3-7.6,8.8-9.6,15.5-7.5
				C127.5,335.4,131.8,340.6,129.5,348.3z"/>
			<line class="st41" x1="129.5" y1="348.3" x2="141.6" y2="351.6"/>
			<path class="st33" d="M134.9,361.9c-0.2,0.8-1.7,1.2-3.3,0.7c-1.6-0.4-2.7-1.5-2.4-2.3"/>
			<path class="st26" d="M133.3,408.4l0.1,2.5l0,0C133.4,409.3,133.3,408.4,133.3,408.4z"/>
			<path class="st26" d="M133.5,410.9l1.7,31c0.1,0,0.2,0,0.3,0.1C134.8,429.8,133.9,416.3,133.5,410.9L133.5,410.9z"/>
			<path class="st34" d="M98.1,444c3.1,6.9,7.8,12,13,12c4.3,0,8.1-3.4,11.1-8.2L98.1,444z"/>
			<path class="st42" d="M156.7,382.1c0,3-2.4,5.3-5.3,5.3s-5.3-2.4-5.3-5.3c0-3,2.4-5.3,5.3-5.3S156.7,379.2,156.7,382.1z"/>
			<path class="st40" d="M181,422.1c-0.4-3.3-2.2-6.4-4.7-8.7c-3.4-3.1-7.8-4.8-12.3-5.8c-4.9-1.1-10.1-1.5-15.1-1.1
				c-3.3,0.3-12.7,0.7-14.9,3.5c-1.1,1.4-0.4,4.2-0.3,5.9c0.2,3,0.4,6,0.5,9c0.4,6,0.7,11.9,1.1,17.9c0,0.4,0.1,0.8,0.3,1
				s0.6,0.3,0.9,0.3c12.1,1.5,24.7-1.2,35.1-7.5c4.2-2.6,8.3-6.1,9.3-10.9C181.1,424.5,181.2,423.3,181,422.1z"/>
			<path class="st26" d="M133.3,380.6"/>
			<path class="st34" d="M130.7,400.3c1.4,5.7,10,8.6,20,7.1l-6.5-22.2C135.2,388.5,129.4,394.8,130.7,400.3z"/>
			<path class="st40" d="M127.6,426.7c0-3.6-0.6-7.2-2.3-10.3c-3.1-5.8-10-9.3-16.5-8.5c-15.8,2.1-16,21.5-15.1,33.7
				c0,0.6,0.1,1.2,0.5,1.6c0.4,0.5,1.1,0.6,1.7,0.7c9.2,1.3,18.4,2.7,27.7,4c0.3,0,0.7,0.1,1-0.1c0.2-0.2,0.3-0.5,0.4-0.8
				c0.9-4.7,1.8-9.3,2.3-14.1C127.5,430.8,127.6,428.7,127.6,426.7z"/>
			<polygon class="st43" points="130,375.1 123.6,386.1 136.3,386.1 			"/>
			<g>
				<path class="st38" d="M120.4,371.8l9.6,31.6c0.1,0.4,0.4,0.6,0.8,0.6l26.1,2c0.5,0,0.8,0.4,0.8,0.9v1.6c0,0.5-0.4,0.9-0.9,0.9
					l-71.5-1.3c-0.4,0-0.7-0.2-0.8-0.6l-12.6-32.9c-0.2-0.6,0.2-1.2,0.8-1.2l46.7-2.2C119.9,371.2,120.2,371.4,120.4,371.8z"/>
			</g>
			<g>
				<path class="st37" d="M101.7,388.8c-0.7-0.7-1.6-1-2.5-0.9l0,0h-0.1c-0.3,0-0.6,0.2-0.8,0.3c-0.7-0.4-1.4-0.4-2.1-0.2
					c-0.8,0.3-1.5,1-1.8,1.8c-0.6,1.6,0,3.4,1.3,4.3c0.4,0.3,0.9,0.4,1.4,0.4s0.9-0.1,1.3-0.4c0.6,0.3,1.3,0.4,2,0.2
					c0.8-0.2,1.4-0.7,1.8-1.5C102.9,391.6,102.7,389.8,101.7,388.8z"/>
				<path class="st37" d="M96.9,385.6c0.6,0.2,0.9,0.5,1.1,1.2c0.1,0.5,0.1,0.9,0.1,0.9c0,0.1,0.1,0.3,0.2,0.3l0,0
					c0.1,0,0.2-0.1,0.3-0.2c0,0,0.1-0.5-0.1-1.1c-0.2-0.8-0.7-1.3-1.5-1.5c-0.1,0-0.3,0-0.3,0.2C96.7,385.4,96.8,385.6,96.9,385.6z"
					/>
				<path class="st37" d="M99,387.7c0,0,0.1,0.1,0.2,0.1l0,0c1.4-0.2,2.4-0.5,3-1.1s0.7-1.2,0.8-1.7c0-0.1,0-0.2,0-0.2
					c0-0.1-0.1-0.1-0.2-0.1l0,0c-0.9,0-1.6,0.2-2.2,0.5c-0.5,0.2-0.9,0.6-1.2,1c-0.5,0.7-0.5,1.4-0.5,1.4
					C98.9,387.6,98.9,387.6,99,387.7z"/>
			</g>
			<path class="st40" d="M186,374.4c-0.9-1-1.9-1.8-3-2.5c-3.2-1.8-6.9-2.2-10.4-1.4c-3.5,0.8-6.8,2.6-9.7,4.8
				c-4.5,3.3-8.7,7.8-14,8.5c-0.9,0.1-1.9,0.1-2.8,0.4c-0.7,0.2-1.5,0.6-1.9,1.3c-0.6,0.9-0.1,1.9,0.1,2.8c0.5,2.3,1,4.6,1.6,6.9
				c1.1,4.6,2.4,9.1,3.7,13.6c0.3,1.1,0.7,2.3,1.6,2.9c0.7,0.5,1.6,0.5,2.4,0.3c3.2-0.4,6.1-2,9.1-3.3c6.7-2.9,14.2-4.5,19.5-9.9
				c2.7-2.8,4.7-6.4,5.9-10.2c0.8-2.4,1.3-5,1-7.5C188.8,378.7,187.6,376.3,186,374.4z"/>
			<path class="st42" d="M166.3,434.9c0,3-2.4,5.3-5.3,5.3c-3,0-5.3-2.4-5.3-5.3c0-3,2.4-5.3,5.3-5.3S166.3,432,166.3,434.9z"/>
			<path class="st42" d="M180,396.7c0,3-2.4,5.3-5.3,5.3c-3,0-5.3-2.4-5.3-5.3s2.4-5.3,5.3-5.3C177.7,391.4,180,393.8,180,396.7z"/>
			<path class="st42" d="M104.7,426.7c0,3-2.4,5.3-5.3,5.3c-3,0-5.3-2.4-5.3-5.3c0-3,2.4-5.3,5.3-5.3
				C102.3,421.4,104.7,423.7,104.7,426.7z"/>
			<polygon class="st43" points="166.6,409 160.3,420 173,420 			"/>
			<polygon class="st43" points="154.9,389.5 148.5,400.5 161.2,400.5 			"/>
			<polygon class="st43" points="115.6,409.1 109.3,420.1 122,420.1 			"/>
			
				<rect x="136.6" y="419.5" transform="matrix(0.7071 -0.7071 0.7071 0.7071 -258.8691 224.7947)" class="st44" width="10.7" height="10.7"/>
			<rect x="168.1" y="372.5" class="st44" width="10.7" height="10.7"/>
			
				<rect x="114.4" y="432.3" transform="matrix(0.9579 -0.2871 0.2871 0.9579 -120.6039 52.7981)" class="st44" width="10.7" height="10.7"/>
			<rect x="180.2" y="406.6" class="st44" width="10.7" height="10.7"/>
			<path class="st34" d="M119.2,428.8c0.7,6.3,7.1,11,16,13.1l-1.7-31C124.4,415.2,118.5,422.1,119.2,428.8z"/>
		</g>
		<g>
			<g>
				<g>
					<path class="st35" d="M203.2,347c0.2-0.1,4.3-4.1,4.3-4.1l-5.1-3.2h-0.5l0.6,7.3L203.2,347z"/>
					<polygon class="st45" points="181.3,348.8 202.6,347 202,339.7 180.5,341.9 					"/>
				</g>
				<path class="st20" d="M179.8,342.6l0.6,6.1c0,0.3,0.2,0.5,0.4,0.7s0.5,0.3,0.8,0.2l21.2-2.1c0.2,0,0.4-0.1,0.6-0.3l4-3.5
					c0.3-0.2,0.4-0.6,0.4-0.9s-0.2-0.5-0.4-0.7l-0.1-0.1l-4.6-2.6c-0.2-0.1-0.4-0.2-0.6-0.1l-21.2,2.1
					C180.2,341.5,179.8,342,179.8,342.6z M181.5,348.6l-0.3-2.5l20.6-2.1l0.3,2.6L181.5,348.6z M206.7,342.9l-0.9,0.7l-0.2-1.3
					L206.7,342.9z M204.6,341.7c0,0.1,0,0.1,0,0.2l0.3,2.3c0,0.1,0,0.2,0.1,0.2l-1.9,1.6l-0.6-5.6L204.6,341.7z M201.4,340.4
					l0.2,2.5L181,345l-0.3-2.5L201.4,340.4z"/>
			</g>
			<path class="st34" d="M190,343.6c0.5,0,1,0.1,1.5,0.4c1,0.6,1.7,1.6,2.2,2.8c1,2.6,0.8,5.9-0.5,8.6c-1.3,2.8-3.6,5-6.2,5.8
				c-1.6,0.5-3.6,0.5-4.5-1c-1-1.5-0.4-3.8,0.1-5.7C183.6,351.3,186.1,343.4,190,343.6z"/>
		</g>
	</g>
</g>
<g>
	<path class="st21" d="M7.8,283.2l76.4-19.7c4.9-1.3,10,1.9,11.3,7.1l4.9,19.1c1.2,4.8-1.1,9.6-5.3,11.3c-0.6,0.2-0.9,1-0.8,1.6
		l2.7,10.5c0.2,0.6-0.5,1-1,0.6l-10.8-9.5c-0.3-0.3-0.8-0.4-1.2-0.3L17.5,321c-4.9,1.3-10-1.9-11.3-7.1l-4.9-19.1
		C0,289.7,2.9,284.4,7.8,283.2z"/>
	<g>
		<g>
			<path class="st35" d="M18.9,311.2c-0.2,0-0.4,0-0.5-0.1c-0.2-0.1-0.4-0.4-0.5-0.6L13,291.3c-0.1-0.5,0.2-1.1,0.7-1.2l3.3-0.9
				c0.1,0,0.2,0,0.2,0c0.2,0,0.4,0,0.5,0.1c0.2,0.1,0.4,0.4,0.5,0.6l1.8,7l6.6-1.7l-1.8-7c-0.1-0.5,0.2-1.1,0.7-1.2l3.3-0.9
				c0.1,0,0.2,0,0.2,0c0.2,0,0.4,0,0.5,0.1c0.2,0.1,0.4,0.4,0.5,0.6l4.9,19.1c0.1,0.5-0.2,1.1-0.7,1.2l-3.3,0.9c-0.1,0-0.2,0-0.2,0
				c-0.2,0-0.4,0-0.5-0.1c-0.2-0.1-0.4-0.4-0.5-0.6l-1.9-7.5l-6.6,1.7l1.9,7.5c0.1,0.5-0.2,1.1-0.7,1.2l-3.3,0.9
				C19.1,311.2,19,311.2,18.9,311.2z"/>
			<path class="st11" d="M29.2,287.1l4.9,19.1l-3.3,0.9l-2.2-8.5l-8.5,2.2l2.2,8.5l-3.3,0.9l-5-19.1l3.3-0.9l2,8l8.5-2.2l-2-8
				L29.2,287.1 M29.2,285.1c-0.2,0-0.3,0-0.5,0.1l-3.3,0.9c-0.5,0.1-1,0.5-1.2,0.9c-0.3,0.5-0.3,1-0.2,1.5l1.6,6l-4.7,1.2l-1.6-6
				c-0.1-0.5-0.5-1-0.9-1.2c-0.3-0.2-0.7-0.3-1-0.3c-0.2,0-0.3,0-0.5,0.1l-3.3,0.9c-1.1,0.3-1.7,1.4-1.4,2.4l4.9,19.1
				c0.1,0.5,0.5,1,0.9,1.2c0.3,0.2,0.7,0.3,1,0.3c0.2,0,0.3,0,0.5-0.1l3.3-0.9c1.1-0.3,1.7-1.4,1.4-2.4l-1.7-6.5l4.7-1.2l1.7,6.5
				c0.2,0.9,1,1.5,1.9,1.5c0.2,0,0.3,0,0.5-0.1l3.3-0.9c1.1-0.3,1.7-1.4,1.4-2.4l-4.9-19.1c-0.1-0.5-0.5-1-0.9-1.2
				C29.9,285.2,29.5,285.1,29.2,285.1L29.2,285.1z"/>
		</g>
		<g>
			<path class="st35" d="M42.2,305.2c-0.2,0-0.4,0-0.5-0.1c-0.2-0.1-0.4-0.4-0.5-0.6l-4-15.5l-4.9,1.3c-0.1,0-0.2,0-0.2,0
				c-0.2,0-0.4,0-0.5-0.1c-0.2-0.1-0.4-0.4-0.5-0.6l-0.7-2.7c-0.1-0.5,0.2-1.1,0.7-1.2l15.2-3.9c0.1,0,0.2,0,0.3,0
				c0.4,0,0.9,0.3,1,0.8l0.7,2.7c0.1,0.3,0,0.5-0.1,0.8c-0.1,0.2-0.4,0.4-0.6,0.5l-5,1.3l4,15.5c0.1,0.5-0.2,1.1-0.7,1.2l-3.3,0.8
				C42.4,305.2,42.3,305.2,42.2,305.2z"/>
			<path class="st11" d="M46.5,282.7l0.7,2.7l-6,1.5l4.2,16.4l-3.3,0.8L38,287.7l-5.9,1.5l-0.7-2.7L46.5,282.7 M46.5,280.7
				c-0.2,0-0.3,0-0.5,0.1l-15.2,3.9c-0.5,0.1-1,0.5-1.2,0.9c-0.3,0.5-0.3,1-0.2,1.5l0.7,2.7c0.1,0.5,0.5,1,0.9,1.2
				c0.3,0.2,0.7,0.3,1,0.3c0.2,0,0.3,0,0.5-0.1l4-1l3.7,14.5c0.1,0.5,0.5,1,0.9,1.2c0.3,0.2,0.7,0.3,1,0.3c0.2,0,0.3,0,0.5-0.1
				l3.3-0.8c1.1-0.3,1.7-1.4,1.4-2.4l-3.7-14.5l4-1c0.5-0.1,1-0.5,1.2-0.9c0.3-0.5,0.3-1,0.2-1.5l-0.7-2.7
				C48.3,281.3,47.4,280.7,46.5,280.7L46.5,280.7z"/>
		</g>
		<g>
			<path class="st35" d="M54,302.2c-0.2,0-0.4,0-0.5-0.1c-0.2-0.1-0.4-0.4-0.5-0.6l-4.9-19.1c-0.1-0.5,0.2-1.1,0.7-1.2l4.3-1.1
				c0.1,0,0.2,0,0.2,0c0.3,0,0.6,0.2,0.8,0.4l7.8,11.1l1.4-13.4c0-0.4,0.3-0.8,0.7-0.9l4.3-1.1c0.1,0,0.2,0,0.2,0
				c0.4,0,0.9,0.3,1,0.8l4.9,19.1c0.1,0.3,0,0.5-0.1,0.8c-0.1,0.2-0.4,0.4-0.6,0.5l-3.3,0.9c-0.1,0-0.2,0-0.3,0
				c-0.4,0-0.9-0.3-1-0.8l-1.6-6.3l-0.6-2.6l-0.9,9.8c0,0.4-0.3,0.8-0.7,0.9l-2.4,0.6c-0.1,0-0.2,0-0.2,0c-0.3,0-0.6-0.2-0.8-0.4
				l-5.9-8.3l0.8,2.5l1.6,6.3c0.1,0.5-0.2,1.1-0.7,1.2l-3.3,0.9C54.1,302.1,54.1,302.2,54,302.2z"/>
			<path class="st11" d="M68.7,277l4.9,19.1l-3.3,0.9l-1.6-6.3l-1.8-8.5L65,298.3l-2.4,0.6l-9.4-13.3l2.5,8.3l1.6,6.3l-3.3,0.9
				L49.1,282l4.3-1.1l9.3,13.2l1.7-16.1L68.7,277 M68.7,275c-0.2,0-0.3,0-0.5,0.1l-4.3,1.1c-0.8,0.2-1.4,0.9-1.5,1.7l-1.2,10.8
				l-6.2-8.9c-0.4-0.5-1-0.9-1.6-0.9c-0.2,0-0.3,0-0.5,0.1l-4.3,1.1c-1.1,0.3-1.7,1.4-1.4,2.4l4.9,19.1c0.1,0.5,0.5,1,0.9,1.2
				c0.3,0.2,0.7,0.3,1,0.3c0.2,0,0.3,0,0.5-0.1l3.3-0.9c1.1-0.3,1.7-1.4,1.4-2.4l-0.9-3.4l2.6,3.7c0.4,0.5,1,0.8,1.6,0.8
				c0.2,0,0.3,0,0.5-0.1l2.4-0.6c0.8-0.2,1.4-0.9,1.5-1.7l0.5-4.5l0.9,3.4c0.1,0.5,0.5,1,0.9,1.2c0.3,0.2,0.7,0.3,1,0.3
				c0.2,0,0.3,0,0.5-0.1l3.3-0.9c1.1-0.3,1.7-1.4,1.4-2.4l-4.9-19.1C70.4,275.6,69.6,275,68.7,275L68.7,275z"/>
		</g>
		<g>
			<path class="st35" d="M77.5,296.1c-0.2,0-0.4,0-0.5-0.1c-0.2-0.1-0.4-0.4-0.5-0.6l-4.9-19.1c-0.1-0.3,0-0.5,0.1-0.8
				c0.1-0.2,0.4-0.4,0.6-0.5l3.3-0.9c0.1,0,0.2,0,0.3,0c0.4,0,0.9,0.3,1,0.8l4,15.5l7.7-2c0.1,0,0.2,0,0.2,0c0.2,0,0.4,0,0.5,0.1
				c0.2,0.1,0.4,0.4,0.5,0.6l0.7,2.7c0.1,0.5-0.2,1.1-0.7,1.2l-12,3.1C77.7,296.1,77.6,296.1,77.5,296.1z"/>
			<path class="st11" d="M75.9,275.1l4.2,16.5l8.7-2.2l0.7,2.7l-12,3.1L72.6,276L75.9,275.1 M75.9,273.1c-0.2,0-0.3,0-0.5,0.1
				l-3.3,0.9c-0.5,0.1-1,0.5-1.2,0.9c-0.3,0.5-0.3,1-0.2,1.5l4.9,19.1c0.2,0.9,1,1.5,1.9,1.5c0.2,0,0.3,0,0.5-0.1l12-3.1
				c1.1-0.3,1.7-1.4,1.4-2.4l-0.7-2.7c-0.1-0.5-0.5-1-0.9-1.2c-0.3-0.2-0.7-0.3-1-0.3c-0.2,0-0.3,0-0.5,0.1l-6.7,1.7l-3.7-14.5
				C77.6,273.7,76.8,273.1,75.9,273.1L75.9,273.1z"/>
		</g>
	</g>
</g>
<g>
	<path class="st21" d="M97.5,201.8h48c3.1,0,5.6,4.3,5.6,9.7v19.8c0,4.9-2.1,9-4.9,9.6c-0.4,0.1-0.7,0.7-0.7,1.4v10.8
		c0,0.6-0.5,0.9-0.7,0.4l-4.9-11.9c-0.2-0.4-0.4-0.6-0.7-0.6H97.5c-3.1,0-5.6-4.4-5.6-9.7v-19.8C91.9,206.1,94.4,201.8,97.5,201.8z"
		/>
	<g>
		<g>
			<path class="st35" d="M111.8,232.5c-2.4,0-4.3-0.6-5.6-1.9c-1.4-1.3-2.1-3-2.1-5.2c0-0.6,0.4-1,1-1h3.6c0.6,0,1,0.4,1,1
				c0,0.8,0.2,1.4,0.5,1.8c0.3,0.4,0.9,0.5,1.6,0.5s1.2-0.2,1.5-0.6c0.4-0.4,0.6-1.1,0.6-2v-14.4c0-0.6,0.4-1,1-1h3.6
				c0.6,0,1,0.4,1,1v14.4c0,2.2-0.7,4.1-2.2,5.4C116,231.8,114.1,232.5,111.8,232.5z"/>
			<path class="st11" d="M118.5,210.7v14.4c0,2-0.6,3.5-1.8,4.7c-1.2,1.2-2.8,1.7-4.9,1.7s-3.8-0.5-5-1.6s-1.7-2.6-1.7-4.5h3.6
				c0,1.1,0.3,1.9,0.8,2.5c0.5,0.5,1.3,0.8,2.3,0.8s1.7-0.3,2.3-1c0.6-0.6,0.9-1.5,0.9-2.6v-14.4L118.5,210.7 M118.5,208.7H115
				c-1.1,0-2,0.9-2,2v14.4c0,0.6-0.1,1-0.3,1.3c-0.1,0.1-0.3,0.3-0.8,0.3c-0.3,0-0.7,0-0.9-0.2c-0.1-0.2-0.2-0.5-0.2-1.1
				c0-1.1-0.9-2-2-2h-3.6c-1.1,0-2,0.9-2,2c0,2.5,0.8,4.5,2.4,6c1.5,1.4,3.7,2.2,6.3,2.2c2.5,0,4.6-0.8,6.2-2.3s2.5-3.6,2.5-6.1
				v-14.4C120.5,209.6,119.6,208.7,118.5,208.7L118.5,208.7z"/>
		</g>
		<g>
			<path class="st35" d="M129.6,232.5c-1.6,0-3.1-0.3-4.5-0.9c-1.4-0.6-2.5-1.5-3.3-2.6s-1.2-2.5-1.2-4c0-0.6,0.4-1,1-1h3.6
				c0.6,0,1,0.4,1,1c0,0.9,0.3,1.5,0.8,1.9c0.6,0.5,1.5,0.7,2.7,0.7c1,0,1.7-0.2,2.2-0.5c0.4-0.3,0.6-0.7,0.6-1.2
				c0-0.8-0.3-1.1-0.6-1.3c-0.4-0.3-1.2-0.7-3.1-1.3c-1.8-0.5-3.1-1.1-4.2-1.8c-2.2-1.4-3.3-3.2-3.3-5.4c0-2,0.8-3.6,2.4-4.9
				c1.5-1.2,3.5-1.8,5.9-1.8c1.6,0,3,0.3,4.2,0.9c1.3,0.6,2.3,1.5,3,2.6s1.1,2.4,1.1,3.8c0,0.6-0.4,1-1,1h-3.6c-0.6,0-1-0.4-1-1
				c0-0.8-0.2-1.4-0.7-1.8c-0.5-0.4-1.2-0.7-2.2-0.7c-0.9,0-1.6,0.2-2.1,0.5c-0.4,0.3-0.6,0.7-0.6,1.3c0,0.3,0.1,0.7,0.6,1.1
				c0.4,0.3,1.3,0.8,3.1,1.3c1.7,0.5,3.1,1.1,4.1,1.7c1.1,0.7,1.9,1.5,2.5,2.4c0.5,0.9,0.8,2,0.8,3.3c0,2-0.8,3.7-2.4,4.9
				C134.1,231.9,132.1,232.5,129.6,232.5z"/>
			<path class="st11" d="M129.5,210.4c1.4,0,2.7,0.3,3.8,0.8s2,1.3,2.6,2.3s1,2.1,1,3.2h-3.6c0-1.1-0.3-1.9-1-2.5s-1.6-0.9-2.9-0.9
				c-1.2,0-2.1,0.2-2.7,0.7s-1,1.2-1,2.1c0,0.8,0.3,1.4,1,1.9s1.8,1,3.4,1.5c1.6,0.5,2.9,1,3.9,1.6s1.7,1.3,2.1,2.1
				c0.5,0.8,0.7,1.7,0.7,2.8c0,1.7-0.7,3.1-2,4.1s-3.1,1.5-5.3,1.5c-1.5,0-2.9-0.3-4.1-0.8c-1.2-0.6-2.2-1.3-2.9-2.3
				c-0.7-1-1-2.1-1-3.4h3.6c0,1.2,0.4,2.1,1.2,2.7c0.8,0.6,1.9,1,3.3,1c1.2,0,2.2-0.3,2.8-0.8s0.9-1.2,0.9-2c0-0.9-0.3-1.6-1-2.1
				c-0.6-0.5-1.8-1-3.4-1.5c-1.7-0.5-3-1.1-3.9-1.7c-1.9-1.2-2.8-2.7-2.8-4.6c0-1.7,0.7-3,2-4.1
				C125.6,210.9,127.3,210.4,129.5,210.4 M129.5,208.4c-2.6,0-4.8,0.7-6.5,2c-1.8,1.4-2.8,3.4-2.8,5.7c0,1.8,0.6,4.3,3.7,6.3
				c0.3,0.2,0.7,0.4,1.1,0.6h-3.5c-1.1,0-2,0.9-2,2c0,1.7,0.5,3.2,1.4,4.5s2.2,2.3,3.7,2.9c1.5,0.7,3.1,1,4.9,1
				c2.7,0,4.9-0.6,6.6-1.9c1.8-1.4,2.7-3.3,2.7-5.7c0-1.4-0.3-2.7-0.9-3.8c-0.6-1.1-1.6-2-2.8-2.8c-0.4-0.2-0.8-0.5-1.3-0.7h3
				c1.1,0,2-0.9,2-2c0-1.6-0.4-3-1.3-4.3c-0.8-1.3-2-2.3-3.5-3C132.8,208.7,131.2,208.4,129.5,208.4L129.5,208.4z M131.7,217.8
				c-0.3-0.1-0.6-0.2-0.9-0.3c-1.8-0.5-2.6-1-2.8-1.2s-0.2-0.2-0.2-0.3c0-0.4,0.1-0.4,0.2-0.5c0.3-0.2,0.8-0.3,1.5-0.3
				c0.5,0,1.2,0.1,1.5,0.4c0.1,0.1,0.3,0.3,0.3,1C131.4,217.1,131.5,217.5,131.7,217.8L131.7,217.8z M129.6,226.7
				c-0.9,0-1.6-0.2-2-0.5c-0.2-0.2-0.4-0.5-0.4-1.2c0-0.5-0.2-1-0.5-1.3c0.5,0.2,1.1,0.4,1.7,0.6c1.9,0.6,2.6,1,2.8,1.2
				c0.1,0.1,0.2,0.1,0.2,0.5c0,0.2-0.1,0.3-0.2,0.4C131.1,226.4,130.7,226.7,129.6,226.7L129.6,226.7z"/>
		</g>
	</g>
</g>
<g>
	<path class="st21" d="M550,272.4l-47.1-8.9c-3-0.6-6.3,3.2-7.3,8.5l-3.7,19.4c-0.9,4.9,0.4,9.3,3,10.4c0.4,0.2,0.6,0.8,0.4,1.5
		l-2,10.6c-0.1,0.6,0.3,1,0.6,0.5l7-10.8c0.2-0.3,0.5-0.5,0.8-0.5l41,7.8c3,0.6,6.3-3.2,7.3-8.5l3.7-19.4
		C554.7,277.7,553.1,272.9,550,272.4z"/>
	<g>
		<path class="st32" d="M524.3,277.3c-1.3-1.6-3.5-2.6-6.7-3.2s-5.5-0.8-7.2-0.9l-4.3,22.9l5.2,1l1.6-8.3c0.4,0.2,1,0.3,1.7,0.5
			c3.2,0.6,5.9,0.3,8-1.1c1.7-1,2.7-2.8,3.2-5.1C526.2,280.9,525.7,278.8,524.3,277.3z M515.4,285.2c-0.8-0.2-1.3-0.2-1.8-0.5
			l1.3-6.9c0.4-0.1,1.1,0,2.2,0.2c2.6,0.5,3.8,1.9,3.5,4.2C520.1,284.7,518.2,285.8,515.4,285.2z"/>
		<path class="st32" d="M533,290.6c-2-1.1-2.5-1.6-2.4-2.4c0.2-1,1-1.3,2.3-1c1.4,0.3,2.8,1.2,3.5,1.6l1.6-3.5
			c-1-0.7-2.5-1.5-4.5-1.8c-4.1-0.8-7.3,1.1-7.9,4.2c-0.5,2,0.6,4.2,3.8,6c1.9,1,2.3,1.5,2.1,2.4c-0.2,0.8-1,1.3-2.5,1
			s-3.4-1.4-4.3-2l-1.7,3.6c1.2,1,3,1.8,5.2,2.2c4.8,0.9,7.8-0.9,8.4-4.1C536.9,294.2,536,292.3,533,290.6z"/>
	</g>
</g>
<g>
	<path class="st21" d="M480.4,200.2l-47.6,6.4c-3,0.4-4.9,5.1-4.2,10.4l2.6,19.6c0.7,4.9,3.3,8.7,6.1,8.9c0.4,0,0.8,0.6,0.9,1.3
		l1.4,10.7c0.1,0.6,0.6,0.8,0.7,0.3l3.3-12.5c0.1-0.4,0.3-0.6,0.6-0.7l41.4-5.6c3-0.4,4.9-5.1,4.2-10.4l-2.6-19.6
		C486.5,203.8,483.5,199.8,480.4,200.2z"/>
	<g>
		<path class="st32" d="M470.2,214.1c1.9-0.3,2.8-1.7,2.5-3.2c-0.2-1.7-1.5-2.6-3.3-2.4c-1.8,0.2-2.7,1.5-2.5,3.2
			C467.1,213.2,468.4,214.3,470.2,214.1z"/>
		<path class="st32" d="M450.2,212.2l-4.1,25.4l5.7-0.8l0.9-6.5l6.9-0.9l2.7,6l5.9-0.8l-10.8-23.4L450.2,212.2z M452.8,226.1
			c0,0,1.1-8.7,1.3-10.3c0.4,1.4,4,9.6,4.1,9.5L452.8,226.1z"/>
		
			<rect x="469" y="216.3" transform="matrix(0.9911 -0.1332 0.1332 0.9911 -25.7915 64.8479)" class="st32" width="5.5" height="17.8"/>
	</g>
</g>
<g>
	<path class="st18" d="M283.7,424.7c-0.1-0.6-0.1-1.2,0.1-1.8c0.5-2,1.1-5.8-0.2-10c-2.2-6.9-11.1-13-11.1-13s2.4,10.1,4.4,14.5
		c1.5,3.2,4,6.8,5.4,8.6c0.4,0.5,0.7,1.1,0.8,1.8c1.4,8,1.2,14.1,1.2,14.2h0.7C284.9,439,285.2,432.7,283.7,424.7z"/>
	<path class="st21" d="M290.8,418.2c1.8-5.6,2.6-12.2,2.6-12.2s-8,6.6-8.6,11.7c-0.4,3.1,0.1,5.6,0.5,7.1c0.2,0.6,0.3,1.3,0.2,1.9
		c-0.8,7.5-0.2,13.3-0.2,13.4l0.6-0.1c0-0.1-0.6-5.4,0.1-12.5c0.1-1,0.5-1.9,1.1-2.6C288.3,423.5,289.9,421.1,290.8,418.2z"/>
	<path class="st18" d="M298.9,405.8c0,0-8.6,3.2-10.9,10.2c-1.4,4.3-0.7,8.2-0.2,10.3c0.2,0.6,0.1,1.2,0,1.8c-2,8.1-2,16.5-2,16.6
		h0.7c0-0.1,0-8.3,2-16.2c0.2-0.8,0.5-1.5,1-2.2c1.5-2,4-5.5,5.4-8.7C297,413.1,298.9,405.8,298.9,405.8z"/>
	<path class="st21" d="M283.7,435.4c-0.2-2.9-1-5.6-2-7.8c-0.2-0.4-0.3-0.9-0.2-1.4c0.1-0.9,0.2-2.4-0.2-4.2
		c-0.7-3.5-5.3-10.9-11.9-11.3c0,0,2.3,3.7,3.5,6.8c1.5,3.9,3.6,8,7.1,9.5c0.6,0.3,1.1,0.8,1.4,1.4c0.9,2.1,1.5,4.5,1.7,7.1
		L283.7,435.4z"/>
	<g>
		<g>
			<path class="st18" d="M279.3,450.5h10.9l2.8-17.4c0.1-0.8-0.5-1.5-1.2-1.5h-14.1c-0.8,0-1.4,0.7-1.2,1.5L279.3,450.5z"/>
		</g>
	</g>
</g>
</svg>
