<svg width="40" height="40" viewBox="0 0 40 40" fill="none" xmlns="http://www.w3.org/2000/svg">
<path d="M20 1.33333C30.2667 1.33333 38.6667 9.73333 38.6667 20C38.6667 30.2667 30.2667 38.6667 20 38.6667C9.73333 38.6667 1.33333 30.2667 1.33333 20C1.33333 9.73333 9.73333 1.33333 20 1.33333ZM20 0C8.93333 0 0 8.93333 0 20C0 31.0667 8.93333 40 20 40C31.0667 40 40 31.0667 40 20C40 8.93333 31.0667 0 20 0Z" fill="#233741"/>
<path d="M24.3066 20.507L31.7333 25.1312V15.6025L24.3066 20.507Z" fill="#233741"/>
<path d="M9.87347 15.6025V25.1312L17.1601 20.507L9.87347 15.6025Z" fill="#233741"/>
<path d="M30.4722 12.7999H11.1346C10.434 12.7999 9.87346 13.3604 9.73334 13.9209L20.6633 21.0674L31.5932 13.9209C31.5932 13.3604 31.0327 12.7999 30.4722 12.7999Z" fill="#233741"/>
<path d="M23.1856 21.3477L21.2238 22.6088C21.0837 22.7489 20.9435 22.7489 20.8034 22.7489C20.6633 22.7489 20.5232 22.7489 20.383 22.6088L18.4212 21.3477L9.87347 26.8126C10.0136 27.5133 10.5741 27.9336 11.1346 27.9336H30.3321C31.0327 27.9336 31.5932 27.3731 31.5932 26.8126L23.1856 21.3477Z" fill="#233741"/>
</svg>
