<?xml version="1.0" encoding="utf-8"?>
<!-- Generator: Adobe Illustrator 23.0.1, SVG Export Plug-In . SVG Version: 6.00 Build 0)  -->
<svg version="1.1" xmlns="http://www.w3.org/2000/svg" xmlns:xlink="http://www.w3.org/1999/xlink" x="0px" y="0px"
	 viewBox="0 0 582 425.2" style="enable-background:new 0 0 582 425.2;" xml:space="preserve">
<style type="text/css">
	.st0{fill-rule:evenodd;clip-rule:evenodd;fill:#DEDEDE;}
	.st1{fill:#FFFFFF;stroke:#DEDEDE;stroke-miterlimit:10;}
	.st2{fill:#DEDEDE;}
	.st3{fill:#CCCCCC;}
	.st4{fill:#DEDEDE;stroke:#DEDEDE;stroke-linecap:round;stroke-linejoin:round;stroke-miterlimit:10;}
	.st5{fill-rule:evenodd;clip-rule:evenodd;fill:#FFFFFF;stroke:#DEDEDE;stroke-miterlimit:10;}
	.st6{fill:#FFC4BB;stroke:#0D343F;stroke-width:2;stroke-linecap:round;stroke-linejoin:round;stroke-miterlimit:10;}
	.st7{fill:#FFFFFF;stroke:#0D343F;stroke-width:2;stroke-linecap:round;stroke-linejoin:round;stroke-miterlimit:10;}
	
		.st8{fill:none;stroke:#0D343F;stroke-width:2;stroke-linecap:round;stroke-linejoin:round;stroke-miterlimit:10;stroke-dasharray:2.837;}
	.st9{fill:#888888;}
	.st10{fill:#0D343F;}
	.st11{fill:#EDEDED;}
	.st12{fill:#FFFFFF;stroke:#0D343F;stroke-width:1.5;stroke-linecap:round;stroke-linejoin:round;stroke-miterlimit:10;}
	.st13{fill:#AAAAAA;}
	.st14{fill:#ECECEC;}
	.st15{fill:none;stroke:#0D343F;stroke-width:2;stroke-miterlimit:10;}
	.st16{fill:none;stroke:#0D343F;stroke-width:2;stroke-linecap:round;stroke-linejoin:round;stroke-miterlimit:10;}
	.st17{fill:#ECECEC;stroke:#0D343F;stroke-width:2;stroke-linecap:round;stroke-linejoin:round;stroke-miterlimit:10;}
	.st18{fill:#DEDEDE;stroke:#0D343F;stroke-width:2;stroke-linecap:round;stroke-linejoin:round;stroke-miterlimit:10;}
	.st19{fill:#233740;}
	.st20{fill:#37C8A3;stroke:#0D343F;stroke-width:2;stroke-linecap:round;stroke-linejoin:round;stroke-miterlimit:10;}
	.st21{fill:#DD8D85;stroke:#0D343F;stroke-width:2;stroke-linecap:round;stroke-linejoin:round;stroke-miterlimit:10;}
	.st22{fill:#37C8A3;stroke:#233740;stroke-width:2;stroke-miterlimit:10;}
	.st23{fill:#F1C1B9;stroke:#233740;stroke-width:2;stroke-miterlimit:10;}
	.st24{fill:#FFFFFF;stroke:#233740;stroke-width:2;stroke-miterlimit:10;}
	.st25{fill:#FFFFFF;}
	.st26{fill:#F1C1B9;}
	.st27{fill:none;stroke:#233740;stroke-width:2;stroke-miterlimit:10;}
	.st28{fill:none;stroke:#233740;stroke-width:2;stroke-linecap:round;stroke-linejoin:round;stroke-miterlimit:10;}
	.st29{fill:#EFBAD5;stroke:#233740;stroke-width:2;stroke-linecap:round;stroke-linejoin:round;stroke-miterlimit:10;}
	.st30{fill:#DED99C;stroke:#233740;stroke-width:2;stroke-linecap:round;stroke-linejoin:round;stroke-miterlimit:10;}
	.st31{fill:#F1C1B9;stroke:#233740;stroke-width:2;stroke-linecap:round;stroke-miterlimit:10;}
	.st32{fill:#37C8A3;stroke:#233740;stroke-width:1.5;stroke-miterlimit:10;}
	.st33{fill:#A8E1E2;stroke:#233740;stroke-width:2;stroke-linecap:round;stroke-linejoin:round;stroke-miterlimit:10;}
	.st34{fill:#B1E0D3;stroke:#0D343F;stroke-width:2;stroke-linecap:round;stroke-linejoin:round;stroke-miterlimit:10;}
	.st35{fill:#79C8A4;stroke:#233740;stroke-width:2;stroke-linecap:round;stroke-linejoin:round;stroke-miterlimit:10;}
	.st36{fill:#FFC4BB;stroke:#233740;stroke-width:0.5;stroke-miterlimit:10;}
	.st37{fill:#77C5A1;stroke:#233740;stroke-width:0.5;stroke-miterlimit:10;}
	.st38{fill:#233740;stroke:#233740;stroke-width:0.5;stroke-miterlimit:10;}
	.st39{fill:none;stroke:#233740;stroke-width:0.5;stroke-miterlimit:10;}
	.st40{fill:#233740;stroke:#233740;stroke-width:2;stroke-miterlimit:10;}
	.st41{fill:#FFFFFF;stroke:#233740;stroke-width:2;stroke-linecap:round;stroke-linejoin:round;stroke-miterlimit:10;}
	.st42{fill:#F1C1B9;stroke:#233740;stroke-width:1.5;stroke-miterlimit:10;}
	.st43{fill:#FFC4BB;}
	.st44{fill:#37C8A3;}
</style>
<g id="BACKGROUND">
</g>
<g id="OBJECTS">
	<g>
		<g>
			
				<image style="overflow:visible;opacity:0.75;" width="464" height="132" xlink:href="6FD8FD03.png"  transform="matrix(1 0 0 1 77 297.75)">
			</image>
			<g>
				<path class="st0" d="M529.4,359.8c0,31.2-99.6,56.6-222.5,56.6c-122.9,0-222.5-25.3-222.5-56.6c0-31.3,99.6-56.6,222.5-56.6
					C429.7,303.2,529.4,328.5,529.4,359.8z"/>
			</g>
		</g>
		<g>
			<path class="st1" d="M460.7,93.2l-16.5-16.8c0,0,11.6-10.1,10.4-23.7c11.1-4.9,34.6-10.4,41.3-12l-22.8,22.4
				c-1.3-0.7-3-0.6-4.1,0.6c-1.4,1.4-1.4,3.6,0,4.9c1.4,1.4,3.6,1.4,4.9,0.1c1.1-1.1,1.3-2.8,0.6-4.1l22.8-22.4
				c-1.6,6.7-7.6,30.1-12.7,41.1C471,81.8,460.7,93.2,460.7,93.2z"/>
			<path class="st2" d="M484.6,83.2c5.1-11,11.1-34.4,12.7-41.1l-22.8,22.4c0.7,1.3,0.5,3-0.6,4.2c-1.4,1.4-3.6,1.3-4.9-0.1
				l-16.4,16.1l8.2,8.4C460.7,93.2,471,81.8,484.6,83.2z"/>
			<g>
				<path class="st2" d="M364.6,171.1L364.6,171.1c-2.9-2.9-2.8-7.7,0.1-10.6l82.4-80.9l10.5,10.7l-82.4,80.9
					C372.3,174.1,367.5,174,364.6,171.1z"/>
				<path class="st2" d="M364.6,171.1L364.6,171.1c-2.9-2.9-2.8-7.7,0.1-10.6l82.4-80.9l10.5,10.7l-82.4,80.9
					C372.3,174.1,367.5,174,364.6,171.1z"/>
			</g>
			<g>
				<g>
					<path class="st3" d="M456.9,95l-14.5-14.8c-1.3-1.3-1.3-3.4,0-4.7l1-0.9c1.3-1.3,3.4-1.3,4.7,0l14.6,14.8
						c1.3,1.3,1.3,3.4,0,4.7l-1,0.9C460.3,96.3,458.2,96.3,456.9,95z"/>
					<path class="st3" d="M456.9,95l-14.5-14.8c-1.3-1.3-1.3-3.4,0-4.7l1-0.9c1.3-1.3,3.4-1.3,4.7,0l14.6,14.8
						c1.3,1.3,1.3,3.4,0,4.7l-1,0.9C460.3,96.3,458.2,96.3,456.9,95z"/>
				</g>
			</g>
			<g>
				<path class="st4" d="M429.6,36c20-17.6,50.5-15.7,68.1,4.3c17.6,20,15.7,50.6-4.3,68.2l-0.5-0.6c19.7-17.3,21.6-47.4,4.3-67.1
					c-17.3-19.7-47.4-21.6-67-4.3L429.6,36z"/>
				<polygon class="st4" points="465.5,4.9 466.1,4.3 529.4,76.3 528.8,76.8 				"/>
				<g>
					
						<rect x="493.9" y="37" transform="matrix(0.6605 0.7508 -0.7508 0.6605 199.3423 -359.7245)" class="st4" width="7.2" height="7.2"/>
					<path class="st4" d="M491.8,40.2l6-5.3l5.3,6l-6,5.3L491.8,40.2z M497.7,36.1l-4.8,4.2l4.2,4.8l4.8-4.2L497.7,36.1z"/>
				</g>
				<g>
					
						<rect x="426.3" y="32.7" transform="matrix(0.6607 0.7507 -0.7507 0.6607 173.0749 -310.3708)" class="st4" width="7.2" height="7.2"/>
					<path class="st4" d="M424.2,35.9l6-5.3l5.3,6l-6,5.3L424.2,35.9z M430.1,31.8l-4.8,4.2l4.2,4.8l4.8-4.2L430.1,31.8z"/>
				</g>
				<g>
					
						<rect x="489.7" y="104.8" transform="matrix(0.6605 0.7508 -0.7508 0.6605 248.7961 -333.5759)" class="st4" width="7.2" height="7.2"/>
					<path class="st4" d="M487.7,108l6-5.3l5.3,6l-6,5.3L487.7,108z M493.6,103.8l-4.8,4.2l4.2,4.8l4.8-4.2L493.6,103.8z"/>
				</g>
				<g>
					<path class="st4" d="M531.6,79.4c-1.5,1.3-3.7,1.2-5-0.3c-1.3-1.5-1.2-3.7,0.3-5.1c1.5-1.3,3.7-1.2,5,0.3
						C533.2,75.8,533.1,78.1,531.6,79.4z"/>
					<path class="st4" d="M525.2,76.4c0.1-1.1,0.5-2,1.3-2.7c1.6-1.4,4.2-1.3,5.6,0.4c0.7,0.8,1,1.8,1,2.9c-0.1,1.1-0.5,2-1.3,2.7
						l0,0c-0.8,0.7-1.8,1.1-2.9,1c-1.1-0.1-2-0.5-2.7-1.3C525.5,78.5,525.2,77.5,525.2,76.4z M532.4,76.9c0.1-0.8-0.2-1.7-0.8-2.3
						c-1.2-1.3-3.2-1.4-4.5-0.3c-1.3,1.2-1.4,3.2-0.3,4.5c0.6,0.6,1.3,1,2.2,1.1c0.8,0.1,1.7-0.2,2.3-0.8l0,0
						C532,78.5,532.3,77.7,532.4,76.9z"/>
				</g>
				<g>
					<path class="st4" d="M468.2,7.3c-1.5,1.3-3.7,1.2-5-0.3c-1.3-1.5-1.2-3.7,0.3-5.1c1.5-1.3,3.7-1.2,5.1,0.3
						C469.8,3.7,469.6,6,468.2,7.3z"/>
					<path class="st4" d="M461.8,4.3c0.1-1,0.5-2,1.3-2.7c1.6-1.4,4.2-1.3,5.6,0.4c1.4,1.6,1.3,4.2-0.4,5.6l0,0
						c-1.6,1.4-4.2,1.3-5.6-0.4C462.1,6.4,461.8,5.4,461.8,4.3z M469,4.8c0.1-0.8-0.2-1.6-0.8-2.3C467,1.2,465,1,463.7,2.2
						c-1.3,1.2-1.4,3.2-0.3,4.5c1.2,1.3,3.2,1.4,4.5,0.3C468.6,6.4,468.9,5.6,469,4.8z"/>
				</g>
			</g>
		</g>
		<g>
			<g>
				<g>
					<g>
						<g>
							<path class="st0" d="M221.9,80.2c4,3,7.6,6.5,10.6,10.4l13.5-2.5L255,109l-11.1,8.1c0.7,4.9,0.8,9.8,0.2,14.8l11.3,7.8
								l-8.5,21.1l-13.6-2.2c-3,4-6.5,7.6-10.4,10.6l2.5,13.5l-20.9,8.9l-8.1-11.1c-4.9,0.7-9.8,0.8-14.8,0.2l-7.8,11.3l-21.1-8.5
								l2.2-13.6c-4-3-7.6-6.5-10.6-10.4l-13.5,2.5l-8.9-20.9l11.2-8.1c-0.7-4.9-0.8-9.8-0.2-14.8l-11.3-7.8l8.5-21.1l13.6,2.2
								c3-4,6.5-7.6,10.4-10.6l-2.5-13.5l20.9-8.9l8.1,11.2c4.9-0.7,9.8-0.8,14.8-0.2l7.8-11.3l21.1,8.5L221.9,80.2L221.9,80.2z
								 M198.4,102.8c-12.5-5-26.7,1-31.8,13.6c-5,12.5,1,26.7,13.6,31.8c12.5,5,26.7-1,31.8-13.6
								C217,122.1,210.9,107.9,198.4,102.8z"/>
						</g>
					</g>
				</g>
			</g>
			<g>
				<g>
					<g>
						<g>
							<path class="st5" d="M112.7,25c2.3,1.7,4.3,3.7,6,5.8l7.6-1.4l5,11.8l-6.3,4.5c0.4,2.7,0.4,5.5,0.1,8.3l6.4,4.4l-4.8,11.9
								l-7.6-1.2c-1.7,2.3-3.7,4.3-5.8,6l1.4,7.6l-11.8,5l-4.5-6.3c-2.7,0.4-5.5,0.4-8.3,0.1l-4.4,6.4l-11.9-4.8l1.2-7.6
								c-2.3-1.7-4.3-3.7-6-5.8L61.4,71l-5-11.8l6.3-4.5c-0.4-2.7-0.4-5.5-0.1-8.3L56.2,42L61,30.1l7.6,1.2c1.7-2.3,3.7-4.3,5.8-6
								L73,17.8l11.8-5l4.5,6.3c2.7-0.4,5.5-0.4,8.3-0.1l4.4-6.4l11.9,4.8L112.7,25L112.7,25z M99.4,37.7c-7-2.8-15,0.6-17.8,7.6
								c-2.8,7,0.6,15,7.6,17.8c7,2.8,15-0.6,17.8-7.6C109.9,48.5,106.5,40.5,99.4,37.7z"/>
						</g>
					</g>
				</g>
			</g>
		</g>
		<g>
			<path class="st6" d="M377.3,346H242.2c-11.8,0-21.3-9.2-21.3-20.7V34.1c0-11.4,9.5-20.7,21.3-20.7h135.1
				c11.8,0,21.3,9.2,21.3,20.7v291.3C398.6,336.8,389.1,346,377.3,346z"/>
			<path class="st7" d="M387.8,33.8v288.5c0,6.8-5.7,12.2-12.6,12.2H244.4c-7,0-12.6-5.5-12.6-12.2V33.8c0-6.8,5.7-12.3,12.6-12.3
				h21.8c1.2,0,2.3,0.7,2.9,1.7l2.3,4.5c1.1,2.1,3.2,3.4,5.6,3.4h65.6c2.4,0,4.5-1.3,5.6-3.4l2.3-4.5c0.5-1,1.6-1.7,2.9-1.7h21.8
				C382.1,21.6,387.8,27.1,387.8,33.8z"/>
			<path class="st7" d="M337.3,25.9h-52.8c-1.2,0-2.2-1-2.2-2.2l0,0c0-1.2,1-2.2,2.2-2.2h52.8c1.2,0,2.2,1,2.2,2.2l0,0
				C339.5,24.9,338.5,25.9,337.3,25.9z"/>
		</g>
		<path class="st8" d="M367,323.9H249.5c-4.6,0-8.4-3.8-8.4-8.4V274c0-4.6,3.8-8.4,8.4-8.4H367c4.6,0,8.4,3.8,8.4,8.4v41.5
			C375.4,320.1,371.7,323.9,367,323.9z"/>
		<path class="st8" d="M366.6,180.9h-67.8c-3.9,0-7-2.7-7-6V146c0-3.3,3.1-6,7-6h67.8c3.9,0,7,2.7,7,6v28.8
			C373.6,178.2,370.5,180.9,366.6,180.9z"/>
		<g>
			<path class="st9" d="M252.7,259.1c-3.4,0-6.2-2.8-6.2-6.2v-50.8c0-3.4,2.8-6.2,6.2-6.2h120.5c3.4,0,6.2,2.8,6.2,6.2v50.8
				c0,3.4-2.8,6.2-6.2,6.2H252.7z"/>
			<path class="st10" d="M373.1,196.9c2.9,0,5.2,2.3,5.2,5.2v50.8c0,2.9-2.3,5.2-5.2,5.2H252.7c-2.9,0-5.2-2.3-5.2-5.2v-50.8
				c0-2.9,2.3-5.2,5.2-5.2H373.1 M373.1,194.9H252.7c-4,0-7.2,3.2-7.2,7.2v50.8c0,4,3.2,7.2,7.2,7.2h120.5c4,0,7.2-3.2,7.2-7.2
				v-50.8C380.3,198.1,377.1,194.9,373.1,194.9L373.1,194.9z"/>
		</g>
		<g>
			<path class="st11" d="M247.7,253.8c-3.4,0-6.2-2.8-6.2-6.2v-50.8c0-3.4,2.8-6.2,6.2-6.2h120c3.4,0,6.2,2.8,6.2,6.2v50.8
				c0,3.4-2.8,6.2-6.2,6.2H247.7z"/>
			<path class="st10" d="M367.7,191.6c2.9,0,5.2,2.3,5.2,5.2v50.8c0,2.8-2.3,5.2-5.2,5.2h-120c-2.9,0-5.2-2.3-5.2-5.2v-50.8
				c0-2.9,2.3-5.2,5.2-5.2H367.7 M367.7,189.6h-120c-4,0-7.2,3.2-7.2,7.2v50.8c0,4,3.2,7.2,7.2,7.2h120c4,0,7.2-3.2,7.2-7.2v-50.8
				C374.9,192.8,371.7,189.6,367.7,189.6L367.7,189.6z"/>
		</g>
		<g>
			<path class="st12" d="M328.9,210.2h-31.1c-0.8,0-1.5-0.7-1.5-1.5l0,0c0-0.8,0.7-1.5,1.5-1.5h31.1c0.8,0,1.5,0.7,1.5,1.5l0,0
				C330.4,209.5,329.7,210.2,328.9,210.2z"/>
			<path class="st12" d="M314.7,216.3h-16.9c-0.8,0-1.5-0.7-1.5-1.5l0,0c0-0.8,0.7-1.5,1.5-1.5h16.9c0.8,0,1.5,0.7,1.5,1.5l0,0
				C316.2,215.6,315.5,216.3,314.7,216.3z"/>
			<path class="st12" d="M366.8,216.3h-45.8c-0.8,0-1.5-0.7-1.5-1.5l0,0c0-0.8,0.7-1.5,1.5-1.5h45.8c0.8,0,1.5,0.7,1.5,1.5l0,0
				C368.3,215.6,367.6,216.3,366.8,216.3z"/>
			<path class="st12" d="M323.9,222.4h-26.2c-0.8,0-1.5-0.7-1.5-1.5l0,0c0-0.8,0.7-1.5,1.5-1.5h26.2c0.8,0,1.5,0.7,1.5,1.5l0,0
				C325.5,221.7,324.8,222.4,323.9,222.4z"/>
			<path class="st12" d="M346.2,222.4h-16.5c-0.8,0-1.5-0.7-1.5-1.5l0,0c0-0.8,0.7-1.5,1.5-1.5h16.5c0.8,0,1.5,0.7,1.5,1.5l0,0
				C347.7,221.7,347,222.4,346.2,222.4z"/>
			<path class="st12" d="M366.8,222.4h-15.2c-0.8,0-1.5-0.7-1.5-1.5l0,0c0-0.8,0.7-1.5,1.5-1.5h15.2c0.8,0,1.5,0.7,1.5,1.5l0,0
				C368.3,221.7,367.6,222.4,366.8,222.4z"/>
			<path class="st12" d="M366.8,228.5h-69c-0.8,0-1.5-0.7-1.5-1.5l0,0c0-0.8,0.7-1.5,1.5-1.5h69c0.8,0,1.5,0.7,1.5,1.5l0,0
				C368.3,227.8,367.6,228.5,366.8,228.5z"/>
			<path class="st12" d="M335.7,234.6h-38c-0.8,0-1.5-0.7-1.5-1.5l0,0c0-0.8,0.7-1.5,1.5-1.5h38c0.8,0,1.5,0.7,1.5,1.5l0,0
				C337.2,233.9,336.6,234.6,335.7,234.6z"/>
			<path class="st12" d="M366.8,234.6h-24.9c-0.8,0-1.5-0.7-1.5-1.5l0,0c0-0.8,0.7-1.5,1.5-1.5h24.9c0.8,0,1.5,0.7,1.5,1.5l0,0
				C368.3,233.9,367.6,234.6,366.8,234.6z"/>
			<path class="st12" d="M320,240.8h-22.3c-0.8,0-1.5-0.7-1.5-1.5l0,0c0-0.8,0.7-1.5,1.5-1.5H320c0.8,0,1.5,0.7,1.5,1.5l0,0
				C321.6,240.1,320.9,240.8,320,240.8z"/>
			<path class="st12" d="M348.4,240.8h-22.3c-0.8,0-1.5-0.7-1.5-1.5l0,0c0-0.8,0.7-1.5,1.5-1.5h22.3c0.8,0,1.5,0.7,1.5,1.5l0,0
				C349.9,240.1,349.3,240.8,348.4,240.8z"/>
			<path class="st12" d="M366.8,240.8h-13c-0.8,0-1.5-0.7-1.5-1.5l0,0c0-0.8,0.7-1.5,1.5-1.5h13c0.8,0,1.5,0.7,1.5,1.5l0,0
				C368.3,240.1,367.6,240.8,366.8,240.8z"/>
			<path class="st12" d="M328.9,246.9h-31.1c-0.8,0-1.5-0.7-1.5-1.5l0,0c0-0.8,0.7-1.5,1.5-1.5h31.1c0.8,0,1.5,0.7,1.5,1.5l0,0
				C330.4,246.2,329.7,246.9,328.9,246.9z"/>
			<path class="st12" d="M366.8,210.2h-31.1c-0.8,0-1.5-0.7-1.5-1.5l0,0c0-0.8,0.7-1.5,1.5-1.5h31.1c0.8,0,1.5,0.7,1.5,1.5l0,0
				C368.3,209.5,367.6,210.2,366.8,210.2z"/>
		</g>
		<g>
			<g>
				<path class="st13" d="M241.6,197.9v-1.1c0-3.4,2.8-6.2,6.2-6.2h120c3.4,0,6.2,2.8,6.2,6.2v1.1H241.6z"/>
				<path class="st10" d="M367.7,191.6c2.9,0,5.2,2.3,5.2,5.2v0.1H242.6v-0.1c0-2.9,2.3-5.2,5.2-5.2H367.7 M367.7,189.6h-120
					c-4,0-7.2,3.2-7.2,7.2v2.1h134.3v-2.1C374.9,192.8,371.7,189.6,367.7,189.6L367.7,189.6z"/>
			</g>
			<g>
				<g>
					<path class="st14" d="M349.6,194.4c0,0.9-0.7,1.7-1.7,1.7c-0.9,0-1.7-0.7-1.7-1.7c0-0.9,0.7-1.7,1.7-1.7
						C348.8,192.8,349.6,193.5,349.6,194.4z"/>
				</g>
				<g>
					<path class="st14" d="M358.1,194.4c0,0.9-0.7,1.7-1.7,1.7c-0.9,0-1.7-0.7-1.7-1.7c0-0.9,0.7-1.7,1.7-1.7
						C357.3,192.8,358.1,193.5,358.1,194.4z"/>
				</g>
				<g>
					<path class="st14" d="M366.6,194.4c0,0.9-0.7,1.7-1.7,1.7c-0.9,0-1.7-0.7-1.7-1.7c0-0.9,0.7-1.7,1.7-1.7
						C365.9,192.8,366.6,193.5,366.6,194.4z"/>
				</g>
			</g>
		</g>
		<g>
			<path class="st15" d="M277.7,180.9h-26.6c-3.9,0-7.2-3.2-7.2-7.2v-26.6c0-3.9,3.2-7.2,7.2-7.2h26.6c3.9,0,7.2,3.2,7.2,7.2v26.6
				C284.8,177.7,281.6,180.9,277.7,180.9z"/>
			<g>
				<polyline class="st16" points="258,154.6 252.1,160.5 258.1,166.4 				"/>
				<polyline class="st16" points="270.8,154.6 276.6,160.5 270.7,166.4 				"/>
				<line class="st16" x1="267.1" y1="154.6" x2="261.6" y2="166.4"/>
			</g>
		</g>
		<g>
			<path class="st6" d="M367.1,278.4v33.1c0,1.8-1.5,3.3-3.3,3.3h-47c-1.8,0-3.3-1.5-3.3-3.3v-33.1c0-1.8,1.5-3.3,3.3-3.3h47
				C365.6,275.1,367.1,276.6,367.1,278.4z"/>
			<path class="st17" d="M364,285.6c0,4.3-3.5,7.8-7.8,7.8s-7.8-3.5-7.8-7.8c0-4.3,3.5-7.8,7.8-7.8S364,281.3,364,285.6z"/>
			<path class="st7" d="M345,314.7h-28.2c-1.8,0-3.3-1.5-3.3-3.3v-5.2l12.3-21.4c0.6-1.1,2.3-1.1,2.9,0l9.3,16.1l6.9,12
				C345.4,313.6,345.3,314.3,345,314.7z"/>
			<path class="st17" d="M357.2,314.7h-27l7.9-13.7l4.3-7.4c0.6-1,2-1,2.6,0L357.2,314.7z"/>
		</g>
		<g>
			<path class="st14" d="M251.2,247.3c-2.1,0-3.9-1.7-3.9-3.9v-35.3c0-2.1,1.7-3.9,3.9-3.9h35.3c2.1,0,3.9,1.7,3.9,3.9v35.3
				c0,2.1-1.7,3.9-3.9,3.9H251.2z"/>
			<path class="st10" d="M286.6,205.3c1.6,0,2.9,1.3,2.9,2.9v35.3c0,1.6-1.3,2.9-2.9,2.9h-35.3c-1.6,0-2.9-1.3-2.9-2.9v-35.3
				c0-1.6,1.3-2.9,2.9-2.9H286.6 M286.6,203.3h-35.3c-2.7,0-4.9,2.2-4.9,4.9v35.3c0,2.7,2.2,4.9,4.9,4.9h35.3c2.7,0,4.9-2.2,4.9-4.9
				v-35.3C291.4,205.5,289.3,203.3,286.6,203.3L286.6,203.3z"/>
		</g>
		<g>
			<path class="st18" d="M284.1,314.7h-24.3c-4.3,0-7.7-3.5-7.7-7.7v-24.3c0-4.3,3.5-7.7,7.7-7.7h24.3c4.3,0,7.7,3.5,7.7,7.7V307
				C291.8,311.2,288.4,314.7,284.1,314.7z"/>
			<path class="st19" d="M267.3,287.3l11.4,6.6c0.7,0.4,0.7,1.4,0,1.8l-11.4,6.6c-0.7,0.4-1.6-0.1-1.6-0.9v-13.2
				C265.7,287.4,266.6,286.9,267.3,287.3z"/>
		</g>
		<g>
			<path class="st17" d="M310.4,354.2c-0.1-0.6-0.1-1.2,0.1-1.8c0.5-2,1.1-5.8-0.2-10c-2.2-6.9-11.1-13-11.1-13s2.4,10.1,4.4,14.5
				c1.5,3.2,4,6.8,5.4,8.6c0.4,0.5,0.7,1.1,0.8,1.8c1.4,8,1.2,14.1,1.2,14.2l0.7,0C311.6,368.5,311.9,362.3,310.4,354.2z"/>
			<path class="st20" d="M317.5,347.8c1.8-5.6,2.6-12.2,2.6-12.2s-8,6.6-8.6,11.7c-0.4,3.1,0.1,5.6,0.5,7.1c0.2,0.6,0.3,1.3,0.2,1.9
				c-0.8,7.5-0.2,13.3-0.2,13.4l0.6-0.1c0-0.1-0.6-5.4,0.1-12.5c0.1-1,0.5-1.9,1.1-2.6C315,353,316.6,350.7,317.5,347.8z"/>
			<path class="st17" d="M325.6,335.3c0,0-8.6,3.2-10.9,10.2c-1.4,4.3-0.7,8.2-0.2,10.3c0.2,0.6,0.1,1.2,0,1.8c-2,8.1-2,16.5-2,16.6
				h0.7c0-0.1,0-8.3,2-16.2c0.2-0.8,0.5-1.5,1-2.2c1.5-2,4-5.5,5.4-8.7C323.7,342.7,325.6,335.3,325.6,335.3z"/>
			<path class="st20" d="M310.4,365c-0.2-2.9-1-5.6-2-7.8c-0.2-0.4-0.3-0.9-0.2-1.4c0.1-0.9,0.2-2.4-0.2-4.2
				c-0.7-3.5-5.3-10.9-11.9-11.3c0,0,2.3,3.7,3.5,6.8c1.5,3.9,3.6,8,7.1,9.5c0.6,0.3,1.1,0.8,1.4,1.4c0.9,2.1,1.5,4.5,1.7,7.1
				L310.4,365z"/>
			<g>
				<g>
					<path class="st17" d="M306,380.1h10.9l2.8-17.4c0.1-0.8-0.5-1.5-1.2-1.5h-14.1c-0.8,0-1.4,0.7-1.2,1.5L306,380.1z"/>
				</g>
			</g>
		</g>
		<g>
			<path class="st21" d="M258,342.4c1.1,19-9.7,38.6-33.4,46.2c-21.8,7-45.6,7.1-67.1-2.5c-39-17.5-17.7-59.5,9.3-76.1
				c12.5-7.7,27.8-12.2,43.2-11.6C240.2,299.6,256.8,320.6,258,342.4"/>
			<path class="st6" d="M252.8,334c1.1,19-9.7,38.6-33.4,46.2c-21.8,7-45.6,7.1-67.1-2.5c-39-17.5-17.7-59.5,9.3-76.1
				c12.5-7.7,27.8-12.2,43.2-11.6C234.9,291.2,251.5,312.2,252.8,334"/>
			<path class="st19" d="M178.2,358.5c-6.7-0.4-13.4-1.9-19.4-4.7c-30.4-14-10.1-42.4,13.6-52.8c10.3-4.5,21.6-6.5,31.7-5.4
				c0.7,0.1,1.4,0.2,2,0.2c8.5,1.2,14.7,4.4,19.1,9.8c4.5,5.5,6.7,13,6,20.7C229.5,346.8,203,360.1,178.2,358.5z"/>
		</g>
		<g>
			<path class="st22" d="M166.8,282.2c4.6,6.3-2.4,19.3-15.6,29c-13.2,9.7-27.7,12.4-32.3,6.2c-4.6-6.3,2.4-19.3,15.6-29
				C147.7,278.6,162.2,275.9,166.8,282.2z"/>
			<path class="st22" d="M221,324.2c0,24.4-18.7,34.6-41.7,34.6c-23,0-41.7-10.2-41.7-34.6c0-24.4,18.7-53.8,41.7-53.8
				C202.3,270.4,221,299.7,221,324.2z"/>
			<g>
				<path class="st19" d="M210.4,192.3c0,0,8.4-2.9,10.8,3.2c0,0-8.4-2.2-6.7,3.6"/>
				<path class="st19" d="M212.4,193.9c0,0,0.9-8.9-5.6-9.8c0,0,4.1,7.7-2,7.4"/>
			</g>
			<path class="st19" d="M112.6,266.7c0,0.3,0,0.5,0,0.8c-0.2,3.8,0.9,8.5,3.5,11.4c2.8,3,8.3,3.6,12.2,4.1c2.1,0.3,4.4,0.5,6.4,0
				c4-1,5.7-4.6,6.7-7.7c2.9-9.1,3.5-18.5,4-27.9c0.4-7.9,1.1-19.5-7.8-25.3c-6-3.9-8.7-2.8-11.3,2.4c-3.6,7.2-2.8,15.5-5.8,22.9
				c-1.3,3.1-3.2,6-4.7,9C114.1,259.6,112.8,263.1,112.6,266.7z"/>
			<path class="st23" d="M176.1,325.2c17.1-1.9,31.2,5.5,32.3,15.4c1.1,10-11.3,18.9-28.3,20.7c-17.1,1.9-32.4-4-33.5-14
				C145.5,337.4,159.1,327.1,176.1,325.2z"/>
			<path class="st23" d="M199,309c-1.5-6.3-11.9-9.2-23.2-6.5c-11.3,2.7-19.2,10.1-17.7,16.4c1.5,6.3,11.9,9.2,23.2,6.5
				C192.6,322.7,200.5,315.3,199,309z"/>
			<path class="st24" d="M220.3,252.6c0,29.9-21.4,41.9-47.7,41.9c-14.2,0-31.8-3.6-40.4-16.3c-4.4-6.6-1.6-10.6,0.3-17.5
				c2-7.5,0.2-14.6-0.8-22c-1.2-8.4,2.5-18.8,6-26.3c6.4-13.6,18.9-26,34.8-26C199,186.2,220.3,222.7,220.3,252.6z"/>
			<g>
				<g>
					<g>
						<path class="st19" d="M154,260.9c0,4.2-3.4,7.6-7.6,7.6c-4.2,0-7.6-3.4-7.6-7.6c0-4.2,3.4-7.6,7.6-7.6
							C150.6,253.3,154,256.7,154,260.9z"/>
					</g>
					<g>
						<path class="st25" d="M147.4,266.3c-1.7,0-3.2-1.4-3.2-3.2c0-1.7,1.4-3.2,3.2-3.2s3.2,1.4,3.2,3.2
							C150.5,264.9,149.1,266.3,147.4,266.3z"/>
					</g>
				</g>
				<g>
					<path class="st25" d="M144.2,259.2c-1,0-1.7-0.8-1.7-1.7c0-1,0.8-1.7,1.7-1.7c1,0,1.7,0.8,1.7,1.7
						C145.9,258.4,145.1,259.2,144.2,259.2z"/>
				</g>
			</g>
			<path class="st26" d="M187.2,282.1c-0.5,1.5-3.6,1.8-6.9,0.7c-3.3-1.1-5.6-3.2-5.2-4.6c0.5-1.5,3.6-1.8,6.9-0.7
				C185.4,278.6,187.7,280.6,187.2,282.1z"/>
			<path class="st26" d="M148.6,273.3c-0.5,1.5-3.6,1.8-6.9,0.7c-3.3-1.1-5.6-3.2-5.2-4.6c0.5-1.5,3.6-1.8,6.9-0.7
				C146.8,269.7,149.1,271.8,148.6,273.3z"/>
			<g>
				<g>
					<g>
						<path class="st19" d="M191.4,269.4c0,4.2-3.4,7.6-7.6,7.6c-4.2,0-7.6-3.4-7.6-7.6c0-4.2,3.4-7.6,7.6-7.6
							C188,261.9,191.4,265.3,191.4,269.4z"/>
					</g>
					<g>
						<path class="st25" d="M184.7,274.9c-1.7,0-3.2-1.4-3.2-3.2c0-1.7,1.4-3.2,3.2-3.2c1.7,0,3.2,1.4,3.2,3.2
							C187.9,273.5,186.5,274.9,184.7,274.9z"/>
					</g>
				</g>
				<g>
					<path class="st25" d="M181.6,267.7c-1,0-1.7-0.8-1.7-1.7c0-1,0.8-1.7,1.7-1.7c1,0,1.7,0.8,1.7,1.7
						C183.3,267,182.5,267.7,181.6,267.7z"/>
				</g>
			</g>
			<path class="st19" d="M123.6,232c-0.7,9.6,2.2,18.7,11,24.5c0-5.5,4.7-10.1,9.9-11.7c5.2-1.6,10.9-0.7,16.2,0.5
				c9.5,2.3,18.6,6,27.2,10.5c7.2,3.8,11.9,10.6,14.9,18c1,2.4,2.2,4.4,2.5,7c0.1,0.7-0.2,8.5-1,8.2c7.8,2.7,16.8-0.8,22.4-6.8
				c5.6-6.1,8.4-14.2,10-22.3c3.9-19.8,0.9-41.9-12.5-56.9c-13.1-14.8-34.5-20.4-54.1-17.6c-10.1,1.5-20.1,5.1-28.1,11.4
				C132.8,204.3,124.6,218.6,123.6,232z"/>
			<path class="st19" d="M195.2,222.3c2,7.1,3.3,14.5,4.2,21.8c1.3,11.5,2.7,27.7-5.3,37.1c-1,1.2-2.1,2.2-2.9,3.6
				c-0.8,1.3-1.1,3-0.4,4.4c0.8,1.6,2.6,2.2,4.2,2.6c4.5,1.2,9.1,1.7,13.7,1.8c3.6,0,7.3-0.3,10.5-1.9c8.3-3.9,14-14.2,16.9-22.9
				c3.9-11.4,3.4-23.9,1.3-35.6C231.3,199,195.2,222.3,195.2,222.3z"/>
			<path class="st27" d="M196.4,275.9c-2.4,7.9-10,11.7-17.2,9.5c-7.2-2.2-11.4-9.5-9-17.5c2.4-7.9,9.4-9.9,16.6-7.7
				C194.1,262.5,198.8,268,196.4,275.9z"/>
			<path class="st27" d="M156.9,266.9c-2.3,7.6-9.3,11.3-16,9.3c-6.7-2-10.4-9-8.1-16.6c2.3-7.6,8.8-9.6,15.5-7.5
				C154.9,254,159.2,259.2,156.9,266.9z"/>
			<line class="st27" x1="156.9" y1="266.9" x2="169" y2="270.2"/>
			<path class="st28" d="M162.3,280.5c-0.2,0.8-1.7,1.2-3.3,0.7c-1.6-0.4-2.7-1.5-2.4-2.3"/>
			<path class="st23" d="M160.7,327l0.1,2.5c0,0,0,0,0,0C160.8,327.9,160.7,327,160.7,327z"/>
			<path class="st23" d="M160.9,329.5l1.7,31c0.1,0,0.2,0,0.3,0.1C162.2,348.4,161.3,334.9,160.9,329.5
				C160.9,329.5,160.9,329.5,160.9,329.5z"/>
			<path class="st24" d="M125.5,362.6c3.1,6.9,7.8,12,13,12c4.3,0,8.1-3.4,11.1-8.2L125.5,362.6z"/>
			<path class="st29" d="M184.1,300.8c0,3-2.4,5.3-5.3,5.3s-5.3-2.4-5.3-5.3c0-3,2.4-5.3,5.3-5.3S184.1,297.8,184.1,300.8z"/>
			<path class="st22" d="M208.4,340.7c-0.4-3.3-2.2-6.4-4.7-8.7c-3.4-3.1-7.8-4.8-12.3-5.8c-4.9-1.1-10.1-1.5-15.1-1.1
				c-3.3,0.3-12.7,0.7-14.9,3.5c-1.1,1.4-0.4,4.2-0.3,5.9c0.2,3,0.4,6,0.5,9c0.4,6,0.7,11.9,1.1,17.9c0,0.4,0.1,0.8,0.3,1
				c0.2,0.2,0.6,0.3,0.9,0.3c12.1,1.5,24.7-1.2,35.1-7.5c4.2-2.6,8.3-6.1,9.3-10.9C208.5,343.1,208.6,341.9,208.4,340.7z"/>
			<path class="st23" d="M160.7,299.2"/>
			<path class="st24" d="M158.1,318.9c1.4,5.7,10,8.6,20,7.1l-6.5-22.2C162.6,307.1,156.8,313.4,158.1,318.9z"/>
			<path class="st22" d="M155,345.3c0-3.6-0.6-7.2-2.3-10.3c-3.1-5.8-10-9.3-16.5-8.5c-15.8,2.1-16,21.5-15.1,33.7
				c0,0.6,0.1,1.2,0.5,1.6c0.4,0.5,1.1,0.6,1.7,0.7c9.2,1.3,18.4,2.7,27.7,4c0.3,0,0.7,0.1,1-0.1c0.2-0.2,0.3-0.5,0.4-0.8
				c0.9-4.7,1.8-9.3,2.3-14.1C154.9,349.4,155,347.3,155,345.3z"/>
			<polygon class="st30" points="157.4,293.7 151,304.7 163.7,304.7 			"/>
			<g>
				<path class="st31" d="M147.8,290.4l9.6,31.6c0.1,0.4,0.4,0.6,0.8,0.6l26.1,2c0.5,0,0.8,0.4,0.8,0.9v1.6c0,0.5-0.4,0.9-0.9,0.9
					l-71.5-1.3c-0.4,0-0.7-0.2-0.8-0.6l-12.6-32.9c-0.2-0.6,0.2-1.2,0.8-1.2l46.7-2.2C147.3,289.8,147.6,290,147.8,290.4z"/>
			</g>
			<g>
				<path class="st32" d="M129.1,307.4c-0.7-0.7-1.6-1-2.5-0.9l0,0c0,0-0.1,0-0.1,0c-0.3,0-0.6,0.2-0.8,0.3
					c-0.7-0.4-1.4-0.4-2.1-0.2c-0.8,0.3-1.5,1-1.8,1.8c-0.6,1.6,0,3.4,1.3,4.3c0.4,0.3,0.9,0.4,1.4,0.4c0.5,0,0.9-0.1,1.3-0.4
					c0.6,0.3,1.3,0.4,2,0.2c0.8-0.2,1.4-0.7,1.8-1.5C130.3,310.2,130.1,308.4,129.1,307.4z"/>
				<path class="st32" d="M124.3,304.2c0.6,0.2,0.9,0.5,1.1,1.2c0.1,0.5,0.1,0.9,0.1,0.9c0,0.1,0.1,0.3,0.2,0.3c0,0,0,0,0,0
					c0.1,0,0.2-0.1,0.3-0.2c0,0,0.1-0.5-0.1-1.1c-0.2-0.8-0.7-1.3-1.5-1.5c-0.1,0-0.3,0-0.3,0.2C124.1,304,124.2,304.2,124.3,304.2z
					"/>
				<path class="st32" d="M126.4,306.3c0,0,0.1,0.1,0.2,0.1c0,0,0,0,0,0c1.4-0.2,2.4-0.5,3-1.1c0.6-0.6,0.7-1.2,0.8-1.7
					c0-0.1,0-0.2,0-0.2c0-0.1-0.1-0.1-0.2-0.1c0,0,0,0,0,0c-0.9,0-1.6,0.2-2.2,0.5c-0.5,0.2-0.9,0.6-1.2,1c-0.5,0.7-0.5,1.4-0.5,1.4
					C126.3,306.2,126.3,306.2,126.4,306.3z"/>
			</g>
			<path class="st22" d="M213.4,293c-0.9-1-1.9-1.8-3-2.5c-3.2-1.8-6.9-2.2-10.4-1.4c-3.5,0.8-6.8,2.6-9.7,4.8
				c-4.5,3.3-8.7,7.8-14,8.5c-0.9,0.1-1.9,0.1-2.8,0.4c-0.7,0.2-1.5,0.6-1.9,1.3c-0.6,0.9-0.1,1.9,0.1,2.8c0.5,2.3,1,4.6,1.6,6.9
				c1.1,4.6,2.4,9.1,3.7,13.6c0.3,1.1,0.7,2.3,1.6,2.9c0.7,0.5,1.6,0.5,2.4,0.3c3.2-0.4,6.1-2,9.1-3.3c6.7-2.9,14.2-4.5,19.5-9.9
				c2.7-2.8,4.7-6.4,5.9-10.2c0.8-2.4,1.3-5,1-7.5C216.2,297.3,215,294.9,213.4,293z"/>
			<path class="st29" d="M193.7,353.5c0,3-2.4,5.3-5.3,5.3c-3,0-5.3-2.4-5.3-5.3c0-3,2.4-5.3,5.3-5.3
				C191.3,348.2,193.7,350.6,193.7,353.5z"/>
			<path class="st29" d="M207.4,315.3c0,3-2.4,5.3-5.3,5.3c-3,0-5.3-2.4-5.3-5.3c0-3,2.4-5.3,5.3-5.3
				C205.1,310,207.4,312.4,207.4,315.3z"/>
			<path class="st29" d="M132.1,345.3c0,3-2.4,5.3-5.3,5.3c-3,0-5.3-2.4-5.3-5.3c0-3,2.4-5.3,5.3-5.3
				C129.7,340,132.1,342.4,132.1,345.3z"/>
			<polygon class="st30" points="194,327.6 187.7,338.6 200.4,338.6 			"/>
			<polygon class="st30" points="182.3,308.1 175.9,319.1 188.6,319.1 			"/>
			<polygon class="st30" points="143,327.7 136.7,338.7 149.4,338.7 			"/>
			
				<rect x="164" y="338.1" transform="matrix(0.7071 0.7071 -0.7071 0.7071 292.4486 -19.117)" class="st33" width="10.7" height="10.7"/>
			<rect x="195.5" y="291.1" class="st33" width="10.7" height="10.7"/>
			
				<rect x="141.8" y="350.9" transform="matrix(0.9579 -0.2871 0.2871 0.9579 -96.0899 57.2281)" class="st33" width="10.7" height="10.7"/>
			<rect x="207.6" y="325.2" class="st33" width="10.7" height="10.7"/>
			<path class="st24" d="M146.6,347.4c0.7,6.3,7.1,11,16,13.1l-1.7-31C151.8,333.8,145.9,340.7,146.6,347.4z"/>
		</g>
		<g>
			<path class="st20" d="M365.6,345.5c-1.1,19,9.7,38.6,33.4,46.2c21.8,7,45.6,7.1,67.1-2.5c39-17.5,17.7-59.5-9.3-76.1
				c-12.5-7.7-27.8-12.2-43.2-11.6C383.5,302.8,366.8,323.7,365.6,345.5"/>
			<path class="st34" d="M370.9,337.1c-1.1,19,9.7,38.6,33.4,46.2c21.8,7,45.6,7.1,67.1-2.5c39-17.5,17.7-59.5-9.3-76.1
				c-12.5-7.7-27.8-12.2-43.2-11.6C388.8,294.4,372.1,315.3,370.9,337.1"/>
			<path class="st19" d="M445.4,361.7c6.7-0.4,13.4-1.9,19.4-4.7c30.4-14,10.1-42.4-13.6-52.8c-10.3-4.5-21.6-6.5-31.7-5.4
				c-0.7,0.1-1.4,0.2-2,0.2c-8.5,1.2-14.7,4.4-19.1,9.8c-4.5,5.5-6.7,13-6,20.7C394.2,349.9,420.6,363.2,445.4,361.7z"/>
		</g>
		<g>
			<path class="st35" d="M400.9,325.7c0,24.7,18.9,35,42.2,35c23.3,0,42.2-10.3,42.2-35c0-24.7-18.9-54.4-42.2-54.4
				C419.8,271.3,400.9,300.9,400.9,325.7z"/>
			<path class="st23" d="M464.6,320.3c1.6-6.4-6.5-13.8-17.9-16.6c-11.4-2.8-22,0.2-23.5,6.6c-1.6,6.4,6.5,13.8,17.9,16.6
				C452.5,329.7,463,326.8,464.6,320.3z"/>
			<g>
				<path class="st36" d="M472.1,307.1c-0.3,2.7-2.4,4.7-4.8,4.5c-0.8-0.1-1.5-0.4-2.1-0.9c-0.7,0.4-1.4,0.5-2.2,0.4
					c-2.4-0.2-4.1-2.6-3.8-5.3c0.3-2.7,2.4-4.7,4.8-4.5c0.8,0.1,1.5,0.4,2.1,0.9c0.7-0.4,1.4-0.5,2.2-0.4
					C470.6,302,472.3,304.4,472.1,307.1z"/>
				<path class="st37" d="M464.9,300.5c0,0,0.4-4-5.6-4.8C459.6,297.4,460,299.5,464.9,300.5z"/>
				<path class="st38" d="M460.7,302.2c-1.7,1.6-2.3,4.3-1.3,6.4c1,2.2,3.5,3.5,5.8,2.4c1.3,0.9,2.9,1.1,4.3,0.4
					c2.3-1.1,3.4-4.1,2.6-6.5c-0.8-2.6-3.5-4.3-6.1-3.1c-0.3-0.2-0.8-0.6-1.2-0.6c-0.1,0-0.1,0-0.2-0.1c-0.2-0.1-0.5-0.1-0.7-0.1
					C462.8,300.9,461.6,301.4,460.7,302.2z M459.6,305.5c0.4-2.2,2.4-4.3,4.8-3.7c0.3,0.1,0.7,0.2,1,0.4c0.7,0.4,1.3,1.1,1.7,1.9
					c0.2,0.4,0.3,0.9,0.4,1.3c0,0.2,0.1,0.5,0.1,0.7c0,0.2-0.1,0.5,0,0.7c0.1,0.2,0.3,0.3,0.5,0.2c0.2-0.1,0.2-0.3,0.2-0.5
					c0-0.5,0-1.1-0.1-1.6c-0.2-0.9-0.7-1.8-1.3-2.5c1.4-0.5,2.9-0.1,3.9,1c1.7,1.9,1.6,5-0.2,6.8c-0.8,0.8-2,1.3-3.2,1.1
					c-0.4-0.1-0.8-0.2-1.1-0.4c-0.3-0.1-0.6-0.5-0.8-0.5c-0.2,0-0.4,0.2-0.6,0.2c-0.2,0.1-0.3,0.1-0.5,0.2c-0.4,0.1-0.7,0.1-1.1,0.1
					C460.5,310.6,459.2,307.8,459.6,305.5z"/>
				<path class="st38" d="M465.2,311.2c-1,0.5-2.2,0.5-3.2,0.1c-1.2-0.4-2.2-1.4-2.7-2.6c-1-2.2-0.4-5,1.3-6.6
					c1.2-1,2.7-1.5,4.1-1.1c0.1,0,0.1,0,0.2,0.1c0.4,0,0.9,0.4,1.2,0.6c1.1-0.5,2.3-0.5,3.5,0c1.3,0.6,2.3,1.8,2.7,3.2
					c0.8,2.6-0.4,5.5-2.7,6.7c-0.7,0.4-1.5,0.5-2.3,0.4C466.5,311.9,465.8,311.6,465.2,311.2z M466.2,302c-0.3-0.2-0.9-0.6-1.2-0.6
					c-0.1,0-0.1,0-0.2-0.1c-1.4-0.4-2.8,0-3.9,1c-1.7,1.5-2.2,4.2-1.3,6.3c0.5,1.2,1.4,2.1,2.6,2.5c1,0.4,2.1,0.3,3.1-0.1h0.1h0.1
					c1.2,0.9,2.8,1.1,4.2,0.4c2.2-1.1,3.3-3.9,2.6-6.4c-0.4-1.3-1.4-2.5-2.6-3c-0.4-0.2-0.8-0.3-1.2-0.3
					C467.5,301.5,466.8,301.7,466.2,302z M460.4,309.4c-0.8-1.1-1.2-2.6-0.9-4c0.2-1.3,1-2.6,2.1-3.3c0.9-0.6,1.9-0.7,2.8-0.5
					c0.4,0.1,0.7,0.2,1,0.4c0.7,0.4,1.3,1.1,1.7,1.9c0.2,0.4,0.3,0.9,0.4,1.4c0,0.2,0.1,0.5,0.1,0.7c0,0.1,0,0.2,0,0.3
					c0,0.1,0,0.3,0,0.4c0,0.1,0.1,0.1,0.1,0.1s0.1,0,0.2,0c0.1-0.1,0.1-0.2,0.1-0.4v-0.1c0-0.5,0-1-0.1-1.5c-0.2-1-0.7-1.8-1.3-2.5
					l-0.1-0.1l0.2-0.1c1.4-0.5,3-0.2,4.1,1c1.7,1.9,1.6,5.1-0.2,7c-0.9,0.9-2.1,1.3-3.3,1.2c-0.4-0.1-0.8-0.2-1.2-0.4
					c-0.1-0.1-0.2-0.1-0.3-0.2c-0.2-0.1-0.3-0.3-0.5-0.3c-0.1,0-0.2,0.1-0.3,0.1c-0.1,0-0.1,0.1-0.2,0.1c-0.2,0.1-0.3,0.1-0.5,0.2
					c-0.4,0.1-0.8,0.1-1.2,0.1C462,310.8,461.1,310.3,460.4,309.4z M465.9,310.6c0.1,0.1,0.2,0.1,0.3,0.2c0.3,0.2,0.7,0.3,1.1,0.4
					c1.1,0.2,2.2-0.3,3.1-1.1c1.8-1.8,1.9-4.9,0.2-6.7c-1-1-2.4-1.4-3.7-1c0.6,0.7,1,1.5,1.3,2.4c0.1,0.5,0.2,1.1,0.1,1.6v0.1
					c0,0.2,0,0.4-0.2,0.6c-0.1,0.1-0.2,0.1-0.4,0c-0.1-0.1-0.2-0.2-0.3-0.3c0-0.1,0-0.3,0-0.5c0-0.1,0-0.2,0-0.2
					c0-0.2,0-0.5-0.1-0.7c-0.1-0.5-0.2-0.9-0.4-1.3c-0.4-0.8-0.9-1.4-1.6-1.8c-0.3-0.2-0.6-0.3-0.9-0.4c-0.9-0.2-1.8-0.1-2.6,0.5
					c-1,0.7-1.8,1.9-2,3.1c-0.2,1.3,0.1,2.8,0.9,3.8c0.6,0.8,1.5,1.3,2.5,1.4c0.4,0,0.7,0,1.1-0.1c0.2,0,0.3-0.1,0.5-0.1
					c0.1,0,0.1-0.1,0.2-0.1c0.1-0.1,0.3-0.2,0.4-0.1C465.5,310.3,465.7,310.4,465.9,310.6z"/>
				<path class="st38" d="M466.1,301.2C466.1,301.2,466.2,301.2,466.1,301.2c0.2,0,0.4-0.2,0.3-0.3c0,0,0-0.7,0.2-1.5
					c0.3-1,1-1.6,2-1.8c0.2,0,0.3-0.2,0.2-0.4c0-0.2-0.2-0.3-0.4-0.2c-1.2,0.2-2.1,1-2.5,2.2c-0.3,0.9-0.3,1.7-0.3,1.7
					C465.9,301.1,466,301.2,466.1,301.2z"/>
				<path class="st38" d="M465.7,301c0,0,0-0.9,0.3-1.8c0.4-1.3,1.3-2,2.6-2.3c0.2,0,0.5,0.1,0.5,0.3c0,0.2-0.1,0.5-0.3,0.5
					c-0.9,0.2-1.6,0.7-1.9,1.7c-0.2,0.7-0.2,1.4-0.2,1.5c0,0.2-0.2,0.4-0.4,0.5c0,0,0,0-0.1,0C465.9,301.3,465.7,301.2,465.7,301z
					 M468.6,297.2c-1.2,0.2-2,1-2.4,2.1c-0.3,0.9-0.3,1.7-0.2,1.7c0,0.1,0.1,0.2,0.2,0.2c0.1,0,0.2-0.1,0.2-0.2c0-0.1,0-0.8,0.2-1.6
					c0.4-1,1.1-1.7,2.1-1.9c0.1,0,0.2-0.1,0.2-0.2C468.8,297.3,468.7,297.2,468.6,297.2z"/>
				<path class="st38" d="M464.9,300.7c-2.2-0.4-3.8-1.2-4.7-2.2c-0.8-1-1-2.1-1.1-2.8c0-0.1,0-0.2,0.1-0.2c0.1-0.1,0.1-0.1,0.2-0.1
					c1.4,0.2,2.6,0.5,3.5,1.1c0.7,0.5,1.3,1,1.7,1.7c0.7,1.2,0.6,2.2,0.6,2.3c0,0.1,0,0.1-0.1,0.2
					C465,300.7,464.9,300.7,464.9,300.7z M460.6,298.2c0.8,0.9,2.1,1.5,4,2c0-0.4-0.1-1-0.5-1.6c-0.3-0.6-0.9-1.1-1.5-1.5
					c-0.8-0.5-1.8-0.8-2.9-1C459.8,296.8,460,297.6,460.6,298.2z"/>
				<path class="st19" d="M464.8,300.8c-2.3-0.4-3.8-1.2-4.7-2.3c-0.9-1-1-2.1-1.1-2.9c0-0.1,0-0.2,0.1-0.3c0.1-0.1,0.2-0.1,0.3-0.1
					c1.4,0.2,2.6,0.6,3.5,1.1c0.8,0.5,1.4,1,1.8,1.7c0.7,1.2,0.6,2.3,0.6,2.3c0,0.1-0.1,0.2-0.2,0.3
					C465.1,300.8,465,300.9,464.8,300.8C464.9,300.8,464.8,300.8,464.8,300.8z M459.2,295.7C459.2,295.7,459.1,295.8,459.2,295.7
					c0.1,0.8,0.3,1.9,1.1,2.8c0.9,1,2.4,1.7,4.6,2.2h0.1l0.1-0.1c0,0,0.1-1.1-0.6-2.2c-0.4-0.7-1-1.2-1.7-1.7
					C461.9,296.2,460.7,295.8,459.2,295.7C459.3,295.6,459.3,295.6,459.2,295.7z M464.6,300.2c-2-0.4-3.3-1.1-4.1-2
					c-0.6-0.7-0.8-1.5-0.9-2.2v-0.2h0.2c1.2,0.2,2.2,0.5,3,1c0.7,0.4,1.2,0.9,1.6,1.6c0.4,0.7,0.5,1.3,0.5,1.7v0.2L464.6,300.2z
					 M460.7,298.2c0.7,0.9,2,1.5,3.8,1.9c0-0.4-0.2-0.9-0.5-1.4c-0.3-0.6-0.8-1.1-1.5-1.5c-0.7-0.4-1.6-0.7-2.7-0.9
					C459.9,296.9,460.2,297.5,460.7,298.2z"/>
				<path class="st39" d="M464.8,300.8c-2.3-0.4-3.8-1.2-4.7-2.3c-0.9-1-1-2.1-1.1-2.9c0-0.1,0-0.2,0.1-0.3c0.1-0.1,0.2-0.1,0.3-0.1
					c1.4,0.2,2.6,0.6,3.5,1.1c0.8,0.5,1.4,1,1.8,1.7c0.7,1.2,0.6,2.3,0.6,2.3c0,0.1-0.1,0.2-0.2,0.3
					C465.1,300.8,465,300.9,464.8,300.8z M464.8,300.8 M459.2,295.7C459.2,295.7,459.1,295.8,459.2,295.7c0.1,0.8,0.3,1.9,1.1,2.8
					c0.9,1,2.4,1.7,4.6,2.2h0.1l0.1-0.1c0,0,0.1-1.1-0.6-2.2c-0.4-0.7-1-1.2-1.7-1.7C461.9,296.2,460.7,295.8,459.2,295.7
					C459.3,295.6,459.3,295.6,459.2,295.7z M464.6,300.2c-2-0.4-3.3-1.1-4.1-2c-0.6-0.7-0.8-1.5-0.9-2.2v-0.2h0.2
					c1.2,0.2,2.2,0.5,3,1c0.7,0.4,1.2,0.9,1.6,1.6c0.4,0.7,0.5,1.3,0.5,1.7v0.2L464.6,300.2z M460.7,298.2c0.7,0.9,2,1.5,3.8,1.9
					c0-0.4-0.2-0.9-0.5-1.4c-0.3-0.6-0.8-1.1-1.5-1.5c-0.7-0.4-1.6-0.7-2.7-0.9C459.9,296.9,460.2,297.5,460.7,298.2z"/>
				<path class="st38" d="M467.5,308.1c0.2,0,0.3-0.1,0.3-0.3c0-0.2-0.1-0.3-0.3-0.3c-0.2,0-0.3,0.1-0.3,0.3
					C467.2,307.9,467.4,308.1,467.5,308.1z"/>
				<path class="st38" d="M467.1,307.7c0-0.2,0.2-0.4,0.5-0.4c0.2,0,0.4,0.2,0.4,0.5c0,0.2-0.2,0.4-0.5,0.4
					C467.3,308.2,467.1,308,467.1,307.7z M467.4,307.8c0,0.1,0.1,0.2,0.2,0.2c0.1,0,0.2-0.1,0.2-0.2c0-0.1-0.1-0.2-0.2-0.2
					C467.5,307.6,467.4,307.7,467.4,307.8z"/>
			</g>
			<path class="st23" d="M461.9,328.6l-0.1,2.5C461.8,329.5,461.9,328.6,461.9,328.6z"/>
			<path class="st40" d="M489.1,326.4c-13.4-0.8-24.7,7.1-25.8,16.6c-1.1,9.6,8.6,17.3,22,18.1c13.4,0.8,25.6-5.8,26.7-15.3
				C513,336.2,502.5,327.1,489.1,326.4z"/>
			<path class="st41" d="M511.4,346c-0.7,6.1-5.8,10.8-12.8,13.4l2-29.7C507.5,333.3,512.1,339.5,511.4,346z"/>
			<path class="st40" d="M446.3,326.8c-17.3-1.9-31.5,5.5-32.7,15.6c-1.1,10.1,11.4,19.1,28.7,21c17.3,1.9,32.7-4.1,33.8-14.1
				C477.3,339.1,463.6,328.7,446.3,326.8z"/>
			<path class="st41" d="M475.4,349.4c-0.7,6.4-7.2,11.1-16.2,13.2l1.8-31.4C470.2,335.7,476.1,342.6,475.4,349.4z"/>
			<path class="st23" d="M410.8,340.4c-3.4,4.2-5.7,9.2-5.8,14.3c0,1.4-0.1,1.9,1.5,1.8c1.8,0,3.6-0.5,5.4-0.7
				c2.2-0.2,4.4-0.3,6.6-0.4c1.6,0,3.6,0.4,5.2,0.1c1.8-0.3,3.6-1.3,5.5-1.8c2-0.5,4.1-0.8,6.3-1c3.1-0.3,6.5,0,9.6-0.4
				c1.3-0.2,2.2-1.1,3.3-1.8c1.3-0.8,2.7-1.5,4.2-2.1c2.9-1.1,6-1.8,9.1-2.1c1.1-0.1,2.6,0.2,3.7-0.1c1.1-0.2,2-1.1,2.8-1.7
				c2-1.5,4.1-3.1,6.5-4.2c2.2-1.1,4.5-1.9,7-2.3c2.6-0.5,4.6-0.4,6.5-2.3c1-0.9,1.2-2.2,2.3-3.2c1.2-1.1,2.8-1.8,4.5-2.2
				c0.7-0.2,1.5-0.4,1.8-0.9c-8.2-3.6-16.8-4.8-25.9-5.9c-9.2-1-18.5-1.3-27.7,0.1c-9.3,1.4-18.3,4.8-25.3,10.2
				C415.6,335.4,413.1,337.7,410.8,340.4z"/>
			<path class="st28" d="M416.3,334.6l5.8,20.5"/>
			<path class="st28" d="M423.8,330l20.8,21.9"/>
			<path class="st28" d="M434,326.3l31.6,19.9"/>
			<path class="st28" d="M447.6,323.2l36.6,13.9"/>
			<path class="st35" d="M408.7,294.2c0.9-1,1.9-1.9,3-2.5c3.2-1.9,7.1-2.2,10.5-1.4c3.6,0.8,6.9,2.6,9.8,4.9
				c4.5,3.4,8.8,7.9,14.1,8.6c1,0.1,1.9,0.1,2.9,0.4c0.7,0.2,1.5,0.6,2,1.4c0.6,0.9,0.1,1.9-0.1,2.9c-0.5,2.4-1.1,4.7-1.6,7.1
				c-1.1,4.6-2.4,9.2-3.8,13.7c-0.3,1.1-0.8,2.3-1.7,2.9c-0.7,0.5-1.6,0.5-2.5,0.3c-3.2-0.4-6.2-2-9.2-3.3
				c-6.8-2.9-14.3-4.6-19.7-10c-2.7-2.8-4.7-6.5-6-10.3c-0.8-2.5-1.4-5.1-1.1-7.7C405.8,298.5,407,296.1,408.7,294.2z"/>
			<path class="st36" d="M423.4,304.9c-0.3,2.7-2.4,4.7-4.8,4.5c-0.8-0.1-1.5-0.4-2.1-0.9c-0.7,0.4-1.4,0.5-2.2,0.4
				c-2.4-0.2-4.1-2.6-3.8-5.3c0.3-2.7,2.4-4.7,4.8-4.5c0.8,0.1,1.5,0.4,2.1,0.9c0.7-0.4,1.4-0.5,2.2-0.4
				C421.9,299.9,423.6,302.2,423.4,304.9z"/>
			<path class="st37" d="M416.2,298.4c0,0,0.4-4-5.6-4.8C411,295.3,411.4,297.4,416.2,298.4z"/>
			<path class="st38" d="M412.1,300.1c-1.7,1.6-2.3,4.3-1.3,6.4c1,2.2,3.5,3.5,5.8,2.4c1.3,0.9,2.9,1.1,4.3,0.4
				c2.3-1.1,3.4-4.1,2.6-6.5c-0.8-2.6-3.5-4.3-6.1-3.1c-0.3-0.2-0.8-0.6-1.2-0.6c-0.1,0-0.1,0-0.2-0.1c-0.2-0.1-0.5-0.1-0.7-0.1
				C414.2,298.8,413,299.2,412.1,300.1z M411,303.3c0.4-2.2,2.4-4.3,4.8-3.7c0.3,0.1,0.7,0.2,1,0.4c0.7,0.4,1.3,1.1,1.7,1.9
				c0.2,0.4,0.3,0.9,0.4,1.3c0,0.2,0.1,0.5,0.1,0.7c0,0.2-0.1,0.5,0,0.7c0.1,0.2,0.3,0.3,0.5,0.2c0.2-0.1,0.2-0.3,0.2-0.5
				c0-0.5,0-1.1-0.1-1.6c-0.2-0.9-0.7-1.8-1.3-2.5c1.4-0.5,2.9-0.1,3.9,1c1.7,1.9,1.6,5-0.2,6.8c-0.8,0.8-2,1.3-3.2,1.1
				c-0.4-0.1-0.8-0.2-1.1-0.4c-0.3-0.1-0.6-0.5-0.8-0.5c-0.2,0-0.4,0.2-0.6,0.2c-0.2,0.1-0.3,0.1-0.5,0.2c-0.4,0.1-0.7,0.1-1.1,0.1
				C411.9,308.4,410.6,305.6,411,303.3z"/>
			<path class="st38" d="M416.5,309c-1,0.5-2.2,0.5-3.2,0.1c-1.2-0.4-2.2-1.4-2.7-2.6c-1-2.2-0.4-5,1.3-6.6c1.2-1,2.7-1.5,4.1-1.1
				c0.1,0,0.1,0,0.2,0.1c0.4,0,0.9,0.4,1.2,0.6c1.1-0.5,2.3-0.5,3.5,0c1.3,0.6,2.3,1.8,2.7,3.2c0.8,2.6-0.4,5.5-2.7,6.7
				c-0.7,0.4-1.5,0.5-2.3,0.4C417.8,309.7,417.1,309.5,416.5,309z M417.5,299.8L417.5,299.8c-0.3-0.2-0.9-0.6-1.2-0.6
				c-0.1,0-0.1,0-0.2-0.1c-1.4-0.4-2.8,0-3.9,1c-1.7,1.5-2.2,4.2-1.3,6.3c0.5,1.2,1.4,2.1,2.6,2.5c1,0.4,2.1,0.3,3.1-0.1h0.1h0.1
				c1.2,0.9,2.8,1.1,4.2,0.4c2.2-1.1,3.3-3.9,2.6-6.4c-0.4-1.3-1.4-2.5-2.6-3c-0.4-0.2-0.8-0.3-1.2-0.3
				C418.8,299.4,418.1,299.5,417.5,299.8z M411.8,307.3c-0.8-1.1-1.2-2.6-0.9-4c0.2-1.3,1-2.6,2.1-3.3c0.9-0.6,1.9-0.7,2.8-0.5
				c0.4,0.1,0.7,0.2,1,0.4c0.7,0.4,1.3,1.1,1.7,1.9c0.2,0.4,0.3,0.9,0.4,1.4c0,0.2,0.1,0.5,0.1,0.7c0,0.1,0,0.2,0,0.3
				c0,0.1,0,0.3,0,0.4c0,0.1,0.1,0.1,0.1,0.1s0.1,0,0.2,0c0.1-0.1,0.1-0.2,0.1-0.4v-0.1c0-0.5,0-1-0.1-1.5c-0.2-1-0.7-1.8-1.3-2.5
				l-0.2-0.1l0.2-0.1c1.4-0.5,3-0.2,4.1,1c1.7,1.9,1.6,5.1-0.2,7c-0.9,0.9-2.1,1.3-3.3,1.2c-0.4-0.1-0.8-0.2-1.2-0.4
				c-0.1-0.1-0.2-0.1-0.3-0.2c-0.2-0.1-0.3-0.3-0.5-0.3c-0.1,0-0.2,0.1-0.3,0.1c-0.1,0-0.1,0.1-0.2,0.1c-0.2,0.1-0.3,0.1-0.5,0.2
				c-0.4,0.1-0.8,0.1-1.2,0.1C413.4,308.7,412.5,308.1,411.8,307.3z M417.2,308.4c0.1,0.1,0.2,0.1,0.3,0.2c0.3,0.2,0.7,0.3,1.1,0.4
				c1.1,0.2,2.2-0.3,3.1-1.1c1.8-1.8,1.9-4.9,0.2-6.7c-1-1-2.4-1.4-3.7-1c0.6,0.7,1,1.5,1.3,2.4c0.1,0.5,0.2,1.1,0.1,1.6v0.1
				c0,0.2,0,0.4-0.2,0.6c-0.1,0.1-0.2,0.1-0.4,0c-0.1-0.1-0.2-0.2-0.3-0.3c0-0.1,0-0.3,0-0.5c0-0.1,0-0.2,0-0.2c0-0.2,0-0.5-0.1-0.7
				c-0.1-0.5-0.2-0.9-0.4-1.3c-0.4-0.8-0.9-1.4-1.6-1.8c-0.3-0.2-0.6-0.3-0.9-0.4c-0.9-0.2-1.8-0.1-2.6,0.5c-1,0.7-1.8,1.9-2,3.1
				c-0.2,1.3,0.1,2.8,0.9,3.8c0.6,0.8,1.5,1.3,2.5,1.4c0.4,0,0.7,0,1.1-0.1c0.2,0,0.3-0.1,0.5-0.1c0.1,0,0.1-0.1,0.2-0.1
				c0.1-0.1,0.3-0.2,0.4-0.1C416.8,308.1,417,308.3,417.2,308.4z"/>
			<path class="st38" d="M417.4,299.1C417.4,299.1,417.5,299.1,417.4,299.1c0.2,0,0.4-0.2,0.3-0.3c0,0,0-0.7,0.2-1.5
				c0.3-1,1-1.6,2-1.8c0.2,0,0.3-0.2,0.2-0.4c0-0.2-0.2-0.3-0.4-0.2c-1.2,0.2-2.1,1-2.5,2.2c-0.3,0.9-0.3,1.7-0.3,1.7
				C417.2,298.9,417.3,299.1,417.4,299.1z"/>
			<path class="st19" d="M417,298.8c0,0,0-0.9,0.3-1.8c0.4-1.3,1.3-2,2.6-2.3c0.2,0,0.5,0.1,0.5,0.3c0,0.2-0.1,0.5-0.3,0.5
				c-0.9,0.2-1.6,0.7-1.9,1.7c-0.2,0.7-0.2,1.4-0.2,1.5c0,0.2-0.2,0.4-0.4,0.5c0,0,0,0-0.1,0C417.2,299.2,417,299,417,298.8z
				 M419.9,295.1c-1.2,0.2-2,1-2.4,2.1c-0.3,0.9-0.3,1.7-0.2,1.7c0,0.1,0.1,0.2,0.2,0.2c0.1,0,0.2-0.1,0.2-0.2c0-0.1,0-0.8,0.2-1.6
				c0.4-1,1.1-1.7,2.1-1.9c0.1,0,0.2-0.1,0.2-0.2C420.1,295.1,420,295.1,419.9,295.1C419.9,295,419.9,295,419.9,295.1z"/>
			<path class="st39" d="M419.9,295.1c-1.2,0.2-2,1-2.4,2.1c-0.3,0.9-0.3,1.7-0.2,1.7c0,0.1,0.1,0.2,0.2,0.2c0.1,0,0.2-0.1,0.2-0.2
				c0-0.1,0-0.8,0.2-1.6c0.4-1,1.1-1.7,2.1-1.9c0.1,0,0.2-0.1,0.2-0.2C420.1,295.1,420,295.1,419.9,295.1z M419.9,295.1 M417,298.8
				c0,0,0-0.9,0.3-1.8c0.4-1.3,1.3-2,2.6-2.3c0.2,0,0.5,0.1,0.5,0.3c0,0.2-0.1,0.5-0.3,0.5c-0.9,0.2-1.6,0.7-1.9,1.7
				c-0.2,0.7-0.2,1.4-0.2,1.5c0,0.2-0.2,0.4-0.4,0.5c0,0,0,0-0.1,0C417.2,299.2,417,299,417,298.8z"/>
			<path class="st38" d="M416.2,298.6c-2.2-0.4-3.8-1.2-4.7-2.2c-0.8-1-1-2.1-1.1-2.8c0-0.1,0-0.2,0.1-0.2c0.1-0.1,0.1-0.1,0.2-0.1
				c1.4,0.2,2.6,0.5,3.5,1.1c0.7,0.5,1.3,1,1.7,1.7c0.7,1.2,0.6,2.2,0.6,2.3c0,0.1,0,0.1-0.1,0.2
				C416.3,298.6,416.2,298.6,416.2,298.6z M412,296.1c0.8,0.9,2.1,1.5,4,2c0-0.4-0.1-1-0.5-1.6c-0.3-0.6-0.9-1.1-1.5-1.5
				c-0.8-0.5-1.8-0.8-2.9-1C411.2,294.7,411.4,295.4,412,296.1z"/>
			<path class="st19" d="M416.1,298.7c-2.3-0.4-3.8-1.2-4.7-2.3c-0.9-1-1-2.1-1.1-2.9c0-0.1,0-0.2,0.1-0.3c0.1-0.1,0.2-0.1,0.3-0.1
				c1.4,0.2,2.6,0.6,3.5,1.1c0.8,0.5,1.4,1,1.8,1.7c0.7,1.2,0.6,2.3,0.6,2.3c0,0.1-0.1,0.2-0.2,0.3
				C416.4,298.7,416.3,298.7,416.1,298.7C416.2,298.7,416.1,298.7,416.1,298.7z M410.6,293.5c0,0-0.1,0.1,0,0.1
				c0.1,0.7,0.3,1.8,1.1,2.7c0.9,1,2.4,1.7,4.6,2.2h0.1l0.1-0.1c0,0,0.1-1.1-0.6-2.2c-0.4-0.7-1-1.2-1.7-1.7
				c-0.9-0.5-2.1-0.9-3.5-1.1C410.7,293.4,410.7,293.5,410.6,293.5z M415.9,298.2c-2-0.4-3.3-1.1-4.1-2c-0.6-0.7-0.8-1.5-0.9-2.2
				v-0.2h0.2c1.2,0.2,2.2,0.5,3,1c0.7,0.4,1.2,0.9,1.6,1.6c0.4,0.7,0.5,1.3,0.5,1.7v0.2L415.9,298.2z M412.1,296
				c0.7,0.9,2,1.5,3.8,1.9c0-0.4-0.2-0.9-0.5-1.4c-0.3-0.6-0.8-1.1-1.5-1.5c-0.7-0.4-1.6-0.7-2.7-0.9
				C411.3,294.7,411.6,295.4,412.1,296z"/>
			<path class="st39" d="M416.1,298.7c-2.3-0.4-3.8-1.2-4.7-2.3c-0.9-1-1-2.1-1.1-2.9c0-0.1,0-0.2,0.1-0.3c0.1-0.1,0.2-0.1,0.3-0.1
				c1.4,0.2,2.6,0.6,3.5,1.1c0.8,0.5,1.4,1,1.8,1.7c0.7,1.2,0.6,2.3,0.6,2.3c0,0.1-0.1,0.2-0.2,0.3
				C416.4,298.7,416.3,298.7,416.1,298.7z M416.1,298.7 M410.6,293.5c0,0-0.1,0.1,0,0.1c0.1,0.7,0.3,1.8,1.1,2.7
				c0.9,1,2.4,1.7,4.6,2.2h0.1l0.1-0.1c0,0,0.1-1.1-0.6-2.2c-0.4-0.7-1-1.2-1.7-1.7c-0.9-0.5-2.1-0.9-3.5-1.1
				C410.7,293.4,410.7,293.5,410.6,293.5z M415.9,298.2c-2-0.4-3.3-1.1-4.1-2c-0.6-0.7-0.8-1.5-0.9-2.2v-0.2h0.2
				c1.2,0.2,2.2,0.5,3,1c0.7,0.4,1.2,0.9,1.6,1.6c0.4,0.7,0.5,1.3,0.5,1.7v0.2L415.9,298.2z M412.1,296c0.7,0.9,2,1.5,3.8,1.9
				c0-0.4-0.2-0.9-0.5-1.4c-0.3-0.6-0.8-1.1-1.5-1.5c-0.7-0.4-1.6-0.7-2.7-0.9C411.3,294.7,411.6,295.4,412.1,296z"/>
			<path class="st38" d="M418.8,305.9c0.2,0,0.3-0.1,0.3-0.3c0-0.2-0.1-0.3-0.3-0.3c-0.2,0-0.3,0.1-0.3,0.3
				C418.5,305.8,418.7,305.9,418.8,305.9z"/>
			<path class="st38" d="M418.4,305.6c0-0.2,0.2-0.4,0.5-0.4c0.2,0,0.4,0.2,0.4,0.5c0,0.2-0.2,0.4-0.5,0.4
				C418.6,306,418.4,305.8,418.4,305.6z M418.7,305.6c0,0.1,0.1,0.2,0.2,0.2c0.1,0,0.2-0.1,0.2-0.2c0-0.1-0.1-0.2-0.2-0.2
				C418.8,305.4,418.7,305.5,418.7,305.6z"/>
			<path class="st36" d="M443.6,318.2c-0.3,2.7-2.4,4.7-4.8,4.5c-0.8-0.1-1.5-0.4-2.1-0.9c-0.7,0.4-1.4,0.5-2.2,0.4
				c-2.4-0.2-4.1-2.6-3.8-5.3c0.3-2.7,2.4-4.7,4.8-4.5c0.8,0.1,1.5,0.4,2.1,0.9c0.7-0.4,1.4-0.5,2.2-0.4
				C442.2,313.2,443.9,315.5,443.6,318.2z"/>
			<path class="st37" d="M436.5,311.6c0,0,0.4-4-5.6-4.8C431.2,308.5,431.7,310.6,436.5,311.6z"/>
			<path class="st38" d="M432.3,313.4c-1.7,1.6-2.3,4.3-1.3,6.4c1,2.2,3.5,3.5,5.8,2.4c1.3,0.9,2.9,1.1,4.3,0.4
				c2.3-1.1,3.4-4.1,2.6-6.5c-0.8-2.6-3.5-4.3-6.1-3.1c-0.3-0.2-0.8-0.6-1.2-0.6c-0.1,0-0.1,0-0.2-0.1c-0.2-0.1-0.5-0.1-0.7-0.1
				C434.4,312.1,433.2,312.5,432.3,313.4z M431.2,316.6c0.4-2.2,2.4-4.3,4.8-3.7c0.3,0.1,0.7,0.2,1,0.4c0.7,0.4,1.3,1.1,1.7,1.9
				c0.2,0.4,0.3,0.9,0.4,1.3c0,0.2,0.1,0.5,0.1,0.7c0,0.2-0.1,0.5,0,0.7c0.1,0.2,0.3,0.3,0.5,0.2c0.2-0.1,0.2-0.3,0.2-0.5
				c0-0.5,0-1.1-0.1-1.6c-0.2-0.9-0.7-1.8-1.3-2.5c1.4-0.5,2.9-0.1,3.9,1c1.7,1.9,1.6,5-0.2,6.8c-0.8,0.8-2,1.3-3.2,1.1
				c-0.4-0.1-0.8-0.2-1.1-0.4c-0.3-0.1-0.6-0.5-0.8-0.5c-0.2,0-0.4,0.2-0.6,0.2c-0.2,0.1-0.3,0.1-0.5,0.2c-0.4,0.1-0.7,0.1-1.1,0.1
				C432.1,321.6,430.8,318.8,431.2,316.6z"/>
			<path class="st38" d="M436.7,322.2c-1,0.5-2.2,0.5-3.2,0.1c-1.2-0.4-2.2-1.4-2.7-2.6c-1-2.2-0.4-5,1.3-6.6c1.2-1,2.7-1.5,4.1-1.1
				c0.1,0,0.1,0,0.2,0.1c0.4,0,0.9,0.4,1.2,0.6c1.1-0.5,2.3-0.5,3.5,0c1.3,0.6,2.3,1.8,2.7,3.2c0.8,2.6-0.4,5.5-2.7,6.7
				c-0.7,0.4-1.5,0.5-2.3,0.4C438.1,322.9,437.4,322.7,436.7,322.2z M437.7,313.1h-0.1c-0.2-0.2-0.8-0.6-1.1-0.6
				c-0.1,0-0.1,0-0.2-0.1c-1.4-0.4-2.8,0-3.9,1c-1.7,1.5-2.2,4.2-1.3,6.3c0.5,1.2,1.4,2.1,2.6,2.5c1,0.4,2.1,0.3,3.1-0.1h0.1h0.1
				c1.2,0.9,2.8,1.1,4.2,0.4c2.2-1.1,3.3-3.9,2.6-6.4c-0.4-1.3-1.4-2.5-2.6-3c-0.4-0.2-0.8-0.3-1.2-0.3
				C439.1,312.7,438.4,312.8,437.7,313.1z M432.1,320.5c-0.8-1.1-1.2-2.6-0.9-4c0.2-1.3,1-2.6,2.1-3.3c0.9-0.6,1.9-0.7,2.8-0.5
				c0.4,0.1,0.7,0.2,1,0.4c0.7,0.4,1.3,1.1,1.7,1.9c0.2,0.4,0.3,0.9,0.4,1.4c0,0.2,0.1,0.5,0.1,0.7c0,0.1,0,0.2,0,0.3
				c0,0.1,0,0.3,0,0.4c0,0.1,0.1,0.1,0.1,0.1s0.1,0,0.2,0c0.1-0.1,0.1-0.2,0.1-0.4v-0.1c0-0.5,0-1-0.1-1.5c-0.2-1-0.7-1.8-1.3-2.5
				l-0.1-0.1l0.2-0.1c1.4-0.5,3-0.2,4.1,1c1.7,1.9,1.6,5.1-0.2,7c-0.9,0.9-2.1,1.3-3.3,1.2c-0.4-0.1-0.8-0.2-1.2-0.4
				c-0.1-0.1-0.2-0.1-0.3-0.2c-0.2-0.1-0.3-0.3-0.5-0.3c-0.1,0-0.2,0.1-0.3,0.1c-0.1,0-0.1,0.1-0.2,0.1c-0.2,0.1-0.3,0.1-0.5,0.2
				c-0.4,0.1-0.8,0.1-1.2,0.1C433.6,321.9,432.7,321.4,432.1,320.5z M437.4,321.6c0.1,0.1,0.2,0.1,0.3,0.2c0.3,0.2,0.7,0.3,1.1,0.4
				c1.1,0.2,2.2-0.3,3.1-1.1c1.8-1.8,1.9-4.9,0.2-6.7c-1-1-2.4-1.4-3.7-1c0.6,0.7,1,1.5,1.3,2.4c0.1,0.5,0.2,1.1,0.1,1.6v0.1
				c0,0.2,0,0.4-0.2,0.6c-0.1,0.1-0.2,0.1-0.4,0c-0.1-0.1-0.2-0.2-0.3-0.3c0-0.1,0-0.3,0-0.5c0-0.1,0-0.2,0-0.2c0-0.2,0-0.5-0.1-0.7
				c-0.1-0.5-0.2-0.9-0.4-1.3c-0.4-0.8-0.9-1.4-1.6-1.8c-0.3-0.2-0.6-0.3-0.9-0.4c-0.9-0.2-1.8-0.1-2.6,0.5c-1,0.7-1.8,1.9-2,3.1
				c-0.2,1.3,0.1,2.8,0.9,3.8c0.6,0.8,1.5,1.3,2.5,1.4c0.4,0,0.7,0,1.1-0.1c0.2,0,0.3-0.1,0.5-0.1c0.1,0,0.1-0.1,0.2-0.1
				c0.1-0.1,0.3-0.2,0.4-0.1C437,321.3,437.2,321.5,437.4,321.6z"/>
			<path class="st38" d="M437.7,312.4c0.2,0,0.4-0.2,0.3-0.3c0,0,0-0.7,0.2-1.5c0.3-1,1-1.6,2-1.8c0.2,0,0.3-0.2,0.2-0.4
				c0-0.2-0.2-0.3-0.4-0.2c-1.2,0.2-2.1,1-2.5,2.2c-0.3,0.9-0.3,1.7-0.3,1.7C437.4,312.2,437.5,312.4,437.7,312.4z"/>
			<path class="st19" d="M437.3,312.1c0,0,0-0.9,0.3-1.8c0.4-1.3,1.3-2,2.6-2.3c0.2,0,0.5,0.1,0.5,0.3c0,0.2-0.1,0.5-0.3,0.5
				c-0.9,0.2-1.6,0.7-1.9,1.7c-0.2,0.7-0.2,1.4-0.2,1.5c0,0.2-0.2,0.4-0.4,0.5c0,0,0,0-0.1,0C437.4,312.5,437.3,312.3,437.3,312.1z
				 M440.1,308.3c-1.2,0.2-2,1-2.4,2.1c-0.3,0.9-0.3,1.7-0.2,1.7c0,0.1,0.1,0.2,0.2,0.2c0.1,0,0.2-0.1,0.2-0.2c0-0.1,0-0.8,0.2-1.6
				c0.4-1,1.1-1.7,2.1-1.9c0.1,0,0.2-0.1,0.2-0.2C440.3,308.3,440.3,308.3,440.1,308.3C440.2,308.3,440.2,308.3,440.1,308.3z"/>
			<path class="st39" d="M440.1,308.3c-1.2,0.2-2,1-2.4,2.1c-0.3,0.9-0.3,1.7-0.2,1.7c0,0.1,0.1,0.2,0.2,0.2c0.1,0,0.2-0.1,0.2-0.2
				c0-0.1,0-0.8,0.2-1.6c0.4-1,1.1-1.7,2.1-1.9c0.1,0,0.2-0.1,0.2-0.2C440.3,308.3,440.3,308.3,440.1,308.3z M440.1,308.3
				 M437.3,312.1c0,0,0-0.9,0.3-1.8c0.4-1.3,1.3-2,2.6-2.3c0.2,0,0.5,0.1,0.5,0.3c0,0.2-0.1,0.5-0.3,0.5c-0.9,0.2-1.6,0.7-1.9,1.7
				c-0.2,0.7-0.2,1.4-0.2,1.5c0,0.2-0.2,0.4-0.4,0.5c0,0,0,0-0.1,0C437.4,312.5,437.3,312.3,437.3,312.1z"/>
			<path class="st38" d="M436.4,311.9c-2.2-0.4-3.8-1.2-4.7-2.2c-0.8-1-1-2.1-1.1-2.8c0-0.1,0-0.2,0.1-0.2c0.1-0.1,0.1-0.1,0.2-0.1
				c1.4,0.2,2.6,0.5,3.5,1.1c0.7,0.5,1.3,1,1.7,1.7c0.7,1.2,0.6,2.2,0.6,2.3c0,0.1,0,0.1-0.1,0.2
				C436.6,311.9,436.5,311.9,436.4,311.9z M432.2,309.3c0.8,0.9,2.1,1.5,4,2c0-0.4-0.1-1-0.5-1.6c-0.3-0.6-0.9-1.1-1.5-1.5
				c-0.8-0.5-1.8-0.8-2.9-1C431.5,307.9,431.7,308.6,432.2,309.3z"/>
			<path class="st38" d="M436.4,312c-2.3-0.4-3.8-1.2-4.7-2.3c-0.9-1-1-2.1-1.1-2.9c0-0.1,0-0.2,0.1-0.3c0.1-0.1,0.2-0.1,0.3-0.1
				c1.4,0.2,2.6,0.6,3.5,1.1c0.8,0.5,1.4,1,1.8,1.7c0.7,1.2,0.6,2.3,0.6,2.3c0,0.1-0.1,0.2-0.2,0.3C436.6,312,436.5,312,436.4,312z
				 M430.9,306.7C430.9,306.7,430.8,306.8,430.9,306.7c0.1,0.8,0.3,1.9,1.1,2.8c0.9,1,2.4,1.7,4.6,2.2h0.1l0.1-0.1
				c0,0,0.1-1.1-0.6-2.2c-0.4-0.7-1-1.2-1.7-1.7C433.6,307.2,432.4,306.8,430.9,306.7L430.9,306.7z M436.2,311.4
				c-2-0.4-3.3-1.1-4.1-2c-0.6-0.7-0.8-1.5-0.9-2.2V307h0.2c1.2,0.2,2.2,0.5,3,1c0.7,0.4,1.2,0.9,1.6,1.6c0.4,0.7,0.5,1.3,0.5,1.7
				v0.2L436.2,311.4z M432.3,309.2c0.7,0.9,2,1.5,3.8,1.9c0-0.4-0.2-0.9-0.5-1.4c-0.3-0.6-0.8-1.1-1.5-1.5c-0.7-0.4-1.6-0.7-2.7-0.9
				C431.6,307.9,431.8,308.6,432.3,309.2z"/>
			<g>
				<path class="st19" d="M511.6,271.2c0,0.3,0,0.6,0,0.8c0,3.8-1.3,8.6-4.1,11.3c-3,3-8.7,3.3-12.5,3.6c-2.2,0.2-4.5,0.3-6.5-0.4
					c-4-1.3-5.6-4.9-6.4-8.2c-2.4-9.4-2.6-18.9-2.7-28.5c0-8.1-0.2-19.7,9.2-25.2c6.3-3.7,9-2.4,11.3,3c3.3,7.5,2,15.8,4.7,23.5
					c1.1,3.3,2.9,6.3,4.3,9.4C510.4,264,511.5,267.6,511.6,271.2z"/>
				<path class="st24" d="M403.3,251.5c-1.5,30.2,19.5,43.4,46.1,44.8c14.3,0.7,32.3-2.1,41.7-14.5c4.8-6.5,2.1-10.6,0.5-17.7
					c-1.7-7.7,0.5-14.7,2-22.2c1.6-8.5-1.6-19.1-4.8-26.9c-5.9-14.1-17.7-27.3-33.9-28.1C428.3,185.5,404.8,221.3,403.3,251.5z"/>
				<path class="st19" d="M470,263.2c-0.2,4.3,3.1,7.9,7.3,8.1c4.3,0.2,7.9-3.1,8.1-7.3c0.2-4.3-3.1-7.9-7.3-8.1
					C473.8,255.8,470.2,258.9,470,263.2z"/>
				<path class="st25" d="M476.3,269.1c1.8,0.1,3.3-1.3,3.4-3c0.1-1.8-1.3-3.3-3-3.4c-1.8-0.1-3.3,1.3-3.4,3
					C473.3,267.5,474.7,269,476.3,269.1z"/>
				<path class="st25" d="M479.9,262c1,0,1.8-0.7,1.8-1.7c0-1-0.7-1.8-1.7-1.8c-1,0-1.8,0.7-1.8,1.7
					C478.2,261.1,478.9,261.9,479.9,262z"/>
				<path class="st26" d="M435.4,283c0.4,1.5,3.5,2,7,1.1c3.4-0.9,5.9-2.9,5.5-4.4c-0.4-1.5-3.5-2-7-1.1
					C437.3,279.5,435,281.5,435.4,283z"/>
				<path class="st26" d="M474.8,276.1c0.4,1.5,3.5,2,7,1.1c3.4-0.9,5.9-2.9,5.5-4.4c-0.4-1.5-3.5-2-7-1.1
					C476.7,272.5,474.4,274.5,474.8,276.1z"/>
				<path class="st19" d="M431.8,270c-0.2,4.3,3.1,7.9,7.3,8.1c4.3,0.2,7.9-3.1,8.1-7.3c0.2-4.3-3.1-7.9-7.3-8.1
					C435.6,262.5,432,265.8,431.8,270z"/>
				<path class="st25" d="M438.3,275.9c1.8,0,3.2-1.4,3.2-3.2c0-1.8-1.4-3.2-3.2-3.2c-1.8,0-3.2,1.4-3.2,3.2
					C435.2,274.4,436.6,275.9,438.3,275.9z"/>
				<path class="st25" d="M441.8,268.8c1,0,1.8-0.8,1.8-1.8c0-1-0.8-1.8-1.8-1.8c-1,0-1.8,0.8-1.8,1.8
					C440,268,440.8,268.8,441.8,268.8z"/>
				<path class="st19" d="M502.1,235.6c0.2,9.8-3.2,18.8-12.3,24.2c0.3-5.6-4.2-10.4-9.5-12.3c-5.2-1.9-10.9-1.3-16.4-0.3
					c-9.7,1.9-19.1,5.1-28.1,9.3c-7.5,3.5-12.5,10.1-15.9,17.5c-1.1,2.4-2.5,4.4-2.9,7c-0.1,0.7-0.2,8.7,0.6,8.4
					c-8.1,2.4-16.9-1.6-22.3-8c-5.4-6.4-7.8-14.8-9-23.1c-2.9-20.2,1.2-42.4,15.5-56.9c14-14.2,35.9-18.9,55.5-15
					c10.1,2,20,6.2,27.9,12.9C494.3,207.1,501.7,221.9,502.1,235.6z"/>
				<path class="st19" d="M430.2,222.2c-2.4,7.1-4.1,14.4-5.4,21.8c-1.9,11.5-4.1,27.9,3.5,37.8c0.9,1.2,2,2.4,2.7,3.8
					c0.7,1.4,1,3.1,0.2,4.5c-0.9,1.6-2.7,2.1-4.4,2.5c-4.6,0.9-9.3,1.3-13.9,1.1c-3.6-0.2-7.4-0.7-10.5-2.4
					c-8.3-4.3-13.3-15.1-15.9-24c-3.4-11.6-2.3-24.4,0.4-36C395,196.8,430.2,222.2,430.2,222.2z"/>
				<path class="st28" d="M460.6,282.6c0.2,0.9,1.7,1.3,3.3,0.9c1.6-0.4,2.8-1.4,2.6-2.2"/>
				<path class="st42" d="M402.6,227.8c3.6-0.6,6-4.1,5.4-7.7c-0.6-3.6-4.1-6-7.7-5.4c-3.6,0.6-6,4.1-5.4,7.7
					C395.5,226,398.9,228.4,402.6,227.8z"/>
				<path class="st32" d="M399,214.8l-1.4-2.1c0.6-0.5,1.1-1.2,1.3-2.1c0.4-1.9-1.3-4-1.3-4s-2.4,1.1-2.8,3.1c-0.1,0.3-0.1,0.7,0,1
					c-0.3-0.2-0.7-0.4-1.1-0.5c-1.9-0.4-4,1.3-4,1.3s1.1,2.4,3.1,2.8c0.8,0.2,1.6,0,2.3-0.3l1.5,2.3c0.4,0.6,1.3,0.8,1.9,0.4
					c0.1-0.1,0.2-0.1,0.2-0.2C399.3,216.1,399.4,215.3,399,214.8z"/>
			</g>
			<path class="st31" d="M475,291.6l-9.8,31.9c-0.1,0.4-0.4,0.6-0.8,0.7l-26.5,2c-0.5,0-0.9,0.4-0.9,0.9v1.7c0,0.5,0.4,0.9,0.9,0.9
				l72.3-1.4c0.4,0,0.7-0.2,0.9-0.6l12.7-33.3c0.2-0.6-0.2-1.2-0.8-1.3l-47.3-2.2C475.5,290.9,475.1,291.2,475,291.6z"/>
			<path class="st32" d="M501.7,310.2c-0.3-1-1-1.8-1.9-2.2c-0.8-0.3-1.6-0.3-2.4,0c-0.2-0.1-0.5-0.4-0.8-0.4h-0.1
				c-1-0.3-2.1,0-2.8,0.7c-1.2,1.1-1.6,3-0.9,4.5c0.4,0.8,1,1.5,1.9,1.8c0.7,0.3,1.5,0.2,2.2-0.1c0.4,0.3,0.9,0.5,1.4,0.5
				c0.5,0.1,1.1,0,1.6-0.3C501.4,314,502.2,312,501.7,310.2z"/>
			<path class="st32" d="M497.4,307.8C497.4,307.8,497.5,307.8,497.4,307.8c0.2,0,0.3-0.1,0.3-0.3c0-0.1,0-0.5,0.2-1
				c0.2-0.7,0.7-1,1.3-1.2c0.2,0,0.3-0.2,0.2-0.3c0-0.2-0.2-0.3-0.3-0.2c-0.9,0.2-1.5,0.7-1.8,1.6c-0.2,0.6-0.2,1.2-0.2,1.2
				C497.2,307.7,497.3,307.8,497.4,307.8z"/>
			<path class="st32" d="M496.6,307.5c0.1,0,0.2,0,0.2,0c0.1,0,0.1-0.1,0.1-0.2c0,0,0.1-0.8-0.4-1.6c-0.3-0.5-0.7-0.9-1.2-1.2
				c-0.6-0.4-1.5-0.6-2.4-0.8c-0.1,0-0.2,0-0.2,0.1c-0.1,0.1-0.1,0.1-0.1,0.2c0.1,0.5,0.2,1.3,0.8,2
				C494,306.6,495,307.2,496.6,307.5z"/>
			<path class="st24" d="M464.6,320.4c-1.4,5.8-10.1,8.8-20.2,7.2l6.6-22.5C460,308.5,465.9,314.8,464.6,320.4z"/>
			<path class="st38" d="M439.1,319.1c0.2,0,0.3-0.1,0.3-0.3c0-0.2-0.1-0.3-0.3-0.3c-0.2,0-0.3,0.1-0.3,0.3
				C438.8,319,438.9,319.1,439.1,319.1z"/>
			<path class="st38" d="M438.7,318.8c0-0.2,0.2-0.4,0.5-0.4c0.2,0,0.4,0.2,0.4,0.5c0,0.2-0.2,0.4-0.5,0.4
				C438.8,319.2,438.7,319,438.7,318.8z M438.9,318.8c0,0.1,0.1,0.2,0.2,0.2c0.1,0,0.2-0.1,0.2-0.2c0-0.1-0.1-0.2-0.2-0.2
				C439,318.6,438.9,318.7,438.9,318.8z"/>
			<path class="st36" d="M415.3,332.9c-0.3,2.7-2.4,4.7-4.8,4.5c-0.8-0.1-1.5-0.4-2.1-0.9c-0.7,0.4-1.4,0.5-2.2,0.4
				c-2.4-0.2-4.1-2.6-3.8-5.3c0.3-2.7,2.4-4.7,4.8-4.5c0.8,0.1,1.5,0.4,2.1,0.9c0.7-0.4,1.4-0.5,2.2-0.4
				C413.9,327.8,415.6,330.2,415.3,332.9z"/>
			<path class="st37" d="M408.2,326.2c0,0,0.4-4-5.6-4.8C402.9,323.1,403.3,325.3,408.2,326.2z"/>
			<path class="st38" d="M404,328c-1.7,1.6-2.3,4.3-1.3,6.4c1,2.2,3.5,3.5,5.8,2.4c1.3,0.9,2.9,1.1,4.3,0.4c2.3-1.1,3.4-4.1,2.6-6.5
				c-0.8-2.6-3.5-4.3-6.1-3.1c-0.3-0.2-0.8-0.6-1.2-0.6c-0.1,0-0.1,0-0.2-0.1c-0.2-0.1-0.5-0.1-0.7-0.1
				C406.1,326.7,404.9,327.2,404,328z M402.9,331.3c0.4-2.2,2.4-4.3,4.8-3.7c0.3,0.1,0.7,0.2,1,0.4c0.7,0.4,1.3,1.1,1.7,1.9
				c0.2,0.4,0.3,0.9,0.4,1.3c0,0.2,0.1,0.5,0.1,0.7c0,0.2-0.1,0.5,0,0.7c0.1,0.2,0.3,0.3,0.5,0.2c0.2-0.1,0.2-0.3,0.2-0.5
				c0-0.5,0-1.1-0.1-1.6c-0.2-0.9-0.7-1.8-1.3-2.5c1.4-0.5,2.9-0.1,3.9,1c1.7,1.9,1.6,5-0.2,6.8c-0.8,0.8-2,1.3-3.2,1.1
				c-0.4-0.1-0.8-0.2-1.1-0.4c-0.3-0.1-0.6-0.5-0.8-0.5c-0.2,0-0.4,0.2-0.6,0.2c-0.2,0.1-0.3,0.1-0.5,0.2c-0.4,0.1-0.7,0.1-1.1,0.1
				C403.8,336.4,402.5,333.6,402.9,331.3z"/>
			<path class="st38" d="M408.5,337c-1,0.5-2.2,0.5-3.2,0.1c-1.2-0.4-2.2-1.4-2.7-2.6c-1-2.2-0.4-5,1.3-6.6c1.2-1,2.7-1.5,4.1-1.1
				c0.1,0,0.1,0,0.2,0.1c0.4,0,0.9,0.4,1.2,0.6c1.1-0.5,2.3-0.5,3.5,0c1.3,0.6,2.3,1.8,2.7,3.2c0.8,2.6-0.4,5.5-2.7,6.7
				c-0.7,0.4-1.5,0.5-2.3,0.4C409.8,337.7,409.1,337.4,408.5,337z M409.4,327.8L409.4,327.8c-0.3-0.2-0.9-0.6-1.2-0.6
				c-0.1,0-0.1,0-0.2-0.1c-1.4-0.4-2.8,0-3.9,1c-1.7,1.5-2.2,4.2-1.3,6.3c0.5,1.2,1.4,2.1,2.6,2.5c1,0.4,2.1,0.3,3.1-0.1h0.1h0.1
				c1.2,0.9,2.8,1.1,4.2,0.4c2.2-1.1,3.3-3.9,2.6-6.4c-0.4-1.3-1.4-2.5-2.6-3c-0.4-0.2-0.8-0.3-1.2-0.3
				C410.8,327.3,410.1,327.5,409.4,327.8z M403.7,335.2c-0.8-1.1-1.2-2.6-0.9-4c0.2-1.3,1-2.6,2.1-3.3c0.9-0.6,1.9-0.7,2.8-0.5
				c0.4,0.1,0.7,0.2,1,0.4c0.7,0.4,1.3,1.1,1.7,1.9c0.2,0.4,0.3,0.9,0.4,1.4c0,0.2,0.1,0.5,0.1,0.7c0,0.1,0,0.2,0,0.3
				c0,0.1,0,0.3,0,0.4c0,0.1,0.1,0.1,0.1,0.1s0.1,0,0.2,0c0.1-0.1,0.1-0.2,0.1-0.4v-0.1c0-0.5,0-1-0.1-1.5c-0.2-1-0.7-1.8-1.3-2.5
				l-0.1-0.1l0.2-0.1c1.4-0.5,3-0.2,4.1,1c1.7,1.9,1.6,5.1-0.2,7c-0.9,0.9-2.1,1.3-3.3,1.2c-0.4-0.1-0.8-0.2-1.2-0.4
				c-0.1-0.1-0.2-0.1-0.3-0.2c-0.2-0.1-0.3-0.3-0.5-0.3c-0.1,0-0.2,0.1-0.3,0.1c-0.1,0-0.1,0.1-0.2,0.1c-0.2,0.1-0.3,0.1-0.5,0.2
				c-0.4,0.1-0.8,0.1-1.2,0.1C405.3,336.6,404.4,336.1,403.7,335.2z M409.1,336.4c0.1,0.1,0.2,0.1,0.3,0.2c0.3,0.2,0.7,0.3,1.1,0.4
				c1.1,0.2,2.2-0.3,3.1-1.1c1.8-1.8,1.9-4.9,0.2-6.7c-1-1-2.4-1.4-3.7-1c0.6,0.7,1,1.5,1.3,2.4c0.1,0.5,0.2,1.1,0.1,1.6v0.1
				c0,0.2,0,0.4-0.2,0.6c-0.1,0.1-0.2,0.1-0.4,0c-0.1-0.1-0.2-0.2-0.3-0.3c0-0.1,0-0.3,0-0.5c0-0.1,0-0.2,0-0.2c0-0.2,0-0.5-0.1-0.7
				c-0.1-0.5-0.2-0.9-0.4-1.3c-0.4-0.8-0.9-1.4-1.6-1.8c-0.3-0.2-0.6-0.3-0.9-0.4c-0.9-0.2-1.8-0.1-2.6,0.5c-1,0.7-1.8,1.9-2,3.1
				c-0.2,1.3,0.1,2.8,0.9,3.8c0.6,0.8,1.5,1.3,2.5,1.4c0.4,0,0.7,0,1.1-0.1c0.2,0,0.3-0.1,0.5-0.1c0.1,0,0.1-0.1,0.2-0.1
				c0.1-0.1,0.3-0.2,0.4-0.1C408.7,336.1,409,336.2,409.1,336.4z"/>
			<path class="st38" d="M409.4,327c0.2,0,0.4-0.2,0.3-0.3c0,0,0-0.7,0.2-1.5c0.3-1,1-1.6,2-1.8c0.2,0,0.3-0.2,0.2-0.4
				c0-0.2-0.2-0.3-0.4-0.2c-1.2,0.2-2.1,1-2.5,2.2c-0.3,0.9-0.3,1.7-0.3,1.7C409.1,326.9,409.3,327,409.4,327z"/>
			<path class="st38" d="M409,326.7c0,0,0-0.9,0.3-1.8c0.4-1.3,1.3-2,2.6-2.3c0.2,0,0.5,0.1,0.5,0.3c0,0.2-0.1,0.5-0.3,0.5
				c-0.9,0.2-1.6,0.7-1.9,1.7c-0.2,0.7-0.2,1.4-0.2,1.5c0,0.2-0.2,0.4-0.4,0.5c0,0,0,0-0.1,0C409.2,327.1,409,327,409,326.7z
				 M411.9,322.9c-1.2,0.2-2,1-2.4,2.1c-0.3,0.9-0.3,1.7-0.2,1.7c0,0.1,0.1,0.2,0.2,0.2c0.1,0,0.2-0.1,0.2-0.2c0-0.1,0-0.8,0.2-1.6
				c0.4-1,1.1-1.7,2.1-1.9c0.1,0,0.2-0.1,0.2-0.2C412.1,323,412,322.9,411.9,322.9z"/>
			<path class="st38" d="M408.1,326.5c-2.2-0.4-3.8-1.2-4.7-2.2c-0.8-1-1-2.1-1.1-2.8c0-0.1,0-0.2,0.1-0.2c0.1,0,0.1-0.1,0.2-0.1
				c1.4,0.2,2.6,0.5,3.5,1.1c0.7,0.5,1.3,1,1.7,1.7c0.7,1.2,0.6,2.2,0.6,2.3c0,0.1,0,0.1-0.1,0.2
				C408.3,326.5,408.2,326.5,408.1,326.5z M403.9,323.9c0.8,0.9,2.1,1.5,4,2c0-0.4-0.1-1-0.5-1.6c-0.3-0.6-0.9-1.1-1.5-1.5
				c-0.8-0.5-1.8-0.8-2.9-1C403.1,322.5,403.3,323.3,403.9,323.9z"/>
			<path class="st38" d="M408.1,326.6c-2.3-0.4-3.8-1.2-4.7-2.3c-0.9-1-1-2.1-1.1-2.9c0-0.1,0-0.2,0.1-0.3c0.1-0.1,0.2-0.1,0.3-0.1
				c1.4,0.2,2.6,0.6,3.5,1.1c0.8,0.5,1.4,1,1.8,1.7c0.7,1.2,0.6,2.3,0.6,2.3c0,0.1-0.1,0.2-0.2,0.3
				C408.3,326.6,408.2,326.6,408.1,326.6z M402.5,321.3C402.5,321.3,402.4,321.4,402.5,321.3c0.1,0.8,0.3,1.9,1.1,2.8
				c0.9,1,2.4,1.7,4.6,2.2h0.1l0.1-0.1c0,0,0.1-1.1-0.6-2.2c-0.4-0.7-1-1.2-1.7-1.7C405.2,321.8,404,321.4,402.5,321.3
				C402.6,321.3,402.5,321.3,402.5,321.3z M407.9,326c-2-0.4-3.3-1.1-4.1-2c-0.6-0.7-0.8-1.5-0.9-2.2v-0.2h0.2c1.2,0.2,2.2,0.5,3,1
				c0.7,0.4,1.2,0.9,1.6,1.6c0.4,0.7,0.5,1.3,0.5,1.7v0.2L407.9,326z M404,323.9c0.7,0.9,2,1.5,3.8,1.9c0-0.4-0.2-0.9-0.5-1.4
				c-0.3-0.6-0.8-1.1-1.5-1.5c-0.7-0.4-1.6-0.7-2.7-0.9C403.2,322.6,403.4,323.2,404,323.9z"/>
			<path class="st38" d="M410.8,333.9c0.2,0,0.3-0.1,0.3-0.3c0-0.2-0.1-0.3-0.3-0.3c-0.2,0-0.3,0.1-0.3,0.3
				C410.5,333.7,410.6,333.9,410.8,333.9z"/>
			<path class="st38" d="M410.4,333.5c0-0.2,0.2-0.4,0.5-0.4c0.2,0,0.4,0.2,0.4,0.5c0,0.2-0.2,0.4-0.5,0.4
				C410.6,334,410.4,333.8,410.4,333.5z M410.6,333.6c0,0.1,0.1,0.2,0.2,0.2c0.1,0,0.2-0.1,0.2-0.2c0-0.1-0.1-0.2-0.2-0.2
				C410.8,333.4,410.7,333.5,410.6,333.6z"/>
		</g>
		<g>
			<g>
				<g>
					<path class="st25" d="M230.6,265.6c0.2-0.1,4.3-4.1,4.3-4.1l-5.1-3.2l-0.5,0l0.6,7.3L230.6,265.6z"/>
					<polygon class="st43" points="208.7,267.4 230,265.6 229.4,258.3 207.9,260.5 					"/>
				</g>
				<path class="st19" d="M207.2,261.2l0.6,6.1c0,0.3,0.2,0.5,0.4,0.7c0.2,0.2,0.5,0.3,0.8,0.2l21.2-2.1c0.2,0,0.4-0.1,0.6-0.3
					l4-3.5c0.3-0.2,0.4-0.6,0.4-0.9c0-0.3-0.2-0.5-0.4-0.7c0,0-0.1-0.1-0.1-0.1L230,258c-0.2-0.1-0.4-0.2-0.6-0.1l-21.2,2.1
					C207.6,260.1,207.2,260.6,207.2,261.2z M208.9,267.2l-0.3-2.5l20.6-2.1l0.3,2.6L208.9,267.2z M234.1,261.6l-0.9,0.7l-0.2-1.3
					L234.1,261.6z M232,260.4c0,0.1,0,0.1,0,0.2l0.3,2.3c0,0.1,0,0.2,0.1,0.2l-1.9,1.6l-0.6-5.6L232,260.4z M228.8,259l0.2,2.5
					l-20.6,2.1l-0.3-2.5L228.8,259z"/>
			</g>
			<path class="st24" d="M217.4,262.2c0.5,0,1,0.1,1.5,0.4c1,0.6,1.7,1.6,2.2,2.8c1,2.6,0.8,5.9-0.5,8.6c-1.3,2.8-3.6,5-6.2,5.8
				c-1.6,0.5-3.6,0.5-4.5-1c-1-1.5-0.4-3.8,0.1-5.7C211,269.9,213.5,262.1,217.4,262.2z"/>
		</g>
		<g>
			
				<rect x="297.8" y="276.9" transform="matrix(-1.836970e-16 1 -1 -1.836970e-16 584.8539 -20.9949)" class="st6" width="10.3" height="10"/>
			
				<rect x="297.8" y="290.5" transform="matrix(-1.836970e-16 1 -1 -1.836970e-16 598.4363 -7.4124)" class="st20" width="10.3" height="10"/>
			
				<rect x="297.8" y="303.8" transform="matrix(-1.836970e-16 1 -1 -1.836970e-16 611.7166 5.8678)" class="st18" width="10.3" height="10"/>
		</g>
		<g>
			<g>
				<g>
					<path class="st26" d="M273.2,81c-0.4,0-0.8-0.3-0.9-0.7l-1.2-3.7h-6.2l-1.2,3.7c-0.1,0.4-0.5,0.7-0.9,0.7H258
						c-0.3,0-0.6-0.2-0.8-0.4s-0.2-0.6-0.1-0.9l7.9-21.2c0.1-0.4,0.5-0.7,0.9-0.7h4c0.4,0,0.8,0.3,0.9,0.6l7.9,21.2
						c0.1,0.3,0.1,0.7-0.1,0.9c-0.2,0.3-0.5,0.4-0.8,0.4H273.2z M269.2,71.1l-1.3-3.8l-1.2,3.8H269.2z"/>
					<path class="st19" d="M269.9,58.8l7.9,21.2h-4.6l-1.5-4.4h-7.6l-1.5,4.4H258l7.9-21.2H269.9 M265.3,72.1h5.3l-2.7-7.9
						L265.3,72.1 M269.9,56.8h-4c-0.8,0-1.6,0.5-1.9,1.3l-7.9,21.2c-0.2,0.6-0.1,1.3,0.2,1.8c0.4,0.5,1,0.9,1.6,0.9h4.6
						c0.9,0,1.6-0.6,1.9-1.4l1-3h4.8l1,3c0.3,0.8,1,1.4,1.9,1.4h4.6c0.7,0,1.3-0.3,1.6-0.9c0.4-0.5,0.5-1.2,0.2-1.8l-7.9-21.2
						C271.5,57.4,270.7,56.8,269.9,56.8L269.9,56.8z"/>
				</g>
				<g>
					<path class="st19" d="M286,64.3l0.1,1.8c0.5-0.7,1.2-1.2,2-1.6c0.8-0.4,1.6-0.5,2.6-0.5c0.7,0,1.4,0.1,2,0.3
						c0.6,0.2,1.1,0.6,1.6,1c0.4,0.5,0.8,1.1,1,1.9c0.2,0.8,0.4,1.7,0.4,2.8v10h-4.2V70c0-0.5-0.1-0.9-0.2-1.3
						c-0.1-0.3-0.3-0.6-0.5-0.8c-0.2-0.2-0.5-0.3-0.8-0.4c-0.3-0.1-0.7-0.1-1.1-0.1c-0.6,0-1.2,0.1-1.6,0.4
						c-0.4,0.3-0.8,0.6-1.1,1.1V80h-4.2V64.3H286z"/>
				</g>
				<g>
					<path class="st19" d="M303.7,64.3l0.1,1.8c0.5-0.7,1.2-1.2,2-1.6c0.8-0.4,1.6-0.5,2.6-0.5c0.7,0,1.4,0.1,2,0.3
						c0.6,0.2,1.1,0.6,1.6,1c0.4,0.5,0.8,1.1,1,1.9c0.2,0.8,0.4,1.7,0.4,2.8v10h-4.2V70c0-0.5-0.1-0.9-0.2-1.3
						c-0.1-0.3-0.3-0.6-0.5-0.8c-0.2-0.2-0.5-0.3-0.8-0.4c-0.3-0.1-0.7-0.1-1.1-0.1c-0.6,0-1.2,0.1-1.6,0.4
						c-0.4,0.3-0.8,0.6-1.1,1.1V80h-4.2V64.3H303.7z"/>
				</g>
				<g>
					<path class="st19" d="M317.5,60.2c0-0.6,0.2-1.1,0.6-1.6c0.4-0.4,1-0.6,1.7-0.6c0.4,0,0.7,0.1,1,0.2c0.3,0.1,0.5,0.3,0.7,0.5
						c0.2,0.2,0.4,0.4,0.5,0.7c0.1,0.3,0.2,0.6,0.2,0.9c0,0.3-0.1,0.6-0.2,0.9c-0.1,0.3-0.3,0.5-0.5,0.7c-0.2,0.2-0.4,0.3-0.7,0.5
						c-0.3,0.1-0.6,0.2-1,0.2c-0.4,0-0.7-0.1-1-0.2c-0.3-0.1-0.5-0.3-0.7-0.5c-0.2-0.2-0.4-0.4-0.5-0.7
						C317.6,60.8,317.5,60.5,317.5,60.2z M322,80h-4.2V64.3h4.2V80z"/>
				</g>
				<g>
					<path class="st19" d="M333.7,80.3c-1.2,0-2.3-0.2-3.3-0.6c-1-0.4-1.8-0.9-2.5-1.6c-0.7-0.7-1.2-1.5-1.5-2.4
						c-0.4-0.9-0.5-1.9-0.5-3v-0.6c0-1.2,0.2-2.3,0.5-3.3c0.3-1,0.8-1.9,1.5-2.6c0.6-0.7,1.4-1.3,2.3-1.7c0.9-0.4,1.9-0.6,3-0.6
						c1.1,0,2.1,0.2,3,0.6c0.9,0.4,1.6,0.9,2.2,1.6c0.6,0.7,1,1.5,1.3,2.4c0.3,1,0.4,2,0.4,3.2v1.8h-10c0.1,0.5,0.2,1,0.4,1.4
						c0.2,0.4,0.5,0.8,0.8,1.1c0.3,0.3,0.7,0.5,1.1,0.7c0.4,0.2,0.9,0.2,1.5,0.2c0.8,0,1.5-0.1,2.1-0.4c0.6-0.3,1.2-0.7,1.7-1.3
						l2.1,2.3c-0.3,0.4-0.6,0.7-0.9,1c-0.4,0.3-0.8,0.6-1.3,0.9c-0.5,0.3-1.1,0.5-1.7,0.6C335.2,80.2,334.5,80.3,333.7,80.3z
						 M333.2,67.4c-0.5,0-0.9,0.1-1.2,0.2c-0.3,0.2-0.6,0.4-0.9,0.7c-0.2,0.3-0.4,0.6-0.6,1c-0.2,0.4-0.3,0.8-0.3,1.3h5.8v-0.3
						c0-0.4-0.1-0.8-0.2-1.2c-0.1-0.4-0.3-0.7-0.5-0.9c-0.2-0.3-0.5-0.5-0.9-0.6C334.1,67.5,333.7,67.4,333.2,67.4z"/>
				</g>
				<g>
					<path class="st19" d="M346.5,59.9c0,0.5-0.1,1-0.2,1.5c-0.1,0.5-0.3,1-0.6,1.5c-0.2,0.5-0.5,0.9-0.8,1.4
						c-0.3,0.4-0.7,0.8-1,1.1l-2-1.1c0.2-0.3,0.4-0.6,0.5-0.9c0.2-0.3,0.3-0.6,0.4-1c0.1-0.3,0.2-0.7,0.3-1.1
						c0.1-0.4,0.1-0.8,0.1-1.3v-2.3h3.3V59.9z"/>
				</g>
				<g>
					<path class="st19" d="M355.7,75.7c0-0.2,0-0.4-0.1-0.6c-0.1-0.2-0.3-0.4-0.5-0.5c-0.2-0.2-0.6-0.3-1-0.5
						c-0.4-0.1-1-0.3-1.6-0.4c-0.8-0.2-1.5-0.4-2.2-0.7c-0.7-0.3-1.3-0.6-1.8-1c-0.5-0.4-0.9-0.8-1.2-1.4c-0.3-0.5-0.4-1.1-0.4-1.8
						c0-0.7,0.1-1.3,0.4-1.9c0.3-0.6,0.7-1.1,1.2-1.6c0.5-0.5,1.2-0.8,2-1.1c0.8-0.3,1.7-0.4,2.6-0.4c1,0,1.9,0.1,2.7,0.4
						c0.8,0.3,1.5,0.6,2.1,1.1c0.6,0.5,1,1,1.3,1.6c0.3,0.6,0.5,1.3,0.5,2h-4.2c0-0.6-0.2-1.1-0.6-1.5c-0.4-0.4-1-0.6-1.8-0.6
						c-0.7,0-1.3,0.2-1.6,0.5c-0.4,0.3-0.6,0.7-0.6,1.2c0,0.2,0.1,0.4,0.2,0.6c0.1,0.2,0.3,0.3,0.5,0.5c0.2,0.2,0.5,0.3,0.9,0.4
						c0.4,0.1,0.8,0.2,1.4,0.3c0.9,0.2,1.6,0.4,2.4,0.6c0.7,0.2,1.4,0.6,1.9,0.9c0.5,0.4,0.9,0.8,1.2,1.4c0.3,0.5,0.5,1.2,0.5,2
						c0,0.7-0.2,1.3-0.5,1.9c-0.3,0.6-0.8,1.1-1.3,1.5c-0.6,0.4-1.3,0.8-2.1,1c-0.8,0.2-1.7,0.4-2.7,0.4c-1.1,0-2.1-0.2-2.9-0.5
						c-0.8-0.3-1.6-0.7-2.1-1.2c-0.6-0.5-1-1.1-1.3-1.7c-0.3-0.6-0.4-1.3-0.4-1.9h4c0,0.4,0.1,0.8,0.3,1.1c0.2,0.3,0.4,0.5,0.6,0.7
						c0.3,0.2,0.6,0.3,0.9,0.4c0.3,0.1,0.7,0.1,1.1,0.1c0.8,0,1.4-0.2,1.8-0.5C355.5,76.6,355.7,76.2,355.7,75.7z"/>
				</g>
			</g>
			<g>
				<g>
					<path class="st44" d="M249.4,116.7c-0.6,0-1-0.4-1-1V94.6c0-0.6,0.4-1,1-1h8.3c1.4,0,2.6,0.2,3.7,0.6c1.1,0.4,2.1,1,2.8,1.7
						c0.8,0.7,1.4,1.6,1.8,2.6c0.4,1,0.6,2,0.6,3.2c0,1.2-0.2,2.2-0.6,3.2c-0.4,1-1,1.8-1.8,2.5c-0.8,0.7-1.7,1.2-2.8,1.5
						c-1.1,0.3-2.3,0.5-3.7,0.5h-2.9v6.5c0,0.6-0.4,1-1,1H249.4z M257.6,103.8c0.5,0,0.9-0.1,1.3-0.2c0.3-0.1,0.6-0.2,0.7-0.4
						c0.2-0.2,0.3-0.4,0.4-0.6c0.1-0.3,0.1-0.6,0.1-0.9c0-0.3-0.1-0.7-0.2-1c-0.1-0.3-0.2-0.5-0.4-0.8c-0.2-0.2-0.4-0.4-0.8-0.5
						c-0.3-0.1-0.7-0.2-1.2-0.2h-2.9v4.6H257.6z"/>
					<path class="st19" d="M257.6,94.6c1.2,0,2.4,0.2,3.3,0.5c1,0.3,1.8,0.8,2.5,1.5c0.7,0.6,1.2,1.4,1.6,2.2
						c0.4,0.9,0.5,1.8,0.5,2.8c0,1-0.2,2-0.5,2.8c-0.4,0.8-0.9,1.5-1.6,2.1c-0.7,0.6-1.5,1-2.5,1.3c-1,0.3-2.1,0.5-3.3,0.5h-3.9v7.5
						h-4.4V94.6H257.6 M253.7,104.8h3.9c0.6,0,1.2-0.1,1.6-0.2c0.4-0.2,0.8-0.4,1.1-0.6c0.3-0.3,0.5-0.6,0.6-1
						c0.1-0.4,0.2-0.8,0.2-1.3c0-0.5-0.1-0.9-0.2-1.3c-0.1-0.4-0.3-0.8-0.6-1.1c-0.3-0.3-0.7-0.6-1.1-0.8c-0.5-0.2-1-0.3-1.6-0.3
						h-3.9V104.8 M257.6,92.6h-8.3c-1.1,0-2,0.9-2,2v21.2c0,1.1,0.9,2,2,2h4.4c1.1,0,2-0.9,2-2v-5.5h1.9c1.5,0,2.8-0.2,4-0.6
						c1.2-0.4,2.3-1,3.2-1.7c0.9-0.8,1.6-1.7,2.1-2.8c0.5-1.1,0.7-2.3,0.7-3.6c0-1.3-0.2-2.5-0.7-3.6c-0.5-1.1-1.2-2.1-2.1-2.9
						c-0.9-0.8-2-1.4-3.2-1.9C260.5,92.8,259.1,92.6,257.6,92.6L257.6,92.6z M255.7,100.1h1.9c0.3,0,0.6,0,0.8,0.1
						c0.2,0.1,0.3,0.2,0.4,0.3c0.1,0.1,0.2,0.2,0.2,0.4c0.1,0.2,0.1,0.5,0.1,0.7c0,0.2,0,0.4-0.1,0.6c0,0.1-0.1,0.2-0.1,0.2
						c0,0-0.1,0.1-0.4,0.2c-0.2,0.1-0.5,0.1-1,0.1h-1.9V100.1L255.7,100.1z"/>
				</g>
				<g>
					<path class="st19" d="M268.5,107.7c0-1.1,0.2-2.2,0.5-3.2c0.3-1,0.8-1.8,1.4-2.5c0.6-0.7,1.4-1.3,2.3-1.7
						c0.9-0.4,2-0.6,3.2-0.6c1.2,0,2.3,0.2,3.2,0.6c0.9,0.4,1.7,1,2.3,1.7c0.6,0.7,1.1,1.6,1.4,2.5c0.3,1,0.5,2,0.5,3.2v0.3
						c0,1.2-0.2,2.2-0.5,3.2c-0.3,1-0.8,1.8-1.4,2.5c-0.6,0.7-1.4,1.3-2.3,1.7c-0.9,0.4-2,0.6-3.2,0.6c-1.2,0-2.2-0.2-3.2-0.6
						c-0.9-0.4-1.7-1-2.3-1.7c-0.6-0.7-1.1-1.6-1.4-2.5c-0.3-1-0.5-2-0.5-3.2V107.7z M272.7,108c0,0.6,0.1,1.2,0.2,1.8
						c0.1,0.6,0.3,1,0.6,1.5c0.3,0.4,0.6,0.7,1,1c0.4,0.2,0.9,0.4,1.5,0.4c0.6,0,1.1-0.1,1.5-0.4c0.4-0.2,0.7-0.6,1-1
						c0.3-0.4,0.4-0.9,0.6-1.5c0.1-0.6,0.2-1.2,0.2-1.8v-0.3c0-0.6-0.1-1.2-0.2-1.8c-0.1-0.6-0.3-1-0.6-1.5c-0.3-0.4-0.6-0.8-1-1
						c-0.4-0.2-0.9-0.4-1.5-0.4c-0.6,0-1.1,0.1-1.5,0.4c-0.4,0.2-0.7,0.6-1,1c-0.3,0.4-0.4,0.9-0.6,1.5c-0.1,0.6-0.2,1.1-0.2,1.8
						V108z"/>
				</g>
				<g>
					<path class="st19" d="M295.8,104c-0.2,0-0.5-0.1-0.7-0.1c-0.3,0-0.5,0-0.8,0c-0.8,0-1.5,0.1-2,0.4c-0.5,0.3-0.9,0.7-1.1,1.2
						v10.3H287V100h4l0.1,1.9c0.4-0.7,0.9-1.2,1.5-1.6c0.6-0.4,1.3-0.6,2-0.6c0.2,0,0.5,0,0.7,0.1c0.2,0,0.4,0.1,0.6,0.1L295.8,104z
						"/>
				</g>
				<g>
					<path class="st19" d="M304.7,96.1v3.9h2.7v3.1h-2.7v7.9c0,0.3,0,0.6,0.1,0.8c0.1,0.2,0.2,0.4,0.3,0.5c0.1,0.1,0.3,0.2,0.5,0.2
						c0.2,0,0.4,0.1,0.7,0.1c0.3,0,0.5,0,0.7,0c0.2,0,0.4,0,0.5-0.1v3.2c-0.3,0.1-0.7,0.2-1.1,0.3c-0.4,0.1-0.9,0.1-1.4,0.1
						c-0.7,0-1.3-0.1-1.9-0.3c-0.6-0.2-1-0.4-1.4-0.8c-0.4-0.4-0.7-0.8-0.9-1.4c-0.2-0.6-0.3-1.3-0.3-2.1v-8.3h-2.3V100h2.3v-3.9
						H304.7z"/>
				</g>
				<g>
					<path class="st19" d="M311.9,115.7v-12.6h-2.3V100h2.3v-1.4c0-0.9,0.1-1.7,0.4-2.4c0.3-0.7,0.7-1.3,1.1-1.7
						c0.5-0.5,1.1-0.8,1.8-1.1c0.7-0.2,1.5-0.4,2.4-0.4c0.4,0,0.7,0,1.1,0.1c0.4,0.1,0.7,0.1,1,0.2l0,3.3c-0.3-0.1-0.8-0.1-1.3-0.1
						c-0.8,0-1.3,0.2-1.8,0.5c-0.4,0.4-0.6,0.9-0.6,1.6v1.4h3.1v3.1h-3.1v12.6H311.9z"/>
				</g>
				<g>
					<path class="st19" d="M321.8,107.7c0-1.1,0.2-2.2,0.5-3.2c0.3-1,0.8-1.8,1.4-2.5c0.6-0.7,1.4-1.3,2.3-1.7
						c0.9-0.4,2-0.6,3.2-0.6c1.2,0,2.3,0.2,3.2,0.6c0.9,0.4,1.7,1,2.3,1.7c0.6,0.7,1.1,1.6,1.4,2.5c0.3,1,0.5,2,0.5,3.2v0.3
						c0,1.2-0.2,2.2-0.5,3.2c-0.3,1-0.8,1.8-1.4,2.5c-0.6,0.7-1.4,1.3-2.3,1.7c-0.9,0.4-2,0.6-3.2,0.6c-1.2,0-2.2-0.2-3.2-0.6
						c-0.9-0.4-1.7-1-2.3-1.7c-0.6-0.7-1.1-1.6-1.4-2.5c-0.3-1-0.5-2-0.5-3.2V107.7z M326,108c0,0.6,0.1,1.2,0.2,1.8
						c0.1,0.6,0.3,1,0.6,1.5c0.3,0.4,0.6,0.7,1,1c0.4,0.2,0.9,0.4,1.5,0.4c0.6,0,1.1-0.1,1.5-0.4c0.4-0.2,0.7-0.6,1-1
						c0.3-0.4,0.5-0.9,0.6-1.5c0.1-0.6,0.2-1.2,0.2-1.8v-0.3c0-0.6-0.1-1.2-0.2-1.8c-0.1-0.6-0.3-1-0.6-1.5c-0.3-0.4-0.6-0.8-1-1
						c-0.4-0.2-0.9-0.4-1.5-0.4c-0.6,0-1.1,0.1-1.5,0.4c-0.4,0.2-0.7,0.6-1,1c-0.3,0.4-0.4,0.9-0.6,1.5c-0.1,0.6-0.2,1.1-0.2,1.8
						V108z"/>
				</g>
				<g>
					<path class="st19" d="M344.7,115.7h-4.2V93.4h4.2V115.7z"/>
				</g>
				<g>
					<path class="st19" d="M349.2,95.9c0-0.6,0.2-1.1,0.6-1.6c0.4-0.4,1-0.6,1.7-0.6c0.4,0,0.7,0.1,1,0.2c0.3,0.1,0.5,0.3,0.7,0.4
						c0.2,0.2,0.4,0.4,0.5,0.7c0.1,0.3,0.2,0.6,0.2,0.9c0,0.3-0.1,0.6-0.2,0.9c-0.1,0.3-0.3,0.5-0.5,0.7c-0.2,0.2-0.4,0.3-0.7,0.5
						c-0.3,0.1-0.6,0.2-1,0.2c-0.4,0-0.7-0.1-1-0.2c-0.3-0.1-0.5-0.3-0.7-0.5c-0.2-0.2-0.4-0.4-0.5-0.7
						C349.3,96.6,349.2,96.3,349.2,95.9z M353.7,115.7h-4.2V100h4.2V115.7z"/>
				</g>
				<g>
					<path class="st19" d="M357.5,107.7c0-1.1,0.2-2.2,0.5-3.2c0.3-1,0.8-1.8,1.4-2.5c0.6-0.7,1.4-1.3,2.3-1.7
						c0.9-0.4,2-0.6,3.2-0.6c1.2,0,2.3,0.2,3.2,0.6c0.9,0.4,1.7,1,2.3,1.7c0.6,0.7,1.1,1.6,1.4,2.5c0.3,1,0.5,2,0.5,3.2v0.3
						c0,1.2-0.2,2.2-0.5,3.2c-0.3,1-0.8,1.8-1.4,2.5c-0.6,0.7-1.4,1.3-2.3,1.7c-0.9,0.4-2,0.6-3.2,0.6c-1.2,0-2.2-0.2-3.2-0.6
						c-0.9-0.4-1.7-1-2.3-1.7c-0.6-0.7-1.1-1.6-1.4-2.5c-0.3-1-0.5-2-0.5-3.2V107.7z M361.7,108c0,0.6,0.1,1.2,0.2,1.8
						c0.1,0.6,0.3,1,0.6,1.5c0.3,0.4,0.6,0.7,1,1c0.4,0.2,0.9,0.4,1.5,0.4c0.6,0,1.1-0.1,1.5-0.4c0.4-0.2,0.7-0.6,1-1
						c0.3-0.4,0.4-0.9,0.6-1.5s0.2-1.2,0.2-1.8v-0.3c0-0.6-0.1-1.2-0.2-1.8c-0.1-0.6-0.3-1-0.6-1.5c-0.3-0.4-0.6-0.8-1-1
						c-0.4-0.2-0.9-0.4-1.5-0.4c-0.6,0-1.1,0.1-1.5,0.4c-0.4,0.2-0.7,0.6-1,1c-0.3,0.4-0.4,0.9-0.6,1.5c-0.1,0.6-0.2,1.1-0.2,1.8
						V108z"/>
				</g>
			</g>
		</g>
		<path class="st20" d="M577,181.3l-47.1-8.9c-3-0.6-6.3,3.2-7.3,8.5l-3.7,19.4c-0.9,4.9,0.4,9.3,3,10.4c0.4,0.2,0.6,0.8,0.4,1.5
			l-2,10.6c-0.1,0.6,0.3,1,0.6,0.5l7-10.8c0.2-0.3,0.5-0.5,0.8-0.5l41,7.8c3,0.6,6.3-3.2,7.3-8.5l3.7-19.4
			C581.7,186.6,580.1,181.8,577,181.3z"/>
		<g>
			<path class="st20" d="M7.8,201.8l76.4-19.7c4.9-1.3,10,1.9,11.3,7.1l4.9,19.1c1.2,4.8-1.1,9.6-5.3,11.3c-0.6,0.2-0.9,1-0.8,1.6
				l2.7,10.5c0.2,0.6-0.5,1-1,0.6l-10.8-9.5c-0.3-0.3-0.8-0.4-1.2-0.3l-66.5,17.1c-4.9,1.3-10-1.9-11.3-7.1l-4.9-19.1
				C0,208.3,2.9,203,7.8,201.8z"/>
			<g>
				<g>
					<path class="st25" d="M18.9,229.8c-0.2,0-0.4,0-0.5-0.1c-0.2-0.1-0.4-0.4-0.5-0.6L13,209.9c-0.1-0.5,0.2-1.1,0.7-1.2l3.3-0.9
						c0.1,0,0.2,0,0.2,0c0.2,0,0.4,0,0.5,0.1c0.2,0.1,0.4,0.4,0.5,0.6l1.8,7l6.6-1.7l-1.8-7c-0.1-0.5,0.2-1.1,0.7-1.2l3.3-0.9
						c0.1,0,0.2,0,0.2,0c0.2,0,0.4,0,0.5,0.1c0.2,0.1,0.4,0.4,0.5,0.6l4.9,19.1c0.1,0.5-0.2,1.1-0.7,1.2l-3.3,0.9
						c-0.1,0-0.2,0-0.2,0c-0.2,0-0.4,0-0.5-0.1c-0.2-0.1-0.4-0.4-0.5-0.6l-1.9-7.5l-6.6,1.7l1.9,7.5c0.1,0.5-0.2,1.1-0.7,1.2
						l-3.3,0.9C19.1,229.8,19,229.8,18.9,229.8z"/>
					<path class="st10" d="M29.2,205.8l4.9,19.1l-3.3,0.9l-2.2-8.5l-8.5,2.2l2.2,8.5l-3.3,0.9L14,209.7l3.3-0.9l2,8l8.5-2.2l-2-8
						L29.2,205.8 M29.2,203.8c-0.2,0-0.3,0-0.5,0.1l-3.3,0.9c-0.5,0.1-1,0.5-1.2,0.9c-0.3,0.5-0.3,1-0.2,1.5l1.6,6l-4.7,1.2l-1.6-6
						c-0.1-0.5-0.5-1-0.9-1.2c-0.3-0.2-0.7-0.3-1-0.3c-0.2,0-0.3,0-0.5,0.1l-3.3,0.9c-1.1,0.3-1.7,1.4-1.4,2.4l4.9,19.1
						c0.1,0.5,0.5,1,0.9,1.2c0.3,0.2,0.7,0.3,1,0.3c0.2,0,0.3,0,0.5-0.1l3.3-0.9c1.1-0.3,1.7-1.4,1.4-2.4l-1.7-6.5l4.7-1.2l1.7,6.5
						c0.2,0.9,1,1.5,1.9,1.5c0.2,0,0.3,0,0.5-0.1l3.3-0.9c1.1-0.3,1.7-1.4,1.4-2.4l-4.9-19.1c-0.1-0.5-0.5-1-0.9-1.2
						C29.9,203.8,29.5,203.8,29.2,203.8L29.2,203.8z"/>
				</g>
				<g>
					<path class="st25" d="M42.2,223.8c-0.2,0-0.4,0-0.5-0.1c-0.2-0.1-0.4-0.4-0.5-0.6l-4-15.5l-4.9,1.3c-0.1,0-0.2,0-0.2,0
						c-0.2,0-0.4,0-0.5-0.1c-0.2-0.1-0.4-0.4-0.5-0.6l-0.7-2.7c-0.1-0.5,0.2-1.1,0.7-1.2l15.2-3.9c0.1,0,0.2,0,0.3,0
						c0.4,0,0.9,0.3,1,0.8l0.7,2.7c0.1,0.3,0,0.5-0.1,0.8s-0.4,0.4-0.6,0.5l-5,1.3l4,15.5c0.1,0.5-0.2,1.1-0.7,1.2l-3.3,0.8
						C42.4,223.8,42.3,223.8,42.2,223.8z"/>
					<path class="st10" d="M46.5,201.3l0.7,2.7l-6,1.5l4.2,16.4l-3.3,0.8L38,206.3l-5.9,1.5l-0.7-2.7L46.5,201.3 M46.5,199.3
						c-0.2,0-0.3,0-0.5,0.1l-15.2,3.9c-0.5,0.1-1,0.5-1.2,0.9c-0.3,0.5-0.3,1-0.2,1.5l0.7,2.7c0.1,0.5,0.5,1,0.9,1.2
						c0.3,0.2,0.7,0.3,1,0.3c0.2,0,0.3,0,0.5-0.1l4-1l3.7,14.5c0.1,0.5,0.5,1,0.9,1.2c0.3,0.2,0.7,0.3,1,0.3c0.2,0,0.3,0,0.5-0.1
						l3.3-0.8c1.1-0.3,1.7-1.4,1.4-2.4l-3.7-14.5l4-1c0.5-0.1,1-0.5,1.2-0.9c0.3-0.5,0.3-1,0.2-1.5l-0.7-2.7
						C48.3,199.9,47.4,199.3,46.5,199.3L46.5,199.3z"/>
				</g>
				<g>
					<path class="st25" d="M54,220.8c-0.2,0-0.4,0-0.5-0.1c-0.2-0.1-0.4-0.4-0.5-0.6l-4.9-19.1c-0.1-0.5,0.2-1.1,0.7-1.2l4.3-1.1
						c0.1,0,0.2,0,0.2,0c0.3,0,0.6,0.2,0.8,0.4l7.8,11.1l1.4-13.4c0-0.4,0.3-0.8,0.7-0.9l4.3-1.1c0.1,0,0.2,0,0.2,0
						c0.4,0,0.9,0.3,1,0.8l4.9,19.1c0.1,0.3,0,0.5-0.1,0.8c-0.1,0.2-0.4,0.4-0.6,0.5l-3.3,0.9c-0.1,0-0.2,0-0.3,0
						c-0.4,0-0.9-0.3-1-0.8l-1.6-6.3l-0.6-2.6L66,217c0,0.4-0.3,0.8-0.7,0.9l-2.4,0.6c-0.1,0-0.2,0-0.2,0c-0.3,0-0.6-0.2-0.8-0.4
						l-5.9-8.3l0.8,2.5l1.6,6.3c0.1,0.5-0.2,1.1-0.7,1.2l-3.3,0.9C54.1,220.8,54.1,220.8,54,220.8z"/>
					<path class="st10" d="M68.7,195.6l4.9,19.1l-3.3,0.9l-1.6-6.3l-1.8-8.5L65,216.9l-2.4,0.6l-9.4-13.3l2.5,8.3l1.6,6.3l-3.3,0.9
						l-4.9-19.1l4.3-1.1l9.3,13.2l1.7-16.1L68.7,195.6 M68.7,193.6c-0.2,0-0.3,0-0.5,0.1l-4.3,1.1c-0.8,0.2-1.4,0.9-1.5,1.7
						l-1.2,10.8l-6.2-8.9c-0.4-0.5-1-0.9-1.6-0.9c-0.2,0-0.3,0-0.5,0.1l-4.3,1.1c-1.1,0.3-1.7,1.4-1.4,2.4l4.9,19.1
						c0.1,0.5,0.5,1,0.9,1.2c0.3,0.2,0.7,0.3,1,0.3c0.2,0,0.3,0,0.5-0.1l3.3-0.9c1.1-0.3,1.7-1.4,1.4-2.4l-0.9-3.4l2.6,3.7
						c0.4,0.5,1,0.8,1.6,0.8c0.2,0,0.3,0,0.5-0.1l2.4-0.6c0.8-0.2,1.4-0.9,1.5-1.7l0.5-4.5l0.9,3.4c0.1,0.5,0.5,1,0.9,1.2
						c0.3,0.2,0.7,0.3,1,0.3c0.2,0,0.3,0,0.5-0.1l3.3-0.9c1.1-0.3,1.7-1.4,1.4-2.4l-4.9-19.1C70.4,194.2,69.6,193.6,68.7,193.6
						L68.7,193.6z"/>
				</g>
				<g>
					<path class="st25" d="M77.5,214.7c-0.2,0-0.4,0-0.5-0.1c-0.2-0.1-0.4-0.4-0.5-0.6l-4.9-19.1c-0.1-0.3,0-0.5,0.1-0.8
						c0.1-0.2,0.4-0.4,0.6-0.5l3.3-0.9c0.1,0,0.2,0,0.3,0c0.4,0,0.9,0.3,1,0.8l4,15.5l7.7-2c0.1,0,0.2,0,0.2,0c0.2,0,0.4,0,0.5,0.1
						c0.2,0.1,0.4,0.4,0.5,0.6l0.7,2.7c0.1,0.5-0.2,1.1-0.7,1.2l-12,3.1C77.7,214.7,77.6,214.7,77.5,214.7z"/>
					<path class="st10" d="M75.9,193.7l4.2,16.5l8.7-2.2l0.7,2.7l-12,3.1l-4.9-19.1L75.9,193.7 M75.9,191.7c-0.2,0-0.3,0-0.5,0.1
						l-3.3,0.9c-0.5,0.1-1,0.5-1.2,0.9c-0.3,0.5-0.3,1-0.2,1.5l4.9,19.1c0.2,0.9,1,1.5,1.9,1.5c0.2,0,0.3,0,0.5-0.1l12-3.1
						c1.1-0.3,1.7-1.4,1.4-2.4l-0.7-2.7c-0.1-0.5-0.5-1-0.9-1.2c-0.3-0.2-0.7-0.3-1-0.3c-0.2,0-0.3,0-0.5,0.1l-6.7,1.7l-3.7-14.5
						C77.6,192.3,76.8,191.7,75.9,191.7L75.9,191.7z"/>
				</g>
			</g>
		</g>
		<g>
			<path class="st20" d="M97.5,120.4h48c3.1,0,5.6,4.3,5.6,9.7v19.8c0,4.9-2.1,9-4.9,9.6c-0.4,0.1-0.7,0.7-0.7,1.4v10.8
				c0,0.6-0.5,0.9-0.7,0.4l-4.9-11.9c-0.2-0.4-0.4-0.6-0.7-0.6H97.5c-3.1,0-5.6-4.4-5.6-9.7v-19.8C91.9,124.7,94.4,120.4,97.5,120.4
				z"/>
			<g>
				<g>
					<path class="st25" d="M111.8,151.1c-2.4,0-4.3-0.6-5.6-1.9c-1.4-1.3-2.1-3-2.1-5.2c0-0.6,0.4-1,1-1h3.6c0.6,0,1,0.4,1,1
						c0,0.8,0.2,1.4,0.5,1.8c0.3,0.4,0.9,0.5,1.6,0.5c0.7,0,1.2-0.2,1.5-0.6c0.4-0.4,0.6-1.1,0.6-2v-14.4c0-0.6,0.4-1,1-1h3.6
						c0.6,0,1,0.4,1,1v14.4c0,2.2-0.7,4.1-2.2,5.4C116,150.4,114.1,151.1,111.8,151.1z"/>
					<path class="st10" d="M118.5,129.3v14.4c0,2-0.6,3.5-1.8,4.7c-1.2,1.2-2.8,1.7-4.9,1.7c-2.1,0-3.8-0.5-5-1.6
						c-1.2-1.1-1.7-2.6-1.7-4.5h3.6c0,1.1,0.3,1.9,0.8,2.5c0.5,0.5,1.3,0.8,2.3,0.8c1,0,1.7-0.3,2.3-1c0.6-0.6,0.9-1.5,0.9-2.6
						v-14.4H118.5 M118.5,127.3H115c-1.1,0-2,0.9-2,2v14.4c0,0.6-0.1,1-0.3,1.3c-0.1,0.1-0.3,0.3-0.8,0.3c-0.3,0-0.7,0-0.9-0.2
						c-0.1-0.2-0.2-0.5-0.2-1.1c0-1.1-0.9-2-2-2h-3.6c-1.1,0-2,0.9-2,2c0,2.5,0.8,4.5,2.4,6c1.5,1.4,3.7,2.2,6.3,2.2
						c2.5,0,4.6-0.8,6.2-2.3c1.6-1.5,2.5-3.6,2.5-6.1v-14.4C120.5,128.2,119.6,127.3,118.5,127.3L118.5,127.3z"/>
				</g>
				<g>
					<path class="st25" d="M129.6,151.1c-1.6,0-3.1-0.3-4.5-0.9c-1.4-0.6-2.5-1.5-3.3-2.6c-0.8-1.1-1.2-2.5-1.2-4c0-0.6,0.4-1,1-1
						h3.6c0.6,0,1,0.4,1,1c0,0.9,0.3,1.5,0.8,1.9c0.6,0.5,1.5,0.7,2.7,0.7c1,0,1.7-0.2,2.2-0.5c0.4-0.3,0.6-0.7,0.6-1.2
						c0-0.8-0.3-1.1-0.6-1.3c-0.4-0.3-1.2-0.7-3.1-1.3c-1.8-0.5-3.1-1.1-4.2-1.8c-2.2-1.4-3.3-3.2-3.3-5.4c0-2,0.8-3.6,2.4-4.9
						c1.5-1.2,3.5-1.8,5.9-1.8c1.6,0,3,0.3,4.2,0.9c1.3,0.6,2.3,1.5,3,2.6c0.7,1.1,1.1,2.4,1.1,3.8c0,0.6-0.4,1-1,1h-3.6
						c-0.6,0-1-0.4-1-1c0-0.8-0.2-1.4-0.7-1.8c-0.5-0.4-1.2-0.7-2.2-0.7c-0.9,0-1.6,0.2-2.1,0.5c-0.4,0.3-0.6,0.7-0.6,1.3
						c0,0.3,0.1,0.7,0.6,1.1c0.4,0.3,1.3,0.8,3.1,1.3c1.7,0.5,3.1,1.1,4.1,1.7c1.1,0.7,1.9,1.5,2.5,2.4c0.5,0.9,0.8,2,0.8,3.3
						c0,2-0.8,3.7-2.4,4.9C134.1,150.5,132.1,151.1,129.6,151.1z"/>
					<path class="st10" d="M129.5,129c1.4,0,2.7,0.3,3.8,0.8c1.1,0.5,2,1.3,2.6,2.3c0.6,1,1,2.1,1,3.2h-3.6c0-1.1-0.3-1.9-1-2.5
						c-0.7-0.6-1.6-0.9-2.9-0.9c-1.2,0-2.1,0.2-2.7,0.7c-0.6,0.5-1,1.2-1,2.1c0,0.8,0.3,1.4,1,1.9c0.7,0.5,1.8,1,3.4,1.5
						c1.6,0.5,2.9,1,3.9,1.6c1,0.6,1.7,1.3,2.1,2.1c0.5,0.8,0.7,1.7,0.7,2.8c0,1.7-0.7,3.1-2,4.1c-1.3,1-3.1,1.5-5.3,1.5
						c-1.5,0-2.9-0.3-4.1-0.8c-1.2-0.6-2.2-1.3-2.9-2.3c-0.7-1-1-2.1-1-3.4h3.6c0,1.2,0.4,2.1,1.2,2.7c0.8,0.6,1.9,1,3.3,1
						c1.2,0,2.2-0.3,2.8-0.8c0.6-0.5,0.9-1.2,0.9-2c0-0.9-0.3-1.6-1-2.1c-0.6-0.5-1.8-1-3.4-1.5c-1.7-0.5-3-1.1-3.9-1.7
						c-1.9-1.2-2.8-2.7-2.8-4.6c0-1.7,0.7-3,2-4.1C125.6,129.5,127.3,129,129.5,129 M129.5,127c-2.6,0-4.8,0.7-6.5,2
						c-1.8,1.4-2.8,3.4-2.8,5.7c0,1.8,0.6,4.3,3.7,6.3c0.3,0.2,0.7,0.4,1.1,0.6h-3.5c-1.1,0-2,0.9-2,2c0,1.7,0.5,3.2,1.4,4.5
						c0.9,1.3,2.2,2.3,3.7,2.9c1.5,0.7,3.1,1,4.9,1c2.7,0,4.9-0.6,6.6-1.9c1.8-1.4,2.7-3.3,2.7-5.7c0-1.4-0.3-2.7-0.9-3.8
						c-0.6-1.1-1.6-2-2.8-2.8c-0.4-0.2-0.8-0.5-1.3-0.7h3c1.1,0,2-0.9,2-2c0-1.6-0.4-3-1.3-4.3c-0.8-1.3-2-2.3-3.5-3
						C132.8,127.3,131.2,127,129.5,127L129.5,127z M131.7,136.4c-0.3-0.1-0.6-0.2-0.9-0.3c-1.8-0.5-2.6-1-2.8-1.2
						c-0.2-0.2-0.2-0.2-0.2-0.3c0-0.4,0.1-0.4,0.2-0.5c0.3-0.2,0.8-0.3,1.5-0.3c0.5,0,1.2,0.1,1.5,0.4c0.1,0.1,0.3,0.3,0.3,1
						C131.4,135.7,131.5,136.1,131.7,136.4L131.7,136.4z M129.6,145.3c-0.9,0-1.6-0.2-2-0.5c-0.2-0.2-0.4-0.5-0.4-1.2
						c0-0.5-0.2-1-0.5-1.3c0.5,0.2,1.1,0.4,1.7,0.6c1.9,0.6,2.6,1,2.8,1.2c0.1,0.1,0.2,0.1,0.2,0.5c0,0.2-0.1,0.3-0.2,0.4
						C131.1,145,130.7,145.3,129.6,145.3L129.6,145.3z"/>
				</g>
			</g>
		</g>
		<g>
			<path class="st41" d="M551.3,186.3c-1.3-1.6-3.5-2.6-6.7-3.2c-3.2-0.6-5.5-0.8-7.2-0.9l-4.3,22.9l5.2,1l1.6-8.3
				c0.4,0.2,1,0.3,1.7,0.5c3.2,0.6,5.9,0.3,8-1.1c1.7-1,2.7-2.8,3.2-5.1C553.2,189.8,552.7,187.7,551.3,186.3z M542.4,194.1
				c-0.8-0.2-1.3-0.2-1.8-0.5l1.3-6.9c0.4-0.1,1.1,0,2.2,0.2c2.6,0.5,3.8,1.9,3.5,4.2C547.1,193.6,545.2,194.7,542.4,194.1z"/>
			<path class="st41" d="M560,199.5c-2-1.1-2.5-1.6-2.4-2.4c0.2-1,1-1.3,2.3-1c1.4,0.3,2.8,1.2,3.5,1.6l1.6-3.5
				c-1-0.7-2.5-1.5-4.5-1.8c-4.1-0.8-7.3,1.1-7.9,4.2c-0.5,2,0.6,4.2,3.8,6c1.9,1,2.3,1.5,2.1,2.4c-0.2,0.8-1,1.3-2.5,1
				c-1.5-0.3-3.4-1.4-4.3-2l-1.7,3.6c1.2,1,3,1.8,5.2,2.2c4.8,0.9,7.8-0.9,8.4-4.1C563.9,203.1,563,201.2,560,199.5z"/>
		</g>
		<g>
			<path class="st20" d="M497.7,117.4l-47.6,6.4c-3,0.4-4.9,5.1-4.2,10.4l2.6,19.6c0.7,4.9,3.3,8.7,6.1,8.9c0.4,0,0.8,0.6,0.9,1.3
				l1.4,10.7c0.1,0.6,0.6,0.8,0.7,0.3l3.3-12.5c0.1-0.4,0.3-0.6,0.6-0.7l41.4-5.6c3-0.4,4.9-5.1,4.2-10.4l-2.6-19.6
				C503.8,121,500.8,117,497.7,117.4z"/>
			<g>
				<path class="st41" d="M487.5,131.3c1.9-0.3,2.8-1.7,2.5-3.2c-0.2-1.7-1.5-2.6-3.3-2.4c-1.8,0.2-2.7,1.5-2.5,3.2
					C484.4,130.4,485.7,131.5,487.5,131.3z"/>
				<path class="st41" d="M467.5,129.4l-4.1,25.4l5.7-0.8l0.9-6.5l6.9-0.9l2.7,6l5.9-0.8l-10.8-23.4L467.5,129.4z M470.1,143.3
					c0,0,1.1-8.7,1.3-10.3c0.4,1.4,4,9.6,4.1,9.5L470.1,143.3z"/>
				
					<rect x="486.3" y="133.5" transform="matrix(0.9911 -0.1332 0.1332 0.9911 -14.6088 66.4184)" class="st41" width="5.5" height="17.8"/>
			</g>
		</g>
	</g>
	<line class="st25" x1="-533" y1="205.7" x2="-533" y2="-211.3"/>
</g>
</svg>
