<?xml version="1.0" encoding="utf-8"?>
<!-- Generator: Adobe Illustrator 16.0.0, SVG Export Plug-In . SVG Version: 6.00 Build 0)  -->
<!DOCTYPE svg PUBLIC "-//W3C//DTD SVG 1.1//EN" "http://www.w3.org/Graphics/SVG/1.1/DTD/svg11.dtd">
<svg version="1.1" id="レイヤー_1" xmlns="http://www.w3.org/2000/svg" xmlns:xlink="http://www.w3.org/1999/xlink" x="0px"
	 y="0px" width="40px" height="40px" viewBox="0 0 40 40" enable-background="new 0 0 40 40" xml:space="preserve">
<g>
	<path fill="#AAAAAA" d="M40,20C40,8.934,31.066,0,20,0C31.045,0,40,8.954,40,20z"/>
	<path fill="#AAAAAA" d="M0,20c0,11.066,8.934,20,20,20C8.953,40,0,31.046,0,20z"/>
	<path fill="#AAAAAA" d="M20,0C8.934,0,0,8.934,0,20C0,8.954,8.953,0,20,0z"/>
	<path fill="#AAAAAA" d="M20,40c11.065,0,20-8.934,20-20C40,31.046,31.045,40,20,40z"/>
	<path fill="#AAAAAA" d="M40,20C40,8.954,31.045,0,20,0C8.953,0,0,8.954,0,20s8.953,20,20,20C31.045,40,40,31.046,40,20z M20,38.667
		C9.732,38.667,1.332,30.268,1.332,20S9.733,1.333,20,1.333c10.266,0,18.666,8.399,18.666,18.667S30.266,38.667,20,38.667z"/>
	<path fill="#AAAAAA" d="M20.531,11.691c-0.141-0.141-0.332-0.22-0.531-0.22s-0.39,0.079-0.53,0.22L7.914,23.248
		c-0.293,0.293-0.293,0.768,0,1.061s0.768,0.293,1.061,0L20,13.282l11.025,11.026c0.146,0.146,0.338,0.22,0.531,0.22
		c0.191,0,0.383-0.073,0.529-0.22c0.293-0.293,0.293-0.768,0-1.061L20.531,11.691z"/>
</g>
</svg>
