<?xml version="1.0" encoding="utf-8"?>
<!-- Generator: Adobe Illustrator 23.0.1, SVG Export Plug-In . SVG Version: 6.00 Build 0)  -->
<svg version="1.1" id="レイヤー_1" xmlns="http://www.w3.org/2000/svg" xmlns:xlink="http://www.w3.org/1999/xlink" x="0px"
	 y="0px" viewBox="0 0 310 417" style="enable-background:new 0 0 310 417;" xml:space="preserve">
<style type="text/css">
	.st0{clip-path:url(#SVGID_2_);}
	.st1{fill-rule:evenodd;clip-rule:evenodd;fill:#DEDEDE;}
	.st2{fill:#FFFFFF;stroke:#DEDEDE;stroke-miterlimit:10;}
	.st3{fill:#DEDEDE;}
	.st4{fill:#CCCCCC;}
	.st5{fill:#DEDEDE;stroke:#DEDEDE;stroke-linecap:round;stroke-linejoin:round;stroke-miterlimit:10;}
	.st6{fill-rule:evenodd;clip-rule:evenodd;fill:#FFFFFF;stroke:#DEDEDE;stroke-miterlimit:10;}
	.st7{fill:#FFC4BB;stroke:#0D343F;stroke-width:2;stroke-linecap:round;stroke-linejoin:round;stroke-miterlimit:10;}
	.st8{fill:#FFFFFF;stroke:#0D343F;stroke-width:2;stroke-linecap:round;stroke-linejoin:round;stroke-miterlimit:10;}
	
		.st9{fill:none;stroke:#0D343F;stroke-width:2;stroke-linecap:round;stroke-linejoin:round;stroke-miterlimit:10;stroke-dasharray:2.837;}
	.st10{fill:#888888;}
	.st11{fill:#0D343F;}
	.st12{fill:#EDEDED;}
	.st13{fill:#FFFFFF;stroke:#0D343F;stroke-width:1.5;stroke-linecap:round;stroke-linejoin:round;stroke-miterlimit:10;}
	.st14{fill:#AAAAAA;}
	.st15{fill:#ECECEC;}
	.st16{fill:none;stroke:#0D343F;stroke-width:2;stroke-miterlimit:10;}
	.st17{fill:none;stroke:#0D343F;stroke-width:2;stroke-linecap:round;stroke-linejoin:round;stroke-miterlimit:10;}
	.st18{fill:#ECECEC;stroke:#0D343F;stroke-width:2;stroke-linecap:round;stroke-linejoin:round;stroke-miterlimit:10;}
	.st19{fill:#DEDEDE;stroke:#0D343F;stroke-width:2;stroke-linecap:round;stroke-linejoin:round;stroke-miterlimit:10;}
	.st20{fill:#233740;}
	.st21{fill:#37C8A3;stroke:#0D343F;stroke-width:2;stroke-linecap:round;stroke-linejoin:round;stroke-miterlimit:10;}
	.st22{fill:#DD8D85;stroke:#0D343F;stroke-width:2;stroke-linecap:round;stroke-linejoin:round;stroke-miterlimit:10;}
	.st23{fill:#37C8A3;stroke:#233740;stroke-width:2;stroke-miterlimit:10;}
	.st24{fill:#F1C1B9;stroke:#233740;stroke-width:2;stroke-miterlimit:10;}
	.st25{fill:#FFFFFF;stroke:#233740;stroke-width:2;stroke-miterlimit:10;}
	.st26{fill:#FFFFFF;}
	.st27{fill:#F1C1B9;}
	.st28{fill:none;stroke:#233740;stroke-width:2;stroke-miterlimit:10;}
	.st29{fill:none;stroke:#233740;stroke-width:2;stroke-linecap:round;stroke-linejoin:round;stroke-miterlimit:10;}
	.st30{fill:#EFBAD5;stroke:#233740;stroke-width:2;stroke-linecap:round;stroke-linejoin:round;stroke-miterlimit:10;}
	.st31{fill:#DED99C;stroke:#233740;stroke-width:2;stroke-linecap:round;stroke-linejoin:round;stroke-miterlimit:10;}
	.st32{fill:#F1C1B9;stroke:#233740;stroke-width:2;stroke-linecap:round;stroke-miterlimit:10;}
	.st33{fill:#37C8A3;stroke:#233740;stroke-width:1.5;stroke-miterlimit:10;}
	.st34{fill:#A8E1E2;stroke:#233740;stroke-width:2;stroke-linecap:round;stroke-linejoin:round;stroke-miterlimit:10;}
	.st35{fill:#B1E0D3;stroke:#0D343F;stroke-width:2;stroke-linecap:round;stroke-linejoin:round;stroke-miterlimit:10;}
	.st36{fill:#79C8A4;stroke:#233740;stroke-width:2;stroke-linecap:round;stroke-linejoin:round;stroke-miterlimit:10;}
	.st37{fill:#FFC4BB;stroke:#233740;stroke-width:0.5;stroke-miterlimit:10;}
	.st38{fill:#77C5A1;stroke:#233740;stroke-width:0.5;stroke-miterlimit:10;}
	.st39{fill:#233740;stroke:#233740;stroke-width:0.5;stroke-miterlimit:10;}
	.st40{fill:none;stroke:#233740;stroke-width:0.5;stroke-miterlimit:10;}
	.st41{fill:#233740;stroke:#233740;stroke-width:2;stroke-miterlimit:10;}
	.st42{fill:#FFFFFF;stroke:#233740;stroke-width:2;stroke-linecap:round;stroke-linejoin:round;stroke-miterlimit:10;}
	.st43{fill:#F1C1B9;stroke:#233740;stroke-width:1.5;stroke-miterlimit:10;}
	.st44{fill:#FFC4BB;}
	.st45{fill:#37C8A3;}
</style>
<g id="BACKGROUND">
</g>
<g>
	<g>
		<defs>
			<rect id="SVGID_1_" x="19" width="291" height="417"/>
		</defs>
		<clipPath id="SVGID_2_">
			<use xlink:href="#SVGID_1_"  style="overflow:visible;"/>
		</clipPath>
		<g class="st0">
			<path class="st1" d="M548.4,359.8c0,31.2-99.6,56.6-222.5,56.6s-222.5-25.3-222.5-56.6c0-31.2,99.6-56.6,222.5-56.6
				C448.7,303.2,548.4,328.5,548.4,359.8z"/>
			<g>
				<path class="st2" d="M479.7,93.2l-16.5-16.8c0,0,11.6-10.1,10.4-23.7c11.1-4.9,34.6-10.4,41.3-12l-22.8,22.4
					c-1.3-0.7-3-0.6-4.1,0.6c-1.4,1.4-1.4,3.6,0,4.9c1.4,1.4,3.6,1.4,4.9,0.1c1.1-1.1,1.3-2.8,0.6-4.1l22.8-22.4
					c-1.6,6.7-7.6,30.1-12.7,41.1C490,81.8,479.7,93.2,479.7,93.2z"/>
				<path class="st3" d="M503.6,83.2c5.1-11,11.1-34.4,12.7-41.1l-22.8,22.4c0.7,1.3,0.5,3-0.6,4.2c-1.4,1.4-3.6,1.3-4.9-0.1
					l-16.4,16.1l8.2,8.4C479.7,93.2,490,81.8,503.6,83.2z"/>
				<g>
					<path class="st3" d="M383.6,171.1L383.6,171.1c-2.9-2.9-2.8-7.7,0.1-10.6l82.4-80.9l10.5,10.7l-82.4,80.9
						C391.3,174.1,386.5,174,383.6,171.1z"/>
					<path class="st3" d="M383.6,171.1L383.6,171.1c-2.9-2.9-2.8-7.7,0.1-10.6l82.4-80.9l10.5,10.7l-82.4,80.9
						C391.3,174.1,386.5,174,383.6,171.1z"/>
				</g>
				<g>
					<g>
						<path class="st4" d="M475.9,95l-14.5-14.8c-1.3-1.3-1.3-3.4,0-4.7l1-0.9c1.3-1.3,3.4-1.3,4.7,0l14.6,14.8
							c1.3,1.3,1.3,3.4,0,4.7l-1,0.9C479.3,96.3,477.2,96.3,475.9,95z"/>
						<path class="st4" d="M475.9,95l-14.5-14.8c-1.3-1.3-1.3-3.4,0-4.7l1-0.9c1.3-1.3,3.4-1.3,4.7,0l14.6,14.8
							c1.3,1.3,1.3,3.4,0,4.7l-1,0.9C479.3,96.3,477.2,96.3,475.9,95z"/>
					</g>
				</g>
				<g>
					<path class="st5" d="M448.6,36c20-17.6,50.5-15.7,68.1,4.3c17.6,20,15.7,50.6-4.3,68.2l-0.5-0.6c19.7-17.3,21.6-47.4,4.3-67.1
						s-47.4-21.6-67-4.3L448.6,36z"/>
					<polygon class="st5" points="484.5,4.9 485.1,4.3 548.4,76.3 547.8,76.8 					"/>
					<g>
						
							<rect x="512.9" y="37" transform="matrix(0.7508 -0.6605 0.6605 0.7508 101.8686 351.249)" class="st5" width="7.2" height="7.2"/>
						<path class="st5" d="M510.8,40.2l6-5.3l5.3,6l-6,5.3L510.8,40.2z M516.7,36.1l-4.8,4.2l4.2,4.8l4.8-4.2L516.7,36.1z"/>
					</g>
					<g>
						
							<rect x="445.3" y="32.7" transform="matrix(0.7507 -0.6607 0.6607 0.7507 87.9062 305.6111)" class="st5" width="7.2" height="7.2"/>
						<path class="st5" d="M443.2,35.9l6-5.3l5.3,6l-6,5.3L443.2,35.9z M449.1,31.8l-4.8,4.2l4.2,4.8l4.8-4.2L449.1,31.8z"/>
					</g>
					<g>
						
							<rect x="508.6" y="104.8" transform="matrix(0.7508 -0.6605 0.6605 0.7508 56.0449 365.3452)" class="st5" width="7.2" height="7.2"/>
						<path class="st5" d="M506.7,108l6-5.3l5.3,6l-6,5.3L506.7,108z M512.6,103.8l-4.8,4.2l4.2,4.8l4.8-4.2L512.6,103.8z"/>
					</g>
					<g>
						<path class="st5" d="M550.6,79.4c-1.5,1.3-3.7,1.2-5-0.3s-1.2-3.7,0.3-5.1c1.5-1.3,3.7-1.2,5,0.3
							C552.2,75.8,552.1,78.1,550.6,79.4z"/>
						<path class="st5" d="M544.2,76.4c0.1-1.1,0.5-2,1.3-2.7c1.6-1.4,4.2-1.3,5.6,0.4c0.7,0.8,1,1.8,1,2.9c-0.1,1.1-0.5,2-1.3,2.7
							l0,0c-0.8,0.7-1.8,1.1-2.9,1c-1.1-0.1-2-0.5-2.7-1.3C544.5,78.5,544.2,77.5,544.2,76.4z M551.4,76.9c0.1-0.8-0.2-1.7-0.8-2.3
							c-1.2-1.3-3.2-1.4-4.5-0.3c-1.3,1.2-1.4,3.2-0.3,4.5c0.6,0.6,1.3,1,2.2,1.1c0.8,0.1,1.7-0.2,2.3-0.8l0,0
							C551,78.5,551.3,77.7,551.4,76.9z"/>
					</g>
					<g>
						<path class="st5" d="M487.2,7.3c-1.5,1.3-3.7,1.2-5-0.3s-1.2-3.7,0.3-5.1c1.5-1.3,3.7-1.2,5.1,0.3
							C488.8,3.7,488.6,6,487.2,7.3z"/>
						<path class="st5" d="M480.8,4.3c0.1-1,0.5-2,1.3-2.7c1.6-1.4,4.2-1.3,5.6,0.4c1.4,1.6,1.3,4.2-0.4,5.6l0,0
							c-1.6,1.4-4.2,1.3-5.6-0.4C481.1,6.4,480.8,5.4,480.8,4.3z M488,4.8c0.1-0.8-0.2-1.6-0.8-2.3C486,1.2,484,1,482.7,2.2
							s-1.4,3.2-0.3,4.5c1.2,1.3,3.2,1.4,4.5,0.3C487.6,6.4,487.9,5.6,488,4.8z"/>
					</g>
				</g>
			</g>
			<g>
				<g>
					<g>
						<g>
							<g>
								<path class="st1" d="M240.9,80.2c4,3,7.6,6.5,10.6,10.4l13.5-2.5l9,20.9l-11.1,8.1c0.7,4.9,0.8,9.8,0.2,14.8l11.3,7.8
									l-8.5,21.1l-13.6-2.2c-3,4-6.5,7.6-10.4,10.6l2.5,13.5l-20.9,8.9l-8.1-11.1c-4.9,0.7-9.8,0.8-14.8,0.2l-7.8,11.3l-21.1-8.5
									l2.2-13.6c-4-3-7.6-6.5-10.6-10.4l-13.5,2.5l-8.9-20.9l11.2-8.1c-0.7-4.9-0.8-9.8-0.2-14.8l-11.3-7.8l8.5-21.1l13.6,2.2
									c3-4,6.5-7.6,10.4-10.6l-2.5-13.5l20.9-8.9l8.1,11.2c4.9-0.7,9.8-0.8,14.8-0.2l7.8-11.3l21.1,8.5L240.9,80.2L240.9,80.2z
									 M217.4,102.8c-12.5-5-26.7,1-31.8,13.6c-5,12.5,1,26.7,13.6,31.8c12.5,5,26.7-1,31.8-13.6
									C236,122.1,229.9,107.9,217.4,102.8z"/>
							</g>
						</g>
					</g>
				</g>
				<g>
					<g>
						<g>
							<g>
								<path class="st6" d="M131.7,25c2.3,1.7,4.3,3.7,6,5.8l7.6-1.4l5,11.8l-6.3,4.5c0.4,2.7,0.4,5.5,0.1,8.3l6.4,4.4l-4.8,11.9
									l-7.6-1.2c-1.7,2.3-3.7,4.3-5.8,6l1.4,7.6l-11.8,5l-4.5-6.3c-2.7,0.4-5.5,0.4-8.3,0.1l-4.4,6.4l-11.9-4.8l1.2-7.6
									c-2.3-1.7-4.3-3.7-6-5.8L80.4,71l-5-11.8l6.3-4.5c-0.4-2.7-0.4-5.5-0.1-8.3L75.2,42L80,30.1l7.6,1.2c1.7-2.3,3.7-4.3,5.8-6
									L92,17.8l11.8-5l4.5,6.3c2.7-0.4,5.5-0.4,8.3-0.1l4.4-6.4l11.9,4.8L131.7,25L131.7,25z M118.4,37.7c-7-2.8-15,0.6-17.8,7.6
									c-2.8,7,0.6,15,7.6,17.8c7,2.8,15-0.6,17.8-7.6C128.9,48.5,125.5,40.5,118.4,37.7z"/>
							</g>
						</g>
					</g>
				</g>
			</g>
			<g>
				<path class="st7" d="M396.3,346H261.2c-11.8,0-21.3-9.2-21.3-20.7V34.1c0-11.4,9.5-20.7,21.3-20.7h135.1
					c11.8,0,21.3,9.2,21.3,20.7v291.3C417.6,336.8,408.1,346,396.3,346z"/>
				<path class="st8" d="M406.8,33.8v288.5c0,6.8-5.7,12.2-12.6,12.2H263.4c-7,0-12.6-5.5-12.6-12.2V33.8c0-6.8,5.7-12.3,12.6-12.3
					h21.8c1.2,0,2.3,0.7,2.9,1.7l2.3,4.5c1.1,2.1,3.2,3.4,5.6,3.4h65.6c2.4,0,4.5-1.3,5.6-3.4l2.3-4.5c0.5-1,1.6-1.7,2.9-1.7h21.8
					C401.1,21.6,406.8,27.1,406.8,33.8z"/>
				<path class="st8" d="M356.3,25.9h-52.8c-1.2,0-2.2-1-2.2-2.2l0,0c0-1.2,1-2.2,2.2-2.2h52.8c1.2,0,2.2,1,2.2,2.2l0,0
					C358.5,24.9,357.5,25.9,356.3,25.9z"/>
			</g>
			<path class="st9" d="M386,323.9H268.5c-4.6,0-8.4-3.8-8.4-8.4V274c0-4.6,3.8-8.4,8.4-8.4H386c4.6,0,8.4,3.8,8.4,8.4v41.5
				C394.4,320.1,390.7,323.9,386,323.9z"/>
			<path class="st9" d="M385.6,180.9h-67.8c-3.9,0-7-2.7-7-6V146c0-3.3,3.1-6,7-6h67.8c3.9,0,7,2.7,7,6v28.8
				C392.6,178.2,389.5,180.9,385.6,180.9z"/>
			<g>
				<path class="st10" d="M271.7,259.1c-3.4,0-6.2-2.8-6.2-6.2v-50.8c0-3.4,2.8-6.2,6.2-6.2h120.5c3.4,0,6.2,2.8,6.2,6.2v50.8
					c0,3.4-2.8,6.2-6.2,6.2H271.7z"/>
				<path class="st11" d="M392.1,196.9c2.9,0,5.2,2.3,5.2,5.2v50.8c0,2.9-2.3,5.2-5.2,5.2H271.7c-2.9,0-5.2-2.3-5.2-5.2v-50.8
					c0-2.9,2.3-5.2,5.2-5.2L392.1,196.9 M392.1,194.9H271.7c-4,0-7.2,3.2-7.2,7.2v50.8c0,4,3.2,7.2,7.2,7.2h120.5
					c4,0,7.2-3.2,7.2-7.2v-50.8C399.3,198.1,396.1,194.9,392.1,194.9L392.1,194.9z"/>
			</g>
			<g>
				<path class="st12" d="M266.7,253.8c-3.4,0-6.2-2.8-6.2-6.2v-50.8c0-3.4,2.8-6.2,6.2-6.2h120c3.4,0,6.2,2.8,6.2,6.2v50.8
					c0,3.4-2.8,6.2-6.2,6.2H266.7z"/>
				<path class="st11" d="M386.7,191.6c2.9,0,5.2,2.3,5.2,5.2v50.8c0,2.8-2.3,5.2-5.2,5.2h-120c-2.9,0-5.2-2.3-5.2-5.2v-50.8
					c0-2.9,2.3-5.2,5.2-5.2H386.7 M386.7,189.6h-120c-4,0-7.2,3.2-7.2,7.2v50.8c0,4,3.2,7.2,7.2,7.2h120c4,0,7.2-3.2,7.2-7.2v-50.8
					C393.9,192.8,390.7,189.6,386.7,189.6L386.7,189.6z"/>
			</g>
			<g>
				<path class="st13" d="M347.9,210.2h-31.1c-0.8,0-1.5-0.7-1.5-1.5l0,0c0-0.8,0.7-1.5,1.5-1.5h31.1c0.8,0,1.5,0.7,1.5,1.5l0,0
					C349.4,209.5,348.7,210.2,347.9,210.2z"/>
				<path class="st13" d="M333.7,216.3h-16.9c-0.8,0-1.5-0.7-1.5-1.5l0,0c0-0.8,0.7-1.5,1.5-1.5h16.9c0.8,0,1.5,0.7,1.5,1.5l0,0
					C335.2,215.6,334.5,216.3,333.7,216.3z"/>
				<path class="st13" d="M385.8,216.3H340c-0.8,0-1.5-0.7-1.5-1.5l0,0c0-0.8,0.7-1.5,1.5-1.5h45.8c0.8,0,1.5,0.7,1.5,1.5l0,0
					C387.3,215.6,386.6,216.3,385.8,216.3z"/>
				<path class="st13" d="M342.9,222.4h-26.2c-0.8,0-1.5-0.7-1.5-1.5l0,0c0-0.8,0.7-1.5,1.5-1.5h26.2c0.8,0,1.5,0.7,1.5,1.5l0,0
					C344.5,221.7,343.8,222.4,342.9,222.4z"/>
				<path class="st13" d="M365.2,222.4h-16.5c-0.8,0-1.5-0.7-1.5-1.5l0,0c0-0.8,0.7-1.5,1.5-1.5h16.5c0.8,0,1.5,0.7,1.5,1.5l0,0
					C366.7,221.7,366,222.4,365.2,222.4z"/>
				<path class="st13" d="M385.8,222.4h-15.2c-0.8,0-1.5-0.7-1.5-1.5l0,0c0-0.8,0.7-1.5,1.5-1.5h15.2c0.8,0,1.5,0.7,1.5,1.5l0,0
					C387.3,221.7,386.6,222.4,385.8,222.4z"/>
				<path class="st13" d="M385.8,228.5h-69c-0.8,0-1.5-0.7-1.5-1.5l0,0c0-0.8,0.7-1.5,1.5-1.5h69c0.8,0,1.5,0.7,1.5,1.5l0,0
					C387.3,227.8,386.6,228.5,385.8,228.5z"/>
				<path class="st13" d="M354.7,234.6h-38c-0.8,0-1.5-0.7-1.5-1.5l0,0c0-0.8,0.7-1.5,1.5-1.5h38c0.8,0,1.5,0.7,1.5,1.5l0,0
					C356.2,233.9,355.6,234.6,354.7,234.6z"/>
				<path class="st13" d="M385.8,234.6h-24.9c-0.8,0-1.5-0.7-1.5-1.5l0,0c0-0.8,0.7-1.5,1.5-1.5h24.9c0.8,0,1.5,0.7,1.5,1.5l0,0
					C387.3,233.9,386.6,234.6,385.8,234.6z"/>
				<path class="st13" d="M339,240.8h-22.3c-0.8,0-1.5-0.7-1.5-1.5l0,0c0-0.8,0.7-1.5,1.5-1.5H339c0.8,0,1.5,0.7,1.5,1.5l0,0
					C340.6,240.1,339.9,240.8,339,240.8z"/>
				<path class="st13" d="M367.4,240.8h-22.3c-0.8,0-1.5-0.7-1.5-1.5l0,0c0-0.8,0.7-1.5,1.5-1.5h22.3c0.8,0,1.5,0.7,1.5,1.5l0,0
					C368.9,240.1,368.3,240.8,367.4,240.8z"/>
				<path class="st13" d="M385.8,240.8h-13c-0.8,0-1.5-0.7-1.5-1.5l0,0c0-0.8,0.7-1.5,1.5-1.5h13c0.8,0,1.5,0.7,1.5,1.5l0,0
					C387.3,240.1,386.6,240.8,385.8,240.8z"/>
				<path class="st13" d="M347.9,246.9h-31.1c-0.8,0-1.5-0.7-1.5-1.5l0,0c0-0.8,0.7-1.5,1.5-1.5h31.1c0.8,0,1.5,0.7,1.5,1.5l0,0
					C349.4,246.2,348.7,246.9,347.9,246.9z"/>
				<path class="st13" d="M385.8,210.2h-31.1c-0.8,0-1.5-0.7-1.5-1.5l0,0c0-0.8,0.7-1.5,1.5-1.5h31.1c0.8,0,1.5,0.7,1.5,1.5l0,0
					C387.3,209.5,386.6,210.2,385.8,210.2z"/>
			</g>
			<g>
				<g>
					<path class="st14" d="M260.6,197.9v-1.1c0-3.4,2.8-6.2,6.2-6.2h120c3.4,0,6.2,2.8,6.2,6.2v1.1H260.6z"/>
					<path class="st11" d="M386.7,191.6c2.9,0,5.2,2.3,5.2,5.2v0.1H261.6v-0.1c0-2.9,2.3-5.2,5.2-5.2H386.7 M386.7,189.6h-120
						c-4,0-7.2,3.2-7.2,7.2v2.1h134.3v-2.1C393.9,192.8,390.7,189.6,386.7,189.6L386.7,189.6z"/>
				</g>
				<g>
					<g>
						<path class="st15" d="M368.6,194.4c0,0.9-0.7,1.7-1.7,1.7s-1.7-0.7-1.7-1.7c0-0.9,0.7-1.7,1.7-1.7S368.6,193.5,368.6,194.4z"
							/>
					</g>
					<g>
						<path class="st15" d="M377.1,194.4c0,0.9-0.7,1.7-1.7,1.7c-0.9,0-1.7-0.7-1.7-1.7c0-0.9,0.7-1.7,1.7-1.7
							C376.3,192.8,377.1,193.5,377.1,194.4z"/>
					</g>
					<g>
						<path class="st15" d="M385.6,194.4c0,0.9-0.7,1.7-1.7,1.7c-0.9,0-1.7-0.7-1.7-1.7c0-0.9,0.7-1.7,1.7-1.7
							C384.9,192.8,385.6,193.5,385.6,194.4z"/>
					</g>
				</g>
			</g>
			<g>
				<path class="st16" d="M296.7,180.9h-26.6c-3.9,0-7.2-3.2-7.2-7.2v-26.6c0-3.9,3.2-7.2,7.2-7.2h26.6c3.9,0,7.2,3.2,7.2,7.2v26.6
					C303.8,177.7,300.6,180.9,296.7,180.9z"/>
				<g>
					<polyline class="st17" points="277,154.6 271.1,160.5 277.1,166.4 					"/>
					<polyline class="st17" points="289.8,154.6 295.6,160.5 289.7,166.4 					"/>
					<line class="st17" x1="286.1" y1="154.6" x2="280.6" y2="166.4"/>
				</g>
			</g>
			<g>
				<path class="st7" d="M386.1,278.4v33.1c0,1.8-1.5,3.3-3.3,3.3h-47c-1.8,0-3.3-1.5-3.3-3.3v-33.1c0-1.8,1.5-3.3,3.3-3.3h47
					C384.6,275.1,386.1,276.6,386.1,278.4z"/>
				<path class="st18" d="M383,285.6c0,4.3-3.5,7.8-7.8,7.8s-7.8-3.5-7.8-7.8s3.5-7.8,7.8-7.8S383,281.3,383,285.6z"/>
				<path class="st8" d="M364,314.7h-28.2c-1.8,0-3.3-1.5-3.3-3.3v-5.2l12.3-21.4c0.6-1.1,2.3-1.1,2.9,0l9.3,16.1l6.9,12
					C364.4,313.6,364.3,314.3,364,314.7z"/>
				<path class="st18" d="M376.2,314.7h-27l7.9-13.7l4.3-7.4c0.6-1,2-1,2.6,0L376.2,314.7z"/>
			</g>
			<g>
				<path class="st15" d="M270.2,247.3c-2.1,0-3.9-1.7-3.9-3.9v-35.3c0-2.1,1.7-3.9,3.9-3.9h35.3c2.1,0,3.9,1.7,3.9,3.9v35.3
					c0,2.1-1.7,3.9-3.9,3.9H270.2z"/>
				<path class="st11" d="M305.6,205.3c1.6,0,2.9,1.3,2.9,2.9v35.3c0,1.6-1.3,2.9-2.9,2.9h-35.3c-1.6,0-2.9-1.3-2.9-2.9v-35.3
					c0-1.6,1.3-2.9,2.9-2.9H305.6 M305.6,203.3h-35.3c-2.7,0-4.9,2.2-4.9,4.9v35.3c0,2.7,2.2,4.9,4.9,4.9h35.3
					c2.7,0,4.9-2.2,4.9-4.9v-35.3C310.4,205.5,308.3,203.3,305.6,203.3L305.6,203.3z"/>
			</g>
			<g>
				<path class="st19" d="M303.1,314.7h-24.3c-4.3,0-7.7-3.5-7.7-7.7v-24.3c0-4.3,3.5-7.7,7.7-7.7h24.3c4.3,0,7.7,3.5,7.7,7.7V307
					C310.8,311.2,307.4,314.7,303.1,314.7z"/>
				<path class="st20" d="M286.3,287.3l11.4,6.6c0.7,0.4,0.7,1.4,0,1.8l-11.4,6.6c-0.7,0.4-1.6-0.1-1.6-0.9v-13.2
					C284.7,287.4,285.6,286.9,286.3,287.3z"/>
			</g>
			<g>
				<path class="st18" d="M329.4,354.2c-0.1-0.6-0.1-1.2,0.1-1.8c0.5-2,1.1-5.8-0.2-10c-2.2-6.9-11.1-13-11.1-13s2.4,10.1,4.4,14.5
					c1.5,3.2,4,6.8,5.4,8.6c0.4,0.5,0.7,1.1,0.8,1.8c1.4,8,1.2,14.1,1.2,14.2h0.7C330.6,368.5,330.9,362.3,329.4,354.2z"/>
				<path class="st21" d="M336.5,347.8c1.8-5.6,2.6-12.2,2.6-12.2s-8,6.6-8.6,11.7c-0.4,3.1,0.1,5.6,0.5,7.1
					c0.2,0.6,0.3,1.3,0.2,1.9c-0.8,7.5-0.2,13.3-0.2,13.4l0.6-0.1c0-0.1-0.6-5.4,0.1-12.5c0.1-1,0.5-1.9,1.1-2.6
					C334,353,335.6,350.7,336.5,347.8z"/>
				<path class="st18" d="M344.6,335.3c0,0-8.6,3.2-10.9,10.2c-1.4,4.3-0.7,8.2-0.2,10.3c0.2,0.6,0.1,1.2,0,1.8
					c-2,8.1-2,16.5-2,16.6h0.7c0-0.1,0-8.3,2-16.2c0.2-0.8,0.5-1.5,1-2.2c1.5-2,4-5.5,5.4-8.7C342.7,342.7,344.6,335.3,344.6,335.3z
					"/>
				<path class="st21" d="M329.4,365c-0.2-2.9-1-5.6-2-7.8c-0.2-0.4-0.3-0.9-0.2-1.4c0.1-0.9,0.2-2.4-0.2-4.2
					c-0.7-3.5-5.3-10.9-11.9-11.3c0,0,2.3,3.7,3.5,6.8c1.5,3.9,3.6,8,7.1,9.5c0.6,0.3,1.1,0.8,1.4,1.4c0.9,2.1,1.5,4.5,1.7,7.1
					L329.4,365z"/>
				<g>
					<g>
						<path class="st18" d="M325,380.1h10.9l2.8-17.4c0.1-0.8-0.5-1.5-1.2-1.5h-14.1c-0.8,0-1.4,0.7-1.2,1.5L325,380.1z"/>
					</g>
				</g>
			</g>
			<g>
				<path class="st22" d="M277,342.4c1.1,19-9.7,38.6-33.4,46.2c-21.8,7-45.6,7.1-67.1-2.5c-39-17.5-17.7-59.5,9.3-76.1
					c12.5-7.7,27.8-12.2,43.2-11.6C259.2,299.6,275.8,320.6,277,342.4"/>
				<path class="st7" d="M271.8,334c1.1,19-9.7,38.6-33.4,46.2c-21.8,7-45.6,7.1-67.1-2.5c-39-17.5-17.7-59.5,9.3-76.1
					c12.5-7.7,27.8-12.2,43.2-11.6C253.9,291.2,270.5,312.2,271.8,334"/>
				<path class="st20" d="M197.2,358.5c-6.7-0.4-13.4-1.9-19.4-4.7c-30.4-14-10.1-42.4,13.6-52.8c10.3-4.5,21.6-6.5,31.7-5.4
					c0.7,0.1,1.4,0.2,2,0.2c8.5,1.2,14.7,4.4,19.1,9.8c4.5,5.5,6.7,13,6,20.7C248.5,346.8,222,360.1,197.2,358.5z"/>
			</g>
			<g>
				<path class="st23" d="M185.8,282.2c4.6,6.3-2.4,19.3-15.6,29c-13.2,9.7-27.7,12.4-32.3,6.2c-4.6-6.3,2.4-19.3,15.6-29
					C166.7,278.6,181.2,275.9,185.8,282.2z"/>
				<path class="st23" d="M240,324.2c0,24.4-18.7,34.6-41.7,34.6s-41.7-10.2-41.7-34.6s18.7-53.8,41.7-53.8
					C221.3,270.4,240,299.7,240,324.2z"/>
				<g>
					<path class="st20" d="M229.4,192.3c0,0,8.4-2.9,10.8,3.2c0,0-8.4-2.2-6.7,3.6"/>
					<path class="st20" d="M231.4,193.9c0,0,0.9-8.9-5.6-9.8c0,0,4.1,7.7-2,7.4"/>
				</g>
				<path class="st20" d="M131.6,266.7c0,0.3,0,0.5,0,0.8c-0.2,3.8,0.9,8.5,3.5,11.4c2.8,3,8.3,3.6,12.2,4.1c2.1,0.3,4.4,0.5,6.4,0
					c4-1.1,5.7-4.6,6.7-7.7c2.9-9.1,3.5-18.5,4-27.9c0.4-7.9,1.1-19.5-7.8-25.3c-6-3.9-8.7-2.8-11.3,2.4c-3.6,7.2-2.8,15.5-5.8,22.9
					c-1.3,3.1-3.2,6-4.7,9C133.1,259.6,131.8,263.1,131.6,266.7z"/>
				<path class="st24" d="M195.1,325.2c17.1-1.9,31.2,5.5,32.3,15.4c1.1,10-11.3,18.9-28.3,20.7c-17.1,1.9-32.4-4-33.5-14
					C164.5,337.4,178.1,327.1,195.1,325.2z"/>
				<path class="st24" d="M218,309c-1.5-6.3-11.9-9.2-23.2-6.5s-19.2,10.1-17.7,16.4s11.9,9.2,23.2,6.5
					C211.6,322.7,219.5,315.3,218,309z"/>
				<path class="st25" d="M239.3,252.6c0,29.9-21.4,41.9-47.7,41.9c-14.2,0-31.8-3.6-40.4-16.3c-4.4-6.6-1.6-10.6,0.3-17.5
					c2-7.5,0.2-14.6-0.8-22c-1.2-8.4,2.5-18.8,6-26.3c6.4-13.6,18.9-26,34.8-26C218,186.2,239.3,222.7,239.3,252.6z"/>
				<g>
					<g>
						<g>
							<path class="st20" d="M173,260.9c0,4.2-3.4,7.6-7.6,7.6c-4.2,0-7.6-3.4-7.6-7.6s3.4-7.6,7.6-7.6
								C169.6,253.3,173,256.7,173,260.9z"/>
						</g>
						<g>
							<path class="st26" d="M166.4,266.3c-1.7,0-3.2-1.4-3.2-3.2c0-1.7,1.4-3.2,3.2-3.2s3.2,1.4,3.2,3.2
								C169.5,264.9,168.1,266.3,166.4,266.3z"/>
						</g>
					</g>
					<g>
						<path class="st26" d="M163.2,259.2c-1,0-1.7-0.8-1.7-1.7c0-1,0.8-1.7,1.7-1.7c1,0,1.7,0.8,1.7,1.7S164.1,259.2,163.2,259.2z"
							/>
					</g>
				</g>
				<path class="st27" d="M206.2,282.1c-0.5,1.5-3.6,1.8-6.9,0.7c-3.3-1.1-5.6-3.2-5.2-4.6c0.5-1.5,3.6-1.8,6.9-0.7
					C204.4,278.6,206.7,280.6,206.2,282.1z"/>
				<path class="st27" d="M167.6,273.3c-0.5,1.5-3.6,1.8-6.9,0.7c-3.3-1.1-5.6-3.2-5.2-4.6c0.5-1.5,3.6-1.8,6.9-0.7
					C165.8,269.7,168.1,271.8,167.6,273.3z"/>
				<g>
					<g>
						<g>
							<path class="st20" d="M210.4,269.4c0,4.2-3.4,7.6-7.6,7.6c-4.2,0-7.6-3.4-7.6-7.6s3.4-7.6,7.6-7.6
								C207,261.9,210.4,265.3,210.4,269.4z"/>
						</g>
						<g>
							<path class="st26" d="M203.7,274.9c-1.7,0-3.2-1.4-3.2-3.2c0-1.7,1.4-3.2,3.2-3.2c1.7,0,3.2,1.4,3.2,3.2
								S205.5,274.9,203.7,274.9z"/>
						</g>
					</g>
					<g>
						<path class="st26" d="M200.6,267.7c-1,0-1.7-0.8-1.7-1.7c0-1,0.8-1.7,1.7-1.7c1,0,1.7,0.8,1.7,1.7
							C202.3,267,201.5,267.7,200.6,267.7z"/>
					</g>
				</g>
				<path class="st20" d="M142.6,232c-0.7,9.6,2.2,18.7,11,24.5c0-5.5,4.7-10.1,9.9-11.7c5.2-1.6,10.9-0.7,16.2,0.5
					c9.5,2.3,18.6,6,27.2,10.5c7.2,3.8,11.9,10.6,14.9,18c1,2.4,2.2,4.4,2.5,7c0.1,0.7-0.2,8.5-1,8.2c7.8,2.7,16.8-0.8,22.4-6.8
					c5.6-6.1,8.4-14.2,10-22.3c3.9-19.8,0.9-41.9-12.5-56.9c-13.1-14.8-34.5-20.4-54.1-17.6c-10.1,1.5-20.1,5.1-28.1,11.4
					C151.8,204.3,143.6,218.6,142.6,232z"/>
				<path class="st20" d="M214.2,222.3c2,7.1,3.3,14.5,4.2,21.8c1.3,11.5,2.7,27.7-5.3,37.1c-1,1.2-2.1,2.2-2.9,3.6
					c-0.8,1.3-1.1,3-0.4,4.4c0.8,1.6,2.6,2.2,4.2,2.6c4.5,1.2,9.1,1.7,13.7,1.8c3.6,0,7.3-0.3,10.5-1.9c8.3-3.9,14-14.2,16.9-22.9
					c3.9-11.4,3.4-23.9,1.3-35.6C250.3,199,214.2,222.3,214.2,222.3z"/>
				<path class="st28" d="M215.4,275.9c-2.4,7.9-10,11.7-17.2,9.5s-11.4-9.5-9-17.5c2.4-7.9,9.4-9.9,16.6-7.7
					C213.1,262.5,217.8,268,215.4,275.9z"/>
				<path class="st28" d="M175.9,266.9c-2.3,7.6-9.3,11.3-16,9.3s-10.4-9-8.1-16.6c2.3-7.6,8.8-9.6,15.5-7.5
					C173.9,254,178.2,259.2,175.9,266.9z"/>
				<line class="st28" x1="175.9" y1="266.9" x2="188" y2="270.2"/>
				<path class="st29" d="M181.3,280.5c-0.2,0.8-1.7,1.2-3.3,0.7c-1.6-0.4-2.7-1.5-2.4-2.3"/>
				<path class="st24" d="M179.7,327l0.1,2.5l0,0C179.8,327.9,179.7,327,179.7,327z"/>
				<path class="st24" d="M179.9,329.5l1.7,31c0.1,0,0.2,0,0.3,0.1C181.2,348.4,180.3,334.9,179.9,329.5L179.9,329.5z"/>
				<path class="st25" d="M144.5,362.6c3.1,6.9,7.8,12,13,12c4.3,0,8.1-3.4,11.1-8.2L144.5,362.6z"/>
				<path class="st30" d="M203.1,300.8c0,3-2.4,5.3-5.3,5.3c-3,0-5.3-2.4-5.3-5.3c0-3,2.4-5.3,5.3-5.3
					C200.7,295.4,203.1,297.8,203.1,300.8z"/>
				<path class="st23" d="M227.4,340.7c-0.4-3.3-2.2-6.4-4.7-8.7c-3.4-3.1-7.8-4.8-12.3-5.8c-4.9-1.1-10.1-1.5-15.1-1.1
					c-3.3,0.3-12.7,0.7-14.9,3.5c-1.1,1.4-0.4,4.2-0.3,5.9c0.2,3,0.4,6,0.5,9c0.4,6,0.7,11.9,1.1,17.9c0,0.4,0.1,0.8,0.3,1
					s0.6,0.3,0.9,0.3c12.1,1.5,24.7-1.2,35.1-7.5c4.2-2.6,8.3-6.1,9.3-10.9C227.5,343.1,227.6,341.9,227.4,340.7z"/>
				<path class="st24" d="M179.7,299.2"/>
				<path class="st25" d="M177.1,318.9c1.4,5.7,10,8.6,20,7.1l-6.5-22.2C181.6,307.1,175.8,313.4,177.1,318.9z"/>
				<path class="st23" d="M174,345.3c0-3.6-0.6-7.2-2.3-10.3c-3.1-5.8-10-9.3-16.5-8.5c-15.8,2.1-16,21.5-15.1,33.7
					c0,0.6,0.1,1.2,0.5,1.6c0.4,0.5,1.1,0.6,1.7,0.7c9.2,1.3,18.4,2.7,27.7,4c0.3,0,0.7,0.1,1-0.1c0.2-0.2,0.3-0.5,0.4-0.8
					c0.9-4.7,1.8-9.3,2.3-14.1C173.9,349.4,174,347.3,174,345.3z"/>
				<polygon class="st31" points="176.4,293.7 170,304.7 182.7,304.7 				"/>
				<g>
					<path class="st32" d="M166.8,290.4l9.6,31.6c0.1,0.4,0.4,0.6,0.8,0.6l26.1,2c0.5,0,0.8,0.4,0.8,0.9v1.6c0,0.5-0.4,0.9-0.9,0.9
						l-71.5-1.3c-0.4,0-0.7-0.2-0.8-0.6l-12.6-32.9c-0.2-0.6,0.2-1.2,0.8-1.2l46.7-2.2C166.3,289.8,166.6,290,166.8,290.4z"/>
				</g>
				<g>
					<path class="st33" d="M148.1,307.4c-0.7-0.7-1.6-1-2.5-0.9l0,0h-0.1c-0.3,0-0.6,0.2-0.8,0.3c-0.7-0.4-1.4-0.4-2.1-0.2
						c-0.8,0.3-1.5,1-1.8,1.8c-0.6,1.6,0,3.4,1.3,4.3c0.4,0.3,0.9,0.4,1.4,0.4s0.9-0.1,1.3-0.4c0.6,0.3,1.3,0.4,2,0.2
						c0.8-0.2,1.4-0.7,1.8-1.5C149.3,310.2,149.1,308.4,148.1,307.4z"/>
					<path class="st33" d="M143.3,304.2c0.6,0.2,0.9,0.5,1.1,1.2c0.1,0.5,0.1,0.9,0.1,0.9c0,0.1,0.1,0.3,0.2,0.3l0,0
						c0.1,0,0.2-0.1,0.3-0.2c0,0,0.1-0.5-0.1-1.1c-0.2-0.8-0.7-1.3-1.5-1.5c-0.1,0-0.3,0-0.3,0.2C143.1,304,143.2,304.2,143.3,304.2
						z"/>
					<path class="st33" d="M145.4,306.3c0,0,0.1,0.1,0.2,0.1l0,0c1.4-0.2,2.4-0.5,3-1.1s0.7-1.2,0.8-1.7c0-0.1,0-0.2,0-0.2
						c0-0.1-0.1-0.1-0.2-0.1l0,0c-0.9,0-1.6,0.2-2.2,0.5c-0.5,0.2-0.9,0.6-1.2,1c-0.5,0.7-0.5,1.4-0.5,1.4
						C145.3,306.2,145.3,306.2,145.4,306.3z"/>
				</g>
				<path class="st23" d="M232.4,293c-0.9-1-1.9-1.8-3-2.5c-3.2-1.8-6.9-2.2-10.4-1.4c-3.5,0.8-6.8,2.6-9.7,4.8
					c-4.5,3.3-8.7,7.8-14,8.5c-0.9,0.1-1.9,0.1-2.8,0.4c-0.7,0.2-1.5,0.6-1.9,1.3c-0.6,0.9-0.1,1.9,0.1,2.8c0.5,2.3,1,4.6,1.6,6.9
					c1.1,4.6,2.4,9.1,3.7,13.6c0.3,1.1,0.7,2.3,1.6,2.9c0.7,0.5,1.6,0.5,2.4,0.3c3.2-0.4,6.1-2,9.1-3.3c6.7-2.9,14.2-4.5,19.5-9.9
					c2.7-2.8,4.7-6.4,5.9-10.2c0.8-2.4,1.3-5,1-7.5C235.2,297.3,234,294.9,232.4,293z"/>
				<path class="st30" d="M212.7,353.5c0,3-2.4,5.3-5.3,5.3c-3,0-5.3-2.4-5.3-5.3c0-3,2.4-5.3,5.3-5.3S212.7,350.6,212.7,353.5z"/>
				<path class="st30" d="M226.4,315.3c0,3-2.4,5.3-5.3,5.3c-3,0-5.3-2.4-5.3-5.3s2.4-5.3,5.3-5.3
					C224.1,310,226.4,312.4,226.4,315.3z"/>
				<path class="st30" d="M151.1,345.3c0,3-2.4,5.3-5.3,5.3c-3,0-5.3-2.4-5.3-5.3c0-3,2.4-5.3,5.3-5.3
					C148.7,340,151.1,342.4,151.1,345.3z"/>
				<polygon class="st31" points="213,327.6 206.7,338.6 219.4,338.6 				"/>
				<polygon class="st31" points="201.3,308.1 194.9,319.1 207.6,319.1 				"/>
				<polygon class="st31" points="162,327.7 155.7,338.7 168.4,338.7 				"/>
				
					<rect x="183" y="338.1" transform="matrix(0.7071 -0.7071 0.7071 0.7071 -187.7154 233.7843)" class="st34" width="10.7" height="10.7"/>
				<rect x="214.5" y="291.1" class="st34" width="10.7" height="10.7"/>
				
					<rect x="160.8" y="350.9" transform="matrix(0.9579 -0.2871 0.2871 0.9579 -95.2803 62.6971)" class="st34" width="10.7" height="10.7"/>
				<rect x="226.6" y="325.2" class="st34" width="10.7" height="10.7"/>
				<path class="st25" d="M165.6,347.4c0.7,6.3,7.1,11,16,13.1l-1.7-31C170.8,333.8,164.9,340.7,165.6,347.4z"/>
			</g>
			<g>
				<path class="st21" d="M384.6,345.5c-1.1,19,9.7,38.6,33.4,46.2c21.8,7,45.6,7.1,67.1-2.5c39-17.5,17.7-59.5-9.3-76.1
					c-12.5-7.7-27.8-12.2-43.2-11.6C402.5,302.8,385.8,323.7,384.6,345.5"/>
				<path class="st35" d="M389.9,337.1c-1.1,19,9.7,38.6,33.4,46.2c21.8,7,45.6,7.1,67.1-2.5c39-17.5,17.7-59.5-9.3-76.1
					c-12.5-7.7-27.8-12.2-43.2-11.6C407.8,294.4,391.1,315.3,389.9,337.1"/>
				<path class="st20" d="M464.4,361.7c6.7-0.4,13.4-1.9,19.4-4.7c30.4-14,10.1-42.4-13.6-52.8c-10.3-4.5-21.6-6.5-31.7-5.4
					c-0.7,0.1-1.4,0.2-2,0.2c-8.5,1.2-14.7,4.4-19.1,9.8c-4.5,5.5-6.7,13-6,20.7C413.2,349.9,439.6,363.2,464.4,361.7z"/>
			</g>
			<g>
				<path class="st36" d="M419.9,325.7c0,24.7,18.9,35,42.2,35c23.3,0,42.2-10.3,42.2-35s-18.9-54.4-42.2-54.4
					C438.8,271.3,419.9,300.9,419.9,325.7z"/>
				<path class="st24" d="M483.6,320.3c1.6-6.4-6.5-13.8-17.9-16.6c-11.4-2.8-22,0.2-23.5,6.6c-1.6,6.4,6.5,13.8,17.9,16.6
					S482,326.8,483.6,320.3z"/>
				<g>
					<path class="st37" d="M491.1,307.1c-0.3,2.7-2.4,4.7-4.8,4.5c-0.8-0.1-1.5-0.4-2.1-0.9c-0.7,0.4-1.4,0.5-2.2,0.4
						c-2.4-0.2-4.1-2.6-3.8-5.3c0.3-2.7,2.4-4.7,4.8-4.5c0.8,0.1,1.5,0.4,2.1,0.9c0.7-0.4,1.4-0.5,2.2-0.4
						C489.6,302,491.3,304.4,491.1,307.1z"/>
					<path class="st38" d="M483.9,300.5c0,0,0.4-4-5.6-4.8C478.6,297.4,479,299.5,483.9,300.5z"/>
					<path class="st39" d="M479.7,302.2c-1.7,1.6-2.3,4.3-1.3,6.4c1,2.2,3.5,3.5,5.8,2.4c1.3,0.9,2.9,1.1,4.3,0.4
						c2.3-1.1,3.4-4.1,2.6-6.5c-0.8-2.6-3.5-4.3-6.1-3.1c-0.3-0.2-0.8-0.6-1.2-0.6c-0.1,0-0.1,0-0.2-0.1c-0.2-0.1-0.5-0.1-0.7-0.1
						C481.8,300.9,480.6,301.4,479.7,302.2z M478.6,305.5c0.4-2.2,2.4-4.3,4.8-3.7c0.3,0.1,0.7,0.2,1,0.4c0.7,0.4,1.3,1.1,1.7,1.9
						c0.2,0.4,0.3,0.9,0.4,1.3c0,0.2,0.1,0.5,0.1,0.7s-0.1,0.5,0,0.7s0.3,0.3,0.5,0.2c0.2-0.1,0.2-0.3,0.2-0.5c0-0.5,0-1.1-0.1-1.6
						c-0.2-0.9-0.7-1.8-1.3-2.5c1.4-0.5,2.9-0.1,3.9,1c1.7,1.9,1.6,5-0.2,6.8c-0.8,0.8-2,1.3-3.2,1.1c-0.4-0.1-0.8-0.2-1.1-0.4
						c-0.3-0.1-0.6-0.5-0.8-0.5c-0.2,0-0.4,0.2-0.6,0.2c-0.2,0.1-0.3,0.1-0.5,0.2c-0.4,0.1-0.7,0.1-1.1,0.1
						C479.5,310.6,478.2,307.8,478.6,305.5z"/>
					<path class="st39" d="M484.2,311.2c-1,0.5-2.2,0.5-3.2,0.1c-1.2-0.4-2.2-1.4-2.7-2.6c-1-2.2-0.4-5,1.3-6.6
						c1.2-1,2.7-1.5,4.1-1.1c0.1,0,0.1,0,0.2,0.1c0.4,0,0.9,0.4,1.2,0.6c1.1-0.5,2.3-0.5,3.5,0c1.3,0.6,2.3,1.8,2.7,3.2
						c0.8,2.6-0.4,5.5-2.7,6.7c-0.7,0.4-1.5,0.5-2.3,0.4C485.5,311.9,484.8,311.6,484.2,311.2z M485.2,302c-0.3-0.2-0.9-0.6-1.2-0.6
						c-0.1,0-0.1,0-0.2-0.1c-1.4-0.4-2.8,0-3.9,1c-1.7,1.5-2.2,4.2-1.3,6.3c0.5,1.2,1.4,2.1,2.6,2.5c1,0.4,2.1,0.3,3.1-0.1h0.1h0.1
						c1.2,0.9,2.8,1.1,4.2,0.4c2.2-1.1,3.3-3.9,2.6-6.4c-0.4-1.3-1.4-2.5-2.6-3c-0.4-0.2-0.8-0.3-1.2-0.3
						C486.5,301.5,485.8,301.7,485.2,302z M479.4,309.4c-0.8-1.1-1.2-2.6-0.9-4c0.2-1.3,1-2.6,2.1-3.3c0.9-0.6,1.9-0.7,2.8-0.5
						c0.4,0.1,0.7,0.2,1,0.4c0.7,0.4,1.3,1.1,1.7,1.9c0.2,0.4,0.3,0.9,0.4,1.4c0,0.2,0.1,0.5,0.1,0.7c0,0.1,0,0.2,0,0.3
						c0,0.1,0,0.3,0,0.4s0.1,0.1,0.1,0.1s0.1,0,0.2,0c0.1-0.1,0.1-0.2,0.1-0.4v-0.1c0-0.5,0-1-0.1-1.5c-0.2-1-0.7-1.8-1.3-2.5
						l-0.1-0.1l0.2-0.1c1.4-0.5,3-0.2,4.1,1c1.7,1.9,1.6,5.1-0.2,7c-0.9,0.9-2.1,1.3-3.3,1.2c-0.4-0.1-0.8-0.2-1.2-0.4
						c-0.1-0.1-0.2-0.1-0.3-0.2c-0.2-0.1-0.3-0.3-0.5-0.3c-0.1,0-0.2,0.1-0.3,0.1c-0.1,0-0.1,0.1-0.2,0.1c-0.2,0.1-0.3,0.1-0.5,0.2
						c-0.4,0.1-0.8,0.1-1.2,0.1C481,310.8,480.1,310.3,479.4,309.4z M484.9,310.6c0.1,0.1,0.2,0.1,0.3,0.2c0.3,0.2,0.7,0.3,1.1,0.4
						c1.1,0.2,2.2-0.3,3.1-1.1c1.8-1.8,1.9-4.9,0.2-6.7c-1-1-2.4-1.4-3.7-1c0.6,0.7,1,1.5,1.3,2.4c0.1,0.5,0.2,1.1,0.1,1.6v0.1
						c0,0.2,0,0.4-0.2,0.6c-0.1,0.1-0.2,0.1-0.4,0c-0.1-0.1-0.2-0.2-0.3-0.3c0-0.1,0-0.3,0-0.5c0-0.1,0-0.2,0-0.2
						c0-0.2,0-0.5-0.1-0.7c-0.1-0.5-0.2-0.9-0.4-1.3c-0.4-0.8-0.9-1.4-1.6-1.8c-0.3-0.2-0.6-0.3-0.9-0.4c-0.9-0.2-1.8-0.1-2.6,0.5
						c-1,0.7-1.8,1.9-2,3.1c-0.2,1.3,0.1,2.8,0.9,3.8c0.6,0.8,1.5,1.3,2.5,1.4c0.4,0,0.7,0,1.1-0.1c0.2,0,0.3-0.1,0.5-0.1
						c0.1,0,0.1-0.1,0.2-0.1c0.1-0.1,0.3-0.2,0.4-0.1C484.5,310.3,484.7,310.4,484.9,310.6z"/>
					<path class="st39" d="M485.1,301.2C485.1,301.2,485.2,301.2,485.1,301.2c0.2,0,0.4-0.2,0.3-0.3c0,0,0-0.7,0.2-1.5
						c0.3-1,1-1.6,2-1.8c0.2,0,0.3-0.2,0.2-0.4c0-0.2-0.2-0.3-0.4-0.2c-1.2,0.2-2.1,1-2.5,2.2c-0.3,0.9-0.3,1.7-0.3,1.7
						C484.9,301.1,485,301.2,485.1,301.2z"/>
					<path class="st39" d="M484.7,301c0,0,0-0.9,0.3-1.8c0.4-1.3,1.3-2,2.6-2.3c0.2,0,0.5,0.1,0.5,0.3c0,0.2-0.1,0.5-0.3,0.5
						c-0.9,0.2-1.6,0.7-1.9,1.7c-0.2,0.7-0.2,1.4-0.2,1.5c0,0.2-0.2,0.4-0.4,0.5c0,0,0,0-0.1,0C484.9,301.3,484.7,301.2,484.7,301z
						 M487.6,297.2c-1.2,0.2-2,1-2.4,2.1c-0.3,0.9-0.3,1.7-0.2,1.7c0,0.1,0.1,0.2,0.2,0.2s0.2-0.1,0.2-0.2s0-0.8,0.2-1.6
						c0.4-1,1.1-1.7,2.1-1.9c0.1,0,0.2-0.1,0.2-0.2C487.8,297.3,487.7,297.2,487.6,297.2z"/>
					<path class="st39" d="M483.9,300.7c-2.2-0.4-3.8-1.2-4.7-2.2c-0.8-1-1-2.1-1.1-2.8c0-0.1,0-0.2,0.1-0.2
						c0.1-0.1,0.1-0.1,0.2-0.1c1.4,0.2,2.6,0.5,3.5,1.1c0.7,0.5,1.3,1,1.7,1.7c0.7,1.2,0.6,2.2,0.6,2.3c0,0.1,0,0.1-0.1,0.2
						C484,300.7,483.9,300.7,483.9,300.7z M479.6,298.2c0.8,0.9,2.1,1.5,4,2c0-0.4-0.1-1-0.5-1.6c-0.3-0.6-0.9-1.1-1.5-1.5
						c-0.8-0.5-1.8-0.8-2.9-1C478.8,296.8,479,297.6,479.6,298.2z"/>
					<path class="st20" d="M483.8,300.8c-2.3-0.4-3.8-1.2-4.7-2.3c-0.9-1-1-2.1-1.1-2.9c0-0.1,0-0.2,0.1-0.3
						c0.1-0.1,0.2-0.1,0.3-0.1c1.4,0.2,2.6,0.6,3.5,1.1c0.8,0.5,1.4,1,1.8,1.7c0.7,1.2,0.6,2.3,0.6,2.3c0,0.1-0.1,0.2-0.2,0.3
						C484.1,300.8,484,300.9,483.8,300.8C483.9,300.8,483.8,300.8,483.8,300.8z M478.2,295.7C478.2,295.7,478.1,295.8,478.2,295.7
						c0.1,0.8,0.3,1.9,1.1,2.8c0.9,1,2.4,1.7,4.6,2.2h0.1l0.1-0.1c0,0,0.1-1.1-0.6-2.2c-0.4-0.7-1-1.2-1.7-1.7
						C480.9,296.2,479.7,295.8,478.2,295.7C478.3,295.6,478.3,295.6,478.2,295.7z M483.6,300.2c-2-0.4-3.3-1.1-4.1-2
						c-0.6-0.7-0.8-1.5-0.9-2.2v-0.2h0.2c1.2,0.2,2.2,0.5,3,1c0.7,0.4,1.2,0.9,1.6,1.6s0.5,1.3,0.5,1.7v0.2L483.6,300.2z
						 M479.7,298.2c0.7,0.9,2,1.5,3.8,1.9c0-0.4-0.2-0.9-0.5-1.4c-0.3-0.6-0.8-1.1-1.5-1.5s-1.6-0.7-2.7-0.9
						C478.9,296.9,479.2,297.5,479.7,298.2z"/>
					<path class="st40" d="M483.8,300.8c-2.3-0.4-3.8-1.2-4.7-2.3c-0.9-1-1-2.1-1.1-2.9c0-0.1,0-0.2,0.1-0.3
						c0.1-0.1,0.2-0.1,0.3-0.1c1.4,0.2,2.6,0.6,3.5,1.1c0.8,0.5,1.4,1,1.8,1.7c0.7,1.2,0.6,2.3,0.6,2.3c0,0.1-0.1,0.2-0.2,0.3
						C484.1,300.8,484,300.9,483.8,300.8z M478.2,295.7C478.2,295.7,478.1,295.8,478.2,295.7c0.1,0.8,0.3,1.9,1.1,2.8
						c0.9,1,2.4,1.7,4.6,2.2h0.1l0.1-0.1c0,0,0.1-1.1-0.6-2.2c-0.4-0.7-1-1.2-1.7-1.7C480.9,296.2,479.7,295.8,478.2,295.7
						C478.3,295.6,478.3,295.6,478.2,295.7z M483.6,300.2c-2-0.4-3.3-1.1-4.1-2c-0.6-0.7-0.8-1.5-0.9-2.2v-0.2h0.2
						c1.2,0.2,2.2,0.5,3,1c0.7,0.4,1.2,0.9,1.6,1.6s0.5,1.3,0.5,1.7v0.2L483.6,300.2z M479.7,298.2c0.7,0.9,2,1.5,3.8,1.9
						c0-0.4-0.2-0.9-0.5-1.4c-0.3-0.6-0.8-1.1-1.5-1.5s-1.6-0.7-2.7-0.9C478.9,296.9,479.2,297.5,479.7,298.2z"/>
					<path class="st39" d="M486.5,308.1c0.2,0,0.3-0.1,0.3-0.3c0-0.2-0.1-0.3-0.3-0.3c-0.2,0-0.3,0.1-0.3,0.3
						C486.2,307.9,486.4,308.1,486.5,308.1z"/>
					<path class="st39" d="M486.1,307.7c0-0.2,0.2-0.4,0.5-0.4c0.2,0,0.4,0.2,0.4,0.5c0,0.2-0.2,0.4-0.5,0.4
						C486.3,308.2,486.1,308,486.1,307.7z M486.4,307.8c0,0.1,0.1,0.2,0.2,0.2s0.2-0.1,0.2-0.2s-0.1-0.2-0.2-0.2
						C486.5,307.6,486.4,307.7,486.4,307.8z"/>
				</g>
				<path class="st24" d="M480.9,328.6l-0.1,2.5C480.8,329.5,480.9,328.6,480.9,328.6z"/>
				<path class="st41" d="M508.1,326.4c-13.4-0.8-24.7,7.1-25.8,16.6c-1.1,9.6,8.6,17.3,22,18.1c13.4,0.8,25.6-5.8,26.7-15.3
					C532,336.2,521.5,327.1,508.1,326.4z"/>
				<path class="st42" d="M530.4,346c-0.7,6.1-5.8,10.8-12.8,13.4l2-29.7C526.5,333.3,531.1,339.5,530.4,346z"/>
				<path class="st41" d="M465.3,326.8c-17.3-1.9-31.5,5.5-32.7,15.6c-1.1,10.1,11.4,19.1,28.7,21c17.3,1.9,32.7-4.1,33.8-14.1
					C496.3,339.1,482.6,328.7,465.3,326.8z"/>
				<path class="st42" d="M494.4,349.4c-0.7,6.4-7.2,11.1-16.2,13.2l1.8-31.4C489.2,335.7,495.1,342.6,494.4,349.4z"/>
				<path class="st24" d="M429.8,340.4c-3.4,4.2-5.7,9.2-5.8,14.3c0,1.4-0.1,1.9,1.5,1.8c1.8,0,3.6-0.5,5.4-0.7
					c2.2-0.2,4.4-0.3,6.6-0.4c1.6,0,3.6,0.4,5.2,0.1c1.8-0.3,3.6-1.3,5.5-1.8c2-0.5,4.1-0.8,6.3-1c3.1-0.3,6.5,0,9.6-0.4
					c1.3-0.2,2.2-1.1,3.3-1.8c1.3-0.8,2.7-1.5,4.2-2.1c2.9-1.1,6-1.8,9.1-2.1c1.1-0.1,2.6,0.2,3.7-0.1c1.1-0.2,2-1.1,2.8-1.7
					c2-1.5,4.1-3.1,6.5-4.2c2.2-1.1,4.5-1.9,7-2.3c2.6-0.5,4.6-0.4,6.5-2.3c1-0.9,1.2-2.2,2.3-3.2c1.2-1.1,2.8-1.8,4.5-2.2
					c0.7-0.2,1.5-0.4,1.8-0.9c-8.2-3.6-16.8-4.8-25.9-5.9c-9.2-1-18.5-1.3-27.7,0.1c-9.3,1.4-18.3,4.8-25.3,10.2
					C434.6,335.4,432.1,337.7,429.8,340.4z"/>
				<path class="st29" d="M435.3,334.6l5.8,20.5"/>
				<path class="st29" d="M442.8,330l20.8,21.9"/>
				<path class="st29" d="M453,326.3l31.6,19.9"/>
				<path class="st29" d="M466.6,323.2l36.6,13.9"/>
				<path class="st36" d="M427.7,294.2c0.9-1,1.9-1.9,3-2.5c3.2-1.9,7.1-2.2,10.5-1.4c3.6,0.8,6.9,2.6,9.8,4.9
					c4.5,3.4,8.8,7.9,14.1,8.6c1,0.1,1.9,0.1,2.9,0.4c0.7,0.2,1.5,0.6,2,1.4c0.6,0.9,0.1,1.9-0.1,2.9c-0.5,2.4-1.1,4.7-1.6,7.1
					c-1.1,4.6-2.4,9.2-3.8,13.7c-0.3,1.1-0.8,2.3-1.7,2.9c-0.7,0.5-1.6,0.5-2.5,0.3c-3.2-0.4-6.2-2-9.2-3.3
					c-6.8-2.9-14.3-4.6-19.7-10c-2.7-2.8-4.7-6.5-6-10.3c-0.8-2.5-1.4-5.1-1.1-7.7C424.8,298.5,426,296.1,427.7,294.2z"/>
				<path class="st37" d="M442.4,304.9c-0.3,2.7-2.4,4.7-4.8,4.5c-0.8-0.1-1.5-0.4-2.1-0.9c-0.7,0.4-1.4,0.5-2.2,0.4
					c-2.4-0.2-4.1-2.6-3.8-5.3c0.3-2.7,2.4-4.7,4.8-4.5c0.8,0.1,1.5,0.4,2.1,0.9c0.7-0.4,1.4-0.5,2.2-0.4
					C440.9,299.9,442.6,302.2,442.4,304.9z"/>
				<path class="st38" d="M435.2,298.4c0,0,0.4-4-5.6-4.8C430,295.3,430.4,297.4,435.2,298.4z"/>
				<path class="st39" d="M431.1,300.1c-1.7,1.6-2.3,4.3-1.3,6.4c1,2.2,3.5,3.5,5.8,2.4c1.3,0.9,2.9,1.1,4.3,0.4
					c2.3-1.1,3.4-4.1,2.6-6.5c-0.8-2.6-3.5-4.3-6.1-3.1c-0.3-0.2-0.8-0.6-1.2-0.6c-0.1,0-0.1,0-0.2-0.1c-0.2-0.1-0.5-0.1-0.7-0.1
					C433.2,298.8,432,299.2,431.1,300.1z M430,303.3c0.4-2.2,2.4-4.3,4.8-3.7c0.3,0.1,0.7,0.2,1,0.4c0.7,0.4,1.3,1.1,1.7,1.9
					c0.2,0.4,0.3,0.9,0.4,1.3c0,0.2,0.1,0.5,0.1,0.7s-0.1,0.5,0,0.7s0.3,0.3,0.5,0.2c0.2-0.1,0.2-0.3,0.2-0.5c0-0.5,0-1.1-0.1-1.6
					c-0.2-0.9-0.7-1.8-1.3-2.5c1.4-0.5,2.9-0.1,3.9,1c1.7,1.9,1.6,5-0.2,6.8c-0.8,0.8-2,1.3-3.2,1.1c-0.4-0.1-0.8-0.2-1.1-0.4
					c-0.3-0.1-0.6-0.5-0.8-0.5s-0.4,0.2-0.6,0.2c-0.2,0.1-0.3,0.1-0.5,0.2c-0.4,0.1-0.7,0.1-1.1,0.1
					C430.9,308.4,429.6,305.6,430,303.3z"/>
				<path class="st39" d="M435.5,309c-1,0.5-2.2,0.5-3.2,0.1c-1.2-0.4-2.2-1.4-2.7-2.6c-1-2.2-0.4-5,1.3-6.6c1.2-1,2.7-1.5,4.1-1.1
					c0.1,0,0.1,0,0.2,0.1c0.4,0,0.9,0.4,1.2,0.6c1.1-0.5,2.3-0.5,3.5,0c1.3,0.6,2.3,1.8,2.7,3.2c0.8,2.6-0.4,5.5-2.7,6.7
					c-0.7,0.4-1.5,0.5-2.3,0.4C436.8,309.7,436.1,309.5,435.5,309z M436.5,299.8L436.5,299.8c-0.3-0.2-0.9-0.6-1.2-0.6
					c-0.1,0-0.1,0-0.2-0.1c-1.4-0.4-2.8,0-3.9,1c-1.7,1.5-2.2,4.2-1.3,6.3c0.5,1.2,1.4,2.1,2.6,2.5c1,0.4,2.1,0.3,3.1-0.1h0.1h0.1
					c1.2,0.9,2.8,1.1,4.2,0.4c2.2-1.1,3.3-3.9,2.6-6.4c-0.4-1.3-1.4-2.5-2.6-3c-0.4-0.2-0.8-0.3-1.2-0.3
					C437.8,299.4,437.1,299.5,436.5,299.8z M430.8,307.3c-0.8-1.1-1.2-2.6-0.9-4c0.2-1.3,1-2.6,2.1-3.3c0.9-0.6,1.9-0.7,2.8-0.5
					c0.4,0.1,0.7,0.2,1,0.4c0.7,0.4,1.3,1.1,1.7,1.9c0.2,0.4,0.3,0.9,0.4,1.4c0,0.2,0.1,0.5,0.1,0.7c0,0.1,0,0.2,0,0.3
					c0,0.1,0,0.3,0,0.4s0.1,0.1,0.1,0.1s0.1,0,0.2,0c0.1-0.1,0.1-0.2,0.1-0.4v-0.1c0-0.5,0-1-0.1-1.5c-0.2-1-0.7-1.8-1.3-2.5
					l-0.2-0.1l0.2-0.1c1.4-0.5,3-0.2,4.1,1c1.7,1.9,1.6,5.1-0.2,7c-0.9,0.9-2.1,1.3-3.3,1.2c-0.4-0.1-0.8-0.2-1.2-0.4
					c-0.1-0.1-0.2-0.1-0.3-0.2c-0.2-0.1-0.3-0.3-0.5-0.3c-0.1,0-0.2,0.1-0.3,0.1c-0.1,0-0.1,0.1-0.2,0.1c-0.2,0.1-0.3,0.1-0.5,0.2
					c-0.4,0.1-0.8,0.1-1.2,0.1C432.4,308.7,431.5,308.1,430.8,307.3z M436.2,308.4c0.1,0.1,0.2,0.1,0.3,0.2c0.3,0.2,0.7,0.3,1.1,0.4
					c1.1,0.2,2.2-0.3,3.1-1.1c1.8-1.8,1.9-4.9,0.2-6.7c-1-1-2.4-1.4-3.7-1c0.6,0.7,1,1.5,1.3,2.4c0.1,0.5,0.2,1.1,0.1,1.6v0.1
					c0,0.2,0,0.4-0.2,0.6c-0.1,0.1-0.2,0.1-0.4,0c-0.1-0.1-0.2-0.2-0.3-0.3c0-0.1,0-0.3,0-0.5c0-0.1,0-0.2,0-0.2
					c0-0.2,0-0.5-0.1-0.7c-0.1-0.5-0.2-0.9-0.4-1.3c-0.4-0.8-0.9-1.4-1.6-1.8c-0.3-0.2-0.6-0.3-0.9-0.4c-0.9-0.2-1.8-0.1-2.6,0.5
					c-1,0.7-1.8,1.9-2,3.1c-0.2,1.3,0.1,2.8,0.9,3.8c0.6,0.8,1.5,1.3,2.5,1.4c0.4,0,0.7,0,1.1-0.1c0.2,0,0.3-0.1,0.5-0.1
					c0.1,0,0.1-0.1,0.2-0.1c0.1-0.1,0.3-0.2,0.4-0.1C435.8,308.1,436,308.3,436.2,308.4z"/>
				<path class="st39" d="M436.4,299.1C436.4,299.1,436.5,299.1,436.4,299.1c0.2,0,0.4-0.2,0.3-0.3c0,0,0-0.7,0.2-1.5
					c0.3-1,1-1.6,2-1.8c0.2,0,0.3-0.2,0.2-0.4c0-0.2-0.2-0.3-0.4-0.2c-1.2,0.2-2.1,1-2.5,2.2c-0.3,0.9-0.3,1.7-0.3,1.7
					C436.2,298.9,436.3,299.1,436.4,299.1z"/>
				<path class="st20" d="M436,298.8c0,0,0-0.9,0.3-1.8c0.4-1.3,1.3-2,2.6-2.3c0.2,0,0.5,0.1,0.5,0.3c0,0.2-0.1,0.5-0.3,0.5
					c-0.9,0.2-1.6,0.7-1.9,1.7c-0.2,0.7-0.2,1.4-0.2,1.5c0,0.2-0.2,0.4-0.4,0.5c0,0,0,0-0.1,0C436.2,299.2,436,299,436,298.8z
					 M438.9,295.1c-1.2,0.2-2,1-2.4,2.1c-0.3,0.9-0.3,1.7-0.2,1.7c0,0.1,0.1,0.2,0.2,0.2s0.2-0.1,0.2-0.2s0-0.8,0.2-1.6
					c0.4-1,1.1-1.7,2.1-1.9c0.1,0,0.2-0.1,0.2-0.2C439.1,295.1,439,295.1,438.9,295.1C438.9,295,438.9,295,438.9,295.1z"/>
				<path class="st40" d="M438.9,295.1c-1.2,0.2-2,1-2.4,2.1c-0.3,0.9-0.3,1.7-0.2,1.7c0,0.1,0.1,0.2,0.2,0.2s0.2-0.1,0.2-0.2
					s0-0.8,0.2-1.6c0.4-1,1.1-1.7,2.1-1.9c0.1,0,0.2-0.1,0.2-0.2C439.1,295.1,439,295.1,438.9,295.1z M436,298.8c0,0,0-0.9,0.3-1.8
					c0.4-1.3,1.3-2,2.6-2.3c0.2,0,0.5,0.1,0.5,0.3c0,0.2-0.1,0.5-0.3,0.5c-0.9,0.2-1.6,0.7-1.9,1.7c-0.2,0.7-0.2,1.4-0.2,1.5
					c0,0.2-0.2,0.4-0.4,0.5c0,0,0,0-0.1,0C436.2,299.2,436,299,436,298.8z"/>
				<path class="st39" d="M435.2,298.6c-2.2-0.4-3.8-1.2-4.7-2.2c-0.8-1-1-2.1-1.1-2.8c0-0.1,0-0.2,0.1-0.2c0.1-0.1,0.1-0.1,0.2-0.1
					c1.4,0.2,2.6,0.5,3.5,1.1c0.7,0.5,1.3,1,1.7,1.7c0.7,1.2,0.6,2.2,0.6,2.3c0,0.1,0,0.1-0.1,0.2
					C435.3,298.6,435.2,298.6,435.2,298.6z M431,296.1c0.8,0.9,2.1,1.5,4,2c0-0.4-0.1-1-0.5-1.6c-0.3-0.6-0.9-1.1-1.5-1.5
					c-0.8-0.5-1.8-0.8-2.9-1C430.2,294.7,430.4,295.4,431,296.1z"/>
				<path class="st20" d="M435.1,298.7c-2.3-0.4-3.8-1.2-4.7-2.3c-0.9-1-1-2.1-1.1-2.9c0-0.1,0-0.2,0.1-0.3c0.1-0.1,0.2-0.1,0.3-0.1
					c1.4,0.2,2.6,0.6,3.5,1.1c0.8,0.5,1.4,1,1.8,1.7c0.7,1.2,0.6,2.3,0.6,2.3c0,0.1-0.1,0.2-0.2,0.3
					C435.4,298.7,435.3,298.7,435.1,298.7C435.2,298.7,435.1,298.7,435.1,298.7z M429.6,293.5c0,0-0.1,0.1,0,0.1
					c0.1,0.7,0.3,1.8,1.1,2.7c0.9,1,2.4,1.7,4.6,2.2h0.1l0.1-0.1c0,0,0.1-1.1-0.6-2.2c-0.4-0.7-1-1.2-1.7-1.7
					c-0.9-0.5-2.1-0.9-3.5-1.1C429.7,293.4,429.7,293.5,429.6,293.5z M434.9,298.2c-2-0.4-3.3-1.1-4.1-2c-0.6-0.7-0.8-1.5-0.9-2.2
					v-0.2h0.2c1.2,0.2,2.2,0.5,3,1c0.7,0.4,1.2,0.9,1.6,1.6s0.5,1.3,0.5,1.7v0.2L434.9,298.2z M431.1,296c0.7,0.9,2,1.5,3.8,1.9
					c0-0.4-0.2-0.9-0.5-1.4c-0.3-0.6-0.8-1.1-1.5-1.5s-1.6-0.7-2.7-0.9C430.3,294.7,430.6,295.4,431.1,296z"/>
				<path class="st40" d="M435.1,298.7c-2.3-0.4-3.8-1.2-4.7-2.3c-0.9-1-1-2.1-1.1-2.9c0-0.1,0-0.2,0.1-0.3c0.1-0.1,0.2-0.1,0.3-0.1
					c1.4,0.2,2.6,0.6,3.5,1.1c0.8,0.5,1.4,1,1.8,1.7c0.7,1.2,0.6,2.3,0.6,2.3c0,0.1-0.1,0.2-0.2,0.3
					C435.4,298.7,435.3,298.7,435.1,298.7z M429.6,293.5c0,0-0.1,0.1,0,0.1c0.1,0.7,0.3,1.8,1.1,2.7c0.9,1,2.4,1.7,4.6,2.2h0.1
					l0.1-0.1c0,0,0.1-1.1-0.6-2.2c-0.4-0.7-1-1.2-1.7-1.7c-0.9-0.5-2.1-0.9-3.5-1.1C429.7,293.4,429.7,293.5,429.6,293.5z
					 M434.9,298.2c-2-0.4-3.3-1.1-4.1-2c-0.6-0.7-0.8-1.5-0.9-2.2v-0.2h0.2c1.2,0.2,2.2,0.5,3,1c0.7,0.4,1.2,0.9,1.6,1.6
					s0.5,1.3,0.5,1.7v0.2L434.9,298.2z M431.1,296c0.7,0.9,2,1.5,3.8,1.9c0-0.4-0.2-0.9-0.5-1.4c-0.3-0.6-0.8-1.1-1.5-1.5
					s-1.6-0.7-2.7-0.9C430.3,294.7,430.6,295.4,431.1,296z"/>
				<path class="st39" d="M437.8,305.9c0.2,0,0.3-0.1,0.3-0.3c0-0.2-0.1-0.3-0.3-0.3c-0.2,0-0.3,0.1-0.3,0.3
					S437.7,305.9,437.8,305.9z"/>
				<path class="st39" d="M437.4,305.6c0-0.2,0.2-0.4,0.5-0.4c0.2,0,0.4,0.2,0.4,0.5c0,0.2-0.2,0.4-0.5,0.4
					C437.6,306,437.4,305.8,437.4,305.6z M437.7,305.6c0,0.1,0.1,0.2,0.2,0.2s0.2-0.1,0.2-0.2s-0.1-0.2-0.2-0.2
					C437.8,305.4,437.7,305.5,437.7,305.6z"/>
				<path class="st37" d="M462.6,318.2c-0.3,2.7-2.4,4.7-4.8,4.5c-0.8-0.1-1.5-0.4-2.1-0.9c-0.7,0.4-1.4,0.5-2.2,0.4
					c-2.4-0.2-4.1-2.6-3.8-5.3s2.4-4.7,4.8-4.5c0.8,0.1,1.5,0.4,2.1,0.9c0.7-0.4,1.4-0.5,2.2-0.4
					C461.2,313.2,462.9,315.5,462.6,318.2z"/>
				<path class="st38" d="M455.5,311.6c0,0,0.4-4-5.6-4.8C450.2,308.5,450.7,310.6,455.5,311.6z"/>
				<path class="st39" d="M451.3,313.4c-1.7,1.6-2.3,4.3-1.3,6.4c1,2.2,3.5,3.5,5.8,2.4c1.3,0.9,2.9,1.1,4.3,0.4
					c2.3-1.1,3.4-4.1,2.6-6.5c-0.8-2.6-3.5-4.3-6.1-3.1c-0.3-0.2-0.8-0.6-1.2-0.6c-0.1,0-0.1,0-0.2-0.1c-0.2-0.1-0.5-0.1-0.7-0.1
					C453.4,312.1,452.2,312.5,451.3,313.4z M450.2,316.6c0.4-2.2,2.4-4.3,4.8-3.7c0.3,0.1,0.7,0.2,1,0.4c0.7,0.4,1.3,1.1,1.7,1.9
					c0.2,0.4,0.3,0.9,0.4,1.3c0,0.2,0.1,0.5,0.1,0.7s-0.1,0.5,0,0.7s0.3,0.3,0.5,0.2c0.2-0.1,0.2-0.3,0.2-0.5c0-0.5,0-1.1-0.1-1.6
					c-0.2-0.9-0.7-1.8-1.3-2.5c1.4-0.5,2.9-0.1,3.9,1c1.7,1.9,1.6,5-0.2,6.8c-0.8,0.8-2,1.3-3.2,1.1c-0.4-0.1-0.8-0.2-1.1-0.4
					c-0.3-0.1-0.6-0.5-0.8-0.5c-0.2,0-0.4,0.2-0.6,0.2c-0.2,0.1-0.3,0.1-0.5,0.2c-0.4,0.1-0.7,0.1-1.1,0.1
					C451.1,321.6,449.8,318.8,450.2,316.6z"/>
				<path class="st39" d="M455.7,322.2c-1,0.5-2.2,0.5-3.2,0.1c-1.2-0.4-2.2-1.4-2.7-2.6c-1-2.2-0.4-5,1.3-6.6
					c1.2-1,2.7-1.5,4.1-1.1c0.1,0,0.1,0,0.2,0.1c0.4,0,0.9,0.4,1.2,0.6c1.1-0.5,2.3-0.5,3.5,0c1.3,0.6,2.3,1.8,2.7,3.2
					c0.8,2.6-0.4,5.5-2.7,6.7c-0.7,0.4-1.5,0.5-2.3,0.4C457.1,322.9,456.4,322.7,455.7,322.2z M456.7,313.1h-0.1
					c-0.2-0.2-0.8-0.6-1.1-0.6c-0.1,0-0.1,0-0.2-0.1c-1.4-0.4-2.8,0-3.9,1c-1.7,1.5-2.2,4.2-1.3,6.3c0.5,1.2,1.4,2.1,2.6,2.5
					c1,0.4,2.1,0.3,3.1-0.1h0.1h0.1c1.2,0.9,2.8,1.1,4.2,0.4c2.2-1.1,3.3-3.9,2.6-6.4c-0.4-1.3-1.4-2.5-2.6-3
					c-0.4-0.2-0.8-0.3-1.2-0.3C458.1,312.7,457.4,312.8,456.7,313.1z M451.1,320.5c-0.8-1.1-1.2-2.6-0.9-4c0.2-1.3,1-2.6,2.1-3.3
					c0.9-0.6,1.9-0.7,2.8-0.5c0.4,0.1,0.7,0.2,1,0.4c0.7,0.4,1.3,1.1,1.7,1.9c0.2,0.4,0.3,0.9,0.4,1.4c0,0.2,0.1,0.5,0.1,0.7
					c0,0.1,0,0.2,0,0.3c0,0.1,0,0.3,0,0.4s0.1,0.1,0.1,0.1s0.1,0,0.2,0c0.1-0.1,0.1-0.2,0.1-0.4v-0.1c0-0.5,0-1-0.1-1.5
					c-0.2-1-0.7-1.8-1.3-2.5l-0.1-0.1l0.2-0.1c1.4-0.5,3-0.2,4.1,1c1.7,1.9,1.6,5.1-0.2,7c-0.9,0.9-2.1,1.3-3.3,1.2
					c-0.4-0.1-0.8-0.2-1.2-0.4c-0.1-0.1-0.2-0.1-0.3-0.2c-0.2-0.1-0.3-0.3-0.5-0.3c-0.1,0-0.2,0.1-0.3,0.1c-0.1,0-0.1,0.1-0.2,0.1
					c-0.2,0.1-0.3,0.1-0.5,0.2c-0.4,0.1-0.8,0.1-1.2,0.1C452.6,321.9,451.7,321.4,451.1,320.5z M456.4,321.6
					c0.1,0.1,0.2,0.1,0.3,0.2c0.3,0.2,0.7,0.3,1.1,0.4c1.1,0.2,2.2-0.3,3.1-1.1c1.8-1.8,1.9-4.9,0.2-6.7c-1-1-2.4-1.4-3.7-1
					c0.6,0.7,1,1.5,1.3,2.4c0.1,0.5,0.2,1.1,0.1,1.6v0.1c0,0.2,0,0.4-0.2,0.6c-0.1,0.1-0.2,0.1-0.4,0c-0.1-0.1-0.2-0.2-0.3-0.3
					c0-0.1,0-0.3,0-0.5c0-0.1,0-0.2,0-0.2c0-0.2,0-0.5-0.1-0.7c-0.1-0.5-0.2-0.9-0.4-1.3c-0.4-0.8-0.9-1.4-1.6-1.8
					c-0.3-0.2-0.6-0.3-0.9-0.4c-0.9-0.2-1.8-0.1-2.6,0.5c-1,0.7-1.8,1.9-2,3.1c-0.2,1.3,0.1,2.8,0.9,3.8c0.6,0.8,1.5,1.3,2.5,1.4
					c0.4,0,0.7,0,1.1-0.1c0.2,0,0.3-0.1,0.5-0.1c0.1,0,0.1-0.1,0.2-0.1c0.1-0.1,0.3-0.2,0.4-0.1C456,321.3,456.2,321.5,456.4,321.6z
					"/>
				<path class="st39" d="M456.7,312.4c0.2,0,0.4-0.2,0.3-0.3c0,0,0-0.7,0.2-1.5c0.3-1,1-1.6,2-1.8c0.2,0,0.3-0.2,0.2-0.4
					c0-0.2-0.2-0.3-0.4-0.2c-1.2,0.2-2.1,1-2.5,2.2c-0.3,0.9-0.3,1.7-0.3,1.7C456.4,312.2,456.5,312.4,456.7,312.4z"/>
				<path class="st20" d="M456.3,312.1c0,0,0-0.9,0.3-1.8c0.4-1.3,1.3-2,2.6-2.3c0.2,0,0.5,0.1,0.5,0.3c0,0.2-0.1,0.5-0.3,0.5
					c-0.9,0.2-1.6,0.7-1.9,1.7c-0.2,0.7-0.2,1.4-0.2,1.5c0,0.2-0.2,0.4-0.4,0.5c0,0,0,0-0.1,0C456.4,312.5,456.3,312.3,456.3,312.1z
					 M459.1,308.3c-1.2,0.2-2,1-2.4,2.1c-0.3,0.9-0.3,1.7-0.2,1.7c0,0.1,0.1,0.2,0.2,0.2s0.2-0.1,0.2-0.2s0-0.8,0.2-1.6
					c0.4-1,1.1-1.7,2.1-1.9c0.1,0,0.2-0.1,0.2-0.2C459.3,308.3,459.3,308.3,459.1,308.3C459.2,308.3,459.2,308.3,459.1,308.3z"/>
				<path class="st40" d="M459.1,308.3c-1.2,0.2-2,1-2.4,2.1c-0.3,0.9-0.3,1.7-0.2,1.7c0,0.1,0.1,0.2,0.2,0.2s0.2-0.1,0.2-0.2
					s0-0.8,0.2-1.6c0.4-1,1.1-1.7,2.1-1.9c0.1,0,0.2-0.1,0.2-0.2C459.3,308.3,459.3,308.3,459.1,308.3z M456.3,312.1
					c0,0,0-0.9,0.3-1.8c0.4-1.3,1.3-2,2.6-2.3c0.2,0,0.5,0.1,0.5,0.3c0,0.2-0.1,0.5-0.3,0.5c-0.9,0.2-1.6,0.7-1.9,1.7
					c-0.2,0.7-0.2,1.4-0.2,1.5c0,0.2-0.2,0.4-0.4,0.5c0,0,0,0-0.1,0C456.4,312.5,456.3,312.3,456.3,312.1z"/>
				<path class="st39" d="M455.4,311.9c-2.2-0.4-3.8-1.2-4.7-2.2c-0.8-1-1-2.1-1.1-2.8c0-0.1,0-0.2,0.1-0.2c0.1-0.1,0.1-0.1,0.2-0.1
					c1.4,0.2,2.6,0.5,3.5,1.1c0.7,0.5,1.3,1,1.7,1.7c0.7,1.2,0.6,2.2,0.6,2.3c0,0.1,0,0.1-0.1,0.2
					C455.6,311.9,455.5,311.9,455.4,311.9z M451.2,309.3c0.8,0.9,2.1,1.5,4,2c0-0.4-0.1-1-0.5-1.6c-0.3-0.6-0.9-1.1-1.5-1.5
					c-0.8-0.5-1.8-0.8-2.9-1C450.5,307.9,450.7,308.6,451.2,309.3z"/>
				<path class="st39" d="M455.4,312c-2.3-0.4-3.8-1.2-4.7-2.3c-0.9-1-1-2.1-1.1-2.9c0-0.1,0-0.2,0.1-0.3c0.1-0.1,0.2-0.1,0.3-0.1
					c1.4,0.2,2.6,0.6,3.5,1.1c0.8,0.5,1.4,1,1.8,1.7c0.7,1.2,0.6,2.3,0.6,2.3c0,0.1-0.1,0.2-0.2,0.3C455.6,312,455.5,312,455.4,312z
					 M449.9,306.7C449.9,306.7,449.8,306.8,449.9,306.7c0.1,0.8,0.3,1.9,1.1,2.8c0.9,1,2.4,1.7,4.6,2.2h0.1l0.1-0.1
					c0,0,0.1-1.1-0.6-2.2c-0.4-0.7-1-1.2-1.7-1.7C452.6,307.2,451.4,306.8,449.9,306.7L449.9,306.7z M455.2,311.4
					c-2-0.4-3.3-1.1-4.1-2c-0.6-0.7-0.8-1.5-0.9-2.2V307h0.2c1.2,0.2,2.2,0.5,3,1c0.7,0.4,1.2,0.9,1.6,1.6s0.5,1.3,0.5,1.7v0.2
					L455.2,311.4z M451.3,309.2c0.7,0.9,2,1.5,3.8,1.9c0-0.4-0.2-0.9-0.5-1.4c-0.3-0.6-0.8-1.1-1.5-1.5s-1.6-0.7-2.7-0.9
					C450.6,307.9,450.8,308.6,451.3,309.2z"/>
				<g>
					<path class="st20" d="M530.6,271.2c0,0.3,0,0.6,0,0.8c0,3.8-1.3,8.6-4.1,11.3c-3,3-8.7,3.3-12.5,3.6c-2.2,0.2-4.5,0.3-6.5-0.4
						c-4-1.3-5.6-4.9-6.4-8.2c-2.4-9.4-2.6-18.9-2.7-28.5c0-8.1-0.2-19.7,9.2-25.2c6.3-3.7,9-2.4,11.3,3c3.3,7.5,2,15.8,4.7,23.5
						c1.1,3.3,2.9,6.3,4.3,9.4C529.4,264,530.5,267.6,530.6,271.2z"/>
					<path class="st25" d="M422.3,251.5c-1.5,30.2,19.5,43.4,46.1,44.8c14.3,0.7,32.3-2.1,41.7-14.5c4.8-6.5,2.1-10.6,0.5-17.7
						c-1.7-7.7,0.5-14.7,2-22.2c1.6-8.5-1.6-19.1-4.8-26.9c-5.9-14.1-17.7-27.3-33.9-28.1C447.3,185.5,423.8,221.3,422.3,251.5z"/>
					<path class="st20" d="M489,263.2c-0.2,4.3,3.1,7.9,7.3,8.1c4.3,0.2,7.9-3.1,8.1-7.3c0.2-4.3-3.1-7.9-7.3-8.1
						C492.8,255.8,489.2,258.9,489,263.2z"/>
					<path class="st26" d="M495.3,269.1c1.8,0.1,3.3-1.3,3.4-3c0.1-1.8-1.3-3.3-3-3.4c-1.8-0.1-3.3,1.3-3.4,3
						C492.3,267.5,493.7,269,495.3,269.1z"/>
					<path class="st26" d="M498.9,262c1,0,1.8-0.7,1.8-1.7s-0.7-1.8-1.7-1.8s-1.8,0.7-1.8,1.7C497.2,261.1,497.9,261.9,498.9,262z"
						/>
					<path class="st27" d="M454.4,283c0.4,1.5,3.5,2,7,1.1c3.4-0.9,5.9-2.9,5.5-4.4s-3.5-2-7-1.1C456.3,279.5,454,281.5,454.4,283z"
						/>
					<path class="st27" d="M493.8,276.1c0.4,1.5,3.5,2,7,1.1c3.4-0.9,5.9-2.9,5.5-4.4s-3.5-2-7-1.1
						C495.7,272.5,493.4,274.5,493.8,276.1z"/>
					<path class="st20" d="M450.8,270c-0.2,4.3,3.1,7.9,7.3,8.1c4.3,0.2,7.9-3.1,8.1-7.3c0.2-4.3-3.1-7.9-7.3-8.1
						C454.6,262.5,451,265.8,450.8,270z"/>
					<path class="st26" d="M457.3,275.9c1.8,0,3.2-1.4,3.2-3.2s-1.4-3.2-3.2-3.2c-1.8,0-3.2,1.4-3.2,3.2S455.6,275.9,457.3,275.9z"
						/>
					<path class="st26" d="M460.8,268.8c1,0,1.8-0.8,1.8-1.8s-0.8-1.8-1.8-1.8S459,266,459,267S459.8,268.8,460.8,268.8z"/>
					<path class="st20" d="M521.1,235.6c0.2,9.8-3.2,18.8-12.3,24.2c0.3-5.6-4.2-10.4-9.5-12.3c-5.2-1.9-10.9-1.3-16.4-0.3
						c-9.7,1.9-19.1,5.1-28.1,9.3c-7.5,3.5-12.5,10.1-15.9,17.5c-1.1,2.4-2.5,4.4-2.9,7c-0.1,0.7-0.2,8.7,0.6,8.4
						c-8.1,2.4-16.9-1.6-22.3-8s-7.8-14.8-9-23.1c-2.9-20.2,1.2-42.4,15.5-56.9c14-14.2,35.9-18.9,55.5-15c10.1,2,20,6.2,27.9,12.9
						C513.3,207.1,520.7,221.9,521.1,235.6z"/>
					<path class="st20" d="M449.2,222.2c-2.4,7.1-4.1,14.4-5.4,21.8c-1.9,11.5-4.1,27.9,3.5,37.8c0.9,1.2,2,2.4,2.7,3.8
						s1,3.1,0.2,4.5c-0.9,1.6-2.7,2.1-4.4,2.5c-4.6,0.9-9.3,1.3-13.9,1.1c-3.6-0.2-7.4-0.7-10.5-2.4c-8.3-4.3-13.3-15.1-15.9-24
						c-3.4-11.6-2.3-24.4,0.4-36C414,196.8,449.2,222.2,449.2,222.2z"/>
					<path class="st29" d="M479.6,282.6c0.2,0.9,1.7,1.3,3.3,0.9c1.6-0.4,2.8-1.4,2.6-2.2"/>
					<path class="st43" d="M421.6,227.8c3.6-0.6,6-4.1,5.4-7.7c-0.6-3.6-4.1-6-7.7-5.4s-6,4.1-5.4,7.7S417.9,228.4,421.6,227.8z"/>
					<path class="st33" d="M418,214.8l-1.4-2.1c0.6-0.5,1.1-1.2,1.3-2.1c0.4-1.9-1.3-4-1.3-4s-2.4,1.1-2.8,3.1c-0.1,0.3-0.1,0.7,0,1
						c-0.3-0.2-0.7-0.4-1.1-0.5c-1.9-0.4-4,1.3-4,1.3s1.1,2.4,3.1,2.8c0.8,0.2,1.6,0,2.3-0.3l1.5,2.3c0.4,0.6,1.3,0.8,1.9,0.4
						c0.1-0.1,0.2-0.1,0.2-0.2C418.3,216.1,418.4,215.3,418,214.8z"/>
				</g>
				<path class="st32" d="M494,291.6l-9.8,31.9c-0.1,0.4-0.4,0.6-0.8,0.7l-26.5,2c-0.5,0-0.9,0.4-0.9,0.9v1.7c0,0.5,0.4,0.9,0.9,0.9
					l72.3-1.4c0.4,0,0.7-0.2,0.9-0.6l12.7-33.3c0.2-0.6-0.2-1.2-0.8-1.3l-47.3-2.2C494.5,290.9,494.1,291.2,494,291.6z"/>
				<path class="st33" d="M520.7,310.2c-0.3-1-1-1.8-1.9-2.2c-0.8-0.3-1.6-0.3-2.4,0c-0.2-0.1-0.5-0.4-0.8-0.4h-0.1
					c-1-0.3-2.1,0-2.8,0.7c-1.2,1.1-1.6,3-0.9,4.5c0.4,0.8,1,1.5,1.9,1.8c0.7,0.3,1.5,0.2,2.2-0.1c0.4,0.3,0.9,0.5,1.4,0.5
					c0.5,0.1,1.1,0,1.6-0.3C520.4,314,521.2,312,520.7,310.2z"/>
				<path class="st33" d="M516.4,307.8C516.4,307.8,516.5,307.8,516.4,307.8c0.2,0,0.3-0.1,0.3-0.3c0-0.1,0-0.5,0.2-1
					c0.2-0.7,0.7-1,1.3-1.2c0.2,0,0.3-0.2,0.2-0.3c0-0.2-0.2-0.3-0.3-0.2c-0.9,0.2-1.5,0.7-1.8,1.6c-0.2,0.6-0.2,1.2-0.2,1.2
					C516.2,307.7,516.3,307.8,516.4,307.8z"/>
				<path class="st33" d="M515.6,307.5c0.1,0,0.2,0,0.2,0c0.1,0,0.1-0.1,0.1-0.2c0,0,0.1-0.8-0.4-1.6c-0.3-0.5-0.7-0.9-1.2-1.2
					c-0.6-0.4-1.5-0.6-2.4-0.8c-0.1,0-0.2,0-0.2,0.1c-0.1,0.1-0.1,0.1-0.1,0.2c0.1,0.5,0.2,1.3,0.8,2
					C513,306.6,514,307.2,515.6,307.5z"/>
				<path class="st25" d="M483.6,320.4c-1.4,5.8-10.1,8.8-20.2,7.2l6.6-22.5C479,308.5,484.9,314.8,483.6,320.4z"/>
				<path class="st39" d="M458.1,319.1c0.2,0,0.3-0.1,0.3-0.3c0-0.2-0.1-0.3-0.3-0.3s-0.3,0.1-0.3,0.3
					C457.8,319,457.9,319.1,458.1,319.1z"/>
				<path class="st39" d="M457.7,318.8c0-0.2,0.2-0.4,0.5-0.4c0.2,0,0.4,0.2,0.4,0.5c0,0.2-0.2,0.4-0.5,0.4
					C457.8,319.2,457.7,319,457.7,318.8z M457.9,318.8c0,0.1,0.1,0.2,0.2,0.2s0.2-0.1,0.2-0.2s-0.1-0.2-0.2-0.2
					C458,318.6,457.9,318.7,457.9,318.8z"/>
				<path class="st37" d="M434.3,332.9c-0.3,2.7-2.4,4.7-4.8,4.5c-0.8-0.1-1.5-0.4-2.1-0.9c-0.7,0.4-1.4,0.5-2.2,0.4
					c-2.4-0.2-4.1-2.6-3.8-5.3c0.3-2.7,2.4-4.7,4.8-4.5c0.8,0.1,1.5,0.4,2.1,0.9c0.7-0.4,1.4-0.5,2.2-0.4
					C432.9,327.8,434.6,330.2,434.3,332.9z"/>
				<path class="st38" d="M427.2,326.2c0,0,0.4-4-5.6-4.8C421.9,323.1,422.3,325.3,427.2,326.2z"/>
				<path class="st39" d="M423,328c-1.7,1.6-2.3,4.3-1.3,6.4c1,2.2,3.5,3.5,5.8,2.4c1.3,0.9,2.9,1.1,4.3,0.4
					c2.3-1.1,3.4-4.1,2.6-6.5c-0.8-2.6-3.5-4.3-6.1-3.1c-0.3-0.2-0.8-0.6-1.2-0.6c-0.1,0-0.1,0-0.2-0.1c-0.2-0.1-0.5-0.1-0.7-0.1
					C425.1,326.7,423.9,327.2,423,328z M421.9,331.3c0.4-2.2,2.4-4.3,4.8-3.7c0.3,0.1,0.7,0.2,1,0.4c0.7,0.4,1.3,1.1,1.7,1.9
					c0.2,0.4,0.3,0.9,0.4,1.3c0,0.2,0.1,0.5,0.1,0.7s-0.1,0.5,0,0.7s0.3,0.3,0.5,0.2c0.2-0.1,0.2-0.3,0.2-0.5c0-0.5,0-1.1-0.1-1.6
					c-0.2-0.9-0.7-1.8-1.3-2.5c1.4-0.5,2.9-0.1,3.9,1c1.7,1.9,1.6,5-0.2,6.8c-0.8,0.8-2,1.3-3.2,1.1c-0.4-0.1-0.8-0.2-1.1-0.4
					c-0.3-0.1-0.6-0.5-0.8-0.5c-0.2,0-0.4,0.2-0.6,0.2c-0.2,0.1-0.3,0.1-0.5,0.2c-0.4,0.1-0.7,0.1-1.1,0.1
					C422.8,336.4,421.5,333.6,421.9,331.3z"/>
				<path class="st39" d="M427.5,337c-1,0.5-2.2,0.5-3.2,0.1c-1.2-0.4-2.2-1.4-2.7-2.6c-1-2.2-0.4-5,1.3-6.6c1.2-1,2.7-1.5,4.1-1.1
					c0.1,0,0.1,0,0.2,0.1c0.4,0,0.9,0.4,1.2,0.6c1.1-0.5,2.3-0.5,3.5,0c1.3,0.6,2.3,1.8,2.7,3.2c0.8,2.6-0.4,5.5-2.7,6.7
					c-0.7,0.4-1.5,0.5-2.3,0.4C428.8,337.7,428.1,337.4,427.5,337z M428.4,327.8L428.4,327.8c-0.3-0.2-0.9-0.6-1.2-0.6
					c-0.1,0-0.1,0-0.2-0.1c-1.4-0.4-2.8,0-3.9,1c-1.7,1.5-2.2,4.2-1.3,6.3c0.5,1.2,1.4,2.1,2.6,2.5c1,0.4,2.1,0.3,3.1-0.1h0.1h0.1
					c1.2,0.9,2.8,1.1,4.2,0.4c2.2-1.1,3.3-3.9,2.6-6.4c-0.4-1.3-1.4-2.5-2.6-3c-0.4-0.2-0.8-0.3-1.2-0.3
					C429.8,327.3,429.1,327.5,428.4,327.8z M422.7,335.2c-0.8-1.1-1.2-2.6-0.9-4c0.2-1.3,1-2.6,2.1-3.3c0.9-0.6,1.9-0.7,2.8-0.5
					c0.4,0.1,0.7,0.2,1,0.4c0.7,0.4,1.3,1.1,1.7,1.9c0.2,0.4,0.3,0.9,0.4,1.4c0,0.2,0.1,0.5,0.1,0.7c0,0.1,0,0.2,0,0.3
					c0,0.1,0,0.3,0,0.4s0.1,0.1,0.1,0.1s0.1,0,0.2,0c0.1-0.1,0.1-0.2,0.1-0.4v-0.1c0-0.5,0-1-0.1-1.5c-0.2-1-0.7-1.8-1.3-2.5
					l-0.1-0.1l0.2-0.1c1.4-0.5,3-0.2,4.1,1c1.7,1.9,1.6,5.1-0.2,7c-0.9,0.9-2.1,1.3-3.3,1.2c-0.4-0.1-0.8-0.2-1.2-0.4
					c-0.1-0.1-0.2-0.1-0.3-0.2c-0.2-0.1-0.3-0.3-0.5-0.3c-0.1,0-0.2,0.1-0.3,0.1c-0.1,0-0.1,0.1-0.2,0.1c-0.2,0.1-0.3,0.1-0.5,0.2
					c-0.4,0.1-0.8,0.1-1.2,0.1C424.3,336.6,423.4,336.1,422.7,335.2z M428.1,336.4c0.1,0.1,0.2,0.1,0.3,0.2c0.3,0.2,0.7,0.3,1.1,0.4
					c1.1,0.2,2.2-0.3,3.1-1.1c1.8-1.8,1.9-4.9,0.2-6.7c-1-1-2.4-1.4-3.7-1c0.6,0.7,1,1.5,1.3,2.4c0.1,0.5,0.2,1.1,0.1,1.6v0.1
					c0,0.2,0,0.4-0.2,0.6c-0.1,0.1-0.2,0.1-0.4,0c-0.1-0.1-0.2-0.2-0.3-0.3c0-0.1,0-0.3,0-0.5c0-0.1,0-0.2,0-0.2
					c0-0.2,0-0.5-0.1-0.7c-0.1-0.5-0.2-0.9-0.4-1.3c-0.4-0.8-0.9-1.4-1.6-1.8c-0.3-0.2-0.6-0.3-0.9-0.4c-0.9-0.2-1.8-0.1-2.6,0.5
					c-1,0.7-1.8,1.9-2,3.1c-0.2,1.3,0.1,2.8,0.9,3.8c0.6,0.8,1.5,1.3,2.5,1.4c0.4,0,0.7,0,1.1-0.1c0.2,0,0.3-0.1,0.5-0.1
					c0.1,0,0.1-0.1,0.2-0.1c0.1-0.1,0.3-0.2,0.4-0.1C427.7,336.1,428,336.2,428.1,336.4z"/>
				<path class="st39" d="M428.4,327c0.2,0,0.4-0.2,0.3-0.3c0,0,0-0.7,0.2-1.5c0.3-1,1-1.6,2-1.8c0.2,0,0.3-0.2,0.2-0.4
					c0-0.2-0.2-0.3-0.4-0.2c-1.2,0.2-2.1,1-2.5,2.2c-0.3,0.9-0.3,1.7-0.3,1.7C428.1,326.9,428.3,327,428.4,327z"/>
				<path class="st39" d="M428,326.7c0,0,0-0.9,0.3-1.8c0.4-1.3,1.3-2,2.6-2.3c0.2,0,0.5,0.1,0.5,0.3c0,0.2-0.1,0.5-0.3,0.5
					c-0.9,0.2-1.6,0.7-1.9,1.7c-0.2,0.7-0.2,1.4-0.2,1.5c0,0.2-0.2,0.4-0.4,0.5c0,0,0,0-0.1,0C428.2,327.1,428,327,428,326.7z
					 M430.9,322.9c-1.2,0.2-2,1-2.4,2.1c-0.3,0.9-0.3,1.7-0.2,1.7c0,0.1,0.1,0.2,0.2,0.2s0.2-0.1,0.2-0.2s0-0.8,0.2-1.6
					c0.4-1,1.1-1.7,2.1-1.9c0.1,0,0.2-0.1,0.2-0.2C431.1,323,431,322.9,430.9,322.9z"/>
				<path class="st39" d="M427.1,326.5c-2.2-0.4-3.8-1.2-4.7-2.2c-0.8-1-1-2.1-1.1-2.8c0-0.1,0-0.2,0.1-0.2s0.1-0.1,0.2-0.1
					c1.4,0.2,2.6,0.5,3.5,1.1c0.7,0.5,1.3,1,1.7,1.7c0.7,1.2,0.6,2.2,0.6,2.3c0,0.1,0,0.1-0.1,0.2
					C427.3,326.5,427.2,326.5,427.1,326.5z M422.9,323.9c0.8,0.9,2.1,1.5,4,2c0-0.4-0.1-1-0.5-1.6c-0.3-0.6-0.9-1.1-1.5-1.5
					c-0.8-0.5-1.8-0.8-2.9-1C422.1,322.5,422.3,323.3,422.9,323.9z"/>
				<path class="st39" d="M427.1,326.6c-2.3-0.4-3.8-1.2-4.7-2.3c-0.9-1-1-2.1-1.1-2.9c0-0.1,0-0.2,0.1-0.3c0.1-0.1,0.2-0.1,0.3-0.1
					c1.4,0.2,2.6,0.6,3.5,1.1c0.8,0.5,1.4,1,1.8,1.7c0.7,1.2,0.6,2.3,0.6,2.3c0,0.1-0.1,0.2-0.2,0.3
					C427.3,326.6,427.2,326.6,427.1,326.6z M421.5,321.3C421.5,321.3,421.4,321.4,421.5,321.3c0.1,0.8,0.3,1.9,1.1,2.8
					c0.9,1,2.4,1.7,4.6,2.2h0.1l0.1-0.1c0,0,0.1-1.1-0.6-2.2c-0.4-0.7-1-1.2-1.7-1.7C424.2,321.8,423,321.4,421.5,321.3
					C421.6,321.3,421.5,321.3,421.5,321.3z M426.9,326c-2-0.4-3.3-1.1-4.1-2c-0.6-0.7-0.8-1.5-0.9-2.2v-0.2h0.2c1.2,0.2,2.2,0.5,3,1
					c0.7,0.4,1.2,0.9,1.6,1.6s0.5,1.3,0.5,1.7v0.2L426.9,326z M423,323.9c0.7,0.9,2,1.5,3.8,1.9c0-0.4-0.2-0.9-0.5-1.4
					c-0.3-0.6-0.8-1.1-1.5-1.5s-1.6-0.7-2.7-0.9C422.2,322.6,422.4,323.2,423,323.9z"/>
				<path class="st39" d="M429.8,333.9c0.2,0,0.3-0.1,0.3-0.3c0-0.2-0.1-0.3-0.3-0.3c-0.2,0-0.3,0.1-0.3,0.3
					C429.5,333.7,429.6,333.9,429.8,333.9z"/>
				<path class="st39" d="M429.4,333.5c0-0.2,0.2-0.4,0.5-0.4c0.2,0,0.4,0.2,0.4,0.5c0,0.2-0.2,0.4-0.5,0.4
					C429.6,334,429.4,333.8,429.4,333.5z M429.6,333.6c0,0.1,0.1,0.2,0.2,0.2s0.2-0.1,0.2-0.2s-0.1-0.2-0.2-0.2
					C429.8,333.4,429.7,333.5,429.6,333.6z"/>
			</g>
			<g>
				<g>
					<g>
						<path class="st26" d="M249.6,265.6c0.2-0.1,4.3-4.1,4.3-4.1l-5.1-3.2h-0.5l0.6,7.3L249.6,265.6z"/>
						<polygon class="st44" points="227.7,267.4 249,265.6 248.4,258.3 226.9,260.5 						"/>
					</g>
					<path class="st20" d="M226.2,261.2l0.6,6.1c0,0.3,0.2,0.5,0.4,0.7s0.5,0.3,0.8,0.2l21.2-2.1c0.2,0,0.4-0.1,0.6-0.3l4-3.5
						c0.3-0.2,0.4-0.6,0.4-0.9s-0.2-0.5-0.4-0.7l-0.1-0.1L249,258c-0.2-0.1-0.4-0.2-0.6-0.1l-21.2,2.1
						C226.6,260.1,226.2,260.6,226.2,261.2z M227.9,267.2l-0.3-2.5l20.6-2.1l0.3,2.6L227.9,267.2z M253.1,261.6l-0.9,0.7L252,261
						L253.1,261.6z M251,260.4c0,0.1,0,0.1,0,0.2l0.3,2.3c0,0.1,0,0.2,0.1,0.2l-1.9,1.6l-0.6-5.6L251,260.4z M247.8,259l0.2,2.5
						l-20.6,2.1l-0.3-2.5L247.8,259z"/>
				</g>
				<path class="st25" d="M236.4,262.2c0.5,0,1,0.1,1.5,0.4c1,0.6,1.7,1.6,2.2,2.8c1,2.6,0.8,5.9-0.5,8.6c-1.3,2.8-3.6,5-6.2,5.8
					c-1.6,0.5-3.6,0.5-4.5-1c-1-1.5-0.4-3.8,0.1-5.7C230,269.9,232.5,262.1,236.4,262.2z"/>
			</g>
			<g>
				<rect x="317" y="276.8" class="st7" width="10" height="10.3"/>
				<rect x="316.9" y="290.4" class="st21" width="10" height="10.3"/>
				<rect x="316.9" y="303.7" class="st19" width="10" height="10.3"/>
			</g>
			<g>
				<g>
					<g>
						<path class="st27" d="M292.2,81c-0.4,0-0.8-0.3-0.9-0.7l-1.2-3.7h-6.2l-1.2,3.7c-0.1,0.4-0.5,0.7-0.9,0.7H277
							c-0.3,0-0.6-0.2-0.8-0.4s-0.2-0.6-0.1-0.9l7.9-21.2c0.1-0.4,0.5-0.7,0.9-0.7h4c0.4,0,0.8,0.3,0.9,0.6l7.9,21.2
							c0.1,0.3,0.1,0.7-0.1,0.9c-0.2,0.3-0.5,0.4-0.8,0.4h-4.6V81z M288.2,71.1l-1.3-3.8l-1.2,3.8H288.2z"/>
						<path class="st20" d="M288.9,58.8l7.9,21.2h-4.6l-1.5-4.4h-7.6l-1.5,4.4H277l7.9-21.2H288.9 M284.3,72.1h5.3l-2.7-7.9
							L284.3,72.1 M288.9,56.8h-4c-0.8,0-1.6,0.5-1.9,1.3l-7.9,21.2c-0.2,0.6-0.1,1.3,0.2,1.8c0.4,0.5,1,0.9,1.6,0.9h4.6
							c0.9,0,1.6-0.6,1.9-1.4l1-3h4.8l1,3c0.3,0.8,1,1.4,1.9,1.4h4.6c0.7,0,1.3-0.3,1.6-0.9c0.4-0.5,0.5-1.2,0.2-1.8l-7.9-21.2
							C290.5,57.4,289.7,56.8,288.9,56.8L288.9,56.8z"/>
					</g>
					<g>
						<path class="st20" d="M305,64.3l0.1,1.8c0.5-0.7,1.2-1.2,2-1.6s1.6-0.5,2.6-0.5c0.7,0,1.4,0.1,2,0.3c0.6,0.2,1.1,0.6,1.6,1
							c0.4,0.5,0.8,1.1,1,1.9s0.4,1.7,0.4,2.8v10h-4.2V70c0-0.5-0.1-0.9-0.2-1.3c-0.1-0.3-0.3-0.6-0.5-0.8c-0.2-0.2-0.5-0.3-0.8-0.4
							s-0.7-0.1-1.1-0.1c-0.6,0-1.2,0.1-1.6,0.4s-0.8,0.6-1.1,1.1V80H301V64.3H305z"/>
					</g>
					<g>
						<path class="st20" d="M322.7,64.3l0.1,1.8c0.5-0.7,1.2-1.2,2-1.6s1.6-0.5,2.6-0.5c0.7,0,1.4,0.1,2,0.3c0.6,0.2,1.1,0.6,1.6,1
							c0.4,0.5,0.8,1.1,1,1.9s0.4,1.7,0.4,2.8v10h-4.2V70c0-0.5-0.1-0.9-0.2-1.3c-0.1-0.3-0.3-0.6-0.5-0.8c-0.2-0.2-0.5-0.3-0.8-0.4
							s-0.7-0.1-1.1-0.1c-0.6,0-1.2,0.1-1.6,0.4s-0.8,0.6-1.1,1.1V80h-4.2V64.3H322.7z"/>
					</g>
					<g>
						<path class="st20" d="M336.5,60.2c0-0.6,0.2-1.1,0.6-1.6c0.4-0.4,1-0.6,1.7-0.6c0.4,0,0.7,0.1,1,0.2c0.3,0.1,0.5,0.3,0.7,0.5
							s0.4,0.4,0.5,0.7s0.2,0.6,0.2,0.9c0,0.3-0.1,0.6-0.2,0.9c-0.1,0.3-0.3,0.5-0.5,0.7s-0.4,0.3-0.7,0.5c-0.3,0.1-0.6,0.2-1,0.2
							s-0.7-0.1-1-0.2c-0.3-0.1-0.5-0.3-0.7-0.5s-0.4-0.4-0.5-0.7C336.6,60.8,336.5,60.5,336.5,60.2z M341,80h-4.2V64.3h4.2V80z"/>
					</g>
					<g>
						<path class="st20" d="M352.7,80.3c-1.2,0-2.3-0.2-3.3-0.6s-1.8-0.9-2.5-1.6s-1.2-1.5-1.5-2.4c-0.4-0.9-0.5-1.9-0.5-3v-0.6
							c0-1.2,0.2-2.3,0.5-3.3s0.8-1.9,1.5-2.6c0.6-0.7,1.4-1.3,2.3-1.7c0.9-0.4,1.9-0.6,3-0.6s2.1,0.2,3,0.6s1.6,0.9,2.2,1.6
							s1,1.5,1.3,2.4c0.3,1,0.4,2,0.4,3.2v1.8h-10c0.1,0.5,0.2,1,0.4,1.4c0.2,0.4,0.5,0.8,0.8,1.1c0.3,0.3,0.7,0.5,1.1,0.7
							s0.9,0.2,1.5,0.2c0.8,0,1.5-0.1,2.1-0.4s1.2-0.7,1.7-1.3l2.1,2.3c-0.3,0.4-0.6,0.7-0.9,1c-0.4,0.3-0.8,0.6-1.3,0.9
							s-1.1,0.5-1.7,0.6C354.2,80.2,353.5,80.3,352.7,80.3z M352.2,67.4c-0.5,0-0.9,0.1-1.2,0.2c-0.3,0.2-0.6,0.4-0.9,0.7
							c-0.2,0.3-0.4,0.6-0.6,1s-0.3,0.8-0.3,1.3h5.8v-0.3c0-0.4-0.1-0.8-0.2-1.2c-0.1-0.4-0.3-0.7-0.5-0.9c-0.2-0.3-0.5-0.5-0.9-0.6
							C353.1,67.5,352.7,67.4,352.2,67.4z"/>
					</g>
					<g>
						<path class="st20" d="M365.5,59.9c0,0.5-0.1,1-0.2,1.5s-0.3,1-0.6,1.5s-0.5,0.9-0.8,1.4c-0.3,0.4-0.7,0.8-1,1.1l-2-1.1
							c0.2-0.3,0.4-0.6,0.5-0.9c0.2-0.3,0.3-0.6,0.4-1c0.1-0.3,0.2-0.7,0.3-1.1c0.1-0.4,0.1-0.8,0.1-1.3v-2.3h3.3L365.5,59.9
							L365.5,59.9z"/>
					</g>
					<g>
						<path class="st20" d="M374.7,75.7c0-0.2,0-0.4-0.1-0.6s-0.3-0.4-0.5-0.5c-0.2-0.2-0.6-0.3-1-0.5c-0.4-0.1-1-0.3-1.6-0.4
							c-0.8-0.2-1.5-0.4-2.2-0.7c-0.7-0.3-1.3-0.6-1.8-1s-0.9-0.8-1.2-1.4c-0.3-0.5-0.4-1.1-0.4-1.8c0-0.7,0.1-1.3,0.4-1.9
							s0.7-1.1,1.2-1.6s1.2-0.8,2-1.1c0.8-0.3,1.7-0.4,2.6-0.4c1,0,1.9,0.1,2.7,0.4c0.8,0.3,1.5,0.6,2.1,1.1s1,1,1.3,1.6
							s0.5,1.3,0.5,2h-4.2c0-0.6-0.2-1.1-0.6-1.5s-1-0.6-1.8-0.6c-0.7,0-1.3,0.2-1.6,0.5c-0.4,0.3-0.6,0.7-0.6,1.2
							c0,0.2,0.1,0.4,0.2,0.6s0.3,0.3,0.5,0.5s0.5,0.3,0.9,0.4s0.8,0.2,1.4,0.3c0.9,0.2,1.6,0.4,2.4,0.6c0.7,0.2,1.4,0.6,1.9,0.9
							c0.5,0.4,0.9,0.8,1.2,1.4c0.3,0.5,0.5,1.2,0.5,2c0,0.7-0.2,1.3-0.5,1.9s-0.8,1.1-1.3,1.5c-0.6,0.4-1.3,0.8-2.1,1
							c-0.8,0.2-1.7,0.4-2.7,0.4c-1.1,0-2.1-0.2-2.9-0.5s-1.6-0.7-2.1-1.2c-0.6-0.5-1-1.1-1.3-1.7s-0.4-1.3-0.4-1.9h4
							c0,0.4,0.1,0.8,0.3,1.1c0.2,0.3,0.4,0.5,0.6,0.7c0.3,0.2,0.6,0.3,0.9,0.4s0.7,0.1,1.1,0.1c0.8,0,1.4-0.2,1.8-0.5
							C374.5,76.6,374.7,76.2,374.7,75.7z"/>
					</g>
				</g>
				<g>
					<g>
						<path class="st45" d="M268.4,116.7c-0.6,0-1-0.4-1-1V94.6c0-0.6,0.4-1,1-1h8.3c1.4,0,2.6,0.2,3.7,0.6s2.1,1,2.8,1.7
							c0.8,0.7,1.4,1.6,1.8,2.6s0.6,2,0.6,3.2s-0.2,2.2-0.6,3.2s-1,1.8-1.8,2.5s-1.7,1.2-2.8,1.5c-1.1,0.3-2.3,0.5-3.7,0.5h-2.9v6.5
							c0,0.6-0.4,1-1,1h-4.4V116.7z M276.6,103.8c0.5,0,0.9-0.1,1.3-0.2c0.3-0.1,0.6-0.2,0.7-0.4c0.2-0.2,0.3-0.4,0.4-0.6
							c0.1-0.3,0.1-0.6,0.1-0.9s-0.1-0.7-0.2-1s-0.2-0.5-0.4-0.8c-0.2-0.2-0.4-0.4-0.8-0.5c-0.3-0.1-0.7-0.2-1.2-0.2h-2.9v4.6H276.6
							z"/>
						<path class="st20" d="M276.6,94.6c1.2,0,2.4,0.2,3.3,0.5c1,0.3,1.8,0.8,2.5,1.5c0.7,0.6,1.2,1.4,1.6,2.2
							c0.4,0.9,0.5,1.8,0.5,2.8s-0.2,2-0.5,2.8c-0.4,0.8-0.9,1.5-1.6,2.1s-1.5,1-2.5,1.3s-2.1,0.5-3.3,0.5h-3.9v7.5h-4.4V94.6H276.6
							 M272.7,104.8h3.9c0.6,0,1.2-0.1,1.6-0.2c0.4-0.2,0.8-0.4,1.1-0.6c0.3-0.3,0.5-0.6,0.6-1s0.2-0.8,0.2-1.3s-0.1-0.9-0.2-1.3
							s-0.3-0.8-0.6-1.1c-0.3-0.3-0.7-0.6-1.1-0.8c-0.5-0.2-1-0.3-1.6-0.3h-3.9V104.8 M276.6,92.6h-8.3c-1.1,0-2,0.9-2,2v21.2
							c0,1.1,0.9,2,2,2h4.4c1.1,0,2-0.9,2-2v-5.5h1.9c1.5,0,2.8-0.2,4-0.6s2.3-1,3.2-1.7c0.9-0.8,1.6-1.7,2.1-2.8
							c0.5-1.1,0.7-2.3,0.7-3.6c0-1.3-0.2-2.5-0.7-3.6s-1.2-2.1-2.1-2.9s-2-1.4-3.2-1.9C279.5,92.8,278.1,92.6,276.6,92.6
							L276.6,92.6z M274.7,100.1h1.9c0.3,0,0.6,0,0.8,0.1c0.2,0.1,0.3,0.2,0.4,0.3c0.1,0.1,0.2,0.2,0.2,0.4c0.1,0.2,0.1,0.5,0.1,0.7
							s0,0.4-0.1,0.6c0,0.1-0.1,0.2-0.1,0.2s-0.1,0.1-0.4,0.2c-0.2,0.1-0.5,0.1-1,0.1h-1.9v-2.6H274.7z"/>
					</g>
					<g>
						<path class="st20" d="M287.5,107.7c0-1.1,0.2-2.2,0.5-3.2s0.8-1.8,1.4-2.5s1.4-1.3,2.3-1.7c0.9-0.4,2-0.6,3.2-0.6
							s2.3,0.2,3.2,0.6c0.9,0.4,1.7,1,2.3,1.7c0.6,0.7,1.1,1.6,1.4,2.5c0.3,1,0.5,2,0.5,3.2v0.3c0,1.2-0.2,2.2-0.5,3.2
							s-0.8,1.8-1.4,2.5s-1.4,1.3-2.3,1.7c-0.9,0.4-2,0.6-3.2,0.6s-2.2-0.2-3.2-0.6c-0.9-0.4-1.7-1-2.3-1.7
							c-0.6-0.7-1.1-1.6-1.4-2.5c-0.3-1-0.5-2-0.5-3.2V107.7z M291.7,108c0,0.6,0.1,1.2,0.2,1.8c0.1,0.6,0.3,1,0.6,1.5
							c0.3,0.4,0.6,0.7,1,1c0.4,0.2,0.9,0.4,1.5,0.4s1.1-0.1,1.5-0.4c0.4-0.2,0.7-0.6,1-1s0.4-0.9,0.6-1.5c0.1-0.6,0.2-1.2,0.2-1.8
							v-0.3c0-0.6-0.1-1.2-0.2-1.8c-0.1-0.6-0.3-1-0.6-1.5c-0.3-0.4-0.6-0.8-1-1s-0.9-0.4-1.5-0.4s-1.1,0.1-1.5,0.4
							c-0.4,0.2-0.7,0.6-1,1s-0.4,0.9-0.6,1.5c-0.1,0.6-0.2,1.1-0.2,1.8V108z"/>
					</g>
					<g>
						<path class="st20" d="M314.8,104c-0.2,0-0.5-0.1-0.7-0.1c-0.3,0-0.5,0-0.8,0c-0.8,0-1.5,0.1-2,0.4s-0.9,0.7-1.1,1.2v10.3H306
							V100h4l0.1,1.9c0.4-0.7,0.9-1.2,1.5-1.6s1.3-0.6,2-0.6c0.2,0,0.5,0,0.7,0.1c0.2,0,0.4,0.1,0.6,0.1L314.8,104z"/>
					</g>
					<g>
						<path class="st20" d="M323.7,96.1v3.9h2.7v3.1h-2.7v7.9c0,0.3,0,0.6,0.1,0.8c0.1,0.2,0.2,0.4,0.3,0.5c0.1,0.1,0.3,0.2,0.5,0.2
							s0.4,0.1,0.7,0.1c0.3,0,0.5,0,0.7,0s0.4,0,0.5-0.1v3.2c-0.3,0.1-0.7,0.2-1.1,0.3c-0.4,0.1-0.9,0.1-1.4,0.1
							c-0.7,0-1.3-0.1-1.9-0.3c-0.6-0.2-1-0.4-1.4-0.8s-0.7-0.8-0.9-1.4s-0.3-1.3-0.3-2.1v-8.3h-2.3V100h2.3v-3.9H323.7z"/>
					</g>
					<g>
						<path class="st20" d="M330.9,115.7v-12.6h-2.3V100h2.3v-1.4c0-0.9,0.1-1.7,0.4-2.4c0.3-0.7,0.7-1.3,1.1-1.7
							c0.5-0.5,1.1-0.8,1.8-1.1c0.7-0.2,1.5-0.4,2.4-0.4c0.4,0,0.7,0,1.1,0.1s0.7,0.1,1,0.2v3.3c-0.3-0.1-0.8-0.1-1.3-0.1
							c-0.8,0-1.3,0.2-1.8,0.5c-0.4,0.4-0.6,0.9-0.6,1.6v1.4h3.1v3.1H335v12.6H330.9z"/>
					</g>
					<g>
						<path class="st20" d="M340.8,107.7c0-1.1,0.2-2.2,0.5-3.2s0.8-1.8,1.4-2.5s1.4-1.3,2.3-1.7c0.9-0.4,2-0.6,3.2-0.6
							s2.3,0.2,3.2,0.6c0.9,0.4,1.7,1,2.3,1.7c0.6,0.7,1.1,1.6,1.4,2.5c0.3,1,0.5,2,0.5,3.2v0.3c0,1.2-0.2,2.2-0.5,3.2
							s-0.8,1.8-1.4,2.5s-1.4,1.3-2.3,1.7c-0.9,0.4-2,0.6-3.2,0.6s-2.2-0.2-3.2-0.6c-0.9-0.4-1.7-1-2.3-1.7
							c-0.6-0.7-1.1-1.6-1.4-2.5c-0.3-1-0.5-2-0.5-3.2V107.7z M345,108c0,0.6,0.1,1.2,0.2,1.8c0.1,0.6,0.3,1,0.6,1.5
							c0.3,0.4,0.6,0.7,1,1c0.4,0.2,0.9,0.4,1.5,0.4s1.1-0.1,1.5-0.4c0.4-0.2,0.7-0.6,1-1s0.5-0.9,0.6-1.5s0.2-1.2,0.2-1.8v-0.3
							c0-0.6-0.1-1.2-0.2-1.8c-0.1-0.6-0.3-1-0.6-1.5c-0.3-0.4-0.6-0.8-1-1s-0.9-0.4-1.5-0.4s-1.1,0.1-1.5,0.4c-0.4,0.2-0.7,0.6-1,1
							s-0.4,0.9-0.6,1.5c-0.1,0.6-0.2,1.1-0.2,1.8V108z"/>
					</g>
					<g>
						<path class="st20" d="M363.7,115.7h-4.2V93.4h4.2V115.7z"/>
					</g>
					<g>
						<path class="st20" d="M368.2,95.9c0-0.6,0.2-1.1,0.6-1.6c0.4-0.4,1-0.6,1.7-0.6c0.4,0,0.7,0.1,1,0.2s0.5,0.3,0.7,0.4
							c0.2,0.2,0.4,0.4,0.5,0.7c0.1,0.3,0.2,0.6,0.2,0.9s-0.1,0.6-0.2,0.9s-0.3,0.5-0.5,0.7s-0.4,0.3-0.7,0.5
							c-0.3,0.1-0.6,0.2-1,0.2s-0.7-0.1-1-0.2s-0.5-0.3-0.7-0.5s-0.4-0.4-0.5-0.7C368.3,96.6,368.2,96.3,368.2,95.9z M372.7,115.7
							h-4.2V100h4.2V115.7z"/>
					</g>
					<g>
						<path class="st20" d="M376.5,107.7c0-1.1,0.2-2.2,0.5-3.2s0.8-1.8,1.4-2.5s1.4-1.3,2.3-1.7c0.9-0.4,2-0.6,3.2-0.6
							s2.3,0.2,3.2,0.6c0.9,0.4,1.7,1,2.3,1.7c0.6,0.7,1.1,1.6,1.4,2.5c0.3,1,0.5,2,0.5,3.2v0.3c0,1.2-0.2,2.2-0.5,3.2
							s-0.8,1.8-1.4,2.5s-1.4,1.3-2.3,1.7c-0.9,0.4-2,0.6-3.2,0.6s-2.2-0.2-3.2-0.6c-0.9-0.4-1.7-1-2.3-1.7
							c-0.6-0.7-1.1-1.6-1.4-2.5c-0.3-1-0.5-2-0.5-3.2V107.7z M380.7,108c0,0.6,0.1,1.2,0.2,1.8c0.1,0.6,0.3,1,0.6,1.5
							c0.3,0.4,0.6,0.7,1,1c0.4,0.2,0.9,0.4,1.5,0.4s1.1-0.1,1.5-0.4c0.4-0.2,0.7-0.6,1-1s0.4-0.9,0.6-1.5c0.1-0.6,0.2-1.2,0.2-1.8
							v-0.3c0-0.6-0.1-1.2-0.2-1.8c-0.1-0.6-0.3-1-0.6-1.5c-0.3-0.4-0.6-0.8-1-1s-0.9-0.4-1.5-0.4s-1.1,0.1-1.5,0.4
							c-0.4,0.2-0.7,0.6-1,1s-0.4,0.9-0.6,1.5c-0.1,0.6-0.2,1.1-0.2,1.8V108z"/>
					</g>
				</g>
			</g>
			<path class="st21" d="M596,181.3l-47.1-8.9c-3-0.6-6.3,3.2-7.3,8.5l-3.7,19.4c-0.9,4.9,0.4,9.3,3,10.4c0.4,0.2,0.6,0.8,0.4,1.5
				l-2,10.6c-0.1,0.6,0.3,1,0.6,0.5l7-10.8c0.2-0.3,0.5-0.5,0.8-0.5l41,7.8c3,0.6,6.3-3.2,7.3-8.5l3.7-19.4
				C600.7,186.6,599.1,181.8,596,181.3z"/>
			<g>
				<path class="st21" d="M26.8,201.8l76.4-19.7c4.9-1.3,10,1.9,11.3,7.1l4.9,19.1c1.2,4.8-1.1,9.6-5.3,11.3c-0.6,0.2-0.9,1-0.8,1.6
					l2.7,10.5c0.2,0.6-0.5,1-1,0.6l-10.8-9.5c-0.3-0.3-0.8-0.4-1.2-0.3l-66.5,17.1c-4.9,1.3-10-1.9-11.3-7.1l-4.9-19.1
					C19,208.3,21.9,203,26.8,201.8z"/>
				<g>
					<g>
						<path class="st26" d="M37.9,229.8c-0.2,0-0.4,0-0.5-0.1c-0.2-0.1-0.4-0.4-0.5-0.6L32,209.9c-0.1-0.5,0.2-1.1,0.7-1.2l3.3-0.9
							c0.1,0,0.2,0,0.2,0c0.2,0,0.4,0,0.5,0.1c0.2,0.1,0.4,0.4,0.5,0.6l1.8,7l6.6-1.7l-1.8-7c-0.1-0.5,0.2-1.1,0.7-1.2l3.3-0.9
							c0.1,0,0.2,0,0.2,0c0.2,0,0.4,0,0.5,0.1c0.2,0.1,0.4,0.4,0.5,0.6l4.9,19.1c0.1,0.5-0.2,1.1-0.7,1.2l-3.3,0.9
							c-0.1,0-0.2,0-0.2,0c-0.2,0-0.4,0-0.5-0.1c-0.2-0.1-0.4-0.4-0.5-0.6l-1.9-7.5l-6.6,1.7l1.9,7.5c0.1,0.5-0.2,1.1-0.7,1.2
							l-3.3,0.9C38.1,229.8,38,229.8,37.9,229.8z"/>
						<path class="st11" d="M48.2,205.8l4.9,19.1l-3.3,0.9l-2.2-8.5l-8.5,2.2l2.2,8.5l-3.3,0.9l-5-19.2l3.3-0.9l2,8l8.5-2.2l-2-8
							L48.2,205.8 M48.2,203.8c-0.2,0-0.3,0-0.5,0.1l-3.3,0.9c-0.5,0.1-1,0.5-1.2,0.9c-0.3,0.5-0.3,1-0.2,1.5l1.6,6l-4.7,1.2l-1.6-6
							c-0.1-0.5-0.5-1-0.9-1.2c-0.3-0.2-0.7-0.3-1-0.3c-0.2,0-0.3,0-0.5,0.1l-3.3,0.9c-1.1,0.3-1.7,1.4-1.4,2.4l4.9,19.1
							c0.1,0.5,0.5,1,0.9,1.2c0.3,0.2,0.7,0.3,1,0.3c0.2,0,0.3,0,0.5-0.1l3.3-0.9c1.1-0.3,1.7-1.4,1.4-2.4l-1.7-6.5l4.7-1.2l1.7,6.5
							c0.2,0.9,1,1.5,1.9,1.5c0.2,0,0.3,0,0.5-0.1l3.3-0.9c1.1-0.3,1.7-1.4,1.4-2.4l-4.9-19.1C49.9,204.4,49.1,203.8,48.2,203.8
							L48.2,203.8z"/>
					</g>
					<g>
						<path class="st26" d="M61.2,223.8c-0.2,0-0.4,0-0.5-0.1c-0.2-0.1-0.4-0.4-0.5-0.6l-4-15.5l-4.9,1.3c-0.1,0-0.2,0-0.2,0
							c-0.2,0-0.4,0-0.5-0.1c-0.2-0.1-0.4-0.4-0.5-0.6l-0.7-2.7c-0.1-0.5,0.2-1.1,0.7-1.2l15.2-3.9c0.1,0,0.2,0,0.3,0
							c0.4,0,0.9,0.3,1,0.8l0.7,2.7c0.1,0.3,0,0.5-0.1,0.8c-0.1,0.3-0.4,0.4-0.6,0.5l-5,1.3l4,15.5c0.1,0.5-0.2,1.1-0.7,1.2
							l-3.3,0.8C61.4,223.8,61.3,223.8,61.2,223.8z"/>
						<path class="st11" d="M65.5,201.3l0.7,2.7l-6,1.5l4.2,16.4l-3.3,0.8L57,206.3l-5.9,1.5l-0.7-2.7L65.5,201.3 M65.5,199.3
							c-0.2,0-0.3,0-0.5,0.1l-15.2,3.9c-0.5,0.1-1,0.5-1.2,0.9c-0.3,0.5-0.3,1-0.2,1.5l0.7,2.7c0.1,0.5,0.5,1,0.9,1.2
							c0.3,0.2,0.7,0.3,1,0.3c0.2,0,0.3,0,0.5-0.1l4-1l3.7,14.5c0.1,0.5,0.5,1,0.9,1.2c0.3,0.2,0.7,0.3,1,0.3c0.2,0,0.3,0,0.5-0.1
							l3.3-0.8c1.1-0.3,1.7-1.4,1.4-2.4L62.6,207l4-1c0.5-0.1,1-0.5,1.2-0.9c0.3-0.5,0.3-1,0.2-1.5l-0.7-2.7
							C67.3,199.9,66.4,199.3,65.5,199.3L65.5,199.3z"/>
					</g>
					<g>
						<path class="st26" d="M73,220.8c-0.2,0-0.4,0-0.5-0.1c-0.2-0.1-0.4-0.4-0.5-0.6L67.1,201c-0.1-0.5,0.2-1.1,0.7-1.2l4.3-1.1
							c0.1,0,0.2,0,0.2,0c0.3,0,0.6,0.2,0.8,0.4l7.8,11.1l1.4-13.4c0-0.4,0.3-0.8,0.7-0.9l4.3-1.1c0.1,0,0.2,0,0.2,0
							c0.4,0,0.9,0.3,1,0.8l4.9,19.1c0.1,0.5-0.2,1.1-0.7,1.2l-3.3,0.9c-0.1,0-0.2,0-0.2,0c-0.2,0-0.4,0-0.5-0.1
							c-0.2-0.1-0.4-0.4-0.5-0.6l-1.6-6.3l-0.6-2.6l-1,9.8c0,0.4-0.3,0.8-0.7,0.9l-2.4,0.6c-0.1,0-0.2,0-0.2,0
							c-0.3,0-0.6-0.2-0.8-0.4l-5.9-8.3l0.8,2.5l1.6,6.3c0.1,0.5-0.2,1.1-0.7,1.2l-3.3,0.9C73.1,220.8,73.1,220.8,73,220.8z"/>
						<path class="st11" d="M87.7,195.6l4.9,19.1l-3.3,0.9l-1.6-6.3l-1.8-8.5L84,216.9l-2.4,0.6l-9.4-13.3l2.5,8.3l1.6,6.3l-3.3,0.9
							l-4.9-19.1l4.3-1.1l9.3,13.2l1.7-16.1L87.7,195.6 M87.7,193.6c-0.2,0-0.3,0-0.5,0.1l-4.3,1.1c-0.8,0.2-1.4,0.9-1.5,1.7
							l-1.2,10.8l-6.2-8.9c-0.4-0.5-1-0.9-1.6-0.9c-0.2,0-0.3,0-0.5,0.1l-4.3,1.1c-1.1,0.3-1.7,1.4-1.4,2.4l4.9,19.1
							c0.1,0.5,0.5,1,0.9,1.2c0.3,0.2,0.7,0.3,1,0.3c0.2,0,0.3,0,0.5-0.1l3.3-0.9c1.1-0.3,1.7-1.4,1.4-2.4l-0.9-3.4l2.6,3.7
							c0.4,0.5,1,0.8,1.6,0.8c0.2,0,0.3,0,0.5-0.1l2.4-0.6c0.8-0.2,1.4-0.9,1.5-1.7l0.5-4.5l0.9,3.4c0.1,0.5,0.5,1,0.9,1.2
							c0.3,0.2,0.7,0.3,1,0.3c0.2,0,0.3,0,0.5-0.1l3.3-0.9c1.1-0.3,1.7-1.4,1.4-2.4l-4.9-19.1C89.4,194.2,88.6,193.6,87.7,193.6
							L87.7,193.6z"/>
					</g>
					<g>
						<path class="st26" d="M96.5,214.7c-0.2,0-0.4,0-0.5-0.1c-0.2-0.1-0.4-0.4-0.5-0.6l-4.9-19.1c-0.1-0.3,0-0.5,0.1-0.8
							c0.1-0.2,0.4-0.4,0.6-0.5l3.3-0.9c0.1,0,0.2,0,0.3,0c0.4,0,0.9,0.3,1,0.8l4,15.5l7.7-2c0.1,0,0.2,0,0.2,0c0.2,0,0.4,0,0.5,0.1
							c0.2,0.1,0.4,0.4,0.5,0.6l0.7,2.7c0.1,0.5-0.2,1.1-0.7,1.2l-12,3.1C96.7,214.7,96.6,214.7,96.5,214.7z"/>
						<path class="st11" d="M94.9,193.7l4.2,16.5l8.7-2.2l0.7,2.7l-12,3.1l-4.9-19.1L94.9,193.7 M94.9,191.7c-0.2,0-0.3,0-0.5,0.1
							l-3.3,0.9c-0.5,0.1-1,0.5-1.2,0.9c-0.3,0.5-0.3,1-0.2,1.5l4.9,19.1c0.1,0.5,0.5,1,0.9,1.2c0.3,0.2,0.7,0.3,1,0.3
							c0.2,0,0.3,0,0.5-0.1l12-3.1c1.1-0.3,1.7-1.4,1.4-2.4l-0.7-2.7c-0.1-0.5-0.5-1-0.9-1.2c-0.3-0.2-0.7-0.3-1-0.3
							c-0.2,0-0.3,0-0.5,0.1l-6.7,1.7l-3.7-14.5C96.6,192.3,95.8,191.7,94.9,191.7L94.9,191.7z"/>
					</g>
				</g>
			</g>
			<g>
				<path class="st21" d="M116.5,120.4h48c3.1,0,5.6,4.3,5.6,9.7v19.8c0,4.9-2.1,9-4.9,9.6c-0.4,0.1-0.7,0.7-0.7,1.4v10.8
					c0,0.6-0.5,0.9-0.7,0.4l-4.9-11.9c-0.2-0.4-0.4-0.6-0.7-0.6h-41.7c-3.1,0-5.6-4.4-5.6-9.7v-19.8
					C110.9,124.7,113.4,120.4,116.5,120.4z"/>
				<g>
					<g>
						<path class="st26" d="M130.8,151.1c-2.4,0-4.3-0.6-5.6-1.9c-1.4-1.3-2.1-3-2.1-5.2c0-0.6,0.4-1,1-1h3.6c0.6,0,1,0.4,1,1
							c0,0.8,0.2,1.4,0.5,1.8c0.3,0.4,0.9,0.5,1.6,0.5s1.2-0.2,1.5-0.6c0.4-0.4,0.6-1.1,0.6-2v-14.4c0-0.6,0.4-1,1-1h3.6
							c0.6,0,1,0.4,1,1v14.4c0,2.2-0.7,4.1-2.2,5.4C135,150.4,133.1,151.1,130.8,151.1z"/>
						<path class="st11" d="M137.5,129.3v14.4c0,2-0.6,3.5-1.8,4.7s-2.8,1.7-4.9,1.7c-2.1,0-3.8-0.5-5-1.6s-1.7-2.6-1.7-4.5h3.6
							c0,1.1,0.3,1.9,0.8,2.5c0.5,0.5,1.3,0.8,2.3,0.8s1.7-0.3,2.3-1c0.6-0.6,0.9-1.5,0.9-2.6v-14.4L137.5,129.3 M137.5,127.3H134
							c-1.1,0-2,0.9-2,2v14.4c0,0.6-0.1,1-0.3,1.3c-0.1,0.1-0.3,0.3-0.8,0.3c-0.3,0-0.7,0-0.9-0.2c-0.1-0.2-0.2-0.5-0.2-1.1
							c0-1.1-0.9-2-2-2h-3.6c-1.1,0-2,0.9-2,2c0,2.5,0.8,4.5,2.4,6c1.5,1.4,3.7,2.2,6.3,2.2c2.5,0,4.6-0.8,6.2-2.3
							c1.6-1.5,2.5-3.6,2.5-6.1v-14.4C139.5,128.2,138.6,127.3,137.5,127.3L137.5,127.3z"/>
					</g>
					<g>
						<path class="st26" d="M148.6,151.1c-1.6,0-3.1-0.3-4.5-0.9c-1.4-0.6-2.5-1.5-3.3-2.6s-1.2-2.5-1.2-4c0-0.6,0.4-1,1-1h3.6
							c0.6,0,1,0.4,1,1c0,0.9,0.3,1.5,0.8,1.9c0.6,0.5,1.5,0.7,2.7,0.7c1,0,1.7-0.2,2.2-0.5c0.4-0.3,0.6-0.7,0.6-1.2
							c0-0.8-0.3-1.1-0.6-1.3c-0.4-0.3-1.2-0.7-3.1-1.3c-1.8-0.5-3.1-1.1-4.2-1.8c-2.2-1.4-3.3-3.2-3.3-5.4c0-2,0.8-3.6,2.4-4.9
							c1.5-1.2,3.5-1.8,5.9-1.8c1.6,0,3,0.3,4.2,0.9c1.3,0.6,2.3,1.5,3,2.6s1.1,2.4,1.1,3.8c0,0.6-0.4,1-1,1h-3.6c-0.6,0-1-0.4-1-1
							c0-0.8-0.2-1.4-0.7-1.8c-0.5-0.4-1.2-0.7-2.2-0.7c-0.9,0-1.6,0.2-2.1,0.5c-0.4,0.3-0.6,0.7-0.6,1.3c0,0.3,0.1,0.7,0.6,1.1
							c0.4,0.3,1.3,0.8,3.1,1.3c1.7,0.5,3.1,1.1,4.1,1.7c1.1,0.7,1.9,1.5,2.5,2.4c0.5,0.9,0.8,2,0.8,3.3c0,2-0.8,3.7-2.4,4.9
							C153.1,150.5,151.1,151.1,148.6,151.1z"/>
						<path class="st11" d="M148.5,129c1.4,0,2.7,0.3,3.8,0.8s2,1.3,2.6,2.3s1,2.1,1,3.2h-3.6c0-1.1-0.3-1.9-1-2.5s-1.6-0.9-2.9-0.9
							c-1.2,0-2.1,0.2-2.7,0.7s-1,1.2-1,2.1c0,0.8,0.3,1.4,1,1.9s1.8,1,3.4,1.5c1.6,0.5,2.9,1,3.9,1.6s1.7,1.3,2.1,2.1
							c0.5,0.8,0.7,1.7,0.7,2.8c0,1.7-0.7,3.1-2,4.1s-3.1,1.5-5.3,1.5c-1.5,0-2.9-0.3-4.1-0.8c-1.2-0.6-2.2-1.3-2.9-2.3
							c-0.7-1-1-2.1-1-3.4h3.6c0,1.2,0.4,2.1,1.2,2.7c0.8,0.6,1.9,1,3.3,1c1.2,0,2.2-0.3,2.8-0.8s0.9-1.2,0.9-2c0-0.9-0.3-1.6-1-2.1
							c-0.6-0.5-1.8-1-3.4-1.5c-1.7-0.5-3-1.1-3.9-1.7c-1.9-1.2-2.8-2.7-2.8-4.6c0-1.7,0.7-3,2-4.1C144.6,129.5,146.3,129,148.5,129
							 M148.5,127c-2.6,0-4.8,0.7-6.5,2c-1.8,1.4-2.8,3.4-2.8,5.7c0,1.8,0.6,4.3,3.7,6.3c0.3,0.2,0.7,0.4,1.1,0.6h-3.5
							c-1.1,0-2,0.9-2,2c0,1.7,0.5,3.2,1.4,4.5s2.2,2.3,3.7,2.9c1.5,0.7,3.1,1,4.9,1c2.7,0,4.9-0.6,6.6-1.9c1.8-1.4,2.7-3.3,2.7-5.7
							c0-1.4-0.3-2.7-0.9-3.8c-0.6-1.1-1.6-2-2.8-2.8c-0.4-0.2-0.8-0.5-1.3-0.7h3c1.1,0,2-0.9,2-2c0-1.6-0.4-3-1.3-4.3
							c-0.8-1.3-2-2.3-3.5-3C151.8,127.3,150.2,127,148.5,127L148.5,127z M150.7,136.4c-0.3-0.1-0.6-0.2-0.9-0.3
							c-1.8-0.5-2.6-1-2.8-1.2s-0.2-0.2-0.2-0.3c0-0.4,0.1-0.4,0.2-0.5c0.3-0.2,0.8-0.3,1.5-0.3c0.5,0,1.2,0.1,1.5,0.4
							c0.1,0.1,0.3,0.3,0.3,1C150.4,135.7,150.5,136.1,150.7,136.4L150.7,136.4z M148.6,145.3c-0.9,0-1.6-0.2-2-0.5
							c-0.2-0.2-0.4-0.5-0.4-1.2c0-0.5-0.2-1-0.5-1.3c0.5,0.2,1.1,0.4,1.7,0.6c1.9,0.6,2.6,1,2.8,1.2c0.1,0.1,0.2,0.1,0.2,0.5
							c0,0.2-0.1,0.3-0.2,0.4C150.1,145,149.7,145.3,148.6,145.3L148.6,145.3z"/>
					</g>
				</g>
			</g>
			<g>
				<path class="st42" d="M570.3,186.3c-1.3-1.6-3.5-2.6-6.7-3.2c-3.2-0.6-5.5-0.8-7.2-0.9l-4.3,22.9l5.2,1l1.6-8.3
					c0.4,0.2,1,0.3,1.7,0.5c3.2,0.6,5.9,0.3,8-1.1c1.7-1,2.7-2.8,3.2-5.1C572.2,189.8,571.7,187.7,570.3,186.3z M561.4,194.1
					c-0.8-0.2-1.3-0.2-1.8-0.5l1.3-6.9c0.4-0.1,1.1,0,2.2,0.2c2.6,0.5,3.8,1.9,3.5,4.2C566.1,193.6,564.2,194.7,561.4,194.1z"/>
				<path class="st42" d="M579,199.5c-2-1.1-2.5-1.6-2.4-2.4c0.2-1,1-1.3,2.3-1c1.4,0.3,2.8,1.2,3.5,1.6l1.6-3.5
					c-1-0.7-2.5-1.5-4.5-1.8c-4.1-0.8-7.3,1.1-7.9,4.2c-0.5,2,0.6,4.2,3.8,6c1.9,1,2.3,1.5,2.1,2.4c-0.2,0.8-1,1.3-2.5,1
					s-3.4-1.4-4.3-2l-1.7,3.6c1.2,1,3,1.8,5.2,2.2c4.8,0.9,7.8-0.9,8.4-4.1C582.9,203.1,582,201.2,579,199.5z"/>
			</g>
			<g>
				<path class="st21" d="M516.7,117.4l-47.6,6.4c-3,0.4-4.9,5.1-4.2,10.4l2.6,19.6c0.7,4.9,3.3,8.7,6.1,8.9c0.4,0,0.8,0.6,0.9,1.3
					l1.4,10.7c0.1,0.6,0.6,0.8,0.7,0.3l3.3-12.5c0.1-0.4,0.3-0.6,0.6-0.7l41.4-5.6c3-0.4,4.9-5.1,4.2-10.4l-2.6-19.6
					C522.8,121,519.8,117,516.7,117.4z"/>
				<g>
					<path class="st42" d="M506.5,131.3c1.9-0.3,2.8-1.7,2.5-3.2c-0.2-1.7-1.5-2.6-3.3-2.4s-2.7,1.5-2.5,3.2
						C503.4,130.4,504.7,131.5,506.5,131.3z"/>
					<path class="st42" d="M486.5,129.4l-4.1,25.4l5.7-0.8l0.9-6.5l6.9-0.9l2.7,6l5.9-0.8l-10.8-23.4L486.5,129.4z M489.1,143.3
						c0,0,1.1-8.7,1.3-10.3c0.4,1.4,4,9.6,4.1,9.5L489.1,143.3z"/>
					
						<rect x="505.3" y="133.5" transform="matrix(0.9911 -0.1332 0.1332 0.9911 -14.4415 68.9413)" class="st42" width="5.5" height="17.8"/>
				</g>
			</g>
		</g>
	</g>
</g>
</svg>
