<?xml version="1.0" encoding="utf-8"?>
<!-- Generator: Adobe Illustrator 23.0.1, SVG Export Plug-In . SVG Version: 6.00 Build 0)  -->
<svg version="1.1" id="レイヤー_1" xmlns="http://www.w3.org/2000/svg" xmlns:xlink="http://www.w3.org/1999/xlink" x="0px"
	 y="0px" viewBox="0 0 571.8 506.6" style="enable-background:new 0 0 571.8 506.6;" xml:space="preserve">
<style type="text/css">
	.st0{fill-rule:evenodd;clip-rule:evenodd;fill:#888888;}
	.st1{fill-rule:evenodd;clip-rule:evenodd;fill:#DEDEDE;}
	.st2{fill:#FFFFFF;stroke:#DEDEDE;stroke-miterlimit:10;}
	.st3{fill:#DEDEDE;}
	.st4{fill:#CCCCCC;}
	.st5{fill:#DEDEDE;stroke:#DEDEDE;stroke-linecap:round;stroke-linejoin:round;stroke-miterlimit:10;}
	.st6{fill-rule:evenodd;clip-rule:evenodd;fill:#FFFFFF;stroke:#DEDEDE;stroke-miterlimit:10;}
	.st7{fill:#FFC4BB;stroke:#0D343F;stroke-width:2;stroke-linecap:round;stroke-linejoin:round;stroke-miterlimit:10;}
	.st8{fill:#FFFFFF;stroke:#0D343F;stroke-width:2;stroke-linecap:round;stroke-linejoin:round;stroke-miterlimit:10;}
	
		.st9{fill:none;stroke:#0D343F;stroke-width:2;stroke-linecap:round;stroke-linejoin:round;stroke-miterlimit:10;stroke-dasharray:2.837;}
	.st10{fill:#888888;}
	.st11{fill:#0D343F;}
	.st12{fill:#EDEDED;}
	.st13{fill:#FFFFFF;stroke:#0D343F;stroke-width:1.5;stroke-linecap:round;stroke-linejoin:round;stroke-miterlimit:10;}
	.st14{fill:#AAAAAA;}
	.st15{fill:#ECECEC;}
	.st16{fill:none;stroke:#0D343F;stroke-width:2;stroke-miterlimit:10;}
	.st17{fill:none;stroke:#0D343F;stroke-width:2;stroke-linecap:round;stroke-linejoin:round;stroke-miterlimit:10;}
	.st18{fill:#ECECEC;stroke:#0D343F;stroke-width:2;stroke-linecap:round;stroke-linejoin:round;stroke-miterlimit:10;}
	.st19{fill:#DEDEDE;stroke:#0D343F;stroke-width:2;stroke-linecap:round;stroke-linejoin:round;stroke-miterlimit:10;}
	.st20{fill:#233740;}
	.st21{fill:#37C8A3;stroke:#0D343F;stroke-width:2;stroke-linecap:round;stroke-linejoin:round;stroke-miterlimit:10;}
	.st22{fill:#F1C1B9;}
	.st23{fill:#37C8A3;}
	.st24{fill:#B1E0D3;stroke:#0D343F;stroke-width:2;stroke-linecap:round;stroke-linejoin:round;stroke-miterlimit:10;}
	.st25{fill:#79C8A4;stroke:#233740;stroke-width:2;stroke-linecap:round;stroke-linejoin:round;stroke-miterlimit:10;}
	.st26{fill:#F1C1B9;stroke:#233740;stroke-width:2;stroke-miterlimit:10;}
	.st27{fill:#FFC4BB;stroke:#233740;stroke-width:0.5;stroke-miterlimit:10;}
	.st28{fill:#77C5A1;stroke:#233740;stroke-width:0.5;stroke-miterlimit:10;}
	.st29{fill:#233740;stroke:#233740;stroke-width:0.5;stroke-miterlimit:10;}
	.st30{fill:none;stroke:#233740;stroke-width:0.5;stroke-miterlimit:10;}
	.st31{fill:#233740;stroke:#233740;stroke-width:2;stroke-miterlimit:10;}
	.st32{fill:#FFFFFF;stroke:#233740;stroke-width:2;stroke-linecap:round;stroke-linejoin:round;stroke-miterlimit:10;}
	.st33{fill:none;stroke:#233740;stroke-width:2;stroke-linecap:round;stroke-linejoin:round;stroke-miterlimit:10;}
	.st34{fill:#FFFFFF;stroke:#233740;stroke-width:2;stroke-miterlimit:10;}
	.st35{fill:#FFFFFF;}
	.st36{fill:#F1C1B9;stroke:#233740;stroke-width:1.5;stroke-miterlimit:10;}
	.st37{fill:#37C8A3;stroke:#233740;stroke-width:1.5;stroke-miterlimit:10;}
	.st38{fill:#F1C1B9;stroke:#233740;stroke-width:2;stroke-linecap:round;stroke-miterlimit:10;}
	.st39{fill:#DD8D85;stroke:#0D343F;stroke-width:2;stroke-linecap:round;stroke-linejoin:round;stroke-miterlimit:10;}
	.st40{fill:#37C8A3;stroke:#233740;stroke-width:2;stroke-miterlimit:10;}
	.st41{fill:none;stroke:#233740;stroke-width:2;stroke-miterlimit:10;}
	.st42{fill:#EFBAD5;stroke:#233740;stroke-width:2;stroke-linecap:round;stroke-linejoin:round;stroke-miterlimit:10;}
	.st43{fill:#DED99C;stroke:#233740;stroke-width:2;stroke-linecap:round;stroke-linejoin:round;stroke-miterlimit:10;}
	.st44{fill:#A8E1E2;stroke:#233740;stroke-width:2;stroke-linecap:round;stroke-linejoin:round;stroke-miterlimit:10;}
	.st45{fill:#FFC4BB;}
</style>
<g id="BACKGROUND">
</g>
<g>
	<path class="st0" d="M514,437.7c0,35.8-102.1,64.8-228.1,64.8s-228.1-29-228.1-64.8s102.1-64.8,228.1-64.8
		C411.8,372.9,514,401.9,514,437.7z"/>
	<path class="st1" d="M514,433c0,35.8-102.1,64.8-228.1,64.8S57.8,468.8,57.8,433s102.1-64.8,228.1-64.8
		C411.8,368.2,514,397.2,514,433z"/>
</g>
<g>
	<g>
		<path class="st2" d="M464.7,137.5l-16.3-20.6c0,0,14.1-9.9,14.4-25.2c12.9-4.2,39.7-7.5,47.3-8.4l-28,22.3c-1.4-1-3.3-1-4.7,0.1
			c-1.7,1.3-2,3.8-0.6,5.5c1.3,1.7,3.8,2,5.5,0.6c1.4-1.1,1.8-3,1.2-4.5l28-22.3c-2.6,7.2-12,32.6-18.9,44.2
			C477.6,126.1,464.7,137.5,464.7,137.5z"/>
		<path class="st3" d="M492.4,129.2c7-11.6,16.3-36.9,18.9-44.2l-28,22.3c0.6,1.6,0.2,3.4-1.2,4.5c-1.7,1.3-4.2,1.1-5.5-0.6
			l-20.1,16l8.2,10.3C464.7,137.5,477.6,126.1,492.4,129.2z"/>
		<g>
			<path class="st3" d="M348.7,212.9L348.7,212.9c-2.9-3.6-2.3-8.9,1.4-11.8l101.1-80.3l10.4,13.1l-101.1,80.3
				C356.9,217.1,351.6,216.5,348.7,212.9z"/>
			<path class="st3" d="M348.7,212.9L348.7,212.9c-2.9-3.6-2.3-8.9,1.4-11.8l101.1-80.3l10.4,13.1l-101.1,80.3
				C356.9,217.1,351.6,216.5,348.7,212.9z"/>
		</g>
		<g>
			<g>
				<path class="st4" d="M460.3,139.1l-14.4-18.2c-1.3-1.6-1-3.9,0.6-5.2l1.2-0.9c1.6-1.3,3.9-1,5.2,0.6l14.4,18.2
					c1.3,1.6,1,3.9-0.6,5.2l-1.2,0.9C463.9,141,461.5,140.7,460.3,139.1z"/>
				<path class="st4" d="M460.3,139.1l-14.4-18.2c-1.3-1.6-1-3.9,0.6-5.2l1.2-0.9c1.6-1.3,3.9-1,5.2,0.6l14.4,18.2
					c1.3,1.6,1,3.9-0.6,5.2l-1.2,0.9C463.9,141,461.5,140.7,460.3,139.1z"/>
			</g>
		</g>
		<g>
			<path class="st5" d="M436.9,70.2C461.2,53,495,58.7,512.2,83c17.2,24.3,11.5,58.1-12.8,75.3l-0.5-0.7
				c23.9-16.9,29.6-50.2,12.6-74.1c-16.9-23.9-50.1-29.6-74-12.6L436.9,70.2z"/>
			<polygon class="st5" points="480.4,39.9 481.2,39.3 543.1,126.8 542.4,127.3 			"/>
			<g>
				
					<rect x="507.8" y="79.3" transform="matrix(0.8161 -0.5779 0.5779 0.8161 45.9752 311.0589)" class="st5" width="8" height="8"/>
				<path class="st5" d="M505.6,82.3l7.3-5.1l5.1,7.3l-7.3,5.1L505.6,82.3z M512.6,78.4l-5.8,4.1l4.1,5.8l5.8-4.1L512.6,78.4z"/>
			</g>
			<g>
				
					<rect x="432.9" y="66.5" transform="matrix(0.8159 -0.5781 0.5781 0.8159 39.6427 265.5892)" class="st5" width="8" height="8"/>
				<path class="st5" d="M430.9,69.5l7.2-5.1l5.1,7.3l-7.3,5.1L430.9,69.5z M438,65.6l-5.8,4.1l4.1,5.8l5.8-4.1L438,65.6z"/>
			</g>
			<g>
				<rect x="495.2" y="154.2" transform="matrix(0.8161 -0.578 0.578 0.8161 0.3892 317.6096)" class="st5" width="8" height="8"/>
				<path class="st5" d="M493,157.2l7.2-5.1l5.1,7.3l-7.3,5.1L493,157.2z M500,153.2l-5.8,4.1l4.1,5.8l5.8-4.1L500,153.2z"/>
			</g>
			<g>
				<path class="st5" d="M545.2,130.5c-1.8,1.3-4.3,0.9-5.6-0.9c-1.3-1.8-0.9-4.3,1-5.6c1.8-1.3,4.3-0.9,5.6,0.9
					C547.4,126.7,547,129.2,545.2,130.5z"/>
				<path class="st5" d="M538.5,126.5c0.2-1.2,0.8-2.2,1.8-2.9c2-1.4,4.8-0.9,6.2,1.1c0.7,1,1,2.1,0.8,3.3c-0.2,1.2-0.8,2.2-1.8,2.9
					l0,0c-1,0.7-2.1,1-3.3,0.8s-2.2-0.8-2.9-1.8C538.6,128.8,538.3,127.6,538.5,126.5z M546.4,127.8c0.2-0.9-0.1-1.9-0.6-2.7
					c-1.1-1.6-3.4-2-5-0.8c-1.6,1.1-2,3.4-0.8,5c0.5,0.8,1.4,1.3,2.3,1.5c0.9,0.2,1.9-0.1,2.7-0.6l0,0
					C545.7,129.6,546.2,128.8,546.4,127.8z"/>
			</g>
			<g>
				<path class="st5" d="M483.1,42.9c-1.8,1.3-4.3,0.9-5.6-0.9c-1.3-1.8-0.9-4.3,0.9-5.6s4.3-0.9,5.6,1
					C485.3,39.1,484.9,41.6,483.1,42.9z"/>
				<path class="st5" d="M476.4,38.9c0.2-1.1,0.8-2.2,1.8-2.9c2-1.4,4.8-0.9,6.2,1.1s0.9,4.8-1.1,6.2l0,0c-2,1.4-4.8,0.9-6.2-1.1
					C476.5,41.2,476.2,40,476.4,38.9z M484.3,40.2c0.2-0.9,0-1.9-0.6-2.7c-1.1-1.6-3.4-2-5-0.8c-1.6,1.1-2,3.4-0.8,5
					c1.1,1.6,3.4,2,5,0.8C483.7,41.9,484.2,41.1,484.3,40.2z"/>
			</g>
		</g>
	</g>
	<g>
		<g>
			<g>
				<g>
					<g>
						<path class="st1" d="M191.1,123.3c4,3,7.6,6.5,10.6,10.4l13.6-2.5l9,21l-11.2,8.1c0.7,4.9,0.8,9.9,0.2,14.9l11.4,7.9
							l-8.5,21.2l-13.6-2.2c-3,4-6.5,7.6-10.4,10.6l2.5,13.6l-21,9l-8.1-11.2c-4.9,0.7-9.9,0.8-14.9,0.2l-7.9,11.4l-21.2-8.5
							l2.2-13.6c-4-3-7.6-6.5-10.6-10.4l-13.6,2.5l-9-21l11.2-8.1c-0.7-4.9-0.8-9.9-0.2-14.9l-11.4-7.9l8.5-21.2l13.6,2.2
							c3-4,6.5-7.6,10.4-10.6l-2.5-13.6l21-9l8.1,11.2c4.9-0.7,9.9-0.8,14.9-0.2l7.9-11.4l21.2,8.5L191.1,123.3L191.1,123.3z
							 M167.4,146c-12.6-5-26.9,1-31.9,13.6c-5.1,12.6,1,26.9,13.6,31.9c12.6,5.1,26.9-1,31.9-13.6C186.1,165.4,180,151.1,167.4,146
							z"/>
					</g>
				</g>
			</g>
		</g>
		<g>
			<g>
				<g>
					<g>
						<path class="st6" d="M81.3,67.8c2.3,1.7,4.3,3.7,6,5.9l7.6-1.4l5,11.8l-6.3,4.5c0.4,2.7,0.4,5.6,0.1,8.4l6.4,4.4l-4.8,11.9
							l-7.7-1.2c-1.7,2.3-3.7,4.3-5.9,6l1.4,7.6l-11.8,5l-4.5-6.3c-2.7,0.4-5.6,0.4-8.4,0.1l-4.4,6.4l-11.9-4.8l1.2-7.7
							c-2.3-1.7-4.3-3.7-6-5.9l-7.6,1.4l-5-11.8l6.3-4.5c-0.4-2.7-0.4-5.6-0.1-8.4l-6.4-4.4L29.4,73l7.7,1.2c1.7-2.3,3.7-4.3,5.9-6
							l-1.5-7.6l11.8-5l4.5,6.3c2.7-0.4,5.6-0.4,8.4-0.1l4.4-6.4l11.9,4.8L81.3,67.8L81.3,67.8z M68.1,80.6
							C61,77.8,53,81.2,50.2,88.2c-2.8,7.1,0.6,15.1,7.6,17.9c7.1,2.8,15.1-0.6,17.9-7.6S75.1,83.4,68.1,80.6z"/>
					</g>
				</g>
			</g>
		</g>
	</g>
</g>
<g>
	<g>
		<path class="st7" d="M365.7,407.9H206.1c-13.9,0-25.2-10.9-25.2-24.4V39.3c0-13.5,11.3-24.4,25.2-24.4h159.6
			c13.9,0,25.2,10.9,25.2,24.4v344.3C390.9,397,379.6,407.9,365.7,407.9z"/>
		<path class="st8" d="M378.1,39v340.9c0,8-6.7,14.5-14.9,14.5H208.6c-8.3,0-14.9-6.5-14.9-14.5V39c0-8,6.7-14.5,14.9-14.5h25.8
			c1.4,0,2.7,0.8,3.4,2l2.7,5.3c1.2,2.4,3.8,4,6.6,4h77.5c2.8,0,5.4-1.5,6.6-4l2.7-5.3c0.6-1.2,1.9-2,3.4-2h25.8
			C371.4,24.5,378.1,31,378.1,39z"/>
		<path class="st8" d="M318.4,29.6H256c-1.5,0-2.6-1.1-2.6-2.5l0,0c0-1.4,1.2-2.5,2.6-2.5h62.4c1.5,0,2.6,1.1,2.6,2.5l0,0
			C321,28.5,319.9,29.6,318.4,29.6z"/>
	</g>
	<path class="st9" d="M355.1,381.8h-142c-4.6,0-8.4-3.8-8.4-8.4v-52.1c0-4.6,3.8-8.4,8.4-8.4h142c4.6,0,8.4,3.8,8.4,8.4v52.1
		C363.4,378,359.7,381.8,355.1,381.8z"/>
	<path class="st9" d="M353,212.8h-80.1c-4.6,0-8.3-3.2-8.3-7.1v-34.1c0-3.9,3.7-7.1,8.3-7.1H353c4.6,0,8.3,3.2,8.3,7.1v34.1
		C361.3,209.6,357.6,212.8,353,212.8z"/>
	<g>
		<path class="st10" d="M217.1,305.4c-3.4,0-6.2-2.8-6.2-6.2v-62.6c0-3.4,2.8-6.2,6.2-6.2h145c3.4,0,6.2,2.8,6.2,6.2v62.6
			c0,3.4-2.8,6.2-6.2,6.2H217.1z"/>
		<path class="st11" d="M362,231.3c2.9,0,5.2,2.3,5.2,5.2v62.6c0,2.9-2.3,5.2-5.2,5.2H217.1c-2.9,0-5.2-2.3-5.2-5.2v-62.6
			c0-2.9,2.3-5.2,5.2-5.2H362 M362,229.3H217.1c-4,0-7.2,3.2-7.2,7.2v62.6c0,4,3.2,7.2,7.2,7.2h145c4,0,7.2-3.2,7.2-7.2v-62.6
			C369.2,232.6,366,229.3,362,229.3L362,229.3z"/>
	</g>
	<g>
		<path class="st12" d="M212.6,299.1c-4.1,0-7.5-3.4-7.5-7.5v-60.1c0-4.1,3.4-7.5,7.5-7.5h141.8c4.1,0,7.5,3.4,7.5,7.5v60.1
			c0,4.1-3.4,7.5-7.5,7.5H212.6z"/>
		<path class="st11" d="M354.3,225.1c3.6,0,6.5,2.9,6.5,6.5v60.1c0,3.6-2.9,6.5-6.5,6.5H212.6c-3.6,0-6.5-2.9-6.5-6.5v-60.1
			c0-3.6,2.9-6.5,6.5-6.5H354.3 M354.3,223.1H212.6c-4.7,0-8.5,3.8-8.5,8.5v60.1c0,4.7,3.8,8.5,8.5,8.5h141.8c4.7,0,8.5-3.8,8.5-8.5
			v-60.1C362.8,226.9,359,223.1,354.3,223.1L354.3,223.1z"/>
	</g>
	<g>
		<path class="st13" d="M308.4,247.4h-36.8c-1,0-1.8-0.8-1.8-1.8l0,0c0-1,0.8-1.8,1.8-1.8h36.8c1,0,1.8,0.8,1.8,1.8l0,0
			C310.2,246.6,309.4,247.4,308.4,247.4z"/>
		<path class="st13" d="M291.7,254.6h-20c-1,0-1.8-0.8-1.8-1.8l0,0c0-1,0.8-1.8,1.8-1.8h20c1,0,1.8,0.8,1.8,1.8l0,0
			C293.5,253.8,292.7,254.6,291.7,254.6z"/>
		<path class="st13" d="M353.2,254.6H299c-1,0-1.8-0.8-1.8-1.8l0,0c0-1,0.8-1.8,1.8-1.8h54.2c1,0,1.8,0.8,1.8,1.8l0,0
			C355,253.8,354.2,254.6,353.2,254.6z"/>
		<path class="st13" d="M302.6,261.8h-31c-1,0-1.8-0.8-1.8-1.8l0,0c0-1,0.8-1.8,1.8-1.8h31c1,0,1.8,0.8,1.8,1.8l0,0
			C304.4,261,303.6,261.8,302.6,261.8z"/>
		<path class="st13" d="M328.9,261.8h-19.5c-1,0-1.8-0.8-1.8-1.8l0,0c0-1,0.8-1.8,1.8-1.8h19.5c1,0,1.8,0.8,1.8,1.8l0,0
			C330.7,261,329.9,261.8,328.9,261.8z"/>
		<path class="st13" d="M353.2,261.8h-17.9c-1,0-1.8-0.8-1.8-1.8l0,0c0-1,0.8-1.8,1.8-1.8h17.9c1,0,1.8,0.8,1.8,1.8l0,0
			C355,261,354.2,261.8,353.2,261.8z"/>
		<path class="st13" d="M353.2,269.1h-81.6c-1,0-1.8-0.8-1.8-1.8l0,0c0-1,0.8-1.8,1.8-1.8h81.6c1,0,1.8,0.8,1.8,1.8l0,0
			C355,268.3,354.2,269.1,353.2,269.1z"/>
		<path class="st13" d="M316.5,276.3h-44.9c-1,0-1.8-0.8-1.8-1.8l0,0c0-1,0.8-1.8,1.8-1.8h44.9c1,0,1.8,0.8,1.8,1.8l0,0
			C318.3,275.5,317.5,276.3,316.5,276.3z"/>
		<path class="st13" d="M353.2,276.3h-29.4c-1,0-1.8-0.8-1.8-1.8l0,0c0-1,0.8-1.8,1.8-1.8h29.4c1,0,1.8,0.8,1.8,1.8l0,0
			C355,275.5,354.2,276.3,353.2,276.3z"/>
		<path class="st13" d="M298,283.5h-26.4c-1,0-1.8-0.8-1.8-1.8l0,0c0-1,0.8-1.8,1.8-1.8H298c1,0,1.8,0.8,1.8,1.8l0,0
			C299.8,282.7,299,283.5,298,283.5z"/>
		<path class="st13" d="M331.5,283.5h-26.4c-1,0-1.8-0.8-1.8-1.8l0,0c0-1,0.8-1.8,1.8-1.8h26.4c1,0,1.8,0.8,1.8,1.8l0,0
			C333.3,282.7,332.5,283.5,331.5,283.5z"/>
		<path class="st13" d="M353.2,283.5h-15.3c-1,0-1.8-0.8-1.8-1.8l0,0c0-1,0.8-1.8,1.8-1.8h15.3c1,0,1.8,0.8,1.8,1.8l0,0
			C355,282.7,354.2,283.5,353.2,283.5z"/>
		<path class="st13" d="M308.4,290.8h-36.8c-1,0-1.8-0.8-1.8-1.8l0,0c0-1,0.8-1.8,1.8-1.8h36.8c1,0,1.8,0.8,1.8,1.8l0,0
			C310.2,290,309.4,290.8,308.4,290.8z"/>
		<path class="st13" d="M353.2,247.4h-36.8c-1,0-1.8-0.8-1.8-1.8l0,0c0-1,0.8-1.8,1.8-1.8h36.8c1,0,1.8,0.8,1.8,1.8l0,0
			C355,246.6,354.2,247.4,353.2,247.4z"/>
	</g>
	<g>
		<g>
			<path class="st14" d="M205.1,233.1v-1.5c0-4.1,3.4-7.5,7.5-7.5h141.8c4.1,0,7.5,3.4,7.5,7.5v1.5H205.1z"/>
			<path class="st11" d="M354.3,225.1c3.6,0,6.5,2.9,6.5,6.5v0.5H206.1v-0.5c0-3.6,2.9-6.5,6.5-6.5H354.3 M354.3,223.1H212.6
				c-4.7,0-8.5,3.8-8.5,8.5v2.5h158.7v-2.5C362.8,226.9,359,223.1,354.3,223.1L354.3,223.1z"/>
		</g>
		<g>
			<g>
				<path class="st15" d="M332.9,228.8c0,1.1-0.9,2-2,2c-1.1,0-2-0.9-2-2s0.9-2,2-2C332,226.8,332.9,227.7,332.9,228.8z"/>
			</g>
			<g>
				<path class="st15" d="M343,228.8c0,1.1-0.9,2-2,2c-1.1,0-2-0.9-2-2s0.9-2,2-2C342.1,226.8,343,227.7,343,228.8z"/>
			</g>
			<g>
				<path class="st15" d="M353,228.8c0,1.1-0.9,2-2,2c-1.1,0-2-0.9-2-2s0.9-2,2-2C352.1,226.8,353,227.7,353,228.8z"/>
			</g>
		</g>
	</g>
	<g>
		<path class="st16" d="M249.2,212.8h-34c-3.9,0-7.2-3.2-7.2-7.2v-34c0-3.9,3.2-7.2,7.2-7.2h34c3.9,0,7.2,3.2,7.2,7.2v34
			C256.4,209.6,253.2,212.8,249.2,212.8z"/>
		<g>
			<polyline class="st17" points="224.7,181.7 217.8,188.6 224.8,195.7 			"/>
			<polyline class="st17" points="239.8,181.7 246.7,188.6 239.7,195.7 			"/>
			<line class="st17" x1="235.5" y1="181.7" x2="229" y2="195.7"/>
		</g>
	</g>
	<g>
		<path class="st7" d="M353.6,328v39.1c0,2.1-1.7,3.8-3.8,3.8h-55.6c-2.1,0-3.8-1.7-3.8-3.8V328c0-2.1,1.7-3.8,3.8-3.8h55.6
			C351.9,324.1,353.6,325.9,353.6,328z"/>
		<path class="st18" d="M349.9,336.5c0,5.1-4.1,9.2-9.2,9.2c-5.1,0-9.2-4.1-9.2-9.2s4.1-9.2,9.2-9.2
			C345.8,327.3,349.9,331.4,349.9,336.5z"/>
		<path class="st8" d="M327.5,371h-33.3c-2.1,0-3.8-1.7-3.8-3.8V361l14.6-25.3c0.8-1.3,2.7-1.3,3.4,0l11,19.1l8.2,14.2
			C327.9,369.6,327.9,370.4,327.5,371z"/>
		<path class="st18" d="M341.9,371H310l9.4-16.2l5-8.7c0.7-1.2,2.4-1.2,3.1,0L341.9,371z"/>
	</g>
	<g>
		<path class="st15" d="M215.8,291.5c-2.1,0-3.9-1.7-3.9-3.9v-43.5c0-2.1,1.7-3.9,3.9-3.9h43.5c2.1,0,3.9,1.7,3.9,3.9v43.5
			c0,2.1-1.7,3.9-3.9,3.9H215.8z"/>
		<path class="st11" d="M259.3,241.3c1.6,0,2.9,1.3,2.9,2.9v43.5c0,1.6-1.3,2.9-2.9,2.9h-43.5c-1.6,0-2.9-1.3-2.9-2.9v-43.5
			c0-1.6,1.3-2.9,2.9-2.9L259.3,241.3 M259.3,239.3h-43.5c-2.7,0-4.9,2.2-4.9,4.9v43.5c0,2.7,2.2,4.9,4.9,4.9h43.5
			c2.7,0,4.9-2.2,4.9-4.9v-43.5C264.2,241.5,262,239.3,259.3,239.3L259.3,239.3z"/>
	</g>
	<g>
		<path class="st19" d="M257,370.9h-31.5c-4.3,0-7.7-3.5-7.7-7.7v-31.5c0-4.3,3.5-7.7,7.7-7.7H257c4.3,0,7.7,3.5,7.7,7.7v31.5
			C264.7,367.4,261.2,370.9,257,370.9z"/>
		<path class="st20" d="M235.7,338.6l13.5,7.8c0.8,0.5,0.8,1.7,0,2.2l-13.5,7.8c-0.8,0.5-1.9-0.1-1.9-1.1v-15.5
			C233.8,338.7,234.9,338.1,235.7,338.6z"/>
	</g>
	<g>
		<rect x="271.9" y="326.1" class="st7" width="11.8" height="12.1"/>
		<rect x="272" y="342.2" class="st21" width="11.8" height="12.1"/>
		<rect x="272" y="357.9" class="st19" width="11.8" height="12.1"/>
	</g>
	<g>
		<g>
			<g>
				<path class="st22" d="M242.6,94.6c-0.4,0-0.8-0.3-0.9-0.7l-1.5-4.5h-7.6l-1.5,4.5c-0.1,0.4-0.5,0.7-0.9,0.7h-5.5
					c-0.3,0-0.6-0.2-0.8-0.4s-0.2-0.6-0.1-0.9l9.3-25c0.1-0.4,0.5-0.7,0.9-0.7h4.8c0.4,0,0.8,0.3,0.9,0.6l9.4,25
					c0.1,0.3,0.1,0.7-0.1,0.9c-0.2,0.3-0.5,0.4-0.8,0.4L242.6,94.6L242.6,94.6z M238.1,83.3l-1.7-5.2l-1.7,5.2H238.1z"/>
				<path class="st20" d="M238.8,68.6l9.4,25h-5.5l-1.7-5.2h-9l-1.7,5.2h-5.5l9.3-25H238.8 M233.3,84.3h6.2l-3.1-9.4L233.3,84.3
					 M238.8,66.6H234c-0.8,0-1.6,0.5-1.9,1.3l-9.3,25c-0.2,0.6-0.1,1.3,0.2,1.8c0.4,0.5,1,0.9,1.6,0.9h5.5c0.9,0,1.6-0.6,1.9-1.4
					l1.3-3.8h6.2l1.3,3.8c0.3,0.8,1,1.4,1.9,1.4h5.5c0.7,0,1.3-0.3,1.6-0.9c0.4-0.5,0.5-1.2,0.2-1.8l-9.4-25
					C240.3,67.1,239.6,66.6,238.8,66.6L238.8,66.6z M236,82.3l0.3-1l0.4,1H236L236,82.3z"/>
			</g>
			<g>
				<path class="st20" d="M257.8,75l0.2,2.1c0.6-0.8,1.4-1.4,2.3-1.8c0.9-0.4,1.9-0.6,3-0.6c0.9,0,1.7,0.1,2.4,0.4
					c0.7,0.2,1.3,0.7,1.9,1.2c0.5,0.6,0.9,1.3,1.2,2.2c0.3,0.9,0.4,2,0.4,3.3v11.8h-5V81.7c0-0.6-0.1-1.1-0.2-1.5
					c-0.1-0.4-0.3-0.7-0.6-0.9c-0.3-0.2-0.6-0.4-0.9-0.5c-0.4-0.1-0.8-0.1-1.3-0.1c-0.7,0-1.4,0.2-1.9,0.5s-0.9,0.8-1.3,1.3v13.1h-5
					V75H257.8z"/>
			</g>
			<g>
				<path class="st20" d="M278.7,75l0.2,2.1c0.6-0.8,1.4-1.4,2.3-1.8c0.9-0.4,1.9-0.6,3-0.6c0.9,0,1.7,0.1,2.4,0.4
					c0.7,0.2,1.3,0.7,1.9,1.2c0.5,0.6,0.9,1.3,1.2,2.2c0.3,0.9,0.4,2,0.4,3.3v11.8h-5V81.7c0-0.6-0.1-1.1-0.2-1.5
					c-0.1-0.4-0.3-0.7-0.6-0.9c-0.3-0.2-0.6-0.4-0.9-0.5c-0.4-0.1-0.8-0.1-1.3-0.1c-0.7,0-1.4,0.2-1.9,0.5s-0.9,0.8-1.3,1.3v13.1h-5
					V75H278.7z"/>
			</g>
			<g>
				<path class="st20" d="M295,70.2c0-0.7,0.2-1.4,0.7-1.8c0.5-0.5,1.2-0.7,2-0.7c0.4,0,0.8,0.1,1.2,0.2c0.3,0.1,0.6,0.3,0.9,0.5
					c0.2,0.2,0.4,0.5,0.6,0.8c0.1,0.3,0.2,0.7,0.2,1c0,0.4-0.1,0.7-0.2,1c-0.1,0.3-0.3,0.6-0.6,0.8c-0.2,0.2-0.5,0.4-0.9,0.5
					c-0.3,0.1-0.7,0.2-1.2,0.2c-0.4,0-0.8-0.1-1.1-0.2c-0.3-0.1-0.6-0.3-0.9-0.5c-0.2-0.2-0.4-0.5-0.6-0.8
					C295.1,70.9,295,70.6,295,70.2z M300.3,93.6h-5V75h5V93.6z"/>
			</g>
			<g>
				<path class="st20" d="M314.2,93.9c-1.4,0-2.7-0.2-3.9-0.7c-1.1-0.5-2.1-1.1-2.9-1.9s-1.4-1.8-1.8-2.9c-0.4-1.1-0.6-2.3-0.6-3.5
					v-0.7c0-1.4,0.2-2.7,0.6-3.9c0.4-1.2,1-2.2,1.7-3c0.8-0.8,1.7-1.5,2.7-2c1.1-0.5,2.3-0.7,3.6-0.7c1.3,0,2.5,0.2,3.5,0.7
					c1,0.4,1.9,1.1,2.6,1.9s1.2,1.8,1.6,2.9c0.3,1.1,0.5,2.4,0.5,3.7v2.1H310c0.1,0.6,0.2,1.2,0.5,1.6c0.2,0.5,0.6,0.9,0.9,1.3
					c0.4,0.4,0.8,0.6,1.3,0.8c0.5,0.2,1.1,0.3,1.7,0.3c0.9,0,1.7-0.2,2.5-0.5s1.4-0.9,2-1.6l2.4,2.7c-0.3,0.4-0.7,0.8-1.1,1.2
					c-0.4,0.4-1,0.8-1.6,1.1c-0.6,0.3-1.3,0.6-2.1,0.8C315.9,93.8,315.1,93.9,314.2,93.9z M313.6,78.7c-0.5,0-1,0.1-1.4,0.3
					c-0.4,0.2-0.8,0.5-1,0.8c-0.3,0.3-0.5,0.7-0.7,1.2s-0.3,1-0.4,1.6h6.9v-0.4c0-0.5-0.1-1-0.2-1.4c-0.1-0.4-0.3-0.8-0.6-1.1
					c-0.3-0.3-0.6-0.5-1-0.7C314.7,78.8,314.2,78.7,313.6,78.7z"/>
			</g>
			<g>
				<path class="st20" d="M329.3,69.9c0,0.6-0.1,1.1-0.2,1.7c-0.2,0.6-0.4,1.2-0.7,1.7c-0.3,0.6-0.6,1.1-1,1.6
					c-0.4,0.5-0.8,0.9-1.2,1.3l-2.3-1.4c0.2-0.3,0.4-0.7,0.6-1.1s0.3-0.8,0.5-1.2c0.1-0.4,0.2-0.8,0.3-1.3c0.1-0.5,0.1-1,0.1-1.5V67
					h3.9L329.3,69.9L329.3,69.9z"/>
			</g>
			<g>
				<path class="st20" d="M340.1,88.4c0-0.3-0.1-0.5-0.2-0.7c-0.1-0.2-0.3-0.4-0.6-0.6c-0.3-0.2-0.7-0.4-1.2-0.5
					c-0.5-0.2-1.1-0.3-1.9-0.5c-0.9-0.2-1.8-0.5-2.6-0.8c-0.8-0.3-1.5-0.7-2.1-1.2c-0.6-0.5-1.1-1-1.4-1.6s-0.5-1.3-0.5-2.1
					c0-0.8,0.2-1.5,0.5-2.2s0.8-1.3,1.5-1.8c0.6-0.5,1.4-1,2.3-1.3c0.9-0.3,2-0.5,3.1-0.5c1.2,0,2.3,0.1,3.2,0.4
					c1,0.3,1.8,0.7,2.4,1.2c0.7,0.5,1.2,1.2,1.5,1.9c0.4,0.7,0.5,1.5,0.5,2.4h-5c0-0.7-0.2-1.3-0.7-1.8s-1.2-0.7-2.1-0.7
					c-0.8,0-1.5,0.2-1.9,0.6c-0.5,0.4-0.7,0.9-0.7,1.4c0,0.3,0.1,0.5,0.2,0.7c0.1,0.2,0.3,0.4,0.6,0.6c0.3,0.2,0.6,0.3,1.1,0.5
					c0.4,0.1,1,0.3,1.6,0.4c1,0.2,1.9,0.4,2.8,0.7c0.9,0.3,1.6,0.7,2.2,1.1c0.6,0.5,1.1,1,1.5,1.6c0.4,0.6,0.5,1.4,0.5,2.3
					c0,0.8-0.2,1.6-0.6,2.3c-0.4,0.7-0.9,1.3-1.6,1.8s-1.5,0.9-2.5,1.2c-1,0.3-2,0.4-3.2,0.4c-1.3,0-2.5-0.2-3.4-0.6
					c-1-0.4-1.8-0.8-2.5-1.4s-1.2-1.3-1.5-2s-0.5-1.5-0.5-2.3h4.7c0,0.5,0.1,0.9,0.3,1.2c0.2,0.3,0.4,0.6,0.7,0.9
					c0.3,0.2,0.7,0.4,1.1,0.5c0.4,0.1,0.8,0.2,1.3,0.2c0.9,0,1.7-0.2,2.2-0.5C339.9,89.5,340.1,89,340.1,88.4z"/>
			</g>
		</g>
		<g>
			<g>
				<path class="st23" d="M214.5,136.8c-0.6,0-1-0.4-1-1v-25c0-0.6,0.4-1,1-1h9.8c1.6,0,3,0.2,4.3,0.7s2.4,1.1,3.3,1.9
					s1.6,1.8,2.1,3c0.5,1.1,0.7,2.4,0.7,3.7c0,1.3-0.2,2.6-0.7,3.7s-1.2,2.1-2.1,2.9s-2,1.4-3.3,1.8c-1.2,0.4-2.7,0.6-4.3,0.6h-3.6
					v7.8c0,0.6-0.4,1-1,1h-5.2V136.8z M224.3,121.8c0.6,0,1.2-0.1,1.6-0.2c0.4-0.1,0.7-0.3,0.9-0.5s0.4-0.5,0.5-0.8
					c0.1-0.4,0.2-0.7,0.2-1.2c0-0.4-0.1-0.8-0.2-1.2c-0.1-0.4-0.3-0.7-0.5-1s-0.5-0.5-1-0.7c-0.4-0.2-0.9-0.3-1.5-0.3h-3.6v5.9
					C220.7,121.8,224.3,121.8,224.3,121.8z"/>
				<path class="st20" d="M224.3,110.8c1.5,0,2.8,0.2,4,0.6s2.1,1,3,1.7c0.8,0.7,1.4,1.6,1.8,2.6s0.6,2.1,0.6,3.3
					c0,1.2-0.2,2.3-0.6,3.3s-1,1.8-1.8,2.5s-1.8,1.2-3,1.6s-2.5,0.6-4,0.6h-4.6v8.8h-5.2v-25H224.3 M219.7,122.8h4.6
					c0.7,0,1.4-0.1,1.9-0.3c0.5-0.2,1-0.4,1.3-0.8c0.3-0.3,0.6-0.7,0.7-1.2c0.2-0.5,0.2-1,0.2-1.5s-0.1-1.1-0.2-1.6
					c-0.2-0.5-0.4-0.9-0.7-1.3s-0.8-0.7-1.3-0.9c-0.5-0.2-1.2-0.3-1.9-0.3h-4.6V122.8 M224.3,108.8h-9.8c-1.1,0-2,0.9-2,2v25
					c0,1.1,0.9,2,2,2h5.2c1.1,0,2-0.9,2-2V129h2.6c1.7,0,3.2-0.2,4.6-0.7c1.4-0.5,2.6-1.1,3.6-2s1.8-2,2.4-3.2
					c0.5-1.2,0.8-2.6,0.8-4.1s-0.3-2.8-0.8-4.1c-0.5-1.3-1.3-2.4-2.3-3.3s-2.2-1.6-3.6-2.1C227.5,109,226,108.8,224.3,108.8
					L224.3,108.8z M221.7,117h2.6c0.5,0,0.8,0.1,1.1,0.2c0.2,0.1,0.5,0.2,0.6,0.4c0.2,0.2,0.3,0.4,0.3,0.6c0.1,0.3,0.1,0.6,0.1,0.9
					s0,0.6-0.1,0.8c-0.1,0.2-0.1,0.3-0.3,0.4c-0.1,0.1-0.3,0.2-0.6,0.3c-0.3,0.1-0.7,0.2-1.2,0.2h-2.6L221.7,117L221.7,117z"/>
			</g>
			<g>
				<path class="st20" d="M237.1,126.3c0-1.4,0.2-2.6,0.6-3.8c0.4-1.2,1-2.2,1.7-3s1.7-1.5,2.8-2c1.1-0.5,2.3-0.7,3.7-0.7
					s2.7,0.2,3.8,0.7s2,1.1,2.8,2c0.8,0.8,1.3,1.8,1.7,3s0.6,2.4,0.6,3.8v0.4c0,1.4-0.2,2.6-0.6,3.8s-1,2.1-1.7,3
					c-0.7,0.8-1.7,1.5-2.8,2s-2.3,0.7-3.7,0.7s-2.7-0.2-3.8-0.7s-2-1.1-2.8-2c-0.8-0.8-1.3-1.8-1.7-3s-0.6-2.4-0.6-3.8L237.1,126.3
					L237.1,126.3z M242.1,126.7c0,0.8,0.1,1.5,0.2,2.1c0.1,0.7,0.4,1.2,0.7,1.7s0.7,0.9,1.2,1.2s1.1,0.4,1.8,0.4
					c0.7,0,1.3-0.1,1.8-0.4c0.5-0.3,0.9-0.7,1.2-1.2c0.3-0.5,0.5-1.1,0.7-1.7c0.1-0.7,0.2-1.4,0.2-2.1v-0.4c0-0.7-0.1-1.4-0.2-2.1
					s-0.4-1.2-0.7-1.7c-0.3-0.5-0.7-0.9-1.2-1.2c-0.5-0.3-1.1-0.4-1.8-0.4c-0.7,0-1.3,0.1-1.8,0.4s-0.9,0.7-1.2,1.2
					s-0.5,1.1-0.7,1.7c-0.1,0.7-0.2,1.4-0.2,2.1V126.7z"/>
			</g>
			<g>
				<path class="st20" d="M269.4,121.9c-0.2,0-0.5-0.1-0.9-0.1c-0.3,0-0.6,0-0.9,0c-1,0-1.8,0.2-2.4,0.5c-0.6,0.3-1,0.8-1.3,1.4
					v12.2h-5v-18.6h4.7l0.1,2.2c0.5-0.8,1-1.4,1.7-1.9s1.5-0.7,2.4-0.7c0.3,0,0.5,0,0.8,0.1c0.3,0,0.5,0.1,0.7,0.2L269.4,121.9z"/>
			</g>
			<g>
				<path class="st20" d="M279.8,112.6v4.6h3.2v3.6h-3.2v9.3c0,0.4,0,0.7,0.1,1c0.1,0.3,0.2,0.5,0.4,0.6s0.4,0.2,0.6,0.3
					s0.5,0.1,0.8,0.1s0.6,0,0.8,0c0.2,0,0.5-0.1,0.6-0.1v3.8c-0.4,0.1-0.9,0.2-1.3,0.3c-0.5,0.1-1,0.1-1.7,0.1
					c-0.8,0-1.5-0.1-2.2-0.3s-1.2-0.5-1.7-1c-0.5-0.4-0.8-1-1.1-1.7c-0.3-0.7-0.4-1.5-0.4-2.5v-9.8H272v-3.6h2.7v-4.6h5.1
					L279.8,112.6L279.8,112.6z"/>
			</g>
			<g>
				<path class="st20" d="M288.4,135.8v-14.9h-2.8v-3.6h2.8v-1.6c0-1.1,0.2-2,0.5-2.8s0.8-1.5,1.4-2.1c0.6-0.6,1.3-1,2.1-1.3
					s1.8-0.4,2.8-0.4c0.5,0,0.9,0,1.3,0.1c0.4,0.1,0.8,0.1,1.2,0.2l-0.1,3.8c-0.4-0.1-0.9-0.2-1.5-0.2c-0.9,0-1.6,0.2-2.1,0.6
					s-0.7,1.1-0.7,1.9v1.6h3.7v3.6h-3.7v14.9h-4.9V135.8L288.4,135.8z"/>
			</g>
			<g>
				<path class="st20" d="M300.1,126.3c0-1.4,0.2-2.6,0.6-3.8c0.4-1.2,1-2.2,1.7-3s1.7-1.5,2.8-2c1.1-0.5,2.3-0.7,3.7-0.7
					s2.7,0.2,3.8,0.7c1.1,0.5,2,1.1,2.8,2c0.7,0.8,1.3,1.8,1.7,3s0.6,2.4,0.6,3.8v0.4c0,1.4-0.2,2.6-0.6,3.8c-0.4,1.2-1,2.1-1.7,3
					c-0.8,0.8-1.7,1.5-2.8,2s-2.3,0.7-3.7,0.7c-1.4,0-2.7-0.2-3.8-0.7s-2-1.1-2.8-2c-0.8-0.8-1.3-1.8-1.7-3
					c-0.4-1.2-0.6-2.4-0.6-3.8V126.3z M305,126.7c0,0.8,0.1,1.5,0.2,2.1c0.1,0.7,0.4,1.2,0.7,1.7c0.3,0.5,0.7,0.9,1.2,1.2
					s1.1,0.4,1.8,0.4s1.3-0.1,1.8-0.4c0.5-0.3,0.9-0.7,1.2-1.2c0.3-0.5,0.5-1.1,0.7-1.7c0.1-0.7,0.2-1.4,0.2-2.1v-0.4
					c0-0.7-0.1-1.4-0.2-2.1c-0.1-0.7-0.4-1.2-0.7-1.7s-0.7-0.9-1.2-1.2c-0.5-0.3-1.1-0.4-1.8-0.4c-0.7,0-1.3,0.1-1.8,0.4
					s-0.9,0.7-1.2,1.2s-0.5,1.1-0.7,1.7c-0.1,0.7-0.2,1.4-0.2,2.1V126.7z"/>
			</g>
			<g>
				<path class="st20" d="M327.2,135.8h-5v-26.4h5V135.8z"/>
			</g>
			<g>
				<path class="st20" d="M332.5,112.4c0-0.7,0.3-1.4,0.8-1.8c0.5-0.5,1.2-0.7,2-0.7c0.4,0,0.8,0.1,1.2,0.2c0.3,0.1,0.6,0.3,0.9,0.5
					c0.2,0.2,0.4,0.5,0.6,0.8c0.1,0.3,0.2,0.7,0.2,1c0,0.4-0.1,0.7-0.2,1c-0.1,0.3-0.3,0.6-0.6,0.8c-0.2,0.2-0.5,0.4-0.9,0.5
					c-0.3,0.1-0.7,0.2-1.2,0.2c-0.4,0-0.8-0.1-1.2-0.2c-0.3-0.1-0.6-0.3-0.9-0.5c-0.2-0.2-0.4-0.5-0.6-0.8
					C332.5,113.1,332.5,112.8,332.5,112.4z M337.7,135.8h-5v-18.6h5V135.8z"/>
			</g>
			<g>
				<path class="st20" d="M342.3,126.3c0-1.4,0.2-2.6,0.6-3.8c0.4-1.2,1-2.2,1.7-3s1.7-1.5,2.8-2c1.1-0.5,2.3-0.7,3.7-0.7
					s2.7,0.2,3.8,0.7c1.1,0.5,2,1.1,2.8,2c0.7,0.8,1.3,1.8,1.7,3s0.6,2.4,0.6,3.8v0.4c0,1.4-0.2,2.6-0.6,3.8c-0.4,1.2-1,2.1-1.7,3
					c-0.8,0.8-1.7,1.5-2.8,2s-2.3,0.7-3.7,0.7c-1.4,0-2.7-0.2-3.8-0.7s-2-1.1-2.8-2c-0.7-0.8-1.3-1.8-1.7-3
					c-0.4-1.2-0.6-2.4-0.6-3.8V126.3z M347.2,126.7c0,0.8,0.1,1.5,0.2,2.1c0.1,0.7,0.4,1.2,0.7,1.7s0.7,0.9,1.2,1.2s1.1,0.4,1.8,0.4
					c0.7,0,1.3-0.1,1.8-0.4c0.5-0.3,0.9-0.7,1.2-1.2s0.5-1.1,0.7-1.7s0.2-1.4,0.2-2.1v-0.4c0-0.7-0.1-1.4-0.2-2.1
					c-0.1-0.7-0.4-1.2-0.7-1.7c-0.3-0.5-0.7-0.9-1.2-1.2c-0.5-0.3-1.1-0.4-1.8-0.4s-1.3,0.1-1.8,0.4s-0.9,0.7-1.2,1.2
					c-0.3,0.5-0.5,1.1-0.7,1.7c-0.1,0.7-0.2,1.4-0.2,2.1V126.7z"/>
			</g>
		</g>
	</g>
</g>
<g>
	<g>
		<g>
			<path class="st21" d="M339.9,426.9c-1.1,19,9.7,38.6,33.4,46.2c21.8,7,45.6,7.1,67.1-2.5c39-17.5,17.7-59.5-9.3-76.1
				c-12.5-7.7-27.8-12.2-43.2-11.6C357.8,384.1,341.1,405.1,339.9,426.9"/>
			<path class="st24" d="M345.2,418.5c-1.1,19,9.7,38.6,33.4,46.2c21.8,7,45.6,7.1,67.1-2.5c39-17.5,17.7-59.5-9.3-76.1
				c-12.5-7.7-27.8-12.2-43.2-11.6C363.1,375.8,346.4,396.7,345.2,418.5"/>
			<path class="st20" d="M419.7,443c6.7-0.4,13.4-1.9,19.4-4.7c30.4-14,10.1-42.4-13.6-52.8c-10.3-4.5-21.6-6.5-31.7-5.4
				c-0.7,0.1-1.4,0.2-2,0.2c-8.5,1.2-14.7,4.4-19.1,9.8c-4.5,5.5-6.7,13-6,20.7C368.5,431.3,394.9,444.6,419.7,443z"/>
		</g>
		<g>
			<path class="st25" d="M375.2,407.1c0,24.7,18.9,35,42.2,35c23.3,0,42.2-10.3,42.2-35s-18.9-54.4-42.2-54.4
				S375.2,382.3,375.2,407.1z"/>
			<path class="st26" d="M438.9,401.7c1.6-6.4-6.5-13.8-17.9-16.6c-11.4-2.8-22,0.2-23.5,6.6c-1.6,6.4,6.5,13.8,17.9,16.6
				C426.8,411.1,437.3,408.1,438.9,401.7z"/>
			<g>
				<path class="st27" d="M446.4,388.5c-0.3,2.7-2.4,4.7-4.8,4.5c-0.8-0.1-1.5-0.4-2.1-0.9c-0.7,0.4-1.4,0.5-2.2,0.4
					c-2.4-0.2-4.1-2.6-3.8-5.3c0.3-2.7,2.4-4.7,4.8-4.5c0.8,0.1,1.5,0.4,2.1,0.9c0.7-0.4,1.4-0.5,2.2-0.4
					C444.9,383.4,446.6,385.8,446.4,388.5z"/>
				<path class="st28" d="M439.2,381.9c0,0,0.4-4-5.6-4.8C433.9,378.7,434.3,380.9,439.2,381.9z"/>
				<path class="st29" d="M435,383.6c-1.7,1.6-2.3,4.3-1.3,6.4c1,2.2,3.5,3.5,5.8,2.4c1.3,0.9,2.9,1.1,4.3,0.4
					c2.3-1.1,3.4-4.1,2.6-6.5c-0.8-2.6-3.5-4.3-6.1-3.1c-0.3-0.2-0.8-0.6-1.2-0.6c-0.1,0-0.1,0-0.2-0.1c-0.2-0.1-0.5-0.1-0.7-0.1
					C437.1,382.3,435.9,382.8,435,383.6z M433.9,386.9c0.4-2.2,2.4-4.3,4.8-3.7c0.3,0.1,0.7,0.2,1,0.4c0.7,0.4,1.3,1.1,1.7,1.9
					c0.2,0.4,0.3,0.9,0.4,1.3c0,0.2,0.1,0.5,0.1,0.7s-0.1,0.5,0,0.7s0.3,0.3,0.5,0.2c0.2-0.1,0.2-0.3,0.2-0.5c0-0.5,0-1.1-0.1-1.6
					c-0.2-0.9-0.7-1.8-1.3-2.5c1.4-0.5,2.9-0.1,3.9,1c1.7,1.9,1.6,5-0.2,6.8c-0.8,0.8-2,1.3-3.2,1.1c-0.4-0.1-0.8-0.2-1.1-0.4
					c-0.3-0.1-0.6-0.5-0.8-0.5c-0.2,0-0.4,0.2-0.6,0.2c-0.2,0.1-0.3,0.1-0.5,0.2c-0.4,0.1-0.7,0.1-1.1,0.1
					C434.8,392,433.5,389.2,433.9,386.9z"/>
				<path class="st29" d="M439.5,392.6c-1,0.5-2.2,0.5-3.2,0.1c-1.2-0.4-2.2-1.4-2.7-2.6c-1-2.2-0.4-5,1.3-6.6
					c1.2-1,2.7-1.5,4.1-1.1c0.1,0,0.1,0,0.2,0.1c0.4,0,0.9,0.4,1.2,0.6c1.1-0.5,2.3-0.5,3.5,0c1.3,0.6,2.3,1.8,2.7,3.2
					c0.8,2.6-0.4,5.5-2.7,6.7c-0.7,0.4-1.5,0.5-2.3,0.4C440.8,393.3,440.1,393,439.5,392.6z M440.5,383.4c-0.3-0.2-0.9-0.6-1.2-0.6
					c-0.1,0-0.1,0-0.2-0.1c-1.4-0.4-2.8,0-3.9,1c-1.7,1.5-2.2,4.2-1.3,6.3c0.5,1.2,1.4,2.1,2.6,2.5c1,0.4,2.1,0.3,3.1-0.1h0.1h0.1
					c1.2,0.9,2.8,1.1,4.2,0.4c2.2-1.1,3.3-3.9,2.6-6.4c-0.4-1.3-1.4-2.5-2.6-3c-0.4-0.2-0.8-0.3-1.2-0.3
					C441.8,382.9,441.1,383.1,440.5,383.4z M434.7,390.8c-0.8-1.1-1.2-2.6-0.9-4c0.2-1.3,1-2.6,2.1-3.3c0.9-0.6,1.9-0.7,2.8-0.5
					c0.4,0.1,0.7,0.2,1,0.4c0.7,0.4,1.3,1.1,1.7,1.9c0.2,0.4,0.3,0.9,0.4,1.4c0,0.2,0.1,0.5,0.1,0.7c0,0.1,0,0.2,0,0.3
					c0,0.1,0,0.3,0,0.4s0.1,0.1,0.1,0.1s0.1,0,0.2,0c0.1-0.1,0.1-0.2,0.1-0.4v-0.1c0-0.5,0-1-0.1-1.5c-0.2-1-0.7-1.8-1.3-2.5
					l-0.1-0.1l0.2-0.1c1.4-0.5,3-0.2,4.1,1c1.7,1.9,1.6,5.1-0.2,7c-0.9,0.9-2.1,1.3-3.3,1.2c-0.4-0.1-0.8-0.2-1.2-0.4
					c-0.1-0.1-0.2-0.1-0.3-0.2c-0.2-0.1-0.3-0.3-0.5-0.3c-0.1,0-0.2,0.1-0.3,0.1c-0.1,0-0.1,0.1-0.2,0.1c-0.2,0.1-0.3,0.1-0.5,0.2
					c-0.4,0.1-0.8,0.1-1.2,0.1C436.3,392.2,435.4,391.7,434.7,390.8z M440.2,392c0.1,0.1,0.2,0.1,0.3,0.2c0.3,0.2,0.7,0.3,1.1,0.4
					c1.1,0.2,2.2-0.3,3.1-1.1c1.8-1.8,1.9-4.9,0.2-6.7c-1-1-2.4-1.4-3.7-1c0.6,0.7,1,1.5,1.3,2.4c0.1,0.5,0.2,1.1,0.1,1.6v0.1
					c0,0.2,0,0.4-0.2,0.6c-0.1,0.1-0.2,0.1-0.4,0c-0.1-0.1-0.2-0.2-0.3-0.3c0-0.1,0-0.3,0-0.5c0-0.1,0-0.2,0-0.2
					c0-0.2,0-0.5-0.1-0.7c-0.1-0.5-0.2-0.9-0.4-1.3c-0.4-0.8-0.9-1.4-1.6-1.8c-0.3-0.2-0.6-0.3-0.9-0.4c-0.9-0.2-1.8-0.1-2.6,0.5
					c-1,0.7-1.8,1.9-2,3.1c-0.2,1.3,0.1,2.8,0.9,3.8c0.6,0.8,1.5,1.3,2.5,1.4c0.4,0,0.7,0,1.1-0.1c0.2,0,0.3-0.1,0.5-0.1
					c0.1,0,0.1-0.1,0.2-0.1c0.1-0.1,0.3-0.2,0.4-0.1C439.8,391.7,440,391.8,440.2,392z"/>
				<path class="st29" d="M440.4,382.6C440.4,382.6,440.5,382.6,440.4,382.6c0.2,0,0.4-0.2,0.3-0.3c0,0,0-0.7,0.2-1.5
					c0.3-1,1-1.6,2-1.8c0.2,0,0.3-0.2,0.2-0.4c0-0.2-0.2-0.3-0.4-0.2c-1.2,0.2-2.1,1-2.5,2.2c-0.3,0.9-0.3,1.7-0.3,1.7
					C440.2,382.5,440.3,382.6,440.4,382.6z"/>
				<path class="st29" d="M440,382.4c0,0,0-0.9,0.3-1.8c0.4-1.3,1.3-2,2.6-2.3c0.2,0,0.5,0.1,0.5,0.3c0,0.2-0.1,0.5-0.3,0.5
					c-0.9,0.2-1.6,0.7-1.9,1.7c-0.2,0.7-0.2,1.4-0.2,1.5c0,0.2-0.2,0.4-0.4,0.5c0,0,0,0-0.1,0C440.2,382.7,440,382.6,440,382.4z
					 M442.9,378.5c-1.2,0.2-2,1-2.4,2.1c-0.3,0.9-0.3,1.7-0.2,1.7c0,0.1,0.1,0.2,0.2,0.2s0.2-0.1,0.2-0.2s0-0.8,0.2-1.6
					c0.4-1,1.1-1.7,2.1-1.9c0.1,0,0.2-0.1,0.2-0.2C443.1,378.6,443,378.5,442.9,378.5z"/>
				<path class="st29" d="M439.2,382.1c-2.2-0.4-3.8-1.2-4.7-2.2c-0.8-1-1-2.1-1.1-2.8c0-0.1,0-0.2,0.1-0.2c0.1-0.1,0.1-0.1,0.2-0.1
					c1.4,0.2,2.6,0.5,3.5,1.1c0.7,0.5,1.3,1,1.7,1.7c0.7,1.2,0.6,2.2,0.6,2.3c0,0.1,0,0.1-0.1,0.2
					C439.3,382.1,439.2,382.1,439.2,382.1z M434.9,379.5c0.8,0.9,2.1,1.5,4,2c0-0.4-0.1-1-0.5-1.6c-0.3-0.6-0.9-1.1-1.5-1.5
					c-0.8-0.5-1.8-0.8-2.9-1C434.1,378.1,434.3,378.9,434.9,379.5z"/>
				<path class="st20" d="M439.1,382.2c-2.3-0.4-3.8-1.2-4.7-2.3c-0.9-1-1-2.1-1.1-2.9c0-0.1,0-0.2,0.1-0.3c0.1-0.1,0.2-0.1,0.3-0.1
					c1.4,0.2,2.6,0.6,3.5,1.1c0.8,0.5,1.4,1,1.8,1.7c0.7,1.2,0.6,2.3,0.6,2.3c0,0.1-0.1,0.2-0.2,0.3
					C439.4,382.2,439.3,382.3,439.1,382.2C439.2,382.2,439.1,382.2,439.1,382.2z M433.5,377.1C433.5,377.1,433.4,377.2,433.5,377.1
					c0.1,0.8,0.3,1.9,1.1,2.8c0.9,1,2.4,1.7,4.6,2.2h0.1l0.1-0.1c0,0,0.1-1.1-0.6-2.2c-0.4-0.7-1-1.2-1.7-1.7
					C436.2,377.6,435,377.2,433.5,377.1C433.6,377,433.6,377,433.5,377.1z M438.9,381.6c-2-0.4-3.3-1.1-4.1-2
					c-0.6-0.7-0.8-1.5-0.9-2.2v-0.2h0.2c1.2,0.2,2.2,0.5,3,1c0.7,0.4,1.2,0.9,1.6,1.6s0.5,1.3,0.5,1.7v0.2L438.9,381.6z M435,379.5
					c0.7,0.9,2,1.5,3.8,1.9c0-0.4-0.2-0.9-0.5-1.4c-0.3-0.6-0.8-1.1-1.5-1.5s-1.6-0.7-2.7-0.9C434.2,378.2,434.5,378.8,435,379.5z"
					/>
				<path class="st30" d="M439.1,382.2c-2.3-0.4-3.8-1.2-4.7-2.3c-0.9-1-1-2.1-1.1-2.9c0-0.1,0-0.2,0.1-0.3c0.1-0.1,0.2-0.1,0.3-0.1
					c1.4,0.2,2.6,0.6,3.5,1.1c0.8,0.5,1.4,1,1.8,1.7c0.7,1.2,0.6,2.3,0.6,2.3c0,0.1-0.1,0.2-0.2,0.3
					C439.4,382.2,439.3,382.3,439.1,382.2z M433.5,377.1C433.5,377.1,433.4,377.2,433.5,377.1c0.1,0.8,0.3,1.9,1.1,2.8
					c0.9,1,2.4,1.7,4.6,2.2h0.1l0.1-0.1c0,0,0.1-1.1-0.6-2.2c-0.4-0.7-1-1.2-1.7-1.7C436.2,377.6,435,377.2,433.5,377.1
					C433.6,377,433.6,377,433.5,377.1z M438.9,381.6c-2-0.4-3.3-1.1-4.1-2c-0.6-0.7-0.8-1.5-0.9-2.2v-0.2h0.2c1.2,0.2,2.2,0.5,3,1
					c0.7,0.4,1.2,0.9,1.6,1.6s0.5,1.3,0.5,1.7v0.2L438.9,381.6z M435,379.5c0.7,0.9,2,1.5,3.8,1.9c0-0.4-0.2-0.9-0.5-1.4
					c-0.3-0.6-0.8-1.1-1.5-1.5s-1.6-0.7-2.7-0.9C434.2,378.2,434.5,378.8,435,379.5z"/>
				<path class="st29" d="M441.8,389.5c0.2,0,0.3-0.1,0.3-0.3c0-0.2-0.1-0.3-0.3-0.3c-0.2,0-0.3,0.1-0.3,0.3
					C441.5,389.3,441.7,389.5,441.8,389.5z"/>
				<path class="st29" d="M441.4,389.1c0-0.2,0.2-0.4,0.5-0.4c0.2,0,0.4,0.2,0.4,0.5c0,0.2-0.2,0.4-0.5,0.4
					C441.6,389.6,441.4,389.4,441.4,389.1z M441.7,389.2c0,0.1,0.1,0.2,0.2,0.2s0.2-0.1,0.2-0.2s-0.1-0.2-0.2-0.2
					S441.7,389.1,441.7,389.2z"/>
			</g>
			<path class="st26" d="M436.2,410l-0.1,2.5C436.1,410.9,436.2,410,436.2,410z"/>
			<path class="st31" d="M463.4,407.8c-13.4-0.8-24.7,7.1-25.8,16.6c-1.1,9.6,8.6,17.3,22,18.1c13.4,0.8,25.6-5.8,26.7-15.3
				C487.3,417.6,476.8,408.5,463.4,407.8z"/>
			<path class="st32" d="M485.7,427.4c-0.7,6.1-5.8,10.8-12.8,13.4l2-29.7C481.8,414.7,486.4,420.9,485.7,427.4z"/>
			<path class="st31" d="M420.6,408.2c-17.3-1.9-31.5,5.5-32.7,15.6c-1.1,10.1,11.4,19.1,28.7,21c17.3,1.9,32.7-4.1,33.8-14.1
				C451.6,420.5,437.9,410.1,420.6,408.2z"/>
			<path class="st32" d="M449.7,430.8c-0.7,6.4-7.2,11.1-16.2,13.2l1.8-31.4C444.5,417.1,450.4,424,449.7,430.8z"/>
			<path class="st26" d="M385.1,421.8c-3.4,4.2-5.7,9.2-5.8,14.3c0,1.4-0.1,1.9,1.5,1.8c1.8,0,3.6-0.5,5.4-0.7
				c2.2-0.2,4.4-0.3,6.6-0.4c1.6,0,3.6,0.4,5.2,0.1c1.8-0.3,3.6-1.3,5.5-1.8c2-0.5,4.1-0.8,6.3-1c3.1-0.3,6.5,0,9.6-0.4
				c1.3-0.2,2.2-1.1,3.3-1.8c1.3-0.8,2.7-1.5,4.2-2.1c2.9-1.1,6-1.8,9.1-2.1c1.1-0.1,2.6,0.2,3.7-0.1c1.1-0.2,2-1.1,2.8-1.7
				c2-1.5,4.1-3.1,6.5-4.2c2.2-1.1,4.5-1.9,7-2.3c2.6-0.5,4.6-0.4,6.5-2.3c1-0.9,1.2-2.2,2.3-3.2c1.2-1.1,2.8-1.8,4.5-2.2
				c0.7-0.2,1.5-0.4,1.8-0.9c-8.2-3.6-16.8-4.8-25.9-5.9c-9.2-1-18.5-1.3-27.7,0.1c-9.3,1.4-18.3,4.8-25.3,10.2
				C389.9,416.8,387.4,419,385.1,421.8z"/>
			<path class="st33" d="M390.6,416l5.8,20.5"/>
			<path class="st33" d="M398.1,411.4l20.8,21.9"/>
			<path class="st33" d="M408.3,407.7l31.6,19.9"/>
			<path class="st33" d="M421.9,404.6l36.6,13.9"/>
			<path class="st25" d="M383,375.6c0.9-1,1.9-1.9,3-2.5c3.2-1.9,7.1-2.2,10.5-1.4c3.6,0.8,6.9,2.6,9.8,4.9
				c4.5,3.4,8.8,7.9,14.1,8.6c1,0.1,1.9,0.1,2.9,0.4c0.7,0.2,1.5,0.6,2,1.4c0.6,0.9,0.1,1.9-0.1,2.9c-0.5,2.4-1.1,4.7-1.6,7.1
				c-1.1,4.6-2.4,9.2-3.8,13.7c-0.3,1.1-0.8,2.3-1.7,2.9c-0.7,0.5-1.6,0.5-2.5,0.3c-3.2-0.4-6.2-2-9.2-3.3
				c-6.8-2.9-14.3-4.6-19.7-10c-2.7-2.8-4.7-6.5-6-10.3c-0.8-2.5-1.4-5.1-1.1-7.7C380.1,379.8,381.3,377.5,383,375.6z"/>
			<path class="st27" d="M397.7,386.3c-0.3,2.7-2.4,4.7-4.8,4.5c-0.8-0.1-1.5-0.4-2.1-0.9c-0.7,0.4-1.4,0.5-2.2,0.4
				c-2.4-0.2-4.1-2.6-3.8-5.3c0.3-2.7,2.4-4.7,4.8-4.5c0.8,0.1,1.5,0.4,2.1,0.9c0.7-0.4,1.4-0.5,2.2-0.4
				C396.2,381.3,397.9,383.6,397.7,386.3z"/>
			<path class="st28" d="M390.5,379.7c0,0,0.4-4-5.6-4.8C385.3,376.7,385.7,378.7,390.5,379.7z"/>
			<path class="st29" d="M386.4,381.5c-1.7,1.6-2.3,4.3-1.3,6.4c1,2.2,3.5,3.5,5.8,2.4c1.3,0.9,2.9,1.1,4.3,0.4
				c2.3-1.1,3.4-4.1,2.6-6.5c-0.8-2.6-3.5-4.3-6.1-3.1c-0.3-0.2-0.8-0.6-1.2-0.6c-0.1,0-0.1,0-0.2-0.1c-0.2-0.1-0.5-0.1-0.7-0.1
				C388.5,380.2,387.3,380.6,386.4,381.5z M385.3,384.7c0.4-2.2,2.4-4.3,4.8-3.7c0.3,0.1,0.7,0.2,1,0.4c0.7,0.4,1.3,1.1,1.7,1.9
				c0.2,0.4,0.3,0.9,0.4,1.3c0,0.2,0.1,0.5,0.1,0.7s-0.1,0.5,0,0.7s0.3,0.3,0.5,0.2c0.2-0.1,0.2-0.3,0.2-0.5c0-0.5,0-1.1-0.1-1.6
				c-0.2-0.9-0.7-1.8-1.3-2.5c1.4-0.5,2.9-0.1,3.9,1c1.7,1.9,1.6,5-0.2,6.8c-0.8,0.8-2,1.3-3.2,1.1c-0.4-0.1-0.8-0.2-1.1-0.4
				c-0.3-0.1-0.6-0.5-0.8-0.5c-0.2,0-0.4,0.2-0.6,0.2c-0.2,0.1-0.3,0.1-0.5,0.2c-0.4,0.1-0.7,0.1-1.1,0.1
				C386.2,389.8,384.9,387,385.3,384.7z"/>
			<path class="st29" d="M390.8,390.4c-1,0.5-2.2,0.5-3.2,0.1c-1.2-0.4-2.2-1.4-2.7-2.6c-1-2.2-0.4-5,1.3-6.6c1.2-1,2.7-1.5,4.1-1.1
				c0.1,0,0.1,0,0.2,0.1c0.4,0,0.9,0.4,1.2,0.6c1.1-0.5,2.3-0.5,3.5,0c1.3,0.6,2.3,1.8,2.7,3.2c0.8,2.6-0.4,5.5-2.7,6.7
				c-0.7,0.4-1.5,0.5-2.3,0.4C392.1,391.1,391.4,390.9,390.8,390.4z M391.8,381.2L391.8,381.2c-0.3-0.2-0.9-0.6-1.2-0.6
				c-0.1,0-0.1,0-0.2-0.1c-1.4-0.4-2.8,0-3.9,1c-1.7,1.5-2.2,4.2-1.3,6.3c0.5,1.2,1.4,2.1,2.6,2.5c1,0.4,2.1,0.3,3.1-0.1h0.1h0.1
				c1.2,0.9,2.8,1.1,4.2,0.4c2.2-1.1,3.3-3.9,2.6-6.4c-0.4-1.3-1.4-2.5-2.6-3c-0.4-0.2-0.8-0.3-1.2-0.3
				C393.1,380.8,392.4,380.9,391.8,381.2z M386.1,388.7c-0.8-1.1-1.2-2.6-0.9-4c0.2-1.3,1-2.6,2.1-3.3c0.9-0.6,1.9-0.7,2.8-0.5
				c0.4,0.1,0.7,0.2,1,0.4c0.7,0.4,1.3,1.1,1.7,1.9c0.2,0.4,0.3,0.9,0.4,1.4c0,0.2,0.1,0.5,0.1,0.7c0,0.1,0,0.2,0,0.3
				c0,0.1,0,0.3,0,0.4s0.1,0.1,0.1,0.1s0.1,0,0.2,0c0.1-0.1,0.1-0.2,0.1-0.4v-0.1c0-0.5,0-1-0.1-1.5c-0.2-1-0.7-1.8-1.3-2.5
				l-0.2-0.1l0.2-0.1c1.4-0.5,3-0.2,4.1,1c1.7,1.9,1.6,5.1-0.2,7c-0.9,0.9-2.1,1.3-3.3,1.2c-0.4-0.1-0.8-0.2-1.2-0.4
				c-0.1-0.1-0.2-0.1-0.3-0.2c-0.2-0.1-0.3-0.3-0.5-0.3c-0.1,0-0.2,0.1-0.3,0.1c-0.1,0-0.1,0.1-0.2,0.1c-0.2,0.1-0.3,0.1-0.5,0.2
				c-0.4,0.1-0.8,0.1-1.2,0.1C387.7,390.1,386.8,389.5,386.1,388.7z M391.5,389.8c0.1,0.1,0.2,0.1,0.3,0.2c0.3,0.2,0.7,0.3,1.1,0.4
				c1.1,0.2,2.2-0.3,3.1-1.1c1.8-1.8,1.9-4.9,0.2-6.7c-1-1-2.4-1.4-3.7-1c0.6,0.7,1,1.5,1.3,2.4c0.1,0.5,0.2,1.1,0.1,1.6v0.1
				c0,0.2,0,0.4-0.2,0.6c-0.1,0.1-0.2,0.1-0.4,0c-0.1-0.1-0.2-0.2-0.3-0.3c0-0.1,0-0.3,0-0.5c0-0.1,0-0.2,0-0.2c0-0.2,0-0.5-0.1-0.7
				c-0.1-0.5-0.2-0.9-0.4-1.3c-0.4-0.8-0.9-1.4-1.6-1.8c-0.3-0.2-0.6-0.3-0.9-0.4c-0.9-0.2-1.8-0.1-2.6,0.5c-1,0.7-1.8,1.9-2,3.1
				c-0.2,1.3,0.1,2.8,0.9,3.8c0.6,0.8,1.5,1.3,2.5,1.4c0.4,0,0.7,0,1.1-0.1c0.2,0,0.3-0.1,0.5-0.1c0.1,0,0.1-0.1,0.2-0.1
				c0.1-0.1,0.3-0.2,0.4-0.1C391.1,389.5,391.3,389.7,391.5,389.8z"/>
			<path class="st29" d="M391.7,380.5C391.7,380.5,391.8,380.5,391.7,380.5c0.2,0,0.4-0.2,0.3-0.3c0,0,0-0.7,0.2-1.5
				c0.3-1,1-1.6,2-1.8c0.2,0,0.3-0.2,0.2-0.4c0-0.2-0.2-0.3-0.4-0.2c-1.2,0.2-2.1,1-2.5,2.2c-0.3,0.9-0.3,1.7-0.3,1.7
				C391.5,380.3,391.6,380.5,391.7,380.5z"/>
			<path class="st20" d="M391.3,380.2c0,0,0-0.9,0.3-1.8c0.4-1.3,1.3-2,2.6-2.3c0.2,0,0.5,0.1,0.5,0.3c0,0.2-0.1,0.5-0.3,0.5
				c-0.9,0.2-1.6,0.7-1.9,1.7c-0.2,0.7-0.2,1.4-0.2,1.5c0,0.2-0.2,0.4-0.4,0.5c0,0,0,0-0.1,0C391.5,380.6,391.3,380.4,391.3,380.2z
				 M394.2,376.5c-1.2,0.2-2,1-2.4,2.1c-0.3,0.9-0.3,1.7-0.2,1.7c0,0.1,0.1,0.2,0.2,0.2s0.2-0.1,0.2-0.2s0-0.8,0.2-1.6
				c0.4-1,1.1-1.7,2.1-1.9c0.1,0,0.2-0.1,0.2-0.2C394.4,376.5,394.3,376.5,394.2,376.5C394.2,376.4,394.2,376.4,394.2,376.5z"/>
			<path class="st30" d="M394.2,376.5c-1.2,0.2-2,1-2.4,2.1c-0.3,0.9-0.3,1.7-0.2,1.7c0,0.1,0.1,0.2,0.2,0.2s0.2-0.1,0.2-0.2
				s0-0.8,0.2-1.6c0.4-1,1.1-1.7,2.1-1.9c0.1,0,0.2-0.1,0.2-0.2C394.4,376.5,394.3,376.5,394.2,376.5z M391.3,380.2
				c0,0,0-0.9,0.3-1.8c0.4-1.3,1.3-2,2.6-2.3c0.2,0,0.5,0.1,0.5,0.3c0,0.2-0.1,0.5-0.3,0.5c-0.9,0.2-1.6,0.7-1.9,1.7
				c-0.2,0.7-0.2,1.4-0.2,1.5c0,0.2-0.2,0.4-0.4,0.5c0,0,0,0-0.1,0C391.5,380.6,391.3,380.4,391.3,380.2z"/>
			<path class="st29" d="M390.5,380c-2.2-0.4-3.8-1.2-4.7-2.2c-0.8-1-1-2.1-1.1-2.8c0-0.1,0-0.2,0.1-0.2c0.1-0.1,0.1-0.1,0.2-0.1
				c1.4,0.2,2.6,0.5,3.5,1.1c0.7,0.5,1.3,1,1.7,1.7c0.7,1.2,0.6,2.2,0.6,2.3c0,0.1,0,0.1-0.1,0.2C390.6,380,390.5,380,390.5,380z
				 M386.3,377.5c0.8,0.9,2.1,1.5,4,2c0-0.4-0.1-1-0.5-1.6c-0.3-0.6-0.9-1.1-1.5-1.5c-0.8-0.5-1.8-0.8-2.9-1
				C385.5,376.1,385.7,376.8,386.3,377.5z"/>
			<path class="st20" d="M390.4,380.1c-2.3-0.4-3.8-1.2-4.7-2.3c-0.9-1-1-2.1-1.1-2.9c0-0.1,0-0.2,0.1-0.3c0.1-0.1,0.2-0.1,0.3-0.1
				c1.4,0.2,2.6,0.6,3.5,1.1c0.8,0.5,1.4,1,1.8,1.7c0.7,1.2,0.6,2.3,0.6,2.3c0,0.1-0.1,0.2-0.2,0.3
				C390.7,380.1,390.6,380.1,390.4,380.1C390.5,380.1,390.4,380.1,390.4,380.1z M384.9,374.9c0,0-0.1,0.1,0,0.1
				c0.1,0.7,0.3,1.8,1.1,2.7c0.9,1,2.4,1.7,4.6,2.2h0.1l0.1-0.1c0,0,0.1-1.1-0.6-2.2c-0.4-0.7-1-1.2-1.7-1.7
				c-0.9-0.5-2.1-0.9-3.5-1.1C385,374.8,385,374.9,384.9,374.9z M390.2,379.5c-2-0.4-3.3-1.1-4.1-2c-0.6-0.7-0.8-1.5-0.9-2.2v-0.2
				h0.2c1.2,0.2,2.2,0.5,3,1c0.7,0.4,1.2,0.9,1.6,1.6s0.5,1.3,0.5,1.7v0.2L390.2,379.5z M386.4,377.4c0.7,0.9,2,1.5,3.8,1.9
				c0-0.4-0.2-0.9-0.5-1.4c-0.3-0.6-0.8-1.1-1.5-1.5s-1.6-0.7-2.7-0.9C385.6,376.1,385.9,376.8,386.4,377.4z"/>
			<path class="st30" d="M390.4,380.1c-2.3-0.4-3.8-1.2-4.7-2.3c-0.9-1-1-2.1-1.1-2.9c0-0.1,0-0.2,0.1-0.3c0.1-0.1,0.2-0.1,0.3-0.1
				c1.4,0.2,2.6,0.6,3.5,1.1c0.8,0.5,1.4,1,1.8,1.7c0.7,1.2,0.6,2.3,0.6,2.3c0,0.1-0.1,0.2-0.2,0.3
				C390.7,380.1,390.6,380.1,390.4,380.1z M384.9,374.9c0,0-0.1,0.1,0,0.1c0.1,0.7,0.3,1.8,1.1,2.7c0.9,1,2.4,1.7,4.6,2.2h0.1
				l0.1-0.1c0,0,0.1-1.1-0.6-2.2c-0.4-0.7-1-1.2-1.7-1.7c-0.9-0.5-2.1-0.9-3.5-1.1C385,374.8,385,374.9,384.9,374.9z M390.2,379.5
				c-2-0.4-3.3-1.1-4.1-2c-0.6-0.7-0.8-1.5-0.9-2.2v-0.2h0.2c1.2,0.2,2.2,0.5,3,1c0.7,0.4,1.2,0.9,1.6,1.6s0.5,1.3,0.5,1.7v0.2
				L390.2,379.5z M386.4,377.4c0.7,0.9,2,1.5,3.8,1.9c0-0.4-0.2-0.9-0.5-1.4c-0.3-0.6-0.8-1.1-1.5-1.5s-1.6-0.7-2.7-0.9
				C385.6,376.1,385.9,376.8,386.4,377.4z"/>
			<path class="st29" d="M393.1,387.3c0.2,0,0.3-0.1,0.3-0.3c0-0.2-0.1-0.3-0.3-0.3c-0.2,0-0.3,0.1-0.3,0.3
				C392.8,387.2,393,387.3,393.1,387.3z"/>
			<path class="st29" d="M392.7,387c0-0.2,0.2-0.4,0.5-0.4c0.2,0,0.4,0.2,0.4,0.5c0,0.2-0.2,0.4-0.5,0.4
				C392.9,387.4,392.7,387.2,392.7,387z M393,387c0,0.1,0.1,0.2,0.2,0.2s0.2-0.1,0.2-0.2s-0.1-0.2-0.2-0.2S393,386.9,393,387z"/>
			<path class="st27" d="M417.9,399.5c-0.3,2.7-2.4,4.7-4.8,4.5c-0.8-0.1-1.5-0.4-2.1-0.9c-0.7,0.4-1.4,0.5-2.2,0.4
				c-2.4-0.2-4.1-2.6-3.8-5.3c0.3-2.7,2.4-4.7,4.8-4.5c0.8,0.1,1.5,0.4,2.1,0.9c0.7-0.4,1.4-0.5,2.2-0.4
				C416.5,394.6,418.2,396.9,417.9,399.5z"/>
			<path class="st28" d="M410.8,393c0,0,0.4-4-5.6-4.8C405.5,389.9,406,392,410.8,393z"/>
			<path class="st29" d="M406.6,394.8c-1.7,1.6-2.3,4.3-1.3,6.4c1,2.2,3.5,3.5,5.8,2.4c1.3,0.9,2.9,1.1,4.3,0.4
				c2.3-1.1,3.4-4.1,2.6-6.5c-0.8-2.6-3.5-4.3-6.1-3.1c-0.3-0.2-0.8-0.6-1.2-0.6c-0.1,0-0.1,0-0.2-0.1c-0.2-0.1-0.5-0.1-0.7-0.1
				C408.7,393.5,407.5,393.9,406.6,394.8z M405.5,397.9c0.4-2.2,2.4-4.3,4.8-3.7c0.3,0.1,0.7,0.2,1,0.4c0.7,0.4,1.3,1.1,1.7,1.9
				c0.2,0.4,0.3,0.9,0.4,1.3c0,0.2,0.1,0.5,0.1,0.7s-0.1,0.5,0,0.7s0.3,0.3,0.5,0.2c0.2-0.1,0.2-0.3,0.2-0.5c0-0.5,0-1.1-0.1-1.6
				c-0.2-0.9-0.7-1.8-1.3-2.5c1.4-0.5,2.9-0.1,3.9,1c1.7,1.9,1.6,5-0.2,6.8c-0.8,0.8-2,1.3-3.2,1.1c-0.4-0.1-0.8-0.2-1.1-0.4
				c-0.3-0.1-0.6-0.5-0.8-0.5c-0.2,0-0.4,0.2-0.6,0.2c-0.2,0.1-0.3,0.1-0.5,0.2c-0.4,0.1-0.7,0.1-1.1,0.1
				C406.4,403,405.1,400.2,405.5,397.9z"/>
			<path class="st29" d="M411,403.6c-1,0.5-2.2,0.5-3.2,0.1c-1.2-0.4-2.2-1.4-2.7-2.6c-1-2.2-0.4-5,1.3-6.6c1.2-1,2.7-1.5,4.1-1.1
				c0.1,0,0.1,0,0.2,0.1c0.4,0,0.9,0.4,1.2,0.6c1.1-0.5,2.3-0.5,3.5,0c1.3,0.6,2.3,1.8,2.7,3.2c0.8,2.6-0.4,5.5-2.7,6.7
				c-0.7,0.4-1.5,0.5-2.3,0.4C412.4,404.3,411.7,404.1,411,403.6z M412,394.5h-0.1c-0.2-0.2-0.8-0.6-1.1-0.6c-0.1,0-0.1,0-0.2-0.1
				c-1.4-0.4-2.8,0-3.9,1c-1.7,1.5-2.2,4.2-1.3,6.3c0.5,1.2,1.4,2.1,2.6,2.5c1,0.4,2.1,0.3,3.1-0.1h0.1h0.1c1.2,0.9,2.8,1.1,4.2,0.4
				c2.2-1.1,3.3-3.9,2.6-6.4c-0.4-1.3-1.4-2.5-2.6-3c-0.4-0.2-0.8-0.3-1.2-0.3C413.4,394.1,412.7,394.2,412,394.5z M406.4,401.9
				c-0.8-1.1-1.2-2.6-0.9-4c0.2-1.3,1-2.6,2.1-3.3c0.9-0.6,1.9-0.7,2.8-0.5c0.4,0.1,0.7,0.2,1,0.4c0.7,0.4,1.3,1.1,1.7,1.9
				c0.2,0.4,0.3,0.9,0.4,1.4c0,0.2,0.1,0.5,0.1,0.7c0,0.1,0,0.2,0,0.3c0,0.1,0,0.3,0,0.4s0.1,0.1,0.1,0.1s0.1,0,0.2,0
				c0.1-0.1,0.1-0.2,0.1-0.4v-0.1c0-0.5,0-1-0.1-1.5c-0.2-1-0.7-1.8-1.3-2.5l-0.1-0.1l0.2-0.1c1.4-0.5,3-0.2,4.1,1
				c1.7,1.9,1.6,5.1-0.2,7c-0.9,0.9-2.1,1.3-3.3,1.2c-0.4-0.1-0.8-0.2-1.2-0.4c-0.1-0.1-0.2-0.1-0.3-0.2c-0.2-0.1-0.3-0.3-0.5-0.3
				c-0.1,0-0.2,0.1-0.3,0.1c-0.1,0-0.1,0.1-0.2,0.1c-0.2,0.1-0.3,0.1-0.5,0.2c-0.4,0.1-0.8,0.1-1.2,0.1
				C407.9,403.3,407,402.8,406.4,401.9z M411.7,403c0.1,0.1,0.2,0.1,0.3,0.2c0.3,0.2,0.7,0.3,1.1,0.4c1.1,0.2,2.2-0.3,3.1-1.1
				c1.8-1.8,1.9-4.9,0.2-6.7c-1-1-2.4-1.4-3.7-1c0.6,0.7,1,1.5,1.3,2.4c0.1,0.5,0.2,1.1,0.1,1.6v0.1c0,0.2,0,0.4-0.2,0.6
				c-0.1,0.1-0.2,0.1-0.4,0c-0.1-0.1-0.2-0.2-0.3-0.3c0-0.1,0-0.3,0-0.5c0-0.1,0-0.2,0-0.2c0-0.2,0-0.5-0.1-0.7
				c-0.1-0.5-0.2-0.9-0.4-1.3c-0.4-0.8-0.9-1.4-1.6-1.8c-0.3-0.2-0.6-0.3-0.9-0.4c-0.9-0.2-1.8-0.1-2.6,0.5c-1,0.7-1.8,1.9-2,3.1
				c-0.2,1.3,0.1,2.8,0.9,3.8c0.6,0.8,1.5,1.3,2.5,1.4c0.4,0,0.7,0,1.1-0.1c0.2,0,0.3-0.1,0.5-0.1c0.1,0,0.1-0.1,0.2-0.1
				c0.1-0.1,0.3-0.2,0.4-0.1C411.3,402.7,411.5,402.9,411.7,403z"/>
			<path class="st29" d="M412,393.8c0.2,0,0.4-0.2,0.3-0.3c0,0,0-0.7,0.2-1.5c0.3-1,1-1.6,2-1.8c0.2,0,0.3-0.2,0.2-0.4
				c0-0.2-0.2-0.3-0.4-0.2c-1.2,0.2-2.1,1-2.5,2.2c-0.3,0.9-0.3,1.7-0.3,1.7C411.7,393.6,411.8,393.8,412,393.8z"/>
			<path class="st20" d="M411.6,393.5c0,0,0-0.9,0.3-1.8c0.4-1.3,1.3-2,2.6-2.3c0.2,0,0.5,0.1,0.5,0.3c0,0.2-0.1,0.5-0.3,0.5
				c-0.9,0.2-1.6,0.7-1.9,1.7c-0.2,0.7-0.2,1.4-0.2,1.5c0,0.2-0.2,0.4-0.4,0.5c0,0,0,0-0.1,0C411.7,393.9,411.6,393.7,411.6,393.5z
				 M414.4,389.7c-1.2,0.2-2,1-2.4,2.1c-0.3,0.9-0.3,1.7-0.2,1.7c0,0.1,0.1,0.2,0.2,0.2s0.2-0.1,0.2-0.2s0-0.8,0.2-1.6
				c0.4-1,1.1-1.7,2.1-1.9c0.1,0,0.2-0.1,0.2-0.2C414.6,389.7,414.6,389.7,414.4,389.7C414.5,389.7,414.5,389.7,414.4,389.7z"/>
			<path class="st30" d="M414.4,389.7c-1.2,0.2-2,1-2.4,2.1c-0.3,0.9-0.3,1.7-0.2,1.7c0,0.1,0.1,0.2,0.2,0.2s0.2-0.1,0.2-0.2
				s0-0.8,0.2-1.6c0.4-1,1.1-1.7,2.1-1.9c0.1,0,0.2-0.1,0.2-0.2C414.6,389.7,414.6,389.7,414.4,389.7z M411.6,393.5
				c0,0,0-0.9,0.3-1.8c0.4-1.3,1.3-2,2.6-2.3c0.2,0,0.5,0.1,0.5,0.3c0,0.2-0.1,0.5-0.3,0.5c-0.9,0.2-1.6,0.7-1.9,1.7
				c-0.2,0.7-0.2,1.4-0.2,1.5c0,0.2-0.2,0.4-0.4,0.5c0,0,0,0-0.1,0C411.7,393.9,411.6,393.7,411.6,393.5z"/>
			<path class="st29" d="M410.7,393.3c-2.2-0.4-3.8-1.2-4.7-2.2c-0.8-1-1-2.1-1.1-2.8c0-0.1,0-0.2,0.1-0.2c0.1-0.1,0.1-0.1,0.2-0.1
				c1.4,0.2,2.6,0.5,3.5,1.1c0.7,0.5,1.3,1,1.7,1.7c0.7,1.2,0.6,2.2,0.6,2.3c0,0.1,0,0.1-0.1,0.2
				C410.9,393.3,410.8,393.3,410.7,393.3z M406.5,390.7c0.8,0.9,2.1,1.5,4,2c0-0.4-0.1-1-0.5-1.6c-0.3-0.6-0.9-1.1-1.5-1.5
				c-0.8-0.5-1.8-0.8-2.9-1C405.8,389.3,406,390,406.5,390.7z"/>
			<path class="st29" d="M410.7,393.4c-2.3-0.4-3.8-1.2-4.7-2.3c-0.9-1-1-2.1-1.1-2.9c0-0.1,0-0.2,0.1-0.3c0.1-0.1,0.2-0.1,0.3-0.1
				c1.4,0.2,2.6,0.6,3.5,1.1c0.8,0.5,1.4,1,1.8,1.7c0.7,1.2,0.6,2.3,0.6,2.3c0,0.1-0.1,0.2-0.2,0.3
				C410.9,393.4,410.8,393.4,410.7,393.4z M405.2,388.1C405.2,388.1,405.1,388.2,405.2,388.1c0.1,0.8,0.3,1.9,1.1,2.8
				c0.9,1,2.4,1.7,4.6,2.2h0.1l0.1-0.1c0,0,0.1-1.1-0.6-2.2c-0.4-0.7-1-1.2-1.7-1.7C407.9,388.6,406.7,388.2,405.2,388.1
				L405.2,388.1z M410.5,392.8c-2-0.4-3.3-1.1-4.1-2c-0.6-0.7-0.8-1.5-0.9-2.2v-0.2h0.2c1.2,0.2,2.2,0.5,3,1
				c0.7,0.4,1.2,0.9,1.6,1.6s0.5,1.3,0.5,1.7v0.2L410.5,392.8z M406.6,390.6c0.7,0.9,2,1.5,3.8,1.9c0-0.4-0.2-0.9-0.5-1.4
				c-0.3-0.6-0.8-1.1-1.5-1.5s-1.6-0.7-2.7-0.9C405.9,389.3,406.1,390,406.6,390.6z"/>
			<g>
				<path class="st20" d="M485.9,352.6c0,0.3,0,0.6,0,0.8c0,3.8-1.3,8.6-4.1,11.3c-3,3-8.7,3.3-12.5,3.6c-2.2,0.2-4.5,0.3-6.5-0.4
					c-4-1.3-5.6-4.9-6.4-8.2c-2.4-9.4-2.6-18.9-2.7-28.5c0-8.1-0.2-19.7,9.2-25.2c6.3-3.7,9-2.4,11.3,3c3.3,7.5,2,15.8,4.7,23.5
					c1.1,3.3,2.9,6.3,4.3,9.4C484.7,345.4,485.8,349,485.9,352.6z"/>
				<path class="st34" d="M377.6,332.9c-1.5,30.2,19.5,43.4,46.1,44.8c14.3,0.7,32.3-2.1,41.7-14.5c4.8-6.5,2.1-10.6,0.5-17.7
					c-1.7-7.7,0.5-14.7,2-22.2c1.6-8.5-1.6-19.1-4.8-26.9c-5.9-14.1-17.7-27.3-33.9-28.1C402.6,266.9,379.1,302.7,377.6,332.9z"/>
				<path class="st20" d="M444.3,344.6c-0.2,4.3,3.1,7.9,7.3,8.1c4.3,0.2,7.9-3.1,8.1-7.3c0.2-4.3-3.1-7.9-7.3-8.1
					C448.1,337.2,444.5,340.3,444.3,344.6z"/>
				<path class="st35" d="M450.6,350.5c1.8,0.1,3.3-1.3,3.4-3c0.1-1.8-1.3-3.3-3-3.4c-1.8-0.1-3.3,1.3-3.4,3
					C447.6,348.9,449,350.4,450.6,350.5z"/>
				<path class="st35" d="M454.2,343.4c1,0,1.8-0.7,1.8-1.7s-0.7-1.8-1.7-1.8s-1.8,0.7-1.8,1.7C452.5,342.5,453.2,343.3,454.2,343.4
					z"/>
				<path class="st22" d="M409.7,364.4c0.4,1.5,3.5,2,7,1.1c3.4-0.9,5.9-2.9,5.5-4.4s-3.5-2-7-1.1
					C411.6,360.9,409.3,362.9,409.7,364.4z"/>
				<path class="st22" d="M449.1,357.5c0.4,1.5,3.5,2,7,1.1c3.4-0.9,5.9-2.9,5.5-4.4s-3.5-2-7-1.1
					C451,353.9,448.7,355.9,449.1,357.5z"/>
				<path class="st20" d="M406.1,351.4c-0.2,4.3,3.1,7.9,7.3,8.1c4.3,0.2,7.9-3.1,8.1-7.3c0.2-4.3-3.1-7.9-7.3-8.1
					C409.9,343.9,406.3,347.2,406.1,351.4z"/>
				<path class="st35" d="M412.6,357.3c1.8,0,3.2-1.4,3.2-3.2c0-1.8-1.4-3.2-3.2-3.2c-1.8,0-3.2,1.4-3.2,3.2
					C409.5,355.8,410.9,357.3,412.6,357.3z"/>
				<path class="st35" d="M416.1,350.2c1,0,1.8-0.8,1.8-1.8s-0.8-1.8-1.8-1.8s-1.8,0.8-1.8,1.8C414.3,349.4,415.1,350.2,416.1,350.2
					z"/>
				<path class="st20" d="M476.4,317c0.2,9.8-3.2,18.8-12.3,24.2c0.3-5.6-4.2-10.4-9.5-12.3c-5.2-1.9-10.9-1.3-16.4-0.3
					c-9.7,1.9-19.1,5.1-28.1,9.3c-7.5,3.5-12.5,10.1-15.9,17.5c-1.1,2.4-2.5,4.4-2.9,7c-0.1,0.7-0.2,8.7,0.6,8.4
					c-8.1,2.4-16.9-1.6-22.3-8s-7.8-14.8-9-23.1c-2.9-20.2,1.2-42.4,15.5-56.9c14-14.2,35.9-18.9,55.5-15c10.1,2,20,6.2,27.9,12.9
					C468.6,288.5,476,303.3,476.4,317z"/>
				<path class="st20" d="M404.5,303.6c-2.4,7.1-4.1,14.4-5.4,21.8c-1.9,11.5-4.1,27.9,3.5,37.8c0.9,1.2,2,2.4,2.7,3.8
					s1,3.1,0.2,4.5c-0.9,1.6-2.7,2.1-4.4,2.5c-4.6,0.9-9.3,1.3-13.9,1.1c-3.6-0.2-7.4-0.7-10.5-2.4c-8.3-4.3-13.3-15.1-15.9-24
					c-3.4-11.6-2.3-24.4,0.4-36C369.3,278.2,404.5,303.6,404.5,303.6z"/>
				<path class="st33" d="M434.9,364c0.2,0.9,1.7,1.3,3.3,0.9c1.6-0.4,2.8-1.4,2.6-2.2"/>
				<path class="st36" d="M376.9,309.2c3.6-0.6,6-4.1,5.4-7.7s-4.1-6-7.7-5.4s-6,4.1-5.4,7.7C369.8,307.4,373.2,309.8,376.9,309.2z"
					/>
				<path class="st37" d="M373.3,296.2l-1.4-2.1c0.6-0.5,1.1-1.2,1.3-2.1c0.4-1.9-1.3-4-1.3-4s-2.4,1.1-2.8,3.1
					c-0.1,0.3-0.1,0.7,0,1c-0.3-0.2-0.7-0.4-1.1-0.5c-1.9-0.4-4,1.3-4,1.3s1.1,2.4,3.1,2.8c0.8,0.2,1.6,0,2.3-0.3l1.5,2.3
					c0.4,0.6,1.3,0.8,1.9,0.4c0.1-0.1,0.2-0.1,0.2-0.2C373.6,297.5,373.7,296.7,373.3,296.2z"/>
			</g>
			<path class="st38" d="M449.3,373l-9.8,31.9c-0.1,0.4-0.4,0.6-0.8,0.7l-26.5,2c-0.5,0-0.9,0.4-0.9,0.9v1.7c0,0.5,0.4,0.9,0.9,0.9
				l72.3-1.4c0.4,0,0.7-0.2,0.9-0.6l12.7-33.3c0.2-0.6-0.2-1.2-0.8-1.3l-47.3-2.2C449.8,372.3,449.4,372.6,449.3,373z"/>
			<path class="st37" d="M476,391.6c-0.3-1-1-1.8-1.9-2.2c-0.8-0.3-1.6-0.3-2.4,0c-0.2-0.1-0.5-0.4-0.8-0.4h-0.1
				c-1-0.3-2.1,0-2.8,0.7c-1.2,1.1-1.6,3-0.9,4.5c0.4,0.8,1,1.5,1.9,1.8c0.7,0.3,1.5,0.2,2.2-0.1c0.4,0.3,0.9,0.5,1.4,0.5
				c0.5,0.1,1.1,0,1.6-0.3C475.7,395.4,476.5,393.4,476,391.6z"/>
			<path class="st37" d="M471.7,389.2C471.7,389.2,471.8,389.2,471.7,389.2c0.2,0,0.3-0.1,0.3-0.3c0-0.1,0-0.5,0.2-1
				c0.2-0.7,0.7-1,1.3-1.2c0.2,0,0.3-0.2,0.2-0.3c0-0.2-0.2-0.3-0.3-0.2c-0.9,0.2-1.5,0.7-1.8,1.6c-0.2,0.6-0.2,1.2-0.2,1.2
				C471.5,389.1,471.6,389.2,471.7,389.2z"/>
			<path class="st37" d="M470.9,388.9c0.1,0,0.2,0,0.2,0c0.1,0,0.1-0.1,0.1-0.2c0,0,0.1-0.8-0.4-1.6c-0.3-0.5-0.7-0.9-1.2-1.2
				c-0.6-0.4-1.5-0.6-2.4-0.8c-0.1,0-0.2,0-0.2,0.1c-0.1,0.1-0.1,0.1-0.1,0.2c0.1,0.5,0.2,1.3,0.8,2
				C468.3,388,469.3,388.6,470.9,388.9z"/>
			<path class="st34" d="M438.9,401.8c-1.4,5.8-10.1,8.8-20.2,7.2l6.6-22.5C434.3,389.9,440.2,396.2,438.9,401.8z"/>
			<path class="st29" d="M413.4,400.5c0.2,0,0.3-0.1,0.3-0.3c0-0.2-0.1-0.3-0.3-0.3c-0.2,0-0.3,0.1-0.3,0.3
				C413.1,400.4,413.2,400.5,413.4,400.5z"/>
			<path class="st29" d="M413,400.2c0-0.2,0.2-0.4,0.5-0.4c0.2,0,0.4,0.2,0.4,0.5c0,0.2-0.2,0.4-0.5,0.4
				C413.1,400.6,413,400.4,413,400.2z M413.2,400.2c0,0.1,0.1,0.2,0.2,0.2s0.2-0.1,0.2-0.2s-0.1-0.2-0.2-0.2
				S413.2,400.1,413.2,400.2z"/>
			<path class="st27" d="M389.6,414.3c-0.3,2.7-2.4,4.7-4.8,4.5c-0.8-0.1-1.5-0.4-2.1-0.9c-0.7,0.4-1.4,0.5-2.2,0.4
				c-2.4-0.2-4.1-2.6-3.8-5.3c0.3-2.7,2.4-4.7,4.8-4.5c0.8,0.1,1.5,0.4,2.1,0.9c0.7-0.4,1.4-0.5,2.2-0.4
				C388.2,409.2,389.9,411.6,389.6,414.3z"/>
			<path class="st28" d="M382.5,407.6c0,0,0.4-4-5.6-4.8C377.2,404.5,377.6,406.7,382.5,407.6z"/>
			<path class="st29" d="M378.3,409.4c-1.7,1.6-2.3,4.3-1.3,6.4c1,2.2,3.5,3.5,5.8,2.4c1.3,0.9,2.9,1.1,4.3,0.4
				c2.3-1.1,3.4-4.1,2.6-6.5c-0.8-2.6-3.5-4.3-6.1-3.1c-0.3-0.2-0.8-0.6-1.2-0.6c-0.1,0-0.1,0-0.2-0.1c-0.2-0.1-0.5-0.1-0.7-0.1
				C380.4,408.1,379.2,408.6,378.3,409.4z M377.2,412.7c0.4-2.2,2.4-4.3,4.8-3.7c0.3,0.1,0.7,0.2,1,0.4c0.7,0.4,1.3,1.1,1.7,1.9
				c0.2,0.4,0.3,0.9,0.4,1.3c0,0.2,0.1,0.5,0.1,0.7s-0.1,0.5,0,0.7s0.3,0.3,0.5,0.2c0.2-0.1,0.2-0.3,0.2-0.5c0-0.5,0-1.1-0.1-1.6
				c-0.2-0.9-0.7-1.8-1.3-2.5c1.4-0.5,2.9-0.1,3.9,1c1.7,1.9,1.6,5-0.2,6.8c-0.8,0.8-2,1.3-3.2,1.1c-0.4-0.1-0.8-0.2-1.1-0.4
				c-0.3-0.1-0.6-0.5-0.8-0.5c-0.2,0-0.4,0.2-0.6,0.2c-0.2,0.1-0.3,0.1-0.5,0.2c-0.4,0.1-0.7,0.1-1.1,0.1
				C378.1,417.8,376.8,415,377.2,412.7z"/>
			<path class="st29" d="M382.8,418.3c-1,0.5-2.2,0.5-3.2,0.1c-1.2-0.4-2.2-1.4-2.7-2.6c-1-2.2-0.4-5,1.3-6.6c1.2-1,2.7-1.5,4.1-1.1
				c0.1,0,0.1,0,0.2,0.1c0.4,0,0.9,0.4,1.2,0.6c1.1-0.5,2.3-0.5,3.5,0c1.3,0.6,2.3,1.8,2.7,3.2c0.8,2.6-0.4,5.5-2.7,6.7
				c-0.7,0.4-1.5,0.5-2.3,0.4C384.1,419,383.4,418.7,382.8,418.3z M383.7,409.2L383.7,409.2c-0.3-0.2-0.9-0.6-1.2-0.6
				c-0.1,0-0.1,0-0.2-0.1c-1.4-0.4-2.8,0-3.9,1c-1.7,1.5-2.2,4.2-1.3,6.3c0.5,1.2,1.4,2.1,2.6,2.5c1,0.4,2.1,0.3,3.1-0.1h0.1h0.1
				c1.2,0.9,2.8,1.1,4.2,0.4c2.2-1.1,3.3-3.9,2.6-6.4c-0.4-1.3-1.4-2.5-2.6-3c-0.4-0.2-0.8-0.3-1.2-0.3
				C385.1,408.7,384.4,408.9,383.7,409.2z M378,416.6c-0.8-1.1-1.2-2.6-0.9-4c0.2-1.3,1-2.6,2.1-3.3c0.9-0.6,1.9-0.7,2.8-0.5
				c0.4,0.1,0.7,0.2,1,0.4c0.7,0.4,1.3,1.1,1.7,1.9c0.2,0.4,0.3,0.9,0.4,1.4c0,0.2,0.1,0.5,0.1,0.7c0,0.1,0,0.2,0,0.3
				c0,0.1,0,0.3,0,0.4s0.1,0.1,0.1,0.1s0.1,0,0.2,0c0.1-0.1,0.1-0.2,0.1-0.4v-0.1c0-0.5,0-1-0.1-1.5c-0.2-1-0.7-1.8-1.3-2.5
				l-0.1-0.1l0.2-0.1c1.4-0.5,3-0.2,4.1,1c1.7,1.9,1.6,5.1-0.2,7c-0.9,0.9-2.1,1.3-3.3,1.2c-0.4-0.1-0.8-0.2-1.2-0.4
				c-0.1-0.1-0.2-0.1-0.3-0.2c-0.2-0.1-0.3-0.3-0.5-0.3c-0.1,0-0.2,0.1-0.3,0.1c-0.1,0-0.1,0.1-0.2,0.1c-0.2,0.1-0.3,0.1-0.5,0.2
				c-0.4,0.1-0.8,0.1-1.2,0.1C379.6,417.9,378.7,417.5,378,416.6z M383.4,417.8c0.1,0.1,0.2,0.1,0.3,0.2c0.3,0.2,0.7,0.3,1.1,0.4
				c1.1,0.2,2.2-0.3,3.1-1.1c1.8-1.8,1.9-4.9,0.2-6.7c-1-1-2.4-1.4-3.7-1c0.6,0.7,1,1.5,1.3,2.4c0.1,0.5,0.2,1.1,0.1,1.6v0.1
				c0,0.2,0,0.4-0.2,0.6c-0.1,0.1-0.2,0.1-0.4,0c-0.1-0.1-0.2-0.2-0.3-0.3c0-0.1,0-0.3,0-0.5c0-0.1,0-0.2,0-0.2c0-0.2,0-0.5-0.1-0.7
				c-0.1-0.5-0.2-0.9-0.4-1.3c-0.4-0.8-0.9-1.4-1.6-1.8c-0.3-0.2-0.6-0.3-0.9-0.4c-0.9-0.2-1.8-0.1-2.6,0.5c-1,0.7-1.8,1.9-2,3.1
				c-0.2,1.3,0.1,2.8,0.9,3.8c0.6,0.8,1.5,1.3,2.5,1.4c0.4,0,0.7,0,1.1-0.1c0.2,0,0.3-0.1,0.5-0.1c0.1,0,0.1-0.1,0.2-0.1
				c0.1-0.1,0.3-0.2,0.4-0.1C383,417.5,383.3,417.6,383.4,417.8z"/>
			<path class="st29" d="M383.7,408.4c0.2,0,0.4-0.2,0.3-0.3c0,0,0-0.7,0.2-1.5c0.3-1,1-1.6,2-1.8c0.2,0,0.3-0.2,0.2-0.4
				c0-0.2-0.2-0.3-0.4-0.2c-1.2,0.2-2.1,1-2.5,2.2c-0.3,0.9-0.3,1.7-0.3,1.7C383.4,408.3,383.6,408.4,383.7,408.4z"/>
			<path class="st29" d="M383.3,408.1c0,0,0-0.9,0.3-1.8c0.4-1.3,1.3-2,2.6-2.3c0.2,0,0.5,0.1,0.5,0.3c0,0.2-0.1,0.5-0.3,0.5
				c-0.9,0.2-1.6,0.7-1.9,1.7c-0.2,0.7-0.2,1.4-0.2,1.5c0,0.2-0.2,0.4-0.4,0.5c0,0,0,0-0.1,0C383.5,408.5,383.3,408.4,383.3,408.1z
				 M386.2,404.3c-1.2,0.2-2,1-2.4,2.1c-0.3,0.9-0.3,1.7-0.2,1.7c0,0.1,0.1,0.2,0.2,0.2s0.2-0.1,0.2-0.2s0-0.8,0.2-1.6
				c0.4-1,1.1-1.7,2.1-1.9c0.1,0,0.2-0.1,0.2-0.2C386.4,404.4,386.3,404.3,386.2,404.3z"/>
			<path class="st29" d="M382.4,407.9c-2.2-0.4-3.8-1.2-4.7-2.2c-0.8-1-1-2.1-1.1-2.8c0-0.1,0-0.2,0.1-0.2s0.1-0.1,0.2-0.1
				c1.4,0.2,2.6,0.5,3.5,1.1c0.7,0.5,1.3,1,1.7,1.7c0.7,1.2,0.6,2.2,0.6,2.3c0,0.1,0,0.1-0.1,0.2
				C382.6,407.9,382.5,407.9,382.4,407.9z M378.2,405.3c0.8,0.9,2.1,1.5,4,2c0-0.4-0.1-1-0.5-1.6c-0.3-0.6-0.9-1.1-1.5-1.5
				c-0.8-0.5-1.8-0.8-2.9-1C377.4,403.9,377.6,404.7,378.2,405.3z"/>
			<path class="st29" d="M382.4,408c-2.3-0.4-3.8-1.2-4.7-2.3c-0.9-1-1-2.1-1.1-2.9c0-0.1,0-0.2,0.1-0.3c0.1-0.1,0.2-0.1,0.3-0.1
				c1.4,0.2,2.6,0.6,3.5,1.1c0.8,0.5,1.4,1,1.8,1.7c0.7,1.2,0.6,2.3,0.6,2.3c0,0.1-0.1,0.2-0.2,0.3C382.6,408,382.5,408,382.4,408z
				 M376.8,402.7C376.8,402.7,376.7,402.8,376.8,402.7c0.1,0.8,0.3,1.9,1.1,2.8c0.9,1,2.4,1.7,4.6,2.2h0.1l0.1-0.1
				c0,0,0.1-1.1-0.6-2.2c-0.4-0.7-1-1.2-1.7-1.7C379.5,403.2,378.3,402.8,376.8,402.7C376.9,402.7,376.8,402.7,376.8,402.7z
				 M382.2,407.4c-2-0.4-3.3-1.1-4.1-2c-0.6-0.7-0.8-1.5-0.9-2.2V403h0.2c1.2,0.2,2.2,0.5,3,1c0.7,0.4,1.2,0.9,1.6,1.6
				s0.5,1.3,0.5,1.7v0.2L382.2,407.4z M378.3,405.3c0.7,0.9,2,1.5,3.8,1.9c0-0.4-0.2-0.9-0.5-1.4c-0.3-0.6-0.8-1.1-1.5-1.5
				s-1.6-0.7-2.7-0.9C377.5,404,377.7,404.6,378.3,405.3z"/>
			<path class="st29" d="M385.1,415.3c0.2,0,0.3-0.1,0.3-0.3c0-0.2-0.1-0.3-0.3-0.3c-0.2,0-0.3,0.1-0.3,0.3
				C384.8,415.1,384.9,415.3,385.1,415.3z"/>
			<path class="st29" d="M384.7,414.9c0-0.2,0.2-0.4,0.5-0.4c0.2,0,0.4,0.2,0.4,0.5c0,0.2-0.2,0.4-0.5,0.4
				C384.9,415.4,384.7,415.2,384.7,414.9z M384.9,415c0,0.1,0.1,0.2,0.2,0.2s0.2-0.1,0.2-0.2s-0.1-0.2-0.2-0.2
				C385.1,414.8,385,414.9,384.9,415z"/>
		</g>
	</g>
	<g>
		<g>
			<path class="st39" d="M232.3,423.7c1.1,19-9.7,38.6-33.4,46.2c-21.8,7-45.6,7.1-67.1-2.5c-39-17.5-17.7-59.5,9.3-76.1
				c12.5-7.7,27.8-12.2,43.2-11.6C214.5,381,231.1,402,232.3,423.7"/>
			<path class="st7" d="M227.1,415.3c1.1,19-9.7,38.6-33.4,46.2c-21.8,7-45.6,7.1-67.1-2.5c-39-17.5-17.7-59.5,9.3-76.1
				c12.5-7.7,27.8-12.2,43.2-11.6C209.2,372.6,225.8,393.6,227.1,415.3"/>
			<path class="st20" d="M152.5,439.9c-6.7-0.4-13.4-1.9-19.4-4.7c-30.4-14-10.1-42.4,13.6-52.8c10.3-4.5,21.6-6.5,31.7-5.4
				c0.7,0.1,1.4,0.2,2,0.2c8.5,1.2,14.7,4.4,19.1,9.8c4.5,5.5,6.7,13,6,20.7C203.8,428.2,177.3,441.5,152.5,439.9z"/>
		</g>
		<g>
			<path class="st40" d="M141.1,363.6c4.6,6.3-2.4,19.3-15.6,29s-27.7,12.4-32.3,6.2c-4.6-6.3,2.4-19.3,15.6-29
				C122,360,136.5,357.3,141.1,363.6z"/>
			<path class="st40" d="M195.3,405.6c0,24.4-18.7,34.6-41.7,34.6s-41.7-10.2-41.7-34.6s18.7-53.8,41.7-53.8
				C176.6,351.7,195.3,381.1,195.3,405.6z"/>
			<g>
				<path class="st20" d="M184.7,273.7c0,0,8.4-2.9,10.8,3.2c0,0-8.4-2.2-6.7,3.6"/>
				<path class="st20" d="M186.7,275.3c0,0,0.9-8.9-5.6-9.8c0,0,4.1,7.7-2,7.4"/>
			</g>
			<path class="st20" d="M86.9,348.1c0,0.3,0,0.5,0,0.8c-0.2,3.8,0.9,8.5,3.5,11.4c2.8,3,8.3,3.6,12.2,4.1c2.1,0.3,4.4,0.5,6.4,0
				c4-1.1,5.7-4.6,6.7-7.7c2.9-9.1,3.5-18.5,4-27.9c0.4-7.9,1.1-19.5-7.8-25.3c-6-3.9-8.7-2.8-11.3,2.4c-3.6,7.2-2.8,15.5-5.8,22.9
				c-1.3,3.1-3.2,6-4.7,9C88.4,341,87.1,344.5,86.9,348.1z"/>
			<path class="st26" d="M150.4,406.6c17.1-1.9,31.2,5.5,32.3,15.4c1.1,10-11.3,18.9-28.3,20.7c-17.1,1.9-32.4-4-33.5-14
				C119.8,418.8,133.4,408.5,150.4,406.6z"/>
			<path class="st26" d="M173.3,390.4c-1.5-6.3-11.9-9.2-23.2-6.5s-19.2,10.1-17.7,16.4s11.9,9.2,23.2,6.5
				C166.9,404.1,174.8,396.7,173.3,390.4z"/>
			<path class="st34" d="M194.6,334c0,29.9-21.4,41.9-47.7,41.9c-14.2,0-31.8-3.6-40.4-16.3c-4.4-6.6-1.6-10.6,0.3-17.5
				c2-7.5,0.2-14.6-0.8-22c-1.2-8.4,2.5-18.8,6-26.3c6.4-13.6,18.9-26,34.8-26C173.3,267.6,194.6,304.1,194.6,334z"/>
			<g>
				<g>
					<g>
						<path class="st20" d="M128.3,342.2c0,4.2-3.4,7.6-7.6,7.6s-7.6-3.4-7.6-7.6s3.4-7.6,7.6-7.6
							C124.9,334.7,128.3,338.1,128.3,342.2z"/>
					</g>
					<g>
						<path class="st35" d="M121.7,347.7c-1.7,0-3.2-1.4-3.2-3.2c0-1.7,1.4-3.2,3.2-3.2s3.2,1.4,3.2,3.2
							C124.8,346.3,123.4,347.7,121.7,347.7z"/>
					</g>
				</g>
				<g>
					<path class="st35" d="M118.5,340.5c-1,0-1.7-0.8-1.7-1.7c0-1,0.8-1.7,1.7-1.7c1,0,1.7,0.8,1.7,1.7
						C120.2,339.8,119.4,340.5,118.5,340.5z"/>
				</g>
			</g>
			<path class="st22" d="M161.5,363.5c-0.5,1.5-3.6,1.8-6.9,0.7c-3.3-1.1-5.6-3.2-5.2-4.6c0.5-1.5,3.6-1.8,6.9-0.7
				C159.7,360,162,362,161.5,363.5z"/>
			<path class="st22" d="M122.9,354.6c-0.5,1.5-3.6,1.8-6.9,0.7c-3.3-1.1-5.6-3.2-5.2-4.6c0.5-1.5,3.6-1.8,6.9-0.7
				C121.1,351.1,123.4,353.2,122.9,354.6z"/>
			<g>
				<g>
					<g>
						<path class="st20" d="M165.7,350.8c0,4.2-3.4,7.6-7.6,7.6c-4.2,0-7.6-3.4-7.6-7.6s3.4-7.6,7.6-7.6
							C162.3,343.3,165.7,346.6,165.7,350.8z"/>
					</g>
					<g>
						<path class="st35" d="M159,356.3c-1.7,0-3.2-1.4-3.2-3.2c0-1.7,1.4-3.2,3.2-3.2c1.7,0,3.2,1.4,3.2,3.2S160.8,356.3,159,356.3z
							"/>
					</g>
				</g>
				<g>
					<path class="st35" d="M155.9,349.1c-1,0-1.7-0.8-1.7-1.7c0-1,0.8-1.7,1.7-1.7c1,0,1.7,0.8,1.7,1.7
						C157.6,348.4,156.8,349.1,155.9,349.1z"/>
				</g>
			</g>
			<path class="st20" d="M97.9,313.4c-0.7,9.6,2.2,18.7,11,24.5c0-5.5,4.7-10.1,9.9-11.7s10.9-0.7,16.2,0.5
				c9.5,2.3,18.6,6,27.2,10.5c7.2,3.8,11.9,10.6,14.9,18c1,2.4,2.2,4.4,2.5,7c0.1,0.7-0.2,8.5-1,8.2c7.8,2.7,16.8-0.8,22.4-6.8
				c5.6-6.1,8.4-14.2,10-22.3c3.9-19.8,0.9-41.9-12.5-56.9c-13.1-14.8-34.5-20.4-54.1-17.6c-10.1,1.5-20.1,5.1-28.1,11.4
				C107.1,285.7,98.9,300,97.9,313.4z"/>
			<path class="st20" d="M169.5,303.7c2,7.1,3.3,14.5,4.2,21.8c1.3,11.5,2.7,27.7-5.3,37.1c-1,1.2-2.1,2.2-2.9,3.6
				c-0.8,1.3-1.1,3-0.4,4.4c0.8,1.6,2.6,2.2,4.2,2.6c4.5,1.2,9.1,1.7,13.7,1.8c3.6,0,7.3-0.3,10.5-1.9c8.3-3.9,14-14.2,16.9-22.9
				c3.9-11.4,3.4-23.9,1.3-35.6C205.6,280.4,169.5,303.7,169.5,303.7z"/>
			<path class="st41" d="M170.7,357.3c-2.4,7.9-10,11.7-17.2,9.5s-11.4-9.5-9-17.5c2.4-7.9,9.4-9.9,16.6-7.7
				C168.4,343.9,173.1,349.4,170.7,357.3z"/>
			<path class="st41" d="M131.2,348.3c-2.3,7.6-9.3,11.3-16,9.3s-10.4-9-8.1-16.6s8.8-9.6,15.5-7.5
				C129.2,335.4,133.5,340.6,131.2,348.3z"/>
			<line class="st41" x1="131.2" y1="348.3" x2="143.3" y2="351.6"/>
			<path class="st33" d="M136.6,361.9c-0.2,0.8-1.7,1.2-3.3,0.7c-1.6-0.4-2.7-1.5-2.4-2.3"/>
			<path class="st26" d="M135,408.4l0.1,2.5l0,0C135.1,409.3,135,408.4,135,408.4z"/>
			<path class="st26" d="M135.2,410.9l1.7,31c0.1,0,0.2,0,0.3,0.1C136.5,429.8,135.6,416.3,135.2,410.9L135.2,410.9z"/>
			<path class="st34" d="M99.8,444c3.1,6.9,7.8,12,13,12c4.3,0,8.1-3.4,11.1-8.2L99.8,444z"/>
			<path class="st42" d="M158.4,382.1c0,3-2.4,5.3-5.3,5.3s-5.3-2.4-5.3-5.3c0-3,2.4-5.3,5.3-5.3S158.4,379.2,158.4,382.1z"/>
			<path class="st40" d="M182.7,422.1c-0.4-3.3-2.2-6.4-4.7-8.7c-3.4-3.1-7.8-4.8-12.3-5.8c-4.9-1.1-10.1-1.5-15.1-1.1
				c-3.3,0.3-12.7,0.7-14.9,3.5c-1.1,1.4-0.4,4.2-0.3,5.9c0.2,3,0.4,6,0.5,9c0.4,6,0.7,11.9,1.1,17.9c0,0.4,0.1,0.8,0.3,1
				s0.6,0.3,0.9,0.3c12.1,1.5,24.7-1.2,35.1-7.5c4.2-2.6,8.3-6.1,9.3-10.9C182.8,424.5,182.9,423.3,182.7,422.1z"/>
			<path class="st26" d="M135,380.6"/>
			<path class="st34" d="M132.4,400.3c1.4,5.7,10,8.6,20,7.1l-6.5-22.2C136.9,388.5,131.1,394.8,132.4,400.3z"/>
			<path class="st40" d="M129.3,426.7c0-3.6-0.6-7.2-2.3-10.3c-3.1-5.8-10-9.3-16.5-8.5c-15.8,2.1-16,21.5-15.1,33.7
				c0,0.6,0.1,1.2,0.5,1.6c0.4,0.5,1.1,0.6,1.7,0.7c9.2,1.3,18.4,2.7,27.7,4c0.3,0,0.7,0.1,1-0.1c0.2-0.2,0.3-0.5,0.4-0.8
				c0.9-4.7,1.8-9.3,2.3-14.1C129.2,430.8,129.3,428.7,129.3,426.7z"/>
			<polygon class="st43" points="131.7,375.1 125.3,386.1 138,386.1 			"/>
			<g>
				<path class="st38" d="M122.1,371.8l9.6,31.6c0.1,0.4,0.4,0.6,0.8,0.6l26.1,2c0.5,0,0.8,0.4,0.8,0.9v1.6c0,0.5-0.4,0.9-0.9,0.9
					L87,408.1c-0.4,0-0.7-0.2-0.8-0.6l-12.6-32.9c-0.2-0.6,0.2-1.2,0.8-1.2l46.7-2.2C121.6,371.2,121.9,371.4,122.1,371.8z"/>
			</g>
			<g>
				<path class="st37" d="M103.4,388.8c-0.7-0.7-1.6-1-2.5-0.9l0,0h-0.1c-0.3,0-0.6,0.2-0.8,0.3c-0.7-0.4-1.4-0.4-2.1-0.2
					c-0.8,0.3-1.5,1-1.8,1.8c-0.6,1.6,0,3.4,1.3,4.3c0.4,0.3,0.9,0.4,1.4,0.4s0.9-0.1,1.3-0.4c0.6,0.3,1.3,0.4,2,0.2
					c0.8-0.2,1.4-0.7,1.8-1.5C104.6,391.6,104.4,389.8,103.4,388.8z"/>
				<path class="st37" d="M98.6,385.6c0.6,0.2,0.9,0.5,1.1,1.2c0.1,0.5,0.1,0.9,0.1,0.9c0,0.1,0.1,0.3,0.2,0.3l0,0
					c0.1,0,0.2-0.1,0.3-0.2c0,0,0.1-0.5-0.1-1.1c-0.2-0.8-0.7-1.3-1.5-1.5c-0.1,0-0.3,0-0.3,0.2C98.4,385.4,98.5,385.6,98.6,385.6z"
					/>
				<path class="st37" d="M100.7,387.7c0,0,0.1,0.1,0.2,0.1l0,0c1.4-0.2,2.4-0.5,3-1.1s0.7-1.2,0.8-1.7c0-0.1,0-0.2,0-0.2
					c0-0.1-0.1-0.1-0.2-0.1l0,0c-0.9,0-1.6,0.2-2.2,0.5c-0.5,0.2-0.9,0.6-1.2,1c-0.5,0.7-0.5,1.4-0.5,1.4
					C100.6,387.6,100.6,387.6,100.7,387.7z"/>
			</g>
			<path class="st40" d="M187.7,374.4c-0.9-1-1.9-1.8-3-2.5c-3.2-1.8-6.9-2.2-10.4-1.4c-3.5,0.8-6.8,2.6-9.7,4.8
				c-4.5,3.3-8.7,7.8-14,8.5c-0.9,0.1-1.9,0.1-2.8,0.4c-0.7,0.2-1.5,0.6-1.9,1.3c-0.6,0.9-0.1,1.9,0.1,2.8c0.5,2.3,1,4.6,1.6,6.9
				c1.1,4.6,2.4,9.1,3.7,13.6c0.3,1.1,0.7,2.3,1.6,2.9c0.7,0.5,1.6,0.5,2.4,0.3c3.2-0.4,6.1-2,9.1-3.3c6.7-2.9,14.2-4.5,19.5-9.9
				c2.7-2.8,4.7-6.4,5.9-10.2c0.8-2.4,1.3-5,1-7.5C190.5,378.7,189.3,376.3,187.7,374.4z"/>
			<path class="st42" d="M168,434.9c0,3-2.4,5.3-5.3,5.3c-3,0-5.3-2.4-5.3-5.3c0-3,2.4-5.3,5.3-5.3S168,432,168,434.9z"/>
			<path class="st42" d="M181.7,396.7c0,3-2.4,5.3-5.3,5.3c-3,0-5.3-2.4-5.3-5.3s2.4-5.3,5.3-5.3
				C179.4,391.4,181.7,393.8,181.7,396.7z"/>
			<path class="st42" d="M106.4,426.7c0,3-2.4,5.3-5.3,5.3c-3,0-5.3-2.4-5.3-5.3c0-3,2.4-5.3,5.3-5.3
				C104,421.4,106.4,423.7,106.4,426.7z"/>
			<polygon class="st43" points="168.3,409 162,420 174.7,420 			"/>
			<polygon class="st43" points="156.6,389.5 150.2,400.5 162.9,400.5 			"/>
			<polygon class="st43" points="117.3,409.1 111,420.1 123.7,420.1 			"/>
			
				<rect x="138.3" y="419.5" transform="matrix(0.7071 -0.7071 0.7071 0.7071 -258.3658 225.9978)" class="st44" width="10.7" height="10.7"/>
			<rect x="169.8" y="372.5" class="st44" width="10.7" height="10.7"/>
			
				<rect x="116.2" y="432.3" transform="matrix(0.9579 -0.2871 0.2871 0.9579 -120.5326 53.3076)" class="st44" width="10.7" height="10.7"/>
			<rect x="181.9" y="406.6" class="st44" width="10.7" height="10.7"/>
			<path class="st34" d="M120.9,428.8c0.7,6.3,7.1,11,16,13.1l-1.7-31C126.1,415.2,120.2,422.1,120.9,428.8z"/>
		</g>
		<g>
			<g>
				<g>
					<path class="st35" d="M204.9,347c0.2-0.1,4.3-4.1,4.3-4.1l-5.1-3.2h-0.5l0.6,7.3L204.9,347z"/>
					<polygon class="st45" points="183,348.8 204.3,347 203.7,339.7 182.2,341.9 					"/>
				</g>
				<path class="st20" d="M181.5,342.6l0.6,6.1c0,0.3,0.2,0.5,0.4,0.7s0.5,0.3,0.8,0.2l21.2-2.1c0.2,0,0.4-0.1,0.6-0.3l4-3.5
					c0.3-0.2,0.4-0.6,0.4-0.9s-0.2-0.5-0.4-0.7L209,342l-4.6-2.6c-0.2-0.1-0.4-0.2-0.6-0.1l-21.2,2.1
					C181.9,341.5,181.5,342,181.5,342.6z M183.2,348.6l-0.3-2.5l20.6-2.1l0.3,2.6L183.2,348.6z M208.4,342.9l-0.9,0.7l-0.2-1.3
					L208.4,342.9z M206.3,341.7c0,0.1,0,0.1,0,0.2l0.3,2.3c0,0.1,0,0.2,0.1,0.2l-1.9,1.6l-0.6-5.6L206.3,341.7z M203.1,340.4
					l0.2,2.5l-20.6,2.1l-0.3-2.5L203.1,340.4z"/>
			</g>
			<path class="st34" d="M191.7,343.6c0.5,0,1,0.1,1.5,0.4c1,0.6,1.7,1.6,2.2,2.8c1,2.6,0.8,5.9-0.5,8.6c-1.3,2.8-3.6,5-6.2,5.8
				c-1.6,0.5-3.6,0.5-4.5-1c-1-1.5-0.4-3.8,0.1-5.7C185.3,351.3,187.8,343.4,191.7,343.6z"/>
		</g>
	</g>
</g>
<g>
	<path class="st21" d="M8.4,254.2l76.4-19.7c4.9-1.3,10,1.9,11.3,7.1l4.9,19.1c1.2,4.8-1.1,9.6-5.3,11.3c-0.6,0.2-0.9,1-0.8,1.6
		l2.7,10.5c0.2,0.6-0.5,1-1,0.6l-10.8-9.5c-0.3-0.3-0.8-0.4-1.2-0.3L18.1,292c-4.9,1.3-10-1.9-11.3-7.1l-4.9-19.1
		C0.6,260.7,3.5,255.4,8.4,254.2z"/>
	<g>
		<g>
			<path class="st35" d="M19.5,282.2c-0.2,0-0.4,0-0.5-0.1c-0.2-0.1-0.4-0.4-0.5-0.6l-4.9-19.2c-0.1-0.5,0.2-1.1,0.7-1.2l3.3-0.9
				c0.1,0,0.2,0,0.2,0c0.2,0,0.4,0,0.5,0.1c0.2,0.1,0.4,0.4,0.5,0.6l1.8,7l6.6-1.7l-1.8-7c-0.1-0.5,0.2-1.1,0.7-1.2l3.3-0.9
				c0.1,0,0.2,0,0.2,0c0.2,0,0.4,0,0.5,0.1c0.2,0.1,0.4,0.4,0.5,0.6l4.9,19.1c0.1,0.5-0.2,1.1-0.7,1.2l-3.3,0.9c-0.1,0-0.2,0-0.2,0
				c-0.2,0-0.4,0-0.5-0.1c-0.2-0.1-0.4-0.4-0.5-0.6l-1.9-7.5l-6.6,1.7l1.9,7.5c0.1,0.5-0.2,1.1-0.7,1.2l-3.3,0.9
				C19.7,282.2,19.6,282.2,19.5,282.2z"/>
			<path class="st11" d="M29.8,258.1l4.9,19.1l-3.3,0.9l-2.2-8.5l-8.5,2.2l2.2,8.5l-3.3,0.9l-5-19.1l3.3-0.9l2,8l8.5-2.2l-2-8
				L29.8,258.1 M29.8,256.1c-0.2,0-0.3,0-0.5,0.1l-3.3,0.9c-0.5,0.1-1,0.5-1.2,0.9c-0.3,0.5-0.3,1-0.2,1.5l1.6,6l-4.7,1.2l-1.6-6
				c-0.1-0.5-0.5-1-0.9-1.2c-0.3-0.2-0.7-0.3-1-0.3c-0.2,0-0.3,0-0.5,0.1l-3.3,0.9c-1.1,0.3-1.7,1.4-1.4,2.4l4.9,19.1
				c0.1,0.5,0.5,1,0.9,1.2c0.3,0.2,0.7,0.3,1,0.3c0.2,0,0.3,0,0.5-0.1l3.3-0.9c1.1-0.3,1.7-1.4,1.4-2.4l-1.7-6.5l4.7-1.2l1.7,6.5
				c0.2,0.9,1,1.5,1.9,1.5c0.2,0,0.3,0,0.5-0.1l3.3-0.9c1.1-0.3,1.7-1.4,1.4-2.4l-4.9-19.1c-0.1-0.5-0.5-1-0.9-1.2
				C30.5,256.2,30.1,256.1,29.8,256.1L29.8,256.1z"/>
		</g>
		<g>
			<path class="st35" d="M42.8,276.2c-0.2,0-0.4,0-0.5-0.1c-0.2-0.1-0.4-0.4-0.5-0.6l-4-15.5l-4.9,1.3c-0.1,0-0.2,0-0.2,0
				c-0.2,0-0.4,0-0.5-0.1c-0.2-0.1-0.4-0.4-0.5-0.6l-0.7-2.7c-0.1-0.5,0.2-1.1,0.7-1.2l15.2-3.9c0.1,0,0.2,0,0.3,0
				c0.4,0,0.9,0.3,1,0.8l0.7,2.7c0.1,0.3,0,0.5-0.1,0.8c-0.1,0.2-0.4,0.4-0.6,0.5l-5,1.3l4,15.5c0.1,0.5-0.2,1.1-0.7,1.2l-3.3,0.8
				C43,276.2,42.9,276.2,42.8,276.2z"/>
			<path class="st11" d="M47.1,253.7l0.7,2.7l-6,1.5l4.2,16.4l-3.3,0.8l-4.1-16.4l-5.9,1.5l-0.7-2.7L47.1,253.7 M47.1,251.7
				c-0.2,0-0.3,0-0.5,0.1l-15.2,3.9c-0.5,0.1-1,0.5-1.2,0.9c-0.3,0.5-0.3,1-0.2,1.5l0.7,2.7c0.1,0.5,0.5,1,0.9,1.2
				c0.3,0.2,0.7,0.3,1,0.3c0.2,0,0.3,0,0.5-0.1l4-1l3.7,14.5c0.1,0.5,0.5,1,0.9,1.2c0.3,0.2,0.7,0.3,1,0.3c0.2,0,0.3,0,0.5-0.1
				l3.3-0.8c1.1-0.3,1.7-1.4,1.4-2.4l-3.7-14.5l4-1c0.5-0.1,1-0.5,1.2-0.9c0.3-0.5,0.3-1,0.2-1.5l-0.7-2.7
				C48.9,252.3,48,251.7,47.1,251.7L47.1,251.7z"/>
		</g>
		<g>
			<path class="st35" d="M54.6,273.2c-0.2,0-0.4,0-0.5-0.1c-0.2-0.1-0.4-0.4-0.5-0.6l-4.9-19.1c-0.1-0.5,0.2-1.1,0.7-1.2l4.3-1.1
				c0.1,0,0.2,0,0.2,0c0.3,0,0.6,0.2,0.8,0.4l7.8,11.1l1.4-13.4c0-0.4,0.3-0.8,0.7-0.9l4.3-1.1c0.1,0,0.2,0,0.2,0
				c0.4,0,0.9,0.3,1,0.8l4.9,19.1c0.1,0.3,0,0.5-0.1,0.8c-0.1,0.2-0.4,0.4-0.6,0.5l-3.3,0.9c-0.1,0-0.2,0-0.3,0
				c-0.4,0-0.9-0.3-1-0.8l-1.6-6.3l-0.6-2.6l-0.9,9.8c0,0.4-0.3,0.8-0.7,0.9l-2.4,0.6c-0.1,0-0.2,0-0.2,0c-0.3,0-0.6-0.2-0.8-0.4
				l-5.9-8.3l0.8,2.5L59,271c0.1,0.5-0.2,1.1-0.7,1.2l-3.3,0.9C54.7,273.1,54.7,273.2,54.6,273.2z"/>
			<path class="st11" d="M69.3,248l4.9,19.1l-3.3,0.9l-1.6-6.3l-1.8-8.5l-1.9,16.1l-2.4,0.6l-9.4-13.3l2.5,8.3l1.6,6.3l-3.3,0.9
				L49.7,253l4.3-1.1l9.3,13.2L65,249L69.3,248 M69.3,246c-0.2,0-0.3,0-0.5,0.1l-4.3,1.1c-0.8,0.2-1.4,0.9-1.5,1.7l-1.2,10.8
				l-6.2-8.9c-0.4-0.5-1-0.9-1.6-0.9c-0.2,0-0.3,0-0.5,0.1l-4.3,1.1c-1.1,0.3-1.7,1.4-1.4,2.4l4.9,19.1c0.1,0.5,0.5,1,0.9,1.2
				c0.3,0.2,0.7,0.3,1,0.3c0.2,0,0.3,0,0.5-0.1l3.3-0.9c1.1-0.3,1.7-1.4,1.4-2.4l-0.9-3.4l2.6,3.7c0.4,0.5,1,0.8,1.6,0.8
				c0.2,0,0.3,0,0.5-0.1l2.4-0.6c0.8-0.2,1.4-0.9,1.5-1.7l0.5-4.5l0.9,3.4c0.1,0.5,0.5,1,0.9,1.2c0.3,0.2,0.7,0.3,1,0.3
				c0.2,0,0.3,0,0.5-0.1l3.3-0.9c1.1-0.3,1.7-1.4,1.4-2.4l-4.9-19.1C71,246.6,70.2,246,69.3,246L69.3,246z"/>
		</g>
		<g>
			<path class="st35" d="M78.1,267.1c-0.2,0-0.4,0-0.5-0.1c-0.2-0.1-0.4-0.4-0.5-0.6l-4.9-19.1c-0.1-0.3,0-0.5,0.1-0.8
				c0.1-0.2,0.4-0.4,0.6-0.5l3.3-0.9c0.1,0,0.2,0,0.3,0c0.4,0,0.9,0.3,1,0.8l4,15.5l7.7-2c0.1,0,0.2,0,0.2,0c0.2,0,0.4,0,0.5,0.1
				c0.2,0.1,0.4,0.4,0.5,0.6l0.7,2.7c0.1,0.5-0.2,1.1-0.7,1.2l-12,3.1C78.3,267.1,78.2,267.1,78.1,267.1z"/>
			<path class="st11" d="M76.5,246.1l4.2,16.5l8.7-2.2l0.7,2.7l-12,3.1L73.2,247L76.5,246.1 M76.5,244.1c-0.2,0-0.3,0-0.5,0.1
				l-3.3,0.9c-0.5,0.1-1,0.5-1.2,0.9c-0.3,0.5-0.3,1-0.2,1.5l4.9,19.1c0.2,0.9,1,1.5,1.9,1.5c0.2,0,0.3,0,0.5-0.1l12-3.1
				c1.1-0.3,1.7-1.4,1.4-2.4l-0.7-2.7c-0.1-0.5-0.5-1-0.9-1.2c-0.3-0.2-0.7-0.3-1-0.3c-0.2,0-0.3,0-0.5,0.1l-6.7,1.7l-3.7-14.5
				C78.2,244.7,77.4,244.1,76.5,244.1L76.5,244.1z"/>
		</g>
	</g>
</g>
<g>
	<path class="st21" d="M112.4,192.8h48c3.1,0,5.6,4.3,5.6,9.7v19.8c0,4.9-2.1,9-4.9,9.6c-0.4,0.1-0.7,0.7-0.7,1.4v10.8
		c0,0.6-0.5,0.9-0.7,0.4l-4.9-11.9c-0.2-0.4-0.4-0.6-0.7-0.6h-41.7c-3.1,0-5.6-4.4-5.6-9.7v-19.8
		C106.8,197.1,109.3,192.8,112.4,192.8z"/>
	<g>
		<g>
			<path class="st35" d="M126.7,223.5c-2.4,0-4.3-0.6-5.6-1.9c-1.4-1.3-2.1-3-2.1-5.2c0-0.6,0.4-1,1-1h3.6c0.6,0,1,0.4,1,1
				c0,0.8,0.2,1.4,0.5,1.8c0.3,0.4,0.9,0.5,1.6,0.5s1.2-0.2,1.5-0.6c0.4-0.4,0.6-1.1,0.6-2v-14.4c0-0.6,0.4-1,1-1h3.6
				c0.6,0,1,0.4,1,1v14.4c0,2.2-0.7,4.1-2.2,5.4C130.9,222.8,129,223.5,126.7,223.5z"/>
			<path class="st11" d="M133.4,201.7v14.4c0,2-0.6,3.5-1.8,4.7s-2.8,1.7-4.9,1.7c-2.1,0-3.8-0.5-5-1.6s-1.7-2.6-1.7-4.5h3.6
				c0,1.1,0.3,1.9,0.8,2.5c0.5,0.5,1.3,0.8,2.3,0.8s1.7-0.3,2.3-1c0.6-0.6,0.9-1.5,0.9-2.6v-14.4L133.4,201.7 M133.4,199.7h-3.5
				c-1.1,0-2,0.9-2,2v14.4c0,0.6-0.1,1-0.3,1.3c-0.1,0.1-0.3,0.3-0.8,0.3c-0.3,0-0.7,0-0.9-0.2c-0.1-0.2-0.2-0.5-0.2-1.1
				c0-1.1-0.9-2-2-2h-3.6c-1.1,0-2,0.9-2,2c0,2.5,0.8,4.5,2.4,6c1.5,1.4,3.7,2.2,6.3,2.2c2.5,0,4.6-0.8,6.2-2.3s2.5-3.6,2.5-6.1
				v-14.4C135.4,200.6,134.5,199.7,133.4,199.7L133.4,199.7z"/>
		</g>
		<g>
			<path class="st35" d="M144.5,223.5c-1.6,0-3.1-0.3-4.5-0.9c-1.4-0.6-2.5-1.5-3.3-2.6s-1.2-2.5-1.2-4c0-0.6,0.4-1,1-1h3.6
				c0.6,0,1,0.4,1,1c0,0.9,0.3,1.5,0.8,1.9c0.6,0.5,1.5,0.7,2.7,0.7c1,0,1.7-0.2,2.2-0.5c0.4-0.3,0.6-0.7,0.6-1.2
				c0-0.8-0.3-1.1-0.6-1.3c-0.4-0.3-1.2-0.7-3.1-1.3c-1.8-0.5-3.1-1.1-4.2-1.8c-2.2-1.4-3.3-3.2-3.3-5.4c0-2,0.8-3.6,2.4-4.9
				c1.5-1.2,3.5-1.8,5.9-1.8c1.6,0,3,0.3,4.2,0.9c1.3,0.6,2.3,1.5,3,2.6s1.1,2.4,1.1,3.8c0,0.6-0.4,1-1,1h-3.6c-0.6,0-1-0.4-1-1
				c0-0.8-0.2-1.4-0.7-1.8c-0.5-0.4-1.2-0.7-2.2-0.7c-0.9,0-1.6,0.2-2.1,0.5c-0.4,0.3-0.6,0.7-0.6,1.3c0,0.3,0.1,0.7,0.6,1.1
				c0.4,0.3,1.3,0.8,3.1,1.3c1.7,0.5,3.1,1.1,4.1,1.7c1.1,0.7,1.9,1.5,2.5,2.4c0.5,0.9,0.8,2,0.8,3.3c0,2-0.8,3.7-2.4,4.9
				C149,222.9,147,223.5,144.5,223.5z"/>
			<path class="st11" d="M144.4,201.4c1.4,0,2.7,0.3,3.8,0.8s2,1.3,2.6,2.3s1,2.1,1,3.2h-3.6c0-1.1-0.3-1.9-1-2.5s-1.6-0.9-2.9-0.9
				c-1.2,0-2.1,0.2-2.7,0.7c-0.6,0.5-1,1.2-1,2.1c0,0.8,0.3,1.4,1,1.9s1.8,1,3.4,1.5c1.6,0.5,2.9,1,3.9,1.6s1.7,1.3,2.1,2.1
				c0.5,0.8,0.7,1.7,0.7,2.8c0,1.7-0.7,3.1-2,4.1s-3.1,1.5-5.3,1.5c-1.5,0-2.9-0.3-4.1-0.8c-1.2-0.6-2.2-1.3-2.9-2.3s-1-2.1-1-3.4
				h3.6c0,1.2,0.4,2.1,1.2,2.7c0.8,0.6,1.9,1,3.3,1c1.2,0,2.2-0.3,2.8-0.8s0.9-1.2,0.9-2c0-0.9-0.3-1.6-1-2.1
				c-0.6-0.5-1.8-1-3.4-1.5c-1.7-0.5-3-1.1-3.9-1.7c-1.9-1.2-2.8-2.7-2.8-4.6c0-1.7,0.7-3,2-4.1
				C140.5,201.9,142.2,201.4,144.4,201.4 M144.4,199.4c-2.6,0-4.8,0.7-6.5,2c-1.8,1.4-2.8,3.4-2.8,5.7c0,1.8,0.6,4.3,3.7,6.3
				c0.3,0.2,0.7,0.4,1.1,0.6h-3.5c-1.1,0-2,0.9-2,2c0,1.7,0.5,3.2,1.4,4.5s2.2,2.3,3.7,2.9c1.5,0.7,3.1,1,4.9,1
				c2.7,0,4.9-0.6,6.6-1.9c1.8-1.4,2.7-3.3,2.7-5.7c0-1.4-0.3-2.7-0.9-3.8c-0.6-1.1-1.6-2-2.8-2.8c-0.4-0.2-0.8-0.5-1.3-0.7h3
				c1.1,0,2-0.9,2-2c0-1.6-0.4-3-1.3-4.3c-0.8-1.3-2-2.3-3.5-3C147.7,199.7,146.1,199.4,144.4,199.4L144.4,199.4z M146.6,208.8
				c-0.3-0.1-0.6-0.2-0.9-0.3c-1.8-0.5-2.6-1-2.8-1.2s-0.2-0.2-0.2-0.3c0-0.4,0.1-0.4,0.2-0.5c0.3-0.2,0.8-0.3,1.5-0.3
				c0.5,0,1.2,0.1,1.5,0.4c0.1,0.1,0.3,0.3,0.3,1C146.3,208.1,146.4,208.5,146.6,208.8L146.6,208.8z M144.5,217.7
				c-0.9,0-1.6-0.2-2-0.5c-0.2-0.2-0.4-0.5-0.4-1.2c0-0.5-0.2-1-0.5-1.3c0.5,0.2,1.1,0.4,1.7,0.6c1.9,0.6,2.6,1,2.8,1.2
				c0.1,0.1,0.2,0.1,0.2,0.5c0,0.2-0.1,0.3-0.2,0.4C146,217.4,145.6,217.7,144.5,217.7L144.5,217.7z"/>
		</g>
	</g>
</g>
<g>
	<path class="st21" d="M546.6,267.8l-47.1-8.9c-3-0.6-6.3,3.2-7.3,8.5l-3.7,19.4c-0.9,4.9,0.4,9.3,3,10.4c0.4,0.2,0.6,0.8,0.4,1.5
		l-2,10.6c-0.1,0.6,0.3,1,0.6,0.5l7-10.8c0.2-0.3,0.5-0.5,0.8-0.5l41,7.8c3,0.6,6.3-3.2,7.3-8.5l3.7-19.4
		C551.3,273.1,549.7,268.3,546.6,267.8z"/>
	<g>
		<path class="st32" d="M520.9,272.7c-1.3-1.6-3.5-2.6-6.7-3.2s-5.5-0.8-7.2-0.9l-4.3,22.9l5.2,1l1.6-8.3c0.4,0.2,1,0.3,1.7,0.5
			c3.2,0.6,5.9,0.3,8-1.1c1.7-1,2.7-2.8,3.2-5.1C522.8,276.3,522.3,274.2,520.9,272.7z M512,280.6c-0.8-0.2-1.3-0.2-1.8-0.5l1.3-6.9
			c0.4-0.1,1.1,0,2.2,0.2c2.6,0.5,3.8,1.9,3.5,4.2C516.7,280.1,514.8,281.2,512,280.6z"/>
		<path class="st32" d="M529.6,286c-2-1.1-2.5-1.6-2.4-2.4c0.2-1,1-1.3,2.3-1c1.4,0.3,2.8,1.2,3.5,1.6l1.6-3.5
			c-1-0.7-2.5-1.5-4.5-1.8c-4.1-0.8-7.3,1.1-7.9,4.2c-0.5,2,0.6,4.2,3.8,6c1.9,1,2.3,1.5,2.1,2.4c-0.2,0.8-1,1.3-2.5,1
			s-3.4-1.4-4.3-2l-1.7,3.6c1.2,1,3,1.8,5.2,2.2c4.8,0.9,7.8-0.9,8.4-4.1C533.5,289.6,532.6,287.7,529.6,286z"/>
	</g>
</g>
<g>
	<path class="st21" d="M480.8,197.9l-47.6,6.4c-3,0.4-4.9,5.1-4.2,10.4l2.6,19.6c0.7,4.9,3.3,8.7,6.1,8.9c0.4,0,0.8,0.6,0.9,1.3
		l1.4,10.7c0.1,0.6,0.6,0.8,0.7,0.3L444,243c0.1-0.4,0.3-0.6,0.6-0.7l41.4-5.6c3-0.4,4.9-5.1,4.2-10.4l-2.6-19.6
		C486.9,201.5,483.9,197.5,480.8,197.9z"/>
	<g>
		<path class="st32" d="M470.6,211.8c1.9-0.3,2.8-1.7,2.5-3.2c-0.2-1.7-1.5-2.6-3.3-2.4c-1.8,0.2-2.7,1.5-2.5,3.2
			C467.5,210.9,468.8,212,470.6,211.8z"/>
		<path class="st32" d="M450.6,209.9l-4.1,25.4l5.7-0.8l0.9-6.5l6.9-0.9l2.7,6l5.9-0.8l-10.8-23.4L450.6,209.9z M453.2,223.8
			c0,0,1.1-8.7,1.3-10.3c0.4,1.4,4,9.6,4.1,9.5L453.2,223.8z"/>
		
			<rect x="469.4" y="214" transform="matrix(0.9911 -0.1332 0.1332 0.9911 -25.4762 64.8778)" class="st32" width="5.5" height="17.8"/>
	</g>
</g>
<g>
	<path class="st18" d="M285.5,424.7c-0.1-0.6-0.1-1.2,0.1-1.8c0.5-2,1.1-5.8-0.2-10c-2.2-6.9-11.1-13-11.1-13s2.4,10.1,4.4,14.5
		c1.5,3.2,4,6.8,5.4,8.6c0.4,0.5,0.7,1.1,0.8,1.8c1.4,8,1.2,14.1,1.2,14.2h0.7C286.6,439,287,432.7,285.5,424.7z"/>
	<path class="st21" d="M292.5,418.2c1.8-5.6,2.6-12.2,2.6-12.2s-8,6.6-8.6,11.7c-0.4,3.1,0.1,5.6,0.5,7.1c0.2,0.6,0.3,1.3,0.2,1.9
		c-0.8,7.5-0.2,13.3-0.2,13.4l0.6-0.1c0-0.1-0.6-5.4,0.1-12.5c0.1-1,0.5-1.9,1.1-2.6C290,423.5,291.6,421.1,292.5,418.2z"/>
	<path class="st18" d="M300.6,405.8c0,0-8.6,3.2-10.9,10.2c-1.4,4.3-0.7,8.2-0.2,10.3c0.2,0.6,0.1,1.2,0,1.8c-2,8.1-2,16.5-2,16.6
		h0.7c0-0.1,0-8.3,2-16.2c0.2-0.8,0.5-1.5,1-2.2c1.5-2,4-5.5,5.4-8.7C298.8,413.1,300.6,405.8,300.6,405.8z"/>
	<path class="st21" d="M285.5,435.4c-0.2-2.9-1-5.6-2-7.8c-0.2-0.4-0.3-0.9-0.2-1.4c0.1-0.9,0.2-2.4-0.2-4.2
		c-0.7-3.5-5.3-10.9-11.9-11.3c0,0,2.3,3.7,3.5,6.8c1.5,3.9,3.6,8,7.1,9.5c0.6,0.3,1.1,0.8,1.4,1.4c0.9,2.1,1.5,4.5,1.7,7.1
		L285.5,435.4z"/>
	<g>
		<g>
			<path class="st18" d="M281,450.5h10.9l2.8-17.4c0.1-0.8-0.5-1.5-1.2-1.5h-14.1c-0.8,0-1.4,0.7-1.2,1.5L281,450.5z"/>
		</g>
	</g>
</g>
</svg>
