<svg width="140" height="33" viewBox="0 0 140 33" fill="none" xmlns="http://www.w3.org/2000/svg">
<path d="M17.6311 25.8012C17.6311 26.4799 17.2635 26.8193 16.5281 26.8193C16.0474 26.8193 15.708 26.5648 15.5666 26.084L13.6717 20.4559H6.68597L4.81935 26.084C4.64966 26.5648 4.33856 26.8193 3.85776 26.8193C3.12243 26.8193 2.75476 26.4799 2.75476 25.8012C2.75476 25.688 2.78304 25.5466 2.83961 25.4052L9.14652 6.48452C9.34449 5.8906 9.71216 5.5795 10.2212 5.5795C10.7303 5.5795 11.0697 5.86232 11.296 6.48452L17.6029 25.4052C17.6029 25.5466 17.6311 25.6598 17.6311 25.8012ZM12.9646 18.3347L10.193 9.9915L7.42131 18.3347H12.9646Z" fill="#233741"/>
<path d="M45.4042 25.7446C45.4042 26.4516 45.0365 26.8193 44.3294 26.8193C43.6224 26.8193 43.2547 26.4516 43.2547 25.7446V18.3347C43.2547 17.1751 42.8305 16.157 42.0103 15.3368C41.1901 14.5166 40.172 14.0924 39.0124 14.0924C37.8529 14.0924 36.8347 14.5166 36.0145 15.3368C35.1943 16.157 34.7701 17.1751 34.7701 18.3347V25.7729C34.7701 26.4799 34.4024 26.8476 33.6954 26.8476C32.9883 26.8476 32.6207 26.4799 32.6207 25.7729V13.046C32.6207 12.3389 32.9883 11.9713 33.6954 11.9713C34.4024 11.9713 34.7701 12.5086 34.7701 13.6116C35.9862 12.5369 37.4003 11.9713 39.0124 11.9713C40.7659 11.9713 42.2649 12.5935 43.5093 13.8379C44.7537 15.0823 45.3759 16.5812 45.3759 18.3347V25.7446H45.4042Z" fill="#233741"/>
<path d="M73.9125 25.7446C73.9125 26.4516 73.5448 26.8193 72.8378 26.8193C72.1307 26.8193 71.7631 26.4516 71.7631 25.7446V18.3347C71.7631 17.1751 71.3388 16.157 70.5187 15.3368C69.6985 14.5166 68.6803 14.0924 67.5208 14.0924C66.3612 14.0924 65.3431 14.5166 64.5229 15.3368C63.7027 16.157 63.2785 17.1751 63.2785 18.3347V25.7729C63.2785 26.4799 62.9108 26.8476 62.2037 26.8476C61.4967 26.8476 61.129 26.4799 61.129 25.7729V13.046C61.129 12.3389 61.4967 11.9713 62.2037 11.9713C62.9108 11.9713 63.2785 12.5086 63.2785 13.6116C64.4946 12.5369 65.9087 11.9713 67.5208 11.9713C69.2743 11.9713 70.7732 12.5935 72.0176 13.8379C73.262 15.0823 73.8842 16.5812 73.8842 18.3347V25.7446H73.9125Z" fill="#233741"/>
<path d="M98.9705 25.7729C98.9705 26.4799 98.6028 26.8476 97.8958 26.8476H93.6535C92.9464 26.8476 92.5787 26.4799 92.5787 25.7729V14.0924H89.3829C88.6758 14.0924 88.3082 13.7247 88.3082 13.0177C88.3082 12.3106 88.6758 11.943 89.3829 11.943H93.6252C94.3322 11.943 94.6716 12.3106 94.6716 13.0177V24.6982H97.8675C98.6311 24.6982 98.9705 25.0658 98.9705 25.7729ZM95.2938 7.21986C95.2938 7.67238 95.1241 8.04004 94.813 8.35115C94.5019 8.66225 94.106 8.80366 93.6817 8.80366C93.2292 8.80366 92.8616 8.66225 92.5505 8.35115C92.2394 8.04004 92.0697 7.67238 92.0697 7.21986C92.0697 6.76735 92.2394 6.39969 92.5505 6.08858C92.8616 5.77748 93.2575 5.60779 93.6817 5.60779C94.1343 5.60779 94.5019 5.77748 94.813 6.08858C95.1241 6.3714 95.2938 6.76735 95.2938 7.21986Z" fill="#233741"/>
<path d="M116.279 27.5829C116.279 27.5829 126.432 23.7365 132.767 27.5829L135.454 25.3203L134.125 15.6479L131.042 11.547H116.279L114.384 17.5145C114.384 17.4862 113.253 26.6496 116.279 27.5829Z" fill="#233741"/>
<path d="M133.701 19.0983C133.701 24.6699 129.685 28.1203 124.735 28.1203C119.786 28.1203 115.77 24.6699 115.77 19.0983C115.77 13.5267 119.786 7.89862 124.735 7.89862C129.685 7.89862 133.701 13.4985 133.701 19.0983Z" fill="white"/>
<path d="M124.735 28.5162C119.22 28.5162 115.346 24.6416 115.346 19.07C115.346 13.5833 119.362 7.44611 124.735 7.44611C130.109 7.44611 134.125 13.5833 134.125 19.07C134.125 24.6416 130.25 28.5162 124.735 28.5162ZM124.735 8.29457C119.843 8.29457 116.194 13.9793 116.194 19.07C116.194 24.1325 119.701 27.6678 124.735 27.6678C129.77 27.6678 133.277 24.1325 133.277 19.07C133.277 14.0075 129.628 8.29457 124.735 8.29457Z" fill="#233741"/>
<path d="M119.814 18.6741C120.47 18.6741 121.002 18.1422 121.002 17.4862C121.002 16.8302 120.47 16.2984 119.814 16.2984C119.158 16.2984 118.627 16.8302 118.627 17.4862C118.627 18.1422 119.158 18.6741 119.814 18.6741Z" fill="#233741"/>
<path d="M129.883 18.6741C130.539 18.6741 131.071 18.1422 131.071 17.4862C131.071 16.8302 130.539 16.2984 129.883 16.2984C129.227 16.2984 128.695 16.8302 128.695 17.4862C128.695 18.1422 129.227 18.6741 129.883 18.6741Z" fill="#233741"/>
<path d="M121.596 21.6437C121.596 23.2841 123.01 24.6133 124.735 24.6133C126.461 24.6133 127.875 23.2841 127.875 21.6437H121.596Z" fill="#233741"/>
<path d="M124.509 3.68459C110.453 3.14724 111.81 21.474 111.81 21.474C111.924 28.2334 116.251 27.6112 116.251 27.6112C113.423 23.0012 117.269 14.7712 117.269 14.7712C117.269 14.7712 127.337 14.7712 132.23 14.7712C132.23 14.7712 135.624 23.0012 132.767 27.6112C132.767 27.6112 137.095 28.2617 137.208 21.474C137.208 21.474 138.594 3.14724 124.509 3.68459Z" fill="#233741"/>
</svg>
