<?xml version="1.0" encoding="utf-8"?>
<!-- Generator: Adobe Illustrator 16.0.0, SVG Export Plug-In . SVG Version: 6.00 Build 0)  -->
<!DOCTYPE svg PUBLIC "-//W3C//DTD SVG 1.1//EN" "http://www.w3.org/Graphics/SVG/1.1/DTD/svg11.dtd">
<svg version="1.1" id="レイヤー_1" xmlns="http://www.w3.org/2000/svg" xmlns:xlink="http://www.w3.org/1999/xlink" x="0px"
	 y="0px" width="40px" height="40px" viewBox="100.47 72.125 40 40" enable-background="new 100.47 72.125 40 40"
	 xml:space="preserve">
<circle fill="#FFFFFF" cx="120.47" cy="92.125" r="20"/>
<path fill="#233741" d="M120.47,73.458c10.267,0,18.667,8.4,18.667,18.667s-8.4,18.667-18.667,18.667s-18.667-8.4-18.667-18.667
	S110.204,73.458,120.47,73.458 M120.47,72.125c-11.066,0-20,8.934-20,20s8.934,20,20,20s20-8.934,20-20
	S131.537,72.125,120.47,72.125L120.47,72.125z"/>
<path fill="#233741" d="M107.137,91.805c0-5.806,5.97-10.513,13.333-10.513s13.333,4.707,13.333,10.513s-5.97,10.513-13.333,10.513
	c-0.808,0-1.599-0.057-2.368-0.166c-0.769,0.543-5.214,3.665-5.633,3.724c0,0-0.173,0.066-0.319-0.02s-0.119-0.312-0.119-0.312
	c0.044-0.301,1.152-4.128,1.356-4.832C109.633,98.852,107.137,95.558,107.137,91.805z"/>
<path fill="#FFFFFF" d="M113.099,95.475c-0.425,0-0.77-0.329-0.77-0.735V90.17h-1.2c-0.417,0-0.755-0.338-0.755-0.753
	s0.338-0.754,0.755-0.754h3.938c0.417,0,0.756,0.339,0.756,0.754s-0.339,0.753-0.756,0.753h-1.2v4.569
	C113.868,95.146,113.523,95.475,113.099,95.475z M119.843,95.465c-0.32,0-0.566-0.13-0.64-0.34l-0.381-0.998h-2.345l-0.382,0.998
	c-0.074,0.21-0.319,0.34-0.64,0.34c-0.169,0-0.336-0.036-0.489-0.106c-0.212-0.098-0.416-0.367-0.183-1.093l1.841-4.843
	c0.129-0.368,0.522-0.748,1.024-0.76c0.502,0.012,0.896,0.392,1.025,0.76l1.839,4.842c0.234,0.727,0.031,0.997-0.182,1.094
	C120.179,95.429,120.013,95.465,119.843,95.465z M118.417,92.765l-0.768-2.183l-0.769,2.183H118.417z M121.752,95.362
	c-0.406,0-0.737-0.316-0.737-0.705v-5.225c0-0.425,0.352-0.77,0.785-0.77c0.433,0,0.786,0.345,0.786,0.77v4.52h1.634
	c0.407,0,0.737,0.316,0.737,0.705s-0.33,0.705-0.737,0.705H121.752z M126.025,95.465c-0.423,0-0.768-0.345-0.768-0.77v-5.263
	c0-0.425,0.345-0.77,0.768-0.77c0.425,0,0.771,0.345,0.771,0.77v1.654l2.146-2.147c0.109-0.11,0.262-0.171,0.427-0.171
	c0.191,0,0.384,0.083,0.528,0.228c0.136,0.134,0.215,0.309,0.227,0.487c0.012,0.182-0.049,0.349-0.169,0.469l-1.753,1.753
	l1.893,2.508c0.062,0.08,0.105,0.173,0.132,0.271c0.024,0.098,0.031,0.199,0.017,0.3c-0.015,0.1-0.048,0.196-0.1,0.283
	c-0.051,0.088-0.119,0.163-0.2,0.225c-0.132,0.101-0.295,0.154-0.462,0.154c-0.119,0.001-0.236-0.026-0.344-0.08
	c-0.107-0.053-0.2-0.13-0.271-0.226l-1.805-2.39l-0.267,0.267v1.679c0,0.203-0.082,0.399-0.225,0.543
	C126.425,95.384,126.23,95.464,126.025,95.465z"/>
</svg>
