<svg width="590" height="400" viewBox="0 0 590 400" fill="none" xmlns="http://www.w3.org/2000/svg">
<mask id="mask0" mask-type="alpha" maskUnits="userSpaceOnUse" x="0" y="0" width="590" height="400">
<rect x="590" y="400" width="590" height="400" transform="rotate(-180 590 400)" fill="#FDF3F1"/>
</mask>
<g mask="url(#mask0)">
<g opacity="0.2">
<path d="M648.8 283.226H635.787V276.719H648.8V283.226ZM622.773 283.226H609.759V276.719H622.773V283.226ZM596.094 283.226H583.08V276.719H596.094V283.226ZM570.066 283.226H557.052V276.719H570.066V283.226ZM544.038 283.226H531.025V276.719H544.038V283.226ZM517.36 283.226H504.346V276.719H517.36V283.226ZM491.332 283.226H478.318V276.719H491.332V283.226ZM464.654 283.226H451.64V276.719H464.654V283.226ZM438.626 283.226H425.612V276.719H438.626V283.226ZM411.947 283.226H398.933V276.719H411.947V283.226ZM385.919 283.226H372.906V276.719H385.919V283.226ZM359.241 283.226H346.227V276.719H359.241V283.226ZM333.213 283.226H320.199V276.719H333.213V283.226Z" fill="#DEDEDE"/>
<path d="M306.535 283.226H296.774V273.465H303.281V276.719H306.535V283.226Z" fill="#DEDEDE"/>
<path d="M303.281 259.801H296.774V246.787H303.281V259.801ZM303.281 233.773H296.774V220.759H303.281V233.773ZM303.281 207.094H296.774V194.08H303.281V207.094ZM303.281 181.066H296.774V168.053H303.281V181.066ZM303.281 155.039H296.774V142.025H303.281V155.039ZM303.281 128.36H296.774V115.346H303.281V128.36ZM303.281 102.332H296.774V89.3184H303.281V102.332ZM303.281 75.6538H296.774V62.6399H303.281V75.6538ZM303.281 49.626H296.774V36.612H303.281V49.626ZM303.281 22.9474H296.774V9.93354H303.281V22.9474ZM303.281 -3.08038H296.774V-16.0943H303.281V-3.08038ZM303.281 -29.7589H296.774V-42.7728H303.281V-29.7589ZM303.281 -55.7867H296.774V-68.8006H303.281V-55.7867Z" fill="#DEDEDE"/>
<path d="M323.453 256.547H277.253V302.747H323.453V256.547Z" fill="#DEDEDE"/>
<path d="M323.453 72.4003H277.253V118.6H323.453V72.4003Z" fill="#DEDEDE"/>
<path d="M507.6 256.547H461.4V302.747H507.6V256.547Z" fill="#DEDEDE"/>
<path d="M488.73 139.422H415.201L386.57 219.457H414.55V226.615H357.94V219.457H375.509L470.51 -35.6152H501.093L594.793 219.457H611.711V226.615H489.38V219.457H516.059L488.73 139.422ZM418.455 130.963H485.476L452.941 33.3585L418.455 130.963Z" fill="#DEDEDE"/>
</g>
</g>
</svg>
