<?xml version="1.0" encoding="utf-8"?>
<!-- Generator: Adobe Illustrator 16.0.0, SVG Export Plug-In . SVG Version: 6.00 Build 0)  -->
<!DOCTYPE svg PUBLIC "-//W3C//DTD SVG 1.1//EN" "http://www.w3.org/Graphics/SVG/1.1/DTD/svg11.dtd">
<svg version="1.1" id="レイヤー_1" xmlns="http://www.w3.org/2000/svg" xmlns:xlink="http://www.w3.org/1999/xlink" x="0px"
	 y="0px" width="40px" height="40px" viewBox="0 0 40 40" enable-background="new 0 0 40 40" xml:space="preserve">
<g>
	<path fill="#AAAAAA" d="M20,0C8.972,0,0,8.972,0,20c0,11.027,8.972,20,20,20c11.027,0,20-8.973,20-20C40,8.972,31.027,0,20,0z
		 M20,36.826c-9.278,0-16.827-7.549-16.827-16.826c0-9.278,7.548-16.826,16.827-16.826c9.277,0,16.825,7.548,16.825,16.826
		C36.825,29.277,29.277,36.826,20,36.826z"/>
	<path fill="#AAAAAA" d="M18.976,12.275l-9.572,9.59c-0.565,0.565-0.565,1.487,0,2.051c0.548,0.552,1.502,0.552,2.049,0L20,15.355
		l8.546,8.561c0.272,0.277,0.637,0.428,1.024,0.428s0.751-0.15,1.025-0.428c0.274-0.271,0.424-0.636,0.424-1.024
		c0-0.388-0.149-0.753-0.424-1.026l-9.572-9.591C20.479,11.729,19.519,11.73,18.976,12.275z"/>
</g>
</svg>
