<svg width="590" height="400" viewBox="0 0 590 400" fill="none" xmlns="http://www.w3.org/2000/svg">
<mask id="mask0" mask-type="alpha" maskUnits="userSpaceOnUse" x="0" y="0" width="590" height="400">
<rect width="590" height="400" fill="#FDF3F1"/>
</mask>
<g mask="url(#mask0)">
<g opacity="0.3">
<path fill-rule="evenodd" clip-rule="evenodd" d="M208.867 168.172C220.902 176.989 231.384 187.34 240.701 198.841L280.687 191.557L307.474 253.279L274.088 277.048C276.029 291.232 276.417 306.183 274.476 320.751L308.251 343.753L283.017 406.241L242.254 399.724C233.325 411.609 222.843 421.959 211.197 431.16L218.961 471.03L156.458 497.482L132.389 464.513C118.025 466.43 102.884 466.813 88.1322 464.896L64.8392 498.249L1.17183 473.33L7.7715 433.077C-4.26319 424.26 -14.745 413.909 -24.0622 402.408L-64.4367 410.075L-90.8354 348.353L-57.4488 324.585C-59.7781 310.017 -60.1663 295.449 -58.2252 280.498L-92 257.496L-66.766 195.008L-26.0033 201.525C-17.0743 189.64 -6.59249 179.29 5.05399 170.089L-2.32211 130.219L60.1806 103.767L84.25 136.736C98.614 134.819 113.754 134.436 128.507 136.353L151.8 103L215.079 127.919L208.867 168.172ZM138.212 234.877C100.943 219.926 58.2396 237.944 43.0992 274.747C27.9587 311.55 46.2049 353.721 83.4736 368.672C120.742 383.623 163.446 365.605 178.587 328.802C193.727 291.999 175.869 249.829 138.212 234.877Z" fill="#DEDEDE"/>
</g>
<path fill-rule="evenodd" clip-rule="evenodd" d="M422.339 -84.0223C428.353 -79.5606 433.591 -74.323 438.246 -68.5034L458.227 -72.1891L471.612 -40.9573L454.929 -28.9302C455.899 -21.7527 456.093 -14.1872 455.123 -6.81571L472 4.82348L459.391 36.4433L439.022 33.1455C434.561 39.1591 429.323 44.3967 423.503 49.0524L427.383 69.227L396.151 82.612L384.124 65.9292C376.947 66.8991 369.381 67.0931 362.01 66.1232L350.371 83L318.557 70.3909L321.855 50.0223C315.841 45.5606 310.603 40.323 305.948 34.5034L285.773 38.3831L272.582 7.15131L289.265 -4.87585C288.101 -12.2473 287.907 -19.6188 288.877 -27.1843L272 -38.8235L284.609 -70.4433L304.978 -67.1455C309.439 -73.1591 314.677 -78.3967 320.497 -83.0524L316.811 -103.227L348.043 -116.612L360.07 -99.9292C367.247 -100.899 374.813 -101.093 382.184 -100.123L393.823 -117L425.443 -104.391L422.339 -84.0223ZM387.034 -50.2687C368.411 -57.8341 347.073 -48.7168 339.507 -30.0941C331.942 -11.4714 341.059 9.86713 359.682 17.4326C378.305 24.9981 399.643 15.8807 407.209 -2.74199C414.774 -21.3647 405.851 -42.7032 387.034 -50.2687Z" fill="#F3C4BB" fill-opacity="0.2"/>
</g>
</svg>
