<svg width="90" height="106" viewBox="0 0 90 106" fill="none" xmlns="http://www.w3.org/2000/svg">
<g clip-path="url(#clip0)">
<path d="M19.6219 99.7717C19.6219 99.7717 53.383 86.8648 75.4288 99.9093L85.5003 92.3246L80.8406 59.3908L70.164 45.428H18.8176L12.2478 65.7095C12.2478 65.7095 9.10909 96.6133 19.6219 99.7717Z" fill="#243842"/>
<path d="M81.6988 69.2418C81.6988 89.6609 67.7401 105.293 48.1666 105.293C28.5913 105.293 10.7734 89.2148 16.7567 69.688C21.4258 54.4536 29.2298 32.2666 48.8033 32.2666C68.3768 32.2647 81.6988 48.8209 81.6988 69.2418Z" fill="white"/>
<path d="M48.1797 105.845C37.14 105.845 26.5044 100.692 20.4223 92.3936C15.4554 85.6157 14.0704 77.4288 16.524 69.3403C19.0708 60.9377 22.0811 52.1763 26.8209 45.0118C32.6553 36.189 40.0498 31.7163 48.7996 31.7163C58.1973 31.7163 66.7237 35.6406 72.8113 42.768C78.7034 49.6667 81.9502 59.0676 81.9502 69.2362C81.9502 79.31 78.5843 88.5604 72.4762 95.2787C66.2806 102.09 57.6499 105.845 48.1797 105.845ZM48.7903 34.0029C41.1798 34.0029 34.9712 38.0183 29.8088 46.2796C25.4861 53.1987 22.7085 61.7705 20.3497 70.0058C18.2368 77.386 19.4282 84.8517 23.7063 91.0328C29.0549 98.7569 38.4432 103.557 48.2039 103.557C65.4466 103.557 77.9644 89.1199 77.9644 69.2325C77.9644 49.148 65.4224 34.0029 48.7903 34.0029Z" fill="#243842"/>
<path d="M64.499 78.3226C67.6421 78.3226 70.1901 75.7783 70.1901 72.6397C70.1901 69.5011 67.6421 66.9568 64.499 66.9568C61.3559 66.9568 58.8079 69.5011 58.8079 72.6397C58.8079 75.7783 61.3559 78.3226 64.499 78.3226Z" fill="#243842"/>
<path d="M65.2102 76.7444C66.519 76.7444 67.58 75.6848 67.58 74.3779C67.58 73.0709 66.519 72.0114 65.2102 72.0114C63.9013 72.0114 62.8403 73.0709 62.8403 74.3779C62.8403 75.6848 63.9013 76.7444 65.2102 76.7444Z" fill="white"/>
<path d="M28.6192 88.1066C31.2452 88.1066 33.3739 86.7883 33.3739 85.162C33.3739 83.5358 31.2452 82.2174 28.6192 82.2174C25.9933 82.2174 23.8645 83.5358 23.8645 85.162C23.8645 86.7883 25.9933 88.1066 28.6192 88.1066Z" fill="#F3C4BB"/>
<path d="M66.9918 88.1066C69.6177 88.1066 71.7465 86.7883 71.7465 85.162C71.7465 83.5358 69.6177 82.2174 66.9918 82.2174C64.3659 82.2174 62.2371 83.5358 62.2371 85.162C62.2371 86.7883 64.3659 88.1066 66.9918 88.1066Z" fill="#F3C4BB"/>
<path d="M86.2897 49.5867C83.8267 40.7063 79.8483 32.22 72.8001 26.4646C67.1965 21.8877 60.0626 19.445 52.8711 18.6215C44.9069 17.7106 36.6355 18.7349 29.4179 22.2131C18.9665 27.2509 12.5438 36.6909 9.1947 47.5064C5.15304 60.5621 3.29511 74.7257 6.70939 88.1402C7.51176 91.2856 8.64923 94.457 10.8479 96.8514C13.0446 99.2458 16.5092 100.709 19.6237 99.7719C15.7719 91.5031 15.0906 81.8085 17.749 73.0842C18.9293 69.212 20.8989 65.3546 24.3095 63.1684C27.9025 60.867 32.4375 60.7982 36.7044 60.8038C44.1082 60.8149 51.512 60.8242 58.9159 60.8335C64.4878 60.841 70.7504 61.1328 74.5259 65.2282C76.6444 67.5259 77.5808 70.6676 78.1431 73.7405C79.7422 82.4851 78.7891 91.6797 75.4288 99.9113C79.2303 100.469 83.0616 98.3256 85.3812 95.2675C87.699 92.2076 88.734 88.3688 89.3167 84.5765C90.7242 75.4266 89.7952 66.0591 88.0154 56.9724C87.5333 54.5111 86.9692 52.0331 86.2897 49.5867Z" fill="#243842"/>
<path d="M58.6869 19.8818C58.6869 19.8818 63.2982 15.0521 66.9936 18.2608C66.9936 18.2608 60.6323 19.6959 63.7748 22.9844" fill="#243842"/>
<path d="M60.5225 20.2945C60.5225 20.2945 58.054 14.0947 53.424 15.6916C53.424 15.6916 58.7875 19.3966 54.6416 21.2741" fill="#243842"/>
<path d="M62.8384 71.3665C63.554 71.3665 64.1341 70.7872 64.1341 70.0727C64.1341 69.3581 63.554 68.7788 62.8384 68.7788C62.1228 68.7788 61.5427 69.3581 61.5427 70.0727C61.5427 70.7872 62.1228 71.3665 62.8384 71.3665Z" fill="white"/>
<path d="M41.3884 86.5618C41.3884 89.9116 44.1083 92.6276 47.463 92.6276C50.8177 92.6276 53.5375 89.9116 53.5375 86.5618H41.3884Z" fill="#243842"/>
<path d="M6.37618 58.9447C6.37618 58.9447 5.67992 88.642 0 90.2073C0 90.2073 8.1131 87.9059 10.5482 81.1299" fill="#243842"/>
<path d="M27.156 78.6518C26.7074 78.6518 26.2773 78.3915 26.0819 77.9565C25.8156 77.3654 26.0819 76.6701 26.6739 76.4043L33.1692 73.4968L26.7558 71.1787C26.1452 70.9593 25.8287 70.2864 26.0502 69.6747C26.2699 69.065 26.9438 68.7471 27.5563 68.9683L36.7064 72.2736C37.1569 72.4353 37.4622 72.8555 37.4827 73.3332C37.4994 73.8129 37.2258 74.2534 36.7883 74.4505L27.6382 78.5477C27.4818 78.6183 27.3161 78.6518 27.156 78.6518Z" fill="#243842"/>
<path d="M32.8917 24.2822C32.8917 30.5488 37.343 35.6276 42.833 35.6276C44.6556 35.6276 46.3664 35.0661 47.8371 34.0865C49.306 35.0661 51.0168 35.6276 52.8413 35.6276C58.3313 35.6276 62.7807 30.5488 62.7807 24.2822C62.7807 18.0155 58.3313 12.9368 52.8413 12.9368C51.0187 12.9368 49.3078 13.4982 47.8371 14.4779C46.3664 13.4982 44.6574 12.9368 42.833 12.9368C37.343 12.9368 32.8917 18.0155 32.8917 24.2822Z" fill="#F3C4BB"/>
<path d="M50.933 10.6296C50.933 10.6296 50.8921 1.2566 64.8378 0.914551C63.892 4.67156 62.4176 9.53653 50.933 10.6296Z" fill="#79C8A4"/>
<path d="M52.8357 12.2301C52.2921 12.2301 51.7485 12.2784 51.2142 12.3695C51.2123 12.3695 51.2104 12.3695 51.2086 12.3695C51.0485 12.3974 50.8902 12.4309 50.732 12.4643C49.8123 12.4643 48.565 13.1968 47.8315 13.6374C42.1647 10.2261 35.4683 13.5184 33.1338 19.2794C30.9277 24.7206 32.5939 31.7104 37.7376 34.8856C40.8187 36.7873 44.7207 36.8152 47.8315 34.9451C52.8971 37.9919 59.0387 35.6979 61.8219 30.7679C64.4878 26.0517 63.9423 19.7162 60.2823 15.6674C58.3816 13.5686 55.6952 12.2301 52.8357 12.2301ZM52.8357 34.919C51.9681 34.919 51.1043 34.7759 50.2833 34.5026C49.8961 34.3743 49.5182 34.2182 49.1533 34.036C48.7866 33.8501 48.3491 33.43 47.9377 33.3947C47.273 33.3352 46.4837 34.0806 45.8749 34.3242C45.0186 34.6699 44.1008 34.8707 43.1774 34.9097C40.4352 35.0287 37.8642 33.6902 36.1422 31.5989C32.4356 27.1001 32.8117 19.7516 37.2313 15.8514C39.7929 13.5909 43.4529 12.9979 46.5414 14.5631C44.8231 15.9927 43.5665 17.9298 42.8609 20.0416C42.4737 21.2016 42.2503 22.4118 42.1926 23.6331C42.1721 24.0533 42.079 24.5868 42.47 24.8731C42.8758 25.1705 43.3989 24.9511 43.5758 24.5199C43.7545 24.0867 43.6409 23.3468 43.6931 22.8821C43.7582 22.3263 43.8588 21.7741 44.0021 21.2313C44.2739 20.194 44.6891 19.1901 45.242 18.2699C46.2342 16.6136 47.7087 15.1636 49.4959 14.3884C50.207 14.05 51.0001 13.8363 51.7782 13.7359H51.7801C57.4247 12.9309 61.6469 18.2179 62.0267 23.3933C62.4232 28.8085 58.7837 34.919 52.8357 34.919Z" fill="#243842"/>
<path d="M42.8349 36.6107C41.0216 36.6107 39.2084 36.1125 37.598 35.118C32.5883 32.0228 30.5163 25.0218 32.8843 19.179C34.1651 16.0225 36.7696 13.524 39.8581 12.4978C42.55 11.6018 45.3742 11.8955 47.8334 13.3232C48.5204 12.9124 49.7491 12.2097 50.7041 12.1948C50.8456 12.1632 50.9871 12.1353 51.1304 12.1093L51.1714 12.1019C54.5763 11.52 58.0632 12.8083 60.4852 15.4889C64.1546 19.5452 64.8173 26.0275 62.0621 30.9037C60.5579 33.5639 58.0707 35.5177 55.2354 36.2631C52.7147 36.9268 50.0916 36.5717 47.8353 35.2611C46.2808 36.1609 44.5588 36.6107 42.8349 36.6107ZM42.9521 12.5313C41.9766 12.5313 40.9918 12.6912 40.0275 13.0128C37.0879 13.9906 34.6063 16.3738 33.3851 19.3835C31.1139 24.9884 33.0891 31.6974 37.881 34.6569C40.8969 36.5178 44.6574 36.542 47.6919 34.7146L47.8316 34.6309L47.9712 34.7146C50.1307 36.014 52.6607 36.3802 55.092 35.7389C57.7858 35.0306 60.1539 33.1716 61.5836 30.636C64.2272 25.9569 63.5942 19.7404 60.0775 15.8514C57.7896 13.3195 54.5112 12.0963 51.2961 12.6298L51.2514 12.6373C51.0969 12.6651 50.9424 12.6967 50.7897 12.7302L50.7302 12.7358C49.8533 12.7358 48.5818 13.5017 47.9712 13.8679L47.8316 13.9516L47.6919 13.8679C46.2175 12.9812 44.596 12.5313 42.9521 12.5313ZM52.8357 35.1905C51.9458 35.1905 51.0597 35.0455 50.1977 34.761C49.7956 34.6291 49.4028 34.4655 49.0305 34.2796C48.8964 34.2126 48.7531 34.116 48.6041 34.0156C48.3733 33.8594 48.1127 33.6828 47.9097 33.6661C47.5653 33.6382 47.1074 33.9226 46.7034 34.1736C46.4483 34.3316 46.2063 34.4841 45.9718 34.577C45.0744 34.9376 44.1362 35.1421 43.1849 35.183C40.5078 35.2964 37.7842 34.0249 35.93 31.7737C32.0857 27.1057 32.6069 19.5731 37.0488 15.6507C39.7613 13.2563 43.5348 12.7358 46.6643 14.3234L47.031 14.5093L46.7146 14.7732C45.0782 16.1321 43.8346 17.9856 43.1178 20.1271C42.7399 21.2555 42.5202 22.4397 42.4625 23.6462L42.4532 23.8079C42.4253 24.2206 42.4216 24.5032 42.6301 24.6556C42.7697 24.7578 42.9037 24.7485 42.9912 24.7244C43.1383 24.6835 43.263 24.5701 43.3245 24.4195C43.4176 24.1927 43.412 23.8116 43.4083 23.4733C43.4064 23.2502 43.4027 23.0383 43.425 22.8524C43.4939 22.2705 43.5981 21.7035 43.7396 21.1644C44.0226 20.0825 44.4489 19.0619 45.0074 18.1324C46.0984 16.3106 47.6547 14.8922 49.3879 14.143C50.0786 13.8121 50.8977 13.5798 51.7429 13.4701C54.0402 13.141 56.2593 13.7731 58.147 15.2919C60.4778 17.1657 62.0658 20.2628 62.2948 23.3766C62.5331 26.6094 61.3528 30.0411 59.2175 32.3369C57.4768 34.2015 55.2707 35.1905 52.8357 35.1905ZM47.8613 33.1196C47.8949 33.1196 47.9265 33.1214 47.96 33.1233C48.3026 33.1549 48.6246 33.3724 48.9113 33.5657C49.036 33.6512 49.1608 33.7349 49.2743 33.7944C49.6243 33.9691 49.9929 34.1216 50.369 34.2461C51.177 34.5138 52.0054 34.6495 52.8357 34.6495C55.1162 34.6495 57.1845 33.72 58.8191 31.9651C60.8557 29.7771 61.9802 26.5016 61.7549 23.4138C61.5371 20.445 60.0254 17.4929 57.8082 15.712C56.0396 14.288 53.9676 13.6987 51.8174 14.0055C51.0224 14.1077 50.261 14.3234 49.6113 14.6338C47.9749 15.3439 46.5079 16.6843 45.4728 18.4094C44.9404 19.2961 44.5346 20.2684 44.2646 21.3001C44.1306 21.8151 44.0282 22.3579 43.963 22.9137C43.9444 23.0662 43.9481 23.2614 43.95 23.4658C43.9556 23.8748 43.9612 24.2968 43.8253 24.624C43.7005 24.927 43.4436 25.1594 43.1383 25.2449C42.8479 25.3248 42.5538 25.2709 42.308 25.0906C41.8445 24.7504 41.8817 24.1853 41.9115 23.7707L41.9208 23.6201C41.9804 22.3653 42.2093 21.1328 42.6022 19.9561C43.3059 17.8554 44.4936 16.0243 46.0499 14.6301C43.196 13.3641 39.8469 13.9051 37.41 16.0578C33.1784 19.7943 32.6814 26.9793 36.3507 31.4316C38.0969 33.5527 40.6567 34.7555 43.1662 34.6439C44.0561 34.6049 44.933 34.4134 45.7726 34.0769C45.9624 34.0007 46.184 33.8613 46.4186 33.7163C46.8654 33.4337 47.3699 33.1196 47.8613 33.1196Z" fill="#243842"/>
<path d="M47.9544 12.1596C47.9153 12.1596 47.8781 12.1559 47.839 12.1503C47.448 12.0871 47.1818 11.7209 47.2433 11.3286C47.2451 11.3119 47.5039 9.62207 47.0664 7.77052C46.506 5.40218 45.1005 3.87223 42.8888 3.22345C42.5072 3.11005 42.2913 2.71222 42.403 2.33299C42.5147 1.9519 42.913 1.7344 43.2947 1.8478C46.0146 2.64716 47.8073 4.59724 48.4757 7.48982C48.9672 9.60906 48.6749 11.4773 48.6637 11.5573C48.6041 11.9068 48.2988 12.1596 47.9544 12.1596Z" fill="#243842"/>
<path d="M47.9544 12.4292C47.9004 12.4292 47.8483 12.4255 47.7962 12.4162C47.2581 12.3306 46.8914 11.8231 46.977 11.2859C47.0031 11.1149 47.2097 9.54588 46.8039 7.83376C46.2677 5.56765 44.9255 4.10277 42.8144 3.48373C42.2912 3.32944 41.9896 2.77918 42.1442 2.2568C42.2987 1.73257 42.8479 1.43327 43.3729 1.58757C46.1933 2.41481 48.0493 4.43553 48.7419 7.4285C49.2445 9.59979 48.9429 11.5183 48.9318 11.5982C48.8517 12.0797 48.4421 12.4292 47.9544 12.4292ZM43.0917 2.08949C42.8981 2.08949 42.7213 2.2159 42.6636 2.40924C42.5928 2.64347 42.7306 2.89257 42.967 2.96321C45.2792 3.64174 46.748 5.23861 47.3307 7.70735C47.7589 9.518 47.5392 11.1799 47.5132 11.3621C47.4722 11.6149 47.6379 11.8436 47.8818 11.8826C48.135 11.9254 48.3547 11.7506 48.3937 11.5127C48.4068 11.4346 48.6897 9.62024 48.2113 7.54933C47.5653 4.75899 45.8396 2.87584 43.2183 2.10622C43.1755 2.09507 43.1327 2.08949 43.0917 2.08949Z" fill="#243842"/>
<path d="M50.9331 11.2729C50.773 11.2729 50.6203 11.2134 50.5012 11.1056C50.3672 10.9847 50.2908 10.8118 50.289 10.6315C50.289 10.5274 50.3001 8.04938 52.1339 5.52116C53.2043 4.04698 54.675 2.86095 56.5069 1.99466C58.7539 0.931322 61.5501 0.351319 64.8229 0.269523C65.0221 0.265805 65.2176 0.353178 65.3423 0.511191C65.4671 0.669205 65.5118 0.873694 65.4633 1.06889C65.0482 2.71595 64.4227 5.20699 62.2818 7.237C59.9473 9.4492 56.2556 10.7691 50.9945 11.2691C50.9722 11.271 50.9536 11.2729 50.9331 11.2729ZM63.9945 1.5894C61.2746 1.73626 58.9438 2.26236 57.0561 3.15653C55.4234 3.93173 54.1184 4.98019 53.1764 6.27777C52.145 7.69803 51.7783 9.09413 51.6498 9.90837C56.196 9.38785 59.3906 8.20554 61.3938 6.30565C62.8775 4.8984 63.5254 3.28108 63.9945 1.5894Z" fill="#243842"/>
<path d="M50.9331 11.5425C50.706 11.5425 50.4882 11.4588 50.3188 11.3064C50.127 11.1353 50.019 10.8881 50.0172 10.6334C50.0172 10.5256 50.0265 7.96204 51.9161 5.36318C53.0126 3.85182 54.5168 2.63604 56.3896 1.74931C58.6702 0.669236 61.5055 0.0799365 64.8155 0C64.8229 0 64.8304 0 64.836 0C65.1134 0 65.3796 0.126411 65.5527 0.342054C65.7314 0.565132 65.7947 0.860711 65.7277 1.13584C65.3032 2.81451 64.6684 5.35203 62.4698 7.43409C60.0906 9.6909 56.3468 11.0331 51.0225 11.5387C50.9871 11.5425 50.961 11.5425 50.9331 11.5425ZM64.8378 0.542824C64.8341 0.542824 64.8322 0.542824 64.8285 0.542824C61.5967 0.620902 58.834 1.19347 56.6223 2.24194C54.8333 3.08964 53.3979 4.24779 52.3536 5.68293C50.5682 8.14051 50.5589 10.5312 50.5608 10.6334C50.5608 10.7375 50.6055 10.8379 50.6818 10.9067C50.7507 10.968 50.84 11.0033 50.9331 11.0033L50.9722 11.0015C56.1662 10.507 59.8058 9.21314 62.0937 7.0437C64.1769 5.0676 64.7913 2.62303 65.199 1.00571C65.2269 0.892314 65.2009 0.773339 65.1283 0.682249C65.0594 0.593017 64.9495 0.542824 64.8378 0.542824ZM51.3241 10.2189L51.3799 9.86565C51.5288 8.94173 51.9217 7.54191 52.9567 6.11793C53.9267 4.78503 55.2652 3.70682 56.9407 2.91117C58.8582 2.00399 61.2281 1.4686 63.9796 1.31988L64.3557 1.29943L64.2551 1.66194C63.8027 3.28669 63.1661 4.99696 61.5799 6.50088C59.5284 8.44538 56.2891 9.64815 51.6796 10.178L51.3241 10.2189ZM63.6259 1.88501C61.1089 2.05604 58.9382 2.5654 57.1715 3.40195C55.5817 4.1567 54.3102 5.17728 53.3961 6.43582C52.549 7.6014 52.1599 8.74654 51.9812 9.59424C56.2779 9.06071 59.2975 7.91743 61.2057 6.10678C62.5796 4.80734 63.2014 3.32201 63.6259 1.88501Z" fill="#243842"/>
<path d="M43.1327 27.6263C42.7362 27.6263 42.4141 27.3047 42.4141 26.9087C42.4141 26.5128 42.7362 26.1912 43.1327 26.1912C43.5292 26.1912 43.8513 26.5128 43.8513 26.9087C43.8513 27.3047 43.5292 27.6263 43.1327 27.6263Z" fill="#243842"/>
<path d="M43.1327 27.8977C42.5873 27.8977 42.1423 27.4535 42.1423 26.9088C42.1423 26.3641 42.5854 25.9198 43.1309 25.9198C43.6763 25.9198 44.1213 26.3641 44.1213 26.9088C44.1213 27.4535 43.6782 27.8977 43.1327 27.8977ZM43.1327 26.4626C42.887 26.4626 42.6859 26.6634 42.6859 26.9088C42.6859 27.1542 42.887 27.3549 43.1327 27.3549C43.3785 27.3549 43.5795 27.1542 43.5795 26.9088C43.5795 26.6634 43.3803 26.4626 43.1327 26.4626Z" fill="#243842"/>
</g>
<defs>
<clipPath id="clip0">
<rect width="90" height="105.845" fill="white"/>
</clipPath>
</defs>
</svg>
