<?xml version="1.0" encoding="utf-8"?>
<!-- Generator: Adobe Illustrator 16.0.0, SVG Export Plug-In . SVG Version: 6.00 Build 0)  -->
<!DOCTYPE svg PUBLIC "-//W3C//DTD SVG 1.1//EN" "http://www.w3.org/Graphics/SVG/1.1/DTD/svg11.dtd">
<svg version="1.1" id="レイヤー_1" xmlns="http://www.w3.org/2000/svg" xmlns:xlink="http://www.w3.org/1999/xlink" x="0px"
	 y="0px" width="40px" height="40px" viewBox="0 0 40 40" enable-background="new 0 0 40 40" xml:space="preserve">
<circle fill="#FFFFFF" cx="20" cy="20" r="20"/>
<path fill="#DDDDDD" d="M20,1.333c10.266,0,18.666,8.399,18.666,18.667S30.266,38.667,20,38.667C9.732,38.667,1.332,30.268,1.332,20
	S9.733,1.333,20,1.333 M20,0C8.934,0,0,8.934,0,20s8.934,20,20,20c11.065,0,20-8.934,20-20S31.066,0,20,0L20,0z"/>
<path fill="#DDDDDD" d="M31.557,24.528c-0.193,0-0.385-0.073-0.531-0.22L20,13.282L8.974,24.309c-0.293,0.293-0.768,0.293-1.061,0
	s-0.293-0.768,0-1.061L19.47,11.691c0.141-0.141,0.332-0.22,0.53-0.22l0,0c0.199,0,0.39,0.079,0.531,0.22l11.555,11.557
	c0.293,0.293,0.293,0.768,0,1.061C31.939,24.455,31.748,24.528,31.557,24.528z"/>
</svg>
