<?xml version="1.0" encoding="utf-8"?>
<!-- Generator: Adobe Illustrator 16.0.0, SVG Export Plug-In . SVG Version: 6.00 Build 0)  -->
<!DOCTYPE svg PUBLIC "-//W3C//DTD SVG 1.1//EN" "http://www.w3.org/Graphics/SVG/1.1/DTD/svg11.dtd">
<svg version="1.1" id="レイヤー_1" xmlns="http://www.w3.org/2000/svg" xmlns:xlink="http://www.w3.org/1999/xlink" x="0px"
	 y="0px" width="40px" height="40px" viewBox="0 0 40 40" enable-background="new 0 0 40 40" xml:space="preserve">
<g>
	<path fill="#AAAAAA" d="M20,0C8.972,0,0,8.972,0,20c0,11.027,8.972,20,20,20c11.027,0,20-8.973,20-20C40,8.972,31.027,0,20,0z
		 M20,36.826c-9.278,0-16.827-7.549-16.827-16.826c0-9.278,7.548-16.826,16.827-16.826c9.277,0,16.825,7.548,16.825,16.826
		C36.825,29.277,29.277,36.826,20,36.826z"/>
	<path fill="#AAAAAA" d="M18.822,11.414L7.816,22.42c-0.65,0.65-0.65,1.707,0,2.356c0.629,0.631,1.727,0.631,2.356,0L20,14.949
		l9.827,9.828c0.314,0.315,0.733,0.488,1.179,0.488s0.863-0.173,1.178-0.488c0.315-0.313,0.488-0.732,0.488-1.178
		s-0.173-0.864-0.488-1.179L21.179,11.412C20.551,10.788,19.446,10.789,18.822,11.414z"/>
</g>
</svg>
