<?xml version="1.0" encoding="utf-8"?>
<!-- Generator: Adobe Illustrator 23.0.1, SVG Export Plug-In . SVG Version: 6.00 Build 0)  -->
<svg version="1.1" id="レイヤー_1" xmlns="http://www.w3.org/2000/svg" xmlns:xlink="http://www.w3.org/1999/xlink" x="0px"
	 y="0px" viewBox="0 0 40 40" style="enable-background:new 0 0 40 40;" xml:space="preserve">
<style type="text/css">
	.st0{fill:#FFFFFF;}
	.st1{fill:#233741;}
</style>
<g>
	<circle class="st0" cx="20" cy="20" r="20"/>
	<path class="st1" d="M20,1.3c10.3,0,18.7,8.4,18.7,18.7S30.3,38.7,20,38.7S1.3,30.3,1.3,20S9.7,1.3,20,1.3 M20,0C8.9,0,0,8.9,0,20
		s8.9,20,20,20s20-8.9,20-20S31.1,0,20,0L20,0z"/>
</g>
<g>
	<g>
		<path class="st1" d="M28.8,9.8c0.3,0,0.5,0.2,0.5,0.5v19.4c0,0.3-0.2,0.5-0.5,0.5H13.2c-0.3,0-0.5-0.2-0.5-0.5V10.3
			c0-0.3,0.2-0.5,0.5-0.5H28.8 M28.8,8.3H13.2c-1.1,0-2,0.9-2,2v19.4c0,1.1,0.9,2,2,2h15.7c1.1,0,2-0.9,2-2V10.3
			C30.8,9.2,29.9,8.3,28.8,8.3L28.8,8.3z"/>
	</g>
	<g>
		<g>
			<path class="st1" d="M6.9,25.3c-0.8,0-1.4-0.6-1.4-1.4v-9.4c0-0.8,0.6-1.4,1.4-1.4h20c0.8,0,1.4,0.6,1.4,1.4v9.4
				c0,0.8-0.6,1.4-1.4,1.4H6.9z"/>
			<path class="st0" d="M26.9,13.5c0.6,0,1,0.4,1,1v9.4c0,0.6-0.4,1-1,1h-20c-0.6,0-1-0.4-1-1v-9.4c0-0.6,0.4-1,1-1H26.9 M26.9,12.7
				h-20c-1,0-1.8,0.8-1.8,1.8v9.4c0,1,0.8,1.8,1.8,1.8h20c1,0,1.8-0.8,1.8-1.8v-9.4C28.6,13.5,27.8,12.7,26.9,12.7L26.9,12.7z"/>
		</g>
		<g>
			<path class="st0" d="M10.2,20.4v2.4H8.8V16h2.6c0.5,0,1,0.1,1.3,0.3c0.4,0.2,0.7,0.5,0.9,0.8c0.2,0.3,0.3,0.7,0.3,1.2
				c0,0.7-0.2,1.2-0.7,1.6c-0.5,0.4-1.1,0.6-1.9,0.6H10.2z M10.2,19.2h1.2c0.4,0,0.7-0.1,0.8-0.3c0.2-0.2,0.3-0.4,0.3-0.7
				c0-0.3-0.1-0.6-0.3-0.8c-0.2-0.2-0.5-0.3-0.8-0.3h-1.3V19.2z"/>
			<path class="st0" d="M14.9,22.8V16H17c0.6,0,1.1,0.1,1.6,0.4c0.5,0.3,0.8,0.7,1.1,1.1c0.3,0.5,0.4,1.1,0.4,1.7v0.3
				c0,0.6-0.1,1.2-0.4,1.7c-0.3,0.5-0.6,0.9-1.1,1.1c-0.5,0.3-1,0.4-1.6,0.4H14.9z M16.3,17.1v4.5H17c0.5,0,1-0.2,1.3-0.5
				c0.3-0.4,0.4-0.9,0.4-1.5v-0.4c0-0.7-0.1-1.2-0.4-1.6c-0.3-0.4-0.7-0.5-1.3-0.5H16.3z"/>
			<path class="st0" d="M25.2,20h-2.7v2.8h-1.4V16h4.4v1.1h-3v1.8h2.7V20z"/>
		</g>
	</g>
	<g>
		<path class="st1" d="M21,35.2c-0.2,0-0.5-0.1-0.6-0.3l-3-4.1c-0.2-0.2-0.2-0.6-0.1-0.8c0.1-0.3,0.4-0.4,0.7-0.4h0.7v-2.8
			c0-0.4,0.4-0.8,0.8-0.8h3c0.4,0,0.8,0.4,0.8,0.8v2.8H24c0.3,0,0.6,0.2,0.7,0.4s0.1,0.6-0.1,0.8l-3,4.1
			C21.5,35.1,21.2,35.2,21,35.2z"/>
		<path class="st0" d="M22.5,26.5c0.2,0,0.3,0.1,0.3,0.3V30H24c0.2,0,0.4,0.3,0.2,0.5l-3,4.1c-0.1,0.1-0.1,0.1-0.2,0.1
			s-0.2,0-0.2-0.1l-3-4.1c-0.1-0.2,0-0.5,0.2-0.5h1.2v-3.3c0-0.2,0.1-0.3,0.3-0.3H22.5 M22.5,25.5h-3c-0.7,0-1.3,0.6-1.3,1.3V29H18
			c-0.5,0-0.9,0.3-1.1,0.7c-0.2,0.4-0.2,1,0.1,1.3l3,4.1c0.2,0.3,0.6,0.5,1,0.5c0.4,0,0.8-0.2,1-0.5l3-4.1c0.3-0.4,0.3-0.9,0.1-1.3
			C24.9,29.3,24.5,29,24,29h-0.2v-2.3C23.8,26,23.2,25.5,22.5,25.5L22.5,25.5z"/>
	</g>
</g>
</svg>
