<?xml version="1.0" encoding="utf-8"?>
<!-- Generator: Adobe Illustrator 23.0.1, SVG Export Plug-In . SVG Version: 6.00 Build 0)  -->
<svg version="1.1" id="レイヤー_1" xmlns="http://www.w3.org/2000/svg" xmlns:xlink="http://www.w3.org/1999/xlink" x="0px"
	 y="0px" viewBox="0 0 310 417" style="enable-background:new 0 0 310 417;" xml:space="preserve">
<style type="text/css">
	.st0{clip-path:url(#SVGID_2_);}
	.st1{fill-rule:evenodd;clip-rule:evenodd;fill:#DEDEDE;}
	.st2{fill:#FFFFFF;stroke:#DEDEDE;stroke-miterlimit:10;}
	.st3{fill:#DEDEDE;}
	.st4{fill:#CCCCCC;}
	.st5{fill:#DEDEDE;stroke:#DEDEDE;stroke-linecap:round;stroke-linejoin:round;stroke-miterlimit:10;}
	.st6{fill-rule:evenodd;clip-rule:evenodd;fill:#FFFFFF;stroke:#DEDEDE;stroke-miterlimit:10;}
	.st7{fill:#FFC4BB;stroke:#0D343F;stroke-width:2;stroke-linecap:round;stroke-linejoin:round;stroke-miterlimit:10;}
	.st8{fill:#FFFFFF;stroke:#0D343F;stroke-width:2;stroke-linecap:round;stroke-linejoin:round;stroke-miterlimit:10;}
	
		.st9{fill:none;stroke:#0D343F;stroke-width:2;stroke-linecap:round;stroke-linejoin:round;stroke-miterlimit:10;stroke-dasharray:2.837;}
	.st10{fill:#888888;}
	.st11{fill:#0D343F;}
	.st12{fill:#EDEDED;}
	.st13{fill:#FFFFFF;stroke:#0D343F;stroke-width:1.5;stroke-linecap:round;stroke-linejoin:round;stroke-miterlimit:10;}
	.st14{fill:#AAAAAA;}
	.st15{fill:#ECECEC;}
	.st16{fill:none;stroke:#0D343F;stroke-width:2;stroke-miterlimit:10;}
	.st17{fill:none;stroke:#0D343F;stroke-width:2;stroke-linecap:round;stroke-linejoin:round;stroke-miterlimit:10;}
	.st18{fill:#ECECEC;stroke:#0D343F;stroke-width:2;stroke-linecap:round;stroke-linejoin:round;stroke-miterlimit:10;}
	.st19{fill:#DEDEDE;stroke:#0D343F;stroke-width:2;stroke-linecap:round;stroke-linejoin:round;stroke-miterlimit:10;}
	.st20{fill:#233740;}
	.st21{fill:#37C8A3;stroke:#0D343F;stroke-width:2;stroke-linecap:round;stroke-linejoin:round;stroke-miterlimit:10;}
	.st22{fill:#DD8D85;stroke:#0D343F;stroke-width:2;stroke-linecap:round;stroke-linejoin:round;stroke-miterlimit:10;}
	.st23{fill:#37C8A3;stroke:#233740;stroke-width:2;stroke-miterlimit:10;}
	.st24{fill:#F1C1B9;stroke:#233740;stroke-width:2;stroke-miterlimit:10;}
	.st25{fill:#FFFFFF;stroke:#233740;stroke-width:2;stroke-miterlimit:10;}
	.st26{fill:#FFFFFF;}
	.st27{fill:#F1C1B9;}
	.st28{fill:none;stroke:#233740;stroke-width:2;stroke-miterlimit:10;}
	.st29{fill:none;stroke:#233740;stroke-width:2;stroke-linecap:round;stroke-linejoin:round;stroke-miterlimit:10;}
	.st30{fill:#EFBAD5;stroke:#233740;stroke-width:2;stroke-linecap:round;stroke-linejoin:round;stroke-miterlimit:10;}
	.st31{fill:#DED99C;stroke:#233740;stroke-width:2;stroke-linecap:round;stroke-linejoin:round;stroke-miterlimit:10;}
	.st32{fill:#F1C1B9;stroke:#233740;stroke-width:2;stroke-linecap:round;stroke-miterlimit:10;}
	.st33{fill:#37C8A3;stroke:#233740;stroke-width:1.5;stroke-miterlimit:10;}
	.st34{fill:#A8E1E2;stroke:#233740;stroke-width:2;stroke-linecap:round;stroke-linejoin:round;stroke-miterlimit:10;}
	.st35{fill:#B1E0D3;stroke:#0D343F;stroke-width:2;stroke-linecap:round;stroke-linejoin:round;stroke-miterlimit:10;}
	.st36{fill:#79C8A4;stroke:#233740;stroke-width:2;stroke-linecap:round;stroke-linejoin:round;stroke-miterlimit:10;}
	.st37{fill:#FFC4BB;stroke:#233740;stroke-width:0.5;stroke-miterlimit:10;}
	.st38{fill:#77C5A1;stroke:#233740;stroke-width:0.5;stroke-miterlimit:10;}
	.st39{fill:#233740;stroke:#233740;stroke-width:0.5;stroke-miterlimit:10;}
	.st40{fill:none;stroke:#233740;stroke-width:0.5;stroke-miterlimit:10;}
	.st41{fill:#233740;stroke:#233740;stroke-width:2;stroke-miterlimit:10;}
	.st42{fill:#FFFFFF;stroke:#233740;stroke-width:2;stroke-linecap:round;stroke-linejoin:round;stroke-miterlimit:10;}
	.st43{fill:#F1C1B9;stroke:#233740;stroke-width:1.5;stroke-miterlimit:10;}
	.st44{fill:#FFC4BB;}
	.st45{fill:#37C8A3;}
</style>
<g id="BACKGROUND">
</g>
<g id="OBJECTS">
	<g>
		<g>
			<defs>
				<rect id="SVGID_1_" width="291" height="417"/>
			</defs>
			<clipPath id="SVGID_2_">
				<use xlink:href="#SVGID_1_"  style="overflow:visible;"/>
			</clipPath>
			<g class="st0">
				<path class="st1" d="M238.4,359.8c0,31.2-99.6,56.6-222.5,56.6s-222.5-25.3-222.5-56.6c0-31.2,99.6-56.6,222.5-56.6
					C138.7,303.2,238.4,328.5,238.4,359.8z"/>
				<g>
					<path class="st2" d="M169.7,93.2l-16.5-16.8c0,0,11.6-10.1,10.4-23.7c11.1-4.9,34.6-10.4,41.3-12l-22.8,22.4
						c-1.3-0.7-3-0.6-4.1,0.6c-1.4,1.4-1.4,3.6,0,4.9c1.4,1.4,3.6,1.4,4.9,0.1c1.1-1.1,1.3-2.8,0.6-4.1l22.8-22.4
						c-1.6,6.7-7.6,30.1-12.7,41.1C180,81.8,169.7,93.2,169.7,93.2z"/>
					<path class="st3" d="M193.6,83.2c5.1-11,11.1-34.4,12.7-41.1l-22.8,22.4c0.7,1.3,0.5,3-0.6,4.2c-1.4,1.4-3.6,1.3-4.9-0.1
						l-16.4,16.1l8.2,8.4C169.7,93.2,180,81.8,193.6,83.2z"/>
					<g>
						<path class="st3" d="M73.6,171.1L73.6,171.1c-2.9-2.9-2.8-7.7,0.1-10.6l82.4-80.9l10.5,10.7l-82.4,80.9
							C81.3,174.1,76.5,174,73.6,171.1z"/>
						<path class="st3" d="M73.6,171.1L73.6,171.1c-2.9-2.9-2.8-7.7,0.1-10.6l82.4-80.9l10.5,10.7l-82.4,80.9
							C81.3,174.1,76.5,174,73.6,171.1z"/>
					</g>
					<g>
						<g>
							<path class="st4" d="M165.9,95l-14.5-14.8c-1.3-1.3-1.3-3.4,0-4.7l1-0.9c1.3-1.3,3.4-1.3,4.7,0l14.6,14.8
								c1.3,1.3,1.3,3.4,0,4.7l-1,0.9C169.3,96.3,167.2,96.3,165.9,95z"/>
							<path class="st4" d="M165.9,95l-14.5-14.8c-1.3-1.3-1.3-3.4,0-4.7l1-0.9c1.3-1.3,3.4-1.3,4.7,0l14.6,14.8
								c1.3,1.3,1.3,3.4,0,4.7l-1,0.9C169.3,96.3,167.2,96.3,165.9,95z"/>
						</g>
					</g>
					<g>
						<path class="st5" d="M138.6,36c20-17.6,50.5-15.7,68.1,4.3s15.7,50.6-4.3,68.2l-0.5-0.6c19.7-17.3,21.6-47.4,4.3-67.1
							s-47.4-21.6-67-4.3L138.6,36z"/>
						<polygon class="st5" points="174.5,4.9 175.1,4.3 238.4,76.3 237.8,76.8 						"/>
						<g>
							
								<rect x="202.9" y="37" transform="matrix(0.7508 -0.6605 0.6605 0.7508 24.6108 146.4891)" class="st5" width="7.2" height="7.2"/>
							<path class="st5" d="M200.8,40.2l6-5.3l5.3,6l-6,5.3L200.8,40.2z M206.7,36.1l-4.8,4.2l4.2,4.8l4.8-4.2L206.7,36.1z"/>
						</g>
						<g>
							
								<rect x="135.3" y="32.7" transform="matrix(0.7507 -0.6607 0.6607 0.7507 10.6216 100.7968)" class="st5" width="7.2" height="7.2"/>
							<path class="st5" d="M133.2,35.9l6-5.3l5.3,6l-6,5.3L133.2,35.9z M139.1,31.8l-4.8,4.2l4.2,4.8l4.8-4.2L139.1,31.8z"/>
						</g>
						<g>
							
								<rect x="198.6" y="104.8" transform="matrix(0.7508 -0.6605 0.6605 0.7508 -21.1996 160.5922)" class="st5" width="7.2" height="7.2"/>
							<path class="st5" d="M196.7,108l6-5.3l5.3,6l-6,5.3L196.7,108z M202.6,103.8l-4.8,4.2l4.2,4.8l4.8-4.2L202.6,103.8z"/>
						</g>
						<g>
							<path class="st5" d="M240.6,79.4c-1.5,1.3-3.7,1.2-5-0.3s-1.2-3.7,0.3-5.1c1.5-1.3,3.7-1.2,5,0.3
								C242.2,75.8,242.1,78.1,240.6,79.4z"/>
							<path class="st5" d="M234.2,76.4c0.1-1.1,0.5-2,1.3-2.7c1.6-1.4,4.2-1.3,5.6,0.4c0.7,0.8,1,1.8,1,2.9c-0.1,1.1-0.5,2-1.3,2.7
								l0,0c-0.8,0.7-1.8,1.1-2.9,1c-1.1-0.1-2-0.5-2.7-1.3C234.5,78.5,234.2,77.5,234.2,76.4z M241.4,76.9c0.1-0.8-0.2-1.7-0.8-2.3
								c-1.2-1.3-3.2-1.4-4.5-0.3c-1.3,1.2-1.4,3.2-0.3,4.5c0.6,0.6,1.3,1,2.2,1.1c0.8,0.1,1.7-0.2,2.3-0.8l0,0
								C241,78.5,241.3,77.7,241.4,76.9z"/>
						</g>
						<g>
							<path class="st5" d="M177.2,7.3c-1.5,1.3-3.7,1.2-5-0.3s-1.2-3.7,0.3-5.1c1.5-1.3,3.7-1.2,5.1,0.3
								C178.8,3.7,178.6,6,177.2,7.3z"/>
							<path class="st5" d="M170.8,4.3c0.1-1,0.5-2,1.3-2.7c1.6-1.4,4.2-1.3,5.6,0.4c1.4,1.6,1.3,4.2-0.4,5.6l0,0
								c-1.6,1.4-4.2,1.3-5.6-0.4C171.1,6.4,170.8,5.4,170.8,4.3z M178,4.8c0.1-0.8-0.2-1.6-0.8-2.3C176,1.2,174,1,172.7,2.2
								s-1.4,3.2-0.3,4.5c1.2,1.3,3.2,1.4,4.5,0.3C177.6,6.4,177.9,5.6,178,4.8z"/>
						</g>
					</g>
				</g>
				<g>
					<g>
						<g>
							<g>
								<g>
									<path class="st1" d="M-69.1,80.2c4,3,7.6,6.5,10.6,10.4l13.5-2.5l9,20.9l-11.1,8.1c0.7,4.9,0.8,9.8,0.2,14.8l11.3,7.8
										l-8.5,21.1l-13.6-2.2c-3,4-6.5,7.6-10.4,10.6l2.5,13.5l-20.9,8.9l-8.1-11.1c-4.9,0.7-9.8,0.8-14.8,0.2l-7.8,11.3l-21.1-8.5
										l2.2-13.6c-4-3-7.6-6.5-10.6-10.4l-13.5,2.5l-8.9-20.9l11.2-8.1c-0.7-4.9-0.8-9.8-0.2-14.8l-11.3-7.8l8.5-21.1l13.6,2.2
										c3-4,6.5-7.6,10.4-10.6l-2.5-13.5l20.9-8.9l8.1,11.2c4.9-0.7,9.8-0.8,14.8-0.2l7.8-11.3l21.1,8.5L-69.1,80.2L-69.1,80.2z
										 M-92.6,102.8c-12.5-5-26.7,1-31.8,13.6c-5,12.5,1,26.7,13.6,31.8c12.5,5,26.7-1,31.8-13.6
										C-74,122.1-80.1,107.9-92.6,102.8z"/>
								</g>
							</g>
						</g>
					</g>
					<g>
						<g>
							<g>
								<g>
									<path class="st6" d="M-178.3,25c2.3,1.7,4.3,3.7,6,5.8l7.6-1.4l5,11.8l-6.3,4.5c0.4,2.7,0.4,5.5,0.1,8.3l6.4,4.4l-4.8,11.9
										l-7.6-1.2c-1.7,2.3-3.7,4.3-5.8,6l1.4,7.6l-11.8,5l-4.5-6.3c-2.7,0.4-5.5,0.4-8.3,0.1l-4.4,6.4l-11.9-4.8l1.2-7.6
										c-2.3-1.7-4.3-3.7-6-5.8l-7.6,1.4l-5-11.8l6.3-4.5c-0.4-2.7-0.4-5.5-0.1-8.3l-6.4-4.4l4.8-11.9l7.6,1.2
										c1.7-2.3,3.7-4.3,5.8-6l-1.4-7.6l11.8-5l4.5,6.3c2.7-0.4,5.5-0.4,8.3-0.1l4.4-6.4l11.9,4.8L-178.3,25L-178.3,25z
										 M-191.6,37.7c-7-2.8-15,0.6-17.8,7.6s0.6,15,7.6,17.8c7,2.8,15-0.6,17.8-7.6C-181.1,48.5-184.5,40.5-191.6,37.7z"/>
								</g>
							</g>
						</g>
					</g>
				</g>
				<g>
					<path class="st7" d="M86.3,346H-48.8c-11.8,0-21.3-9.2-21.3-20.7V34.1c0-11.4,9.5-20.7,21.3-20.7H86.3
						c11.8,0,21.3,9.2,21.3,20.7v291.3C107.6,336.8,98.1,346,86.3,346z"/>
					<path class="st8" d="M96.8,33.8v288.5c0,6.8-5.7,12.2-12.6,12.2H-46.6c-7,0-12.6-5.5-12.6-12.2V33.8c0-6.8,5.7-12.3,12.6-12.3
						h21.8c1.2,0,2.3,0.7,2.9,1.7l2.3,4.5c1.1,2.1,3.2,3.4,5.6,3.4h65.6c2.4,0,4.5-1.3,5.6-3.4l2.3-4.5c0.5-1,1.6-1.7,2.9-1.7h21.8
						C91.1,21.6,96.8,27.1,96.8,33.8z"/>
					<path class="st8" d="M46.3,25.9H-6.5c-1.2,0-2.2-1-2.2-2.2l0,0c0-1.2,1-2.2,2.2-2.2h52.8c1.2,0,2.2,1,2.2,2.2l0,0
						C48.5,24.9,47.5,25.9,46.3,25.9z"/>
				</g>
				<path class="st9" d="M76,323.9H-41.5c-4.6,0-8.4-3.8-8.4-8.4V274c0-4.6,3.8-8.4,8.4-8.4H76c4.6,0,8.4,3.8,8.4,8.4v41.5
					C84.4,320.1,80.7,323.9,76,323.9z"/>
				<path class="st9" d="M75.6,180.9H7.8c-3.9,0-7-2.7-7-6V146c0-3.3,3.1-6,7-6h67.8c3.9,0,7,2.7,7,6v28.8
					C82.6,178.2,79.5,180.9,75.6,180.9z"/>
				<g>
					<path class="st10" d="M-38.3,259.1c-3.4,0-6.2-2.8-6.2-6.2v-50.8c0-3.4,2.8-6.2,6.2-6.2H82.1c3.4,0,6.2,2.8,6.2,6.2v50.8
						c0,3.4-2.8,6.2-6.2,6.2H-38.3z"/>
					<path class="st11" d="M82.1,196.9c2.9,0,5.2,2.3,5.2,5.2v50.8c0,2.9-2.3,5.2-5.2,5.2H-38.3c-2.9,0-5.2-2.3-5.2-5.2v-50.8
						c0-2.9,2.3-5.2,5.2-5.2L82.1,196.9 M82.1,194.9H-38.3c-4,0-7.2,3.2-7.2,7.2v50.8c0,4,3.2,7.2,7.2,7.2H82.1c4,0,7.2-3.2,7.2-7.2
						v-50.8C89.3,198.1,86.1,194.9,82.1,194.9L82.1,194.9z"/>
				</g>
				<g>
					<path class="st12" d="M-43.3,253.8c-3.4,0-6.2-2.8-6.2-6.2v-50.8c0-3.4,2.8-6.2,6.2-6.2h120c3.4,0,6.2,2.8,6.2,6.2v50.8
						c0,3.4-2.8,6.2-6.2,6.2H-43.3z"/>
					<path class="st11" d="M76.7,191.6c2.9,0,5.2,2.3,5.2,5.2v50.8c0,2.8-2.3,5.2-5.2,5.2h-120c-2.9,0-5.2-2.3-5.2-5.2v-50.8
						c0-2.9,2.3-5.2,5.2-5.2H76.7 M76.7,189.6h-120c-4,0-7.2,3.2-7.2,7.2v50.8c0,4,3.2,7.2,7.2,7.2h120c4,0,7.2-3.2,7.2-7.2v-50.8
						C83.9,192.8,80.7,189.6,76.7,189.6L76.7,189.6z"/>
				</g>
				<g>
					<path class="st13" d="M37.9,210.2H6.7c-0.8,0-1.5-0.7-1.5-1.5l0,0c0-0.8,0.7-1.5,1.5-1.5h31.1c0.8,0,1.5,0.7,1.5,1.5l0,0
						C39.4,209.5,38.7,210.2,37.9,210.2z"/>
					<path class="st13" d="M23.7,216.3h-17c-0.8,0-1.5-0.7-1.5-1.5l0,0c0-0.8,0.7-1.5,1.5-1.5h16.9c0.8,0,1.5,0.7,1.5,1.5l0,0
						C25.2,215.6,24.5,216.3,23.7,216.3z"/>
					<path class="st13" d="M75.8,216.3H29.9c-0.8,0-1.5-0.7-1.5-1.5l0,0c0-0.8,0.7-1.5,1.5-1.5h45.8c0.8,0,1.5,0.7,1.5,1.5l0,0
						C77.3,215.6,76.6,216.3,75.8,216.3z"/>
					<path class="st13" d="M32.9,222.4H6.7c-0.8,0-1.5-0.7-1.5-1.5l0,0c0-0.8,0.7-1.5,1.5-1.5h26.2c0.8,0,1.5,0.7,1.5,1.5l0,0
						C34.5,221.7,33.8,222.4,32.9,222.4z"/>
					<path class="st13" d="M55.2,222.4H38.7c-0.8,0-1.5-0.7-1.5-1.5l0,0c0-0.8,0.7-1.5,1.5-1.5h16.5c0.8,0,1.5,0.7,1.5,1.5l0,0
						C56.7,221.7,56,222.4,55.2,222.4z"/>
					<path class="st13" d="M75.8,222.4H60.6c-0.8,0-1.5-0.7-1.5-1.5l0,0c0-0.8,0.7-1.5,1.5-1.5h15.2c0.8,0,1.5,0.7,1.5,1.5l0,0
						C77.3,221.7,76.6,222.4,75.8,222.4z"/>
					<path class="st13" d="M75.8,228.5h-69c-0.8,0-1.5-0.7-1.5-1.5l0,0c0-0.8,0.7-1.5,1.5-1.5h69c0.8,0,1.5,0.7,1.5,1.5l0,0
						C77.3,227.8,76.6,228.5,75.8,228.5z"/>
					<path class="st13" d="M44.7,234.6h-38c-0.8,0-1.5-0.7-1.5-1.5l0,0c0-0.8,0.7-1.5,1.5-1.5h38c0.8,0,1.5,0.7,1.5,1.5l0,0
						C46.2,233.9,45.6,234.6,44.7,234.6z"/>
					<path class="st13" d="M75.8,234.6h-25c-0.8,0-1.5-0.7-1.5-1.5l0,0c0-0.8,0.7-1.5,1.5-1.5h24.9c0.8,0,1.5,0.7,1.5,1.5l0,0
						C77.3,233.9,76.6,234.6,75.8,234.6z"/>
					<path class="st13" d="M29,240.8H6.7c-0.8,0-1.5-0.7-1.5-1.5l0,0c0-0.8,0.7-1.5,1.5-1.5H29c0.8,0,1.5,0.7,1.5,1.5l0,0
						C30.6,240.1,29.9,240.8,29,240.8z"/>
					<path class="st13" d="M57.4,240.8H35.1c-0.8,0-1.5-0.7-1.5-1.5l0,0c0-0.8,0.7-1.5,1.5-1.5h22.3c0.8,0,1.5,0.7,1.5,1.5l0,0
						C58.9,240.1,58.3,240.8,57.4,240.8z"/>
					<path class="st13" d="M75.8,240.8h-13c-0.8,0-1.5-0.7-1.5-1.5l0,0c0-0.8,0.7-1.5,1.5-1.5h13c0.8,0,1.5,0.7,1.5,1.5l0,0
						C77.3,240.1,76.6,240.8,75.8,240.8z"/>
					<path class="st13" d="M37.9,246.9H6.7c-0.8,0-1.5-0.7-1.5-1.5l0,0c0-0.8,0.7-1.5,1.5-1.5h31.1c0.8,0,1.5,0.7,1.5,1.5l0,0
						C39.4,246.2,38.7,246.9,37.9,246.9z"/>
					<path class="st13" d="M75.8,210.2H44.6c-0.8,0-1.5-0.7-1.5-1.5l0,0c0-0.8,0.7-1.5,1.5-1.5h31.1c0.8,0,1.5,0.7,1.5,1.5l0,0
						C77.3,209.5,76.6,210.2,75.8,210.2z"/>
				</g>
				<g>
					<g>
						<path class="st14" d="M-49.4,197.9v-1.1c0-3.4,2.8-6.2,6.2-6.2h120c3.4,0,6.2,2.8,6.2,6.2v1.1H-49.4z"/>
						<path class="st11" d="M76.7,191.6c2.9,0,5.2,2.3,5.2,5.2v0.1H-48.4v-0.1c0-2.9,2.3-5.2,5.2-5.2H76.7 M76.7,189.6h-120
							c-4,0-7.2,3.2-7.2,7.2v2.1H83.9v-2.1C83.9,192.8,80.7,189.6,76.7,189.6L76.7,189.6z"/>
					</g>
					<g>
						<g>
							<path class="st15" d="M58.6,194.4c0,0.9-0.7,1.7-1.7,1.7c-0.9,0-1.7-0.7-1.7-1.7c0-0.9,0.7-1.7,1.7-1.7
								C57.8,192.8,58.6,193.5,58.6,194.4z"/>
						</g>
						<g>
							<path class="st15" d="M67.1,194.4c0,0.9-0.7,1.7-1.7,1.7c-0.9,0-1.7-0.7-1.7-1.7c0-0.9,0.7-1.7,1.7-1.7
								C66.3,192.8,67.1,193.5,67.1,194.4z"/>
						</g>
						<g>
							<path class="st15" d="M75.6,194.4c0,0.9-0.7,1.7-1.7,1.7c-0.9,0-1.7-0.7-1.7-1.7c0-0.9,0.7-1.7,1.7-1.7
								C74.9,192.8,75.6,193.5,75.6,194.4z"/>
						</g>
					</g>
				</g>
				<g>
					<path class="st16" d="M-13.3,180.9h-26.6c-3.9,0-7.2-3.2-7.2-7.2v-26.6c0-3.9,3.2-7.2,7.2-7.2h26.6c3.9,0,7.2,3.2,7.2,7.2v26.6
						C-6.2,177.7-9.4,180.9-13.3,180.9z"/>
					<g>
						<polyline class="st17" points="-33,154.6 -38.9,160.5 -32.9,166.4 						"/>
						<polyline class="st17" points="-20.2,154.6 -14.4,160.5 -20.3,166.4 						"/>
						<line class="st17" x1="-23.9" y1="154.6" x2="-29.4" y2="166.4"/>
					</g>
				</g>
				<g>
					<path class="st7" d="M76.1,278.4v33.1c0,1.8-1.5,3.3-3.3,3.3h-47c-1.8,0-3.3-1.5-3.3-3.3v-33.1c0-1.8,1.5-3.3,3.3-3.3h47
						C74.6,275.1,76.1,276.6,76.1,278.4z"/>
					<path class="st18" d="M73,285.6c0,4.3-3.5,7.8-7.8,7.8s-7.8-3.5-7.8-7.8s3.5-7.8,7.8-7.8C69.5,277.8,73,281.3,73,285.6z"/>
					<path class="st8" d="M54,314.7H25.8c-1.8,0-3.3-1.5-3.3-3.3v-5.2l12.3-21.4c0.6-1.1,2.3-1.1,2.9,0l9.3,16.1l6.9,12
						C54.4,313.6,54.3,314.3,54,314.7z"/>
					<path class="st18" d="M66.2,314.7h-27l7.9-13.7l4.3-7.4c0.6-1,2-1,2.6,0L66.2,314.7z"/>
				</g>
				<g>
					<path class="st15" d="M-39.8,247.3c-2.1,0-3.9-1.7-3.9-3.9v-35.3c0-2.1,1.7-3.9,3.9-3.9h35.3c2.1,0,3.9,1.7,3.9,3.9v35.3
						c0,2.1-1.7,3.9-3.9,3.9H-39.8z"/>
					<path class="st11" d="M-4.4,205.3c1.6,0,2.9,1.3,2.9,2.9v35.3c0,1.6-1.3,2.9-2.9,2.9h-35.3c-1.6,0-2.9-1.3-2.9-2.9v-35.3
						c0-1.6,1.3-2.9,2.9-2.9H-4.4 M-4.4,203.3h-35.3c-2.7,0-4.9,2.2-4.9,4.9v35.3c0,2.7,2.2,4.9,4.9,4.9h35.3c2.7,0,4.9-2.2,4.9-4.9
						v-35.3C0.4,205.5-1.7,203.3-4.4,203.3L-4.4,203.3z"/>
				</g>
				<g>
					<path class="st19" d="M-6.9,314.7h-24.3c-4.3,0-7.7-3.5-7.7-7.7v-24.3c0-4.3,3.5-7.7,7.7-7.7h24.3c4.3,0,7.7,3.5,7.7,7.7V307
						C0.8,311.2-2.6,314.7-6.9,314.7z"/>
					<path class="st20" d="M-23.7,287.3l11.4,6.6c0.7,0.4,0.7,1.4,0,1.8l-11.4,6.6c-0.7,0.4-1.6-0.1-1.6-0.9v-13.2
						C-25.3,287.4-24.4,286.9-23.7,287.3z"/>
				</g>
				<g>
					<path class="st18" d="M19.4,354.2c-0.1-0.6-0.1-1.2,0.1-1.8c0.5-2,1.1-5.8-0.2-10c-2.2-6.9-11.1-13-11.1-13s2.4,10.1,4.4,14.5
						c1.5,3.2,4,6.8,5.4,8.6c0.4,0.5,0.7,1.1,0.8,1.8c1.4,8,1.2,14.1,1.2,14.2h0.7C20.6,368.5,20.9,362.3,19.4,354.2z"/>
					<path class="st21" d="M26.5,347.8c1.8-5.6,2.6-12.2,2.6-12.2s-8,6.6-8.6,11.7c-0.4,3.1,0.1,5.6,0.5,7.1
						c0.2,0.6,0.3,1.3,0.2,1.9c-0.8,7.5-0.2,13.3-0.2,13.4l0.6-0.1c0-0.1-0.6-5.4,0.1-12.5c0.1-1,0.5-1.9,1.1-2.6
						C24,353,25.6,350.7,26.5,347.8z"/>
					<path class="st18" d="M34.6,335.3c0,0-8.6,3.2-10.9,10.2c-1.4,4.3-0.7,8.2-0.2,10.3c0.2,0.6,0.1,1.2,0,1.8
						c-2,8.1-2,16.5-2,16.6h0.7c0-0.1,0-8.3,2-16.2c0.2-0.8,0.5-1.5,1-2.2c1.5-2,4-5.5,5.4-8.7C32.7,342.7,34.6,335.3,34.6,335.3z"
						/>
					<path class="st21" d="M19.4,365c-0.2-2.9-1-5.6-2-7.8c-0.2-0.4-0.3-0.9-0.2-1.4c0.1-0.9,0.2-2.4-0.2-4.2
						c-0.7-3.5-5.3-10.9-11.9-11.3c0,0,2.3,3.7,3.5,6.8c1.5,3.9,3.6,8,7.1,9.5c0.6,0.3,1.1,0.8,1.4,1.4c0.9,2.1,1.5,4.5,1.7,7.1
						L19.4,365z"/>
					<g>
						<g>
							<path class="st18" d="M15,380.1h10.9l2.8-17.4c0.1-0.8-0.5-1.5-1.2-1.5H13.4c-0.8,0-1.4,0.7-1.2,1.5L15,380.1z"/>
						</g>
					</g>
				</g>
				<g>
					<path class="st22" d="M-33,342.4c1.1,19-9.7,38.6-33.4,46.2c-21.8,7-45.6,7.1-67.1-2.5c-39-17.5-17.7-59.5,9.3-76.1
						c12.5-7.7,27.8-12.2,43.2-11.6C-50.8,299.6-34.2,320.6-33,342.4"/>
					<path class="st7" d="M-38.2,334c1.1,19-9.7,38.6-33.4,46.2c-21.8,7-45.6,7.1-67.1-2.5c-39-17.5-17.7-59.5,9.3-76.1
						c12.5-7.7,27.8-12.2,43.2-11.6C-56.1,291.2-39.5,312.2-38.2,334"/>
					<path class="st20" d="M-112.8,358.5c-6.7-0.4-13.4-1.9-19.4-4.7c-30.4-14-10.1-42.4,13.6-52.8c10.3-4.5,21.6-6.5,31.7-5.4
						c0.7,0.1,1.4,0.2,2,0.2c8.5,1.2,14.7,4.4,19.1,9.8c4.5,5.5,6.7,13,6,20.7C-61.5,346.8-88,360.1-112.8,358.5z"/>
				</g>
				<g>
					<path class="st23" d="M-124.2,282.2c4.6,6.3-2.4,19.3-15.6,29s-27.7,12.4-32.3,6.2c-4.6-6.3,2.4-19.3,15.6-29
						C-143.3,278.6-128.8,275.9-124.2,282.2z"/>
					<path class="st23" d="M-70,324.2c0,24.4-18.7,34.6-41.7,34.6s-41.7-10.2-41.7-34.6s18.7-53.8,41.7-53.8
						C-88.7,270.4-70,299.7-70,324.2z"/>
					<g>
						<path class="st20" d="M-80.6,192.3c0,0,8.4-2.9,10.8,3.2c0,0-8.4-2.2-6.7,3.6"/>
						<path class="st20" d="M-78.6,193.9c0,0,0.9-8.9-5.6-9.8c0,0,4.1,7.7-2,7.4"/>
					</g>
					<path class="st20" d="M-178.4,266.7c0,0.3,0,0.5,0,0.8c-0.2,3.8,0.9,8.5,3.5,11.4c2.8,3,8.3,3.6,12.2,4.1
						c2.1,0.3,4.4,0.5,6.4,0c4-1.1,5.7-4.6,6.7-7.7c2.9-9.1,3.5-18.5,4-27.9c0.4-7.9,1.1-19.5-7.8-25.3c-6-3.9-8.7-2.8-11.3,2.4
						c-3.6,7.2-2.8,15.5-5.8,22.9c-1.3,3.1-3.2,6-4.7,9C-176.9,259.6-178.2,263.1-178.4,266.7z"/>
					<path class="st24" d="M-114.9,325.2c17.1-1.9,31.2,5.5,32.3,15.4c1.1,10-11.3,18.9-28.3,20.7c-17.1,1.9-32.4-4-33.5-14
						C-145.5,337.4-131.9,327.1-114.9,325.2z"/>
					<path class="st24" d="M-92,309c-1.5-6.3-11.9-9.2-23.2-6.5s-19.2,10.1-17.7,16.4s11.9,9.2,23.2,6.5
						C-98.4,322.7-90.5,315.3-92,309z"/>
					<path class="st25" d="M-70.7,252.6c0,29.9-21.4,41.9-47.7,41.9c-14.2,0-31.8-3.6-40.4-16.3c-4.4-6.6-1.6-10.6,0.3-17.5
						c2-7.5,0.2-14.6-0.8-22c-1.2-8.4,2.5-18.8,6-26.3c6.4-13.6,18.9-26,34.8-26C-92,186.2-70.7,222.7-70.7,252.6z"/>
					<g>
						<g>
							<g>
								<path class="st20" d="M-137,260.9c0,4.2-3.4,7.6-7.6,7.6c-4.2,0-7.6-3.4-7.6-7.6s3.4-7.6,7.6-7.6
									C-140.4,253.3-137,256.7-137,260.9z"/>
							</g>
							<g>
								<path class="st26" d="M-143.6,266.3c-1.7,0-3.2-1.4-3.2-3.2c0-1.7,1.4-3.2,3.2-3.2s3.2,1.4,3.2,3.2
									C-140.5,264.9-141.9,266.3-143.6,266.3z"/>
							</g>
						</g>
						<g>
							<path class="st26" d="M-146.8,259.2c-1,0-1.7-0.8-1.7-1.7c0-1,0.8-1.7,1.7-1.7c1,0,1.7,0.8,1.7,1.7S-145.9,259.2-146.8,259.2
								z"/>
						</g>
					</g>
					<path class="st27" d="M-103.8,282.1c-0.5,1.5-3.6,1.8-6.9,0.7c-3.3-1.1-5.6-3.2-5.2-4.6c0.5-1.5,3.6-1.8,6.9-0.7
						C-105.6,278.6-103.3,280.6-103.8,282.1z"/>
					<path class="st27" d="M-142.4,273.3c-0.5,1.5-3.6,1.8-6.9,0.7c-3.3-1.1-5.6-3.2-5.2-4.6c0.5-1.5,3.6-1.8,6.9-0.7
						C-144.2,269.7-141.9,271.8-142.4,273.3z"/>
					<g>
						<g>
							<g>
								<path class="st20" d="M-99.6,269.4c0,4.2-3.4,7.6-7.6,7.6s-7.6-3.4-7.6-7.6s3.4-7.6,7.6-7.6
									C-103,261.9-99.6,265.3-99.6,269.4z"/>
							</g>
							<g>
								<path class="st26" d="M-106.3,274.9c-1.7,0-3.2-1.4-3.2-3.2c0-1.7,1.4-3.2,3.2-3.2c1.7,0,3.2,1.4,3.2,3.2
									C-103.1,273.5-104.5,274.9-106.3,274.9z"/>
							</g>
						</g>
						<g>
							<path class="st26" d="M-109.4,267.7c-1,0-1.7-0.8-1.7-1.7c0-1,0.8-1.7,1.7-1.7c1,0,1.7,0.8,1.7,1.7
								C-107.7,267-108.5,267.7-109.4,267.7z"/>
						</g>
					</g>
					<path class="st20" d="M-167.4,232c-0.7,9.6,2.2,18.7,11,24.5c0-5.5,4.7-10.1,9.9-11.7c5.2-1.6,10.9-0.7,16.2,0.5
						c9.5,2.3,18.6,6,27.2,10.5c7.2,3.8,11.9,10.6,14.9,18c1,2.4,2.2,4.4,2.5,7c0.1,0.7-0.2,8.5-1,8.2c7.8,2.7,16.8-0.8,22.4-6.8
						c5.6-6.1,8.4-14.2,10-22.3c3.9-19.8,0.9-41.9-12.5-56.9c-13.1-14.8-34.5-20.4-54.1-17.6c-10.1,1.5-20.1,5.1-28.1,11.4
						C-158.2,204.3-166.4,218.6-167.4,232z"/>
					<path class="st20" d="M-95.8,222.3c2,7.1,3.3,14.5,4.2,21.8c1.3,11.5,2.7,27.7-5.3,37.1c-1,1.2-2.1,2.2-2.9,3.6
						c-0.8,1.3-1.1,3-0.4,4.4c0.8,1.6,2.6,2.2,4.2,2.6c4.5,1.2,9.1,1.7,13.7,1.8c3.6,0,7.3-0.3,10.5-1.9c8.3-3.9,14-14.2,16.9-22.9
						c3.9-11.4,3.4-23.9,1.3-35.6C-59.7,199-95.8,222.3-95.8,222.3z"/>
					<path class="st28" d="M-94.6,275.9c-2.4,7.9-10,11.7-17.2,9.5c-7.2-2.2-11.4-9.5-9-17.5c2.4-7.9,9.4-9.9,16.6-7.7
						C-96.9,262.5-92.2,268-94.6,275.9z"/>
					<path class="st28" d="M-134.1,266.9c-2.3,7.6-9.3,11.3-16,9.3s-10.4-9-8.1-16.6c2.3-7.6,8.8-9.6,15.5-7.5
						C-136.1,254-131.8,259.2-134.1,266.9z"/>
					<line class="st28" x1="-134.1" y1="266.9" x2="-122" y2="270.2"/>
					<path class="st29" d="M-128.7,280.5c-0.2,0.8-1.7,1.2-3.3,0.7c-1.6-0.4-2.7-1.5-2.4-2.3"/>
					<path class="st24" d="M-130.3,327l0.1,2.5l0,0C-130.2,327.9-130.3,327-130.3,327z"/>
					<path class="st24" d="M-130.1,329.5l1.7,31c0.1,0,0.2,0,0.3,0.1C-128.8,348.4-129.7,334.9-130.1,329.5L-130.1,329.5z"/>
					<path class="st25" d="M-165.5,362.6c3.1,6.9,7.8,12,13,12c4.3,0,8.1-3.4,11.1-8.2L-165.5,362.6z"/>
					<path class="st30" d="M-106.9,300.8c0,3-2.4,5.3-5.3,5.3c-3,0-5.3-2.4-5.3-5.3c0-3,2.4-5.3,5.3-5.3
						C-109.3,295.4-106.9,297.8-106.9,300.8z"/>
					<path class="st23" d="M-82.6,340.7c-0.4-3.3-2.2-6.4-4.7-8.7c-3.4-3.1-7.8-4.8-12.3-5.8c-4.9-1.1-10.1-1.5-15.1-1.1
						c-3.3,0.3-12.7,0.7-14.9,3.5c-1.1,1.4-0.4,4.2-0.3,5.9c0.2,3,0.4,6,0.5,9c0.4,6,0.7,11.9,1.1,17.9c0,0.4,0.1,0.8,0.3,1
						s0.6,0.3,0.9,0.3c12.1,1.5,24.7-1.2,35.1-7.5c4.2-2.6,8.3-6.1,9.3-10.9C-82.5,343.1-82.4,341.9-82.6,340.7z"/>
					<path class="st24" d="M-130.3,299.2"/>
					<path class="st25" d="M-132.9,318.9c1.4,5.7,10,8.6,20,7.1l-6.5-22.2C-128.4,307.1-134.2,313.4-132.9,318.9z"/>
					<path class="st23" d="M-136,345.3c0-3.6-0.6-7.2-2.3-10.3c-3.1-5.8-10-9.3-16.5-8.5c-15.8,2.1-16,21.5-15.1,33.7
						c0,0.6,0.1,1.2,0.5,1.6c0.4,0.5,1.1,0.6,1.7,0.7c9.2,1.3,18.4,2.7,27.7,4c0.3,0,0.7,0.1,1-0.1c0.2-0.2,0.3-0.5,0.4-0.8
						c0.9-4.7,1.8-9.3,2.3-14.1C-136.1,349.4-136,347.3-136,345.3z"/>
					<polygon class="st31" points="-133.6,293.7 -140,304.7 -127.3,304.7 					"/>
					<g>
						<path class="st32" d="M-143.2,290.4l9.6,31.6c0.1,0.4,0.4,0.6,0.8,0.6l26.1,2c0.5,0,0.8,0.4,0.8,0.9v1.6
							c0,0.5-0.4,0.9-0.9,0.9l-71.5-1.3c-0.4,0-0.7-0.2-0.8-0.6l-12.6-32.9c-0.2-0.6,0.2-1.2,0.8-1.2l46.7-2.2
							C-143.7,289.8-143.4,290-143.2,290.4z"/>
					</g>
					<g>
						<path class="st33" d="M-161.9,307.4c-0.7-0.7-1.6-1-2.5-0.9l0,0h-0.1c-0.3,0-0.6,0.2-0.8,0.3c-0.7-0.4-1.4-0.4-2.1-0.2
							c-0.8,0.3-1.5,1-1.8,1.8c-0.6,1.6,0,3.4,1.3,4.3c0.4,0.3,0.9,0.4,1.4,0.4s0.9-0.1,1.3-0.4c0.6,0.3,1.3,0.4,2,0.2
							c0.8-0.2,1.4-0.7,1.8-1.5C-160.7,310.2-160.9,308.4-161.9,307.4z"/>
						<path class="st33" d="M-166.7,304.2c0.6,0.2,0.9,0.5,1.1,1.2c0.1,0.5,0.1,0.9,0.1,0.9c0,0.1,0.1,0.3,0.2,0.3l0,0
							c0.1,0,0.2-0.1,0.3-0.2c0,0,0.1-0.5-0.1-1.1c-0.2-0.8-0.7-1.3-1.5-1.5c-0.1,0-0.3,0-0.3,0.2
							C-166.9,304-166.8,304.2-166.7,304.2z"/>
						<path class="st33" d="M-164.6,306.3c0,0,0.1,0.1,0.2,0.1l0,0c1.4-0.2,2.4-0.5,3-1.1s0.7-1.2,0.8-1.7c0-0.1,0-0.2,0-0.2
							c0-0.1-0.1-0.1-0.2-0.1l0,0c-0.9,0-1.6,0.2-2.2,0.5c-0.5,0.2-0.9,0.6-1.2,1c-0.5,0.7-0.5,1.4-0.5,1.4
							C-164.7,306.2-164.7,306.2-164.6,306.3z"/>
					</g>
					<path class="st23" d="M-77.6,293c-0.9-1-1.9-1.8-3-2.5c-3.2-1.8-6.9-2.2-10.4-1.4c-3.5,0.8-6.8,2.6-9.7,4.8
						c-4.5,3.3-8.7,7.8-14,8.5c-0.9,0.1-1.9,0.1-2.8,0.4c-0.7,0.2-1.5,0.6-1.9,1.3c-0.6,0.9-0.1,1.9,0.1,2.8c0.5,2.3,1,4.6,1.6,6.9
						c1.1,4.6,2.4,9.1,3.7,13.6c0.3,1.1,0.7,2.3,1.6,2.9c0.7,0.5,1.6,0.5,2.4,0.3c3.2-0.4,6.1-2,9.1-3.3c6.7-2.9,14.2-4.5,19.5-9.9
						c2.7-2.8,4.7-6.4,5.9-10.2c0.8-2.4,1.3-5,1-7.5C-74.8,297.3-76,294.9-77.6,293z"/>
					<path class="st30" d="M-97.3,353.5c0,3-2.4,5.3-5.3,5.3c-3,0-5.3-2.4-5.3-5.3c0-3,2.4-5.3,5.3-5.3
						C-99.7,348.2-97.3,350.6-97.3,353.5z"/>
					<path class="st30" d="M-83.6,315.3c0,3-2.4,5.3-5.3,5.3c-3,0-5.3-2.4-5.3-5.3s2.4-5.3,5.3-5.3C-85.9,310-83.6,312.4-83.6,315.3
						z"/>
					<path class="st30" d="M-158.9,345.3c0,3-2.4,5.3-5.3,5.3c-3,0-5.3-2.4-5.3-5.3c0-3,2.4-5.3,5.3-5.3
						C-161.3,340-158.9,342.4-158.9,345.3z"/>
					<polygon class="st31" points="-97,327.6 -103.3,338.6 -90.6,338.6 					"/>
					<polygon class="st31" points="-108.7,308.1 -115.1,319.1 -102.4,319.1 					"/>
					<polygon class="st31" points="-148,327.7 -154.3,338.7 -141.6,338.7 					"/>
					
						<rect x="-127" y="338.1" transform="matrix(0.7071 -0.7071 0.7071 0.7071 -278.5118 14.5837)" class="st34" width="10.7" height="10.7"/>
					<rect x="-95.5" y="291.1" class="st34" width="10.7" height="10.7"/>
					
						<rect x="-149.2" y="350.9" transform="matrix(0.9579 -0.2871 0.2871 0.9579 -108.3316 -26.3036)" class="st34" width="10.7" height="10.7"/>
					<rect x="-83.4" y="325.2" class="st34" width="10.7" height="10.7"/>
					<path class="st25" d="M-144.4,347.4c0.7,6.3,7.1,11,16,13.1l-1.7-31C-139.2,333.8-145.1,340.7-144.4,347.4z"/>
				</g>
				<g>
					<path class="st21" d="M74.6,345.5c-1.1,19,9.7,38.6,33.4,46.2c21.8,7,45.6,7.1,67.1-2.5c39-17.5,17.7-59.5-9.3-76.1
						c-12.5-7.7-27.8-12.2-43.2-11.6C92.5,302.8,75.8,323.7,74.6,345.5"/>
					<path class="st35" d="M79.9,337.1c-1.1,19,9.7,38.6,33.4,46.2c21.8,7,45.6,7.1,67.1-2.5c39-17.5,17.7-59.5-9.3-76.1
						c-12.5-7.7-27.8-12.2-43.2-11.6C97.8,294.4,81.1,315.3,79.9,337.1"/>
					<path class="st20" d="M154.4,361.7c6.7-0.4,13.4-1.9,19.4-4.7c30.4-14,10.1-42.4-13.6-52.8c-10.3-4.5-21.6-6.5-31.7-5.4
						c-0.7,0.1-1.4,0.2-2,0.2c-8.5,1.2-14.7,4.4-19.1,9.8c-4.5,5.5-6.7,13-6,20.7C103.2,349.9,129.6,363.2,154.4,361.7z"/>
				</g>
				<g>
					<path class="st36" d="M109.9,325.7c0,24.7,18.9,35,42.2,35s42.2-10.3,42.2-35s-18.9-54.4-42.2-54.4
						C128.8,271.3,109.9,300.9,109.9,325.7z"/>
					<path class="st24" d="M173.6,320.3c1.6-6.4-6.5-13.8-17.9-16.6c-11.4-2.8-22,0.2-23.5,6.6c-1.6,6.4,6.5,13.8,17.9,16.6
						S172,326.8,173.6,320.3z"/>
					<g>
						<path class="st37" d="M181.1,307.1c-0.3,2.7-2.4,4.7-4.8,4.5c-0.8-0.1-1.5-0.4-2.1-0.9c-0.7,0.4-1.4,0.5-2.2,0.4
							c-2.4-0.2-4.1-2.6-3.8-5.3c0.3-2.7,2.4-4.7,4.8-4.5c0.8,0.1,1.5,0.4,2.1,0.9c0.7-0.4,1.4-0.5,2.2-0.4
							C179.6,302,181.3,304.4,181.1,307.1z"/>
						<path class="st38" d="M173.9,300.5c0,0,0.4-4-5.6-4.8C168.6,297.4,169,299.5,173.9,300.5z"/>
						<path class="st39" d="M169.7,302.2c-1.7,1.6-2.3,4.3-1.3,6.4c1,2.2,3.5,3.5,5.8,2.4c1.3,0.9,2.9,1.1,4.3,0.4
							c2.3-1.1,3.4-4.1,2.6-6.5c-0.8-2.6-3.5-4.3-6.1-3.1c-0.3-0.2-0.8-0.6-1.2-0.6c-0.1,0-0.1,0-0.2-0.1c-0.2-0.1-0.5-0.1-0.7-0.1
							C171.8,300.9,170.6,301.4,169.7,302.2z M168.6,305.5c0.4-2.2,2.4-4.3,4.8-3.7c0.3,0.1,0.7,0.2,1,0.4c0.7,0.4,1.3,1.1,1.7,1.9
							c0.2,0.4,0.3,0.9,0.4,1.3c0,0.2,0.1,0.5,0.1,0.7s-0.1,0.5,0,0.7s0.3,0.3,0.5,0.2c0.2-0.1,0.2-0.3,0.2-0.5c0-0.5,0-1.1-0.1-1.6
							c-0.2-0.9-0.7-1.8-1.3-2.5c1.4-0.5,2.9-0.1,3.9,1c1.7,1.9,1.6,5-0.2,6.8c-0.8,0.8-2,1.3-3.2,1.1c-0.4-0.1-0.8-0.2-1.1-0.4
							c-0.3-0.1-0.6-0.5-0.8-0.5s-0.4,0.2-0.6,0.2c-0.2,0.1-0.3,0.1-0.5,0.2c-0.4,0.1-0.7,0.1-1.1,0.1
							C169.5,310.6,168.2,307.8,168.6,305.5z"/>
						<path class="st39" d="M174.2,311.2c-1,0.5-2.2,0.5-3.2,0.1c-1.2-0.4-2.2-1.4-2.7-2.6c-1-2.2-0.4-5,1.3-6.6
							c1.2-1,2.7-1.5,4.1-1.1c0.1,0,0.1,0,0.2,0.1c0.4,0,0.9,0.4,1.2,0.6c1.1-0.5,2.3-0.5,3.5,0c1.3,0.6,2.3,1.8,2.7,3.2
							c0.8,2.6-0.4,5.5-2.7,6.7c-0.7,0.4-1.5,0.5-2.3,0.4C175.5,311.9,174.8,311.6,174.2,311.2z M175.2,302
							c-0.3-0.2-0.9-0.6-1.2-0.6c-0.1,0-0.1,0-0.2-0.1c-1.4-0.4-2.8,0-3.9,1c-1.7,1.5-2.2,4.2-1.3,6.3c0.5,1.2,1.4,2.1,2.6,2.5
							c1,0.4,2.1,0.3,3.1-0.1h0.1h0.1c1.2,0.9,2.8,1.1,4.2,0.4c2.2-1.1,3.3-3.9,2.6-6.4c-0.4-1.3-1.4-2.5-2.6-3
							c-0.4-0.2-0.8-0.3-1.2-0.3C176.5,301.5,175.8,301.7,175.2,302z M169.4,309.4c-0.8-1.1-1.2-2.6-0.9-4c0.2-1.3,1-2.6,2.1-3.3
							c0.9-0.6,1.9-0.7,2.8-0.5c0.4,0.1,0.7,0.2,1,0.4c0.7,0.4,1.3,1.1,1.7,1.9c0.2,0.4,0.3,0.9,0.4,1.4c0,0.2,0.1,0.5,0.1,0.7
							c0,0.1,0,0.2,0,0.3c0,0.1,0,0.3,0,0.4s0.1,0.1,0.1,0.1s0.1,0,0.2,0c0.1-0.1,0.1-0.2,0.1-0.4v-0.1c0-0.5,0-1-0.1-1.5
							c-0.2-1-0.7-1.8-1.3-2.5l-0.1-0.1l0.2-0.1c1.4-0.5,3-0.2,4.1,1c1.7,1.9,1.6,5.1-0.2,7c-0.9,0.9-2.1,1.3-3.3,1.2
							c-0.4-0.1-0.8-0.2-1.2-0.4c-0.1-0.1-0.2-0.1-0.3-0.2c-0.2-0.1-0.3-0.3-0.5-0.3c-0.1,0-0.2,0.1-0.3,0.1s-0.1,0.1-0.2,0.1
							c-0.2,0.1-0.3,0.1-0.5,0.2c-0.4,0.1-0.8,0.1-1.2,0.1C171,310.8,170.1,310.3,169.4,309.4z M174.9,310.6
							c0.1,0.1,0.2,0.1,0.3,0.2c0.3,0.2,0.7,0.3,1.1,0.4c1.1,0.2,2.2-0.3,3.1-1.1c1.8-1.8,1.9-4.9,0.2-6.7c-1-1-2.4-1.4-3.7-1
							c0.6,0.7,1,1.5,1.3,2.4c0.1,0.5,0.2,1.1,0.1,1.6v0.1c0,0.2,0,0.4-0.2,0.6c-0.1,0.1-0.2,0.1-0.4,0c-0.1-0.1-0.2-0.2-0.3-0.3
							c0-0.1,0-0.3,0-0.5c0-0.1,0-0.2,0-0.2c0-0.2,0-0.5-0.1-0.7c-0.1-0.5-0.2-0.9-0.4-1.3c-0.4-0.8-0.9-1.4-1.6-1.8
							c-0.3-0.2-0.6-0.3-0.9-0.4c-0.9-0.2-1.8-0.1-2.6,0.5c-1,0.7-1.8,1.9-2,3.1c-0.2,1.3,0.1,2.8,0.9,3.8c0.6,0.8,1.5,1.3,2.5,1.4
							c0.4,0,0.7,0,1.1-0.1c0.2,0,0.3-0.1,0.5-0.1c0.1,0,0.1-0.1,0.2-0.1c0.1-0.1,0.3-0.2,0.4-0.1
							C174.5,310.3,174.7,310.4,174.9,310.6z"/>
						<path class="st39" d="M175.1,301.2C175.1,301.2,175.2,301.2,175.1,301.2c0.2,0,0.4-0.2,0.3-0.3c0,0,0-0.7,0.2-1.5
							c0.3-1,1-1.6,2-1.8c0.2,0,0.3-0.2,0.2-0.4c0-0.2-0.2-0.3-0.4-0.2c-1.2,0.2-2.1,1-2.5,2.2c-0.3,0.9-0.3,1.7-0.3,1.7
							C174.9,301.1,175,301.2,175.1,301.2z"/>
						<path class="st39" d="M174.7,301c0,0,0-0.9,0.3-1.8c0.4-1.3,1.3-2,2.6-2.3c0.2,0,0.5,0.1,0.5,0.3c0,0.2-0.1,0.5-0.3,0.5
							c-0.9,0.2-1.6,0.7-1.9,1.7c-0.2,0.7-0.2,1.4-0.2,1.5c0,0.2-0.2,0.4-0.4,0.5c0,0,0,0-0.1,0C174.9,301.3,174.7,301.2,174.7,301z
							 M177.6,297.2c-1.2,0.2-2,1-2.4,2.1c-0.3,0.9-0.3,1.7-0.2,1.7c0,0.1,0.1,0.2,0.2,0.2c0.1,0,0.2-0.1,0.2-0.2s0-0.8,0.2-1.6
							c0.4-1,1.1-1.7,2.1-1.9c0.1,0,0.2-0.1,0.2-0.2C177.8,297.3,177.7,297.2,177.6,297.2z"/>
						<path class="st39" d="M173.9,300.7c-2.2-0.4-3.8-1.2-4.7-2.2c-0.8-1-1-2.1-1.1-2.8c0-0.1,0-0.2,0.1-0.2
							c0.1-0.1,0.1-0.1,0.2-0.1c1.4,0.2,2.6,0.5,3.5,1.1c0.7,0.5,1.3,1,1.7,1.7c0.7,1.2,0.6,2.2,0.6,2.3c0,0.1,0,0.1-0.1,0.2
							C174,300.7,173.9,300.7,173.9,300.7z M169.6,298.2c0.8,0.9,2.1,1.5,4,2c0-0.4-0.1-1-0.5-1.6c-0.3-0.6-0.9-1.1-1.5-1.5
							c-0.8-0.5-1.8-0.8-2.9-1C168.8,296.8,169,297.6,169.6,298.2z"/>
						<path class="st20" d="M173.8,300.8c-2.3-0.4-3.8-1.2-4.7-2.3c-0.9-1-1-2.1-1.1-2.9c0-0.1,0-0.2,0.1-0.3
							c0.1-0.1,0.2-0.1,0.3-0.1c1.4,0.2,2.6,0.6,3.5,1.1c0.8,0.5,1.4,1,1.8,1.7c0.7,1.2,0.6,2.3,0.6,2.3c0,0.1-0.1,0.2-0.2,0.3
							C174.1,300.8,174,300.9,173.8,300.8C173.9,300.8,173.8,300.8,173.8,300.8z M168.2,295.7C168.2,295.7,168.1,295.8,168.2,295.7
							c0.1,0.8,0.3,1.9,1.1,2.8c0.9,1,2.4,1.7,4.6,2.2h0.1l0.1-0.1c0,0,0.1-1.1-0.6-2.2c-0.4-0.7-1-1.2-1.7-1.7
							C170.9,296.2,169.7,295.8,168.2,295.7C168.3,295.6,168.3,295.6,168.2,295.7z M173.6,300.2c-2-0.4-3.3-1.1-4.1-2
							c-0.6-0.7-0.8-1.5-0.9-2.2v-0.2h0.2c1.2,0.2,2.2,0.5,3,1c0.7,0.4,1.2,0.9,1.6,1.6c0.4,0.7,0.5,1.3,0.5,1.7v0.2L173.6,300.2z
							 M169.7,298.2c0.7,0.9,2,1.5,3.8,1.9c0-0.4-0.2-0.9-0.5-1.4c-0.3-0.6-0.8-1.1-1.5-1.5s-1.6-0.7-2.7-0.9
							C168.9,296.9,169.2,297.5,169.7,298.2z"/>
						<path class="st40" d="M173.8,300.8c-2.3-0.4-3.8-1.2-4.7-2.3c-0.9-1-1-2.1-1.1-2.9c0-0.1,0-0.2,0.1-0.3
							c0.1-0.1,0.2-0.1,0.3-0.1c1.4,0.2,2.6,0.6,3.5,1.1c0.8,0.5,1.4,1,1.8,1.7c0.7,1.2,0.6,2.3,0.6,2.3c0,0.1-0.1,0.2-0.2,0.3
							C174.1,300.8,174,300.9,173.8,300.8z M168.2,295.7C168.2,295.7,168.1,295.8,168.2,295.7c0.1,0.8,0.3,1.9,1.1,2.8
							c0.9,1,2.4,1.7,4.6,2.2h0.1l0.1-0.1c0,0,0.1-1.1-0.6-2.2c-0.4-0.7-1-1.2-1.7-1.7C170.9,296.2,169.7,295.8,168.2,295.7
							C168.3,295.6,168.3,295.6,168.2,295.7z M173.6,300.2c-2-0.4-3.3-1.1-4.1-2c-0.6-0.7-0.8-1.5-0.9-2.2v-0.2h0.2
							c1.2,0.2,2.2,0.5,3,1c0.7,0.4,1.2,0.9,1.6,1.6c0.4,0.7,0.5,1.3,0.5,1.7v0.2L173.6,300.2z M169.7,298.2c0.7,0.9,2,1.5,3.8,1.9
							c0-0.4-0.2-0.9-0.5-1.4c-0.3-0.6-0.8-1.1-1.5-1.5s-1.6-0.7-2.7-0.9C168.9,296.9,169.2,297.5,169.7,298.2z"/>
						<path class="st39" d="M176.5,308.1c0.2,0,0.3-0.1,0.3-0.3c0-0.2-0.1-0.3-0.3-0.3s-0.3,0.1-0.3,0.3
							C176.2,307.9,176.4,308.1,176.5,308.1z"/>
						<path class="st39" d="M176.1,307.7c0-0.2,0.2-0.4,0.5-0.4c0.2,0,0.4,0.2,0.4,0.5c0,0.2-0.2,0.4-0.5,0.4
							C176.3,308.2,176.1,308,176.1,307.7z M176.4,307.8c0,0.1,0.1,0.2,0.2,0.2c0.1,0,0.2-0.1,0.2-0.2s-0.1-0.2-0.2-0.2
							C176.5,307.6,176.4,307.7,176.4,307.8z"/>
					</g>
					<path class="st24" d="M170.9,328.6l-0.1,2.5C170.8,329.5,170.9,328.6,170.9,328.6z"/>
					<path class="st41" d="M198.1,326.4c-13.4-0.8-24.7,7.1-25.8,16.6c-1.1,9.6,8.6,17.3,22,18.1c13.4,0.8,25.6-5.8,26.7-15.3
						C222,336.2,211.5,327.1,198.1,326.4z"/>
					<path class="st42" d="M220.4,346c-0.7,6.1-5.8,10.8-12.8,13.4l2-29.7C216.5,333.3,221.1,339.5,220.4,346z"/>
					<path class="st41" d="M155.3,326.8c-17.3-1.9-31.5,5.5-32.7,15.6c-1.1,10.1,11.4,19.1,28.7,21s32.7-4.1,33.8-14.1
						C186.3,339.1,172.6,328.7,155.3,326.8z"/>
					<path class="st42" d="M184.4,349.4c-0.7,6.4-7.2,11.1-16.2,13.2l1.8-31.4C179.2,335.7,185.1,342.6,184.4,349.4z"/>
					<path class="st24" d="M119.8,340.4c-3.4,4.2-5.7,9.2-5.8,14.3c0,1.4-0.1,1.9,1.5,1.8c1.8,0,3.6-0.5,5.4-0.7
						c2.2-0.2,4.4-0.3,6.6-0.4c1.6,0,3.6,0.4,5.2,0.1c1.8-0.3,3.6-1.3,5.5-1.8c2-0.5,4.1-0.8,6.3-1c3.1-0.3,6.5,0,9.6-0.4
						c1.3-0.2,2.2-1.1,3.3-1.8c1.3-0.8,2.7-1.5,4.2-2.1c2.9-1.1,6-1.8,9.1-2.1c1.1-0.1,2.6,0.2,3.7-0.1c1.1-0.2,2-1.1,2.8-1.7
						c2-1.5,4.1-3.1,6.5-4.2c2.2-1.1,4.5-1.9,7-2.3c2.6-0.5,4.6-0.4,6.5-2.3c1-0.9,1.2-2.2,2.3-3.2c1.2-1.1,2.8-1.8,4.5-2.2
						c0.7-0.2,1.5-0.4,1.8-0.9c-8.2-3.6-16.8-4.8-25.9-5.9c-9.2-1-18.5-1.3-27.7,0.1c-9.3,1.4-18.3,4.8-25.3,10.2
						C124.6,335.4,122.1,337.7,119.8,340.4z"/>
					<path class="st29" d="M125.3,334.6l5.8,20.5"/>
					<path class="st29" d="M132.8,330l20.8,21.9"/>
					<path class="st29" d="M143,326.3l31.6,19.9"/>
					<path class="st29" d="M156.6,323.2l36.6,13.9"/>
					<path class="st36" d="M117.7,294.2c0.9-1,1.9-1.9,3-2.5c3.2-1.9,7.1-2.2,10.5-1.4c3.6,0.8,6.9,2.6,9.8,4.9
						c4.5,3.4,8.8,7.9,14.1,8.6c1,0.1,1.9,0.1,2.9,0.4c0.7,0.2,1.5,0.6,2,1.4c0.6,0.9,0.1,1.9-0.1,2.9c-0.5,2.4-1.1,4.7-1.6,7.1
						c-1.1,4.6-2.4,9.2-3.8,13.7c-0.3,1.1-0.8,2.3-1.7,2.9c-0.7,0.5-1.6,0.5-2.5,0.3c-3.2-0.4-6.2-2-9.2-3.3
						c-6.8-2.9-14.3-4.6-19.7-10c-2.7-2.8-4.7-6.5-6-10.3c-0.8-2.5-1.4-5.1-1.1-7.7C114.8,298.5,116,296.1,117.7,294.2z"/>
					<path class="st37" d="M132.4,304.9c-0.3,2.7-2.4,4.7-4.8,4.5c-0.8-0.1-1.5-0.4-2.1-0.9c-0.7,0.4-1.4,0.5-2.2,0.4
						c-2.4-0.2-4.1-2.6-3.8-5.3c0.3-2.7,2.4-4.7,4.8-4.5c0.8,0.1,1.5,0.4,2.1,0.9c0.7-0.4,1.4-0.5,2.2-0.4
						C130.9,299.9,132.6,302.2,132.4,304.9z"/>
					<path class="st38" d="M125.2,298.4c0,0,0.4-4-5.6-4.8C120,295.3,120.4,297.4,125.2,298.4z"/>
					<path class="st39" d="M121.1,300.1c-1.7,1.6-2.3,4.3-1.3,6.4c1,2.2,3.5,3.5,5.8,2.4c1.3,0.9,2.9,1.1,4.3,0.4
						c2.3-1.1,3.4-4.1,2.6-6.5c-0.8-2.6-3.5-4.3-6.1-3.1c-0.3-0.2-0.8-0.6-1.2-0.6c-0.1,0-0.1,0-0.2-0.1c-0.2-0.1-0.5-0.1-0.7-0.1
						C123.2,298.8,122,299.2,121.1,300.1z M120,303.3c0.4-2.2,2.4-4.3,4.8-3.7c0.3,0.1,0.7,0.2,1,0.4c0.7,0.4,1.3,1.1,1.7,1.9
						c0.2,0.4,0.3,0.9,0.4,1.3c0,0.2,0.1,0.5,0.1,0.7s-0.1,0.5,0,0.7c0.1,0.2,0.3,0.3,0.5,0.2c0.2-0.1,0.2-0.3,0.2-0.5
						c0-0.5,0-1.1-0.1-1.6c-0.2-0.9-0.7-1.8-1.3-2.5c1.4-0.5,2.9-0.1,3.9,1c1.7,1.9,1.6,5-0.2,6.8c-0.8,0.8-2,1.3-3.2,1.1
						c-0.4-0.1-0.8-0.2-1.1-0.4c-0.3-0.1-0.6-0.5-0.8-0.5c-0.2,0-0.4,0.2-0.6,0.2c-0.2,0.1-0.3,0.1-0.5,0.2
						c-0.4,0.1-0.7,0.1-1.1,0.1C120.9,308.4,119.6,305.6,120,303.3z"/>
					<path class="st39" d="M125.5,309c-1,0.5-2.2,0.5-3.2,0.1c-1.2-0.4-2.2-1.4-2.7-2.6c-1-2.2-0.4-5,1.3-6.6c1.2-1,2.7-1.5,4.1-1.1
						c0.1,0,0.1,0,0.2,0.1c0.4,0,0.9,0.4,1.2,0.6c1.1-0.5,2.3-0.5,3.5,0c1.3,0.6,2.3,1.8,2.7,3.2c0.8,2.6-0.4,5.5-2.7,6.7
						c-0.7,0.4-1.5,0.5-2.3,0.4C126.8,309.7,126.1,309.5,125.5,309z M126.5,299.8L126.5,299.8c-0.3-0.2-0.9-0.6-1.2-0.6
						c-0.1,0-0.1,0-0.2-0.1c-1.4-0.4-2.8,0-3.9,1c-1.7,1.5-2.2,4.2-1.3,6.3c0.5,1.2,1.4,2.1,2.6,2.5c1,0.4,2.1,0.3,3.1-0.1h0.1h0.1
						c1.2,0.9,2.8,1.1,4.2,0.4c2.2-1.1,3.3-3.9,2.6-6.4c-0.4-1.3-1.4-2.5-2.6-3c-0.4-0.2-0.8-0.3-1.2-0.3
						C127.8,299.4,127.1,299.5,126.5,299.8z M120.8,307.3c-0.8-1.1-1.2-2.6-0.9-4c0.2-1.3,1-2.6,2.1-3.3c0.9-0.6,1.9-0.7,2.8-0.5
						c0.4,0.1,0.7,0.2,1,0.4c0.7,0.4,1.3,1.1,1.7,1.9c0.2,0.4,0.3,0.9,0.4,1.4c0,0.2,0.1,0.5,0.1,0.7c0,0.1,0,0.2,0,0.3
						c0,0.1,0,0.3,0,0.4s0.1,0.1,0.1,0.1s0.1,0,0.2,0c0.1-0.1,0.1-0.2,0.1-0.4v-0.1c0-0.5,0-1-0.1-1.5c-0.2-1-0.7-1.8-1.3-2.5
						l-0.2-0.1l0.2-0.1c1.4-0.5,3-0.2,4.1,1c1.7,1.9,1.6,5.1-0.2,7c-0.9,0.9-2.1,1.3-3.3,1.2c-0.4-0.1-0.8-0.2-1.2-0.4
						c-0.1-0.1-0.2-0.1-0.3-0.2c-0.2-0.1-0.3-0.3-0.5-0.3c-0.1,0-0.2,0.1-0.3,0.1c-0.1,0-0.1,0.1-0.2,0.1c-0.2,0.1-0.3,0.1-0.5,0.2
						c-0.4,0.1-0.8,0.1-1.2,0.1C122.4,308.7,121.5,308.1,120.8,307.3z M126.2,308.4c0.1,0.1,0.2,0.1,0.3,0.2
						c0.3,0.2,0.7,0.3,1.1,0.4c1.1,0.2,2.2-0.3,3.1-1.1c1.8-1.8,1.9-4.9,0.2-6.7c-1-1-2.4-1.4-3.7-1c0.6,0.7,1,1.5,1.3,2.4
						c0.1,0.5,0.2,1.1,0.1,1.6v0.1c0,0.2,0,0.4-0.2,0.6c-0.1,0.1-0.2,0.1-0.4,0c-0.1-0.1-0.2-0.2-0.3-0.3c0-0.1,0-0.3,0-0.5
						c0-0.1,0-0.2,0-0.2c0-0.2,0-0.5-0.1-0.7c-0.1-0.5-0.2-0.9-0.4-1.3c-0.4-0.8-0.9-1.4-1.6-1.8c-0.3-0.2-0.6-0.3-0.9-0.4
						c-0.9-0.2-1.8-0.1-2.6,0.5c-1,0.7-1.8,1.9-2,3.1c-0.2,1.3,0.1,2.8,0.9,3.8c0.6,0.8,1.5,1.3,2.5,1.4c0.4,0,0.7,0,1.1-0.1
						c0.2,0,0.3-0.1,0.5-0.1c0.1,0,0.1-0.1,0.2-0.1c0.1-0.1,0.3-0.2,0.4-0.1C125.8,308.1,126,308.3,126.2,308.4z"/>
					<path class="st39" d="M126.4,299.1C126.4,299.1,126.5,299.1,126.4,299.1c0.2,0,0.4-0.2,0.3-0.3c0,0,0-0.7,0.2-1.5
						c0.3-1,1-1.6,2-1.8c0.2,0,0.3-0.2,0.2-0.4c0-0.2-0.2-0.3-0.4-0.2c-1.2,0.2-2.1,1-2.5,2.2c-0.3,0.9-0.3,1.7-0.3,1.7
						C126.2,298.9,126.3,299.1,126.4,299.1z"/>
					<path class="st20" d="M126,298.8c0,0,0-0.9,0.3-1.8c0.4-1.3,1.3-2,2.6-2.3c0.2,0,0.5,0.1,0.5,0.3c0,0.2-0.1,0.5-0.3,0.5
						c-0.9,0.2-1.6,0.7-1.9,1.7c-0.2,0.7-0.2,1.4-0.2,1.5c0,0.2-0.2,0.4-0.4,0.5c0,0,0,0-0.1,0C126.2,299.2,126,299,126,298.8z
						 M128.9,295.1c-1.2,0.2-2,1-2.4,2.1c-0.3,0.9-0.3,1.7-0.2,1.7c0,0.1,0.1,0.2,0.2,0.2s0.2-0.1,0.2-0.2s0-0.8,0.2-1.6
						c0.4-1,1.1-1.7,2.1-1.9c0.1,0,0.2-0.1,0.2-0.2C129.1,295.1,129,295.1,128.9,295.1C128.9,295,128.9,295,128.9,295.1z"/>
					<path class="st40" d="M128.9,295.1c-1.2,0.2-2,1-2.4,2.1c-0.3,0.9-0.3,1.7-0.2,1.7c0,0.1,0.1,0.2,0.2,0.2s0.2-0.1,0.2-0.2
						s0-0.8,0.2-1.6c0.4-1,1.1-1.7,2.1-1.9c0.1,0,0.2-0.1,0.2-0.2C129.1,295.1,129,295.1,128.9,295.1z M126,298.8c0,0,0-0.9,0.3-1.8
						c0.4-1.3,1.3-2,2.6-2.3c0.2,0,0.5,0.1,0.5,0.3c0,0.2-0.1,0.5-0.3,0.5c-0.9,0.2-1.6,0.7-1.9,1.7c-0.2,0.7-0.2,1.4-0.2,1.5
						c0,0.2-0.2,0.4-0.4,0.5c0,0,0,0-0.1,0C126.2,299.2,126,299,126,298.8z"/>
					<path class="st39" d="M125.2,298.6c-2.2-0.4-3.8-1.2-4.7-2.2c-0.8-1-1-2.1-1.1-2.8c0-0.1,0-0.2,0.1-0.2
						c0.1-0.1,0.1-0.1,0.2-0.1c1.4,0.2,2.6,0.5,3.5,1.1c0.7,0.5,1.3,1,1.7,1.7c0.7,1.2,0.6,2.2,0.6,2.3c0,0.1,0,0.1-0.1,0.2
						C125.3,298.6,125.2,298.6,125.2,298.6z M121,296.1c0.8,0.9,2.1,1.5,4,2c0-0.4-0.1-1-0.5-1.6c-0.3-0.6-0.9-1.1-1.5-1.5
						c-0.8-0.5-1.8-0.8-2.9-1C120.2,294.7,120.4,295.4,121,296.1z"/>
					<path class="st20" d="M125.1,298.7c-2.3-0.4-3.8-1.2-4.7-2.3c-0.9-1-1-2.1-1.1-2.9c0-0.1,0-0.2,0.1-0.3
						c0.1-0.1,0.2-0.1,0.3-0.1c1.4,0.2,2.6,0.6,3.5,1.1c0.8,0.5,1.4,1,1.8,1.7c0.7,1.2,0.6,2.3,0.6,2.3c0,0.1-0.1,0.2-0.2,0.3
						C125.4,298.7,125.3,298.7,125.1,298.7C125.2,298.7,125.1,298.7,125.1,298.7z M119.6,293.5c0,0-0.1,0.1,0,0.1
						c0.1,0.7,0.3,1.8,1.1,2.7c0.9,1,2.4,1.7,4.6,2.2h0.1l0.1-0.1c0,0,0.1-1.1-0.6-2.2c-0.4-0.7-1-1.2-1.7-1.7
						c-0.9-0.5-2.1-0.9-3.5-1.1C119.7,293.4,119.7,293.5,119.6,293.5z M124.9,298.2c-2-0.4-3.3-1.1-4.1-2c-0.6-0.7-0.8-1.5-0.9-2.2
						v-0.2h0.2c1.2,0.2,2.2,0.5,3,1c0.7,0.4,1.2,0.9,1.6,1.6s0.5,1.3,0.5,1.7v0.2L124.9,298.2z M121.1,296c0.7,0.9,2,1.5,3.8,1.9
						c0-0.4-0.2-0.9-0.5-1.4c-0.3-0.6-0.8-1.1-1.5-1.5s-1.6-0.7-2.7-0.9C120.3,294.7,120.6,295.4,121.1,296z"/>
					<path class="st40" d="M125.1,298.7c-2.3-0.4-3.8-1.2-4.7-2.3c-0.9-1-1-2.1-1.1-2.9c0-0.1,0-0.2,0.1-0.3
						c0.1-0.1,0.2-0.1,0.3-0.1c1.4,0.2,2.6,0.6,3.5,1.1c0.8,0.5,1.4,1,1.8,1.7c0.7,1.2,0.6,2.3,0.6,2.3c0,0.1-0.1,0.2-0.2,0.3
						C125.4,298.7,125.3,298.7,125.1,298.7z M119.6,293.5c0,0-0.1,0.1,0,0.1c0.1,0.7,0.3,1.8,1.1,2.7c0.9,1,2.4,1.7,4.6,2.2h0.1
						l0.1-0.1c0,0,0.1-1.1-0.6-2.2c-0.4-0.7-1-1.2-1.7-1.7c-0.9-0.5-2.1-0.9-3.5-1.1C119.7,293.4,119.7,293.5,119.6,293.5z
						 M124.9,298.2c-2-0.4-3.3-1.1-4.1-2c-0.6-0.7-0.8-1.5-0.9-2.2v-0.2h0.2c1.2,0.2,2.2,0.5,3,1c0.7,0.4,1.2,0.9,1.6,1.6
						s0.5,1.3,0.5,1.7v0.2L124.9,298.2z M121.1,296c0.7,0.9,2,1.5,3.8,1.9c0-0.4-0.2-0.9-0.5-1.4c-0.3-0.6-0.8-1.1-1.5-1.5
						s-1.6-0.7-2.7-0.9C120.3,294.7,120.6,295.4,121.1,296z"/>
					<path class="st39" d="M127.8,305.9c0.2,0,0.3-0.1,0.3-0.3c0-0.2-0.1-0.3-0.3-0.3s-0.3,0.1-0.3,0.3S127.7,305.9,127.8,305.9z"/>
					<path class="st39" d="M127.4,305.6c0-0.2,0.2-0.4,0.5-0.4c0.2,0,0.4,0.2,0.4,0.5c0,0.2-0.2,0.4-0.5,0.4
						C127.6,306,127.4,305.8,127.4,305.6z M127.7,305.6c0,0.1,0.1,0.2,0.2,0.2s0.2-0.1,0.2-0.2s-0.1-0.2-0.2-0.2
						C127.8,305.4,127.7,305.5,127.7,305.6z"/>
					<path class="st37" d="M152.6,318.2c-0.3,2.7-2.4,4.7-4.8,4.5c-0.8-0.1-1.5-0.4-2.1-0.9c-0.7,0.4-1.4,0.5-2.2,0.4
						c-2.4-0.2-4.1-2.6-3.8-5.3s2.4-4.7,4.8-4.5c0.8,0.1,1.5,0.4,2.1,0.9c0.7-0.4,1.4-0.5,2.2-0.4
						C151.2,313.2,152.9,315.5,152.6,318.2z"/>
					<path class="st38" d="M145.5,311.6c0,0,0.4-4-5.6-4.8C140.2,308.5,140.7,310.6,145.5,311.6z"/>
					<path class="st39" d="M141.3,313.4c-1.7,1.6-2.3,4.3-1.3,6.4c1,2.2,3.5,3.5,5.8,2.4c1.3,0.9,2.9,1.1,4.3,0.4
						c2.3-1.1,3.4-4.1,2.6-6.5c-0.8-2.6-3.5-4.3-6.1-3.1c-0.3-0.2-0.8-0.6-1.2-0.6c-0.1,0-0.1,0-0.2-0.1c-0.2-0.1-0.5-0.1-0.7-0.1
						C143.4,312.1,142.2,312.5,141.3,313.4z M140.2,316.6c0.4-2.2,2.4-4.3,4.8-3.7c0.3,0.1,0.7,0.2,1,0.4c0.7,0.4,1.3,1.1,1.7,1.9
						c0.2,0.4,0.3,0.9,0.4,1.3c0,0.2,0.1,0.5,0.1,0.7s-0.1,0.5,0,0.7s0.3,0.3,0.5,0.2c0.2-0.1,0.2-0.3,0.2-0.5c0-0.5,0-1.1-0.1-1.6
						c-0.2-0.9-0.7-1.8-1.3-2.5c1.4-0.5,2.9-0.1,3.9,1c1.7,1.9,1.6,5-0.2,6.8c-0.8,0.8-2,1.3-3.2,1.1c-0.4-0.1-0.8-0.2-1.1-0.4
						c-0.3-0.1-0.6-0.5-0.8-0.5s-0.4,0.2-0.6,0.2c-0.2,0.1-0.3,0.1-0.5,0.2c-0.4,0.1-0.7,0.1-1.1,0.1
						C141.1,321.6,139.8,318.8,140.2,316.6z"/>
					<path class="st39" d="M145.7,322.2c-1,0.5-2.2,0.5-3.2,0.1c-1.2-0.4-2.2-1.4-2.7-2.6c-1-2.2-0.4-5,1.3-6.6
						c1.2-1,2.7-1.5,4.1-1.1c0.1,0,0.1,0,0.2,0.1c0.4,0,0.9,0.4,1.2,0.6c1.1-0.5,2.3-0.5,3.5,0c1.3,0.6,2.3,1.8,2.7,3.2
						c0.8,2.6-0.4,5.5-2.7,6.7c-0.7,0.4-1.5,0.5-2.3,0.4C147.1,322.9,146.4,322.7,145.7,322.2z M146.7,313.1h-0.1
						c-0.2-0.2-0.8-0.6-1.1-0.6c-0.1,0-0.1,0-0.2-0.1c-1.4-0.4-2.8,0-3.9,1c-1.7,1.5-2.2,4.2-1.3,6.3c0.5,1.2,1.4,2.1,2.6,2.5
						c1,0.4,2.1,0.3,3.1-0.1h0.1h0.1c1.2,0.9,2.8,1.1,4.2,0.4c2.2-1.1,3.3-3.9,2.6-6.4c-0.4-1.3-1.4-2.5-2.6-3
						c-0.4-0.2-0.8-0.3-1.2-0.3C148.1,312.7,147.4,312.8,146.7,313.1z M141.1,320.5c-0.8-1.1-1.2-2.6-0.9-4c0.2-1.3,1-2.6,2.1-3.3
						c0.9-0.6,1.9-0.7,2.8-0.5c0.4,0.1,0.7,0.2,1,0.4c0.7,0.4,1.3,1.1,1.7,1.9c0.2,0.4,0.3,0.9,0.4,1.4c0,0.2,0.1,0.5,0.1,0.7
						c0,0.1,0,0.2,0,0.3c0,0.1,0,0.3,0,0.4s0.1,0.1,0.1,0.1s0.1,0,0.2,0c0.1-0.1,0.1-0.2,0.1-0.4v-0.1c0-0.5,0-1-0.1-1.5
						c-0.2-1-0.7-1.8-1.3-2.5l-0.1-0.1l0.2-0.1c1.4-0.5,3-0.2,4.1,1c1.7,1.9,1.6,5.1-0.2,7c-0.9,0.9-2.1,1.3-3.3,1.2
						c-0.4-0.1-0.8-0.2-1.2-0.4c-0.1-0.1-0.2-0.1-0.3-0.2c-0.2-0.1-0.3-0.3-0.5-0.3c-0.1,0-0.2,0.1-0.3,0.1s-0.1,0.1-0.2,0.1
						c-0.2,0.1-0.3,0.1-0.5,0.2c-0.4,0.1-0.8,0.1-1.2,0.1C142.6,321.9,141.7,321.4,141.1,320.5z M146.4,321.6
						c0.1,0.1,0.2,0.1,0.3,0.2c0.3,0.2,0.7,0.3,1.1,0.4c1.1,0.2,2.2-0.3,3.1-1.1c1.8-1.8,1.9-4.9,0.2-6.7c-1-1-2.4-1.4-3.7-1
						c0.6,0.7,1,1.5,1.3,2.4c0.1,0.5,0.2,1.1,0.1,1.6v0.1c0,0.2,0,0.4-0.2,0.6c-0.1,0.1-0.2,0.1-0.4,0c-0.1-0.1-0.2-0.2-0.3-0.3
						c0-0.1,0-0.3,0-0.5c0-0.1,0-0.2,0-0.2c0-0.2,0-0.5-0.1-0.7c-0.1-0.5-0.2-0.9-0.4-1.3c-0.4-0.8-0.9-1.4-1.6-1.8
						c-0.3-0.2-0.6-0.3-0.9-0.4c-0.9-0.2-1.8-0.1-2.6,0.5c-1,0.7-1.8,1.9-2,3.1c-0.2,1.3,0.1,2.8,0.9,3.8c0.6,0.8,1.5,1.3,2.5,1.4
						c0.4,0,0.7,0,1.1-0.1c0.2,0,0.3-0.1,0.5-0.1c0.1,0,0.1-0.1,0.2-0.1c0.1-0.1,0.3-0.2,0.4-0.1C146,321.3,146.2,321.5,146.4,321.6
						z"/>
					<path class="st39" d="M146.7,312.4c0.2,0,0.4-0.2,0.3-0.3c0,0,0-0.7,0.2-1.5c0.3-1,1-1.6,2-1.8c0.2,0,0.3-0.2,0.2-0.4
						c0-0.2-0.2-0.3-0.4-0.2c-1.2,0.2-2.1,1-2.5,2.2c-0.3,0.9-0.3,1.7-0.3,1.7C146.4,312.2,146.5,312.4,146.7,312.4z"/>
					<path class="st20" d="M146.3,312.1c0,0,0-0.9,0.3-1.8c0.4-1.3,1.3-2,2.6-2.3c0.2,0,0.5,0.1,0.5,0.3c0,0.2-0.1,0.5-0.3,0.5
						c-0.9,0.2-1.6,0.7-1.9,1.7c-0.2,0.7-0.2,1.4-0.2,1.5c0,0.2-0.2,0.4-0.4,0.5c0,0,0,0-0.1,0C146.4,312.5,146.3,312.3,146.3,312.1
						z M149.1,308.3c-1.2,0.2-2,1-2.4,2.1c-0.3,0.9-0.3,1.7-0.2,1.7c0,0.1,0.1,0.2,0.2,0.2c0.1,0,0.2-0.1,0.2-0.2s0-0.8,0.2-1.6
						c0.4-1,1.1-1.7,2.1-1.9c0.1,0,0.2-0.1,0.2-0.2C149.3,308.3,149.3,308.3,149.1,308.3C149.2,308.3,149.2,308.3,149.1,308.3z"/>
					<path class="st40" d="M149.1,308.3c-1.2,0.2-2,1-2.4,2.1c-0.3,0.9-0.3,1.7-0.2,1.7c0,0.1,0.1,0.2,0.2,0.2
						c0.1,0,0.2-0.1,0.2-0.2s0-0.8,0.2-1.6c0.4-1,1.1-1.7,2.1-1.9c0.1,0,0.2-0.1,0.2-0.2C149.3,308.3,149.3,308.3,149.1,308.3z
						 M146.3,312.1c0,0,0-0.9,0.3-1.8c0.4-1.3,1.3-2,2.6-2.3c0.2,0,0.5,0.1,0.5,0.3c0,0.2-0.1,0.5-0.3,0.5c-0.9,0.2-1.6,0.7-1.9,1.7
						c-0.2,0.7-0.2,1.4-0.2,1.5c0,0.2-0.2,0.4-0.4,0.5c0,0,0,0-0.1,0C146.4,312.5,146.3,312.3,146.3,312.1z"/>
					<path class="st39" d="M145.4,311.9c-2.2-0.4-3.8-1.2-4.7-2.2c-0.8-1-1-2.1-1.1-2.8c0-0.1,0-0.2,0.1-0.2
						c0.1-0.1,0.1-0.1,0.2-0.1c1.4,0.2,2.6,0.5,3.5,1.1c0.7,0.5,1.3,1,1.7,1.7c0.7,1.2,0.6,2.2,0.6,2.3c0,0.1,0,0.1-0.1,0.2
						C145.6,311.9,145.5,311.9,145.4,311.9z M141.2,309.3c0.8,0.9,2.1,1.5,4,2c0-0.4-0.1-1-0.5-1.6c-0.3-0.6-0.9-1.1-1.5-1.5
						c-0.8-0.5-1.8-0.8-2.9-1C140.5,307.9,140.7,308.6,141.2,309.3z"/>
					<path class="st39" d="M145.4,312c-2.3-0.4-3.8-1.2-4.7-2.3c-0.9-1-1-2.1-1.1-2.9c0-0.1,0-0.2,0.1-0.3c0.1-0.1,0.2-0.1,0.3-0.1
						c1.4,0.2,2.6,0.6,3.5,1.1c0.8,0.5,1.4,1,1.8,1.7c0.7,1.2,0.6,2.3,0.6,2.3c0,0.1-0.1,0.2-0.2,0.3C145.6,312,145.5,312,145.4,312
						z M139.9,306.7C139.9,306.7,139.8,306.8,139.9,306.7c0.1,0.8,0.3,1.9,1.1,2.8c0.9,1,2.4,1.7,4.6,2.2h0.1l0.1-0.1
						c0,0,0.1-1.1-0.6-2.2c-0.4-0.7-1-1.2-1.7-1.7C142.6,307.2,141.4,306.8,139.9,306.7L139.9,306.7z M145.2,311.4
						c-2-0.4-3.3-1.1-4.1-2c-0.6-0.7-0.8-1.5-0.9-2.2V307h0.2c1.2,0.2,2.2,0.5,3,1c0.7,0.4,1.2,0.9,1.6,1.6c0.4,0.7,0.5,1.3,0.5,1.7
						v0.2L145.2,311.4z M141.3,309.2c0.7,0.9,2,1.5,3.8,1.9c0-0.4-0.2-0.9-0.5-1.4c-0.3-0.6-0.8-1.1-1.5-1.5s-1.6-0.7-2.7-0.9
						C140.6,307.9,140.8,308.6,141.3,309.2z"/>
					<g>
						<path class="st20" d="M220.6,271.2c0,0.3,0,0.6,0,0.8c0,3.8-1.3,8.6-4.1,11.3c-3,3-8.7,3.3-12.5,3.6c-2.2,0.2-4.5,0.3-6.5-0.4
							c-4-1.3-5.6-4.9-6.4-8.2c-2.4-9.4-2.6-18.9-2.7-28.5c0-8.1-0.2-19.7,9.2-25.2c6.3-3.7,9-2.4,11.3,3c3.3,7.5,2,15.8,4.7,23.5
							c1.1,3.3,2.9,6.3,4.3,9.4C219.4,264,220.5,267.6,220.6,271.2z"/>
						<path class="st25" d="M112.3,251.5c-1.5,30.2,19.5,43.4,46.1,44.8c14.3,0.7,32.3-2.1,41.7-14.5c4.8-6.5,2.1-10.6,0.5-17.7
							c-1.7-7.7,0.5-14.7,2-22.2c1.6-8.5-1.6-19.1-4.8-26.9c-5.9-14.1-17.7-27.3-33.9-28.1C137.3,185.5,113.8,221.3,112.3,251.5z"/>
						<path class="st20" d="M179,263.2c-0.2,4.3,3.1,7.9,7.3,8.1c4.3,0.2,7.9-3.1,8.1-7.3c0.2-4.3-3.1-7.9-7.3-8.1
							C182.8,255.8,179.2,258.9,179,263.2z"/>
						<path class="st26" d="M185.3,269.1c1.8,0.1,3.3-1.3,3.4-3c0.1-1.8-1.3-3.3-3-3.4c-1.8-0.1-3.3,1.3-3.4,3
							C182.3,267.5,183.7,269,185.3,269.1z"/>
						<path class="st26" d="M188.9,262c1,0,1.8-0.7,1.8-1.7s-0.7-1.8-1.7-1.8s-1.8,0.7-1.8,1.7C187.2,261.1,187.9,261.9,188.9,262z"
							/>
						<path class="st27" d="M144.4,283c0.4,1.5,3.5,2,7,1.1c3.4-0.9,5.9-2.9,5.5-4.4s-3.5-2-7-1.1C146.3,279.5,144,281.5,144.4,283z
							"/>
						<path class="st27" d="M183.8,276.1c0.4,1.5,3.5,2,7,1.1c3.4-0.9,5.9-2.9,5.5-4.4s-3.5-2-7-1.1
							C185.7,272.5,183.4,274.5,183.8,276.1z"/>
						<path class="st20" d="M140.8,270c-0.2,4.3,3.1,7.9,7.3,8.1c4.3,0.2,7.9-3.1,8.1-7.3c0.2-4.3-3.1-7.9-7.3-8.1
							C144.6,262.5,141,265.8,140.8,270z"/>
						<path class="st26" d="M147.3,275.9c1.8,0,3.2-1.4,3.2-3.2s-1.4-3.2-3.2-3.2s-3.2,1.4-3.2,3.2S145.6,275.9,147.3,275.9z"/>
						<path class="st26" d="M150.8,268.8c1,0,1.8-0.8,1.8-1.8s-0.8-1.8-1.8-1.8S149,266,149,267S149.8,268.8,150.8,268.8z"/>
						<path class="st20" d="M211.1,235.6c0.2,9.8-3.2,18.8-12.3,24.2c0.3-5.6-4.2-10.4-9.5-12.3c-5.2-1.9-10.9-1.3-16.4-0.3
							c-9.7,1.9-19.1,5.1-28.1,9.3c-7.5,3.5-12.5,10.1-15.9,17.5c-1.1,2.4-2.5,4.4-2.9,7c-0.1,0.7-0.2,8.7,0.6,8.4
							c-8.1,2.4-16.9-1.6-22.3-8s-7.8-14.8-9-23.1c-2.9-20.2,1.2-42.4,15.5-56.9c14-14.2,35.9-18.9,55.5-15c10.1,2,20,6.2,27.9,12.9
							C203.3,207.1,210.7,221.9,211.1,235.6z"/>
						<path class="st20" d="M139.2,222.2c-2.4,7.1-4.1,14.4-5.4,21.8c-1.9,11.5-4.1,27.9,3.5,37.8c0.9,1.2,2,2.4,2.7,3.8
							s1,3.1,0.2,4.5c-0.9,1.6-2.7,2.1-4.4,2.5c-4.6,0.9-9.3,1.3-13.9,1.1c-3.6-0.2-7.4-0.7-10.5-2.4c-8.3-4.3-13.3-15.1-15.9-24
							c-3.4-11.6-2.3-24.4,0.4-36C104,196.8,139.2,222.2,139.2,222.2z"/>
						<path class="st29" d="M169.6,282.6c0.2,0.9,1.7,1.3,3.3,0.9s2.8-1.4,2.6-2.2"/>
						<path class="st43" d="M111.6,227.8c3.6-0.6,6-4.1,5.4-7.7c-0.6-3.6-4.1-6-7.7-5.4s-6,4.1-5.4,7.7S107.9,228.4,111.6,227.8z"/>
						<path class="st33" d="M108,214.8l-1.4-2.1c0.6-0.5,1.1-1.2,1.3-2.1c0.4-1.9-1.3-4-1.3-4s-2.4,1.1-2.8,3.1
							c-0.1,0.3-0.1,0.7,0,1c-0.3-0.2-0.7-0.4-1.1-0.5c-1.9-0.4-4,1.3-4,1.3s1.1,2.4,3.1,2.8c0.8,0.2,1.6,0,2.3-0.3l1.5,2.3
							c0.4,0.6,1.3,0.8,1.9,0.4c0.1-0.1,0.2-0.1,0.2-0.2C108.3,216.1,108.4,215.3,108,214.8z"/>
					</g>
					<path class="st32" d="M184,291.6l-9.8,31.9c-0.1,0.4-0.4,0.6-0.8,0.7l-26.5,2c-0.5,0-0.9,0.4-0.9,0.9v1.7
						c0,0.5,0.4,0.9,0.9,0.9l72.3-1.4c0.4,0,0.7-0.2,0.9-0.6l12.7-33.3c0.2-0.6-0.2-1.2-0.8-1.3l-47.3-2.2
						C184.5,290.9,184.1,291.2,184,291.6z"/>
					<path class="st33" d="M210.7,310.2c-0.3-1-1-1.8-1.9-2.2c-0.8-0.3-1.6-0.3-2.4,0c-0.2-0.1-0.5-0.4-0.8-0.4h-0.1
						c-1-0.3-2.1,0-2.8,0.7c-1.2,1.1-1.6,3-0.9,4.5c0.4,0.8,1,1.5,1.9,1.8c0.7,0.3,1.5,0.2,2.2-0.1c0.4,0.3,0.9,0.5,1.4,0.5
						c0.5,0.1,1.1,0,1.6-0.3C210.4,314,211.2,312,210.7,310.2z"/>
					<path class="st33" d="M206.4,307.8C206.4,307.8,206.5,307.8,206.4,307.8c0.2,0,0.3-0.1,0.3-0.3c0-0.1,0-0.5,0.2-1
						c0.2-0.7,0.7-1,1.3-1.2c0.2,0,0.3-0.2,0.2-0.3c0-0.2-0.2-0.3-0.3-0.2c-0.9,0.2-1.5,0.7-1.8,1.6c-0.2,0.6-0.2,1.2-0.2,1.2
						C206.2,307.7,206.3,307.8,206.4,307.8z"/>
					<path class="st33" d="M205.6,307.5c0.1,0,0.2,0,0.2,0c0.1,0,0.1-0.1,0.1-0.2c0,0,0.1-0.8-0.4-1.6c-0.3-0.5-0.7-0.9-1.2-1.2
						c-0.6-0.4-1.5-0.6-2.4-0.8c-0.1,0-0.2,0-0.2,0.1c-0.1,0.1-0.1,0.1-0.1,0.2c0.1,0.5,0.2,1.3,0.8,2
						C203,306.6,204,307.2,205.6,307.5z"/>
					<path class="st25" d="M173.6,320.4c-1.4,5.8-10.1,8.8-20.2,7.2l6.6-22.5C169,308.5,174.9,314.8,173.6,320.4z"/>
					<path class="st39" d="M148.1,319.1c0.2,0,0.3-0.1,0.3-0.3c0-0.2-0.1-0.3-0.3-0.3s-0.3,0.1-0.3,0.3S147.9,319.1,148.1,319.1z"/>
					<path class="st39" d="M147.7,318.8c0-0.2,0.2-0.4,0.5-0.4c0.2,0,0.4,0.2,0.4,0.5c0,0.2-0.2,0.4-0.5,0.4
						C147.8,319.2,147.7,319,147.7,318.8z M147.9,318.8c0,0.1,0.1,0.2,0.2,0.2c0.1,0,0.2-0.1,0.2-0.2s-0.1-0.2-0.2-0.2
						C148,318.6,147.9,318.7,147.9,318.8z"/>
					<path class="st37" d="M124.3,332.9c-0.3,2.7-2.4,4.7-4.8,4.5c-0.8-0.1-1.5-0.4-2.1-0.9c-0.7,0.4-1.4,0.5-2.2,0.4
						c-2.4-0.2-4.1-2.6-3.8-5.3c0.3-2.7,2.4-4.7,4.8-4.5c0.8,0.1,1.5,0.4,2.1,0.9c0.7-0.4,1.4-0.5,2.2-0.4
						C122.9,327.8,124.6,330.2,124.3,332.9z"/>
					<path class="st38" d="M117.2,326.2c0,0,0.4-4-5.6-4.8C111.9,323.1,112.3,325.3,117.2,326.2z"/>
					<path class="st39" d="M113,328c-1.7,1.6-2.3,4.3-1.3,6.4c1,2.2,3.5,3.5,5.8,2.4c1.3,0.9,2.9,1.1,4.3,0.4
						c2.3-1.1,3.4-4.1,2.6-6.5c-0.8-2.6-3.5-4.3-6.1-3.1c-0.3-0.2-0.8-0.6-1.2-0.6c-0.1,0-0.1,0-0.2-0.1c-0.2-0.1-0.5-0.1-0.7-0.1
						C115.1,326.7,113.9,327.2,113,328z M111.9,331.3c0.4-2.2,2.4-4.3,4.8-3.7c0.3,0.1,0.7,0.2,1,0.4c0.7,0.4,1.3,1.1,1.7,1.9
						c0.2,0.4,0.3,0.9,0.4,1.3c0,0.2,0.1,0.5,0.1,0.7s-0.1,0.5,0,0.7s0.3,0.3,0.5,0.2s0.2-0.3,0.2-0.5c0-0.5,0-1.1-0.1-1.6
						c-0.2-0.9-0.7-1.8-1.3-2.5c1.4-0.5,2.9-0.1,3.9,1c1.7,1.9,1.6,5-0.2,6.8c-0.8,0.8-2,1.3-3.2,1.1c-0.4-0.1-0.8-0.2-1.1-0.4
						c-0.3-0.1-0.6-0.5-0.8-0.5c-0.2,0-0.4,0.2-0.6,0.2c-0.2,0.1-0.3,0.1-0.5,0.2c-0.4,0.1-0.7,0.1-1.1,0.1
						C112.8,336.4,111.5,333.6,111.9,331.3z"/>
					<path class="st39" d="M117.5,337c-1,0.5-2.2,0.5-3.2,0.1c-1.2-0.4-2.2-1.4-2.7-2.6c-1-2.2-0.4-5,1.3-6.6c1.2-1,2.7-1.5,4.1-1.1
						c0.1,0,0.1,0,0.2,0.1c0.4,0,0.9,0.4,1.2,0.6c1.1-0.5,2.3-0.5,3.5,0c1.3,0.6,2.3,1.8,2.7,3.2c0.8,2.6-0.4,5.5-2.7,6.7
						c-0.7,0.4-1.5,0.5-2.3,0.4C118.8,337.7,118.1,337.4,117.5,337z M118.4,327.8L118.4,327.8c-0.3-0.2-0.9-0.6-1.2-0.6
						c-0.1,0-0.1,0-0.2-0.1c-1.4-0.4-2.8,0-3.9,1c-1.7,1.5-2.2,4.2-1.3,6.3c0.5,1.2,1.4,2.1,2.6,2.5c1,0.4,2.1,0.3,3.1-0.1h0.1h0.1
						c1.2,0.9,2.8,1.1,4.2,0.4c2.2-1.1,3.3-3.9,2.6-6.4c-0.4-1.3-1.4-2.5-2.6-3c-0.4-0.2-0.8-0.3-1.2-0.3
						C119.8,327.3,119.1,327.5,118.4,327.8z M112.7,335.2c-0.8-1.1-1.2-2.6-0.9-4c0.2-1.3,1-2.6,2.1-3.3c0.9-0.6,1.9-0.7,2.8-0.5
						c0.4,0.1,0.7,0.2,1,0.4c0.7,0.4,1.3,1.1,1.7,1.9c0.2,0.4,0.3,0.9,0.4,1.4c0,0.2,0.1,0.5,0.1,0.7c0,0.1,0,0.2,0,0.3
						c0,0.1,0,0.3,0,0.4s0.1,0.1,0.1,0.1s0.1,0,0.2,0c0.1-0.1,0.1-0.2,0.1-0.4v-0.1c0-0.5,0-1-0.1-1.5c-0.2-1-0.7-1.8-1.3-2.5
						l-0.1-0.1l0.2-0.1c1.4-0.5,3-0.2,4.1,1c1.7,1.9,1.6,5.1-0.2,7c-0.9,0.9-2.1,1.3-3.3,1.2c-0.4-0.1-0.8-0.2-1.2-0.4
						c-0.1-0.1-0.2-0.1-0.3-0.2c-0.2-0.1-0.3-0.3-0.5-0.3c-0.1,0-0.2,0.1-0.3,0.1c-0.1,0-0.1,0.1-0.2,0.1c-0.2,0.1-0.3,0.1-0.5,0.2
						c-0.4,0.1-0.8,0.1-1.2,0.1C114.3,336.6,113.4,336.1,112.7,335.2z M118.1,336.4c0.1,0.1,0.2,0.1,0.3,0.2
						c0.3,0.2,0.7,0.3,1.1,0.4c1.1,0.2,2.2-0.3,3.1-1.1c1.8-1.8,1.9-4.9,0.2-6.7c-1-1-2.4-1.4-3.7-1c0.6,0.7,1,1.5,1.3,2.4
						c0.1,0.5,0.2,1.1,0.1,1.6v0.1c0,0.2,0,0.4-0.2,0.6c-0.1,0.1-0.2,0.1-0.4,0c-0.1-0.1-0.2-0.2-0.3-0.3c0-0.1,0-0.3,0-0.5
						c0-0.1,0-0.2,0-0.2c0-0.2,0-0.5-0.1-0.7c-0.1-0.5-0.2-0.9-0.4-1.3c-0.4-0.8-0.9-1.4-1.6-1.8c-0.3-0.2-0.6-0.3-0.9-0.4
						c-0.9-0.2-1.8-0.1-2.6,0.5c-1,0.7-1.8,1.9-2,3.1c-0.2,1.3,0.1,2.8,0.9,3.8c0.6,0.8,1.5,1.3,2.5,1.4c0.4,0,0.7,0,1.1-0.1
						c0.2,0,0.3-0.1,0.5-0.1c0.1,0,0.1-0.1,0.2-0.1c0.1-0.1,0.3-0.2,0.4-0.1C117.7,336.1,118,336.2,118.1,336.4z"/>
					<path class="st39" d="M118.4,327c0.2,0,0.4-0.2,0.3-0.3c0,0,0-0.7,0.2-1.5c0.3-1,1-1.6,2-1.8c0.2,0,0.3-0.2,0.2-0.4
						c0-0.2-0.2-0.3-0.4-0.2c-1.2,0.2-2.1,1-2.5,2.2c-0.3,0.9-0.3,1.7-0.3,1.7C118.1,326.9,118.3,327,118.4,327z"/>
					<path class="st39" d="M118,326.7c0,0,0-0.9,0.3-1.8c0.4-1.3,1.3-2,2.6-2.3c0.2,0,0.5,0.1,0.5,0.3c0,0.2-0.1,0.5-0.3,0.5
						c-0.9,0.2-1.6,0.7-1.9,1.7c-0.2,0.7-0.2,1.4-0.2,1.5c0,0.2-0.2,0.4-0.4,0.5c0,0,0,0-0.1,0C118.2,327.1,118,327,118,326.7z
						 M120.9,322.9c-1.2,0.2-2,1-2.4,2.1c-0.3,0.9-0.3,1.7-0.2,1.7c0,0.1,0.1,0.2,0.2,0.2s0.2-0.1,0.2-0.2s0-0.8,0.2-1.6
						c0.4-1,1.1-1.7,2.1-1.9c0.1,0,0.2-0.1,0.2-0.2C121.1,323,121,322.9,120.9,322.9z"/>
					<path class="st39" d="M117.1,326.5c-2.2-0.4-3.8-1.2-4.7-2.2c-0.8-1-1-2.1-1.1-2.8c0-0.1,0-0.2,0.1-0.2s0.1-0.1,0.2-0.1
						c1.4,0.2,2.6,0.5,3.5,1.1c0.7,0.5,1.3,1,1.7,1.7c0.7,1.2,0.6,2.2,0.6,2.3c0,0.1,0,0.1-0.1,0.2
						C117.3,326.5,117.2,326.5,117.1,326.5z M112.9,323.9c0.8,0.9,2.1,1.5,4,2c0-0.4-0.1-1-0.5-1.6c-0.3-0.6-0.9-1.1-1.5-1.5
						c-0.8-0.5-1.8-0.8-2.9-1C112.1,322.5,112.3,323.3,112.9,323.9z"/>
					<path class="st39" d="M117.1,326.6c-2.3-0.4-3.8-1.2-4.7-2.3c-0.9-1-1-2.1-1.1-2.9c0-0.1,0-0.2,0.1-0.3
						c0.1-0.1,0.2-0.1,0.3-0.1c1.4,0.2,2.6,0.6,3.5,1.1c0.8,0.5,1.4,1,1.8,1.7c0.7,1.2,0.6,2.3,0.6,2.3c0,0.1-0.1,0.2-0.2,0.3
						C117.3,326.6,117.2,326.6,117.1,326.6z M111.5,321.3C111.5,321.3,111.4,321.4,111.5,321.3c0.1,0.8,0.3,1.9,1.1,2.8
						c0.9,1,2.4,1.7,4.6,2.2h0.1l0.1-0.1c0,0,0.1-1.1-0.6-2.2c-0.4-0.7-1-1.2-1.7-1.7C114.2,321.8,113,321.4,111.5,321.3
						C111.6,321.3,111.5,321.3,111.5,321.3z M116.9,326c-2-0.4-3.3-1.1-4.1-2c-0.6-0.7-0.8-1.5-0.9-2.2v-0.2h0.2
						c1.2,0.2,2.2,0.5,3,1c0.7,0.4,1.2,0.9,1.6,1.6s0.5,1.3,0.5,1.7v0.2L116.9,326z M113,323.9c0.7,0.9,2,1.5,3.8,1.9
						c0-0.4-0.2-0.9-0.5-1.4c-0.3-0.6-0.8-1.1-1.5-1.5s-1.6-0.7-2.7-0.9C112.2,322.6,112.4,323.2,113,323.9z"/>
					<path class="st39" d="M119.8,333.9c0.2,0,0.3-0.1,0.3-0.3c0-0.2-0.1-0.3-0.3-0.3c-0.2,0-0.3,0.1-0.3,0.3
						C119.5,333.7,119.6,333.9,119.8,333.9z"/>
					<path class="st39" d="M119.4,333.5c0-0.2,0.2-0.4,0.5-0.4c0.2,0,0.4,0.2,0.4,0.5c0,0.2-0.2,0.4-0.5,0.4
						C119.6,334,119.4,333.8,119.4,333.5z M119.6,333.6c0,0.1,0.1,0.2,0.2,0.2s0.2-0.1,0.2-0.2s-0.1-0.2-0.2-0.2
						C119.8,333.4,119.7,333.5,119.6,333.6z"/>
				</g>
				<g>
					<g>
						<g>
							<path class="st26" d="M-60.4,265.6c0.2-0.1,4.3-4.1,4.3-4.1l-5.1-3.2h-0.5l0.6,7.3L-60.4,265.6z"/>
							<polygon class="st44" points="-82.3,267.4 -61,265.6 -61.6,258.3 -83.1,260.5 							"/>
						</g>
						<path class="st20" d="M-83.8,261.2l0.6,6.1c0,0.3,0.2,0.5,0.4,0.7c0.2,0.2,0.5,0.3,0.8,0.2l21.2-2.1c0.2,0,0.4-0.1,0.6-0.3
							l4-3.5c0.3-0.2,0.4-0.6,0.4-0.9s-0.2-0.5-0.4-0.7l-0.1-0.1L-61,258c-0.2-0.1-0.4-0.2-0.6-0.1l-21.2,2.1
							C-83.4,260.1-83.8,260.6-83.8,261.2z M-82.1,267.2l-0.3-2.5l20.6-2.1l0.3,2.6L-82.1,267.2z M-56.9,261.6l-0.9,0.7L-58,261
							L-56.9,261.6z M-59,260.4c0,0.1,0,0.1,0,0.2l0.3,2.3c0,0.1,0,0.2,0.1,0.2l-1.9,1.6l-0.6-5.6L-59,260.4z M-62.2,259l0.2,2.5
							l-20.6,2.1l-0.3-2.5L-62.2,259z"/>
					</g>
					<path class="st25" d="M-73.6,262.2c0.5,0,1,0.1,1.5,0.4c1,0.6,1.7,1.6,2.2,2.8c1,2.6,0.8,5.9-0.5,8.6c-1.3,2.8-3.6,5-6.2,5.8
						c-1.6,0.5-3.6,0.5-4.5-1c-1-1.5-0.4-3.8,0.1-5.7C-80,269.9-77.5,262.1-73.6,262.2z"/>
				</g>
				<g>
					<rect x="7" y="276.8" class="st7" width="10" height="10.3"/>
					<rect x="6.9" y="290.4" class="st21" width="10" height="10.3"/>
					<rect x="6.9" y="303.7" class="st19" width="10" height="10.3"/>
				</g>
				<g>
					<g>
						<g>
							<path class="st27" d="M-17.8,81c-0.4,0-0.8-0.3-0.9-0.7l-1.2-3.7h-6.2l-1.2,3.7c-0.1,0.4-0.5,0.7-0.9,0.7H-33
								c-0.3,0-0.6-0.2-0.8-0.4s-0.2-0.6-0.1-0.9l7.9-21.2c0.1-0.4,0.5-0.7,0.9-0.7h4c0.4,0,0.8,0.3,0.9,0.6l7.9,21.2
								c0.1,0.3,0.1,0.7-0.1,0.9c-0.2,0.3-0.5,0.4-0.8,0.4h-4.6V81z M-21.8,71.1l-1.3-3.8l-1.2,3.8H-21.8z"/>
							<path class="st20" d="M-21.1,58.8l7.9,21.2h-4.6l-1.5-4.4h-7.6l-1.5,4.4H-33l7.9-21.2H-21.1 M-25.7,72.1h5.3l-2.7-7.9
								L-25.7,72.1 M-21.1,56.8h-4c-0.8,0-1.6,0.5-1.9,1.3l-7.9,21.2c-0.2,0.6-0.1,1.3,0.2,1.8c0.4,0.5,1,0.9,1.6,0.9h4.6
								c0.9,0,1.6-0.6,1.9-1.4l1-3h4.8l1,3c0.3,0.8,1,1.4,1.9,1.4h4.6c0.7,0,1.3-0.3,1.6-0.9c0.4-0.5,0.5-1.2,0.2-1.8l-7.9-21.2
								C-19.5,57.4-20.3,56.8-21.1,56.8L-21.1,56.8z"/>
						</g>
						<g>
							<path class="st20" d="M-5,64.3l0.1,1.8c0.5-0.7,1.2-1.2,2-1.6S-1.3,64-0.3,64c0.7,0,1.4,0.1,2,0.3c0.6,0.2,1.1,0.6,1.6,1
								c0.4,0.5,0.8,1.1,1,1.9C4.5,68,4.6,68.9,4.6,70v10H0.4V70c0-0.5-0.1-0.9-0.2-1.3c-0.1-0.3-0.3-0.6-0.5-0.8
								c-0.2-0.2-0.5-0.3-0.8-0.4s-0.7-0.1-1.1-0.1c-0.6,0-1.2,0.1-1.6,0.4s-0.8,0.6-1.1,1.1V80h-4.2V64.3H-5z"/>
						</g>
						<g>
							<path class="st20" d="M12.7,64.3l0.1,1.8c0.5-0.7,1.2-1.2,2-1.6s1.6-0.5,2.6-0.5c0.7,0,1.4,0.1,2,0.3c0.6,0.2,1.1,0.6,1.6,1
								c0.4,0.5,0.8,1.1,1,1.9s0.4,1.7,0.4,2.8v10h-4.2V70c0-0.5-0.1-0.9-0.2-1.3c-0.1-0.3-0.3-0.6-0.5-0.8
								c-0.2-0.2-0.5-0.3-0.8-0.4s-0.7-0.1-1.1-0.1c-0.6,0-1.2,0.1-1.6,0.4c-0.4,0.3-0.8,0.6-1.1,1.1V80H8.8V64.3H12.7z"/>
						</g>
						<g>
							<path class="st20" d="M26.5,60.2c0-0.6,0.2-1.1,0.6-1.6c0.4-0.4,1-0.6,1.7-0.6c0.4,0,0.7,0.1,1,0.2c0.3,0.1,0.5,0.3,0.7,0.5
								s0.4,0.4,0.5,0.7s0.2,0.6,0.2,0.9c0,0.3-0.1,0.6-0.2,0.9c-0.1,0.3-0.3,0.5-0.5,0.7s-0.4,0.3-0.7,0.5c-0.3,0.1-0.6,0.2-1,0.2
								s-0.7-0.1-1-0.2c-0.3-0.1-0.5-0.3-0.7-0.5s-0.4-0.4-0.5-0.7C26.6,60.8,26.5,60.5,26.5,60.2z M31,80h-4.2V64.3H31V80z"/>
						</g>
						<g>
							<path class="st20" d="M42.7,80.3c-1.2,0-2.3-0.2-3.3-0.6s-1.8-0.9-2.5-1.6s-1.2-1.5-1.5-2.4c-0.4-0.9-0.5-1.9-0.5-3v-0.6
								c0-1.2,0.2-2.3,0.5-3.3s0.8-1.9,1.5-2.6c0.6-0.7,1.4-1.3,2.3-1.7c0.9-0.4,1.9-0.6,3-0.6s2.1,0.2,3,0.6s1.6,0.9,2.2,1.6
								c0.6,0.7,1,1.5,1.3,2.4c0.3,1,0.4,2,0.4,3.2v1.8h-10c0.1,0.5,0.2,1,0.4,1.4s0.5,0.8,0.8,1.1c0.3,0.3,0.7,0.5,1.1,0.7
								c0.4,0.2,0.9,0.2,1.5,0.2c0.8,0,1.5-0.1,2.1-0.4s1.2-0.7,1.7-1.3l2.1,2.3c-0.3,0.4-0.6,0.7-0.9,1c-0.4,0.3-0.8,0.6-1.3,0.9
								s-1.1,0.5-1.7,0.6C44.2,80.2,43.5,80.3,42.7,80.3z M42.2,67.4c-0.5,0-0.9,0.1-1.2,0.2c-0.3,0.2-0.6,0.4-0.9,0.7
								c-0.2,0.3-0.4,0.6-0.6,1c-0.2,0.4-0.3,0.8-0.3,1.3H45v-0.3c0-0.4-0.1-0.8-0.2-1.2c-0.1-0.4-0.3-0.7-0.5-0.9
								c-0.2-0.3-0.5-0.5-0.9-0.6C43.1,67.5,42.7,67.4,42.2,67.4z"/>
						</g>
						<g>
							<path class="st20" d="M55.5,59.9c0,0.5-0.1,1-0.2,1.5c-0.1,0.5-0.3,1-0.6,1.5c-0.2,0.5-0.5,0.9-0.8,1.4
								c-0.3,0.4-0.7,0.8-1,1.1l-2-1.1c0.2-0.3,0.4-0.6,0.5-0.9c0.2-0.3,0.3-0.6,0.4-1c0.1-0.3,0.2-0.7,0.3-1.1
								c0.1-0.4,0.1-0.8,0.1-1.3v-2.3h3.3V59.9z"/>
						</g>
						<g>
							<path class="st20" d="M64.7,75.7c0-0.2,0-0.4-0.1-0.6s-0.3-0.4-0.5-0.5c-0.2-0.2-0.6-0.3-1-0.5c-0.4-0.1-1-0.3-1.6-0.4
								c-0.8-0.2-1.5-0.4-2.2-0.7c-0.7-0.3-1.3-0.6-1.8-1s-0.9-0.8-1.2-1.4c-0.3-0.5-0.4-1.1-0.4-1.8c0-0.7,0.1-1.3,0.4-1.9
								c0.3-0.6,0.7-1.1,1.2-1.6s1.2-0.8,2-1.1c0.8-0.3,1.7-0.4,2.6-0.4c1,0,1.9,0.1,2.7,0.4c0.8,0.3,1.5,0.6,2.1,1.1s1,1,1.3,1.6
								s0.5,1.3,0.5,2h-4.2c0-0.6-0.2-1.1-0.6-1.5s-1-0.6-1.8-0.6c-0.7,0-1.3,0.2-1.6,0.5c-0.4,0.3-0.6,0.7-0.6,1.2
								c0,0.2,0.1,0.4,0.2,0.6c0.1,0.2,0.3,0.3,0.5,0.5s0.5,0.3,0.9,0.4s0.8,0.2,1.4,0.3c0.9,0.2,1.6,0.4,2.4,0.6
								c0.7,0.2,1.4,0.6,1.9,0.9c0.5,0.4,0.9,0.8,1.2,1.4c0.3,0.5,0.5,1.2,0.5,2c0,0.7-0.2,1.3-0.5,1.9C68,78,67.6,78.5,67,78.9
								s-1.3,0.8-2.1,1c-0.8,0.2-1.7,0.4-2.7,0.4c-1.1,0-2.1-0.2-2.9-0.5c-0.8-0.3-1.6-0.7-2.1-1.2c-0.6-0.5-1-1.1-1.3-1.7
								s-0.4-1.3-0.4-1.9h4c0,0.4,0.1,0.8,0.3,1.1c0.2,0.3,0.4,0.5,0.6,0.7c0.3,0.2,0.6,0.3,0.9,0.4c0.3,0.1,0.7,0.1,1.1,0.1
								c0.8,0,1.4-0.2,1.8-0.5C64.5,76.6,64.7,76.2,64.7,75.7z"/>
						</g>
					</g>
					<g>
						<g>
							<path class="st45" d="M-41.6,116.7c-0.6,0-1-0.4-1-1V94.6c0-0.6,0.4-1,1-1h8.3c1.4,0,2.6,0.2,3.7,0.6s2.1,1,2.8,1.7
								c0.8,0.7,1.4,1.6,1.8,2.6s0.6,2,0.6,3.2s-0.2,2.2-0.6,3.2s-1,1.8-1.8,2.5s-1.7,1.2-2.8,1.5c-1.1,0.3-2.3,0.5-3.7,0.5h-2.9
								v6.5c0,0.6-0.4,1-1,1h-4.4V116.7z M-33.4,103.8c0.5,0,0.9-0.1,1.3-0.2c0.3-0.1,0.6-0.2,0.7-0.4c0.2-0.2,0.3-0.4,0.4-0.6
								c0.1-0.3,0.1-0.6,0.1-0.9s-0.1-0.7-0.2-1s-0.2-0.5-0.4-0.8c-0.2-0.2-0.4-0.4-0.8-0.5c-0.3-0.1-0.7-0.2-1.2-0.2h-2.9v4.6
								H-33.4z"/>
							<path class="st20" d="M-33.4,94.6c1.2,0,2.4,0.2,3.3,0.5c1,0.3,1.8,0.8,2.5,1.5c0.7,0.6,1.2,1.4,1.6,2.2
								c0.4,0.9,0.5,1.8,0.5,2.8s-0.2,2-0.5,2.8c-0.4,0.8-0.9,1.5-1.6,2.1s-1.5,1-2.5,1.3s-2.1,0.5-3.3,0.5h-3.9v7.5h-4.4V94.6
								H-33.4 M-37.3,104.8h3.9c0.6,0,1.2-0.1,1.6-0.2c0.4-0.2,0.8-0.4,1.1-0.6c0.3-0.3,0.5-0.6,0.6-1s0.2-0.8,0.2-1.3
								s-0.1-0.9-0.2-1.3s-0.3-0.8-0.6-1.1c-0.3-0.3-0.7-0.6-1.1-0.8c-0.5-0.2-1-0.3-1.6-0.3h-3.9V104.8 M-33.4,92.6h-8.3
								c-1.1,0-2,0.9-2,2v21.2c0,1.1,0.9,2,2,2h4.4c1.1,0,2-0.9,2-2v-5.5h1.9c1.5,0,2.8-0.2,4-0.6s2.3-1,3.2-1.7
								c0.9-0.8,1.6-1.7,2.1-2.8c0.5-1.1,0.7-2.3,0.7-3.6c0-1.3-0.2-2.5-0.7-3.6s-1.2-2.1-2.1-2.9s-2-1.4-3.2-1.9
								C-30.5,92.8-31.9,92.6-33.4,92.6L-33.4,92.6z M-35.3,100.1h1.9c0.3,0,0.6,0,0.8,0.1s0.3,0.2,0.4,0.3c0.1,0.1,0.2,0.2,0.2,0.4
								c0.1,0.2,0.1,0.5,0.1,0.7s0,0.4-0.1,0.6c0,0.1-0.1,0.2-0.1,0.2s-0.1,0.1-0.4,0.2c-0.2,0.1-0.5,0.1-1,0.1h-1.9L-35.3,100.1
								L-35.3,100.1z"/>
						</g>
						<g>
							<path class="st20" d="M-22.5,107.7c0-1.1,0.2-2.2,0.5-3.2s0.8-1.8,1.4-2.5s1.4-1.3,2.3-1.7c0.9-0.4,2-0.6,3.2-0.6
								s2.3,0.2,3.2,0.6s1.7,1,2.3,1.7s1.1,1.6,1.4,2.5c0.3,1,0.5,2,0.5,3.2v0.3c0,1.2-0.2,2.2-0.5,3.2s-0.8,1.8-1.4,2.5
								c-0.6,0.7-1.4,1.3-2.3,1.7c-0.9,0.4-2,0.6-3.2,0.6s-2.2-0.2-3.2-0.6c-0.9-0.4-1.7-1-2.3-1.7c-0.6-0.7-1.1-1.6-1.4-2.5
								c-0.3-1-0.5-2-0.5-3.2V107.7z M-18.3,108c0,0.6,0.1,1.2,0.2,1.8c0.1,0.6,0.3,1,0.6,1.5c0.3,0.4,0.6,0.7,1,1
								c0.4,0.2,0.9,0.4,1.5,0.4s1.1-0.1,1.5-0.4c0.4-0.2,0.7-0.6,1-1s0.4-0.9,0.6-1.5c0.1-0.6,0.2-1.2,0.2-1.8v-0.3
								c0-0.6-0.1-1.2-0.2-1.8c-0.1-0.6-0.3-1-0.6-1.5c-0.3-0.4-0.6-0.8-1-1s-0.9-0.4-1.5-0.4s-1.1,0.1-1.5,0.4
								c-0.4,0.2-0.7,0.6-1,1s-0.4,0.9-0.6,1.5c-0.1,0.6-0.2,1.1-0.2,1.8V108z"/>
						</g>
						<g>
							<path class="st20" d="M4.8,104c-0.2,0-0.5-0.1-0.7-0.1c-0.3,0-0.5,0-0.8,0c-0.8,0-1.5,0.1-2,0.4s-0.9,0.7-1.1,1.2v10.3H-4
								V100h4l0.1,1.9c0.4-0.7,0.9-1.2,1.5-1.6s1.3-0.6,2-0.6c0.2,0,0.5,0,0.7,0.1c0.2,0,0.4,0.1,0.6,0.1L4.8,104z"/>
						</g>
						<g>
							<path class="st20" d="M13.7,96.1v3.9h2.7v3.1h-2.7v7.9c0,0.3,0,0.6,0.1,0.8c0.1,0.2,0.2,0.4,0.3,0.5s0.3,0.2,0.5,0.2
								s0.4,0.1,0.7,0.1s0.5,0,0.7,0c0.2,0,0.4,0,0.5-0.1v3.2c-0.3,0.1-0.7,0.2-1.1,0.3c-0.4,0-0.9,0-1.4,0c-0.7,0-1.3-0.1-1.9-0.3
								c-0.6-0.2-1-0.4-1.4-0.8s-0.7-0.8-0.9-1.4s-0.3-1.3-0.3-2.1v-8.3H7.2V100h2.3v-3.9H13.7z"/>
						</g>
						<g>
							<path class="st20" d="M20.9,115.7v-12.6h-2.3V100h2.3v-1.4c0-0.9,0.1-1.7,0.4-2.4c0.3-0.7,0.7-1.3,1.1-1.7
								c0.5-0.5,1.1-0.8,1.8-1.1c0.7-0.2,1.5-0.4,2.4-0.4c0.4,0,0.7,0,1.1,0.1s0.7,0.1,1,0.2v3.3c-0.3-0.1-0.8-0.1-1.3-0.1
								c-0.8,0-1.3,0.2-1.7,0.5c-0.4,0.4-0.6,0.9-0.6,1.6v1.4h3.1v3.1h-3.1v12.6H20.9z"/>
						</g>
						<g>
							<path class="st20" d="M30.8,107.7c0-1.1,0.2-2.2,0.5-3.2s0.8-1.8,1.4-2.5c0.6-0.7,1.4-1.3,2.3-1.7c0.9-0.4,2-0.6,3.2-0.6
								s2.3,0.2,3.2,0.6s1.7,1,2.3,1.7s1.1,1.6,1.4,2.5c0.3,1,0.5,2,0.5,3.2v0.3c0,1.2-0.2,2.2-0.5,3.2s-0.8,1.8-1.4,2.5
								c-0.6,0.7-1.4,1.3-2.3,1.7c-0.9,0.4-2,0.6-3.2,0.6s-2.2-0.2-3.2-0.6c-0.9-0.4-1.7-1-2.3-1.7s-1.1-1.6-1.4-2.5
								c-0.3-1-0.5-2-0.5-3.2C30.8,108,30.8,107.7,30.8,107.7z M35,108c0,0.6,0.1,1.2,0.2,1.8c0.1,0.6,0.3,1,0.6,1.5
								c0.3,0.4,0.6,0.7,1,1c0.4,0.2,0.9,0.4,1.5,0.4s1.1-0.1,1.5-0.4c0.4-0.2,0.7-0.6,1-1s0.5-0.9,0.6-1.5s0.2-1.2,0.2-1.8v-0.3
								c0-0.6-0.1-1.2-0.2-1.8c-0.1-0.6-0.3-1-0.6-1.5c-0.3-0.4-0.6-0.8-1-1s-0.9-0.4-1.5-0.4s-1.1,0.1-1.5,0.4
								c-0.4,0.2-0.7,0.6-1,1s-0.4,0.9-0.6,1.5c-0.1,0.6-0.2,1.1-0.2,1.8V108z"/>
						</g>
						<g>
							<path class="st20" d="M53.7,115.7h-4.2V93.4h4.2V115.7z"/>
						</g>
						<g>
							<path class="st20" d="M58.2,95.9c0-0.6,0.2-1.1,0.6-1.6c0.4-0.4,1-0.6,1.7-0.6c0.4,0,0.7,0.1,1,0.2s0.5,0.3,0.7,0.4
								c0.2,0.2,0.4,0.4,0.5,0.7c0.1,0.3,0.2,0.6,0.2,0.9s-0.1,0.6-0.2,0.9c-0.1,0.3-0.3,0.5-0.5,0.7s-0.4,0.3-0.7,0.5
								c-0.3,0.1-0.6,0.2-1,0.2s-0.7-0.1-1-0.2s-0.5-0.3-0.7-0.5s-0.4-0.4-0.5-0.7C58.3,96.6,58.2,96.3,58.2,95.9z M62.7,115.7h-4.2
								V100h4.2V115.7z"/>
						</g>
						<g>
							<path class="st20" d="M66.5,107.7c0-1.1,0.2-2.2,0.5-3.2s0.8-1.8,1.4-2.5s1.4-1.3,2.3-1.7c0.9-0.4,2-0.6,3.2-0.6
								s2.3,0.2,3.2,0.6c0.9,0.4,1.7,1,2.3,1.7c0.6,0.7,1.1,1.6,1.4,2.5c0.3,1,0.5,2,0.5,3.2v0.3c0,1.2-0.2,2.2-0.5,3.2
								s-0.8,1.8-1.4,2.5s-1.4,1.3-2.3,1.7c-0.9,0.4-2,0.6-3.2,0.6s-2.2-0.2-3.2-0.6c-0.9-0.4-1.7-1-2.3-1.7
								c-0.6-0.7-1.1-1.6-1.4-2.5c-0.3-1-0.5-2-0.5-3.2V107.7z M70.7,108c0,0.6,0.1,1.2,0.2,1.8c0.1,0.6,0.3,1,0.6,1.5
								c0.3,0.4,0.6,0.7,1,1c0.4,0.2,0.9,0.4,1.5,0.4s1.1-0.1,1.5-0.4c0.4-0.2,0.7-0.6,1-1s0.4-0.9,0.6-1.5c0.1-0.6,0.2-1.2,0.2-1.8
								v-0.3c0-0.6-0.1-1.2-0.2-1.8c-0.1-0.6-0.3-1-0.6-1.5c-0.3-0.4-0.6-0.8-1-1S74.6,103,74,103s-1.1,0.1-1.5,0.4
								c-0.4,0.2-0.7,0.6-1,1s-0.4,0.9-0.6,1.5c-0.1,0.6-0.2,1.1-0.2,1.8V108z"/>
						</g>
					</g>
				</g>
				<path class="st21" d="M286,181.3l-47.1-8.9c-3-0.6-6.3,3.2-7.3,8.5l-3.7,19.4c-0.9,4.9,0.4,9.3,3,10.4c0.4,0.2,0.6,0.8,0.4,1.5
					l-2,10.6c-0.1,0.6,0.3,1,0.6,0.5l7-10.8c0.2-0.3,0.5-0.5,0.8-0.5l41,7.8c3,0.6,6.3-3.2,7.3-8.5l3.7-19.4
					C290.7,186.6,289.1,181.8,286,181.3z"/>
				<g>
					<path class="st21" d="M-283.2,201.8l76.4-19.7c4.9-1.3,10,1.9,11.3,7.1l4.9,19.1c1.2,4.8-1.1,9.6-5.3,11.3
						c-0.6,0.2-0.9,1-0.8,1.6l2.7,10.5c0.2,0.6-0.5,1-1,0.6l-10.8-9.5c-0.3-0.3-0.8-0.4-1.2-0.3l-66.5,17.1
						c-4.9,1.3-10-1.9-11.3-7.1l-4.9-19.1C-291,208.3-288.1,203-283.2,201.8z"/>
					<g>
						<g>
							<path class="st26" d="M-272.1,229.8c-0.2,0-0.4,0-0.5-0.1c-0.2-0.1-0.4-0.4-0.5-0.6L-278,210c-0.1-0.5,0.2-1.1,0.7-1.2
								l3.3-0.9c0.1,0,0.2,0,0.2,0c0.2,0,0.4,0,0.5,0.1c0.2,0.1,0.4,0.4,0.5,0.6l1.8,7l6.6-1.7l-1.8-7c-0.1-0.5,0.2-1.1,0.7-1.2
								l3.3-0.9c0.1,0,0.2,0,0.2,0c0.2,0,0.4,0,0.5,0.1c0.2,0.1,0.4,0.4,0.5,0.6l4.9,19.1c0.1,0.5-0.2,1.1-0.7,1.2l-3.3,0.9
								c-0.1,0-0.2,0-0.2,0c-0.2,0-0.4,0-0.5-0.1c-0.2-0.1-0.4-0.4-0.5-0.6l-1.9-7.5l-6.6,1.7l1.9,7.5c0.1,0.5-0.2,1.1-0.7,1.2
								l-3.3,0.9C-271.9,229.8-272,229.8-272.1,229.8z"/>
							<path class="st11" d="M-261.8,205.8l4.9,19.1l-3.3,0.9l-2.2-8.5l-8.5,2.2l2.2,8.5l-3.3,0.9l-4.9-19.1l3.3-0.9l2,8l8.5-2.2
								l-2-8L-261.8,205.8 M-261.8,203.8c-0.2,0-0.3,0-0.5,0.1l-3.3,0.9c-0.5,0.1-1,0.5-1.2,0.9s-0.3,1-0.2,1.5l1.6,6l-4.7,1.2
								l-1.6-6c-0.1-0.5-0.5-1-0.9-1.2c-0.3-0.2-0.7-0.3-1-0.3c-0.2,0-0.3,0-0.5,0.1l-3.3,0.9c-1.1,0.3-1.7,1.4-1.4,2.4l4.9,19.1
								c0.1,0.5,0.5,1,0.9,1.2c0.3,0.2,0.7,0.3,1,0.3c0.2,0,0.3,0,0.5-0.1l3.3-0.9c1.1-0.3,1.7-1.4,1.4-2.4l-1.7-6.5l4.7-1.2
								l1.7,6.5c0.2,0.9,1,1.5,1.9,1.5c0.2,0,0.3,0,0.5-0.1l3.3-0.9c1.1-0.3,1.7-1.4,1.4-2.4l-4.9-19.1
								C-260.1,204.4-260.9,203.8-261.8,203.8L-261.8,203.8z"/>
						</g>
						<g>
							<path class="st26" d="M-248.8,223.8c-0.2,0-0.4,0-0.5-0.1c-0.2-0.1-0.4-0.4-0.5-0.6l-4-15.5l-4.9,1.3c-0.1,0-0.2,0-0.2,0
								c-0.2,0-0.4,0-0.5-0.1c-0.2-0.1-0.4-0.4-0.5-0.6l-0.7-2.7c-0.1-0.5,0.2-1.1,0.7-1.2l15.2-3.9c0.1,0,0.2,0,0.3,0
								c0.4,0,0.9,0.3,1,0.8l0.7,2.7c0.1,0.3,0,0.5-0.1,0.8s-0.4,0.4-0.6,0.5l-5,1.3l4,15.5c0.1,0.5-0.2,1.1-0.7,1.2l-3.3,0.8
								C-248.6,223.8-248.7,223.8-248.8,223.8z"/>
							<path class="st11" d="M-244.5,201.3l0.7,2.7l-6,1.5l4.2,16.4l-3.3,0.8l-4.2-16.4l-5.9,1.5l-0.7-2.7L-244.5,201.3
								 M-244.5,199.3c-0.2,0-0.3,0-0.5,0.1l-15.2,3.9c-0.5,0.1-1,0.5-1.2,0.9c-0.3,0.5-0.3,1-0.2,1.5l0.7,2.7
								c0.1,0.5,0.5,1,0.9,1.2c0.3,0.2,0.7,0.3,1,0.3c0.2,0,0.3,0,0.5-0.1l4-1l3.7,14.5c0.1,0.5,0.5,1,0.9,1.2
								c0.3,0.2,0.7,0.3,1,0.3c0.2,0,0.3,0,0.5-0.1l3.3-0.8c1.1-0.3,1.7-1.4,1.4-2.4l-3.7-14.5l4-1c0.5-0.1,1-0.5,1.2-0.9
								s0.3-1,0.2-1.5l-0.7-2.7C-242.7,199.9-243.6,199.3-244.5,199.3L-244.5,199.3z"/>
						</g>
						<g>
							<path class="st26" d="M-237,220.8c-0.2,0-0.4,0-0.5-0.1c-0.2-0.1-0.4-0.4-0.5-0.6l-4.9-19.1c-0.1-0.5,0.2-1.1,0.7-1.2
								l4.3-1.1c0.1,0,0.2,0,0.2,0c0.3,0,0.6,0.2,0.8,0.4l7.8,11.1l1.4-13.4c0-0.4,0.3-0.8,0.7-0.9l4.3-1.1c0.1,0,0.2,0,0.2,0
								c0.4,0,0.9,0.3,1,0.8l4.9,19.1c0.1,0.5-0.2,1.1-0.7,1.2l-3.3,0.9c-0.1,0-0.2,0-0.2,0c-0.2,0-0.4,0-0.5-0.1
								c-0.2-0.1-0.4-0.4-0.5-0.6l-1.6-6.3l-0.6-2.6l-1,9.8c0,0.4-0.3,0.8-0.7,0.9l-2.4,0.6c-0.1,0-0.2,0-0.2,0
								c-0.3,0-0.6-0.2-0.8-0.4l-5.9-8.3l0.8,2.5l1.6,6.3c0.1,0.5-0.2,1.1-0.7,1.2l-3.3,0.9C-236.9,220.8-236.9,220.8-237,220.8z"/>
							<path class="st11" d="M-222.3,195.6l4.9,19.1l-3.3,0.9l-1.6-6.3l-1.8-8.5L-226,217l-2.4,0.6l-9.4-13.3l2.5,8.3l1.6,6.3
								l-3.3,0.9l-4.9-19.1l4.3-1.1l9.3,13.2l1.7-16.1L-222.3,195.6 M-222.3,193.6c-0.2,0-0.3,0-0.5,0.1l-4.3,1.1
								c-0.8,0.2-1.4,0.9-1.5,1.7l-1.2,10.8l-6.2-8.9c-0.4-0.5-1-0.9-1.6-0.9c-0.2,0-0.3,0-0.5,0.1l-4.3,1.1
								c-1.1,0.3-1.7,1.4-1.4,2.4l4.9,19.1c0.1,0.5,0.5,1,0.9,1.2c0.3,0.2,0.7,0.3,1,0.3c0.2,0,0.3,0,0.5-0.1l3.3-0.9
								c1.1-0.3,1.7-1.4,1.4-2.4l-0.9-3.4l2.6,3.7c0.4,0.5,1,0.8,1.6,0.8c0.2,0,0.3,0,0.5-0.1l2.4-0.6c0.8-0.2,1.4-0.9,1.5-1.7
								l0.5-4.5l0.9,3.4c0.1,0.5,0.5,1,0.9,1.2c0.3,0.2,0.7,0.3,1,0.3c0.2,0,0.3,0,0.5-0.1l3.3-0.9c1.1-0.3,1.7-1.4,1.4-2.4
								l-4.9-19.1C-220.6,194.2-221.4,193.6-222.3,193.6L-222.3,193.6z"/>
						</g>
						<g>
							<path class="st26" d="M-213.5,214.7c-0.2,0-0.4,0-0.5-0.1c-0.2-0.1-0.4-0.4-0.5-0.6l-4.9-19.1c-0.1-0.3,0-0.5,0.1-0.8
								c0.1-0.2,0.4-0.4,0.6-0.5l3.3-0.9c0.1,0,0.2,0,0.3,0c0.4,0,0.9,0.3,1,0.8l4,15.5l7.7-2c0.1,0,0.2,0,0.2,0
								c0.2,0,0.4,0,0.5,0.1c0.2,0.1,0.4,0.4,0.5,0.6l0.7,2.7c0.1,0.5-0.2,1.1-0.7,1.2l-12,3.1
								C-213.3,214.7-213.4,214.7-213.5,214.7z"/>
							<path class="st11" d="M-215.1,193.7l4.2,16.5l8.7-2.2l0.7,2.7l-12,3.1l-4.9-19.1L-215.1,193.7 M-215.1,191.7
								c-0.2,0-0.3,0-0.5,0.1l-3.3,0.9c-0.5,0.1-1,0.5-1.2,0.9c-0.3,0.5-0.3,1-0.2,1.5l4.9,19.1c0.1,0.5,0.5,1,0.9,1.2
								c0.3,0.2,0.7,0.3,1,0.3c0.2,0,0.3,0,0.5-0.1l12-3.1c1.1-0.3,1.7-1.4,1.4-2.4l-0.7-2.7c-0.1-0.5-0.5-1-0.9-1.2
								c-0.3-0.2-0.7-0.3-1-0.3c-0.2,0-0.3,0-0.5,0.1l-6.7,1.7l-3.7-14.5C-213.4,192.3-214.2,191.7-215.1,191.7L-215.1,191.7z"/>
						</g>
					</g>
				</g>
				<g>
					<path class="st21" d="M-193.5,120.4h48c3.1,0,5.6,4.3,5.6,9.7v19.8c0,4.9-2.1,9-4.9,9.6c-0.4,0.1-0.7,0.7-0.7,1.4v10.8
						c0,0.6-0.5,0.9-0.7,0.4l-4.9-11.9c-0.2-0.4-0.4-0.6-0.7-0.6h-41.8c-3.1,0-5.6-4.4-5.6-9.7v-19.8
						C-199.1,124.7-196.6,120.4-193.5,120.4z"/>
					<g>
						<g>
							<path class="st26" d="M-179.2,151.1c-2.4,0-4.3-0.6-5.6-1.9c-1.4-1.3-2.1-3-2.1-5.2c0-0.6,0.4-1,1-1h3.6c0.6,0,1,0.4,1,1
								c0,0.8,0.2,1.4,0.5,1.8c0.3,0.4,0.9,0.5,1.6,0.5c0.7,0,1.2-0.2,1.5-0.6c0.4-0.4,0.6-1.1,0.6-2v-14.4c0-0.6,0.4-1,1-1h3.6
								c0.6,0,1,0.4,1,1v14.4c0,2.2-0.7,4.1-2.2,5.4C-175,150.4-176.9,151.1-179.2,151.1z"/>
							<path class="st11" d="M-172.5,129.3v14.4c0,2-0.6,3.5-1.8,4.7s-2.8,1.7-4.9,1.7c-2.1,0-3.8-0.5-5-1.6s-1.7-2.6-1.7-4.5h3.6
								c0,1.1,0.3,1.9,0.8,2.5c0.5,0.5,1.3,0.8,2.3,0.8s1.7-0.3,2.3-1c0.6-0.6,0.9-1.5,0.9-2.6v-14.4L-172.5,129.3 M-172.5,127.3
								h-3.6c-1.1,0-2,0.9-2,2v14.4c0,0.6-0.1,1-0.3,1.3c-0.1,0.1-0.3,0.3-0.8,0.3c-0.3,0-0.7,0-0.9-0.2c-0.1-0.2-0.2-0.5-0.2-1.1
								c0-1.1-0.9-2-2-2h-3.6c-1.1,0-2,0.9-2,2c0,2.5,0.8,4.5,2.4,6c1.5,1.4,3.7,2.2,6.3,2.2c2.5,0,4.6-0.8,6.2-2.3
								c1.6-1.5,2.5-3.6,2.5-6.1v-14.4C-170.5,128.2-171.4,127.3-172.5,127.3L-172.5,127.3z"/>
						</g>
						<g>
							<path class="st26" d="M-161.4,151.1c-1.6,0-3.1-0.3-4.5-0.9c-1.4-0.6-2.5-1.5-3.3-2.6s-1.2-2.5-1.2-4c0-0.6,0.4-1,1-1h3.6
								c0.6,0,1,0.4,1,1c0,0.9,0.3,1.5,0.8,1.9c0.6,0.5,1.5,0.7,2.7,0.7c1,0,1.7-0.2,2.2-0.5c0.4-0.3,0.6-0.7,0.6-1.2
								c0-0.8-0.3-1.1-0.6-1.3c-0.4-0.3-1.2-0.7-3.1-1.3c-1.8-0.5-3.1-1.1-4.2-1.8c-2.2-1.4-3.3-3.2-3.3-5.4c0-2,0.8-3.6,2.4-4.9
								c1.5-1.2,3.5-1.8,5.9-1.8c1.6,0,3,0.3,4.2,0.9c1.3,0.6,2.3,1.5,3,2.6s1.1,2.4,1.1,3.8c0,0.6-0.4,1-1,1h-3.6c-0.6,0-1-0.4-1-1
								c0-0.8-0.2-1.4-0.7-1.8c-0.5-0.4-1.2-0.7-2.2-0.7c-0.9,0-1.6,0.2-2.1,0.5c-0.4,0.3-0.6,0.7-0.6,1.3c0,0.3,0.1,0.7,0.6,1.1
								c0.4,0.3,1.3,0.8,3.1,1.3c1.7,0.5,3.1,1.1,4.1,1.7c1.1,0.7,1.9,1.5,2.5,2.4c0.5,0.9,0.8,2,0.8,3.3c0,2-0.8,3.7-2.4,4.9
								C-156.9,150.5-158.9,151.1-161.4,151.1z"/>
							<path class="st11" d="M-161.5,129c1.4,0,2.7,0.3,3.8,0.8s2,1.3,2.6,2.3s1,2.1,1,3.2h-3.6c0-1.1-0.3-1.9-1-2.5
								s-1.6-0.9-2.9-0.9c-1.2,0-2.1,0.2-2.7,0.7c-0.6,0.5-1,1.2-1,2.1c0,0.8,0.3,1.4,1,1.9s1.8,1,3.4,1.5c1.6,0.5,2.9,1,3.9,1.6
								s1.7,1.3,2.1,2.1c0.5,0.8,0.7,1.7,0.7,2.8c0,1.7-0.7,3.1-2,4.1s-3.1,1.5-5.3,1.5c-1.5,0-2.9-0.3-4.1-0.8
								c-1.2-0.6-2.2-1.3-2.9-2.3s-1-2.1-1-3.4h3.6c0,1.2,0.4,2.1,1.2,2.7c0.8,0.6,1.9,1,3.3,1c1.2,0,2.2-0.3,2.8-0.8s0.9-1.2,0.9-2
								c0-0.9-0.3-1.6-1-2.1c-0.6-0.5-1.8-1-3.4-1.5c-1.7-0.5-3-1.1-3.9-1.7c-1.9-1.2-2.8-2.7-2.8-4.6c0-1.7,0.7-3,2-4.1
								C-165.4,129.5-163.7,129-161.5,129 M-161.5,127c-2.6,0-4.8,0.7-6.5,2c-1.8,1.4-2.8,3.4-2.8,5.7c0,1.8,0.6,4.3,3.7,6.3
								c0.3,0.2,0.7,0.4,1.1,0.6h-3.5c-1.1,0-2,0.9-2,2c0,1.7,0.5,3.2,1.4,4.5s2.2,2.3,3.7,2.9c1.5,0.7,3.1,1,4.9,1
								c2.7,0,4.9-0.6,6.6-1.9c1.8-1.4,2.7-3.3,2.7-5.7c0-1.4-0.3-2.7-0.9-3.8c-0.6-1.1-1.6-2-2.8-2.8c-0.4-0.2-0.8-0.5-1.3-0.7h3
								c1.1,0,2-0.9,2-2c0-1.6-0.4-3-1.3-4.3c-0.8-1.3-2-2.3-3.5-3C-158.2,127.3-159.8,127-161.5,127L-161.5,127z M-159.3,136.4
								c-0.3-0.1-0.6-0.2-0.9-0.3c-1.8-0.5-2.6-1-2.8-1.2s-0.2-0.2-0.2-0.3c0-0.4,0.1-0.4,0.2-0.5c0.3-0.2,0.8-0.3,1.5-0.3
								c0.5,0,1.2,0.1,1.5,0.4c0.1,0.1,0.3,0.3,0.3,1C-159.6,135.7-159.5,136.1-159.3,136.4L-159.3,136.4z M-161.4,145.3
								c-0.9,0-1.6-0.2-2-0.5c-0.2-0.2-0.4-0.5-0.4-1.2c0-0.5-0.2-1-0.5-1.3c0.5,0.2,1.1,0.4,1.7,0.6c1.9,0.6,2.6,1,2.8,1.2
								c0.1,0.1,0.2,0.1,0.2,0.5c0,0.2-0.1,0.3-0.2,0.4C-159.9,145-160.3,145.3-161.4,145.3L-161.4,145.3z"/>
						</g>
					</g>
				</g>
				<g>
					<path class="st42" d="M260.3,186.3c-1.3-1.6-3.5-2.6-6.7-3.2c-3.2-0.6-5.5-0.8-7.2-0.9l-4.3,22.9l5.2,1l1.6-8.3
						c0.4,0.2,1,0.3,1.7,0.5c3.2,0.6,5.9,0.3,8-1.1c1.7-1,2.7-2.8,3.2-5.1C262.2,189.8,261.7,187.7,260.3,186.3z M251.4,194.1
						c-0.8-0.2-1.3-0.2-1.8-0.5l1.3-6.9c0.4-0.1,1.1,0,2.2,0.2c2.6,0.5,3.8,1.9,3.5,4.2C256.1,193.6,254.2,194.7,251.4,194.1z"/>
					<path class="st42" d="M269,199.5c-2-1.1-2.5-1.6-2.4-2.4c0.2-1,1-1.3,2.3-1c1.4,0.3,2.8,1.2,3.5,1.6l1.6-3.5
						c-1-0.7-2.5-1.5-4.5-1.8c-4.1-0.8-7.3,1.1-7.9,4.2c-0.5,2,0.6,4.2,3.8,6c1.9,1,2.3,1.5,2.1,2.4c-0.2,0.8-1,1.3-2.5,1
						s-3.4-1.4-4.3-2l-1.7,3.6c1.2,1,3,1.8,5.2,2.2c4.8,0.9,7.8-0.9,8.4-4.1C272.9,203.1,272,201.2,269,199.5z"/>
				</g>
				<g>
					<path class="st21" d="M206.7,117.4l-47.6,6.4c-3,0.4-4.9,5.1-4.2,10.4l2.6,19.6c0.7,4.9,3.3,8.7,6.1,8.9c0.4,0,0.8,0.6,0.9,1.3
						l1.4,10.7c0.1,0.6,0.6,0.8,0.7,0.3l3.3-12.5c0.1-0.4,0.3-0.6,0.6-0.7l41.4-5.6c3-0.4,4.9-5.1,4.2-10.4l-2.6-19.6
						C212.8,121,209.8,117,206.7,117.4z"/>
					<g>
						<path class="st42" d="M196.5,131.3c1.9-0.3,2.8-1.7,2.5-3.2c-0.2-1.7-1.5-2.6-3.3-2.4s-2.7,1.5-2.5,3.2
							C193.4,130.4,194.7,131.5,196.5,131.3z"/>
						<path class="st42" d="M176.5,129.4l-4.1,25.4l5.7-0.8l0.9-6.5l6.9-0.9l2.7,6l5.9-0.8l-10.8-23.4L176.5,129.4z M179.1,143.3
							c0,0,1.1-8.7,1.3-10.3c0.4,1.4,4,9.6,4.1,9.5L179.1,143.3z"/>
						
							<rect x="195.3" y="133.5" transform="matrix(0.9911 -0.1332 0.1332 0.9911 -17.2031 27.6492)" class="st42" width="5.5" height="17.8"/>
					</g>
				</g>
			</g>
		</g>
	</g>
</g>
</svg>
