<?xml version="1.0" encoding="utf-8"?>
<!-- Generator: Adobe Illustrator 23.0.1, SVG Export Plug-In . SVG Version: 6.00 Build 0)  -->
<svg version="1.1" id="レイヤー_1" xmlns="http://www.w3.org/2000/svg" xmlns:xlink="http://www.w3.org/1999/xlink" x="0px"
	 y="0px" viewBox="0 0 571.8 506.6" style="enable-background:new 0 0 571.8 506.6;" xml:space="preserve">
<style type="text/css">
	.st0{fill-rule:evenodd;clip-rule:evenodd;fill:#888888;}
	.st1{fill-rule:evenodd;clip-rule:evenodd;fill:#DEDEDE;}
	.st2{fill:#FFFFFF;stroke:#DEDEDE;stroke-miterlimit:10;}
	.st3{fill:#DEDEDE;}
	.st4{fill:#CCCCCC;}
	.st5{fill:#DEDEDE;stroke:#DEDEDE;stroke-linecap:round;stroke-linejoin:round;stroke-miterlimit:10;}
	.st6{fill-rule:evenodd;clip-rule:evenodd;fill:#FFFFFF;stroke:#DEDEDE;stroke-miterlimit:10;}
	.st7{fill:#FFC4BB;stroke:#0D343F;stroke-width:2;stroke-linecap:round;stroke-linejoin:round;stroke-miterlimit:10;}
	.st8{fill:#FFFFFF;stroke:#0D343F;stroke-width:2;stroke-linecap:round;stroke-linejoin:round;stroke-miterlimit:10;}
	
		.st9{fill:none;stroke:#0D343F;stroke-width:2;stroke-linecap:round;stroke-linejoin:round;stroke-miterlimit:10;stroke-dasharray:2.837;}
	.st10{fill:#888888;}
	.st11{fill:#0D343F;}
	.st12{fill:#EDEDED;}
	.st13{fill:#FFFFFF;stroke:#0D343F;stroke-width:1.5;stroke-linecap:round;stroke-linejoin:round;stroke-miterlimit:10;}
	.st14{fill:#AAAAAA;}
	.st15{fill:#ECECEC;}
	.st16{fill:none;stroke:#0D343F;stroke-width:2;stroke-miterlimit:10;}
	.st17{fill:none;stroke:#0D343F;stroke-width:2;stroke-linecap:round;stroke-linejoin:round;stroke-miterlimit:10;}
	.st18{fill:#ECECEC;stroke:#0D343F;stroke-width:2;stroke-linecap:round;stroke-linejoin:round;stroke-miterlimit:10;}
	.st19{fill:#DEDEDE;stroke:#0D343F;stroke-width:2;stroke-linecap:round;stroke-linejoin:round;stroke-miterlimit:10;}
	.st20{fill:#233740;}
	.st21{fill:#37C8A3;stroke:#0D343F;stroke-width:2;stroke-linecap:round;stroke-linejoin:round;stroke-miterlimit:10;}
	.st22{fill:#F1C1B9;}
	.st23{fill:#37C8A3;}
	.st24{fill:#B1E0D3;stroke:#0D343F;stroke-width:2;stroke-linecap:round;stroke-linejoin:round;stroke-miterlimit:10;}
	.st25{fill:#79C8A4;stroke:#233740;stroke-width:2;stroke-linecap:round;stroke-linejoin:round;stroke-miterlimit:10;}
	.st26{fill:#F1C1B9;stroke:#233740;stroke-width:2;stroke-miterlimit:10;}
	.st27{fill:#FFC4BB;stroke:#233740;stroke-width:0.5;stroke-miterlimit:10;}
	.st28{fill:#77C5A1;stroke:#233740;stroke-width:0.5;stroke-miterlimit:10;}
	.st29{fill:#233740;stroke:#233740;stroke-width:0.5;stroke-miterlimit:10;}
	.st30{fill:none;stroke:#233740;stroke-width:0.5;stroke-miterlimit:10;}
	.st31{fill:#233740;stroke:#233740;stroke-width:2;stroke-miterlimit:10;}
	.st32{fill:#FFFFFF;stroke:#233740;stroke-width:2;stroke-linecap:round;stroke-linejoin:round;stroke-miterlimit:10;}
	.st33{fill:none;stroke:#233740;stroke-width:2;stroke-linecap:round;stroke-linejoin:round;stroke-miterlimit:10;}
	.st34{fill:#FFFFFF;stroke:#233740;stroke-width:2;stroke-miterlimit:10;}
	.st35{fill:#FFFFFF;}
	.st36{fill:#F1C1B9;stroke:#233740;stroke-width:1.5;stroke-miterlimit:10;}
	.st37{fill:#37C8A3;stroke:#233740;stroke-width:1.5;stroke-miterlimit:10;}
	.st38{fill:#F1C1B9;stroke:#233740;stroke-width:2;stroke-linecap:round;stroke-miterlimit:10;}
	.st39{fill:#DD8D85;stroke:#0D343F;stroke-width:2;stroke-linecap:round;stroke-linejoin:round;stroke-miterlimit:10;}
	.st40{fill:#37C8A3;stroke:#233740;stroke-width:2;stroke-miterlimit:10;}
	.st41{fill:none;stroke:#233740;stroke-width:2;stroke-miterlimit:10;}
	.st42{fill:#EFBAD5;stroke:#233740;stroke-width:2;stroke-linecap:round;stroke-linejoin:round;stroke-miterlimit:10;}
	.st43{fill:#DED99C;stroke:#233740;stroke-width:2;stroke-linecap:round;stroke-linejoin:round;stroke-miterlimit:10;}
	.st44{fill:#A8E1E2;stroke:#233740;stroke-width:2;stroke-linecap:round;stroke-linejoin:round;stroke-miterlimit:10;}
	.st45{fill:#FFC4BB;}
</style>
<path class="st0" d="M525.1,437.7c0,35.8-102.1,64.8-228.1,64.8s-228.1-29-228.1-64.8S171,372.9,297,372.9
	C422.9,372.9,525.1,401.9,525.1,437.7z"/>
<g id="BACKGROUND">
</g>
<path class="st1" d="M525.1,433c0,35.8-102.1,64.8-228.1,64.8S68.9,468.8,68.9,433S171,368.2,297,368.2
	C422.9,368.2,525.1,397.2,525.1,433z"/>
<g>
	<path class="st2" d="M477.7,137.5l-16.3-20.6c0,0,14.1-9.9,14.4-25.2c12.9-4.2,39.7-7.5,47.3-8.4l-28,22.3c-1.4-1-3.3-1-4.7,0.1
		c-1.7,1.3-2,3.8-0.6,5.5c1.3,1.7,3.8,2,5.5,0.6c1.4-1.1,1.8-3,1.2-4.5l28-22.3c-2.6,7.2-12,32.6-18.9,44.2
		C490.6,126.1,477.7,137.5,477.7,137.5z"/>
	<path class="st3" d="M505.4,129.2c7-11.6,16.3-36.9,18.9-44.2l-28,22.3c0.6,1.6,0.2,3.4-1.2,4.5c-1.7,1.3-4.2,1.1-5.5-0.6l-20.1,16
		l8.2,10.3C477.7,137.5,490.6,126.1,505.4,129.2z"/>
	<g>
		<path class="st3" d="M361.7,212.9L361.7,212.9c-2.9-3.6-2.3-8.9,1.4-11.8l101.1-80.3l10.4,13.1l-101.1,80.3
			C369.9,217.1,364.6,216.5,361.7,212.9z"/>
		<path class="st3" d="M361.7,212.9L361.7,212.9c-2.9-3.6-2.3-8.9,1.4-11.8l101.1-80.3l10.4,13.1l-101.1,80.3
			C369.9,217.1,364.6,216.5,361.7,212.9z"/>
	</g>
	<g>
		<g>
			<path class="st4" d="M473.3,139.1l-14.4-18.2c-1.3-1.6-1-3.9,0.6-5.2l1.2-0.9c1.6-1.3,3.9-1,5.2,0.6l14.4,18.2
				c1.3,1.6,1,3.9-0.6,5.2l-1.2,0.9C476.9,141,474.5,140.7,473.3,139.1z"/>
			<path class="st4" d="M473.3,139.1l-14.4-18.2c-1.3-1.6-1-3.9,0.6-5.2l1.2-0.9c1.6-1.3,3.9-1,5.2,0.6l14.4,18.2
				c1.3,1.6,1,3.9-0.6,5.2l-1.2,0.9C476.9,141,474.5,140.7,473.3,139.1z"/>
		</g>
	</g>
	<g>
		<path class="st5" d="M449.9,70.2C474.2,53,508,58.7,525.2,83s11.5,58.1-12.8,75.3l-0.5-0.7c23.9-16.9,29.6-50.2,12.6-74.1
			c-16.9-23.9-50.1-29.6-74-12.6L449.9,70.2z"/>
		<polygon class="st5" points="493.4,39.9 494.2,39.3 556.1,126.8 555.4,127.3 		"/>
		<g>
			<rect x="520.8" y="79.3" transform="matrix(0.8161 -0.5779 0.5779 0.8161 48.3525 318.59)" class="st5" width="8" height="8"/>
			<path class="st5" d="M518.6,82.3l7.3-5.1l5.1,7.3l-7.3,5.1L518.6,82.3z M525.6,78.4l-5.8,4.1l4.1,5.8l5.8-4.1L525.6,78.4z"/>
		</g>
		<g>
			<rect x="446" y="66.5" transform="matrix(0.8159 -0.5781 0.5781 0.8159 42.0563 273.1587)" class="st5" width="8" height="8"/>
			<path class="st5" d="M443.9,69.5l7.2-5.1l5.1,7.3l-7.3,5.1L443.9,69.5z M451,65.6l-5.8,4.1l4.1,5.8l5.8-4.1L451,65.6z"/>
		</g>
		<g>
			<rect x="508.2" y="154.2" transform="matrix(0.8161 -0.578 0.578 0.8161 2.7644 325.138)" class="st5" width="8" height="8"/>
			<path class="st5" d="M506,157.2l7.2-5.1l5.1,7.3l-7.3,5.1L506,157.2z M513,153.2l-5.8,4.1l4.1,5.8l5.8-4.1L513,153.2z"/>
		</g>
		<g>
			<path class="st5" d="M558.2,130.5c-1.8,1.3-4.3,0.9-5.6-0.9c-1.3-1.8-0.9-4.3,1-5.6c1.8-1.3,4.3-0.9,5.6,0.9
				C560.4,126.7,560,129.2,558.2,130.5z"/>
			<path class="st5" d="M551.5,126.5c0.2-1.2,0.8-2.2,1.8-2.9c2-1.4,4.8-0.9,6.2,1.1c0.7,1,1,2.1,0.8,3.3c-0.2,1.2-0.8,2.2-1.8,2.9
				l0,0c-1,0.7-2.1,1-3.3,0.8s-2.2-0.8-2.9-1.8C551.6,128.8,551.3,127.6,551.5,126.5z M559.4,127.8c0.2-0.9-0.1-1.9-0.6-2.7
				c-1.1-1.6-3.4-2-5-0.8c-1.6,1.1-2,3.4-0.8,5c0.5,0.8,1.4,1.3,2.3,1.5c0.9,0.2,1.9-0.1,2.7-0.6l0,0
				C558.7,129.6,559.2,128.8,559.4,127.8z"/>
		</g>
		<g>
			<path class="st5" d="M496.1,42.9c-1.8,1.3-4.3,0.9-5.6-0.9c-1.3-1.8-0.9-4.3,0.9-5.6s4.3-0.9,5.6,1
				C498.3,39.1,497.9,41.6,496.1,42.9z"/>
			<path class="st5" d="M489.4,38.9c0.2-1.1,0.8-2.2,1.8-2.9c2-1.4,4.8-0.9,6.2,1.1s0.9,4.8-1.1,6.2l0,0c-2,1.4-4.8,0.9-6.2-1.1
				C489.5,41.2,489.2,40,489.4,38.9z M497.3,40.2c0.2-0.9,0-1.9-0.6-2.7c-1.1-1.6-3.4-2-5-0.8c-1.6,1.1-2,3.4-0.8,5
				c1.1,1.6,3.4,2,5,0.8C496.7,41.9,497.2,41.1,497.3,40.2z"/>
		</g>
	</g>
</g>
<g>
	<g>
		<g>
			<g>
				<g>
					<path class="st1" d="M204.1,123.3c4,3,7.6,6.5,10.6,10.4l13.6-2.5l9,21l-11.2,8.1c0.7,4.9,0.8,9.9,0.2,14.9l11.4,7.9l-8.5,21.2
						l-13.6-2.2c-3,4-6.5,7.6-10.4,10.6l2.5,13.6l-21,9l-8.1-11.2c-4.9,0.7-9.9,0.8-14.9,0.2l-7.9,11.4l-21.2-8.5l2.2-13.6
						c-4-3-7.6-6.5-10.6-10.4l-13.6,2.5l-9-21l11.2-8.1c-0.7-4.9-0.8-9.9-0.2-14.9l-11.4-7.9l8.5-21.2l13.6,2.2
						c3-4,6.5-7.6,10.4-10.6l-2.5-13.6l21-9l8.1,11.2c4.9-0.7,9.9-0.8,14.9-0.2l7.9-11.4l21.2,8.5L204.1,123.3L204.1,123.3z
						 M180.4,146c-12.6-5-26.9,1-31.9,13.6c-5.1,12.6,1,26.9,13.6,31.9c12.6,5.1,26.9-1,31.9-13.6C199.1,165.4,193,151.1,180.4,146z
						"/>
				</g>
			</g>
		</g>
	</g>
	<g>
		<g>
			<g>
				<g>
					<path class="st6" d="M94.3,67.8c2.3,1.7,4.3,3.7,6,5.9l7.6-1.4l5,11.8l-6.3,4.5c0.4,2.7,0.4,5.6,0.1,8.4l6.4,4.4l-4.8,11.9
						l-7.7-1.2c-1.7,2.3-3.7,4.3-5.9,6l1.4,7.6l-11.8,5l-4.5-6.3c-2.7,0.4-5.6,0.4-8.4,0.1l-4.4,6.4l-11.9-4.8l1.2-7.7
						c-2.3-1.7-4.3-3.7-6-5.9l-7.6,1.4l-5-11.8l6.3-4.5c-0.4-2.7-0.4-5.6-0.1-8.4l-6.4-4.4L42.4,73l7.7,1.2c1.7-2.3,3.7-4.3,5.9-6
						l-1.5-7.6l11.8-5l4.5,6.3c2.7-0.4,5.6-0.4,8.4-0.1l4.4-6.4l11.9,4.8L94.3,67.8L94.3,67.8z M81.1,80.6
						C74,77.8,66,81.2,63.2,88.2c-2.8,7.1,0.6,15.1,7.6,17.9c7.1,2.8,15.1-0.6,17.9-7.6S88.1,83.4,81.1,80.6z"/>
				</g>
			</g>
		</g>
	</g>
</g>
<g>
	<g>
		<path class="st7" d="M378.4,407.9H218.8c-13.9,0-25.2-10.9-25.2-24.4V39.3c0-13.5,11.3-24.4,25.2-24.4h159.6
			c13.9,0,25.2,10.9,25.2,24.4v344.3C403.6,397,392.3,407.9,378.4,407.9z"/>
		<path class="st8" d="M390.8,39v340.9c0,8-6.7,14.5-14.9,14.5H221.3c-8.3,0-14.9-6.5-14.9-14.5V39c0-8,6.7-14.5,14.9-14.5h25.8
			c1.4,0,2.7,0.8,3.4,2l2.7,5.3c1.2,2.4,3.8,4,6.6,4h77.5c2.8,0,5.4-1.5,6.6-4l2.7-5.3c0.6-1.2,1.9-2,3.4-2h25.8
			C384.1,24.5,390.8,31,390.8,39z"/>
		<path class="st8" d="M331.1,29.6h-62.4c-1.5,0-2.6-1.1-2.6-2.5l0,0c0-1.4,1.2-2.5,2.6-2.5h62.4c1.5,0,2.6,1.1,2.6,2.5l0,0
			C333.7,28.5,332.6,29.6,331.1,29.6z"/>
	</g>
	<path class="st9" d="M367.8,381.8h-142c-4.6,0-8.4-3.8-8.4-8.4v-52.1c0-4.6,3.8-8.4,8.4-8.4h142c4.6,0,8.4,3.8,8.4,8.4v52.1
		C376.1,378,372.4,381.8,367.8,381.8z"/>
	<path class="st9" d="M365.7,212.8h-80.1c-4.6,0-8.3-3.2-8.3-7.1v-34.1c0-3.9,3.7-7.1,8.3-7.1h80.1c4.6,0,8.3,3.2,8.3,7.1v34.1
		C374,209.6,370.3,212.8,365.7,212.8z"/>
	<g>
		<path class="st10" d="M229.8,305.4c-3.4,0-6.2-2.8-6.2-6.2v-62.6c0-3.4,2.8-6.2,6.2-6.2h145c3.4,0,6.2,2.8,6.2,6.2v62.6
			c0,3.4-2.8,6.2-6.2,6.2H229.8z"/>
		<path class="st11" d="M374.7,231.3c2.9,0,5.2,2.3,5.2,5.2v62.6c0,2.9-2.3,5.2-5.2,5.2H229.8c-2.9,0-5.2-2.3-5.2-5.2v-62.6
			c0-2.9,2.3-5.2,5.2-5.2H374.7 M374.7,229.3H229.8c-4,0-7.2,3.2-7.2,7.2v62.6c0,4,3.2,7.2,7.2,7.2h145c4,0,7.2-3.2,7.2-7.2v-62.6
			C381.9,232.6,378.7,229.3,374.7,229.3L374.7,229.3z"/>
	</g>
	<g>
		<path class="st12" d="M225.3,299.1c-4.1,0-7.5-3.4-7.5-7.5v-60.1c0-4.1,3.4-7.5,7.5-7.5h141.8c4.1,0,7.5,3.4,7.5,7.5v60.1
			c0,4.1-3.4,7.5-7.5,7.5H225.3z"/>
		<path class="st11" d="M367,225.1c3.6,0,6.5,2.9,6.5,6.5v60.1c0,3.6-2.9,6.5-6.5,6.5H225.3c-3.6,0-6.5-2.9-6.5-6.5v-60.1
			c0-3.6,2.9-6.5,6.5-6.5H367 M367,223.1H225.3c-4.7,0-8.5,3.8-8.5,8.5v60.1c0,4.7,3.8,8.5,8.5,8.5h141.8c4.7,0,8.5-3.8,8.5-8.5
			v-60.1C375.5,226.9,371.7,223.1,367,223.1L367,223.1z"/>
	</g>
	<g>
		<path class="st13" d="M321.1,247.4h-36.8c-1,0-1.8-0.8-1.8-1.8l0,0c0-1,0.8-1.8,1.8-1.8h36.8c1,0,1.8,0.8,1.8,1.8l0,0
			C322.9,246.6,322.1,247.4,321.1,247.4z"/>
		<path class="st13" d="M304.4,254.6h-20c-1,0-1.8-0.8-1.8-1.8l0,0c0-1,0.8-1.8,1.8-1.8h20c1,0,1.8,0.8,1.8,1.8l0,0
			C306.2,253.8,305.4,254.6,304.4,254.6z"/>
		<path class="st13" d="M365.9,254.6h-54.2c-1,0-1.8-0.8-1.8-1.8l0,0c0-1,0.8-1.8,1.8-1.8h54.2c1,0,1.8,0.8,1.8,1.8l0,0
			C367.7,253.8,366.9,254.6,365.9,254.6z"/>
		<path class="st13" d="M315.3,261.8h-31c-1,0-1.8-0.8-1.8-1.8l0,0c0-1,0.8-1.8,1.8-1.8h31c1,0,1.8,0.8,1.8,1.8l0,0
			C317.1,261,316.3,261.8,315.3,261.8z"/>
		<path class="st13" d="M341.6,261.8h-19.5c-1,0-1.8-0.8-1.8-1.8l0,0c0-1,0.8-1.8,1.8-1.8h19.5c1,0,1.8,0.8,1.8,1.8l0,0
			C343.4,261,342.6,261.8,341.6,261.8z"/>
		<path class="st13" d="M365.9,261.8H348c-1,0-1.8-0.8-1.8-1.8l0,0c0-1,0.8-1.8,1.8-1.8h17.9c1,0,1.8,0.8,1.8,1.8l0,0
			C367.7,261,366.9,261.8,365.9,261.8z"/>
		<path class="st13" d="M365.9,269.1h-81.6c-1,0-1.8-0.8-1.8-1.8l0,0c0-1,0.8-1.8,1.8-1.8h81.6c1,0,1.8,0.8,1.8,1.8l0,0
			C367.7,268.3,366.9,269.1,365.9,269.1z"/>
		<path class="st13" d="M329.2,276.3h-44.9c-1,0-1.8-0.8-1.8-1.8l0,0c0-1,0.8-1.8,1.8-1.8h44.9c1,0,1.8,0.8,1.8,1.8l0,0
			C331,275.5,330.2,276.3,329.2,276.3z"/>
		<path class="st13" d="M365.9,276.3h-29.4c-1,0-1.8-0.8-1.8-1.8l0,0c0-1,0.8-1.8,1.8-1.8h29.4c1,0,1.8,0.8,1.8,1.8l0,0
			C367.7,275.5,366.9,276.3,365.9,276.3z"/>
		<path class="st13" d="M310.7,283.5h-26.4c-1,0-1.8-0.8-1.8-1.8l0,0c0-1,0.8-1.8,1.8-1.8h26.4c1,0,1.8,0.8,1.8,1.8l0,0
			C312.5,282.7,311.7,283.5,310.7,283.5z"/>
		<path class="st13" d="M344.2,283.5h-26.4c-1,0-1.8-0.8-1.8-1.8l0,0c0-1,0.8-1.8,1.8-1.8h26.4c1,0,1.8,0.8,1.8,1.8l0,0
			C346,282.7,345.2,283.5,344.2,283.5z"/>
		<path class="st13" d="M365.9,283.5h-15.3c-1,0-1.8-0.8-1.8-1.8l0,0c0-1,0.8-1.8,1.8-1.8h15.3c1,0,1.8,0.8,1.8,1.8l0,0
			C367.7,282.7,366.9,283.5,365.9,283.5z"/>
		<path class="st13" d="M321.1,290.8h-36.8c-1,0-1.8-0.8-1.8-1.8l0,0c0-1,0.8-1.8,1.8-1.8h36.8c1,0,1.8,0.8,1.8,1.8l0,0
			C322.9,290,322.1,290.8,321.1,290.8z"/>
		<path class="st13" d="M365.9,247.4h-36.8c-1,0-1.8-0.8-1.8-1.8l0,0c0-1,0.8-1.8,1.8-1.8h36.8c1,0,1.8,0.8,1.8,1.8l0,0
			C367.7,246.6,366.9,247.4,365.9,247.4z"/>
	</g>
	<g>
		<g>
			<path class="st14" d="M217.8,233.1v-1.5c0-4.1,3.4-7.5,7.5-7.5h141.8c4.1,0,7.5,3.4,7.5,7.5v1.5H217.8z"/>
			<path class="st11" d="M367,225.1c3.6,0,6.5,2.9,6.5,6.5v0.5H218.8v-0.5c0-3.6,2.9-6.5,6.5-6.5H367 M367,223.1H225.3
				c-4.7,0-8.5,3.8-8.5,8.5v2.5h158.7v-2.5C375.5,226.9,371.7,223.1,367,223.1L367,223.1z"/>
		</g>
		<g>
			<g>
				<path class="st15" d="M345.6,228.8c0,1.1-0.9,2-2,2s-2-0.9-2-2s0.9-2,2-2S345.6,227.7,345.6,228.8z"/>
			</g>
			<g>
				<path class="st15" d="M355.7,228.8c0,1.1-0.9,2-2,2s-2-0.9-2-2s0.9-2,2-2S355.7,227.7,355.7,228.8z"/>
			</g>
			<g>
				<path class="st15" d="M365.7,228.8c0,1.1-0.9,2-2,2s-2-0.9-2-2s0.9-2,2-2S365.7,227.7,365.7,228.8z"/>
			</g>
		</g>
	</g>
	<g>
		<path class="st16" d="M261.9,212.8h-34c-3.9,0-7.2-3.2-7.2-7.2v-34c0-3.9,3.2-7.2,7.2-7.2h34c3.9,0,7.2,3.2,7.2,7.2v34
			C269.1,209.6,265.9,212.8,261.9,212.8z"/>
		<g>
			<polyline class="st17" points="237.4,181.7 230.5,188.6 237.5,195.7 			"/>
			<polyline class="st17" points="252.5,181.7 259.4,188.6 252.4,195.7 			"/>
			<line class="st17" x1="248.2" y1="181.7" x2="241.7" y2="195.7"/>
		</g>
	</g>
	<g>
		<path class="st7" d="M366.3,328v39.1c0,2.1-1.7,3.8-3.8,3.8h-55.6c-2.1,0-3.8-1.7-3.8-3.8V328c0-2.1,1.7-3.8,3.8-3.8h55.6
			C364.6,324.1,366.3,325.9,366.3,328z"/>
		<path class="st18" d="M362.6,336.5c0,5.1-4.1,9.2-9.2,9.2s-9.2-4.1-9.2-9.2s4.1-9.2,9.2-9.2S362.6,331.4,362.6,336.5z"/>
		<path class="st8" d="M340.2,371h-33.3c-2.1,0-3.8-1.7-3.8-3.8V361l14.6-25.3c0.8-1.3,2.7-1.3,3.4,0l11,19.1l8.2,14.2
			C340.6,369.6,340.6,370.4,340.2,371z"/>
		<path class="st18" d="M354.6,371h-31.9l9.4-16.2l5-8.7c0.7-1.2,2.4-1.2,3.1,0L354.6,371z"/>
	</g>
	<g>
		<path class="st15" d="M228.5,291.5c-2.1,0-3.9-1.7-3.9-3.9v-43.5c0-2.1,1.7-3.9,3.9-3.9H272c2.1,0,3.9,1.7,3.9,3.9v43.5
			c0,2.1-1.7,3.9-3.9,3.9H228.5z"/>
		<path class="st11" d="M272,241.3c1.6,0,2.9,1.3,2.9,2.9v43.5c0,1.6-1.3,2.9-2.9,2.9h-43.5c-1.6,0-2.9-1.3-2.9-2.9v-43.5
			c0-1.6,1.3-2.9,2.9-2.9L272,241.3 M272,239.3h-43.5c-2.7,0-4.9,2.2-4.9,4.9v43.5c0,2.7,2.2,4.9,4.9,4.9H272c2.7,0,4.9-2.2,4.9-4.9
			v-43.5C276.9,241.5,274.7,239.3,272,239.3L272,239.3z"/>
	</g>
	<g>
		<path class="st19" d="M269.7,370.9h-31.5c-4.3,0-7.7-3.5-7.7-7.7v-31.5c0-4.3,3.5-7.7,7.7-7.7h31.5c4.3,0,7.7,3.5,7.7,7.7v31.5
			C277.4,367.4,273.9,370.9,269.7,370.9z"/>
		<path class="st20" d="M248.4,338.6l13.5,7.8c0.8,0.5,0.8,1.7,0,2.2l-13.5,7.8c-0.8,0.5-1.9-0.1-1.9-1.1v-15.5
			C246.5,338.7,247.6,338.1,248.4,338.6z"/>
	</g>
	<g>
		<rect x="284.6" y="326.1" class="st7" width="11.8" height="12.1"/>
		<rect x="284.7" y="342.2" class="st21" width="11.8" height="12.1"/>
		<rect x="284.7" y="357.9" class="st19" width="11.8" height="12.1"/>
	</g>
	<g>
		<g>
			<g>
				<path class="st22" d="M255.3,94.6c-0.4,0-0.8-0.3-0.9-0.7l-1.5-4.5h-7.6l-1.5,4.5c-0.1,0.4-0.5,0.7-0.9,0.7h-5.5
					c-0.3,0-0.6-0.2-0.8-0.4s-0.2-0.6-0.1-0.9l9.3-25c0.1-0.4,0.5-0.7,0.9-0.7h4.8c0.4,0,0.8,0.3,0.9,0.6l9.4,25
					c0.1,0.3,0.1,0.7-0.1,0.9c-0.2,0.3-0.5,0.4-0.8,0.4L255.3,94.6L255.3,94.6z M250.8,83.3l-1.7-5.2l-1.7,5.2H250.8z"/>
				<path class="st20" d="M251.5,68.6l9.4,25h-5.5l-1.7-5.2h-9l-1.7,5.2h-5.5l9.3-25H251.5 M246,84.3h6.2l-3.1-9.4L246,84.3
					 M251.5,66.6h-4.8c-0.8,0-1.6,0.5-1.9,1.3l-9.3,25c-0.2,0.6-0.1,1.3,0.2,1.8c0.4,0.5,1,0.9,1.6,0.9h5.5c0.9,0,1.6-0.6,1.9-1.4
					l1.3-3.8h6.2l1.3,3.8c0.3,0.8,1,1.4,1.9,1.4h5.5c0.7,0,1.3-0.3,1.6-0.9c0.4-0.5,0.5-1.2,0.2-1.8l-9.4-25
					C253,67.1,252.3,66.6,251.5,66.6L251.5,66.6z M248.7,82.3l0.3-1l0.4,1H248.7L248.7,82.3z"/>
			</g>
			<g>
				<path class="st20" d="M270.5,75l0.2,2.1c0.6-0.8,1.4-1.4,2.3-1.8s1.9-0.6,3-0.6c0.9,0,1.7,0.1,2.4,0.4c0.7,0.2,1.3,0.7,1.9,1.2
					c0.5,0.6,0.9,1.3,1.2,2.2c0.3,0.9,0.4,2,0.4,3.3v11.8h-5V81.7c0-0.6-0.1-1.1-0.2-1.5s-0.3-0.7-0.6-0.9c-0.3-0.2-0.6-0.4-0.9-0.5
					c-0.4-0.1-0.8-0.1-1.3-0.1c-0.7,0-1.4,0.2-1.9,0.5s-0.9,0.8-1.3,1.3v13.1h-5V75H270.5z"/>
			</g>
			<g>
				<path class="st20" d="M291.4,75l0.2,2.1c0.6-0.8,1.4-1.4,2.3-1.8s1.9-0.6,3-0.6c0.9,0,1.7,0.1,2.4,0.4c0.7,0.2,1.3,0.7,1.9,1.2
					c0.5,0.6,0.9,1.3,1.2,2.2c0.3,0.9,0.4,2,0.4,3.3v11.8h-5V81.7c0-0.6-0.1-1.1-0.2-1.5s-0.3-0.7-0.6-0.9c-0.3-0.2-0.6-0.4-0.9-0.5
					c-0.4-0.1-0.8-0.1-1.3-0.1c-0.7,0-1.4,0.2-1.9,0.5s-0.9,0.8-1.3,1.3v13.1h-5V75H291.4z"/>
			</g>
			<g>
				<path class="st20" d="M307.7,70.2c0-0.7,0.2-1.4,0.7-1.8c0.5-0.5,1.2-0.7,2-0.7c0.4,0,0.8,0.1,1.2,0.2c0.3,0.1,0.6,0.3,0.9,0.5
					c0.2,0.2,0.4,0.5,0.6,0.8c0.1,0.3,0.2,0.7,0.2,1c0,0.4-0.1,0.7-0.2,1s-0.3,0.6-0.6,0.8c-0.2,0.2-0.5,0.4-0.9,0.5
					c-0.3,0.1-0.7,0.2-1.2,0.2c-0.4,0-0.8-0.1-1.1-0.2c-0.3-0.1-0.6-0.3-0.9-0.5c-0.2-0.2-0.4-0.5-0.6-0.8
					C307.8,70.9,307.7,70.6,307.7,70.2z M313,93.6h-5V75h5V93.6z"/>
			</g>
			<g>
				<path class="st20" d="M326.9,93.9c-1.4,0-2.7-0.2-3.9-0.7c-1.1-0.5-2.1-1.1-2.9-1.9s-1.4-1.8-1.8-2.9s-0.6-2.3-0.6-3.5v-0.7
					c0-1.4,0.2-2.7,0.6-3.9c0.4-1.2,1-2.2,1.7-3c0.8-0.8,1.7-1.5,2.7-2c1.1-0.5,2.3-0.7,3.6-0.7c1.3,0,2.5,0.2,3.5,0.7
					c1,0.4,1.9,1.1,2.6,1.9s1.2,1.8,1.6,2.9c0.3,1.1,0.5,2.4,0.5,3.7v2.1h-11.8c0.1,0.6,0.2,1.2,0.5,1.6c0.2,0.5,0.6,0.9,0.9,1.3
					c0.4,0.4,0.8,0.6,1.3,0.8c0.5,0.2,1.1,0.3,1.7,0.3c0.9,0,1.7-0.2,2.5-0.5s1.4-0.9,2-1.6l2.4,2.7c-0.3,0.4-0.7,0.8-1.1,1.2
					c-0.4,0.4-1,0.8-1.6,1.1c-0.6,0.3-1.3,0.6-2.1,0.8C328.6,93.8,327.8,93.9,326.9,93.9z M326.3,78.7c-0.5,0-1,0.1-1.4,0.3
					c-0.4,0.2-0.8,0.5-1,0.8c-0.3,0.3-0.5,0.7-0.7,1.2s-0.3,1-0.4,1.6h6.9v-0.4c0-0.5-0.1-1-0.2-1.4s-0.3-0.8-0.6-1.1
					c-0.3-0.3-0.6-0.5-1-0.7C327.4,78.8,326.9,78.7,326.3,78.7z"/>
			</g>
			<g>
				<path class="st20" d="M342,69.9c0,0.6-0.1,1.1-0.2,1.7c-0.2,0.6-0.4,1.2-0.7,1.7c-0.3,0.6-0.6,1.1-1,1.6s-0.8,0.9-1.2,1.3
					l-2.3-1.4c0.2-0.3,0.4-0.7,0.6-1.1s0.3-0.8,0.5-1.2c0.1-0.4,0.2-0.8,0.3-1.3c0.1-0.5,0.1-1,0.1-1.5V67h3.9L342,69.9L342,69.9z"
					/>
			</g>
			<g>
				<path class="st20" d="M352.8,88.4c0-0.3-0.1-0.5-0.2-0.7s-0.3-0.4-0.6-0.6c-0.3-0.2-0.7-0.4-1.2-0.5c-0.5-0.2-1.1-0.3-1.9-0.5
					c-0.9-0.2-1.8-0.5-2.6-0.8c-0.8-0.3-1.5-0.7-2.1-1.2s-1.1-1-1.4-1.6s-0.5-1.3-0.5-2.1c0-0.8,0.2-1.5,0.5-2.2s0.8-1.3,1.5-1.8
					c0.6-0.5,1.4-1,2.3-1.3s2-0.5,3.1-0.5c1.2,0,2.3,0.1,3.2,0.4c1,0.3,1.8,0.7,2.4,1.2c0.7,0.5,1.2,1.2,1.5,1.9
					c0.4,0.7,0.5,1.5,0.5,2.4h-5c0-0.7-0.2-1.3-0.7-1.8s-1.2-0.7-2.1-0.7c-0.8,0-1.5,0.2-1.9,0.6c-0.5,0.4-0.7,0.9-0.7,1.4
					c0,0.3,0.1,0.5,0.2,0.7s0.3,0.4,0.6,0.6c0.3,0.2,0.6,0.3,1.1,0.5c0.4,0.1,1,0.3,1.6,0.4c1,0.2,1.9,0.4,2.8,0.7
					c0.9,0.3,1.6,0.7,2.2,1.1c0.6,0.5,1.1,1,1.5,1.6s0.5,1.4,0.5,2.3c0,0.8-0.2,1.6-0.6,2.3c-0.4,0.7-0.9,1.3-1.6,1.8
					s-1.5,0.9-2.5,1.2c-1,0.3-2,0.4-3.2,0.4c-1.3,0-2.5-0.2-3.4-0.6c-1-0.4-1.8-0.8-2.5-1.4s-1.2-1.3-1.5-2s-0.5-1.5-0.5-2.3h4.7
					c0,0.5,0.1,0.9,0.3,1.2c0.2,0.3,0.4,0.6,0.7,0.9c0.3,0.2,0.7,0.4,1.1,0.5s0.8,0.2,1.3,0.2c0.9,0,1.7-0.2,2.2-0.5
					C352.6,89.5,352.8,89,352.8,88.4z"/>
			</g>
		</g>
		<g>
			<g>
				<path class="st23" d="M227.2,136.8c-0.6,0-1-0.4-1-1v-25c0-0.6,0.4-1,1-1h9.8c1.6,0,3,0.2,4.3,0.7s2.4,1.1,3.3,1.9
					s1.6,1.8,2.1,3c0.5,1.1,0.7,2.4,0.7,3.7c0,1.3-0.2,2.6-0.7,3.7s-1.2,2.1-2.1,2.9s-2,1.4-3.3,1.8c-1.2,0.4-2.7,0.6-4.3,0.6h-3.6
					v7.8c0,0.6-0.4,1-1,1h-5.2V136.8z M237,121.8c0.6,0,1.2-0.1,1.6-0.2c0.4-0.1,0.7-0.3,0.9-0.5s0.4-0.5,0.5-0.8
					c0.1-0.4,0.2-0.7,0.2-1.2c0-0.4-0.1-0.8-0.2-1.2c-0.1-0.4-0.3-0.7-0.5-1s-0.5-0.5-1-0.7c-0.4-0.2-0.9-0.3-1.5-0.3h-3.6v5.9
					C233.4,121.8,237,121.8,237,121.8z"/>
				<path class="st20" d="M237,110.8c1.5,0,2.8,0.2,4,0.6s2.1,1,3,1.7c0.8,0.7,1.4,1.6,1.8,2.6s0.6,2.1,0.6,3.3
					c0,1.2-0.2,2.3-0.6,3.3s-1,1.8-1.8,2.5s-1.8,1.2-3,1.6s-2.5,0.6-4,0.6h-4.6v8.8h-5.2v-25H237 M232.4,122.8h4.6
					c0.7,0,1.4-0.1,1.9-0.3c0.5-0.2,1-0.4,1.3-0.8c0.3-0.3,0.6-0.7,0.7-1.2c0.2-0.5,0.2-1,0.2-1.5s-0.1-1.1-0.2-1.6
					c-0.2-0.5-0.4-0.9-0.7-1.3s-0.8-0.7-1.3-0.9c-0.5-0.2-1.2-0.3-1.9-0.3h-4.6V122.8 M237,108.8h-9.8c-1.1,0-2,0.9-2,2v25
					c0,1.1,0.9,2,2,2h5.2c1.1,0,2-0.9,2-2V129h2.6c1.7,0,3.2-0.2,4.6-0.7c1.4-0.5,2.6-1.1,3.6-2s1.8-2,2.4-3.2
					c0.5-1.2,0.8-2.6,0.8-4.1s-0.3-2.8-0.8-4.1c-0.5-1.3-1.3-2.4-2.3-3.3s-2.2-1.6-3.6-2.1C240.2,109,238.7,108.8,237,108.8
					L237,108.8z M234.4,117h2.6c0.5,0,0.8,0.1,1.1,0.2c0.2,0.1,0.5,0.2,0.6,0.4c0.2,0.2,0.3,0.4,0.3,0.6c0.1,0.3,0.1,0.6,0.1,0.9
					s0,0.6-0.1,0.8c-0.1,0.2-0.1,0.3-0.3,0.4c-0.1,0.1-0.3,0.2-0.6,0.3c-0.3,0.1-0.7,0.2-1.2,0.2h-2.6L234.4,117L234.4,117z"/>
			</g>
			<g>
				<path class="st20" d="M249.8,126.3c0-1.4,0.2-2.6,0.6-3.8c0.4-1.2,1-2.2,1.7-3s1.7-1.5,2.8-2s2.3-0.7,3.7-0.7s2.7,0.2,3.8,0.7
					s2,1.1,2.8,2c0.8,0.8,1.3,1.8,1.7,3s0.6,2.4,0.6,3.8v0.4c0,1.4-0.2,2.6-0.6,3.8c-0.4,1.2-1,2.1-1.7,3c-0.7,0.8-1.7,1.5-2.8,2
					s-2.3,0.7-3.7,0.7s-2.7-0.2-3.8-0.7s-2-1.1-2.8-2c-0.8-0.8-1.3-1.8-1.7-3s-0.6-2.4-0.6-3.8V126.3z M254.8,126.7
					c0,0.8,0.1,1.5,0.2,2.1c0.1,0.7,0.4,1.2,0.7,1.7s0.7,0.9,1.2,1.2s1.1,0.4,1.8,0.4c0.7,0,1.3-0.1,1.8-0.4
					c0.5-0.3,0.9-0.7,1.2-1.2c0.3-0.5,0.5-1.1,0.7-1.7c0.1-0.7,0.2-1.4,0.2-2.1v-0.4c0-0.7-0.1-1.4-0.2-2.1
					c-0.1-0.7-0.4-1.2-0.7-1.7c-0.3-0.5-0.7-0.9-1.2-1.2c-0.5-0.3-1.1-0.4-1.8-0.4c-0.7,0-1.3,0.1-1.8,0.4s-0.9,0.7-1.2,1.2
					s-0.5,1.1-0.7,1.7c-0.1,0.7-0.2,1.4-0.2,2.1V126.7z"/>
			</g>
			<g>
				<path class="st20" d="M282.1,121.9c-0.2,0-0.5-0.1-0.9-0.1c-0.3,0-0.6,0-0.9,0c-1,0-1.8,0.2-2.4,0.5s-1,0.8-1.3,1.4v12.2h-5
					v-18.6h4.7l0.1,2.2c0.5-0.8,1-1.4,1.7-1.9s1.5-0.7,2.4-0.7c0.3,0,0.5,0,0.8,0.1c0.3,0,0.5,0.1,0.7,0.2L282.1,121.9z"/>
			</g>
			<g>
				<path class="st20" d="M292.5,112.6v4.6h3.2v3.6h-3.2v9.3c0,0.4,0,0.7,0.1,1s0.2,0.5,0.4,0.6c0.2,0.1,0.4,0.2,0.6,0.3
					s0.5,0.1,0.8,0.1s0.6,0,0.8,0c0.2,0,0.5-0.1,0.6-0.1v3.8c-0.4,0.1-0.9,0.2-1.3,0.3c-0.5,0.1-1,0.1-1.7,0.1
					c-0.8,0-1.5-0.1-2.2-0.3s-1.2-0.5-1.7-1c-0.5-0.4-0.8-1-1.1-1.7c-0.3-0.7-0.4-1.5-0.4-2.5v-9.8h-2.7v-3.6h2.7v-4.6h5.1
					L292.5,112.6L292.5,112.6z"/>
			</g>
			<g>
				<path class="st20" d="M301.1,135.8v-14.9h-2.8v-3.6h2.8v-1.6c0-1.1,0.2-2,0.5-2.8s0.8-1.5,1.4-2.1s1.3-1,2.1-1.3
					c0.8-0.3,1.8-0.4,2.8-0.4c0.5,0,0.9,0,1.3,0.1s0.8,0.1,1.2,0.2l-0.1,3.8c-0.4-0.1-0.9-0.2-1.5-0.2c-0.9,0-1.6,0.2-2.1,0.6
					s-0.7,1.1-0.7,1.9v1.6h3.7v3.6H306v14.9h-4.9L301.1,135.8L301.1,135.8z"/>
			</g>
			<g>
				<path class="st20" d="M312.8,126.3c0-1.4,0.2-2.6,0.6-3.8c0.4-1.2,1-2.2,1.7-3s1.7-1.5,2.8-2c1.1-0.5,2.3-0.7,3.7-0.7
					c1.4,0,2.7,0.2,3.8,0.7c1.1,0.5,2,1.1,2.8,2c0.7,0.8,1.3,1.8,1.7,3c0.4,1.2,0.6,2.4,0.6,3.8v0.4c0,1.4-0.2,2.6-0.6,3.8
					s-1,2.1-1.7,3c-0.8,0.8-1.7,1.5-2.8,2c-1.1,0.5-2.3,0.7-3.7,0.7c-1.4,0-2.7-0.2-3.8-0.7c-1.1-0.5-2-1.1-2.8-2
					c-0.8-0.8-1.3-1.8-1.7-3c-0.4-1.2-0.6-2.4-0.6-3.8V126.3z M317.7,126.7c0,0.8,0.1,1.5,0.2,2.1c0.1,0.7,0.4,1.2,0.7,1.7
					c0.3,0.5,0.7,0.9,1.2,1.2s1.1,0.4,1.8,0.4c0.7,0,1.3-0.1,1.8-0.4c0.5-0.3,0.9-0.7,1.2-1.2c0.3-0.5,0.5-1.1,0.7-1.7
					c0.1-0.7,0.2-1.4,0.2-2.1v-0.4c0-0.7-0.1-1.4-0.2-2.1s-0.4-1.2-0.7-1.7c-0.3-0.5-0.7-0.9-1.2-1.2c-0.5-0.3-1.1-0.4-1.8-0.4
					c-0.7,0-1.3,0.1-1.8,0.4s-0.9,0.7-1.2,1.2c-0.3,0.5-0.5,1.1-0.7,1.7c-0.1,0.7-0.2,1.4-0.2,2.1V126.7z"/>
			</g>
			<g>
				<path class="st20" d="M339.9,135.8h-5v-26.4h5V135.8z"/>
			</g>
			<g>
				<path class="st20" d="M345.2,112.4c0-0.7,0.3-1.4,0.8-1.8c0.5-0.5,1.2-0.7,2-0.7c0.4,0,0.8,0.1,1.2,0.2c0.3,0.1,0.6,0.3,0.9,0.5
					c0.2,0.2,0.4,0.5,0.6,0.8c0.1,0.3,0.2,0.7,0.2,1c0,0.4-0.1,0.7-0.2,1s-0.3,0.6-0.6,0.8c-0.2,0.2-0.5,0.4-0.9,0.5
					c-0.3,0.1-0.7,0.2-1.2,0.2c-0.4,0-0.8-0.1-1.2-0.2c-0.3-0.1-0.6-0.3-0.9-0.5c-0.2-0.2-0.4-0.5-0.6-0.8
					C345.2,113.1,345.2,112.8,345.2,112.4z M350.4,135.8h-5v-18.6h5V135.8z"/>
			</g>
			<g>
				<path class="st20" d="M355,126.3c0-1.4,0.2-2.6,0.6-3.8c0.4-1.2,1-2.2,1.7-3s1.7-1.5,2.8-2c1.1-0.5,2.3-0.7,3.7-0.7
					c1.4,0,2.7,0.2,3.8,0.7c1.1,0.5,2,1.1,2.8,2c0.7,0.8,1.3,1.8,1.7,3c0.4,1.2,0.6,2.4,0.6,3.8v0.4c0,1.4-0.2,2.6-0.6,3.8
					s-1,2.1-1.7,3c-0.8,0.8-1.7,1.5-2.8,2c-1.1,0.5-2.3,0.7-3.7,0.7c-1.4,0-2.7-0.2-3.8-0.7c-1.1-0.5-2-1.1-2.8-2
					c-0.7-0.8-1.3-1.8-1.7-3c-0.4-1.2-0.6-2.4-0.6-3.8V126.3z M359.9,126.7c0,0.8,0.1,1.5,0.2,2.1c0.1,0.7,0.4,1.2,0.7,1.7
					c0.3,0.5,0.7,0.9,1.2,1.2s1.1,0.4,1.8,0.4c0.7,0,1.3-0.1,1.8-0.4c0.5-0.3,0.9-0.7,1.2-1.2c0.3-0.5,0.5-1.1,0.7-1.7
					s0.2-1.4,0.2-2.1v-0.4c0-0.7-0.1-1.4-0.2-2.1s-0.4-1.2-0.7-1.7c-0.3-0.5-0.7-0.9-1.2-1.2c-0.5-0.3-1.1-0.4-1.8-0.4
					c-0.7,0-1.3,0.1-1.8,0.4s-0.9,0.7-1.2,1.2c-0.3,0.5-0.5,1.1-0.7,1.7c-0.1,0.7-0.2,1.4-0.2,2.1V126.7z"/>
			</g>
		</g>
	</g>
</g>
<g>
	<g>
		<g>
			<path class="st21" d="M352.7,426.9c-1.1,19,9.7,38.6,33.4,46.2c21.8,7,45.6,7.1,67.1-2.5c39-17.5,17.7-59.5-9.3-76.1
				c-12.5-7.7-27.8-12.2-43.2-11.6C370.6,384.1,353.9,405.1,352.7,426.9"/>
			<path class="st24" d="M358,418.5c-1.1,19,9.7,38.6,33.4,46.2c21.8,7,45.6,7.1,67.1-2.5c39-17.5,17.7-59.5-9.3-76.1
				c-12.5-7.7-27.8-12.2-43.2-11.6C375.9,375.8,359.2,396.7,358,418.5"/>
			<path class="st20" d="M432.5,443c6.7-0.4,13.4-1.9,19.4-4.7c30.4-14,10.1-42.4-13.6-52.8c-10.3-4.5-21.6-6.5-31.7-5.4
				c-0.7,0.1-1.4,0.2-2,0.2c-8.5,1.2-14.7,4.4-19.1,9.8c-4.5,5.5-6.7,13-6,20.7C381.3,431.3,407.7,444.6,432.5,443z"/>
		</g>
		<g>
			<path class="st25" d="M388,407.1c0,24.7,18.9,35,42.2,35c23.3,0,42.2-10.3,42.2-35s-18.9-54.4-42.2-54.4S388,382.3,388,407.1z"/>
			<path class="st26" d="M451.7,401.7c1.6-6.4-6.5-13.8-17.9-16.6c-11.4-2.8-22,0.2-23.5,6.6c-1.6,6.4,6.5,13.8,17.9,16.6
				C439.6,411.1,450.1,408.1,451.7,401.7z"/>
			<g>
				<path class="st27" d="M459.2,388.5c-0.3,2.7-2.4,4.7-4.8,4.5c-0.8-0.1-1.5-0.4-2.1-0.9c-0.7,0.4-1.4,0.5-2.2,0.4
					c-2.4-0.2-4.1-2.6-3.8-5.3c0.3-2.7,2.4-4.7,4.8-4.5c0.8,0.1,1.5,0.4,2.1,0.9c0.7-0.4,1.4-0.5,2.2-0.4
					C457.7,383.4,459.4,385.8,459.2,388.5z"/>
				<path class="st28" d="M452,381.9c0,0,0.4-4-5.6-4.8C446.7,378.7,447.1,380.9,452,381.9z"/>
				<path class="st29" d="M447.8,383.6c-1.7,1.6-2.3,4.3-1.3,6.4c1,2.2,3.5,3.5,5.8,2.4c1.3,0.9,2.9,1.1,4.3,0.4
					c2.3-1.1,3.4-4.1,2.6-6.5c-0.8-2.6-3.5-4.3-6.1-3.1c-0.3-0.2-0.8-0.6-1.2-0.6c-0.1,0-0.1,0-0.2-0.1c-0.2-0.1-0.5-0.1-0.7-0.1
					C449.9,382.3,448.7,382.8,447.8,383.6z M446.7,386.9c0.4-2.2,2.4-4.3,4.8-3.7c0.3,0.1,0.7,0.2,1,0.4c0.7,0.4,1.3,1.1,1.7,1.9
					c0.2,0.4,0.3,0.9,0.4,1.3c0,0.2,0.1,0.5,0.1,0.7s-0.1,0.5,0,0.7s0.3,0.3,0.5,0.2c0.2-0.1,0.2-0.3,0.2-0.5c0-0.5,0-1.1-0.1-1.6
					c-0.2-0.9-0.7-1.8-1.3-2.5c1.4-0.5,2.9-0.1,3.9,1c1.7,1.9,1.6,5-0.2,6.8c-0.8,0.8-2,1.3-3.2,1.1c-0.4-0.1-0.8-0.2-1.1-0.4
					c-0.3-0.1-0.6-0.5-0.8-0.5c-0.2,0-0.4,0.2-0.6,0.2c-0.2,0.1-0.3,0.1-0.5,0.2c-0.4,0.1-0.7,0.1-1.1,0.1
					C447.6,392,446.3,389.2,446.7,386.9z"/>
				<path class="st29" d="M452.3,392.6c-1,0.5-2.2,0.5-3.2,0.1c-1.2-0.4-2.2-1.4-2.7-2.6c-1-2.2-0.4-5,1.3-6.6
					c1.2-1,2.7-1.5,4.1-1.1c0.1,0,0.1,0,0.2,0.1c0.4,0,0.9,0.4,1.2,0.6c1.1-0.5,2.3-0.5,3.5,0c1.3,0.6,2.3,1.8,2.7,3.2
					c0.8,2.6-0.4,5.5-2.7,6.7c-0.7,0.4-1.5,0.5-2.3,0.4C453.6,393.3,452.9,393,452.3,392.6z M453.3,383.4c-0.3-0.2-0.9-0.6-1.2-0.6
					c-0.1,0-0.1,0-0.2-0.1c-1.4-0.4-2.8,0-3.9,1c-1.7,1.5-2.2,4.2-1.3,6.3c0.5,1.2,1.4,2.1,2.6,2.5c1,0.4,2.1,0.3,3.1-0.1h0.1h0.1
					c1.2,0.9,2.8,1.1,4.2,0.4c2.2-1.1,3.3-3.9,2.6-6.4c-0.4-1.3-1.4-2.5-2.6-3c-0.4-0.2-0.8-0.3-1.2-0.3
					C454.6,382.9,453.9,383.1,453.3,383.4z M447.5,390.8c-0.8-1.1-1.2-2.6-0.9-4c0.2-1.3,1-2.6,2.1-3.3c0.9-0.6,1.9-0.7,2.8-0.5
					c0.4,0.1,0.7,0.2,1,0.4c0.7,0.4,1.3,1.1,1.7,1.9c0.2,0.4,0.3,0.9,0.4,1.4c0,0.2,0.1,0.5,0.1,0.7c0,0.1,0,0.2,0,0.3
					c0,0.1,0,0.3,0,0.4s0.1,0.1,0.1,0.1s0.1,0,0.2,0c0.1-0.1,0.1-0.2,0.1-0.4v-0.1c0-0.5,0-1-0.1-1.5c-0.2-1-0.7-1.8-1.3-2.5
					l-0.1-0.1l0.2-0.1c1.4-0.5,3-0.2,4.1,1c1.7,1.9,1.6,5.1-0.2,7c-0.9,0.9-2.1,1.3-3.3,1.2c-0.4-0.1-0.8-0.2-1.2-0.4
					c-0.1-0.1-0.2-0.1-0.3-0.2c-0.2-0.1-0.3-0.3-0.5-0.3c-0.1,0-0.2,0.1-0.3,0.1c-0.1,0-0.1,0.1-0.2,0.1c-0.2,0.1-0.3,0.1-0.5,0.2
					c-0.4,0.1-0.8,0.1-1.2,0.1C449.1,392.2,448.2,391.7,447.5,390.8z M453,392c0.1,0.1,0.2,0.1,0.3,0.2c0.3,0.2,0.7,0.3,1.1,0.4
					c1.1,0.2,2.2-0.3,3.1-1.1c1.8-1.8,1.9-4.9,0.2-6.7c-1-1-2.4-1.4-3.7-1c0.6,0.7,1,1.5,1.3,2.4c0.1,0.5,0.2,1.1,0.1,1.6v0.1
					c0,0.2,0,0.4-0.2,0.6c-0.1,0.1-0.2,0.1-0.4,0c-0.1-0.1-0.2-0.2-0.3-0.3c0-0.1,0-0.3,0-0.5c0-0.1,0-0.2,0-0.2
					c0-0.2,0-0.5-0.1-0.7c-0.1-0.5-0.2-0.9-0.4-1.3c-0.4-0.8-0.9-1.4-1.6-1.8c-0.3-0.2-0.6-0.3-0.9-0.4c-0.9-0.2-1.8-0.1-2.6,0.5
					c-1,0.7-1.8,1.9-2,3.1c-0.2,1.3,0.1,2.8,0.9,3.8c0.6,0.8,1.5,1.3,2.5,1.4c0.4,0,0.7,0,1.1-0.1c0.2,0,0.3-0.1,0.5-0.1
					c0.1,0,0.1-0.1,0.2-0.1c0.1-0.1,0.3-0.2,0.4-0.1C452.6,391.7,452.8,391.8,453,392z"/>
				<path class="st29" d="M453.2,382.6C453.2,382.6,453.3,382.6,453.2,382.6c0.2,0,0.4-0.2,0.3-0.3c0,0,0-0.7,0.2-1.5
					c0.3-1,1-1.6,2-1.8c0.2,0,0.3-0.2,0.2-0.4c0-0.2-0.2-0.3-0.4-0.2c-1.2,0.2-2.1,1-2.5,2.2c-0.3,0.9-0.3,1.7-0.3,1.7
					C453,382.5,453.1,382.6,453.2,382.6z"/>
				<path class="st29" d="M452.8,382.4c0,0,0-0.9,0.3-1.8c0.4-1.3,1.3-2,2.6-2.3c0.2,0,0.5,0.1,0.5,0.3c0,0.2-0.1,0.5-0.3,0.5
					c-0.9,0.2-1.6,0.7-1.9,1.7c-0.2,0.7-0.2,1.4-0.2,1.5c0,0.2-0.2,0.4-0.4,0.5c0,0,0,0-0.1,0C453,382.7,452.8,382.6,452.8,382.4z
					 M455.7,378.5c-1.2,0.2-2,1-2.4,2.1c-0.3,0.9-0.3,1.7-0.2,1.7c0,0.1,0.1,0.2,0.2,0.2s0.2-0.1,0.2-0.2s0-0.8,0.2-1.6
					c0.4-1,1.1-1.7,2.1-1.9c0.1,0,0.2-0.1,0.2-0.2C455.9,378.6,455.8,378.5,455.7,378.5z"/>
				<path class="st29" d="M452,382.1c-2.2-0.4-3.8-1.2-4.7-2.2c-0.8-1-1-2.1-1.1-2.8c0-0.1,0-0.2,0.1-0.2c0.1-0.1,0.1-0.1,0.2-0.1
					c1.4,0.2,2.6,0.5,3.5,1.1c0.7,0.5,1.3,1,1.7,1.7c0.7,1.2,0.6,2.2,0.6,2.3c0,0.1,0,0.1-0.1,0.2C452.1,382.1,452,382.1,452,382.1z
					 M447.7,379.5c0.8,0.9,2.1,1.5,4,2c0-0.4-0.1-1-0.5-1.6c-0.3-0.6-0.9-1.1-1.5-1.5c-0.8-0.5-1.8-0.8-2.9-1
					C446.9,378.1,447.1,378.9,447.7,379.5z"/>
				<path class="st20" d="M451.9,382.2c-2.3-0.4-3.8-1.2-4.7-2.3c-0.9-1-1-2.1-1.1-2.9c0-0.1,0-0.2,0.1-0.3c0.1-0.1,0.2-0.1,0.3-0.1
					c1.4,0.2,2.6,0.6,3.5,1.1c0.8,0.5,1.4,1,1.8,1.7c0.7,1.2,0.6,2.3,0.6,2.3c0,0.1-0.1,0.2-0.2,0.3
					C452.2,382.2,452.1,382.3,451.9,382.2C452,382.2,451.9,382.2,451.9,382.2z M446.3,377.1C446.3,377.1,446.2,377.2,446.3,377.1
					c0.1,0.8,0.3,1.9,1.1,2.8c0.9,1,2.4,1.7,4.6,2.2h0.1l0.1-0.1c0,0,0.1-1.1-0.6-2.2c-0.4-0.7-1-1.2-1.7-1.7
					C449,377.6,447.8,377.2,446.3,377.1C446.4,377,446.4,377,446.3,377.1z M451.7,381.6c-2-0.4-3.3-1.1-4.1-2
					c-0.6-0.7-0.8-1.5-0.9-2.2v-0.2h0.2c1.2,0.2,2.2,0.5,3,1c0.7,0.4,1.2,0.9,1.6,1.6s0.5,1.3,0.5,1.7v0.2L451.7,381.6z
					 M447.8,379.5c0.7,0.9,2,1.5,3.8,1.9c0-0.4-0.2-0.9-0.5-1.4c-0.3-0.6-0.8-1.1-1.5-1.5s-1.6-0.7-2.7-0.9
					C447,378.2,447.3,378.8,447.8,379.5z"/>
				<path class="st30" d="M451.9,382.2c-2.3-0.4-3.8-1.2-4.7-2.3c-0.9-1-1-2.1-1.1-2.9c0-0.1,0-0.2,0.1-0.3c0.1-0.1,0.2-0.1,0.3-0.1
					c1.4,0.2,2.6,0.6,3.5,1.1c0.8,0.5,1.4,1,1.8,1.7c0.7,1.2,0.6,2.3,0.6,2.3c0,0.1-0.1,0.2-0.2,0.3
					C452.2,382.2,452.1,382.3,451.9,382.2z M446.3,377.1C446.3,377.1,446.2,377.2,446.3,377.1c0.1,0.8,0.3,1.9,1.1,2.8
					c0.9,1,2.4,1.7,4.6,2.2h0.1l0.1-0.1c0,0,0.1-1.1-0.6-2.2c-0.4-0.7-1-1.2-1.7-1.7C449,377.6,447.8,377.2,446.3,377.1
					C446.4,377,446.4,377,446.3,377.1z M451.7,381.6c-2-0.4-3.3-1.1-4.1-2c-0.6-0.7-0.8-1.5-0.9-2.2v-0.2h0.2c1.2,0.2,2.2,0.5,3,1
					c0.7,0.4,1.2,0.9,1.6,1.6s0.5,1.3,0.5,1.7v0.2L451.7,381.6z M447.8,379.5c0.7,0.9,2,1.5,3.8,1.9c0-0.4-0.2-0.9-0.5-1.4
					c-0.3-0.6-0.8-1.1-1.5-1.5s-1.6-0.7-2.7-0.9C447,378.2,447.3,378.8,447.8,379.5z"/>
				<path class="st29" d="M454.6,389.5c0.2,0,0.3-0.1,0.3-0.3c0-0.2-0.1-0.3-0.3-0.3c-0.2,0-0.3,0.1-0.3,0.3
					C454.3,389.3,454.5,389.5,454.6,389.5z"/>
				<path class="st29" d="M454.2,389.1c0-0.2,0.2-0.4,0.5-0.4c0.2,0,0.4,0.2,0.4,0.5c0,0.2-0.2,0.4-0.5,0.4
					C454.4,389.6,454.2,389.4,454.2,389.1z M454.5,389.2c0,0.1,0.1,0.2,0.2,0.2s0.2-0.1,0.2-0.2s-0.1-0.2-0.2-0.2
					S454.5,389.1,454.5,389.2z"/>
			</g>
			<path class="st26" d="M449,410l-0.1,2.5C448.9,410.9,449,410,449,410z"/>
			<path class="st31" d="M476.2,407.8c-13.4-0.8-24.7,7.1-25.8,16.6c-1.1,9.6,8.6,17.3,22,18.1c13.4,0.8,25.6-5.8,26.7-15.3
				C500.1,417.6,489.6,408.5,476.2,407.8z"/>
			<path class="st32" d="M498.5,427.4c-0.7,6.1-5.8,10.8-12.8,13.4l2-29.7C494.6,414.7,499.2,420.9,498.5,427.4z"/>
			<path class="st31" d="M433.4,408.2c-17.3-1.9-31.5,5.5-32.7,15.6c-1.1,10.1,11.4,19.1,28.7,21c17.3,1.9,32.7-4.1,33.8-14.1
				C464.4,420.5,450.7,410.1,433.4,408.2z"/>
			<path class="st32" d="M462.5,430.8c-0.7,6.4-7.2,11.1-16.2,13.2l1.8-31.4C457.3,417.1,463.2,424,462.5,430.8z"/>
			<path class="st26" d="M397.9,421.8c-3.4,4.2-5.7,9.2-5.8,14.3c0,1.4-0.1,1.9,1.5,1.8c1.8,0,3.6-0.5,5.4-0.7
				c2.2-0.2,4.4-0.3,6.6-0.4c1.6,0,3.6,0.4,5.2,0.1c1.8-0.3,3.6-1.3,5.5-1.8c2-0.5,4.1-0.8,6.3-1c3.1-0.3,6.5,0,9.6-0.4
				c1.3-0.2,2.2-1.1,3.3-1.8c1.3-0.8,2.7-1.5,4.2-2.1c2.9-1.1,6-1.8,9.1-2.1c1.1-0.1,2.6,0.2,3.7-0.1c1.1-0.2,2-1.1,2.8-1.7
				c2-1.5,4.1-3.1,6.5-4.2c2.2-1.1,4.5-1.9,7-2.3c2.6-0.5,4.6-0.4,6.5-2.3c1-0.9,1.2-2.2,2.3-3.2c1.2-1.1,2.8-1.8,4.5-2.2
				c0.7-0.2,1.5-0.4,1.8-0.9c-8.2-3.6-16.8-4.8-25.9-5.9c-9.2-1-18.5-1.3-27.7,0.1c-9.3,1.4-18.3,4.8-25.3,10.2
				C402.7,416.8,400.2,419,397.9,421.8z"/>
			<path class="st33" d="M403.4,416l5.8,20.5"/>
			<path class="st33" d="M410.9,411.4l20.8,21.9"/>
			<path class="st33" d="M421.1,407.7l31.6,19.9"/>
			<path class="st33" d="M434.7,404.6l36.6,13.9"/>
			<path class="st25" d="M395.8,375.6c0.9-1,1.9-1.9,3-2.5c3.2-1.9,7.1-2.2,10.5-1.4c3.6,0.8,6.9,2.6,9.8,4.9
				c4.5,3.4,8.8,7.9,14.1,8.6c1,0.1,1.9,0.1,2.9,0.4c0.7,0.2,1.5,0.6,2,1.4c0.6,0.9,0.1,1.9-0.1,2.9c-0.5,2.4-1.1,4.7-1.6,7.1
				c-1.1,4.6-2.4,9.2-3.8,13.7c-0.3,1.1-0.8,2.3-1.7,2.9c-0.7,0.5-1.6,0.5-2.5,0.3c-3.2-0.4-6.2-2-9.2-3.3
				c-6.8-2.9-14.3-4.6-19.7-10c-2.7-2.8-4.7-6.5-6-10.3c-0.8-2.5-1.4-5.1-1.1-7.7C392.9,379.8,394.1,377.5,395.8,375.6z"/>
			<path class="st27" d="M410.5,386.3c-0.3,2.7-2.4,4.7-4.8,4.5c-0.8-0.1-1.5-0.4-2.1-0.9c-0.7,0.4-1.4,0.5-2.2,0.4
				c-2.4-0.2-4.1-2.6-3.8-5.3c0.3-2.7,2.4-4.7,4.8-4.5c0.8,0.1,1.5,0.4,2.1,0.9c0.7-0.4,1.4-0.5,2.2-0.4
				C409,381.3,410.7,383.6,410.5,386.3z"/>
			<path class="st28" d="M403.3,379.7c0,0,0.4-4-5.6-4.8C398.1,376.7,398.5,378.7,403.3,379.7z"/>
			<path class="st29" d="M399.2,381.5c-1.7,1.6-2.3,4.3-1.3,6.4c1,2.2,3.5,3.5,5.8,2.4c1.3,0.9,2.9,1.1,4.3,0.4
				c2.3-1.1,3.4-4.1,2.6-6.5c-0.8-2.6-3.5-4.3-6.1-3.1c-0.3-0.2-0.8-0.6-1.2-0.6c-0.1,0-0.1,0-0.2-0.1c-0.2-0.1-0.5-0.1-0.7-0.1
				C401.3,380.2,400.1,380.6,399.2,381.5z M398.1,384.7c0.4-2.2,2.4-4.3,4.8-3.7c0.3,0.1,0.7,0.2,1,0.4c0.7,0.4,1.3,1.1,1.7,1.9
				c0.2,0.4,0.3,0.9,0.4,1.3c0,0.2,0.1,0.5,0.1,0.7s-0.1,0.5,0,0.7s0.3,0.3,0.5,0.2c0.2-0.1,0.2-0.3,0.2-0.5c0-0.5,0-1.1-0.1-1.6
				c-0.2-0.9-0.7-1.8-1.3-2.5c1.4-0.5,2.9-0.1,3.9,1c1.7,1.9,1.6,5-0.2,6.8c-0.8,0.8-2,1.3-3.2,1.1c-0.4-0.1-0.8-0.2-1.1-0.4
				c-0.3-0.1-0.6-0.5-0.8-0.5c-0.2,0-0.4,0.2-0.6,0.2c-0.2,0.1-0.3,0.1-0.5,0.2c-0.4,0.1-0.7,0.1-1.1,0.1
				C399,389.8,397.7,387,398.1,384.7z"/>
			<path class="st29" d="M403.6,390.4c-1,0.5-2.2,0.5-3.2,0.1c-1.2-0.4-2.2-1.4-2.7-2.6c-1-2.2-0.4-5,1.3-6.6c1.2-1,2.7-1.5,4.1-1.1
				c0.1,0,0.1,0,0.2,0.1c0.4,0,0.9,0.4,1.2,0.6c1.1-0.5,2.3-0.5,3.5,0c1.3,0.6,2.3,1.8,2.7,3.2c0.8,2.6-0.4,5.5-2.7,6.7
				c-0.7,0.4-1.5,0.5-2.3,0.4C404.9,391.1,404.2,390.9,403.6,390.4z M404.6,381.2L404.6,381.2c-0.3-0.2-0.9-0.6-1.2-0.6
				c-0.1,0-0.1,0-0.2-0.1c-1.4-0.4-2.8,0-3.9,1c-1.7,1.5-2.2,4.2-1.3,6.3c0.5,1.2,1.4,2.1,2.6,2.5c1,0.4,2.1,0.3,3.1-0.1h0.1h0.1
				c1.2,0.9,2.8,1.1,4.2,0.4c2.2-1.1,3.3-3.9,2.6-6.4c-0.4-1.3-1.4-2.5-2.6-3c-0.4-0.2-0.8-0.3-1.2-0.3
				C405.9,380.8,405.2,380.9,404.6,381.2z M398.9,388.7c-0.8-1.1-1.2-2.6-0.9-4c0.2-1.3,1-2.6,2.1-3.3c0.9-0.6,1.9-0.7,2.8-0.5
				c0.4,0.1,0.7,0.2,1,0.4c0.7,0.4,1.3,1.1,1.7,1.9c0.2,0.4,0.3,0.9,0.4,1.4c0,0.2,0.1,0.5,0.1,0.7c0,0.1,0,0.2,0,0.3
				c0,0.1,0,0.3,0,0.4s0.1,0.1,0.1,0.1s0.1,0,0.2,0c0.1-0.1,0.1-0.2,0.1-0.4v-0.1c0-0.5,0-1-0.1-1.5c-0.2-1-0.7-1.8-1.3-2.5
				l-0.2-0.1l0.2-0.1c1.4-0.5,3-0.2,4.1,1c1.7,1.9,1.6,5.1-0.2,7c-0.9,0.9-2.1,1.3-3.3,1.2c-0.4-0.1-0.8-0.2-1.2-0.4
				c-0.1-0.1-0.2-0.1-0.3-0.2c-0.2-0.1-0.3-0.3-0.5-0.3c-0.1,0-0.2,0.1-0.3,0.1c-0.1,0-0.1,0.1-0.2,0.1c-0.2,0.1-0.3,0.1-0.5,0.2
				c-0.4,0.1-0.8,0.1-1.2,0.1C400.5,390.1,399.6,389.5,398.9,388.7z M404.3,389.8c0.1,0.1,0.2,0.1,0.3,0.2c0.3,0.2,0.7,0.3,1.1,0.4
				c1.1,0.2,2.2-0.3,3.1-1.1c1.8-1.8,1.9-4.9,0.2-6.7c-1-1-2.4-1.4-3.7-1c0.6,0.7,1,1.5,1.3,2.4c0.1,0.5,0.2,1.1,0.1,1.6v0.1
				c0,0.2,0,0.4-0.2,0.6c-0.1,0.1-0.2,0.1-0.4,0c-0.1-0.1-0.2-0.2-0.3-0.3c0-0.1,0-0.3,0-0.5c0-0.1,0-0.2,0-0.2c0-0.2,0-0.5-0.1-0.7
				c-0.1-0.5-0.2-0.9-0.4-1.3c-0.4-0.8-0.9-1.4-1.6-1.8c-0.3-0.2-0.6-0.3-0.9-0.4c-0.9-0.2-1.8-0.1-2.6,0.5c-1,0.7-1.8,1.9-2,3.1
				c-0.2,1.3,0.1,2.8,0.9,3.8c0.6,0.8,1.5,1.3,2.5,1.4c0.4,0,0.7,0,1.1-0.1c0.2,0,0.3-0.1,0.5-0.1c0.1,0,0.1-0.1,0.2-0.1
				c0.1-0.1,0.3-0.2,0.4-0.1C403.9,389.5,404.1,389.7,404.3,389.8z"/>
			<path class="st29" d="M404.5,380.5C404.5,380.5,404.6,380.5,404.5,380.5c0.2,0,0.4-0.2,0.3-0.3c0,0,0-0.7,0.2-1.5
				c0.3-1,1-1.6,2-1.8c0.2,0,0.3-0.2,0.2-0.4c0-0.2-0.2-0.3-0.4-0.2c-1.2,0.2-2.1,1-2.5,2.2c-0.3,0.9-0.3,1.7-0.3,1.7
				C404.3,380.3,404.4,380.5,404.5,380.5z"/>
			<path class="st20" d="M404.1,380.2c0,0,0-0.9,0.3-1.8c0.4-1.3,1.3-2,2.6-2.3c0.2,0,0.5,0.1,0.5,0.3c0,0.2-0.1,0.5-0.3,0.5
				c-0.9,0.2-1.6,0.7-1.9,1.7c-0.2,0.7-0.2,1.4-0.2,1.5c0,0.2-0.2,0.4-0.4,0.5c0,0,0,0-0.1,0C404.3,380.6,404.1,380.4,404.1,380.2z
				 M407,376.5c-1.2,0.2-2,1-2.4,2.1c-0.3,0.9-0.3,1.7-0.2,1.7c0,0.1,0.1,0.2,0.2,0.2s0.2-0.1,0.2-0.2s0-0.8,0.2-1.6
				c0.4-1,1.1-1.7,2.1-1.9c0.1,0,0.2-0.1,0.2-0.2C407.2,376.5,407.1,376.5,407,376.5C407,376.4,407,376.4,407,376.5z"/>
			<path class="st30" d="M407,376.5c-1.2,0.2-2,1-2.4,2.1c-0.3,0.9-0.3,1.7-0.2,1.7c0,0.1,0.1,0.2,0.2,0.2s0.2-0.1,0.2-0.2
				s0-0.8,0.2-1.6c0.4-1,1.1-1.7,2.1-1.9c0.1,0,0.2-0.1,0.2-0.2C407.2,376.5,407.1,376.5,407,376.5z M404.1,380.2c0,0,0-0.9,0.3-1.8
				c0.4-1.3,1.3-2,2.6-2.3c0.2,0,0.5,0.1,0.5,0.3c0,0.2-0.1,0.5-0.3,0.5c-0.9,0.2-1.6,0.7-1.9,1.7c-0.2,0.7-0.2,1.4-0.2,1.5
				c0,0.2-0.2,0.4-0.4,0.5c0,0,0,0-0.1,0C404.3,380.6,404.1,380.4,404.1,380.2z"/>
			<path class="st29" d="M403.3,380c-2.2-0.4-3.8-1.2-4.7-2.2c-0.8-1-1-2.1-1.1-2.8c0-0.1,0-0.2,0.1-0.2c0.1-0.1,0.1-0.1,0.2-0.1
				c1.4,0.2,2.6,0.5,3.5,1.1c0.7,0.5,1.3,1,1.7,1.7c0.7,1.2,0.6,2.2,0.6,2.3c0,0.1,0,0.1-0.1,0.2C403.4,380,403.3,380,403.3,380z
				 M399.1,377.5c0.8,0.9,2.1,1.5,4,2c0-0.4-0.1-1-0.5-1.6c-0.3-0.6-0.9-1.1-1.5-1.5c-0.8-0.5-1.8-0.8-2.9-1
				C398.3,376.1,398.5,376.8,399.1,377.5z"/>
			<path class="st20" d="M403.2,380.1c-2.3-0.4-3.8-1.2-4.7-2.3c-0.9-1-1-2.1-1.1-2.9c0-0.1,0-0.2,0.1-0.3c0.1-0.1,0.2-0.1,0.3-0.1
				c1.4,0.2,2.6,0.6,3.5,1.1c0.8,0.5,1.4,1,1.8,1.7c0.7,1.2,0.6,2.3,0.6,2.3c0,0.1-0.1,0.2-0.2,0.3
				C403.5,380.1,403.4,380.1,403.2,380.1C403.3,380.1,403.2,380.1,403.2,380.1z M397.7,374.9c0,0-0.1,0.1,0,0.1
				c0.1,0.7,0.3,1.8,1.1,2.7c0.9,1,2.4,1.7,4.6,2.2h0.1l0.1-0.1c0,0,0.1-1.1-0.6-2.2c-0.4-0.7-1-1.2-1.7-1.7
				c-0.9-0.5-2.1-0.9-3.5-1.1C397.8,374.8,397.8,374.9,397.7,374.9z M403,379.5c-2-0.4-3.3-1.1-4.1-2c-0.6-0.7-0.8-1.5-0.9-2.2v-0.2
				h0.2c1.2,0.2,2.2,0.5,3,1c0.7,0.4,1.2,0.9,1.6,1.6s0.5,1.3,0.5,1.7v0.2L403,379.5z M399.2,377.4c0.7,0.9,2,1.5,3.8,1.9
				c0-0.4-0.2-0.9-0.5-1.4c-0.3-0.6-0.8-1.1-1.5-1.5s-1.6-0.7-2.7-0.9C398.4,376.1,398.7,376.8,399.2,377.4z"/>
			<path class="st30" d="M403.2,380.1c-2.3-0.4-3.8-1.2-4.7-2.3c-0.9-1-1-2.1-1.1-2.9c0-0.1,0-0.2,0.1-0.3c0.1-0.1,0.2-0.1,0.3-0.1
				c1.4,0.2,2.6,0.6,3.5,1.1c0.8,0.5,1.4,1,1.8,1.7c0.7,1.2,0.6,2.3,0.6,2.3c0,0.1-0.1,0.2-0.2,0.3
				C403.5,380.1,403.4,380.1,403.2,380.1z M397.7,374.9c0,0-0.1,0.1,0,0.1c0.1,0.7,0.3,1.8,1.1,2.7c0.9,1,2.4,1.7,4.6,2.2h0.1
				l0.1-0.1c0,0,0.1-1.1-0.6-2.2c-0.4-0.7-1-1.2-1.7-1.7c-0.9-0.5-2.1-0.9-3.5-1.1C397.8,374.8,397.8,374.9,397.7,374.9z M403,379.5
				c-2-0.4-3.3-1.1-4.1-2c-0.6-0.7-0.8-1.5-0.9-2.2v-0.2h0.2c1.2,0.2,2.2,0.5,3,1c0.7,0.4,1.2,0.9,1.6,1.6s0.5,1.3,0.5,1.7v0.2
				L403,379.5z M399.2,377.4c0.7,0.9,2,1.5,3.8,1.9c0-0.4-0.2-0.9-0.5-1.4c-0.3-0.6-0.8-1.1-1.5-1.5s-1.6-0.7-2.7-0.9
				C398.4,376.1,398.7,376.8,399.2,377.4z"/>
			<path class="st29" d="M405.9,387.3c0.2,0,0.3-0.1,0.3-0.3c0-0.2-0.1-0.3-0.3-0.3c-0.2,0-0.3,0.1-0.3,0.3
				C405.6,387.2,405.8,387.3,405.9,387.3z"/>
			<path class="st29" d="M405.5,387c0-0.2,0.2-0.4,0.5-0.4c0.2,0,0.4,0.2,0.4,0.5c0,0.2-0.2,0.4-0.5,0.4
				C405.7,387.4,405.5,387.2,405.5,387z M405.8,387c0,0.1,0.1,0.2,0.2,0.2s0.2-0.1,0.2-0.2s-0.1-0.2-0.2-0.2S405.8,386.9,405.8,387z
				"/>
			<path class="st27" d="M430.7,399.5c-0.3,2.7-2.4,4.7-4.8,4.5c-0.8-0.1-1.5-0.4-2.1-0.9c-0.7,0.4-1.4,0.5-2.2,0.4
				c-2.4-0.2-4.1-2.6-3.8-5.3c0.3-2.7,2.4-4.7,4.8-4.5c0.8,0.1,1.5,0.4,2.1,0.9c0.7-0.4,1.4-0.5,2.2-0.4
				C429.3,394.6,431,396.9,430.7,399.5z"/>
			<path class="st28" d="M423.6,393c0,0,0.4-4-5.6-4.8C418.3,389.9,418.8,392,423.6,393z"/>
			<path class="st29" d="M419.4,394.8c-1.7,1.6-2.3,4.3-1.3,6.4c1,2.2,3.5,3.5,5.8,2.4c1.3,0.9,2.9,1.1,4.3,0.4
				c2.3-1.1,3.4-4.1,2.6-6.5c-0.8-2.6-3.5-4.3-6.1-3.1c-0.3-0.2-0.8-0.6-1.2-0.6c-0.1,0-0.1,0-0.2-0.1c-0.2-0.1-0.5-0.1-0.7-0.1
				C421.5,393.5,420.3,393.9,419.4,394.8z M418.3,397.9c0.4-2.2,2.4-4.3,4.8-3.7c0.3,0.1,0.7,0.2,1,0.4c0.7,0.4,1.3,1.1,1.7,1.9
				c0.2,0.4,0.3,0.9,0.4,1.3c0,0.2,0.1,0.5,0.1,0.7s-0.1,0.5,0,0.7s0.3,0.3,0.5,0.2c0.2-0.1,0.2-0.3,0.2-0.5c0-0.5,0-1.1-0.1-1.6
				c-0.2-0.9-0.7-1.8-1.3-2.5c1.4-0.5,2.9-0.1,3.9,1c1.7,1.9,1.6,5-0.2,6.8c-0.8,0.8-2,1.3-3.2,1.1c-0.4-0.1-0.8-0.2-1.1-0.4
				c-0.3-0.1-0.6-0.5-0.8-0.5c-0.2,0-0.4,0.2-0.6,0.2c-0.2,0.1-0.3,0.1-0.5,0.2c-0.4,0.1-0.7,0.1-1.1,0.1
				C419.2,403,417.9,400.2,418.3,397.9z"/>
			<path class="st29" d="M423.8,403.6c-1,0.5-2.2,0.5-3.2,0.1c-1.2-0.4-2.2-1.4-2.7-2.6c-1-2.2-0.4-5,1.3-6.6c1.2-1,2.7-1.5,4.1-1.1
				c0.1,0,0.1,0,0.2,0.1c0.4,0,0.9,0.4,1.2,0.6c1.1-0.5,2.3-0.5,3.5,0c1.3,0.6,2.3,1.8,2.7,3.2c0.8,2.6-0.4,5.5-2.7,6.7
				c-0.7,0.4-1.5,0.5-2.3,0.4C425.2,404.3,424.5,404.1,423.8,403.6z M424.8,394.5h-0.1c-0.2-0.2-0.8-0.6-1.1-0.6
				c-0.1,0-0.1,0-0.2-0.1c-1.4-0.4-2.8,0-3.9,1c-1.7,1.5-2.2,4.2-1.3,6.3c0.5,1.2,1.4,2.1,2.6,2.5c1,0.4,2.1,0.3,3.1-0.1h0.1h0.1
				c1.2,0.9,2.8,1.1,4.2,0.4c2.2-1.1,3.3-3.9,2.6-6.4c-0.4-1.3-1.4-2.5-2.6-3c-0.4-0.2-0.8-0.3-1.2-0.3
				C426.2,394.1,425.5,394.2,424.8,394.5z M419.2,401.9c-0.8-1.1-1.2-2.6-0.9-4c0.2-1.3,1-2.6,2.1-3.3c0.9-0.6,1.9-0.7,2.8-0.5
				c0.4,0.1,0.7,0.2,1,0.4c0.7,0.4,1.3,1.1,1.7,1.9c0.2,0.4,0.3,0.9,0.4,1.4c0,0.2,0.1,0.5,0.1,0.7c0,0.1,0,0.2,0,0.3
				c0,0.1,0,0.3,0,0.4s0.1,0.1,0.1,0.1s0.1,0,0.2,0c0.1-0.1,0.1-0.2,0.1-0.4v-0.1c0-0.5,0-1-0.1-1.5c-0.2-1-0.7-1.8-1.3-2.5
				l-0.1-0.1l0.2-0.1c1.4-0.5,3-0.2,4.1,1c1.7,1.9,1.6,5.1-0.2,7c-0.9,0.9-2.1,1.3-3.3,1.2c-0.4-0.1-0.8-0.2-1.2-0.4
				c-0.1-0.1-0.2-0.1-0.3-0.2c-0.2-0.1-0.3-0.3-0.5-0.3c-0.1,0-0.2,0.1-0.3,0.1c-0.1,0-0.1,0.1-0.2,0.1c-0.2,0.1-0.3,0.1-0.5,0.2
				c-0.4,0.1-0.8,0.1-1.2,0.1C420.7,403.3,419.8,402.8,419.2,401.9z M424.5,403c0.1,0.1,0.2,0.1,0.3,0.2c0.3,0.2,0.7,0.3,1.1,0.4
				c1.1,0.2,2.2-0.3,3.1-1.1c1.8-1.8,1.9-4.9,0.2-6.7c-1-1-2.4-1.4-3.7-1c0.6,0.7,1,1.5,1.3,2.4c0.1,0.5,0.2,1.1,0.1,1.6v0.1
				c0,0.2,0,0.4-0.2,0.6c-0.1,0.1-0.2,0.1-0.4,0c-0.1-0.1-0.2-0.2-0.3-0.3c0-0.1,0-0.3,0-0.5c0-0.1,0-0.2,0-0.2c0-0.2,0-0.5-0.1-0.7
				c-0.1-0.5-0.2-0.9-0.4-1.3c-0.4-0.8-0.9-1.4-1.6-1.8c-0.3-0.2-0.6-0.3-0.9-0.4c-0.9-0.2-1.8-0.1-2.6,0.5c-1,0.7-1.8,1.9-2,3.1
				c-0.2,1.3,0.1,2.8,0.9,3.8c0.6,0.8,1.5,1.3,2.5,1.4c0.4,0,0.7,0,1.1-0.1c0.2,0,0.3-0.1,0.5-0.1c0.1,0,0.1-0.1,0.2-0.1
				c0.1-0.1,0.3-0.2,0.4-0.1C424.1,402.7,424.3,402.9,424.5,403z"/>
			<path class="st29" d="M424.8,393.8c0.2,0,0.4-0.2,0.3-0.3c0,0,0-0.7,0.2-1.5c0.3-1,1-1.6,2-1.8c0.2,0,0.3-0.2,0.2-0.4
				c0-0.2-0.2-0.3-0.4-0.2c-1.2,0.2-2.1,1-2.5,2.2c-0.3,0.9-0.3,1.7-0.3,1.7C424.5,393.6,424.6,393.8,424.8,393.8z"/>
			<path class="st20" d="M424.4,393.5c0,0,0-0.9,0.3-1.8c0.4-1.3,1.3-2,2.6-2.3c0.2,0,0.5,0.1,0.5,0.3c0,0.2-0.1,0.5-0.3,0.5
				c-0.9,0.2-1.6,0.7-1.9,1.7c-0.2,0.7-0.2,1.4-0.2,1.5c0,0.2-0.2,0.4-0.4,0.5c0,0,0,0-0.1,0C424.5,393.9,424.4,393.7,424.4,393.5z
				 M427.2,389.7c-1.2,0.2-2,1-2.4,2.1c-0.3,0.9-0.3,1.7-0.2,1.7c0,0.1,0.1,0.2,0.2,0.2s0.2-0.1,0.2-0.2s0-0.8,0.2-1.6
				c0.4-1,1.1-1.7,2.1-1.9c0.1,0,0.2-0.1,0.2-0.2C427.4,389.7,427.4,389.7,427.2,389.7C427.3,389.7,427.3,389.7,427.2,389.7z"/>
			<path class="st30" d="M427.2,389.7c-1.2,0.2-2,1-2.4,2.1c-0.3,0.9-0.3,1.7-0.2,1.7c0,0.1,0.1,0.2,0.2,0.2s0.2-0.1,0.2-0.2
				s0-0.8,0.2-1.6c0.4-1,1.1-1.7,2.1-1.9c0.1,0,0.2-0.1,0.2-0.2C427.4,389.7,427.4,389.7,427.2,389.7z M424.4,393.5
				c0,0,0-0.9,0.3-1.8c0.4-1.3,1.3-2,2.6-2.3c0.2,0,0.5,0.1,0.5,0.3c0,0.2-0.1,0.5-0.3,0.5c-0.9,0.2-1.6,0.7-1.9,1.7
				c-0.2,0.7-0.2,1.4-0.2,1.5c0,0.2-0.2,0.4-0.4,0.5c0,0,0,0-0.1,0C424.5,393.9,424.4,393.7,424.4,393.5z"/>
			<path class="st29" d="M423.5,393.3c-2.2-0.4-3.8-1.2-4.7-2.2c-0.8-1-1-2.1-1.1-2.8c0-0.1,0-0.2,0.1-0.2c0.1-0.1,0.1-0.1,0.2-0.1
				c1.4,0.2,2.6,0.5,3.5,1.1c0.7,0.5,1.3,1,1.7,1.7c0.7,1.2,0.6,2.2,0.6,2.3c0,0.1,0,0.1-0.1,0.2
				C423.7,393.3,423.6,393.3,423.5,393.3z M419.3,390.7c0.8,0.9,2.1,1.5,4,2c0-0.4-0.1-1-0.5-1.6c-0.3-0.6-0.9-1.1-1.5-1.5
				c-0.8-0.5-1.8-0.8-2.9-1C418.6,389.3,418.8,390,419.3,390.7z"/>
			<path class="st29" d="M423.5,393.4c-2.3-0.4-3.8-1.2-4.7-2.3c-0.9-1-1-2.1-1.1-2.9c0-0.1,0-0.2,0.1-0.3c0.1-0.1,0.2-0.1,0.3-0.1
				c1.4,0.2,2.6,0.6,3.5,1.1c0.8,0.5,1.4,1,1.8,1.7c0.7,1.2,0.6,2.3,0.6,2.3c0,0.1-0.1,0.2-0.2,0.3
				C423.7,393.4,423.6,393.4,423.5,393.4z M418,388.1C418,388.1,417.9,388.2,418,388.1c0.1,0.8,0.3,1.9,1.1,2.8
				c0.9,1,2.4,1.7,4.6,2.2h0.1l0.1-0.1c0,0,0.1-1.1-0.6-2.2c-0.4-0.7-1-1.2-1.7-1.7C420.7,388.6,419.5,388.2,418,388.1L418,388.1z
				 M423.3,392.8c-2-0.4-3.3-1.1-4.1-2c-0.6-0.7-0.8-1.5-0.9-2.2v-0.2h0.2c1.2,0.2,2.2,0.5,3,1c0.7,0.4,1.2,0.9,1.6,1.6
				s0.5,1.3,0.5,1.7v0.2L423.3,392.8z M419.4,390.6c0.7,0.9,2,1.5,3.8,1.9c0-0.4-0.2-0.9-0.5-1.4c-0.3-0.6-0.8-1.1-1.5-1.5
				s-1.6-0.7-2.7-0.9C418.7,389.3,418.9,390,419.4,390.6z"/>
			<g>
				<path class="st20" d="M498.7,352.6c0,0.3,0,0.6,0,0.8c0,3.8-1.3,8.6-4.1,11.3c-3,3-8.7,3.3-12.5,3.6c-2.2,0.2-4.5,0.3-6.5-0.4
					c-4-1.3-5.6-4.9-6.4-8.2c-2.4-9.4-2.6-18.9-2.7-28.5c0-8.1-0.2-19.7,9.2-25.2c6.3-3.7,9-2.4,11.3,3c3.3,7.5,2,15.8,4.7,23.5
					c1.1,3.3,2.9,6.3,4.3,9.4C497.5,345.4,498.6,349,498.7,352.6z"/>
				<path class="st34" d="M390.4,332.9c-1.5,30.2,19.5,43.4,46.1,44.8c14.3,0.7,32.3-2.1,41.7-14.5c4.8-6.5,2.1-10.6,0.5-17.7
					c-1.7-7.7,0.5-14.7,2-22.2c1.6-8.5-1.6-19.1-4.8-26.9c-5.9-14.1-17.7-27.3-33.9-28.1C415.4,266.9,391.9,302.7,390.4,332.9z"/>
				<path class="st20" d="M457.1,344.6c-0.2,4.3,3.1,7.9,7.3,8.1c4.3,0.2,7.9-3.1,8.1-7.3c0.2-4.3-3.1-7.9-7.3-8.1
					C460.9,337.2,457.3,340.3,457.1,344.6z"/>
				<path class="st35" d="M463.4,350.5c1.8,0.1,3.3-1.3,3.4-3c0.1-1.8-1.3-3.3-3-3.4c-1.8-0.1-3.3,1.3-3.4,3
					C460.4,348.9,461.8,350.4,463.4,350.5z"/>
				<path class="st35" d="M467,343.4c1,0,1.8-0.7,1.8-1.7s-0.7-1.8-1.7-1.8s-1.8,0.7-1.8,1.7C465.3,342.5,466,343.3,467,343.4z"/>
				<path class="st22" d="M422.5,364.4c0.4,1.5,3.5,2,7,1.1c3.4-0.9,5.9-2.9,5.5-4.4s-3.5-2-7-1.1
					C424.4,360.9,422.1,362.9,422.5,364.4z"/>
				<path class="st22" d="M461.9,357.5c0.4,1.5,3.5,2,7,1.1c3.4-0.9,5.9-2.9,5.5-4.4s-3.5-2-7-1.1
					C463.8,353.9,461.5,355.9,461.9,357.5z"/>
				<path class="st20" d="M418.9,351.4c-0.2,4.3,3.1,7.9,7.3,8.1c4.3,0.2,7.9-3.1,8.1-7.3c0.2-4.3-3.1-7.9-7.3-8.1
					C422.7,343.9,419.1,347.2,418.9,351.4z"/>
				<path class="st35" d="M425.4,357.3c1.8,0,3.2-1.4,3.2-3.2c0-1.8-1.4-3.2-3.2-3.2c-1.8,0-3.2,1.4-3.2,3.2
					C422.3,355.8,423.7,357.3,425.4,357.3z"/>
				<path class="st35" d="M428.9,350.2c1,0,1.8-0.8,1.8-1.8s-0.8-1.8-1.8-1.8s-1.8,0.8-1.8,1.8C427.1,349.4,427.9,350.2,428.9,350.2
					z"/>
				<path class="st20" d="M489.2,317c0.2,9.8-3.2,18.8-12.3,24.2c0.3-5.6-4.2-10.4-9.5-12.3c-5.2-1.9-10.9-1.3-16.4-0.3
					c-9.7,1.9-19.1,5.1-28.1,9.3c-7.5,3.5-12.5,10.1-15.9,17.5c-1.1,2.4-2.5,4.4-2.9,7c-0.1,0.7-0.2,8.7,0.6,8.4
					c-8.1,2.4-16.9-1.6-22.3-8s-7.8-14.8-9-23.1c-2.9-20.2,1.2-42.4,15.5-56.9c14-14.2,35.9-18.9,55.5-15c10.1,2,20,6.2,27.9,12.9
					C481.4,288.5,488.8,303.3,489.2,317z"/>
				<path class="st20" d="M417.3,303.6c-2.4,7.1-4.1,14.4-5.4,21.8c-1.9,11.5-4.1,27.9,3.5,37.8c0.9,1.2,2,2.4,2.7,3.8
					s1,3.1,0.2,4.5c-0.9,1.6-2.7,2.1-4.4,2.5c-4.6,0.9-9.3,1.3-13.9,1.1c-3.6-0.2-7.4-0.7-10.5-2.4c-8.3-4.3-13.3-15.1-15.9-24
					c-3.4-11.6-2.3-24.4,0.4-36C382.1,278.2,417.3,303.6,417.3,303.6z"/>
				<path class="st33" d="M447.7,364c0.2,0.9,1.7,1.3,3.3,0.9c1.6-0.4,2.8-1.4,2.6-2.2"/>
				<path class="st36" d="M389.7,309.2c3.6-0.6,6-4.1,5.4-7.7s-4.1-6-7.7-5.4s-6,4.1-5.4,7.7C382.6,307.4,386,309.8,389.7,309.2z"/>
				<path class="st37" d="M386.1,296.2l-1.4-2.1c0.6-0.5,1.1-1.2,1.3-2.1c0.4-1.9-1.3-4-1.3-4s-2.4,1.1-2.8,3.1
					c-0.1,0.3-0.1,0.7,0,1c-0.3-0.2-0.7-0.4-1.1-0.5c-1.9-0.4-4,1.3-4,1.3s1.1,2.4,3.1,2.8c0.8,0.2,1.6,0,2.3-0.3l1.5,2.3
					c0.4,0.6,1.3,0.8,1.9,0.4c0.1-0.1,0.2-0.1,0.2-0.2C386.4,297.5,386.5,296.7,386.1,296.2z"/>
			</g>
			<path class="st38" d="M462.1,373l-9.8,31.9c-0.1,0.4-0.4,0.6-0.8,0.7l-26.5,2c-0.5,0-0.9,0.4-0.9,0.9v1.7c0,0.5,0.4,0.9,0.9,0.9
				l72.3-1.4c0.4,0,0.7-0.2,0.9-0.6l12.7-33.3c0.2-0.6-0.2-1.2-0.8-1.3l-47.3-2.2C462.6,372.3,462.2,372.6,462.1,373z"/>
			<path class="st37" d="M488.8,391.6c-0.3-1-1-1.8-1.9-2.2c-0.8-0.3-1.6-0.3-2.4,0c-0.2-0.1-0.5-0.4-0.8-0.4h-0.1
				c-1-0.3-2.1,0-2.8,0.7c-1.2,1.1-1.6,3-0.9,4.5c0.4,0.8,1,1.5,1.9,1.8c0.7,0.3,1.5,0.2,2.2-0.1c0.4,0.3,0.9,0.5,1.4,0.5
				c0.5,0.1,1.1,0,1.6-0.3C488.5,395.4,489.3,393.4,488.8,391.6z"/>
			<path class="st37" d="M484.5,389.2C484.5,389.2,484.6,389.2,484.5,389.2c0.2,0,0.3-0.1,0.3-0.3c0-0.1,0-0.5,0.2-1
				c0.2-0.7,0.7-1,1.3-1.2c0.2,0,0.3-0.2,0.2-0.3c0-0.2-0.2-0.3-0.3-0.2c-0.9,0.2-1.5,0.7-1.8,1.6c-0.2,0.6-0.2,1.2-0.2,1.2
				C484.3,389.1,484.4,389.2,484.5,389.2z"/>
			<path class="st37" d="M483.7,388.9c0.1,0,0.2,0,0.2,0c0.1,0,0.1-0.1,0.1-0.2c0,0,0.1-0.8-0.4-1.6c-0.3-0.5-0.7-0.9-1.2-1.2
				c-0.6-0.4-1.5-0.6-2.4-0.8c-0.1,0-0.2,0-0.2,0.1c-0.1,0.1-0.1,0.1-0.1,0.2c0.1,0.5,0.2,1.3,0.8,2
				C481.1,388,482.1,388.6,483.7,388.9z"/>
			<path class="st34" d="M451.7,401.8c-1.4,5.8-10.1,8.8-20.2,7.2l6.6-22.5C447.1,389.9,453,396.2,451.7,401.8z"/>
			<path class="st29" d="M426.2,400.5c0.2,0,0.3-0.1,0.3-0.3c0-0.2-0.1-0.3-0.3-0.3c-0.2,0-0.3,0.1-0.3,0.3
				C425.9,400.4,426,400.5,426.2,400.5z"/>
			<path class="st29" d="M425.8,400.2c0-0.2,0.2-0.4,0.5-0.4c0.2,0,0.4,0.2,0.4,0.5c0,0.2-0.2,0.4-0.5,0.4
				C425.9,400.6,425.8,400.4,425.8,400.2z M426,400.2c0,0.1,0.1,0.2,0.2,0.2s0.2-0.1,0.2-0.2s-0.1-0.2-0.2-0.2S426,400.1,426,400.2z
				"/>
			<path class="st27" d="M402.4,414.3c-0.3,2.7-2.4,4.7-4.8,4.5c-0.8-0.1-1.5-0.4-2.1-0.9c-0.7,0.4-1.4,0.5-2.2,0.4
				c-2.4-0.2-4.1-2.6-3.8-5.3c0.3-2.7,2.4-4.7,4.8-4.5c0.8,0.1,1.5,0.4,2.1,0.9c0.7-0.4,1.4-0.5,2.2-0.4
				C401,409.2,402.7,411.6,402.4,414.3z"/>
			<path class="st28" d="M395.3,407.6c0,0,0.4-4-5.6-4.8C390,404.5,390.4,406.7,395.3,407.6z"/>
			<path class="st29" d="M391.1,409.4c-1.7,1.6-2.3,4.3-1.3,6.4c1,2.2,3.5,3.5,5.8,2.4c1.3,0.9,2.9,1.1,4.3,0.4
				c2.3-1.1,3.4-4.1,2.6-6.5c-0.8-2.6-3.5-4.3-6.1-3.1c-0.3-0.2-0.8-0.6-1.2-0.6c-0.1,0-0.1,0-0.2-0.1c-0.2-0.1-0.5-0.1-0.7-0.1
				C393.2,408.1,392,408.6,391.1,409.4z M390,412.7c0.4-2.2,2.4-4.3,4.8-3.7c0.3,0.1,0.7,0.2,1,0.4c0.7,0.4,1.3,1.1,1.7,1.9
				c0.2,0.4,0.3,0.9,0.4,1.3c0,0.2,0.1,0.5,0.1,0.7s-0.1,0.5,0,0.7s0.3,0.3,0.5,0.2c0.2-0.1,0.2-0.3,0.2-0.5c0-0.5,0-1.1-0.1-1.6
				c-0.2-0.9-0.7-1.8-1.3-2.5c1.4-0.5,2.9-0.1,3.9,1c1.7,1.9,1.6,5-0.2,6.8c-0.8,0.8-2,1.3-3.2,1.1c-0.4-0.1-0.8-0.2-1.1-0.4
				c-0.3-0.1-0.6-0.5-0.8-0.5c-0.2,0-0.4,0.2-0.6,0.2c-0.2,0.1-0.3,0.1-0.5,0.2c-0.4,0.1-0.7,0.1-1.1,0.1
				C390.9,417.8,389.6,415,390,412.7z"/>
			<path class="st29" d="M395.6,418.3c-1,0.5-2.2,0.5-3.2,0.1c-1.2-0.4-2.2-1.4-2.7-2.6c-1-2.2-0.4-5,1.3-6.6c1.2-1,2.7-1.5,4.1-1.1
				c0.1,0,0.1,0,0.2,0.1c0.4,0,0.9,0.4,1.2,0.6c1.1-0.5,2.3-0.5,3.5,0c1.3,0.6,2.3,1.8,2.7,3.2c0.8,2.6-0.4,5.5-2.7,6.7
				c-0.7,0.4-1.5,0.5-2.3,0.4C396.9,419,396.2,418.7,395.6,418.3z M396.5,409.2L396.5,409.2c-0.3-0.2-0.9-0.6-1.2-0.6
				c-0.1,0-0.1,0-0.2-0.1c-1.4-0.4-2.8,0-3.9,1c-1.7,1.5-2.2,4.2-1.3,6.3c0.5,1.2,1.4,2.1,2.6,2.5c1,0.4,2.1,0.3,3.1-0.1h0.1h0.1
				c1.2,0.9,2.8,1.1,4.2,0.4c2.2-1.1,3.3-3.9,2.6-6.4c-0.4-1.3-1.4-2.5-2.6-3c-0.4-0.2-0.8-0.3-1.2-0.3
				C397.9,408.7,397.2,408.9,396.5,409.2z M390.8,416.6c-0.8-1.1-1.2-2.6-0.9-4c0.2-1.3,1-2.6,2.1-3.3c0.9-0.6,1.9-0.7,2.8-0.5
				c0.4,0.1,0.7,0.2,1,0.4c0.7,0.4,1.3,1.1,1.7,1.9c0.2,0.4,0.3,0.9,0.4,1.4c0,0.2,0.1,0.5,0.1,0.7c0,0.1,0,0.2,0,0.3
				c0,0.1,0,0.3,0,0.4s0.1,0.1,0.1,0.1s0.1,0,0.2,0c0.1-0.1,0.1-0.2,0.1-0.4v-0.1c0-0.5,0-1-0.1-1.5c-0.2-1-0.7-1.8-1.3-2.5
				l-0.1-0.1l0.2-0.1c1.4-0.5,3-0.2,4.1,1c1.7,1.9,1.6,5.1-0.2,7c-0.9,0.9-2.1,1.3-3.3,1.2c-0.4-0.1-0.8-0.2-1.2-0.4
				c-0.1-0.1-0.2-0.1-0.3-0.2c-0.2-0.1-0.3-0.3-0.5-0.3c-0.1,0-0.2,0.1-0.3,0.1c-0.1,0-0.1,0.1-0.2,0.1c-0.2,0.1-0.3,0.1-0.5,0.2
				c-0.4,0.1-0.8,0.1-1.2,0.1C392.4,417.9,391.5,417.5,390.8,416.6z M396.2,417.8c0.1,0.1,0.2,0.1,0.3,0.2c0.3,0.2,0.7,0.3,1.1,0.4
				c1.1,0.2,2.2-0.3,3.1-1.1c1.8-1.8,1.9-4.9,0.2-6.7c-1-1-2.4-1.4-3.7-1c0.6,0.7,1,1.5,1.3,2.4c0.1,0.5,0.2,1.1,0.1,1.6v0.1
				c0,0.2,0,0.4-0.2,0.6c-0.1,0.1-0.2,0.1-0.4,0c-0.1-0.1-0.2-0.2-0.3-0.3c0-0.1,0-0.3,0-0.5c0-0.1,0-0.2,0-0.2c0-0.2,0-0.5-0.1-0.7
				c-0.1-0.5-0.2-0.9-0.4-1.3c-0.4-0.8-0.9-1.4-1.6-1.8c-0.3-0.2-0.6-0.3-0.9-0.4c-0.9-0.2-1.8-0.1-2.6,0.5c-1,0.7-1.8,1.9-2,3.1
				c-0.2,1.3,0.1,2.8,0.9,3.8c0.6,0.8,1.5,1.3,2.5,1.4c0.4,0,0.7,0,1.1-0.1c0.2,0,0.3-0.1,0.5-0.1c0.1,0,0.1-0.1,0.2-0.1
				c0.1-0.1,0.3-0.2,0.4-0.1C395.8,417.5,396.1,417.6,396.2,417.8z"/>
			<path class="st29" d="M396.5,408.4c0.2,0,0.4-0.2,0.3-0.3c0,0,0-0.7,0.2-1.5c0.3-1,1-1.6,2-1.8c0.2,0,0.3-0.2,0.2-0.4
				c0-0.2-0.2-0.3-0.4-0.2c-1.2,0.2-2.1,1-2.5,2.2c-0.3,0.9-0.3,1.7-0.3,1.7C396.2,408.3,396.4,408.4,396.5,408.4z"/>
			<path class="st29" d="M396.1,408.1c0,0,0-0.9,0.3-1.8c0.4-1.3,1.3-2,2.6-2.3c0.2,0,0.5,0.1,0.5,0.3c0,0.2-0.1,0.5-0.3,0.5
				c-0.9,0.2-1.6,0.7-1.9,1.7c-0.2,0.7-0.2,1.4-0.2,1.5c0,0.2-0.2,0.4-0.4,0.5c0,0,0,0-0.1,0C396.3,408.5,396.1,408.4,396.1,408.1z
				 M399,404.3c-1.2,0.2-2,1-2.4,2.1c-0.3,0.9-0.3,1.7-0.2,1.7c0,0.1,0.1,0.2,0.2,0.2s0.2-0.1,0.2-0.2s0-0.8,0.2-1.6
				c0.4-1,1.1-1.7,2.1-1.9c0.1,0,0.2-0.1,0.2-0.2C399.2,404.4,399.1,404.3,399,404.3z"/>
			<path class="st29" d="M395.2,407.9c-2.2-0.4-3.8-1.2-4.7-2.2c-0.8-1-1-2.1-1.1-2.8c0-0.1,0-0.2,0.1-0.2s0.1-0.1,0.2-0.1
				c1.4,0.2,2.6,0.5,3.5,1.1c0.7,0.5,1.3,1,1.7,1.7c0.7,1.2,0.6,2.2,0.6,2.3c0,0.1,0,0.1-0.1,0.2
				C395.4,407.9,395.3,407.9,395.2,407.9z M391,405.3c0.8,0.9,2.1,1.5,4,2c0-0.4-0.1-1-0.5-1.6c-0.3-0.6-0.9-1.1-1.5-1.5
				c-0.8-0.5-1.8-0.8-2.9-1C390.2,403.9,390.4,404.7,391,405.3z"/>
			<path class="st29" d="M395.2,408c-2.3-0.4-3.8-1.2-4.7-2.3c-0.9-1-1-2.1-1.1-2.9c0-0.1,0-0.2,0.1-0.3c0.1-0.1,0.2-0.1,0.3-0.1
				c1.4,0.2,2.6,0.6,3.5,1.1c0.8,0.5,1.4,1,1.8,1.7c0.7,1.2,0.6,2.3,0.6,2.3c0,0.1-0.1,0.2-0.2,0.3C395.4,408,395.3,408,395.2,408z
				 M389.6,402.7C389.6,402.7,389.5,402.8,389.6,402.7c0.1,0.8,0.3,1.9,1.1,2.8c0.9,1,2.4,1.7,4.6,2.2h0.1l0.1-0.1
				c0,0,0.1-1.1-0.6-2.2c-0.4-0.7-1-1.2-1.7-1.7C392.3,403.2,391.1,402.8,389.6,402.7C389.7,402.7,389.6,402.7,389.6,402.7z
				 M395,407.4c-2-0.4-3.3-1.1-4.1-2c-0.6-0.7-0.8-1.5-0.9-2.2V403h0.2c1.2,0.2,2.2,0.5,3,1c0.7,0.4,1.2,0.9,1.6,1.6
				s0.5,1.3,0.5,1.7v0.2L395,407.4z M391.1,405.3c0.7,0.9,2,1.5,3.8,1.9c0-0.4-0.2-0.9-0.5-1.4c-0.3-0.6-0.8-1.1-1.5-1.5
				s-1.6-0.7-2.7-0.9C390.3,404,390.5,404.6,391.1,405.3z"/>
			<path class="st29" d="M397.9,415.3c0.2,0,0.3-0.1,0.3-0.3c0-0.2-0.1-0.3-0.3-0.3c-0.2,0-0.3,0.1-0.3,0.3
				C397.6,415.1,397.7,415.3,397.9,415.3z"/>
			<path class="st29" d="M397.5,414.9c0-0.2,0.2-0.4,0.5-0.4c0.2,0,0.4,0.2,0.4,0.5c0,0.2-0.2,0.4-0.5,0.4
				C397.7,415.4,397.5,415.2,397.5,414.9z M397.7,415c0,0.1,0.1,0.2,0.2,0.2s0.2-0.1,0.2-0.2s-0.1-0.2-0.2-0.2
				C397.9,414.8,397.8,414.9,397.7,415z"/>
		</g>
	</g>
	<g>
		<g>
			<path class="st39" d="M245.1,423.7c1.1,19-9.7,38.6-33.4,46.2c-21.8,7-45.6,7.1-67.1-2.5c-39-17.5-17.7-59.5,9.3-76.1
				c12.5-7.7,27.8-12.2,43.2-11.6C227.3,381,243.9,402,245.1,423.7"/>
			<path class="st7" d="M239.9,415.3c1.1,19-9.7,38.6-33.4,46.2c-21.8,7-45.6,7.1-67.1-2.5c-39-17.5-17.7-59.5,9.3-76.1
				c12.5-7.7,27.8-12.2,43.2-11.6C222,372.6,238.6,393.6,239.9,415.3"/>
			<path class="st20" d="M165.3,439.9c-6.7-0.4-13.4-1.9-19.4-4.7c-30.4-14-10.1-42.4,13.6-52.8c10.3-4.5,21.6-6.5,31.7-5.4
				c0.7,0.1,1.4,0.2,2,0.2c8.5,1.2,14.7,4.4,19.1,9.8c4.5,5.5,6.7,13,6,20.7C216.6,428.2,190.1,441.5,165.3,439.9z"/>
		</g>
		<g>
			<path class="st40" d="M153.9,363.6c4.6,6.3-2.4,19.3-15.6,29s-27.7,12.4-32.3,6.2c-4.6-6.3,2.4-19.3,15.6-29
				C134.8,360,149.3,357.3,153.9,363.6z"/>
			<path class="st40" d="M208.1,405.6c0,24.4-18.7,34.6-41.7,34.6s-41.7-10.2-41.7-34.6s18.7-53.8,41.7-53.8
				C189.4,351.7,208.1,381.1,208.1,405.6z"/>
			<g>
				<path class="st20" d="M197.5,273.7c0,0,8.4-2.9,10.8,3.2c0,0-8.4-2.2-6.7,3.6"/>
				<path class="st20" d="M199.5,275.3c0,0,0.9-8.9-5.6-9.8c0,0,4.1,7.7-2,7.4"/>
			</g>
			<path class="st20" d="M99.7,348.1c0,0.3,0,0.5,0,0.8c-0.2,3.8,0.9,8.5,3.5,11.4c2.8,3,8.3,3.6,12.2,4.1c2.1,0.3,4.4,0.5,6.4,0
				c4-1.1,5.7-4.6,6.7-7.7c2.9-9.1,3.5-18.5,4-27.9c0.4-7.9,1.1-19.5-7.8-25.3c-6-3.9-8.7-2.8-11.3,2.4c-3.6,7.2-2.8,15.5-5.8,22.9
				c-1.3,3.1-3.2,6-4.7,9C101.2,341,99.9,344.5,99.7,348.1z"/>
			<path class="st26" d="M163.2,406.6c17.1-1.9,31.2,5.5,32.3,15.4c1.1,10-11.3,18.9-28.3,20.7c-17.1,1.9-32.4-4-33.5-14
				C132.6,418.8,146.2,408.5,163.2,406.6z"/>
			<path class="st26" d="M186.1,390.4c-1.5-6.3-11.9-9.2-23.2-6.5s-19.2,10.1-17.7,16.4s11.9,9.2,23.2,6.5
				C179.7,404.1,187.6,396.7,186.1,390.4z"/>
			<path class="st34" d="M207.4,334c0,29.9-21.4,41.9-47.7,41.9c-14.2,0-31.8-3.6-40.4-16.3c-4.4-6.6-1.6-10.6,0.3-17.5
				c2-7.5,0.2-14.6-0.8-22c-1.2-8.4,2.5-18.8,6-26.3c6.4-13.6,18.9-26,34.8-26C186.1,267.6,207.4,304.1,207.4,334z"/>
			<g>
				<g>
					<g>
						<path class="st20" d="M141.1,342.2c0,4.2-3.4,7.6-7.6,7.6s-7.6-3.4-7.6-7.6s3.4-7.6,7.6-7.6
							C137.7,334.7,141.1,338.1,141.1,342.2z"/>
					</g>
					<g>
						<path class="st35" d="M134.5,347.7c-1.7,0-3.2-1.4-3.2-3.2c0-1.7,1.4-3.2,3.2-3.2c1.8,0,3.2,1.4,3.2,3.2
							C137.6,346.3,136.2,347.7,134.5,347.7z"/>
					</g>
				</g>
				<g>
					<path class="st35" d="M131.3,340.5c-1,0-1.7-0.8-1.7-1.7c0-1,0.8-1.7,1.7-1.7c1,0,1.7,0.8,1.7,1.7
						C133,339.8,132.2,340.5,131.3,340.5z"/>
				</g>
			</g>
			<path class="st22" d="M174.3,363.5c-0.5,1.5-3.6,1.8-6.9,0.7c-3.3-1.1-5.6-3.2-5.2-4.6c0.5-1.5,3.6-1.8,6.9-0.7
				C172.5,360,174.8,362,174.3,363.5z"/>
			<path class="st22" d="M135.7,354.6c-0.5,1.5-3.6,1.8-6.9,0.7c-3.3-1.1-5.6-3.2-5.2-4.6c0.5-1.5,3.6-1.8,6.9-0.7
				C133.9,351.1,136.2,353.2,135.7,354.6z"/>
			<g>
				<g>
					<g>
						<path class="st20" d="M178.5,350.8c0,4.2-3.4,7.6-7.6,7.6c-4.2,0-7.6-3.4-7.6-7.6s3.4-7.6,7.6-7.6
							C175.1,343.3,178.5,346.6,178.5,350.8z"/>
					</g>
					<g>
						<path class="st35" d="M171.8,356.3c-1.7,0-3.2-1.4-3.2-3.2c0-1.7,1.4-3.2,3.2-3.2c1.7,0,3.2,1.4,3.2,3.2
							S173.6,356.3,171.8,356.3z"/>
					</g>
				</g>
				<g>
					<path class="st35" d="M168.7,349.1c-1,0-1.7-0.8-1.7-1.7c0-1,0.8-1.7,1.7-1.7c1,0,1.7,0.8,1.7,1.7
						C170.4,348.4,169.6,349.1,168.7,349.1z"/>
				</g>
			</g>
			<path class="st20" d="M110.7,313.4c-0.7,9.6,2.2,18.7,11,24.5c0-5.5,4.7-10.1,9.9-11.7c5.2-1.6,10.9-0.7,16.2,0.5
				c9.5,2.3,18.6,6,27.2,10.5c7.2,3.8,11.9,10.6,14.9,18c1,2.4,2.2,4.4,2.5,7c0.1,0.7-0.2,8.5-1,8.2c7.8,2.7,16.8-0.8,22.4-6.8
				c5.6-6.1,8.4-14.2,10-22.3c3.9-19.8,0.9-41.9-12.5-56.9c-13.1-14.8-34.5-20.4-54.1-17.6c-10.1,1.5-20.1,5.1-28.1,11.4
				C119.9,285.7,111.7,300,110.7,313.4z"/>
			<path class="st20" d="M182.3,303.7c2,7.1,3.3,14.5,4.2,21.8c1.3,11.5,2.7,27.7-5.3,37.1c-1,1.2-2.1,2.2-2.9,3.6
				c-0.8,1.3-1.1,3-0.4,4.4c0.8,1.6,2.6,2.2,4.2,2.6c4.5,1.2,9.1,1.7,13.7,1.8c3.6,0,7.3-0.3,10.5-1.9c8.3-3.9,14-14.2,16.9-22.9
				c3.9-11.4,3.4-23.9,1.3-35.6C218.4,280.4,182.3,303.7,182.3,303.7z"/>
			<path class="st41" d="M183.5,357.3c-2.4,7.9-10,11.7-17.2,9.5s-11.4-9.5-9-17.5c2.4-7.9,9.4-9.9,16.6-7.7
				C181.2,343.9,185.9,349.4,183.5,357.3z"/>
			<path class="st41" d="M144,348.3c-2.3,7.6-9.3,11.3-16,9.3c-6.7-2-10.4-9-8.1-16.6s8.8-9.6,15.5-7.5
				C142,335.4,146.3,340.6,144,348.3z"/>
			<line class="st41" x1="144" y1="348.3" x2="156.1" y2="351.6"/>
			<path class="st33" d="M149.4,361.9c-0.2,0.8-1.7,1.2-3.3,0.7c-1.6-0.4-2.7-1.5-2.4-2.3"/>
			<path class="st26" d="M147.8,408.4l0.1,2.5l0,0C147.9,409.3,147.8,408.4,147.8,408.4z"/>
			<path class="st26" d="M148,410.9l1.7,31c0.1,0,0.2,0,0.3,0.1C149.3,429.8,148.4,416.3,148,410.9L148,410.9z"/>
			<path class="st34" d="M112.6,444c3.1,6.9,7.8,12,13,12c4.3,0,8.1-3.4,11.1-8.2L112.6,444z"/>
			<path class="st42" d="M171.2,382.1c0,3-2.4,5.3-5.3,5.3s-5.3-2.4-5.3-5.3c0-3,2.4-5.3,5.3-5.3S171.2,379.2,171.2,382.1z"/>
			<path class="st40" d="M195.5,422.1c-0.4-3.3-2.2-6.4-4.7-8.7c-3.4-3.1-7.8-4.8-12.3-5.8c-4.9-1.1-10.1-1.5-15.1-1.1
				c-3.3,0.3-12.7,0.7-14.9,3.5c-1.1,1.4-0.4,4.2-0.3,5.9c0.2,3,0.4,6,0.5,9c0.4,6,0.7,11.9,1.1,17.9c0,0.4,0.1,0.8,0.3,1
				s0.6,0.3,0.9,0.3c12.1,1.5,24.7-1.2,35.1-7.5c4.2-2.6,8.3-6.1,9.3-10.9C195.6,424.5,195.7,423.3,195.5,422.1z"/>
			<path class="st26" d="M147.8,380.6"/>
			<path class="st34" d="M145.2,400.3c1.4,5.7,10,8.6,20,7.1l-6.5-22.2C149.7,388.5,143.9,394.8,145.2,400.3z"/>
			<path class="st40" d="M142.1,426.7c0-3.6-0.6-7.2-2.3-10.3c-3.1-5.8-10-9.3-16.5-8.5c-15.8,2.1-16,21.5-15.1,33.7
				c0,0.6,0.1,1.2,0.5,1.6c0.4,0.5,1.1,0.6,1.7,0.7c9.2,1.3,18.4,2.7,27.7,4c0.3,0,0.7,0.1,1-0.1c0.2-0.2,0.3-0.5,0.4-0.8
				c0.9-4.7,1.8-9.3,2.3-14.1C142,430.8,142.1,428.7,142.1,426.7z"/>
			<polygon class="st43" points="144.5,375.1 138.1,386.1 150.8,386.1 			"/>
			<g>
				<path class="st38" d="M134.9,371.8l9.6,31.6c0.1,0.4,0.4,0.6,0.8,0.6l26.1,2c0.5,0,0.8,0.4,0.8,0.9v1.6c0,0.5-0.4,0.9-0.9,0.9
					l-71.5-1.3c-0.4,0-0.7-0.2-0.8-0.6l-12.6-32.9c-0.2-0.6,0.2-1.2,0.8-1.2l46.7-2.2C134.4,371.2,134.7,371.4,134.9,371.8z"/>
			</g>
			<g>
				<path class="st37" d="M116.2,388.8c-0.7-0.7-1.6-1-2.5-0.9l0,0h-0.1c-0.3,0-0.6,0.2-0.8,0.3c-0.7-0.4-1.4-0.4-2.1-0.2
					c-0.8,0.3-1.5,1-1.8,1.8c-0.6,1.6,0,3.4,1.3,4.3c0.4,0.3,0.9,0.4,1.4,0.4s0.9-0.1,1.3-0.4c0.6,0.3,1.3,0.4,2,0.2
					c0.8-0.2,1.4-0.7,1.8-1.5C117.4,391.6,117.2,389.8,116.2,388.8z"/>
				<path class="st37" d="M111.4,385.6c0.6,0.2,0.9,0.5,1.1,1.2c0.1,0.5,0.1,0.9,0.1,0.9c0,0.1,0.1,0.3,0.2,0.3l0,0
					c0.1,0,0.2-0.1,0.3-0.2c0,0,0.1-0.5-0.1-1.1c-0.2-0.8-0.7-1.3-1.5-1.5c-0.1,0-0.3,0-0.3,0.2
					C111.2,385.4,111.3,385.6,111.4,385.6z"/>
				<path class="st37" d="M113.5,387.7c0,0,0.1,0.1,0.2,0.1l0,0c1.4-0.2,2.4-0.5,3-1.1s0.7-1.2,0.8-1.7c0-0.1,0-0.2,0-0.2
					c0-0.1-0.1-0.1-0.2-0.1l0,0c-0.9,0-1.6,0.2-2.2,0.5c-0.5,0.2-0.9,0.6-1.2,1c-0.5,0.7-0.5,1.4-0.5,1.4
					C113.4,387.6,113.4,387.6,113.5,387.7z"/>
			</g>
			<path class="st40" d="M200.5,374.4c-0.9-1-1.9-1.8-3-2.5c-3.2-1.8-6.9-2.2-10.4-1.4c-3.5,0.8-6.8,2.6-9.7,4.8
				c-4.5,3.3-8.7,7.8-14,8.5c-0.9,0.1-1.9,0.1-2.8,0.4c-0.7,0.2-1.5,0.6-1.9,1.3c-0.6,0.9-0.1,1.9,0.1,2.8c0.5,2.3,1,4.6,1.6,6.9
				c1.1,4.6,2.4,9.1,3.7,13.6c0.3,1.1,0.7,2.3,1.6,2.9c0.7,0.5,1.6,0.5,2.4,0.3c3.2-0.4,6.1-2,9.1-3.3c6.7-2.9,14.2-4.5,19.5-9.9
				c2.7-2.8,4.7-6.4,5.9-10.2c0.8-2.4,1.3-5,1-7.5C203.3,378.7,202.1,376.3,200.5,374.4z"/>
			<path class="st42" d="M180.8,434.9c0,3-2.4,5.3-5.3,5.3c-3,0-5.3-2.4-5.3-5.3c0-3,2.4-5.3,5.3-5.3S180.8,432,180.8,434.9z"/>
			<path class="st42" d="M194.5,396.7c0,3-2.4,5.3-5.3,5.3c-3,0-5.3-2.4-5.3-5.3s2.4-5.3,5.3-5.3
				C192.2,391.4,194.5,393.8,194.5,396.7z"/>
			<path class="st42" d="M119.2,426.7c0,3-2.4,5.3-5.3,5.3c-3,0-5.3-2.4-5.3-5.3c0-3,2.4-5.3,5.3-5.3
				C116.8,421.4,119.2,423.7,119.2,426.7z"/>
			<polygon class="st43" points="181.1,409 174.8,420 187.5,420 			"/>
			<polygon class="st43" points="169.4,389.5 163,400.5 175.7,400.5 			"/>
			<polygon class="st43" points="130.1,409.1 123.8,420.1 136.5,420.1 			"/>
			
				<rect x="151" y="419.5" transform="matrix(0.7071 -0.7071 0.7071 0.7071 -254.5959 235.0176)" class="st44" width="10.7" height="10.7"/>
			<rect x="182.6" y="372.5" class="st44" width="10.7" height="10.7"/>
			
				<rect x="128.9" y="432.3" transform="matrix(0.9579 -0.2871 0.2871 0.9579 -119.9962 56.9626)" class="st44" width="10.7" height="10.7"/>
			<rect x="194.7" y="406.6" class="st44" width="10.7" height="10.7"/>
			<path class="st34" d="M133.7,428.8c0.7,6.3,7.1,11,16,13.1l-1.7-31C138.9,415.2,133,422.1,133.7,428.8z"/>
		</g>
		<g>
			<g>
				<g>
					<path class="st35" d="M217.7,347c0.2-0.1,4.3-4.1,4.3-4.1l-5.1-3.2h-0.5l0.6,7.3L217.7,347z"/>
					<polygon class="st45" points="195.8,348.8 217.1,347 216.5,339.7 195,341.9 					"/>
				</g>
				<path class="st20" d="M194.3,342.6l0.6,6.1c0,0.3,0.2,0.5,0.4,0.7s0.5,0.3,0.8,0.2l21.2-2.1c0.2,0,0.4-0.1,0.6-0.3l4-3.5
					c0.3-0.2,0.4-0.6,0.4-0.9s-0.2-0.5-0.4-0.7l-0.1-0.1l-4.6-2.6c-0.2-0.1-0.4-0.2-0.6-0.1l-21.2,2.1
					C194.7,341.5,194.3,342,194.3,342.6z M196,348.6l-0.3-2.5l20.6-2.1l0.3,2.6L196,348.6z M221.2,342.9l-0.9,0.7l-0.2-1.3
					L221.2,342.9z M219.1,341.7c0,0.1,0,0.1,0,0.2l0.3,2.3c0,0.1,0,0.2,0.1,0.2l-1.9,1.6l-0.6-5.6L219.1,341.7z M215.9,340.4
					l0.2,2.5l-20.6,2.1l-0.3-2.5L215.9,340.4z"/>
			</g>
			<path class="st34" d="M204.5,343.6c0.5,0,1,0.1,1.5,0.4c1,0.6,1.7,1.6,2.2,2.8c1,2.6,0.8,5.9-0.5,8.6c-1.3,2.8-3.6,5-6.2,5.8
				c-1.6,0.5-3.6,0.5-4.5-1c-1-1.5-0.4-3.8,0.1-5.7C198.1,351.3,200.6,343.4,204.5,343.6z"/>
		</g>
	</g>
</g>
<g>
	<path class="st21" d="M8.3,272.2l76.4-19.7c4.9-1.3,10,1.9,11.3,7.1l4.9,19.1c1.2,4.8-1.1,9.6-5.3,11.3c-0.6,0.2-0.9,1-0.8,1.6
		l2.7,10.5c0.2,0.6-0.5,1-1,0.6l-10.8-9.5c-0.3-0.3-0.8-0.4-1.2-0.3L18,310c-4.9,1.3-10-1.9-11.3-7.1l-4.9-19.1
		C0.5,278.7,3.4,273.4,8.3,272.2z"/>
	<g>
		<g>
			<path class="st35" d="M19.4,300.2c-0.2,0-0.4,0-0.5-0.1c-0.2-0.1-0.4-0.4-0.5-0.6l-4.9-19.2c-0.1-0.5,0.2-1.1,0.7-1.2l3.3-0.9
				c0.1,0,0.2,0,0.2,0c0.2,0,0.4,0,0.5,0.1c0.2,0.1,0.4,0.4,0.5,0.6l1.8,7l6.6-1.7l-1.8-7c-0.1-0.5,0.2-1.1,0.7-1.2l3.3-0.9
				c0.1,0,0.2,0,0.2,0c0.2,0,0.4,0,0.5,0.1c0.2,0.1,0.4,0.4,0.5,0.6l4.9,19.1c0.1,0.5-0.2,1.1-0.7,1.2l-3.3,0.9c-0.1,0-0.2,0-0.2,0
				c-0.2,0-0.4,0-0.5-0.1c-0.2-0.1-0.4-0.4-0.5-0.6l-1.9-7.5l-6.6,1.7l1.9,7.5c0.1,0.5-0.2,1.1-0.7,1.2l-3.3,0.9
				C19.6,300.2,19.5,300.2,19.4,300.2z"/>
			<path class="st11" d="M29.7,276.1l4.9,19.1l-3.3,0.9l-2.2-8.5l-8.5,2.2l2.2,8.5l-3.3,0.9l-5-19.1l3.3-0.9l2,8l8.5-2.2l-2-8
				L29.7,276.1 M29.7,274.1c-0.2,0-0.3,0-0.5,0.1l-3.3,0.9c-0.5,0.1-1,0.5-1.2,0.9c-0.3,0.5-0.3,1-0.2,1.5l1.6,6l-4.7,1.2l-1.6-6
				c-0.1-0.5-0.5-1-0.9-1.2c-0.3-0.2-0.7-0.3-1-0.3c-0.2,0-0.3,0-0.5,0.1l-3.3,0.9c-1.1,0.3-1.7,1.4-1.4,2.4l4.9,19.1
				c0.1,0.5,0.5,1,0.9,1.2c0.3,0.2,0.7,0.3,1,0.3c0.2,0,0.3,0,0.5-0.1l3.3-0.9c1.1-0.3,1.7-1.4,1.4-2.4l-1.7-6.5l4.7-1.2l1.7,6.5
				c0.2,0.9,1,1.5,1.9,1.5c0.2,0,0.3,0,0.5-0.1l3.3-0.9c1.1-0.3,1.7-1.4,1.4-2.4l-4.9-19.1c-0.1-0.5-0.5-1-0.9-1.2
				C30.4,274.2,30,274.1,29.7,274.1L29.7,274.1z"/>
		</g>
		<g>
			<path class="st35" d="M42.7,294.2c-0.2,0-0.4,0-0.5-0.1c-0.2-0.1-0.4-0.4-0.5-0.6l-4-15.5l-4.9,1.3c-0.1,0-0.2,0-0.2,0
				c-0.2,0-0.4,0-0.5-0.1c-0.2-0.1-0.4-0.4-0.5-0.6l-0.7-2.7c-0.1-0.5,0.2-1.1,0.7-1.2l15.2-3.9c0.1,0,0.2,0,0.3,0
				c0.4,0,0.9,0.3,1,0.8l0.7,2.7c0.1,0.3,0,0.5-0.1,0.8c-0.1,0.2-0.4,0.4-0.6,0.5l-5,1.3l4,15.5c0.1,0.5-0.2,1.1-0.7,1.2l-3.3,0.8
				C42.9,294.2,42.8,294.2,42.7,294.2z"/>
			<path class="st11" d="M47,271.7l0.7,2.7l-6,1.5l4.2,16.4l-3.3,0.8l-4.1-16.4l-5.9,1.5l-0.7-2.7L47,271.7 M47,269.7
				c-0.2,0-0.3,0-0.5,0.1l-15.2,3.9c-0.5,0.1-1,0.5-1.2,0.9c-0.3,0.5-0.3,1-0.2,1.5l0.7,2.7c0.1,0.5,0.5,1,0.9,1.2
				c0.3,0.2,0.7,0.3,1,0.3c0.2,0,0.3,0,0.5-0.1l4-1l3.7,14.5c0.1,0.5,0.5,1,0.9,1.2c0.3,0.2,0.7,0.3,1,0.3c0.2,0,0.3,0,0.5-0.1
				l3.3-0.8c1.1-0.3,1.7-1.4,1.4-2.4l-3.7-14.5l4-1c0.5-0.1,1-0.5,1.2-0.9c0.3-0.5,0.3-1,0.2-1.5l-0.7-2.7
				C48.8,270.3,47.9,269.7,47,269.7L47,269.7z"/>
		</g>
		<g>
			<path class="st35" d="M54.5,291.2c-0.2,0-0.4,0-0.5-0.1c-0.2-0.1-0.4-0.4-0.5-0.6l-4.9-19.1c-0.1-0.5,0.2-1.1,0.7-1.2l4.3-1.1
				c0.1,0,0.2,0,0.2,0c0.3,0,0.6,0.2,0.8,0.4l7.8,11.1l1.4-13.4c0-0.4,0.3-0.8,0.7-0.9l4.3-1.1c0.1,0,0.2,0,0.2,0
				c0.4,0,0.9,0.3,1,0.8l4.9,19.1c0.1,0.3,0,0.5-0.1,0.8c-0.1,0.2-0.4,0.4-0.6,0.5l-3.3,0.9c-0.1,0-0.2,0-0.3,0
				c-0.4,0-0.9-0.3-1-0.8l-1.6-6.3l-0.6-2.6l-0.9,9.8c0,0.4-0.3,0.8-0.7,0.9l-2.4,0.6c-0.1,0-0.2,0-0.2,0c-0.3,0-0.6-0.2-0.8-0.4
				l-5.9-8.3l0.8,2.5l1.6,6.3c0.1,0.5-0.2,1.1-0.7,1.2l-3.3,0.9C54.6,291.1,54.6,291.2,54.5,291.2z"/>
			<path class="st11" d="M69.2,266l4.9,19.1l-3.3,0.9l-1.6-6.3l-1.8-8.5l-1.9,16.1l-2.4,0.6l-9.4-13.3l2.5,8.3l1.6,6.3l-3.3,0.9
				L49.6,271l4.3-1.1l9.3,13.2l1.7-16.1L69.2,266 M69.2,264c-0.2,0-0.3,0-0.5,0.1l-4.3,1.1c-0.8,0.2-1.4,0.9-1.5,1.7l-1.2,10.8
				l-6.2-8.9c-0.4-0.5-1-0.9-1.6-0.9c-0.2,0-0.3,0-0.5,0.1l-4.3,1.1c-1.1,0.3-1.7,1.4-1.4,2.4l4.9,19.1c0.1,0.5,0.5,1,0.9,1.2
				c0.3,0.2,0.7,0.3,1,0.3c0.2,0,0.3,0,0.5-0.1l3.3-0.9c1.1-0.3,1.7-1.4,1.4-2.4l-0.9-3.4l2.6,3.7c0.4,0.5,1,0.8,1.6,0.8
				c0.2,0,0.3,0,0.5-0.1l2.4-0.6c0.8-0.2,1.4-0.9,1.5-1.7l0.5-4.5l0.9,3.4c0.1,0.5,0.5,1,0.9,1.2c0.3,0.2,0.7,0.3,1,0.3
				c0.2,0,0.3,0,0.5-0.1l3.3-0.9c1.1-0.3,1.7-1.4,1.4-2.4L71,265.3C70.9,264.6,70.1,264,69.2,264L69.2,264z"/>
		</g>
		<g>
			<path class="st35" d="M78,285.1c-0.2,0-0.4,0-0.5-0.1c-0.2-0.1-0.4-0.4-0.5-0.6l-4.9-19.1c-0.1-0.3,0-0.5,0.1-0.8
				c0.1-0.2,0.4-0.4,0.6-0.5l3.3-0.9c0.1,0,0.2,0,0.3,0c0.4,0,0.9,0.3,1,0.8l4,15.5l7.7-2c0.1,0,0.2,0,0.2,0c0.2,0,0.4,0,0.5,0.1
				c0.2,0.1,0.4,0.4,0.5,0.6l0.7,2.7c0.1,0.5-0.2,1.1-0.7,1.2l-12,3.1C78.2,285.1,78.1,285.1,78,285.1z"/>
			<path class="st11" d="M76.4,264.1l4.2,16.5l8.7-2.2l0.7,2.7l-12,3.1L73.1,265L76.4,264.1 M76.4,262.1c-0.2,0-0.3,0-0.5,0.1
				l-3.3,0.9c-0.5,0.1-1,0.5-1.2,0.9c-0.3,0.5-0.3,1-0.2,1.5l4.9,19.1c0.2,0.9,1,1.5,1.9,1.5c0.2,0,0.3,0,0.5-0.1l12-3.1
				c1.1-0.3,1.7-1.4,1.4-2.4l-0.7-2.7c-0.1-0.5-0.5-1-0.9-1.2c-0.3-0.2-0.7-0.3-1-0.3c-0.2,0-0.3,0-0.5,0.1l-6.7,1.7l-3.7-14.5
				C78.1,262.7,77.3,262.1,76.4,262.1L76.4,262.1z"/>
		</g>
	</g>
</g>
<g>
	<path class="st21" d="M112,201.8h48c3.1,0,5.6,4.3,5.6,9.7v19.8c0,4.9-2.1,9-4.9,9.6c-0.4,0.1-0.7,0.7-0.7,1.4v10.8
		c0,0.6-0.5,0.9-0.7,0.4l-4.9-11.9c-0.2-0.4-0.4-0.6-0.7-0.6H112c-3.1,0-5.6-4.4-5.6-9.7v-19.8C106.4,206.1,108.9,201.8,112,201.8z"
		/>
	<g>
		<g>
			<path class="st35" d="M126.3,232.5c-2.4,0-4.3-0.6-5.6-1.9c-1.4-1.3-2.1-3-2.1-5.2c0-0.6,0.4-1,1-1h3.6c0.6,0,1,0.4,1,1
				c0,0.8,0.2,1.4,0.5,1.8c0.3,0.4,0.9,0.5,1.6,0.5s1.2-0.2,1.5-0.6c0.4-0.4,0.6-1.1,0.6-2v-14.4c0-0.6,0.4-1,1-1h3.6
				c0.6,0,1,0.4,1,1v14.4c0,2.2-0.7,4.1-2.2,5.4C130.5,231.8,128.6,232.5,126.3,232.5z"/>
			<path class="st11" d="M133,210.7v14.4c0,2-0.6,3.5-1.8,4.7c-1.2,1.2-2.8,1.7-4.9,1.7c-2.1,0-3.8-0.5-5-1.6s-1.7-2.6-1.7-4.5h3.6
				c0,1.1,0.3,1.9,0.8,2.5c0.5,0.5,1.3,0.8,2.3,0.8s1.7-0.3,2.3-1c0.6-0.6,0.9-1.5,0.9-2.6v-14.4L133,210.7 M133,208.7h-3.5
				c-1.1,0-2,0.9-2,2v14.4c0,0.6-0.1,1-0.3,1.3c-0.1,0.1-0.3,0.3-0.8,0.3c-0.3,0-0.7,0-0.9-0.2c-0.1-0.2-0.2-0.5-0.2-1.1
				c0-1.1-0.9-2-2-2h-3.6c-1.1,0-2,0.9-2,2c0,2.5,0.8,4.5,2.4,6c1.5,1.4,3.7,2.2,6.3,2.2c2.5,0,4.6-0.8,6.2-2.3
				c1.6-1.5,2.5-3.6,2.5-6.1v-14.4C135,209.6,134.1,208.7,133,208.7L133,208.7z"/>
		</g>
		<g>
			<path class="st35" d="M144.1,232.5c-1.6,0-3.1-0.3-4.5-0.9c-1.4-0.6-2.5-1.5-3.3-2.6s-1.2-2.5-1.2-4c0-0.6,0.4-1,1-1h3.6
				c0.6,0,1,0.4,1,1c0,0.9,0.3,1.5,0.8,1.9c0.6,0.5,1.5,0.7,2.7,0.7c1,0,1.7-0.2,2.2-0.5c0.4-0.3,0.6-0.7,0.6-1.2
				c0-0.8-0.3-1.1-0.6-1.3c-0.4-0.3-1.2-0.7-3.1-1.3c-1.8-0.5-3.1-1.1-4.2-1.8c-2.2-1.4-3.3-3.2-3.3-5.4c0-2,0.8-3.6,2.4-4.9
				c1.5-1.2,3.5-1.8,5.9-1.8c1.6,0,3,0.3,4.2,0.9c1.3,0.6,2.3,1.5,3,2.6s1.1,2.4,1.1,3.8c0,0.6-0.4,1-1,1h-3.6c-0.6,0-1-0.4-1-1
				c0-0.8-0.2-1.4-0.7-1.8c-0.5-0.4-1.2-0.7-2.2-0.7c-0.9,0-1.6,0.2-2.1,0.5c-0.4,0.3-0.6,0.7-0.6,1.3c0,0.3,0.1,0.7,0.6,1.1
				c0.4,0.3,1.3,0.8,3.1,1.3c1.7,0.5,3.1,1.1,4.1,1.7c1.1,0.7,1.9,1.5,2.5,2.4c0.5,0.9,0.8,2,0.8,3.3c0,2-0.8,3.7-2.4,4.9
				C148.6,231.9,146.6,232.5,144.1,232.5z"/>
			<path class="st11" d="M144,210.4c1.4,0,2.7,0.3,3.8,0.8s2,1.3,2.6,2.3s1,2.1,1,3.2h-3.6c0-1.1-0.3-1.9-1-2.5s-1.6-0.9-2.9-0.9
				c-1.2,0-2.1,0.2-2.7,0.7c-0.6,0.5-1,1.2-1,2.1c0,0.8,0.3,1.4,1,1.9s1.8,1,3.4,1.5c1.6,0.5,2.9,1,3.9,1.6s1.7,1.3,2.1,2.1
				c0.5,0.8,0.7,1.7,0.7,2.8c0,1.7-0.7,3.1-2,4.1s-3.1,1.5-5.3,1.5c-1.5,0-2.9-0.3-4.1-0.8c-1.2-0.6-2.2-1.3-2.9-2.3
				c-0.7-1-1-2.1-1-3.4h3.6c0,1.2,0.4,2.1,1.2,2.7c0.8,0.6,1.9,1,3.3,1c1.2,0,2.2-0.3,2.8-0.8s0.9-1.2,0.9-2c0-0.9-0.3-1.6-1-2.1
				c-0.6-0.5-1.8-1-3.4-1.5c-1.7-0.5-3-1.1-3.9-1.7c-1.9-1.2-2.8-2.7-2.8-4.6c0-1.7,0.7-3,2-4.1C140.1,210.9,141.8,210.4,144,210.4
				 M144,208.4c-2.6,0-4.8,0.7-6.5,2c-1.8,1.4-2.8,3.4-2.8,5.7c0,1.8,0.6,4.3,3.7,6.3c0.3,0.2,0.7,0.4,1.1,0.6H136c-1.1,0-2,0.9-2,2
				c0,1.7,0.5,3.2,1.4,4.5c0.9,1.3,2.2,2.3,3.7,2.9c1.5,0.7,3.1,1,4.9,1c2.7,0,4.9-0.6,6.6-1.9c1.8-1.4,2.7-3.3,2.7-5.7
				c0-1.4-0.3-2.7-0.9-3.8c-0.6-1.1-1.6-2-2.8-2.8c-0.4-0.2-0.8-0.5-1.3-0.7h3c1.1,0,2-0.9,2-2c0-1.6-0.4-3-1.3-4.3
				c-0.8-1.3-2-2.3-3.5-3C147.3,208.7,145.7,208.4,144,208.4L144,208.4z M146.2,217.8c-0.3-0.1-0.6-0.2-0.9-0.3
				c-1.8-0.5-2.6-1-2.8-1.2s-0.2-0.2-0.2-0.3c0-0.4,0.1-0.4,0.2-0.5c0.3-0.2,0.8-0.3,1.5-0.3c0.5,0,1.2,0.1,1.5,0.4
				c0.1,0.1,0.3,0.3,0.3,1C145.9,217.1,146,217.5,146.2,217.8L146.2,217.8z M144.1,226.7c-0.9,0-1.6-0.2-2-0.5
				c-0.2-0.2-0.4-0.5-0.4-1.2c0-0.5-0.2-1-0.5-1.3c0.5,0.2,1.1,0.4,1.7,0.6c1.9,0.6,2.6,1,2.8,1.2c0.1,0.1,0.2,0.1,0.2,0.5
				c0,0.2-0.1,0.3-0.2,0.4C145.6,226.4,145.2,226.7,144.1,226.7L144.1,226.7z"/>
		</g>
	</g>
</g>
<g>
	<path class="st21" d="M564.5,272.4l-47.1-8.9c-3-0.6-6.3,3.2-7.3,8.5l-3.7,19.4c-0.9,4.9,0.4,9.3,3,10.4c0.4,0.2,0.6,0.8,0.4,1.5
		l-2,10.6c-0.1,0.6,0.3,1,0.6,0.5l7-10.8c0.2-0.3,0.5-0.5,0.8-0.5l41,7.8c3,0.6,6.3-3.2,7.3-8.5l3.7-19.4
		C569.2,277.7,567.6,272.9,564.5,272.4z"/>
	<g>
		<path class="st32" d="M538.8,277.3c-1.3-1.6-3.5-2.6-6.7-3.2s-5.5-0.8-7.2-0.9l-4.3,22.9l5.2,1l1.6-8.3c0.4,0.2,1,0.3,1.7,0.5
			c3.2,0.6,5.9,0.3,8-1.1c1.7-1,2.7-2.8,3.2-5.1C540.7,280.9,540.2,278.8,538.8,277.3z M529.9,285.2c-0.8-0.2-1.3-0.2-1.8-0.5
			l1.3-6.9c0.4-0.1,1.1,0,2.2,0.2c2.6,0.5,3.8,1.9,3.5,4.2C534.6,284.7,532.7,285.8,529.9,285.2z"/>
		<path class="st32" d="M547.5,290.6c-2-1.1-2.5-1.6-2.4-2.4c0.2-1,1-1.3,2.3-1c1.4,0.3,2.8,1.2,3.5,1.6l1.6-3.5
			c-1-0.7-2.5-1.5-4.5-1.8c-4.1-0.8-7.3,1.1-7.9,4.2c-0.5,2,0.6,4.2,3.8,6c1.9,1,2.3,1.5,2.1,2.4c-0.2,0.8-1,1.3-2.5,1
			s-3.4-1.4-4.3-2l-1.7,3.6c1.2,1,3,1.8,5.2,2.2c4.8,0.9,7.8-0.9,8.4-4.1C551.4,294.2,550.5,292.3,547.5,290.6z"/>
	</g>
</g>
<g>
	<path class="st21" d="M494.9,200.2l-47.6,6.4c-3,0.4-4.9,5.1-4.2,10.4l2.6,19.6c0.7,4.9,3.3,8.7,6.1,8.9c0.4,0,0.8,0.6,0.9,1.3
		l1.4,10.7c0.1,0.6,0.6,0.8,0.7,0.3l3.3-12.5c0.1-0.4,0.3-0.6,0.6-0.7l41.4-5.6c3-0.4,4.9-5.1,4.2-10.4l-2.6-19.6
		C501,203.8,498,199.8,494.9,200.2z"/>
	<g>
		<path class="st32" d="M484.7,214.1c1.9-0.3,2.8-1.7,2.5-3.2c-0.2-1.7-1.5-2.6-3.3-2.4c-1.8,0.2-2.7,1.5-2.5,3.2
			C481.6,213.2,482.9,214.3,484.7,214.1z"/>
		<path class="st32" d="M464.7,212.2l-4.1,25.4l5.7-0.8l0.9-6.5l6.9-0.9l2.7,6l5.9-0.8l-10.8-23.4L464.7,212.2z M467.3,226.1
			c0,0,1.1-8.7,1.3-10.3c0.4,1.4,4,9.6,4.1,9.5L467.3,226.1z"/>
		
			<rect x="483.5" y="216.3" transform="matrix(0.9911 -0.1332 0.1332 0.9911 -25.6645 66.7725)" class="st32" width="5.5" height="17.8"/>
	</g>
</g>
<g>
	<path class="st18" d="M298.2,424.7c-0.1-0.6-0.1-1.2,0.1-1.8c0.5-2,1.1-5.8-0.2-10c-2.2-6.9-11.1-13-11.1-13s2.4,10.1,4.4,14.5
		c1.5,3.2,4,6.8,5.4,8.6c0.4,0.5,0.7,1.1,0.8,1.8c1.4,8,1.2,14.1,1.2,14.2h0.7C299.4,439,299.7,432.7,298.2,424.7z"/>
	<path class="st21" d="M305.3,418.2c1.8-5.6,2.6-12.2,2.6-12.2s-8,6.6-8.6,11.7c-0.4,3.1,0.1,5.6,0.5,7.1c0.2,0.6,0.3,1.3,0.2,1.9
		c-0.8,7.5-0.2,13.3-0.2,13.4l0.6-0.1c0-0.1-0.6-5.4,0.1-12.5c0.1-1,0.5-1.9,1.1-2.6C302.8,423.5,304.4,421.1,305.3,418.2z"/>
	<path class="st18" d="M313.4,405.8c0,0-8.6,3.2-10.9,10.2c-1.4,4.3-0.7,8.2-0.2,10.3c0.2,0.6,0.1,1.2,0,1.8c-2,8.1-2,16.5-2,16.6
		h0.7c0-0.1,0-8.3,2-16.2c0.2-0.8,0.5-1.5,1-2.2c1.5-2,4-5.5,5.4-8.7C311.5,413.1,313.4,405.8,313.4,405.8z"/>
	<path class="st21" d="M298.2,435.4c-0.2-2.9-1-5.6-2-7.8c-0.2-0.4-0.3-0.9-0.2-1.4c0.1-0.9,0.2-2.4-0.2-4.2
		c-0.7-3.5-5.3-10.9-11.9-11.3c0,0,2.3,3.7,3.5,6.8c1.5,3.9,3.6,8,7.1,9.5c0.6,0.3,1.1,0.8,1.4,1.4c0.9,2.1,1.5,4.5,1.7,7.1
		L298.2,435.4z"/>
	<g>
		<g>
			<path class="st18" d="M293.8,450.5h10.9l2.8-17.4c0.1-0.8-0.5-1.5-1.2-1.5h-14.1c-0.8,0-1.4,0.7-1.2,1.5L293.8,450.5z"/>
		</g>
	</g>
</g>
</svg>
