<svg width="40" height="39" viewBox="0 0 40 39" fill="none" xmlns="http://www.w3.org/2000/svg">
<path d="M20 1.28985C30.2667 1.28985 38.6667 9.41594 38.6667 19.3478C38.6667 29.2797 30.2667 37.4058 20 37.4058C9.73333 37.4058 1.33333 29.2797 1.33333 19.3478C1.33333 9.41594 9.73333 1.28985 20 1.28985ZM20 0C8.93333 0 0 8.64202 0 19.3478C0 30.0536 8.93333 38.6956 20 38.6956C31.0667 38.6956 40 30.0536 40 19.3478C40 8.64202 31.0667 0 20 0Z" fill="#233741"/>
<path fill-rule="evenodd" clip-rule="evenodd" d="M28 8.90002C22.6667 8.90002 17.3333 8.90002 12.1334 8.90002C10.2667 8.90002 9.20004 9.80292 9.20004 11.7377C9.20004 14.3174 9.20004 16.7681 9.20004 19.3479C9.20004 21.9276 9.20004 24.5073 9.20004 27.087C9.20004 28.8928 10.2667 29.7957 12 29.7957C17.3333 29.7957 22.6667 29.7957 28 29.7957C29.8666 29.7957 30.8 28.7638 30.8 27.087C30.8 21.9276 30.8 16.8971 30.8 11.7377C30.8 9.93191 29.8666 8.90002 28 8.90002ZM26.2667 11.2218C28.4 11.2218 28.4 11.2218 28.4 13.2855C28.4 15.3493 28.4 15.3493 26.2667 15.3493C24.1333 15.3493 24.1333 15.3493 24.1333 13.2855C24.1333 11.2218 24.1333 11.2218 26.2667 11.2218ZM20 15.3493C22.2667 15.3493 24.1333 17.2841 24.1333 19.3479C24.1333 21.5406 22.1333 23.4754 19.8667 23.3464C17.6 23.3464 15.7333 21.4116 15.7333 19.2189C15.8667 17.1551 17.7333 15.3493 20 15.3493ZM28.4 26.1841C28.4 27.216 28.1333 27.474 27.0666 27.474C24.6667 27.474 22.4 27.474 20 27.474C17.6 27.474 15.3333 27.474 12.9334 27.474C12 27.474 11.6 27.216 11.6 26.1841C11.6 23.7334 11.6 21.1537 11.6 18.5739C11.6 17.8 11.8667 17.671 12.5334 17.671C13.4667 17.671 13.6 17.671 13.4667 18.5739C13.0667 21.7986 15.3333 24.8942 18.6667 25.5392C22 26.1841 25.4667 24.2493 26.4 21.0247C26.6666 19.9928 26.8 18.9609 26.5333 18.058C26.4 17.671 26.5333 17.671 26.9333 17.671C28.4 17.5421 28.4 17.5421 28.4 19.0899C28.4 21.4116 28.4 23.8624 28.4 26.1841Z" fill="#233741"/>
</svg>
