<svg width="40" height="40" viewBox="0 0 40 40" fill="none" xmlns="http://www.w3.org/2000/svg">
<g clip-path="url(#clip0)">
<path d="M20 1.33333C30.2667 1.33333 38.6667 9.73333 38.6667 20C38.6667 30.2667 30.2667 38.6667 20 38.6667C9.73333 38.6667 1.33333 30.2667 1.33333 20C1.33333 9.73333 9.73333 1.33333 20 1.33333ZM20 0C8.93333 0 0 8.93333 0 20C0 31.0667 8.93333 40 20 40C31.0667 40 40 31.0667 40 20C40 8.93333 31.0667 0 20 0Z" fill="#233741"/>
<path fill-rule="evenodd" clip-rule="evenodd" d="M21.8667 30.7999C21.2 30.9333 20.6667 30.9333 20.2667 30.9333C17.8667 30.9333 16 30.3999 14.2667 29.3333C14 29.1999 13.8667 29.1999 13.6 29.1999C12.4 29.4666 11.2 29.8666 9.99999 30.1333C9.73333 30.2666 9.73333 30.1333 9.73333 29.8666C9.99999 28.7999 10.4 27.5999 10.6667 26.5333C10.8 26.2666 10.6667 25.9999 10.5333 25.7333C8.13333 21.8666 8.26666 16.9333 10.9333 13.3333C13.7333 9.59992 17.6 7.99992 22.1333 9.06659C26.6667 9.99992 29.6 12.9333 30.5333 17.4666C32.2667 23.7333 28.1333 29.7333 21.8667 30.7999Z" fill="#233741"/>
<path fill-rule="evenodd" clip-rule="evenodd" d="M23.4667 26.2666C23.0667 26.2666 22.5333 26.2666 22.1333 26.1332C19.0667 25.1999 16.8 23.3332 14.9333 20.7999C14.2667 19.8666 13.6 18.7999 13.3333 17.7332C13.0667 16.3999 13.4667 15.0666 14.5333 14.1332C14.9333 13.8666 15.8667 13.5999 16.2667 13.8666C16.4 13.9999 16.5333 14.1332 16.5333 14.2666C16.9333 15.1999 17.3333 16.1332 17.7333 16.9332C17.7333 17.0666 17.7333 17.3332 17.7333 17.4666C17.4667 17.8666 17.2 18.2666 16.9333 18.5332C16.6667 18.7999 16.6667 19.0666 16.8 19.3332C17.8667 21.1999 19.3333 22.3999 21.3333 23.1999C21.6 23.3332 21.8667 23.3332 22 23.0666C22.4 22.6666 22.6667 22.2666 22.9333 21.8666C23.0667 21.5999 23.3333 21.5999 23.7333 21.7332C24.4 21.9999 25.0667 22.3999 25.6 22.6666C25.7333 22.7999 25.8667 22.7999 26 22.9332C26.6667 23.3332 26.6667 23.3332 26.5333 23.9999C26.4 25.3332 25.3333 26.1332 24.1333 26.3999C24 26.2666 23.7333 26.2666 23.4667 26.2666Z" fill="white"/>
</g>
<defs>
<clipPath id="clip0">
<rect width="40" height="40" fill="white"/>
</clipPath>
</defs>
</svg>
