<svg width="120" height="23" viewBox="0 0 120 23" fill="none" xmlns="http://www.w3.org/2000/svg">
<path d="M13.2736 19.7169C13.2736 20.3028 12.9455 20.5957 12.2894 20.5957C11.8604 20.5957 11.5576 20.376 11.4314 19.961L9.74067 15.103H3.50765L1.84215 19.961C1.69074 20.376 1.41315 20.5957 0.984161 20.5957C0.328054 20.5957 0 20.3028 0 19.7169C0 19.6192 0.0252347 19.4972 0.0757045 19.3751L5.70309 3.04339C5.87973 2.53074 6.20779 2.26221 6.66201 2.26221C7.11624 2.26221 7.41906 2.50633 7.62094 3.04339L13.2483 19.3751C13.2483 19.4972 13.2736 19.5948 13.2736 19.7169ZM9.1098 13.2721L6.63678 6.0705L4.16376 13.2721H9.1098Z" fill="white"/>
<path d="M38.0542 19.6678C38.0542 20.2781 37.7261 20.5955 37.0953 20.5955C36.4644 20.5955 36.1364 20.2781 36.1364 19.6678V13.2721C36.1364 12.2712 35.7578 11.3924 35.026 10.6845C34.2942 9.97656 33.3858 9.61039 32.3511 9.61039C31.3165 9.61039 30.4081 9.97656 29.6762 10.6845C28.9444 11.3924 28.5659 12.2712 28.5659 13.2721V19.6922C28.5659 20.3025 28.2379 20.6199 27.607 20.6199C26.9761 20.6199 26.6481 20.3025 26.6481 19.6922V8.70717C26.6481 8.09689 26.9761 7.77954 27.607 7.77954C28.2379 7.77954 28.5659 8.24336 28.5659 9.19539C29.651 8.26777 30.9128 7.77954 32.3511 7.77954C33.9157 7.77954 35.2531 8.31659 36.3635 9.39069C37.4738 10.4648 38.029 11.7586 38.029 13.2721V19.6678H38.0542Z" fill="white"/>
<path d="M63.491 19.6678C63.491 20.2781 63.1629 20.5955 62.532 20.5955C61.9012 20.5955 61.5731 20.2781 61.5731 19.6678V13.2721C61.5731 12.2712 61.1946 11.3924 60.4628 10.6845C59.731 9.97656 58.8225 9.61039 57.7879 9.61039C56.7533 9.61039 55.8448 9.97656 55.113 10.6845C54.3812 11.3924 54.0027 12.2712 54.0027 13.2721V19.6922C54.0027 20.3025 53.6746 20.6199 53.0438 20.6199C52.4129 20.6199 52.0848 20.3025 52.0848 19.6922V8.70717C52.0848 8.09689 52.4129 7.77954 53.0438 7.77954C53.6746 7.77954 54.0027 8.24336 54.0027 9.19539C55.0878 8.26777 56.3495 7.77954 57.7879 7.77954C59.3525 7.77954 60.6899 8.31659 61.8002 9.39069C62.9106 10.4648 63.4657 11.7586 63.4657 13.2721V19.6678H63.491Z" fill="white"/>
<path d="M85.8491 19.6915C85.8491 20.3018 85.5211 20.6191 84.8902 20.6191H81.105C80.4741 20.6191 80.146 20.3018 80.146 19.6915V9.60942H77.2945C76.6636 9.60942 76.3356 9.29207 76.3356 8.68178C76.3356 8.07148 76.6636 7.75413 77.2945 7.75413H81.0797C81.7106 7.75413 82.0134 8.07148 82.0134 8.68178V18.7638H84.865C85.5463 18.7638 85.8491 19.0812 85.8491 19.6915ZM82.5686 3.67736C82.5686 4.06795 82.4172 4.3853 82.1396 4.65383C81.862 4.92236 81.5087 5.04442 81.1302 5.04442C80.7264 5.04442 80.3984 4.92236 80.1208 4.65383C79.8432 4.3853 79.6918 4.06795 79.6918 3.67736C79.6918 3.28677 79.8432 2.96942 80.1208 2.70089C80.3984 2.43236 80.7517 2.28589 81.1302 2.28589C81.534 2.28589 81.862 2.43236 82.1396 2.70089C82.4172 2.94501 82.5686 3.28677 82.5686 3.67736Z" fill="white"/>
<path d="M101.293 21.2551C101.293 21.2551 110.352 17.935 116.005 21.2551L118.402 19.3021L117.216 10.9529L114.465 7.41309H101.293L99.6021 12.5642C99.6021 12.5398 98.5927 20.4495 101.293 21.2551Z" fill="#233741"/>
<path d="M116.838 13.9315C116.838 18.7407 113.254 21.719 108.838 21.719C104.422 21.719 100.839 18.7407 100.839 13.9315C100.839 9.12222 104.422 4.26416 108.838 4.26416C113.254 4.26416 116.838 9.09781 116.838 13.9315Z" fill="white"/>
<path d="M108.838 22.0605C103.917 22.0605 100.46 18.7161 100.46 13.9069C100.46 9.17096 104.043 3.87354 108.838 3.87354C113.633 3.87354 117.216 9.17096 117.216 13.9069C117.216 18.7161 113.759 22.0605 108.838 22.0605ZM108.838 4.6059C104.472 4.6059 101.217 9.51273 101.217 13.9069C101.217 18.2767 104.346 21.3282 108.838 21.3282C113.33 21.3282 116.459 18.2767 116.459 13.9069C116.459 9.53714 113.204 4.6059 108.838 4.6059Z" fill="#233741"/>
<path d="M104.447 13.5649C105.033 13.5649 105.507 13.1059 105.507 12.5397C105.507 11.9734 105.033 11.5144 104.447 11.5144C103.862 11.5144 103.387 11.9734 103.387 12.5397C103.387 13.1059 103.862 13.5649 104.447 13.5649Z" fill="#233741"/>
<path d="M113.431 13.5652C114.016 13.5652 114.491 13.1061 114.491 12.5398C114.491 11.9735 114.016 11.5144 113.431 11.5144C112.846 11.5144 112.371 11.9735 112.371 12.5398C112.371 13.1061 112.846 13.5652 113.431 13.5652Z" fill="#233741"/>
<path d="M106.037 16.1282C106.037 17.5441 107.299 18.6914 108.838 18.6914C110.377 18.6914 111.639 17.5441 111.639 16.1282H106.037Z" fill="#233741"/>
<path d="M108.636 0.626703C96.0944 0.162872 97.3056 15.982 97.3056 15.982C97.4066 21.8165 101.268 21.2794 101.268 21.2794C98.744 17.3002 102.176 10.1963 102.176 10.1963C102.176 10.1963 111.16 10.1963 115.525 10.1963C115.525 10.1963 118.553 17.3002 116.005 21.2794C116.005 21.2794 119.866 21.8409 119.967 15.982C119.967 15.982 121.203 0.162872 108.636 0.626703Z" fill="white"/>
</svg>
