<?xml version="1.0" encoding="utf-8"?>
<!-- Generator: Adobe Illustrator 23.0.1, SVG Export Plug-In . SVG Version: 6.00 Build 0)  -->
<svg version="1.1" id="レイヤー_1" xmlns="http://www.w3.org/2000/svg" xmlns:xlink="http://www.w3.org/1999/xlink" x="0px"
	 y="0px" viewBox="0 0 40 40" style="enable-background:new 0 0 40 40;" xml:space="preserve">
<style type="text/css">
	.st0{fill:#FFFFFF;}
	.st1{fill:#233741;}
</style>
<g>
	<circle class="st0" cx="20" cy="20" r="20"/>
	<path class="st1" d="M20,1.3c10.3,0,18.7,8.4,18.7,18.7S30.3,38.7,20,38.7S1.3,30.3,1.3,20S9.7,1.3,20,1.3 M20,0C8.9,0,0,8.9,0,20
		s8.9,20,20,20s20-8.9,20-20S31.1,0,20,0L20,0z"/>
</g>
<g>
	<g>
		<path class="st0" d="M20.3,25.4c-3,0-6.1-0.2-9.2-0.5V9c0-0.4,0.3-0.8,0.8-0.8h12c0.2,0,0.4,0.1,0.5,0.2l4.5,4.5
			c0.1,0.1,0.2,0.3,0.2,0.6v11.4C26.2,25.3,23.2,25.4,20.3,25.4L20.3,25.4z"/>
		<path class="st1" d="M23.8,8.8c0.1,0,0.1,0,0.2,0.1l4.5,4.5c0.1,0.1,0.1,0.1,0.1,0.2v11c-2.7,0.3-5.5,0.5-8.3,0.5
			s-5.7-0.2-8.7-0.5V20V9c0-0.2,0.1-0.3,0.3-0.3h11.9 M23.8,7.8c0,0-12,0-12,0c-0.7,0-1.3,0.6-1.3,1.3V20v5.5
			c3.2,0.4,6.5,0.6,9.7,0.6c3.1,0,6.3-0.2,9.3-0.6c0,0,0-0.6,0-0.6c0-1,0-2,0-3c0-1.3,0-2.7,0-4c0-1.1,0-2.2,0-3.3
			c0-0.5,0.1-1.1-0.1-1.6c-0.2-0.4-0.6-0.8-0.9-1.1c-0.5-0.5-1-1-1.5-1.5c-0.5-0.5-1-1-1.5-1.5C24.9,8.4,24.5,7.8,23.8,7.8z"/>
	</g>
	<path class="st1" d="M10.5,24.6v3.2V31c0,0.7,0.6,1.3,1.3,1.3h16.4c0.7,0,1.3-0.6,1.3-1.3v-6.4H10.5z"/>
	<g>
		<path class="st0" d="M25,12.9c-0.4,0-0.7-0.3-0.7-0.7V8.7l4.2,4.2H25z"/>
		<path class="st1" d="M24.8,10l2.4,2.4H25c-0.1,0-0.2-0.1-0.2-0.2L24.8,10 M23.8,7.9v4.3c0,0.7,0.5,1.2,1.2,1.2h4.3
			c0-0.3-0.2-0.5-0.4-0.7l-4.5-4.5C24.3,8,24,7.9,23.8,7.9L23.8,7.9z"/>
	</g>
	<g>
		<path class="st0" d="M17,26.2h-1.2c-0.2,0-0.4,0.2-0.4,0.4v2.3v1.6c0,0.2,0.2,0.4,0.4,0.4s0.4-0.2,0.4-0.4v-1.2H17
			c0.6,0,1.1-0.5,1.1-1.1v-0.7C18.1,26.7,17.6,26.2,17,26.2z M17.4,28c0,0.2-0.2,0.4-0.4,0.4h-0.9v-1.6H17c0.2,0,0.4,0.2,0.4,0.4V28
			z"/>
		<path class="st0" d="M20.4,30.7h-1.1c-0.2,0-0.4-0.2-0.4-0.4v-3.8c0-0.2,0.2-0.4,0.4-0.4h1.1c0.7,0,1.2,0.6,1.2,1.2v2.1
			C21.6,30.1,21.1,30.7,20.4,30.7z M19.6,30h0.8c0.3,0,0.5-0.2,0.5-0.5v-2.1c0-0.3-0.2-0.5-0.5-0.5h-0.8V30z"/>
		<path class="st0" d="M24.9,26.2h-2c-0.2,0-0.4,0.2-0.4,0.4v3.8c0,0.2,0.2,0.4,0.4,0.4s0.4-0.2,0.4-0.4v-1.6h1
			c0.2,0,0.4-0.2,0.4-0.4c0-0.2-0.2-0.4-0.4-0.4h-1v-1.2H25c0.2,0,0.4-0.2,0.4-0.4C25.2,26.3,25.1,26.2,24.9,26.2z"/>
	</g>
	<path class="st1" d="M23.7,18.4c0-0.1-0.1-0.2-0.3-0.2H22V15c0-0.2-0.1-0.3-0.3-0.3h-3.6c-0.2,0-0.3,0.1-0.3,0.3v3.3h-1.4
		c-0.1,0-0.2,0.1-0.3,0.2c0,0.1,0,0.2,0.1,0.3l3.4,3.4c0.1,0.1,0.1,0.1,0.2,0.1s0.1,0,0.2-0.1l3.4-3.4
		C23.7,18.7,23.7,18.5,23.7,18.4z"/>
</g>
</svg>
