<?xml version="1.0"?>
<!--Icons from directory ""-->
<svg xmlns="http://www.w3.org/2000/svg" width="90" height="225" viewBox="0 0 90 225"><svg width="40" height="39" fill="none" id="annie_aside_insta" y="0"><path d="M20 1.29c10.267 0 18.667 8.126 18.667 18.058S30.267 37.406 20 37.406c-10.267 0-18.667-8.126-18.667-18.058S9.733 1.29 20 1.29zM20 0C8.933 0 0 8.642 0 19.348s8.933 19.348 20 19.348 20-8.642 20-19.348S31.067 0 20 0z" fill="#233741"/><path fill-rule="evenodd" clip-rule="evenodd" d="M28 8.9H12.133c-1.866 0-2.933.903-2.933 2.838v15.349c0 1.806 1.067 2.709 2.8 2.709h16c1.867 0 2.8-1.032 2.8-2.709v-15.35c0-1.805-.933-2.837-2.8-2.837zm-1.733 2.322c2.133 0 2.133 0 2.133 2.064 0 2.063 0 2.063-2.133 2.063-2.134 0-2.134 0-2.134-2.063 0-2.064 0-2.064 2.134-2.064zM20 15.349c2.267 0 4.133 1.935 4.133 3.999 0 2.193-2 4.127-4.266 3.998-2.267 0-4.134-1.934-4.134-4.127.134-2.064 2-3.87 4.267-3.87zm8.4 10.835c0 1.032-.267 1.29-1.333 1.29H12.933c-.933 0-1.333-.258-1.333-1.29v-7.61c0-.774.267-.903.933-.903.934 0 1.067 0 .934.903-.4 3.225 1.866 6.32 5.2 6.965 3.333.645 6.8-1.29 7.733-4.514.267-1.032.4-2.064.133-2.967-.133-.387 0-.387.4-.387 1.467-.129 1.467-.129 1.467 1.419v7.094z" fill="#233741"/></svg><svg width="90" height="106" fill="none" id="annie_aside_logo" y="39"><g clip-path="url(#annie_aside_logo-clip0)"><path d="M19.622 99.772s33.761-12.907 55.807.137L85.5 92.325 80.84 59.39 70.165 45.428H18.818l-6.57 20.282s-3.139 30.903 7.374 34.062z" fill="#243842"/><path d="M81.699 69.242c0 20.419-13.959 36.051-33.532 36.051-19.576 0-37.394-16.078-31.41-35.605 4.669-15.234 12.473-37.421 32.046-37.421C68.377 32.265 81.7 48.82 81.7 69.242z" fill="#fff"/><path d="M48.18 105.845c-11.04 0-21.676-5.153-27.758-13.451-4.967-6.778-6.352-14.965-3.898-23.054 2.547-8.402 5.557-17.164 10.297-24.328C32.655 36.189 40.05 31.716 48.8 31.716c9.397 0 17.924 3.925 24.011 11.052 5.892 6.899 9.14 16.3 9.14 26.468 0 10.074-3.367 19.324-9.475 26.043-6.195 6.811-14.826 10.566-24.296 10.566zm.61-71.842c-7.61 0-13.819 4.015-18.981 12.277-4.323 6.919-7.1 15.49-9.46 23.726-2.112 7.38-.92 14.846 3.357 21.027 5.349 7.724 14.737 12.524 24.498 12.524 17.243 0 29.76-14.437 29.76-34.325 0-20.084-12.542-35.23-29.174-35.23z" fill="#243842"/><path d="M64.499 78.323a5.687 5.687 0 005.691-5.683 5.687 5.687 0 00-5.691-5.683 5.687 5.687 0 00-5.691 5.683 5.687 5.687 0 005.691 5.683z" fill="#243842"/><path d="M65.21 76.744c1.309 0 2.37-1.06 2.37-2.366a2.368 2.368 0 00-2.37-2.367 2.368 2.368 0 00-2.37 2.367 2.368 2.368 0 002.37 2.366z" fill="#fff"/><path d="M28.62 88.107c2.625 0 4.754-1.319 4.754-2.945s-2.129-2.945-4.755-2.945-4.755 1.319-4.755 2.945 2.13 2.945 4.755 2.945zM66.992 88.107c2.626 0 4.754-1.319 4.754-2.945s-2.128-2.945-4.754-2.945c-2.626 0-4.755 1.319-4.755 2.945s2.129 2.945 4.755 2.945z" fill="#F3C4BB"/><path d="M86.29 49.587c-2.463-8.88-6.442-17.367-13.49-23.122-5.603-4.577-12.737-7.02-19.929-7.843-7.964-.911-16.236.113-23.453 3.591-10.451 5.038-16.874 14.478-20.223 25.293-4.042 13.056-5.9 27.22-2.486 40.634.803 3.146 1.94 6.317 4.139 8.711 2.197 2.395 5.661 3.858 8.776 2.92-3.852-8.268-4.533-17.963-1.875-26.687 1.18-3.872 3.15-7.73 6.56-9.916 3.593-2.301 8.128-2.37 12.395-2.364l22.212.03c5.572.007 11.834.299 15.61 4.394 2.118 2.298 3.055 5.44 3.617 8.513 1.6 8.744.646 17.939-2.714 26.17 3.801.558 7.633-1.585 9.952-4.644 2.318-3.06 3.353-6.898 3.936-10.69 1.407-9.15.478-18.518-1.302-27.605a98.064 98.064 0 00-1.725-7.385z" fill="#243842"/><path d="M58.687 19.882s4.611-4.83 8.307-1.621c0 0-6.362 1.435-3.22 4.723" fill="#243842"/><path d="M60.523 20.294s-2.469-6.2-7.099-4.602c0 0 5.364 3.705 1.218 5.582" fill="#243842"/><path d="M62.838 71.367a1.295 1.295 0 10.002-2.59 1.295 1.295 0 00-.002 2.59z" fill="#fff"/><path d="M41.388 86.562a6.07 6.07 0 006.075 6.066 6.07 6.07 0 006.075-6.066h-12.15zM6.376 58.945S5.68 88.642 0 90.207c0 0 8.113-2.301 10.548-9.077M27.156 78.652a1.174 1.174 0 01-.482-2.247l6.495-2.908-6.413-2.318a1.176 1.176 0 01.8-2.21l9.15 3.305c.45.161.756.582.777 1.06.016.479-.257.92-.695 1.117l-9.15 4.097c-.156.07-.322.104-.482.104z" fill="#243842"/><path d="M32.892 24.282c0 6.267 4.451 11.346 9.941 11.346 1.823 0 3.533-.562 5.004-1.541 1.469.98 3.18 1.54 5.004 1.54 5.49 0 9.94-5.078 9.94-11.345s-4.45-11.345-9.94-11.345c-1.822 0-3.533.561-5.004 1.54-1.47-.979-3.18-1.54-5.004-1.54-5.49 0-9.941 5.079-9.941 11.345z" fill="#F3C4BB"/><path d="M50.933 10.63s-.04-9.373 13.905-9.715c-.946 3.757-2.42 8.622-13.905 9.715z" fill="#79C8A4"/><path d="M52.836 12.23a9.66 9.66 0 00-1.622.14h-.005c-.16.027-.319.06-.477.094-.92 0-2.167.733-2.9 1.173-5.667-3.41-12.364-.119-14.698 5.642-2.206 5.442-.54 12.431 4.604 15.607a9.712 9.712 0 0010.093.06c5.066 3.046 11.208.752 13.99-4.178 2.667-4.716 2.121-11.052-1.539-15.1-1.9-2.1-4.587-3.438-7.446-3.438zm0 22.689a8.093 8.093 0 01-2.553-.416 8.552 8.552 0 01-1.13-.467c-.366-.186-.804-.606-1.215-.641-.665-.06-1.454.686-2.063.93a8.149 8.149 0 01-2.698.585c-2.742.119-5.313-1.22-7.035-3.311-3.706-4.499-3.33-11.847 1.09-15.748 2.56-2.26 6.22-2.853 9.31-1.288-1.719 1.43-2.976 3.367-3.681 5.479-.387 1.16-.61 2.37-.668 3.591-.02.42-.114.954.277 1.24.406.297.929.078 1.106-.353.178-.433.065-1.173.117-1.638.065-.556.166-1.108.31-1.65a11.34 11.34 0 011.239-2.962c.992-1.656 2.467-3.106 4.254-3.882a7.643 7.643 0 012.282-.652h.002c5.645-.805 9.867 4.482 10.247 9.657.396 5.415-3.243 11.526-9.191 11.526z" fill="#243842"/><path d="M42.835 36.61a9.956 9.956 0 01-5.237-1.492c-5.01-3.095-7.082-10.096-4.714-15.939 1.281-3.156 3.886-5.655 6.974-6.681 2.692-.896 5.516-.602 7.975.825.687-.41 1.916-1.113 2.871-1.128.142-.032.283-.06.426-.086l.041-.007c3.405-.582 6.892.706 9.314 3.387 3.67 4.056 4.332 10.538 1.577 15.415-1.504 2.66-3.991 4.614-6.827 5.36a9.705 9.705 0 01-7.4-1.003 9.966 9.966 0 01-5 1.35zm.117-24.079c-.975 0-1.96.16-2.924.482-2.94.978-5.422 3.36-6.643 6.37-2.271 5.605-.296 12.314 4.496 15.274a9.39 9.39 0 009.81.058l.14-.084.14.084a9.171 9.171 0 007.121 1.024c2.694-.708 5.062-2.567 6.492-5.103 2.643-4.68 2.01-10.896-1.507-14.785-2.287-2.532-5.566-3.755-8.78-3.221l-.046.007c-.154.028-.309.06-.461.093l-.06.006c-.877 0-2.148.766-2.759 1.132l-.14.084-.14-.084a9.156 9.156 0 00-4.739-1.337zm9.884 22.66a8.4 8.4 0 01-2.638-.43 8.682 8.682 0 01-1.167-.481c-.135-.067-.278-.164-.427-.264-.23-.157-.491-.333-.694-.35-.345-.028-.803.257-1.207.508-.255.158-.497.31-.731.403a8.433 8.433 0 01-2.787.606c-2.677.113-5.4-1.158-7.255-3.41-3.844-4.667-3.323-12.2 1.119-16.122 2.712-2.395 6.486-2.915 9.615-1.328l.367.186-.316.264c-1.637 1.36-2.88 3.213-3.597 5.354a13.04 13.04 0 00-.656 3.52l-.009.16c-.028.414-.031.696.177.849.14.102.274.093.361.068a.516.516 0 00.334-.305c.093-.226.087-.607.083-.946-.002-.223-.005-.435.017-.62a12.42 12.42 0 01.315-1.689c.283-1.082.709-2.102 1.267-3.032 1.091-1.821 2.648-3.24 4.38-3.989a7.88 7.88 0 012.356-.673c2.297-.329 4.516.303 6.404 1.822 2.33 1.874 3.919 4.97 4.148 8.085.238 3.232-.942 6.664-3.078 8.96-1.74 1.864-3.946 2.853-6.381 2.853zM47.86 33.12c.034 0 .066.001.099.003.343.032.665.25.951.443.125.085.25.169.363.228.35.175.719.328 1.095.452a7.826 7.826 0 002.467.404c2.28 0 4.349-.93 5.983-2.685 2.037-2.188 3.161-5.463 2.936-8.551-.218-2.969-1.73-5.921-3.947-7.702-1.768-1.424-3.84-2.013-5.99-1.707a7.346 7.346 0 00-2.207.629c-1.636.71-3.103 2.05-4.138 3.775a11.034 11.034 0 00-1.208 2.891 11.969 11.969 0 00-.302 1.614c-.019.152-.015.347-.013.552.006.409.011.83-.125 1.158a1.065 1.065 0 01-.687.62.95.95 0 01-.83-.153c-.464-.34-.426-.906-.397-1.32l.01-.15c.06-1.256.288-2.488.681-3.665.704-2.1 1.892-3.932 3.448-5.326-2.854-1.266-6.203-.725-8.64 1.428-4.232 3.736-4.729 10.921-1.06 15.374 1.747 2.12 4.307 3.323 6.816 3.212a7.925 7.925 0 002.607-.567c.19-.076.411-.216.646-.36.446-.283.95-.597 1.442-.597z" fill="#243842"/><path d="M47.954 12.16a.719.719 0 01-.711-.831c.002-.017.26-1.707-.177-3.558-.56-2.369-1.966-3.899-4.177-4.548a.717.717 0 11.406-1.375c2.72.8 4.512 2.75 5.18 5.642.492 2.12.2 3.987.189 4.067a.725.725 0 01-.71.603z" fill="#243842"/><path d="M47.954 12.43a.988.988 0 01-.977-1.143c.026-.172.233-1.741-.173-3.453-.536-2.266-1.879-3.731-3.99-4.35a.99.99 0 11.559-1.896c2.82.827 4.676 2.848 5.369 5.84.503 2.172.2 4.09.19 4.17a.988.988 0 01-.978.831zM43.092 2.09a.447.447 0 00-.428.32.447.447 0 00.303.553c2.312.679 3.781 2.276 4.364 4.744.428 1.811.208 3.473.182 3.655a.448.448 0 10.88.15c.014-.077.297-1.892-.182-3.963-.646-2.79-2.371-4.673-4.993-5.443a.504.504 0 00-.126-.017zM50.933 11.273a.648.648 0 01-.644-.641c0-.105.011-2.583 1.845-5.11 1.07-1.475 2.541-2.661 4.373-3.527C58.754.93 61.55.35 64.823.27c.2-.004.395.083.52.241.124.158.169.363.12.558-.415 1.647-1.04 4.138-3.181 6.168-2.335 2.212-6.026 3.532-11.287 4.032-.023.002-.041.004-.062.004zm13.062-9.684c-2.72.147-5.051.673-6.939 1.568-1.633.775-2.938 1.823-3.88 3.12a8.515 8.515 0 00-1.526 3.631c4.546-.52 7.74-1.702 9.744-3.602 1.483-1.408 2.131-3.025 2.6-4.717z" fill="#243842"/><path d="M50.933 11.543a.916.916 0 01-.916-.91c0-.107.01-2.671 1.9-5.27 1.096-1.511 2.6-2.727 4.473-3.614C58.67.67 61.505.08 64.815 0h.021c.277 0 .544.126.717.342a.924.924 0 01.175.794c-.425 1.679-1.06 4.216-3.258 6.298-2.38 2.257-6.123 3.6-11.447 4.105a.765.765 0 01-.09.004zm13.905-11h-.01c-3.231.078-5.994.65-8.206 1.699-1.789.848-3.224 2.006-4.268 3.44-1.786 2.459-1.795 4.85-1.793 4.951a.37.37 0 00.372.37l.04-.002c5.193-.494 8.833-1.788 11.12-3.957 2.084-1.976 2.698-4.421 3.106-6.038a.374.374 0 00-.361-.463zm-13.514 9.676l.056-.353a8.775 8.775 0 011.577-3.748c.97-1.333 2.308-2.411 3.984-3.207 1.917-.907 4.287-1.442 7.039-1.591l.376-.02-.1.362c-.453 1.625-1.09 3.335-2.676 4.839-2.052 1.944-5.29 3.147-9.9 3.677l-.356.04zm12.302-8.334c-2.517.171-4.688.68-6.454 1.517-1.59.755-2.862 1.775-3.776 3.034a8.286 8.286 0 00-1.415 3.158c4.297-.533 7.316-1.677 9.225-3.487 1.374-1.3 1.995-2.785 2.42-4.222zM43.133 27.626a.719.719 0 110-1.437.719.719 0 010 1.437z" fill="#243842"/><path d="M43.133 27.898a.99.99 0 110-1.976.99.99 0 010 1.976zm0-1.435c-.246 0-.447.2-.447.446a.448.448 0 00.894 0c0-.246-.2-.446-.447-.446z" fill="#243842"/></g><defs><clipPath id="annie_aside_logo-clip0"><path fill="#fff" d="M0 0h90v105.845H0z"/></clipPath></defs></svg><svg width="40" height="40" fill="none" id="annie_aside_mail" y="145"><path d="M20 1.333c10.267 0 18.667 8.4 18.667 18.667 0 10.267-8.4 18.667-18.667 18.667-10.267 0-18.667-8.4-18.667-18.667C1.333 9.733 9.733 1.333 20 1.333zM20 0C8.933 0 0 8.933 0 20s8.933 20 20 20 20-8.933 20-20S31.067 0 20 0z" fill="#233741"/><path d="M24.307 20.507l7.426 4.624v-9.529l-7.426 4.905zM9.873 15.602v9.53l7.287-4.625-7.287-4.905zM30.472 12.8H11.135c-.701 0-1.262.56-1.402 1.12l10.93 7.147 10.93-7.146c0-.56-.56-1.121-1.12-1.121zM23.186 21.348l-1.962 1.26c-.14.14-.28.14-.42.14-.14 0-.28 0-.421-.14l-1.962-1.26-8.548 5.465c.14.7.701 1.12 1.262 1.12h19.197c.7 0 1.261-.56 1.261-1.12l-8.407-5.465z" fill="#233741"/></svg><svg width="40" height="40" fill="none" id="annie_aside_phone" y="185"><g clip-path="url(#annie_aside_phone-clip0)"><path d="M20 1.333c10.267 0 18.667 8.4 18.667 18.667 0 10.267-8.4 18.667-18.667 18.667-10.267 0-18.667-8.4-18.667-18.667C1.333 9.733 9.733 1.333 20 1.333zM20 0C8.933 0 0 8.933 0 20s8.933 20 20 20 20-8.933 20-20S31.067 0 20 0z" fill="#233741"/><path fill-rule="evenodd" clip-rule="evenodd" d="M21.867 30.8c-.667.133-1.2.133-1.6.133-2.4 0-4.267-.533-6-1.6-.267-.133-.4-.133-.667-.133-1.2.267-2.4.667-3.6.933-.267.134-.267 0-.267-.266.267-1.067.667-2.267.934-3.334.133-.266 0-.533-.134-.8-2.4-3.866-2.266-8.8.4-12.4C13.733 9.6 17.6 8 22.133 9.067c4.534.933 7.467 3.866 8.4 8.4 1.734 6.266-2.4 12.266-8.666 13.333z" fill="#233741"/><path fill-rule="evenodd" clip-rule="evenodd" d="M23.467 26.267c-.4 0-.934 0-1.334-.134-3.066-.933-5.333-2.8-7.2-5.333-.666-.933-1.333-2-1.6-3.067-.266-1.333.134-2.666 1.2-3.6.4-.266 1.334-.533 1.734-.266.133.133.266.266.266.4.4.933.8 1.866 1.2 2.666v.534c-.266.4-.533.8-.8 1.066-.266.267-.266.534-.133.8 1.067 1.867 2.533 3.067 4.533 3.867.267.133.534.133.667-.133.4-.4.667-.8.933-1.2.134-.267.4-.267.8-.134.667.267 1.334.667 1.867.934.133.133.267.133.4.266.667.4.667.4.533 1.067-.133 1.333-1.2 2.133-2.4 2.4-.133-.133-.4-.133-.666-.133z" fill="#fff"/></g><defs><clipPath id="annie_aside_phone-clip0"><path fill="#fff" d="M0 0h40v40H0z"/></clipPath></defs></svg></svg>
