<?xml version="1.0" encoding="utf-8"?>
<!-- Generator: Adobe Illustrator 23.0.1, SVG Export Plug-In . SVG Version: 6.00 Build 0)  -->
<svg version="1.1" xmlns="http://www.w3.org/2000/svg" xmlns:xlink="http://www.w3.org/1999/xlink" x="0px" y="0px"
	 viewBox="0 0 582 506.6" style="enable-background:new 0 0 582 506.6;" xml:space="preserve">
<style type="text/css">
	.st0{fill-rule:evenodd;clip-rule:evenodd;fill:#DEDEDE;}
	.st1{fill:#FFFFFF;stroke:#DEDEDE;stroke-miterlimit:10;}
	.st2{fill:#DEDEDE;}
	.st3{fill:#CCCCCC;}
	.st4{fill:#DEDEDE;stroke:#DEDEDE;stroke-linecap:round;stroke-linejoin:round;stroke-miterlimit:10;}
	.st5{fill-rule:evenodd;clip-rule:evenodd;fill:#FFFFFF;stroke:#DEDEDE;stroke-miterlimit:10;}
	.st6{fill:#FFC4BB;stroke:#0D343F;stroke-width:2;stroke-linecap:round;stroke-linejoin:round;stroke-miterlimit:10;}
	.st7{fill:#FFFFFF;stroke:#0D343F;stroke-width:2;stroke-linecap:round;stroke-linejoin:round;stroke-miterlimit:10;}
	
		.st8{fill:none;stroke:#0D343F;stroke-width:2;stroke-linecap:round;stroke-linejoin:round;stroke-miterlimit:10;stroke-dasharray:2.837;}
	.st9{fill:#888888;}
	.st10{fill:#0D343F;}
	.st11{fill:#EDEDED;}
	.st12{fill:#FFFFFF;stroke:#0D343F;stroke-width:1.5;stroke-linecap:round;stroke-linejoin:round;stroke-miterlimit:10;}
	.st13{fill:#AAAAAA;}
	.st14{fill:#ECECEC;}
	.st15{fill:none;stroke:#0D343F;stroke-width:2;stroke-miterlimit:10;}
	.st16{fill:none;stroke:#0D343F;stroke-width:2;stroke-linecap:round;stroke-linejoin:round;stroke-miterlimit:10;}
	.st17{fill:#ECECEC;stroke:#0D343F;stroke-width:2;stroke-linecap:round;stroke-linejoin:round;stroke-miterlimit:10;}
	.st18{fill:#DEDEDE;stroke:#0D343F;stroke-width:2;stroke-linecap:round;stroke-linejoin:round;stroke-miterlimit:10;}
	.st19{fill:#233740;}
	.st20{fill:#37C8A3;stroke:#0D343F;stroke-width:2;stroke-linecap:round;stroke-linejoin:round;stroke-miterlimit:10;}
	.st21{fill:#F1C1B9;}
	.st22{fill:#37C8A3;}
	.st23{fill:#DD8D85;stroke:#0D343F;stroke-width:2;stroke-linecap:round;stroke-linejoin:round;stroke-miterlimit:10;}
	.st24{fill:#37C8A3;stroke:#233740;stroke-width:2;stroke-miterlimit:10;}
	.st25{fill:#F1C1B9;stroke:#233740;stroke-width:2;stroke-miterlimit:10;}
	.st26{fill:#FFFFFF;stroke:#233740;stroke-width:2;stroke-miterlimit:10;}
	.st27{fill:#FFFFFF;}
	.st28{fill:none;stroke:#233740;stroke-width:2;stroke-miterlimit:10;}
	.st29{fill:none;stroke:#233740;stroke-width:2;stroke-linecap:round;stroke-linejoin:round;stroke-miterlimit:10;}
	.st30{fill:#EFBAD5;stroke:#233740;stroke-width:2;stroke-linecap:round;stroke-linejoin:round;stroke-miterlimit:10;}
	.st31{fill:#DED99C;stroke:#233740;stroke-width:2;stroke-linecap:round;stroke-linejoin:round;stroke-miterlimit:10;}
	.st32{fill:#F1C1B9;stroke:#233740;stroke-width:2;stroke-linecap:round;stroke-miterlimit:10;}
	.st33{fill:#37C8A3;stroke:#233740;stroke-width:1.5;stroke-miterlimit:10;}
	.st34{fill:#A8E1E2;stroke:#233740;stroke-width:2;stroke-linecap:round;stroke-linejoin:round;stroke-miterlimit:10;}
	.st35{fill:#B1E0D3;stroke:#0D343F;stroke-width:2;stroke-linecap:round;stroke-linejoin:round;stroke-miterlimit:10;}
	.st36{fill:#79C8A4;stroke:#233740;stroke-width:2;stroke-linecap:round;stroke-linejoin:round;stroke-miterlimit:10;}
	.st37{fill:#FFC4BB;stroke:#233740;stroke-width:0.5;stroke-miterlimit:10;}
	.st38{fill:#77C5A1;stroke:#233740;stroke-width:0.5;stroke-miterlimit:10;}
	.st39{fill:#233740;stroke:#233740;stroke-width:0.5;stroke-miterlimit:10;}
	.st40{fill:none;stroke:#233740;stroke-width:0.5;stroke-miterlimit:10;}
	.st41{fill:#233740;stroke:#233740;stroke-width:2;stroke-miterlimit:10;}
	.st42{fill:#FFFFFF;stroke:#233740;stroke-width:2;stroke-linecap:round;stroke-linejoin:round;stroke-miterlimit:10;}
	.st43{fill:#F1C1B9;stroke:#233740;stroke-width:1.5;stroke-miterlimit:10;}
	.st44{fill:#FFC4BB;}
</style>
<g id="BACKGROUND">
</g>
<g id="OBJECTS">
	<g>
		
			<image style="overflow:visible;opacity:0.75;" width="475" height="148" xlink:href="3D4F9A46.png"  transform="matrix(1 0 0 1 71 363.1413)">
		</image>
		<g>
			<path class="st0" d="M535,433c0,35.8-102.1,64.8-228.1,64.8c-126,0-228.1-29-228.1-64.8c0-35.8,102.1-64.8,228.1-64.8
				C432.8,368.2,535,397.2,535,433z"/>
		</g>
	</g>
	<g>
		<path class="st1" d="M494.6,139l-16.3-20.6c0,0,14.1-9.9,14.4-25.2c12.9-4.2,39.7-7.5,47.3-8.4l-28,22.3c-1.4-1-3.3-1-4.7,0.1
			c-1.7,1.3-2,3.8-0.6,5.5c1.3,1.7,3.8,2,5.5,0.6c1.4-1.1,1.8-3,1.2-4.5l28-22.3c-2.6,7.2-12,32.6-18.9,44.2
			C507.5,127.6,494.6,139,494.6,139z"/>
		<path class="st2" d="M522.3,130.7c7-11.6,16.3-36.9,18.9-44.2l-28,22.3c0.6,1.6,0.2,3.4-1.2,4.5c-1.7,1.3-4.2,1.1-5.5-0.6
			l-20.1,16l8.2,10.3C494.6,139,507.5,127.6,522.3,130.7z"/>
		<g>
			<path class="st2" d="M378.6,214.4L378.6,214.4c-2.9-3.6-2.3-8.9,1.4-11.8l101.1-80.3l10.4,13.1l-101.1,80.3
				C386.8,218.6,381.5,218,378.6,214.4z"/>
			<path class="st2" d="M378.6,214.4L378.6,214.4c-2.9-3.6-2.3-8.9,1.4-11.8l101.1-80.3l10.4,13.1l-101.1,80.3
				C386.8,218.6,381.5,218,378.6,214.4z"/>
		</g>
		<g>
			<g>
				<path class="st3" d="M490.2,140.6l-14.4-18.2c-1.3-1.6-1-3.9,0.6-5.2l1.2-0.9c1.6-1.3,3.9-1,5.2,0.6l14.4,18.2
					c1.3,1.6,1,3.9-0.6,5.2l-1.2,0.9C493.8,142.5,491.4,142.2,490.2,140.6z"/>
				<path class="st3" d="M490.2,140.6l-14.4-18.2c-1.3-1.6-1-3.9,0.6-5.2l1.2-0.9c1.6-1.3,3.9-1,5.2,0.6l14.4,18.2
					c1.3,1.6,1,3.9-0.6,5.2l-1.2,0.9C493.8,142.5,491.4,142.2,490.2,140.6z"/>
			</g>
		</g>
		<g>
			<path class="st4" d="M466.8,71.7c24.3-17.2,58.1-11.5,75.3,12.8c17.2,24.3,11.5,58.1-12.8,75.3l-0.5-0.7
				c23.9-16.9,29.6-50.2,12.6-74.1c-16.9-23.9-50.1-29.6-74-12.6L466.8,71.7z"/>
			<polygon class="st4" points="510.3,41.4 511.1,40.8 573,128.3 572.3,128.8 			"/>
			<g>
				
					<rect x="537.7" y="80.8" transform="matrix(0.5779 0.8161 -0.8161 0.5779 297.8575 -406.261)" class="st4" width="8" height="8"/>
				<path class="st4" d="M535.5,83.8l7.3-5.1l5.1,7.3l-7.3,5.1L535.5,83.8z M542.5,79.9l-5.8,4.1l4.1,5.8l5.8-4.1L542.5,79.9z"/>
			</g>
			<g>
				
					<rect x="463" y="68.1" transform="matrix(0.5781 0.8159 -0.8159 0.5781 255.8438 -350.6449)" class="st4" width="8" height="8"/>
				<path class="st4" d="M460.8,71l7.2-5.1l5.1,7.3l-7.3,5.1L460.8,71z M467.9,67.1l-5.8,4.1l4.1,5.8l5.8-4.1L467.9,67.1z"/>
			</g>
			<g>
				
					<rect x="525.1" y="155.7" transform="matrix(0.578 0.8161 -0.8161 0.578 353.6346 -364.3612)" class="st4" width="8" height="8"/>
				<path class="st4" d="M522.9,158.7l7.2-5.1l5.1,7.3l-7.3,5.1L522.9,158.7z M529.9,154.7l-5.8,4.1l4.1,5.8l5.8-4.1L529.9,154.7z"
					/>
			</g>
			<g>
				<path class="st4" d="M575.1,132c-1.8,1.3-4.3,0.9-5.6-0.9c-1.3-1.8-0.9-4.3,1-5.6c1.8-1.3,4.3-0.9,5.6,0.9
					C577.3,128.2,576.9,130.7,575.1,132z"/>
				<path class="st4" d="M568.4,128c0.2-1.2,0.8-2.2,1.8-2.9c2-1.4,4.8-0.9,6.2,1.1c0.7,1,1,2.1,0.8,3.3c-0.2,1.2-0.8,2.2-1.8,2.9
					l0,0c-1,0.7-2.1,1-3.3,0.8c-1.2-0.2-2.2-0.8-2.9-1.8C568.5,130.3,568.2,129.1,568.4,128z M576.3,129.3c0.2-0.9-0.1-1.9-0.6-2.7
					c-1.1-1.6-3.4-2-5-0.8c-1.6,1.1-2,3.4-0.8,5c0.5,0.8,1.4,1.3,2.3,1.5c0.9,0.2,1.9-0.1,2.7-0.6l0,0
					C575.6,131.1,576.1,130.3,576.3,129.3z"/>
			</g>
			<g>
				<path class="st4" d="M513,44.4c-1.8,1.3-4.3,0.9-5.6-0.9c-1.3-1.8-0.9-4.3,0.9-5.6c1.8-1.3,4.3-0.9,5.6,1
					C515.2,40.6,514.8,43.1,513,44.4z"/>
				<path class="st4" d="M506.3,40.4c0.2-1.1,0.8-2.2,1.8-2.9c2-1.4,4.8-0.9,6.2,1.1c1.4,2,0.9,4.8-1.1,6.2l0,0
					c-2,1.4-4.8,0.9-6.2-1.1C506.4,42.7,506.1,41.5,506.3,40.4z M514.2,41.7c0.2-0.9,0-1.9-0.6-2.7c-1.1-1.6-3.4-2-5-0.8
					c-1.6,1.1-2,3.4-0.8,5c1.1,1.6,3.4,2,5,0.8C513.6,43.4,514.1,42.6,514.2,41.7z"/>
			</g>
		</g>
	</g>
	<g>
		<g>
			<g>
				<g>
					<g>
						<path class="st0" d="M206.6,120.3c4,3,7.6,6.5,10.6,10.4l13.6-2.5l9,21l-11.2,8.1c0.7,4.9,0.8,9.9,0.2,14.9l11.4,7.9
							l-8.5,21.2l-13.6-2.2c-3,4-6.5,7.6-10.4,10.6l2.5,13.6l-21,9l-8.1-11.2c-4.9,0.7-9.9,0.8-14.9,0.2l-7.9,11.4l-21.2-8.5
							l2.2-13.6c-4-3-7.6-6.5-10.6-10.4l-13.6,2.5l-9-21l11.2-8.1c-0.7-4.9-0.8-9.9-0.2-14.9l-11.4-7.9l8.5-21.2l13.6,2.2
							c3-4,6.5-7.6,10.4-10.6l-2.5-13.6l21-9l8.1,11.2c4.9-0.7,9.9-0.8,14.9-0.2l7.9-11.4l21.2,8.5L206.6,120.3L206.6,120.3z
							 M182.9,143c-12.6-5-26.9,1-31.9,13.6c-5.1,12.6,1,26.9,13.6,31.9c12.6,5.1,26.9-1,31.9-13.6
							C201.6,162.4,195.5,148.1,182.9,143z"/>
					</g>
				</g>
			</g>
		</g>
		<g>
			<g>
				<g>
					<g>
						<path class="st5" d="M96.8,64.8c2.3,1.7,4.3,3.7,6,5.9l7.6-1.4l5,11.8l-6.3,4.5c0.4,2.7,0.4,5.6,0.1,8.4l6.4,4.4l-4.8,11.9
							l-7.7-1.2c-1.7,2.3-3.7,4.3-5.9,6l1.4,7.6l-11.8,5l-4.5-6.3c-2.7,0.4-5.6,0.4-8.4,0.1l-4.4,6.4l-11.9-4.8l1.2-7.7
							c-2.3-1.7-4.3-3.7-6-5.9l-7.6,1.4l-5-11.8l6.3-4.5c-0.4-2.7-0.4-5.6-0.1-8.4l-6.4-4.4L44.9,70l7.7,1.2c1.7-2.3,3.7-4.3,5.9-6
							L57,57.6l11.8-5l4.5,6.3c2.7-0.4,5.6-0.4,8.4-0.1l4.4-6.4l11.9,4.8L96.8,64.8L96.8,64.8z M83.6,77.6
							c-7.1-2.8-15.1,0.6-17.9,7.6c-2.8,7.1,0.6,15.1,7.6,17.9c7.1,2.8,15.1-0.6,17.9-7.6C94,88.5,90.6,80.4,83.6,77.6z"/>
					</g>
				</g>
			</g>
		</g>
	</g>
	<g>
		<g>
			<path class="st6" d="M389.6,407.9H230c-13.9,0-25.2-10.9-25.2-24.4V39.3c0-13.5,11.3-24.4,25.2-24.4h159.6
				c13.9,0,25.2,10.9,25.2,24.4v344.3C414.8,397,403.5,407.9,389.6,407.9z"/>
			<path class="st7" d="M402,39v340.9c0,8-6.7,14.5-14.9,14.5H232.5c-8.3,0-14.9-6.5-14.9-14.5V39c0-8,6.7-14.5,14.9-14.5h25.8
				c1.4,0,2.7,0.8,3.4,2l2.7,5.3c1.2,2.4,3.8,4,6.6,4h77.5c2.8,0,5.4-1.5,6.6-4l2.7-5.3c0.6-1.2,1.9-2,3.4-2H387
				C395.3,24.5,402,31,402,39z"/>
			<path class="st7" d="M342.3,29.6h-62.4c-1.5,0-2.6-1.1-2.6-2.5l0,0c0-1.4,1.2-2.5,2.6-2.5h62.4c1.5,0,2.6,1.1,2.6,2.5l0,0
				C344.9,28.5,343.8,29.6,342.3,29.6z"/>
		</g>
		<path class="st8" d="M379,381.8H237c-4.6,0-8.4-3.8-8.4-8.4v-52.1c0-4.6,3.8-8.4,8.4-8.4h142c4.6,0,8.4,3.8,8.4,8.4v52.1
			C387.3,378,383.6,381.8,379,381.8z"/>
		<path class="st8" d="M376.9,212.8h-80.1c-4.6,0-8.3-3.2-8.3-7.1v-34.1c0-3.9,3.7-7.1,8.3-7.1h80.1c4.6,0,8.3,3.2,8.3,7.1v34.1
			C385.2,209.6,381.5,212.8,376.9,212.8z"/>
		<g>
			<path class="st9" d="M241,305.4c-3.4,0-6.2-2.8-6.2-6.2v-62.6c0-3.4,2.8-6.2,6.2-6.2h145c3.4,0,6.2,2.8,6.2,6.2v62.6
				c0,3.4-2.8,6.2-6.2,6.2H241z"/>
			<path class="st10" d="M385.9,231.3c2.9,0,5.2,2.3,5.2,5.2v62.6c0,2.9-2.3,5.2-5.2,5.2H241c-2.9,0-5.2-2.3-5.2-5.2v-62.6
				c0-2.9,2.3-5.2,5.2-5.2H385.9 M385.9,229.3H241c-4,0-7.2,3.2-7.2,7.2v62.6c0,4,3.2,7.2,7.2,7.2h145c4,0,7.2-3.2,7.2-7.2v-62.6
				C393.1,232.6,389.9,229.3,385.9,229.3L385.9,229.3z"/>
		</g>
		<g>
			<path class="st11" d="M236.5,299.1c-4.1,0-7.5-3.4-7.5-7.5v-60.1c0-4.1,3.4-7.5,7.5-7.5h141.8c4.1,0,7.5,3.4,7.5,7.5v60.1
				c0,4.1-3.4,7.5-7.5,7.5H236.5z"/>
			<path class="st10" d="M378.2,225.1c3.6,0,6.5,2.9,6.5,6.5v60.1c0,3.6-2.9,6.5-6.5,6.5H236.5c-3.6,0-6.5-2.9-6.5-6.5v-60.1
				c0-3.6,2.9-6.5,6.5-6.5H378.2 M378.2,223.1H236.5c-4.7,0-8.5,3.8-8.5,8.5v60.1c0,4.7,3.8,8.5,8.5,8.5h141.8
				c4.7,0,8.5-3.8,8.5-8.5v-60.1C386.7,226.9,382.9,223.1,378.2,223.1L378.2,223.1z"/>
		</g>
		<g>
			<path class="st12" d="M332.3,247.4h-36.8c-1,0-1.8-0.8-1.8-1.8l0,0c0-1,0.8-1.8,1.8-1.8h36.8c1,0,1.8,0.8,1.8,1.8l0,0
				C334.1,246.6,333.3,247.4,332.3,247.4z"/>
			<path class="st12" d="M315.6,254.6h-20c-1,0-1.8-0.8-1.8-1.8l0,0c0-1,0.8-1.8,1.8-1.8h20c1,0,1.8,0.8,1.8,1.8l0,0
				C317.4,253.8,316.6,254.6,315.6,254.6z"/>
			<path class="st12" d="M377.1,254.6h-54.2c-1,0-1.8-0.8-1.8-1.8l0,0c0-1,0.8-1.8,1.8-1.8h54.2c1,0,1.8,0.8,1.8,1.8l0,0
				C378.9,253.8,378.1,254.6,377.1,254.6z"/>
			<path class="st12" d="M326.5,261.8h-31c-1,0-1.8-0.8-1.8-1.8l0,0c0-1,0.8-1.8,1.8-1.8h31c1,0,1.8,0.8,1.8,1.8l0,0
				C328.3,261,327.5,261.8,326.5,261.8z"/>
			<path class="st12" d="M352.8,261.8h-19.5c-1,0-1.8-0.8-1.8-1.8l0,0c0-1,0.8-1.8,1.8-1.8h19.5c1,0,1.8,0.8,1.8,1.8l0,0
				C354.6,261,353.8,261.8,352.8,261.8z"/>
			<path class="st12" d="M377.1,261.8h-17.9c-1,0-1.8-0.8-1.8-1.8l0,0c0-1,0.8-1.8,1.8-1.8h17.9c1,0,1.8,0.8,1.8,1.8l0,0
				C378.9,261,378.1,261.8,377.1,261.8z"/>
			<path class="st12" d="M377.1,269.1h-81.6c-1,0-1.8-0.8-1.8-1.8l0,0c0-1,0.8-1.8,1.8-1.8h81.6c1,0,1.8,0.8,1.8,1.8l0,0
				C378.9,268.3,378.1,269.1,377.1,269.1z"/>
			<path class="st12" d="M340.4,276.3h-44.9c-1,0-1.8-0.8-1.8-1.8l0,0c0-1,0.8-1.8,1.8-1.8h44.9c1,0,1.8,0.8,1.8,1.8l0,0
				C342.2,275.5,341.4,276.3,340.4,276.3z"/>
			<path class="st12" d="M377.1,276.3h-29.4c-1,0-1.8-0.8-1.8-1.8l0,0c0-1,0.8-1.8,1.8-1.8h29.4c1,0,1.8,0.8,1.8,1.8l0,0
				C378.9,275.5,378.1,276.3,377.1,276.3z"/>
			<path class="st12" d="M321.9,283.5h-26.4c-1,0-1.8-0.8-1.8-1.8l0,0c0-1,0.8-1.8,1.8-1.8h26.4c1,0,1.8,0.8,1.8,1.8l0,0
				C323.7,282.7,322.9,283.5,321.9,283.5z"/>
			<path class="st12" d="M355.4,283.5h-26.4c-1,0-1.8-0.8-1.8-1.8l0,0c0-1,0.8-1.8,1.8-1.8h26.4c1,0,1.8,0.8,1.8,1.8l0,0
				C357.2,282.7,356.4,283.5,355.4,283.5z"/>
			<path class="st12" d="M377.1,283.5h-15.3c-1,0-1.8-0.8-1.8-1.8l0,0c0-1,0.8-1.8,1.8-1.8h15.3c1,0,1.8,0.8,1.8,1.8l0,0
				C378.9,282.7,378.1,283.5,377.1,283.5z"/>
			<path class="st12" d="M332.3,290.8h-36.8c-1,0-1.8-0.8-1.8-1.8l0,0c0-1,0.8-1.8,1.8-1.8h36.8c1,0,1.8,0.8,1.8,1.8l0,0
				C334.1,290,333.3,290.8,332.3,290.8z"/>
			<path class="st12" d="M377.1,247.4h-36.8c-1,0-1.8-0.8-1.8-1.8l0,0c0-1,0.8-1.8,1.8-1.8h36.8c1,0,1.8,0.8,1.8,1.8l0,0
				C378.9,246.6,378.1,247.4,377.1,247.4z"/>
		</g>
		<g>
			<g>
				<path class="st13" d="M229,233.1v-1.5c0-4.1,3.4-7.5,7.5-7.5h141.8c4.1,0,7.5,3.4,7.5,7.5v1.5H229z"/>
				<path class="st10" d="M378.2,225.1c3.6,0,6.5,2.9,6.5,6.5v0.5H230v-0.5c0-3.6,2.9-6.5,6.5-6.5H378.2 M378.2,223.1H236.5
					c-4.7,0-8.5,3.8-8.5,8.5v2.5h158.7v-2.5C386.7,226.9,382.9,223.1,378.2,223.1L378.2,223.1z"/>
			</g>
			<g>
				<g>
					<path class="st14" d="M356.8,228.8c0,1.1-0.9,2-2,2c-1.1,0-2-0.9-2-2c0-1.1,0.9-2,2-2C355.9,226.8,356.8,227.7,356.8,228.8z"/>
				</g>
				<g>
					<path class="st14" d="M366.9,228.8c0,1.1-0.9,2-2,2c-1.1,0-2-0.9-2-2c0-1.1,0.9-2,2-2C366,226.8,366.9,227.7,366.9,228.8z"/>
				</g>
				<g>
					<path class="st14" d="M376.9,228.8c0,1.1-0.9,2-2,2c-1.1,0-2-0.9-2-2c0-1.1,0.9-2,2-2C376,226.8,376.9,227.7,376.9,228.8z"/>
				</g>
			</g>
		</g>
		<g>
			<path class="st15" d="M273.1,212.8h-34c-3.9,0-7.2-3.2-7.2-7.2v-34c0-3.9,3.2-7.2,7.2-7.2h34c3.9,0,7.2,3.2,7.2,7.2v34
				C280.3,209.6,277.1,212.8,273.1,212.8z"/>
			<g>
				<polyline class="st16" points="248.6,181.7 241.7,188.6 248.7,195.7 				"/>
				<polyline class="st16" points="263.7,181.7 270.6,188.6 263.6,195.7 				"/>
				<line class="st16" x1="259.4" y1="181.7" x2="252.9" y2="195.7"/>
			</g>
		</g>
		<g>
			<path class="st6" d="M377.5,328v39.1c0,2.1-1.7,3.8-3.8,3.8h-55.6c-2.1,0-3.8-1.7-3.8-3.8V328c0-2.1,1.7-3.8,3.8-3.8h55.6
				C375.8,324.1,377.5,325.9,377.5,328z"/>
			<path class="st17" d="M373.8,336.5c0,5.1-4.1,9.2-9.2,9.2c-5.1,0-9.2-4.1-9.2-9.2c0-5.1,4.1-9.2,9.2-9.2
				C369.7,327.3,373.8,331.4,373.8,336.5z"/>
			<path class="st7" d="M351.4,371h-33.3c-2.1,0-3.8-1.7-3.8-3.8V361l14.6-25.3c0.8-1.3,2.7-1.3,3.4,0l11,19.1l8.2,14.2
				C351.8,369.6,351.8,370.4,351.4,371z"/>
			<path class="st17" d="M365.8,371h-31.9l9.4-16.2l5-8.7c0.7-1.2,2.4-1.2,3.1,0L365.8,371z"/>
		</g>
		<g>
			<path class="st14" d="M239.7,291.5c-2.1,0-3.9-1.7-3.9-3.9v-43.5c0-2.1,1.7-3.9,3.9-3.9h43.5c2.1,0,3.9,1.7,3.9,3.9v43.5
				c0,2.1-1.7,3.9-3.9,3.9H239.7z"/>
			<path class="st10" d="M283.2,241.3c1.6,0,2.9,1.3,2.9,2.9v43.5c0,1.6-1.3,2.9-2.9,2.9h-43.5c-1.6,0-2.9-1.3-2.9-2.9v-43.5
				c0-1.6,1.3-2.9,2.9-2.9H283.2 M283.2,239.3h-43.5c-2.7,0-4.9,2.2-4.9,4.9v43.5c0,2.7,2.2,4.9,4.9,4.9h43.5c2.7,0,4.9-2.2,4.9-4.9
				v-43.5C288.1,241.5,285.9,239.3,283.2,239.3L283.2,239.3z"/>
		</g>
		<g>
			<path class="st18" d="M280.9,370.9h-31.5c-4.3,0-7.7-3.5-7.7-7.7v-31.5c0-4.3,3.5-7.7,7.7-7.7h31.5c4.3,0,7.7,3.5,7.7,7.7v31.5
				C288.6,367.4,285.1,370.9,280.9,370.9z"/>
			<path class="st19" d="M259.6,338.6l13.5,7.8c0.8,0.5,0.8,1.7,0,2.2l-13.5,7.8c-0.8,0.5-1.9-0.1-1.9-1.1v-15.5
				C257.7,338.7,258.8,338.1,259.6,338.6z"/>
		</g>
		<g>
			
				<rect x="295.6" y="326.3" transform="matrix(-1.836970e-16 1 -1 -1.836970e-16 633.8777 30.5172)" class="st6" width="12.1" height="11.8"/>
			
				<rect x="295.6" y="342.3" transform="matrix(-1.836970e-16 1 -1 -1.836970e-16 649.9285 46.568)" class="st20" width="12.1" height="11.8"/>
			
				<rect x="295.6" y="358" transform="matrix(-1.836970e-16 1 -1 -1.836970e-16 665.6222 62.2617)" class="st18" width="12.1" height="11.8"/>
		</g>
		<g>
			<g>
				<g>
					<path class="st21" d="M266.5,94.6c-0.4,0-0.8-0.3-0.9-0.7l-1.5-4.5h-7.6l-1.5,4.5c-0.1,0.4-0.5,0.7-0.9,0.7h-5.5
						c-0.3,0-0.6-0.2-0.8-0.4s-0.2-0.6-0.1-0.9l9.3-25c0.1-0.4,0.5-0.7,0.9-0.7h4.8c0.4,0,0.8,0.3,0.9,0.6l9.4,25
						c0.1,0.3,0.1,0.7-0.1,0.9c-0.2,0.3-0.5,0.4-0.8,0.4H266.5z M262,83.3l-1.7-5.2l-1.7,5.2H262z"/>
					<path class="st19" d="M262.7,68.6l9.4,25h-5.5l-1.7-5.2h-9l-1.7,5.2h-5.5l9.3-25H262.7 M257.2,84.3h6.2l-3.1-9.4L257.2,84.3
						 M262.7,66.6h-4.8c-0.8,0-1.6,0.5-1.9,1.3l-9.3,25c-0.2,0.6-0.1,1.3,0.2,1.8c0.4,0.5,1,0.9,1.6,0.9h5.5c0.9,0,1.6-0.6,1.9-1.4
						l1.3-3.8h6.2l1.3,3.8c0.3,0.8,1,1.4,1.9,1.4h5.5c0.7,0,1.3-0.3,1.6-0.9c0.4-0.5,0.5-1.2,0.2-1.8l-9.4-25
						C264.2,67.1,263.5,66.6,262.7,66.6L262.7,66.6z M259.9,82.3l0.3-1l0.4,1H259.9L259.9,82.3z"/>
				</g>
				<g>
					<path class="st19" d="M281.7,75l0.2,2.1c0.6-0.8,1.4-1.4,2.3-1.8c0.9-0.4,1.9-0.6,3-0.6c0.9,0,1.7,0.1,2.4,0.4
						c0.7,0.2,1.3,0.7,1.9,1.2c0.5,0.6,0.9,1.3,1.2,2.2c0.3,0.9,0.4,2,0.4,3.3v11.8h-5V81.7c0-0.6-0.1-1.1-0.2-1.5
						c-0.1-0.4-0.3-0.7-0.6-0.9c-0.3-0.2-0.6-0.4-0.9-0.5c-0.4-0.1-0.8-0.1-1.3-0.1c-0.7,0-1.4,0.2-1.9,0.5
						c-0.5,0.3-0.9,0.8-1.3,1.3v13.1h-5V75H281.7z"/>
				</g>
				<g>
					<path class="st19" d="M302.6,75l0.2,2.1c0.6-0.8,1.4-1.4,2.3-1.8c0.9-0.4,1.9-0.6,3-0.6c0.9,0,1.7,0.1,2.4,0.4
						c0.7,0.2,1.3,0.7,1.9,1.2c0.5,0.6,0.9,1.3,1.2,2.2c0.3,0.9,0.4,2,0.4,3.3v11.8h-5V81.7c0-0.6-0.1-1.1-0.2-1.5
						c-0.1-0.4-0.3-0.7-0.6-0.9c-0.3-0.2-0.6-0.4-0.9-0.5c-0.4-0.1-0.8-0.1-1.3-0.1c-0.7,0-1.4,0.2-1.9,0.5
						c-0.5,0.3-0.9,0.8-1.3,1.3v13.1h-5V75H302.6z"/>
				</g>
				<g>
					<path class="st19" d="M318.9,70.2c0-0.7,0.2-1.4,0.7-1.8c0.5-0.5,1.2-0.7,2-0.7c0.4,0,0.8,0.1,1.2,0.2c0.3,0.1,0.6,0.3,0.9,0.5
						c0.2,0.2,0.4,0.5,0.6,0.8c0.1,0.3,0.2,0.7,0.2,1c0,0.4-0.1,0.7-0.2,1c-0.1,0.3-0.3,0.6-0.6,0.8c-0.2,0.2-0.5,0.4-0.9,0.5
						c-0.3,0.1-0.7,0.2-1.2,0.2c-0.4,0-0.8-0.1-1.1-0.2c-0.3-0.1-0.6-0.3-0.9-0.5c-0.2-0.2-0.4-0.5-0.6-0.8
						C319,70.9,318.9,70.6,318.9,70.2z M324.2,93.6h-5V75h5V93.6z"/>
				</g>
				<g>
					<path class="st19" d="M338.1,93.9c-1.4,0-2.7-0.2-3.9-0.7c-1.1-0.5-2.1-1.1-2.9-1.9c-0.8-0.8-1.4-1.8-1.8-2.9
						c-0.4-1.1-0.6-2.3-0.6-3.5v-0.7c0-1.4,0.2-2.7,0.6-3.9c0.4-1.2,1-2.2,1.7-3c0.8-0.8,1.7-1.5,2.7-2c1.1-0.5,2.3-0.7,3.6-0.7
						c1.3,0,2.5,0.2,3.5,0.7c1,0.4,1.9,1.1,2.6,1.9c0.7,0.8,1.2,1.8,1.6,2.9c0.3,1.1,0.5,2.4,0.5,3.7v2.1h-11.8
						c0.1,0.6,0.2,1.2,0.5,1.6c0.2,0.5,0.6,0.9,0.9,1.3c0.4,0.4,0.8,0.6,1.3,0.8c0.5,0.2,1.1,0.3,1.7,0.3c0.9,0,1.7-0.2,2.5-0.5
						c0.8-0.3,1.4-0.9,2-1.6l2.4,2.7c-0.3,0.4-0.7,0.8-1.1,1.2c-0.4,0.4-1,0.8-1.6,1.1c-0.6,0.3-1.3,0.6-2.1,0.8
						C339.8,93.8,339,93.9,338.1,93.9z M337.5,78.7c-0.5,0-1,0.1-1.4,0.3c-0.4,0.2-0.8,0.5-1,0.8c-0.3,0.3-0.5,0.7-0.7,1.2
						c-0.2,0.5-0.3,1-0.4,1.6h6.9v-0.4c0-0.5-0.1-1-0.2-1.4c-0.1-0.4-0.3-0.8-0.6-1.1c-0.3-0.3-0.6-0.5-1-0.7
						C338.6,78.8,338.1,78.7,337.5,78.7z"/>
				</g>
				<g>
					<path class="st19" d="M353.2,69.9c0,0.6-0.1,1.1-0.2,1.7c-0.2,0.6-0.4,1.2-0.7,1.7c-0.3,0.6-0.6,1.1-1,1.6
						c-0.4,0.5-0.8,0.9-1.2,1.3l-2.3-1.4c0.2-0.3,0.4-0.7,0.6-1.1c0.2-0.4,0.3-0.8,0.5-1.2c0.1-0.4,0.2-0.8,0.3-1.3
						c0.1-0.5,0.1-1,0.1-1.5v-2.7h3.9V69.9z"/>
				</g>
				<g>
					<path class="st19" d="M364,88.4c0-0.3-0.1-0.5-0.2-0.7c-0.1-0.2-0.3-0.4-0.6-0.6c-0.3-0.2-0.7-0.4-1.2-0.5
						c-0.5-0.2-1.1-0.3-1.9-0.5c-0.9-0.2-1.8-0.5-2.6-0.8c-0.8-0.3-1.5-0.7-2.1-1.2c-0.6-0.5-1.1-1-1.4-1.6
						c-0.3-0.6-0.5-1.3-0.5-2.1c0-0.8,0.2-1.5,0.5-2.2c0.3-0.7,0.8-1.3,1.5-1.8c0.6-0.5,1.4-1,2.3-1.3c0.9-0.3,2-0.5,3.1-0.5
						c1.2,0,2.3,0.1,3.2,0.4c1,0.3,1.8,0.7,2.4,1.2c0.7,0.5,1.2,1.2,1.5,1.9c0.4,0.7,0.5,1.5,0.5,2.4h-5c0-0.7-0.2-1.3-0.7-1.8
						c-0.5-0.5-1.2-0.7-2.1-0.7c-0.8,0-1.5,0.2-1.9,0.6c-0.5,0.4-0.7,0.9-0.7,1.4c0,0.3,0.1,0.5,0.2,0.7c0.1,0.2,0.3,0.4,0.6,0.6
						c0.3,0.2,0.6,0.3,1.1,0.5c0.4,0.1,1,0.3,1.6,0.4c1,0.2,1.9,0.4,2.8,0.7c0.9,0.3,1.6,0.7,2.2,1.1c0.6,0.5,1.1,1,1.5,1.6
						c0.4,0.6,0.5,1.4,0.5,2.3c0,0.8-0.2,1.6-0.6,2.3c-0.4,0.7-0.9,1.3-1.6,1.8c-0.7,0.5-1.5,0.9-2.5,1.2c-1,0.3-2,0.4-3.2,0.4
						c-1.3,0-2.5-0.2-3.4-0.6c-1-0.4-1.8-0.8-2.5-1.4c-0.7-0.6-1.2-1.3-1.5-2c-0.3-0.7-0.5-1.5-0.5-2.3h4.7c0,0.5,0.1,0.9,0.3,1.2
						c0.2,0.3,0.4,0.6,0.7,0.9c0.3,0.2,0.7,0.4,1.1,0.5c0.4,0.1,0.8,0.2,1.3,0.2c0.9,0,1.7-0.2,2.2-0.5C363.8,89.5,364,89,364,88.4z
						"/>
				</g>
			</g>
			<g>
				<g>
					<path class="st22" d="M238.4,136.8c-0.6,0-1-0.4-1-1v-25c0-0.6,0.4-1,1-1h9.8c1.6,0,3,0.2,4.3,0.7c1.3,0.5,2.4,1.1,3.3,1.9
						c0.9,0.8,1.6,1.8,2.1,3c0.5,1.1,0.7,2.4,0.7,3.7c0,1.3-0.2,2.6-0.7,3.7c-0.5,1.1-1.2,2.1-2.1,2.9c-0.9,0.8-2,1.4-3.3,1.8
						c-1.2,0.4-2.7,0.6-4.3,0.6h-3.6v7.8c0,0.6-0.4,1-1,1H238.4z M248.2,121.8c0.6,0,1.2-0.1,1.6-0.2c0.4-0.1,0.7-0.3,0.9-0.5
						c0.2-0.2,0.4-0.5,0.5-0.8c0.1-0.4,0.2-0.7,0.2-1.2c0-0.4-0.1-0.8-0.2-1.2c-0.1-0.4-0.3-0.7-0.5-1c-0.2-0.3-0.5-0.5-1-0.7
						c-0.4-0.2-0.9-0.3-1.5-0.3h-3.6v5.9H248.2z"/>
					<path class="st19" d="M248.2,110.8c1.5,0,2.8,0.2,4,0.6c1.2,0.4,2.1,1,3,1.7c0.8,0.7,1.4,1.6,1.8,2.6c0.4,1,0.6,2.1,0.6,3.3
						c0,1.2-0.2,2.3-0.6,3.3c-0.4,1-1,1.8-1.8,2.5c-0.8,0.7-1.8,1.2-3,1.6c-1.2,0.4-2.5,0.6-4,0.6h-4.6v8.8h-5.2v-25H248.2
						 M243.6,122.8h4.6c0.7,0,1.4-0.1,1.9-0.3c0.5-0.2,1-0.4,1.3-0.8c0.3-0.3,0.6-0.7,0.7-1.2c0.2-0.5,0.2-1,0.2-1.5
						c0-0.5-0.1-1.1-0.2-1.6c-0.2-0.5-0.4-0.9-0.7-1.3c-0.3-0.4-0.8-0.7-1.3-0.9c-0.5-0.2-1.2-0.3-1.9-0.3h-4.6V122.8 M248.2,108.8
						h-9.8c-1.1,0-2,0.9-2,2v25c0,1.1,0.9,2,2,2h5.2c1.1,0,2-0.9,2-2V129h2.6c1.7,0,3.2-0.2,4.6-0.7c1.4-0.5,2.6-1.1,3.6-2
						c1-0.9,1.8-2,2.4-3.2c0.5-1.2,0.8-2.6,0.8-4.1c0-1.5-0.3-2.8-0.8-4.1c-0.5-1.3-1.3-2.4-2.3-3.3c-1-0.9-2.2-1.6-3.6-2.1
						C251.4,109,249.9,108.8,248.2,108.8L248.2,108.8z M245.6,117h2.6c0.5,0,0.8,0.1,1.1,0.2c0.2,0.1,0.5,0.2,0.6,0.4
						c0.2,0.2,0.3,0.4,0.3,0.6c0.1,0.3,0.1,0.6,0.1,0.9c0,0.3,0,0.6-0.1,0.8c-0.1,0.2-0.1,0.3-0.3,0.4c-0.1,0.1-0.3,0.2-0.6,0.3
						c-0.3,0.1-0.7,0.2-1.2,0.2h-2.6V117L245.6,117z"/>
				</g>
				<g>
					<path class="st19" d="M261,126.3c0-1.4,0.2-2.6,0.6-3.8c0.4-1.2,1-2.2,1.7-3c0.7-0.8,1.7-1.5,2.8-2c1.1-0.5,2.3-0.7,3.7-0.7
						c1.4,0,2.7,0.2,3.8,0.7c1.1,0.5,2,1.1,2.8,2c0.8,0.8,1.3,1.8,1.7,3c0.4,1.2,0.6,2.4,0.6,3.8v0.4c0,1.4-0.2,2.6-0.6,3.8
						c-0.4,1.2-1,2.1-1.7,3c-0.7,0.8-1.7,1.5-2.8,2c-1.1,0.5-2.3,0.7-3.7,0.7c-1.4,0-2.7-0.2-3.8-0.7c-1.1-0.5-2-1.1-2.8-2
						c-0.8-0.8-1.3-1.8-1.7-3c-0.4-1.2-0.6-2.4-0.6-3.8V126.3z M266,126.7c0,0.8,0.1,1.5,0.2,2.1c0.1,0.7,0.4,1.2,0.7,1.7
						c0.3,0.5,0.7,0.9,1.2,1.2c0.5,0.3,1.1,0.4,1.8,0.4c0.7,0,1.3-0.1,1.8-0.4c0.5-0.3,0.9-0.7,1.2-1.2c0.3-0.5,0.5-1.1,0.7-1.7
						c0.1-0.7,0.2-1.4,0.2-2.1v-0.4c0-0.7-0.1-1.4-0.2-2.1c-0.1-0.7-0.4-1.2-0.7-1.7c-0.3-0.5-0.7-0.9-1.2-1.2
						c-0.5-0.3-1.1-0.4-1.8-0.4c-0.7,0-1.3,0.1-1.8,0.4c-0.5,0.3-0.9,0.7-1.2,1.2c-0.3,0.5-0.5,1.1-0.7,1.7
						c-0.1,0.7-0.2,1.4-0.2,2.1V126.7z"/>
				</g>
				<g>
					<path class="st19" d="M293.3,121.9c-0.2,0-0.5-0.1-0.9-0.1c-0.3,0-0.6,0-0.9,0c-1,0-1.8,0.2-2.4,0.5c-0.6,0.3-1,0.8-1.3,1.4
						v12.2h-5v-18.6h4.7l0.1,2.2c0.5-0.8,1-1.4,1.7-1.9c0.7-0.5,1.5-0.7,2.4-0.7c0.3,0,0.5,0,0.8,0.1c0.3,0,0.5,0.1,0.7,0.2
						L293.3,121.9z"/>
				</g>
				<g>
					<path class="st19" d="M303.7,112.6v4.6h3.2v3.6h-3.2v9.3c0,0.4,0,0.7,0.1,1c0.1,0.3,0.2,0.5,0.4,0.6c0.2,0.1,0.4,0.2,0.6,0.3
						c0.2,0.1,0.5,0.1,0.8,0.1c0.3,0,0.6,0,0.8,0c0.2,0,0.5-0.1,0.6-0.1v3.8c-0.4,0.1-0.9,0.2-1.3,0.3c-0.5,0.1-1,0.1-1.7,0.1
						c-0.8,0-1.5-0.1-2.2-0.3c-0.7-0.2-1.2-0.5-1.7-1c-0.5-0.4-0.8-1-1.1-1.7c-0.3-0.7-0.4-1.5-0.4-2.5v-9.8h-2.7v-3.6h2.7v-4.6
						H303.7z"/>
				</g>
				<g>
					<path class="st19" d="M312.3,135.8v-14.9h-2.8v-3.6h2.8v-1.6c0-1.1,0.2-2,0.5-2.8c0.3-0.8,0.8-1.5,1.4-2.1
						c0.6-0.6,1.3-1,2.1-1.3c0.8-0.3,1.8-0.4,2.8-0.4c0.5,0,0.9,0,1.3,0.1c0.4,0.1,0.8,0.1,1.2,0.2l-0.1,3.8
						c-0.4-0.1-0.9-0.2-1.5-0.2c-0.9,0-1.6,0.2-2.1,0.6c-0.5,0.4-0.7,1.1-0.7,1.9v1.6h3.7v3.6h-3.7v14.9H312.3z"/>
				</g>
				<g>
					<path class="st19" d="M324,126.3c0-1.4,0.2-2.6,0.6-3.8c0.4-1.2,1-2.2,1.7-3c0.7-0.8,1.7-1.5,2.8-2c1.1-0.5,2.3-0.7,3.7-0.7
						c1.4,0,2.7,0.2,3.8,0.7c1.1,0.5,2,1.1,2.8,2c0.7,0.8,1.3,1.8,1.7,3c0.4,1.2,0.6,2.4,0.6,3.8v0.4c0,1.4-0.2,2.6-0.6,3.8
						c-0.4,1.2-1,2.1-1.7,3c-0.8,0.8-1.7,1.5-2.8,2c-1.1,0.5-2.3,0.7-3.7,0.7c-1.4,0-2.7-0.2-3.8-0.7c-1.1-0.5-2-1.1-2.8-2
						c-0.8-0.8-1.3-1.8-1.7-3c-0.4-1.2-0.6-2.4-0.6-3.8V126.3z M328.9,126.7c0,0.8,0.1,1.5,0.2,2.1c0.1,0.7,0.4,1.2,0.7,1.7
						c0.3,0.5,0.7,0.9,1.2,1.2c0.5,0.3,1.1,0.4,1.8,0.4c0.7,0,1.3-0.1,1.8-0.4c0.5-0.3,0.9-0.7,1.2-1.2c0.3-0.5,0.5-1.1,0.7-1.7
						c0.1-0.7,0.2-1.4,0.2-2.1v-0.4c0-0.7-0.1-1.4-0.2-2.1c-0.1-0.7-0.4-1.2-0.7-1.7c-0.3-0.5-0.7-0.9-1.2-1.2
						c-0.5-0.3-1.1-0.4-1.8-0.4c-0.7,0-1.3,0.1-1.8,0.4c-0.5,0.3-0.9,0.7-1.2,1.2c-0.3,0.5-0.5,1.1-0.7,1.7
						c-0.1,0.7-0.2,1.4-0.2,2.1V126.7z"/>
				</g>
				<g>
					<path class="st19" d="M351.1,135.8h-5v-26.4h5V135.8z"/>
				</g>
				<g>
					<path class="st19" d="M356.4,112.4c0-0.7,0.3-1.4,0.8-1.8c0.5-0.5,1.2-0.7,2-0.7c0.4,0,0.8,0.1,1.2,0.2
						c0.3,0.1,0.6,0.3,0.9,0.5c0.2,0.2,0.4,0.5,0.6,0.8c0.1,0.3,0.2,0.7,0.2,1c0,0.4-0.1,0.7-0.2,1c-0.1,0.3-0.3,0.6-0.6,0.8
						c-0.2,0.2-0.5,0.4-0.9,0.5c-0.3,0.1-0.7,0.2-1.2,0.2c-0.4,0-0.8-0.1-1.2-0.2c-0.3-0.1-0.6-0.3-0.9-0.5
						c-0.2-0.2-0.4-0.5-0.6-0.8C356.4,113.1,356.4,112.8,356.4,112.4z M361.6,135.8h-5v-18.6h5V135.8z"/>
				</g>
				<g>
					<path class="st19" d="M366.2,126.3c0-1.4,0.2-2.6,0.6-3.8c0.4-1.2,1-2.2,1.7-3c0.7-0.8,1.7-1.5,2.8-2c1.1-0.5,2.3-0.7,3.7-0.7
						c1.4,0,2.7,0.2,3.8,0.7c1.1,0.5,2,1.1,2.8,2c0.7,0.8,1.3,1.8,1.7,3c0.4,1.2,0.6,2.4,0.6,3.8v0.4c0,1.4-0.2,2.6-0.6,3.8
						c-0.4,1.2-1,2.1-1.7,3c-0.8,0.8-1.7,1.5-2.8,2c-1.1,0.5-2.3,0.7-3.7,0.7c-1.4,0-2.7-0.2-3.8-0.7c-1.1-0.5-2-1.1-2.8-2
						c-0.7-0.8-1.3-1.8-1.7-3c-0.4-1.2-0.6-2.4-0.6-3.8V126.3z M371.1,126.7c0,0.8,0.1,1.5,0.2,2.1c0.1,0.7,0.4,1.2,0.7,1.7
						c0.3,0.5,0.7,0.9,1.2,1.2c0.5,0.3,1.1,0.4,1.8,0.4c0.7,0,1.3-0.1,1.8-0.4c0.5-0.3,0.9-0.7,1.2-1.2c0.3-0.5,0.5-1.1,0.7-1.7
						s0.2-1.4,0.2-2.1v-0.4c0-0.7-0.1-1.4-0.2-2.1c-0.1-0.7-0.4-1.2-0.7-1.7c-0.3-0.5-0.7-0.9-1.2-1.2c-0.5-0.3-1.1-0.4-1.8-0.4
						c-0.7,0-1.3,0.1-1.8,0.4c-0.5,0.3-0.9,0.7-1.2,1.2c-0.3,0.5-0.5,1.1-0.7,1.7c-0.1,0.7-0.2,1.4-0.2,2.1V126.7z"/>
				</g>
			</g>
		</g>
	</g>
	<g>
		<path class="st23" d="M258,423.7c1.1,19-9.7,38.6-33.4,46.2c-21.8,7-45.6,7.1-67.1-2.5c-39-17.5-17.7-59.5,9.3-76.1
			c12.5-7.7,27.8-12.2,43.2-11.6C240.2,381,256.8,402,258,423.7"/>
		<path class="st6" d="M252.8,415.3c1.1,19-9.7,38.6-33.4,46.2c-21.8,7-45.6,7.1-67.1-2.5c-39-17.5-17.7-59.5,9.3-76.1
			c12.5-7.7,27.8-12.2,43.2-11.6C234.9,372.6,251.5,393.6,252.8,415.3"/>
		<path class="st19" d="M178.2,439.9c-6.7-0.4-13.4-1.9-19.4-4.7c-30.4-14-10.1-42.4,13.6-52.8c10.3-4.5,21.6-6.5,31.7-5.4
			c0.7,0.1,1.4,0.2,2,0.2c8.5,1.2,14.7,4.4,19.1,9.8c4.5,5.5,6.7,13,6,20.7C229.5,428.2,203,441.5,178.2,439.9z"/>
	</g>
	<g>
		<path class="st24" d="M166.8,363.6c4.6,6.3-2.4,19.3-15.6,29c-13.2,9.7-27.7,12.4-32.3,6.2c-4.6-6.3,2.4-19.3,15.6-29
			C147.7,360,162.2,357.3,166.8,363.6z"/>
		<path class="st24" d="M221,405.6c0,24.4-18.7,34.6-41.7,34.6c-23,0-41.7-10.2-41.7-34.6c0-24.4,18.7-53.8,41.7-53.8
			C202.3,351.7,221,381.1,221,405.6z"/>
		<g>
			<path class="st19" d="M210.4,273.7c0,0,8.4-2.9,10.8,3.2c0,0-8.4-2.2-6.7,3.6"/>
			<path class="st19" d="M212.4,275.3c0,0,0.9-8.9-5.6-9.8c0,0,4.1,7.7-2,7.4"/>
		</g>
		<path class="st19" d="M112.6,348.1c0,0.3,0,0.5,0,0.8c-0.2,3.8,0.9,8.5,3.5,11.4c2.8,3,8.3,3.6,12.2,4.1c2.1,0.3,4.4,0.5,6.4,0
			c4-1.1,5.7-4.6,6.7-7.7c2.9-9.1,3.5-18.5,4-27.9c0.4-7.9,1.1-19.5-7.8-25.3c-6-3.9-8.7-2.8-11.3,2.4c-3.6,7.2-2.8,15.5-5.8,22.9
			c-1.3,3.1-3.2,6-4.7,9C114.1,341,112.8,344.5,112.6,348.1z"/>
		<path class="st25" d="M176.1,406.6c17.1-1.9,31.2,5.5,32.3,15.4c1.1,10-11.3,18.9-28.3,20.7c-17.1,1.9-32.4-4-33.5-14
			C145.5,418.8,159.1,408.5,176.1,406.6z"/>
		<path class="st25" d="M199,390.4c-1.5-6.3-11.9-9.2-23.2-6.5c-11.3,2.7-19.2,10.1-17.7,16.4c1.5,6.3,11.9,9.2,23.2,6.5
			C192.6,404.1,200.5,396.7,199,390.4z"/>
		<path class="st26" d="M220.3,334c0,29.9-21.4,41.9-47.7,41.9c-14.2,0-31.8-3.6-40.4-16.3c-4.4-6.6-1.6-10.6,0.3-17.5
			c2-7.5,0.2-14.6-0.8-22c-1.2-8.4,2.5-18.8,6-26.3c6.4-13.6,18.9-26,34.8-26C199,267.6,220.3,304.1,220.3,334z"/>
		<g>
			<g>
				<g>
					<path class="st19" d="M154,342.2c0,4.2-3.4,7.6-7.6,7.6c-4.2,0-7.6-3.4-7.6-7.6c0-4.2,3.4-7.6,7.6-7.6
						C150.6,334.7,154,338.1,154,342.2z"/>
				</g>
				<g>
					<path class="st27" d="M147.4,347.7c-1.7,0-3.2-1.4-3.2-3.2c0-1.7,1.4-3.2,3.2-3.2s3.2,1.4,3.2,3.2
						C150.5,346.3,149.1,347.7,147.4,347.7z"/>
				</g>
			</g>
			<g>
				<path class="st27" d="M144.2,340.5c-1,0-1.7-0.8-1.7-1.7c0-1,0.8-1.7,1.7-1.7c1,0,1.7,0.8,1.7,1.7
					C145.9,339.8,145.1,340.5,144.2,340.5z"/>
			</g>
		</g>
		<path class="st21" d="M187.2,363.5c-0.5,1.5-3.6,1.8-6.9,0.7c-3.3-1.1-5.6-3.2-5.2-4.6c0.5-1.5,3.6-1.8,6.9-0.7
			C185.4,360,187.7,362,187.2,363.5z"/>
		<path class="st21" d="M148.6,354.6c-0.5,1.5-3.6,1.8-6.9,0.7c-3.3-1.1-5.6-3.2-5.2-4.6c0.5-1.5,3.6-1.8,6.9-0.7
			C146.8,351.1,149.1,353.2,148.6,354.6z"/>
		<g>
			<g>
				<g>
					<path class="st19" d="M191.4,350.8c0,4.2-3.4,7.6-7.6,7.6c-4.2,0-7.6-3.4-7.6-7.6c0-4.2,3.4-7.6,7.6-7.6
						C188,343.3,191.4,346.6,191.4,350.8z"/>
				</g>
				<g>
					<path class="st27" d="M184.7,356.3c-1.7,0-3.2-1.4-3.2-3.2c0-1.7,1.4-3.2,3.2-3.2c1.7,0,3.2,1.4,3.2,3.2
						C187.9,354.9,186.5,356.3,184.7,356.3z"/>
				</g>
			</g>
			<g>
				<path class="st27" d="M181.6,349.1c-1,0-1.7-0.8-1.7-1.7c0-1,0.8-1.7,1.7-1.7c1,0,1.7,0.8,1.7,1.7
					C183.3,348.4,182.5,349.1,181.6,349.1z"/>
			</g>
		</g>
		<path class="st19" d="M123.6,313.4c-0.7,9.6,2.2,18.7,11,24.5c0-5.5,4.7-10.1,9.9-11.7c5.2-1.6,10.9-0.7,16.2,0.5
			c9.5,2.3,18.6,6,27.2,10.5c7.2,3.8,11.9,10.6,14.9,18c1,2.4,2.2,4.4,2.5,7c0.1,0.7-0.2,8.5-1,8.2c7.8,2.7,16.8-0.8,22.4-6.8
			c5.6-6.1,8.4-14.2,10-22.3c3.9-19.8,0.9-41.9-12.5-56.9c-13.1-14.8-34.5-20.4-54.1-17.6c-10.1,1.5-20.1,5.1-28.1,11.4
			C132.8,285.7,124.6,300,123.6,313.4z"/>
		<path class="st19" d="M195.2,303.7c2,7.1,3.3,14.5,4.2,21.8c1.3,11.5,2.7,27.7-5.3,37.1c-1,1.2-2.1,2.2-2.9,3.6
			c-0.8,1.3-1.1,3-0.4,4.4c0.8,1.6,2.6,2.2,4.2,2.6c4.5,1.2,9.1,1.7,13.7,1.8c3.6,0,7.3-0.3,10.5-1.9c8.3-3.9,14-14.2,16.9-22.9
			c3.9-11.4,3.4-23.9,1.3-35.6C231.3,280.4,195.2,303.7,195.2,303.7z"/>
		<path class="st28" d="M196.4,357.3c-2.4,7.9-10,11.7-17.2,9.5c-7.2-2.2-11.4-9.5-9-17.5c2.4-7.9,9.4-9.9,16.6-7.7
			C194.1,343.9,198.8,349.4,196.4,357.3z"/>
		<path class="st28" d="M156.9,348.3c-2.3,7.6-9.3,11.3-16,9.3c-6.7-2-10.4-9-8.1-16.6c2.3-7.6,8.8-9.6,15.5-7.5
			C154.9,335.4,159.2,340.6,156.9,348.3z"/>
		<line class="st28" x1="156.9" y1="348.3" x2="169" y2="351.6"/>
		<path class="st29" d="M162.3,361.9c-0.2,0.8-1.7,1.2-3.3,0.7c-1.6-0.4-2.7-1.5-2.4-2.3"/>
		<path class="st25" d="M160.7,408.4l0.1,2.5c0,0,0,0,0,0C160.8,409.3,160.7,408.4,160.7,408.4z"/>
		<path class="st25" d="M160.9,410.9l1.7,31c0.1,0,0.2,0,0.3,0.1C162.2,429.8,161.3,416.3,160.9,410.9
			C160.9,410.9,160.9,410.9,160.9,410.9z"/>
		<path class="st26" d="M125.5,444c3.1,6.9,7.8,12,13,12c4.3,0,8.1-3.4,11.1-8.2L125.5,444z"/>
		<path class="st30" d="M184.1,382.1c0,3-2.4,5.3-5.3,5.3s-5.3-2.4-5.3-5.3c0-3,2.4-5.3,5.3-5.3S184.1,379.2,184.1,382.1z"/>
		<path class="st24" d="M208.4,422.1c-0.4-3.3-2.2-6.4-4.7-8.7c-3.4-3.1-7.8-4.8-12.3-5.8c-4.9-1.1-10.1-1.5-15.1-1.1
			c-3.3,0.3-12.7,0.7-14.9,3.5c-1.1,1.4-0.4,4.2-0.3,5.9c0.2,3,0.4,6,0.5,9c0.4,6,0.7,11.9,1.1,17.9c0,0.4,0.1,0.8,0.3,1
			c0.2,0.2,0.6,0.3,0.9,0.3c12.1,1.5,24.7-1.2,35.1-7.5c4.2-2.6,8.3-6.1,9.3-10.9C208.5,424.5,208.6,423.3,208.4,422.1z"/>
		<path class="st25" d="M160.7,380.6"/>
		<path class="st26" d="M158.1,400.3c1.4,5.7,10,8.6,20,7.1l-6.5-22.2C162.6,388.5,156.8,394.8,158.1,400.3z"/>
		<path class="st24" d="M155,426.7c0-3.6-0.6-7.2-2.3-10.3c-3.1-5.8-10-9.3-16.5-8.5c-15.8,2.1-16,21.5-15.1,33.7
			c0,0.6,0.1,1.2,0.5,1.6c0.4,0.5,1.1,0.6,1.7,0.7c9.2,1.3,18.4,2.7,27.7,4c0.3,0,0.7,0.1,1-0.1c0.2-0.2,0.3-0.5,0.4-0.8
			c0.9-4.7,1.8-9.3,2.3-14.1C154.9,430.8,155,428.7,155,426.7z"/>
		<polygon class="st31" points="157.4,375.1 151,386.1 163.7,386.1 		"/>
		<g>
			<path class="st32" d="M147.8,371.8l9.6,31.6c0.1,0.4,0.4,0.6,0.8,0.6l26.1,2c0.5,0,0.8,0.4,0.8,0.9v1.6c0,0.5-0.4,0.9-0.9,0.9
				l-71.5-1.3c-0.4,0-0.7-0.2-0.8-0.6l-12.6-32.9c-0.2-0.6,0.2-1.2,0.8-1.2l46.7-2.2C147.3,371.2,147.6,371.4,147.8,371.8z"/>
		</g>
		<g>
			<path class="st33" d="M129.1,388.8c-0.7-0.7-1.6-1-2.5-0.9l0,0c0,0-0.1,0-0.1,0c-0.3,0-0.6,0.2-0.8,0.3c-0.7-0.4-1.4-0.4-2.1-0.2
				c-0.8,0.3-1.5,1-1.8,1.8c-0.6,1.6,0,3.4,1.3,4.3c0.4,0.3,0.9,0.4,1.4,0.4c0.5,0,0.9-0.1,1.3-0.4c0.6,0.3,1.3,0.4,2,0.2
				c0.8-0.2,1.4-0.7,1.8-1.5C130.3,391.6,130.1,389.8,129.1,388.8z"/>
			<path class="st33" d="M124.3,385.6c0.6,0.2,0.9,0.5,1.1,1.2c0.1,0.5,0.1,0.9,0.1,0.9c0,0.1,0.1,0.3,0.2,0.3c0,0,0,0,0,0
				c0.1,0,0.2-0.1,0.3-0.2c0,0,0.1-0.5-0.1-1.1c-0.2-0.8-0.7-1.3-1.5-1.5c-0.1,0-0.3,0-0.3,0.2C124.1,385.4,124.2,385.6,124.3,385.6
				z"/>
			<path class="st33" d="M126.4,387.7c0,0,0.1,0.1,0.2,0.1c0,0,0,0,0,0c1.4-0.2,2.4-0.5,3-1.1c0.6-0.6,0.7-1.2,0.8-1.7
				c0-0.1,0-0.2,0-0.2c0-0.1-0.1-0.1-0.2-0.1c0,0,0,0,0,0c-0.9,0-1.6,0.2-2.2,0.5c-0.5,0.2-0.9,0.6-1.2,1c-0.5,0.7-0.5,1.4-0.5,1.4
				C126.3,387.6,126.3,387.6,126.4,387.7z"/>
		</g>
		<path class="st24" d="M213.4,374.4c-0.9-1-1.9-1.8-3-2.5c-3.2-1.8-6.9-2.2-10.4-1.4c-3.5,0.8-6.8,2.6-9.7,4.8
			c-4.5,3.3-8.7,7.8-14,8.5c-0.9,0.1-1.9,0.1-2.8,0.4c-0.7,0.2-1.5,0.6-1.9,1.3c-0.6,0.9-0.1,1.9,0.1,2.8c0.5,2.3,1,4.6,1.6,6.9
			c1.1,4.6,2.4,9.1,3.7,13.6c0.3,1.1,0.7,2.3,1.6,2.9c0.7,0.5,1.6,0.5,2.4,0.3c3.2-0.4,6.1-2,9.1-3.3c6.7-2.9,14.2-4.5,19.5-9.9
			c2.7-2.8,4.7-6.4,5.9-10.2c0.8-2.4,1.3-5,1-7.5C216.2,378.7,215,376.3,213.4,374.4z"/>
		<path class="st30" d="M193.7,434.9c0,3-2.4,5.3-5.3,5.3c-3,0-5.3-2.4-5.3-5.3c0-3,2.4-5.3,5.3-5.3
			C191.3,429.6,193.7,432,193.7,434.9z"/>
		<path class="st30" d="M207.4,396.7c0,3-2.4,5.3-5.3,5.3c-3,0-5.3-2.4-5.3-5.3s2.4-5.3,5.3-5.3
			C205.1,391.4,207.4,393.8,207.4,396.7z"/>
		<path class="st30" d="M132.1,426.7c0,3-2.4,5.3-5.3,5.3c-3,0-5.3-2.4-5.3-5.3c0-3,2.4-5.3,5.3-5.3
			C129.7,421.4,132.1,423.7,132.1,426.7z"/>
		<polygon class="st31" points="194,409 187.7,420 200.4,420 		"/>
		<polygon class="st31" points="182.3,389.5 175.9,400.5 188.6,400.5 		"/>
		<polygon class="st31" points="143,409.1 136.7,420.1 149.4,420.1 		"/>
		
			<rect x="164" y="419.5" transform="matrix(0.7071 0.7071 -0.7071 0.7071 350.0002 4.7212)" class="st34" width="10.7" height="10.7"/>
		<rect x="195.5" y="372.5" class="st34" width="10.7" height="10.7"/>
		
			<rect x="141.8" y="432.3" transform="matrix(0.9579 -0.2871 0.2871 0.9579 -119.4565 60.6544)" class="st34" width="10.7" height="10.7"/>
		<rect x="207.6" y="406.6" class="st34" width="10.7" height="10.7"/>
		<path class="st26" d="M146.6,428.8c0.7,6.3,7.1,11,16,13.1l-1.7-31C151.8,415.2,145.9,422.1,146.6,428.8z"/>
	</g>
	<g>
		<path class="st20" d="M365.6,426.9c-1.1,19,9.7,38.6,33.4,46.2c21.8,7,45.6,7.1,67.1-2.5c39-17.5,17.7-59.5-9.3-76.1
			c-12.5-7.7-27.8-12.2-43.2-11.6C383.5,384.1,366.8,405.1,365.6,426.9"/>
		<path class="st35" d="M370.9,418.5c-1.1,19,9.7,38.6,33.4,46.2c21.8,7,45.6,7.1,67.1-2.5c39-17.5,17.7-59.5-9.3-76.1
			c-12.5-7.7-27.8-12.2-43.2-11.6C388.8,375.8,372.1,396.7,370.9,418.5"/>
		<path class="st19" d="M445.4,443c6.7-0.4,13.4-1.9,19.4-4.7c30.4-14,10.1-42.4-13.6-52.8c-10.3-4.5-21.6-6.5-31.7-5.4
			c-0.7,0.1-1.4,0.2-2,0.2c-8.5,1.2-14.7,4.4-19.1,9.8c-4.5,5.5-6.7,13-6,20.7C394.2,431.3,420.6,444.6,445.4,443z"/>
	</g>
	<g>
		<path class="st36" d="M400.9,407.1c0,24.7,18.9,35,42.2,35c23.3,0,42.2-10.3,42.2-35c0-24.7-18.9-54.4-42.2-54.4
			C419.8,352.7,400.9,382.3,400.9,407.1z"/>
		<path class="st25" d="M464.6,401.7c1.6-6.4-6.5-13.8-17.9-16.6c-11.4-2.8-22,0.2-23.5,6.6c-1.6,6.4,6.5,13.8,17.9,16.6
			C452.5,411.1,463,408.1,464.6,401.7z"/>
		<g>
			<path class="st37" d="M472.1,388.5c-0.3,2.7-2.4,4.7-4.8,4.5c-0.8-0.1-1.5-0.4-2.1-0.9c-0.7,0.4-1.4,0.5-2.2,0.4
				c-2.4-0.2-4.1-2.6-3.8-5.3c0.3-2.7,2.4-4.7,4.8-4.5c0.8,0.1,1.5,0.4,2.1,0.9c0.7-0.4,1.4-0.5,2.2-0.4
				C470.6,383.4,472.3,385.8,472.1,388.5z"/>
			<path class="st38" d="M464.9,381.9c0,0,0.4-4-5.6-4.8C459.6,378.7,460,380.9,464.9,381.9z"/>
			<path class="st39" d="M460.7,383.6c-1.7,1.6-2.3,4.3-1.3,6.4c1,2.2,3.5,3.5,5.8,2.4c1.3,0.9,2.9,1.1,4.3,0.4
				c2.3-1.1,3.4-4.1,2.6-6.5c-0.8-2.6-3.5-4.3-6.1-3.1c-0.3-0.2-0.8-0.6-1.2-0.6c-0.1,0-0.1,0-0.2-0.1c-0.2-0.1-0.5-0.1-0.7-0.1
				C462.8,382.3,461.6,382.8,460.7,383.6z M459.6,386.9c0.4-2.2,2.4-4.3,4.8-3.7c0.3,0.1,0.7,0.2,1,0.4c0.7,0.4,1.3,1.1,1.7,1.9
				c0.2,0.4,0.3,0.9,0.4,1.3c0,0.2,0.1,0.5,0.1,0.7c0,0.2-0.1,0.5,0,0.7c0.1,0.2,0.3,0.3,0.5,0.2c0.2-0.1,0.2-0.3,0.2-0.5
				c0-0.5,0-1.1-0.1-1.6c-0.2-0.9-0.7-1.8-1.3-2.5c1.4-0.5,2.9-0.1,3.9,1c1.7,1.9,1.6,5-0.2,6.8c-0.8,0.8-2,1.3-3.2,1.1
				c-0.4-0.1-0.8-0.2-1.1-0.4c-0.3-0.1-0.6-0.5-0.8-0.5c-0.2,0-0.4,0.2-0.6,0.2c-0.2,0.1-0.3,0.1-0.5,0.2c-0.4,0.1-0.7,0.1-1.1,0.1
				C460.5,392,459.2,389.2,459.6,386.9z"/>
			<path class="st39" d="M465.2,392.6c-1,0.5-2.2,0.5-3.2,0.1c-1.2-0.4-2.2-1.4-2.7-2.6c-1-2.2-0.4-5,1.3-6.6c1.2-1,2.7-1.5,4.1-1.1
				c0.1,0,0.1,0,0.2,0.1c0.4,0,0.9,0.4,1.2,0.6c1.1-0.5,2.3-0.5,3.5,0c1.3,0.6,2.3,1.8,2.7,3.2c0.8,2.6-0.4,5.5-2.7,6.7
				c-0.7,0.4-1.5,0.5-2.3,0.4C466.5,393.3,465.8,393,465.2,392.6z M466.2,383.4c-0.3-0.2-0.9-0.6-1.2-0.6c-0.1,0-0.1,0-0.2-0.1
				c-1.4-0.4-2.8,0-3.9,1c-1.7,1.5-2.2,4.2-1.3,6.3c0.5,1.2,1.4,2.1,2.6,2.5c1,0.4,2.1,0.3,3.1-0.1h0.1h0.1c1.2,0.9,2.8,1.1,4.2,0.4
				c2.2-1.1,3.3-3.9,2.6-6.4c-0.4-1.3-1.4-2.5-2.6-3c-0.4-0.2-0.8-0.3-1.2-0.3C467.5,382.9,466.8,383.1,466.2,383.4z M460.4,390.8
				c-0.8-1.1-1.2-2.6-0.9-4c0.2-1.3,1-2.6,2.1-3.3c0.9-0.6,1.9-0.7,2.8-0.5c0.4,0.1,0.7,0.2,1,0.4c0.7,0.4,1.3,1.1,1.7,1.9
				c0.2,0.4,0.3,0.9,0.4,1.4c0,0.2,0.1,0.5,0.1,0.7c0,0.1,0,0.2,0,0.3c0,0.1,0,0.3,0,0.4c0,0.1,0.1,0.1,0.1,0.1s0.1,0,0.2,0
				c0.1-0.1,0.1-0.2,0.1-0.4v-0.1c0-0.5,0-1-0.1-1.5c-0.2-1-0.7-1.8-1.3-2.5l-0.1-0.1l0.2-0.1c1.4-0.5,3-0.2,4.1,1
				c1.7,1.9,1.6,5.1-0.2,7c-0.9,0.9-2.1,1.3-3.3,1.2c-0.4-0.1-0.8-0.2-1.2-0.4c-0.1-0.1-0.2-0.1-0.3-0.2c-0.2-0.1-0.3-0.3-0.5-0.3
				c-0.1,0-0.2,0.1-0.3,0.1c-0.1,0-0.1,0.1-0.2,0.1c-0.2,0.1-0.3,0.1-0.5,0.2c-0.4,0.1-0.8,0.1-1.2,0.1
				C462,392.2,461.1,391.7,460.4,390.8z M465.9,392c0.1,0.1,0.2,0.1,0.3,0.2c0.3,0.2,0.7,0.3,1.1,0.4c1.1,0.2,2.2-0.3,3.1-1.1
				c1.8-1.8,1.9-4.9,0.2-6.7c-1-1-2.4-1.4-3.7-1c0.6,0.7,1,1.5,1.3,2.4c0.1,0.5,0.2,1.1,0.1,1.6v0.1c0,0.2,0,0.4-0.2,0.6
				c-0.1,0.1-0.2,0.1-0.4,0c-0.1-0.1-0.2-0.2-0.3-0.3c0-0.1,0-0.3,0-0.5c0-0.1,0-0.2,0-0.2c0-0.2,0-0.5-0.1-0.7
				c-0.1-0.5-0.2-0.9-0.4-1.3c-0.4-0.8-0.9-1.4-1.6-1.8c-0.3-0.2-0.6-0.3-0.9-0.4c-0.9-0.2-1.8-0.1-2.6,0.5c-1,0.7-1.8,1.9-2,3.1
				c-0.2,1.3,0.1,2.8,0.9,3.8c0.6,0.8,1.5,1.3,2.5,1.4c0.4,0,0.7,0,1.1-0.1c0.2,0,0.3-0.1,0.5-0.1c0.1,0,0.1-0.1,0.2-0.1
				c0.1-0.1,0.3-0.2,0.4-0.1C465.5,391.7,465.7,391.8,465.9,392z"/>
			<path class="st39" d="M466.1,382.6C466.1,382.6,466.2,382.6,466.1,382.6c0.2,0,0.4-0.2,0.3-0.3c0,0,0-0.7,0.2-1.5
				c0.3-1,1-1.6,2-1.8c0.2,0,0.3-0.2,0.2-0.4c0-0.2-0.2-0.3-0.4-0.2c-1.2,0.2-2.1,1-2.5,2.2c-0.3,0.9-0.3,1.7-0.3,1.7
				C465.9,382.5,466,382.6,466.1,382.6z"/>
			<path class="st39" d="M465.7,382.4c0,0,0-0.9,0.3-1.8c0.4-1.3,1.3-2,2.6-2.3c0.2,0,0.5,0.1,0.5,0.3c0,0.2-0.1,0.5-0.3,0.5
				c-0.9,0.2-1.6,0.7-1.9,1.7c-0.2,0.7-0.2,1.4-0.2,1.5c0,0.2-0.2,0.4-0.4,0.5c0,0,0,0-0.1,0C465.9,382.7,465.7,382.6,465.7,382.4z
				 M468.6,378.5c-1.2,0.2-2,1-2.4,2.1c-0.3,0.9-0.3,1.7-0.2,1.7c0,0.1,0.1,0.2,0.2,0.2c0.1,0,0.2-0.1,0.2-0.2c0-0.1,0-0.8,0.2-1.6
				c0.4-1,1.1-1.7,2.1-1.9c0.1,0,0.2-0.1,0.2-0.2C468.8,378.6,468.7,378.5,468.6,378.5z"/>
			<path class="st39" d="M464.9,382.1c-2.2-0.4-3.8-1.2-4.7-2.2c-0.8-1-1-2.1-1.1-2.8c0-0.1,0-0.2,0.1-0.2c0.1-0.1,0.1-0.1,0.2-0.1
				c1.4,0.2,2.6,0.5,3.5,1.1c0.7,0.5,1.3,1,1.7,1.7c0.7,1.2,0.6,2.2,0.6,2.3c0,0.1,0,0.1-0.1,0.2C465,382.1,464.9,382.1,464.9,382.1
				z M460.6,379.5c0.8,0.9,2.1,1.5,4,2c0-0.4-0.1-1-0.5-1.6c-0.3-0.6-0.9-1.1-1.5-1.5c-0.8-0.5-1.8-0.8-2.9-1
				C459.8,378.1,460,378.9,460.6,379.5z"/>
			<path class="st19" d="M464.8,382.2c-2.3-0.4-3.8-1.2-4.7-2.3c-0.9-1-1-2.1-1.1-2.9c0-0.1,0-0.2,0.1-0.3c0.1-0.1,0.2-0.1,0.3-0.1
				c1.4,0.2,2.6,0.6,3.5,1.1c0.8,0.5,1.4,1,1.8,1.7c0.7,1.2,0.6,2.3,0.6,2.3c0,0.1-0.1,0.2-0.2,0.3
				C465.1,382.2,465,382.3,464.8,382.2C464.9,382.2,464.8,382.2,464.8,382.2z M459.2,377.1C459.2,377.1,459.1,377.2,459.2,377.1
				c0.1,0.8,0.3,1.9,1.1,2.8c0.9,1,2.4,1.7,4.6,2.2h0.1l0.1-0.1c0,0,0.1-1.1-0.6-2.2c-0.4-0.7-1-1.2-1.7-1.7
				C461.9,377.6,460.7,377.2,459.2,377.1C459.3,377,459.3,377,459.2,377.1z M464.6,381.6c-2-0.4-3.3-1.1-4.1-2
				c-0.6-0.7-0.8-1.5-0.9-2.2v-0.2h0.2c1.2,0.2,2.2,0.5,3,1c0.7,0.4,1.2,0.9,1.6,1.6c0.4,0.7,0.5,1.3,0.5,1.7v0.2L464.6,381.6z
				 M460.7,379.5c0.7,0.9,2,1.5,3.8,1.9c0-0.4-0.2-0.9-0.5-1.4c-0.3-0.6-0.8-1.1-1.5-1.5c-0.7-0.4-1.6-0.7-2.7-0.9
				C459.9,378.2,460.2,378.8,460.7,379.5z"/>
			<path class="st40" d="M464.8,382.2c-2.3-0.4-3.8-1.2-4.7-2.3c-0.9-1-1-2.1-1.1-2.9c0-0.1,0-0.2,0.1-0.3c0.1-0.1,0.2-0.1,0.3-0.1
				c1.4,0.2,2.6,0.6,3.5,1.1c0.8,0.5,1.4,1,1.8,1.7c0.7,1.2,0.6,2.3,0.6,2.3c0,0.1-0.1,0.2-0.2,0.3
				C465.1,382.2,465,382.3,464.8,382.2z M464.8,382.2 M459.2,377.1C459.2,377.1,459.1,377.2,459.2,377.1c0.1,0.8,0.3,1.9,1.1,2.8
				c0.9,1,2.4,1.7,4.6,2.2h0.1l0.1-0.1c0,0,0.1-1.1-0.6-2.2c-0.4-0.7-1-1.2-1.7-1.7C461.9,377.6,460.7,377.2,459.2,377.1
				C459.3,377,459.3,377,459.2,377.1z M464.6,381.6c-2-0.4-3.3-1.1-4.1-2c-0.6-0.7-0.8-1.5-0.9-2.2v-0.2h0.2c1.2,0.2,2.2,0.5,3,1
				c0.7,0.4,1.2,0.9,1.6,1.6c0.4,0.7,0.5,1.3,0.5,1.7v0.2L464.6,381.6z M460.7,379.5c0.7,0.9,2,1.5,3.8,1.9c0-0.4-0.2-0.9-0.5-1.4
				c-0.3-0.6-0.8-1.1-1.5-1.5c-0.7-0.4-1.6-0.7-2.7-0.9C459.9,378.2,460.2,378.8,460.7,379.5z"/>
			<path class="st39" d="M467.5,389.5c0.2,0,0.3-0.1,0.3-0.3c0-0.2-0.1-0.3-0.3-0.3c-0.2,0-0.3,0.1-0.3,0.3
				C467.2,389.3,467.4,389.5,467.5,389.5z"/>
			<path class="st39" d="M467.1,389.1c0-0.2,0.2-0.4,0.5-0.4c0.2,0,0.4,0.2,0.4,0.5c0,0.2-0.2,0.4-0.5,0.4
				C467.3,389.6,467.1,389.4,467.1,389.1z M467.4,389.2c0,0.1,0.1,0.2,0.2,0.2c0.1,0,0.2-0.1,0.2-0.2c0-0.1-0.1-0.2-0.2-0.2
				C467.5,389,467.4,389.1,467.4,389.2z"/>
		</g>
		<path class="st25" d="M461.9,410l-0.1,2.5C461.8,410.9,461.9,410,461.9,410z"/>
		<path class="st41" d="M489.1,407.8c-13.4-0.8-24.7,7.1-25.8,16.6c-1.1,9.6,8.6,17.3,22,18.1c13.4,0.8,25.6-5.8,26.7-15.3
			C513,417.6,502.5,408.5,489.1,407.8z"/>
		<path class="st42" d="M511.4,427.4c-0.7,6.1-5.8,10.8-12.8,13.4l2-29.7C507.5,414.7,512.1,420.9,511.4,427.4z"/>
		<path class="st41" d="M446.3,408.2c-17.3-1.9-31.5,5.5-32.7,15.6c-1.1,10.1,11.4,19.1,28.7,21c17.3,1.9,32.7-4.1,33.8-14.1
			C477.3,420.5,463.6,410.1,446.3,408.2z"/>
		<path class="st42" d="M475.4,430.8c-0.7,6.4-7.2,11.1-16.2,13.2l1.8-31.4C470.2,417.1,476.1,424,475.4,430.8z"/>
		<path class="st25" d="M410.8,421.8c-3.4,4.2-5.7,9.2-5.8,14.3c0,1.4-0.1,1.9,1.5,1.8c1.8,0,3.6-0.5,5.4-0.7
			c2.2-0.2,4.4-0.3,6.6-0.4c1.6,0,3.6,0.4,5.2,0.1c1.8-0.3,3.6-1.3,5.5-1.8c2-0.5,4.1-0.8,6.3-1c3.1-0.3,6.5,0,9.6-0.4
			c1.3-0.2,2.2-1.1,3.3-1.8c1.3-0.8,2.7-1.5,4.2-2.1c2.9-1.1,6-1.8,9.1-2.1c1.1-0.1,2.6,0.2,3.7-0.1c1.1-0.2,2-1.1,2.8-1.7
			c2-1.5,4.1-3.1,6.5-4.2c2.2-1.1,4.5-1.9,7-2.3c2.6-0.5,4.6-0.4,6.5-2.3c1-0.9,1.2-2.2,2.3-3.2c1.2-1.1,2.8-1.8,4.5-2.2
			c0.7-0.2,1.5-0.4,1.8-0.9c-8.2-3.6-16.8-4.8-25.9-5.9c-9.2-1-18.5-1.3-27.7,0.1c-9.3,1.4-18.3,4.8-25.3,10.2
			C415.6,416.8,413.1,419,410.8,421.8z"/>
		<path class="st29" d="M416.3,416l5.8,20.5"/>
		<path class="st29" d="M423.8,411.4l20.8,21.9"/>
		<path class="st29" d="M434,407.7l31.6,19.9"/>
		<path class="st29" d="M447.6,404.6l36.6,13.9"/>
		<path class="st36" d="M408.7,375.6c0.9-1,1.9-1.9,3-2.5c3.2-1.9,7.1-2.2,10.5-1.4c3.6,0.8,6.9,2.6,9.8,4.9
			c4.5,3.4,8.8,7.9,14.1,8.6c1,0.1,1.9,0.1,2.9,0.4c0.7,0.2,1.5,0.6,2,1.4c0.6,0.9,0.1,1.9-0.1,2.9c-0.5,2.4-1.1,4.7-1.6,7.1
			c-1.1,4.6-2.4,9.2-3.8,13.7c-0.3,1.1-0.8,2.3-1.7,2.9c-0.7,0.5-1.6,0.5-2.5,0.3c-3.2-0.4-6.2-2-9.2-3.3c-6.8-2.9-14.3-4.6-19.7-10
			c-2.7-2.8-4.7-6.5-6-10.3c-0.8-2.5-1.4-5.1-1.1-7.7C405.8,379.8,407,377.5,408.7,375.6z"/>
		<path class="st37" d="M423.4,386.3c-0.3,2.7-2.4,4.7-4.8,4.5c-0.8-0.1-1.5-0.4-2.1-0.9c-0.7,0.4-1.4,0.5-2.2,0.4
			c-2.4-0.2-4.1-2.6-3.8-5.3c0.3-2.7,2.4-4.7,4.8-4.5c0.8,0.1,1.5,0.4,2.1,0.9c0.7-0.4,1.4-0.5,2.2-0.4
			C421.9,381.3,423.6,383.6,423.4,386.3z"/>
		<path class="st38" d="M416.2,379.7c0,0,0.4-4-5.6-4.8C411,376.7,411.4,378.7,416.2,379.7z"/>
		<path class="st39" d="M412.1,381.5c-1.7,1.6-2.3,4.3-1.3,6.4c1,2.2,3.5,3.5,5.8,2.4c1.3,0.9,2.9,1.1,4.3,0.4
			c2.3-1.1,3.4-4.1,2.6-6.5c-0.8-2.6-3.5-4.3-6.1-3.1c-0.3-0.2-0.8-0.6-1.2-0.6c-0.1,0-0.1,0-0.2-0.1c-0.2-0.1-0.5-0.1-0.7-0.1
			C414.2,380.2,413,380.6,412.1,381.5z M411,384.7c0.4-2.2,2.4-4.3,4.8-3.7c0.3,0.1,0.7,0.2,1,0.4c0.7,0.4,1.3,1.1,1.7,1.9
			c0.2,0.4,0.3,0.9,0.4,1.3c0,0.2,0.1,0.5,0.1,0.7c0,0.2-0.1,0.5,0,0.7c0.1,0.2,0.3,0.3,0.5,0.2c0.2-0.1,0.2-0.3,0.2-0.5
			c0-0.5,0-1.1-0.1-1.6c-0.2-0.9-0.7-1.8-1.3-2.5c1.4-0.5,2.9-0.1,3.9,1c1.7,1.9,1.6,5-0.2,6.8c-0.8,0.8-2,1.3-3.2,1.1
			c-0.4-0.1-0.8-0.2-1.1-0.4c-0.3-0.1-0.6-0.5-0.8-0.5c-0.2,0-0.4,0.2-0.6,0.2c-0.2,0.1-0.3,0.1-0.5,0.2c-0.4,0.1-0.7,0.1-1.1,0.1
			C411.9,389.8,410.6,387,411,384.7z"/>
		<path class="st39" d="M416.5,390.4c-1,0.5-2.2,0.5-3.2,0.1c-1.2-0.4-2.2-1.4-2.7-2.6c-1-2.2-0.4-5,1.3-6.6c1.2-1,2.7-1.5,4.1-1.1
			c0.1,0,0.1,0,0.2,0.1c0.4,0,0.9,0.4,1.2,0.6c1.1-0.5,2.3-0.5,3.5,0c1.3,0.6,2.3,1.8,2.7,3.2c0.8,2.6-0.4,5.5-2.7,6.7
			c-0.7,0.4-1.5,0.5-2.3,0.4C417.8,391.1,417.1,390.9,416.5,390.4z M417.5,381.2L417.5,381.2c-0.3-0.2-0.9-0.6-1.2-0.6
			c-0.1,0-0.1,0-0.2-0.1c-1.4-0.4-2.8,0-3.9,1c-1.7,1.5-2.2,4.2-1.3,6.3c0.5,1.2,1.4,2.1,2.6,2.5c1,0.4,2.1,0.3,3.1-0.1h0.1h0.1
			c1.2,0.9,2.8,1.1,4.2,0.4c2.2-1.1,3.3-3.9,2.6-6.4c-0.4-1.3-1.4-2.5-2.6-3c-0.4-0.2-0.8-0.3-1.2-0.3
			C418.8,380.8,418.1,380.9,417.5,381.2z M411.8,388.7c-0.8-1.1-1.2-2.6-0.9-4c0.2-1.3,1-2.6,2.1-3.3c0.9-0.6,1.9-0.7,2.8-0.5
			c0.4,0.1,0.7,0.2,1,0.4c0.7,0.4,1.3,1.1,1.7,1.9c0.2,0.4,0.3,0.9,0.4,1.4c0,0.2,0.1,0.5,0.1,0.7c0,0.1,0,0.2,0,0.3
			c0,0.1,0,0.3,0,0.4c0,0.1,0.1,0.1,0.1,0.1s0.1,0,0.2,0c0.1-0.1,0.1-0.2,0.1-0.4v-0.1c0-0.5,0-1-0.1-1.5c-0.2-1-0.7-1.8-1.3-2.5
			l-0.2-0.1l0.2-0.1c1.4-0.5,3-0.2,4.1,1c1.7,1.9,1.6,5.1-0.2,7c-0.9,0.9-2.1,1.3-3.3,1.2c-0.4-0.1-0.8-0.2-1.2-0.4
			c-0.1-0.1-0.2-0.1-0.3-0.2c-0.2-0.1-0.3-0.3-0.5-0.3c-0.1,0-0.2,0.1-0.3,0.1c-0.1,0-0.1,0.1-0.2,0.1c-0.2,0.1-0.3,0.1-0.5,0.2
			c-0.4,0.1-0.8,0.1-1.2,0.1C413.4,390.1,412.5,389.5,411.8,388.7z M417.2,389.8c0.1,0.1,0.2,0.1,0.3,0.2c0.3,0.2,0.7,0.3,1.1,0.4
			c1.1,0.2,2.2-0.3,3.1-1.1c1.8-1.8,1.9-4.9,0.2-6.7c-1-1-2.4-1.4-3.7-1c0.6,0.7,1,1.5,1.3,2.4c0.1,0.5,0.2,1.1,0.1,1.6v0.1
			c0,0.2,0,0.4-0.2,0.6c-0.1,0.1-0.2,0.1-0.4,0c-0.1-0.1-0.2-0.2-0.3-0.3c0-0.1,0-0.3,0-0.5c0-0.1,0-0.2,0-0.2c0-0.2,0-0.5-0.1-0.7
			c-0.1-0.5-0.2-0.9-0.4-1.3c-0.4-0.8-0.9-1.4-1.6-1.8c-0.3-0.2-0.6-0.3-0.9-0.4c-0.9-0.2-1.8-0.1-2.6,0.5c-1,0.7-1.8,1.9-2,3.1
			c-0.2,1.3,0.1,2.8,0.9,3.8c0.6,0.8,1.5,1.3,2.5,1.4c0.4,0,0.7,0,1.1-0.1c0.2,0,0.3-0.1,0.5-0.1c0.1,0,0.1-0.1,0.2-0.1
			c0.1-0.1,0.3-0.2,0.4-0.1C416.8,389.5,417,389.7,417.2,389.8z"/>
		<path class="st39" d="M417.4,380.5C417.4,380.5,417.5,380.5,417.4,380.5c0.2,0,0.4-0.2,0.3-0.3c0,0,0-0.7,0.2-1.5
			c0.3-1,1-1.6,2-1.8c0.2,0,0.3-0.2,0.2-0.4c0-0.2-0.2-0.3-0.4-0.2c-1.2,0.2-2.1,1-2.5,2.2c-0.3,0.9-0.3,1.7-0.3,1.7
			C417.2,380.3,417.3,380.5,417.4,380.5z"/>
		<path class="st19" d="M417,380.2c0,0,0-0.9,0.3-1.8c0.4-1.3,1.3-2,2.6-2.3c0.2,0,0.5,0.1,0.5,0.3c0,0.2-0.1,0.5-0.3,0.5
			c-0.9,0.2-1.6,0.7-1.9,1.7c-0.2,0.7-0.2,1.4-0.2,1.5c0,0.2-0.2,0.4-0.4,0.5c0,0,0,0-0.1,0C417.2,380.6,417,380.4,417,380.2z
			 M419.9,376.5c-1.2,0.2-2,1-2.4,2.1c-0.3,0.9-0.3,1.7-0.2,1.7c0,0.1,0.1,0.2,0.2,0.2c0.1,0,0.2-0.1,0.2-0.2c0-0.1,0-0.8,0.2-1.6
			c0.4-1,1.1-1.7,2.1-1.9c0.1,0,0.2-0.1,0.2-0.2C420.1,376.5,420,376.5,419.9,376.5C419.9,376.4,419.9,376.4,419.9,376.5z"/>
		<path class="st40" d="M419.9,376.5c-1.2,0.2-2,1-2.4,2.1c-0.3,0.9-0.3,1.7-0.2,1.7c0,0.1,0.1,0.2,0.2,0.2c0.1,0,0.2-0.1,0.2-0.2
			c0-0.1,0-0.8,0.2-1.6c0.4-1,1.1-1.7,2.1-1.9c0.1,0,0.2-0.1,0.2-0.2C420.1,376.5,420,376.5,419.9,376.5z M419.9,376.5 M417,380.2
			c0,0,0-0.9,0.3-1.8c0.4-1.3,1.3-2,2.6-2.3c0.2,0,0.5,0.1,0.5,0.3c0,0.2-0.1,0.5-0.3,0.5c-0.9,0.2-1.6,0.7-1.9,1.7
			c-0.2,0.7-0.2,1.4-0.2,1.5c0,0.2-0.2,0.4-0.4,0.5c0,0,0,0-0.1,0C417.2,380.6,417,380.4,417,380.2z"/>
		<path class="st39" d="M416.2,380c-2.2-0.4-3.8-1.2-4.7-2.2c-0.8-1-1-2.1-1.1-2.8c0-0.1,0-0.2,0.1-0.2c0.1-0.1,0.1-0.1,0.2-0.1
			c1.4,0.2,2.6,0.5,3.5,1.1c0.7,0.5,1.3,1,1.7,1.7c0.7,1.2,0.6,2.2,0.6,2.3c0,0.1,0,0.1-0.1,0.2C416.3,380,416.2,380,416.2,380z
			 M412,377.5c0.8,0.9,2.1,1.5,4,2c0-0.4-0.1-1-0.5-1.6c-0.3-0.6-0.9-1.1-1.5-1.5c-0.8-0.5-1.8-0.8-2.9-1
			C411.2,376.1,411.4,376.8,412,377.5z"/>
		<path class="st19" d="M416.1,380.1c-2.3-0.4-3.8-1.2-4.7-2.3c-0.9-1-1-2.1-1.1-2.9c0-0.1,0-0.2,0.1-0.3c0.1-0.1,0.2-0.1,0.3-0.1
			c1.4,0.2,2.6,0.6,3.5,1.1c0.8,0.5,1.4,1,1.8,1.7c0.7,1.2,0.6,2.3,0.6,2.3c0,0.1-0.1,0.2-0.2,0.3
			C416.4,380.1,416.3,380.1,416.1,380.1C416.2,380.1,416.1,380.1,416.1,380.1z M410.6,374.9c0,0-0.1,0.1,0,0.1
			c0.1,0.7,0.3,1.8,1.1,2.7c0.9,1,2.4,1.7,4.6,2.2h0.1l0.1-0.1c0,0,0.1-1.1-0.6-2.2c-0.4-0.7-1-1.2-1.7-1.7
			c-0.9-0.5-2.1-0.9-3.5-1.1C410.7,374.8,410.7,374.9,410.6,374.9z M415.9,379.5c-2-0.4-3.3-1.1-4.1-2c-0.6-0.7-0.8-1.5-0.9-2.2
			v-0.2h0.2c1.2,0.2,2.2,0.5,3,1c0.7,0.4,1.2,0.9,1.6,1.6c0.4,0.7,0.5,1.3,0.5,1.7v0.2L415.9,379.5z M412.1,377.4
			c0.7,0.9,2,1.5,3.8,1.9c0-0.4-0.2-0.9-0.5-1.4c-0.3-0.6-0.8-1.1-1.5-1.5c-0.7-0.4-1.6-0.7-2.7-0.9
			C411.3,376.1,411.6,376.8,412.1,377.4z"/>
		<path class="st40" d="M416.1,380.1c-2.3-0.4-3.8-1.2-4.7-2.3c-0.9-1-1-2.1-1.1-2.9c0-0.1,0-0.2,0.1-0.3c0.1-0.1,0.2-0.1,0.3-0.1
			c1.4,0.2,2.6,0.6,3.5,1.1c0.8,0.5,1.4,1,1.8,1.7c0.7,1.2,0.6,2.3,0.6,2.3c0,0.1-0.1,0.2-0.2,0.3
			C416.4,380.1,416.3,380.1,416.1,380.1z M416.1,380.1 M410.6,374.9c0,0-0.1,0.1,0,0.1c0.1,0.7,0.3,1.8,1.1,2.7
			c0.9,1,2.4,1.7,4.6,2.2h0.1l0.1-0.1c0,0,0.1-1.1-0.6-2.2c-0.4-0.7-1-1.2-1.7-1.7c-0.9-0.5-2.1-0.9-3.5-1.1
			C410.7,374.8,410.7,374.9,410.6,374.9z M415.9,379.5c-2-0.4-3.3-1.1-4.1-2c-0.6-0.7-0.8-1.5-0.9-2.2v-0.2h0.2c1.2,0.2,2.2,0.5,3,1
			c0.7,0.4,1.2,0.9,1.6,1.6c0.4,0.7,0.5,1.3,0.5,1.7v0.2L415.9,379.5z M412.1,377.4c0.7,0.9,2,1.5,3.8,1.9c0-0.4-0.2-0.9-0.5-1.4
			c-0.3-0.6-0.8-1.1-1.5-1.5c-0.7-0.4-1.6-0.7-2.7-0.9C411.3,376.1,411.6,376.8,412.1,377.4z"/>
		<path class="st39" d="M418.8,387.3c0.2,0,0.3-0.1,0.3-0.3c0-0.2-0.1-0.3-0.3-0.3c-0.2,0-0.3,0.1-0.3,0.3
			C418.5,387.2,418.7,387.3,418.8,387.3z"/>
		<path class="st39" d="M418.4,387c0-0.2,0.2-0.4,0.5-0.4c0.2,0,0.4,0.2,0.4,0.5c0,0.2-0.2,0.4-0.5,0.4
			C418.6,387.4,418.4,387.2,418.4,387z M418.7,387c0,0.1,0.1,0.2,0.2,0.2c0.1,0,0.2-0.1,0.2-0.2c0-0.1-0.1-0.2-0.2-0.2
			C418.8,386.8,418.7,386.9,418.7,387z"/>
		<path class="st37" d="M443.6,399.5c-0.3,2.7-2.4,4.7-4.8,4.5c-0.8-0.1-1.5-0.4-2.1-0.9c-0.7,0.4-1.4,0.5-2.2,0.4
			c-2.4-0.2-4.1-2.6-3.8-5.3c0.3-2.7,2.4-4.7,4.8-4.5c0.8,0.1,1.5,0.4,2.1,0.9c0.7-0.4,1.4-0.5,2.2-0.4
			C442.2,394.6,443.9,396.9,443.6,399.5z"/>
		<path class="st38" d="M436.5,393c0,0,0.4-4-5.6-4.8C431.2,389.9,431.7,392,436.5,393z"/>
		<path class="st39" d="M432.3,394.8c-1.7,1.6-2.3,4.3-1.3,6.4c1,2.2,3.5,3.5,5.8,2.4c1.3,0.9,2.9,1.1,4.3,0.4
			c2.3-1.1,3.4-4.1,2.6-6.5c-0.8-2.6-3.5-4.3-6.1-3.1c-0.3-0.2-0.8-0.6-1.2-0.6c-0.1,0-0.1,0-0.2-0.1c-0.2-0.1-0.5-0.1-0.7-0.1
			C434.4,393.5,433.2,393.9,432.3,394.8z M431.2,397.9c0.4-2.2,2.4-4.3,4.8-3.7c0.3,0.1,0.7,0.2,1,0.4c0.7,0.4,1.3,1.1,1.7,1.9
			c0.2,0.4,0.3,0.9,0.4,1.3c0,0.2,0.1,0.5,0.1,0.7c0,0.2-0.1,0.5,0,0.7c0.1,0.2,0.3,0.3,0.5,0.2c0.2-0.1,0.2-0.3,0.2-0.5
			c0-0.5,0-1.1-0.1-1.6c-0.2-0.9-0.7-1.8-1.3-2.5c1.4-0.5,2.9-0.1,3.9,1c1.7,1.9,1.6,5-0.2,6.8c-0.8,0.8-2,1.3-3.2,1.1
			c-0.4-0.1-0.8-0.2-1.1-0.4c-0.3-0.1-0.6-0.5-0.8-0.5c-0.2,0-0.4,0.2-0.6,0.2c-0.2,0.1-0.3,0.1-0.5,0.2c-0.4,0.1-0.7,0.1-1.1,0.1
			C432.1,403,430.8,400.2,431.2,397.9z"/>
		<path class="st39" d="M436.7,403.6c-1,0.5-2.2,0.5-3.2,0.1c-1.2-0.4-2.2-1.4-2.7-2.6c-1-2.2-0.4-5,1.3-6.6c1.2-1,2.7-1.5,4.1-1.1
			c0.1,0,0.1,0,0.2,0.1c0.4,0,0.9,0.4,1.2,0.6c1.1-0.5,2.3-0.5,3.5,0c1.3,0.6,2.3,1.8,2.7,3.2c0.8,2.6-0.4,5.5-2.7,6.7
			c-0.7,0.4-1.5,0.5-2.3,0.4C438.1,404.3,437.4,404.1,436.7,403.6z M437.7,394.5h-0.1c-0.2-0.2-0.8-0.6-1.1-0.6
			c-0.1,0-0.1,0-0.2-0.1c-1.4-0.4-2.8,0-3.9,1c-1.7,1.5-2.2,4.2-1.3,6.3c0.5,1.2,1.4,2.1,2.6,2.5c1,0.4,2.1,0.3,3.1-0.1h0.1h0.1
			c1.2,0.9,2.8,1.1,4.2,0.4c2.2-1.1,3.3-3.9,2.6-6.4c-0.4-1.3-1.4-2.5-2.6-3c-0.4-0.2-0.8-0.3-1.2-0.3
			C439.1,394.1,438.4,394.2,437.7,394.5z M432.1,401.9c-0.8-1.1-1.2-2.6-0.9-4c0.2-1.3,1-2.6,2.1-3.3c0.9-0.6,1.9-0.7,2.8-0.5
			c0.4,0.1,0.7,0.2,1,0.4c0.7,0.4,1.3,1.1,1.7,1.9c0.2,0.4,0.3,0.9,0.4,1.4c0,0.2,0.1,0.5,0.1,0.7c0,0.1,0,0.2,0,0.3
			c0,0.1,0,0.3,0,0.4c0,0.1,0.1,0.1,0.1,0.1s0.1,0,0.2,0c0.1-0.1,0.1-0.2,0.1-0.4v-0.1c0-0.5,0-1-0.1-1.5c-0.2-1-0.7-1.8-1.3-2.5
			l-0.1-0.1l0.2-0.1c1.4-0.5,3-0.2,4.1,1c1.7,1.9,1.6,5.1-0.2,7c-0.9,0.9-2.1,1.3-3.3,1.2c-0.4-0.1-0.8-0.2-1.2-0.4
			c-0.1-0.1-0.2-0.1-0.3-0.2c-0.2-0.1-0.3-0.3-0.5-0.3c-0.1,0-0.2,0.1-0.3,0.1c-0.1,0-0.1,0.1-0.2,0.1c-0.2,0.1-0.3,0.1-0.5,0.2
			c-0.4,0.1-0.8,0.1-1.2,0.1C433.6,403.3,432.7,402.8,432.1,401.9z M437.4,403c0.1,0.1,0.2,0.1,0.3,0.2c0.3,0.2,0.7,0.3,1.1,0.4
			c1.1,0.2,2.2-0.3,3.1-1.1c1.8-1.8,1.9-4.9,0.2-6.7c-1-1-2.4-1.4-3.7-1c0.6,0.7,1,1.5,1.3,2.4c0.1,0.5,0.2,1.1,0.1,1.6v0.1
			c0,0.2,0,0.4-0.2,0.6c-0.1,0.1-0.2,0.1-0.4,0c-0.1-0.1-0.2-0.2-0.3-0.3c0-0.1,0-0.3,0-0.5c0-0.1,0-0.2,0-0.2c0-0.2,0-0.5-0.1-0.7
			c-0.1-0.5-0.2-0.9-0.4-1.3c-0.4-0.8-0.9-1.4-1.6-1.8c-0.3-0.2-0.6-0.3-0.9-0.4c-0.9-0.2-1.8-0.1-2.6,0.5c-1,0.7-1.8,1.9-2,3.1
			c-0.2,1.3,0.1,2.8,0.9,3.8c0.6,0.8,1.5,1.3,2.5,1.4c0.4,0,0.7,0,1.1-0.1c0.2,0,0.3-0.1,0.5-0.1c0.1,0,0.1-0.1,0.2-0.1
			c0.1-0.1,0.3-0.2,0.4-0.1C437,402.7,437.2,402.9,437.4,403z"/>
		<path class="st39" d="M437.7,393.8c0.2,0,0.4-0.2,0.3-0.3c0,0,0-0.7,0.2-1.5c0.3-1,1-1.6,2-1.8c0.2,0,0.3-0.2,0.2-0.4
			c0-0.2-0.2-0.3-0.4-0.2c-1.2,0.2-2.1,1-2.5,2.2c-0.3,0.9-0.3,1.7-0.3,1.7C437.4,393.6,437.5,393.8,437.7,393.8z"/>
		<path class="st19" d="M437.3,393.5c0,0,0-0.9,0.3-1.8c0.4-1.3,1.3-2,2.6-2.3c0.2,0,0.5,0.1,0.5,0.3c0,0.2-0.1,0.5-0.3,0.5
			c-0.9,0.2-1.6,0.7-1.9,1.7c-0.2,0.7-0.2,1.4-0.2,1.5c0,0.2-0.2,0.4-0.4,0.5c0,0,0,0-0.1,0C437.4,393.9,437.3,393.7,437.3,393.5z
			 M440.1,389.7c-1.2,0.2-2,1-2.4,2.1c-0.3,0.9-0.3,1.7-0.2,1.7c0,0.1,0.1,0.2,0.2,0.2c0.1,0,0.2-0.1,0.2-0.2c0-0.1,0-0.8,0.2-1.6
			c0.4-1,1.1-1.7,2.1-1.9c0.1,0,0.2-0.1,0.2-0.2C440.3,389.7,440.3,389.7,440.1,389.7C440.2,389.7,440.2,389.7,440.1,389.7z"/>
		<path class="st40" d="M440.1,389.7c-1.2,0.2-2,1-2.4,2.1c-0.3,0.9-0.3,1.7-0.2,1.7c0,0.1,0.1,0.2,0.2,0.2c0.1,0,0.2-0.1,0.2-0.2
			c0-0.1,0-0.8,0.2-1.6c0.4-1,1.1-1.7,2.1-1.9c0.1,0,0.2-0.1,0.2-0.2C440.3,389.7,440.3,389.7,440.1,389.7z M440.1,389.7
			 M437.3,393.5c0,0,0-0.9,0.3-1.8c0.4-1.3,1.3-2,2.6-2.3c0.2,0,0.5,0.1,0.5,0.3c0,0.2-0.1,0.5-0.3,0.5c-0.9,0.2-1.6,0.7-1.9,1.7
			c-0.2,0.7-0.2,1.4-0.2,1.5c0,0.2-0.2,0.4-0.4,0.5c0,0,0,0-0.1,0C437.4,393.9,437.3,393.7,437.3,393.5z"/>
		<path class="st39" d="M436.4,393.3c-2.2-0.4-3.8-1.2-4.7-2.2c-0.8-1-1-2.1-1.1-2.8c0-0.1,0-0.2,0.1-0.2c0.1-0.1,0.1-0.1,0.2-0.1
			c1.4,0.2,2.6,0.5,3.5,1.1c0.7,0.5,1.3,1,1.7,1.7c0.7,1.2,0.6,2.2,0.6,2.3c0,0.1,0,0.1-0.1,0.2
			C436.6,393.3,436.5,393.3,436.4,393.3z M432.2,390.7c0.8,0.9,2.1,1.5,4,2c0-0.4-0.1-1-0.5-1.6c-0.3-0.6-0.9-1.1-1.5-1.5
			c-0.8-0.5-1.8-0.8-2.9-1C431.5,389.3,431.7,390,432.2,390.7z"/>
		<path class="st39" d="M436.4,393.4c-2.3-0.4-3.8-1.2-4.7-2.3c-0.9-1-1-2.1-1.1-2.9c0-0.1,0-0.2,0.1-0.3c0.1-0.1,0.2-0.1,0.3-0.1
			c1.4,0.2,2.6,0.6,3.5,1.1c0.8,0.5,1.4,1,1.8,1.7c0.7,1.2,0.6,2.3,0.6,2.3c0,0.1-0.1,0.2-0.2,0.3
			C436.6,393.4,436.5,393.4,436.4,393.4z M430.9,388.1C430.9,388.1,430.8,388.2,430.9,388.1c0.1,0.8,0.3,1.9,1.1,2.8
			c0.9,1,2.4,1.7,4.6,2.2h0.1l0.1-0.1c0,0,0.1-1.1-0.6-2.2c-0.4-0.7-1-1.2-1.7-1.7C433.6,388.6,432.4,388.2,430.9,388.1L430.9,388.1
			z M436.2,392.8c-2-0.4-3.3-1.1-4.1-2c-0.6-0.7-0.8-1.5-0.9-2.2v-0.2h0.2c1.2,0.2,2.2,0.5,3,1c0.7,0.4,1.2,0.9,1.6,1.6
			c0.4,0.7,0.5,1.3,0.5,1.7v0.2L436.2,392.8z M432.3,390.6c0.7,0.9,2,1.5,3.8,1.9c0-0.4-0.2-0.9-0.5-1.4c-0.3-0.6-0.8-1.1-1.5-1.5
			c-0.7-0.4-1.6-0.7-2.7-0.9C431.6,389.3,431.8,390,432.3,390.6z"/>
		<g>
			<path class="st19" d="M511.6,352.6c0,0.3,0,0.6,0,0.8c0,3.8-1.3,8.6-4.1,11.3c-3,3-8.7,3.3-12.5,3.6c-2.2,0.2-4.5,0.3-6.5-0.4
				c-4-1.3-5.6-4.9-6.4-8.2c-2.4-9.4-2.6-18.9-2.7-28.5c0-8.1-0.2-19.7,9.2-25.2c6.3-3.7,9-2.4,11.3,3c3.3,7.5,2,15.8,4.7,23.5
				c1.1,3.3,2.9,6.3,4.3,9.4C510.4,345.4,511.5,349,511.6,352.6z"/>
			<path class="st26" d="M403.3,332.9c-1.5,30.2,19.5,43.4,46.1,44.8c14.3,0.7,32.3-2.1,41.7-14.5c4.8-6.5,2.1-10.6,0.5-17.7
				c-1.7-7.7,0.5-14.7,2-22.2c1.6-8.5-1.6-19.1-4.8-26.9c-5.9-14.1-17.7-27.3-33.9-28.1C428.3,266.9,404.8,302.7,403.3,332.9z"/>
			<path class="st19" d="M470,344.6c-0.2,4.3,3.1,7.9,7.3,8.1c4.3,0.2,7.9-3.1,8.1-7.3c0.2-4.3-3.1-7.9-7.3-8.1
				C473.8,337.2,470.2,340.3,470,344.6z"/>
			<path class="st27" d="M476.3,350.5c1.8,0.1,3.3-1.3,3.4-3c0.1-1.8-1.3-3.3-3-3.4c-1.8-0.1-3.3,1.3-3.4,3
				C473.3,348.9,474.7,350.4,476.3,350.5z"/>
			<path class="st27" d="M479.9,343.4c1,0,1.8-0.7,1.8-1.7c0-1-0.7-1.8-1.7-1.8c-1,0-1.8,0.7-1.8,1.7
				C478.2,342.5,478.9,343.3,479.9,343.4z"/>
			<path class="st21" d="M435.4,364.4c0.4,1.5,3.5,2,7,1.1c3.4-0.9,5.9-2.9,5.5-4.4c-0.4-1.5-3.5-2-7-1.1
				C437.3,360.9,435,362.9,435.4,364.4z"/>
			<path class="st21" d="M474.8,357.5c0.4,1.5,3.5,2,7,1.1c3.4-0.9,5.9-2.9,5.5-4.4c-0.4-1.5-3.5-2-7-1.1
				C476.7,353.9,474.4,355.9,474.8,357.5z"/>
			<path class="st19" d="M431.8,351.4c-0.2,4.3,3.1,7.9,7.3,8.1c4.3,0.2,7.9-3.1,8.1-7.3c0.2-4.3-3.1-7.9-7.3-8.1
				C435.6,343.9,432,347.2,431.8,351.4z"/>
			<path class="st27" d="M438.3,357.3c1.8,0,3.2-1.4,3.2-3.2c0-1.8-1.4-3.2-3.2-3.2c-1.8,0-3.2,1.4-3.2,3.2
				C435.2,355.8,436.6,357.3,438.3,357.3z"/>
			<path class="st27" d="M441.8,350.2c1,0,1.8-0.8,1.8-1.8c0-1-0.8-1.8-1.8-1.8c-1,0-1.8,0.8-1.8,1.8
				C440,349.4,440.8,350.2,441.8,350.2z"/>
			<path class="st19" d="M502.1,317c0.2,9.8-3.2,18.8-12.3,24.2c0.3-5.6-4.2-10.4-9.5-12.3c-5.2-1.9-10.9-1.3-16.4-0.3
				c-9.7,1.9-19.1,5.1-28.1,9.3c-7.5,3.5-12.5,10.1-15.9,17.5c-1.1,2.4-2.5,4.4-2.9,7c-0.1,0.7-0.2,8.7,0.6,8.4
				c-8.1,2.4-16.9-1.6-22.3-8c-5.4-6.4-7.8-14.8-9-23.1c-2.9-20.2,1.2-42.4,15.5-56.9c14-14.2,35.9-18.9,55.5-15
				c10.1,2,20,6.2,27.9,12.9C494.3,288.5,501.7,303.3,502.1,317z"/>
			<path class="st19" d="M430.2,303.6c-2.4,7.1-4.1,14.4-5.4,21.8c-1.9,11.5-4.1,27.9,3.5,37.8c0.9,1.2,2,2.4,2.7,3.8
				c0.7,1.4,1,3.1,0.2,4.5c-0.9,1.6-2.7,2.1-4.4,2.5c-4.6,0.9-9.3,1.3-13.9,1.1c-3.6-0.2-7.4-0.7-10.5-2.4
				c-8.3-4.3-13.3-15.1-15.9-24c-3.4-11.6-2.3-24.4,0.4-36C395,278.2,430.2,303.6,430.2,303.6z"/>
			<path class="st29" d="M460.6,364c0.2,0.9,1.7,1.3,3.3,0.9c1.6-0.4,2.8-1.4,2.6-2.2"/>
			<path class="st43" d="M402.6,309.2c3.6-0.6,6-4.1,5.4-7.7c-0.6-3.6-4.1-6-7.7-5.4c-3.6,0.6-6,4.1-5.4,7.7
				C395.5,307.4,398.9,309.8,402.6,309.2z"/>
			<path class="st33" d="M399,296.2l-1.4-2.1c0.6-0.5,1.1-1.2,1.3-2.1c0.4-1.9-1.3-4-1.3-4s-2.4,1.1-2.8,3.1c-0.1,0.3-0.1,0.7,0,1
				c-0.3-0.2-0.7-0.4-1.1-0.5c-1.9-0.4-4,1.3-4,1.3s1.1,2.4,3.1,2.8c0.8,0.2,1.6,0,2.3-0.3l1.5,2.3c0.4,0.6,1.3,0.8,1.9,0.4
				c0.1-0.1,0.2-0.1,0.2-0.2C399.3,297.5,399.4,296.7,399,296.2z"/>
		</g>
		<path class="st32" d="M475,373l-9.8,31.9c-0.1,0.4-0.4,0.6-0.8,0.7l-26.5,2c-0.5,0-0.9,0.4-0.9,0.9v1.7c0,0.5,0.4,0.9,0.9,0.9
			l72.3-1.4c0.4,0,0.7-0.2,0.9-0.6l12.7-33.3c0.2-0.6-0.2-1.2-0.8-1.3l-47.3-2.2C475.5,372.3,475.1,372.6,475,373z"/>
		<path class="st33" d="M501.7,391.6c-0.3-1-1-1.8-1.9-2.2c-0.8-0.3-1.6-0.3-2.4,0c-0.2-0.1-0.5-0.4-0.8-0.4h-0.1
			c-1-0.3-2.1,0-2.8,0.7c-1.2,1.1-1.6,3-0.9,4.5c0.4,0.8,1,1.5,1.9,1.8c0.7,0.3,1.5,0.2,2.2-0.1c0.4,0.3,0.9,0.5,1.4,0.5
			c0.5,0.1,1.1,0,1.6-0.3C501.4,395.4,502.2,393.4,501.7,391.6z"/>
		<path class="st33" d="M497.4,389.2C497.4,389.2,497.5,389.2,497.4,389.2c0.2,0,0.3-0.1,0.3-0.3c0-0.1,0-0.5,0.2-1
			c0.2-0.7,0.7-1,1.3-1.2c0.2,0,0.3-0.2,0.2-0.3c0-0.2-0.2-0.3-0.3-0.2c-0.9,0.2-1.5,0.7-1.8,1.6c-0.2,0.6-0.2,1.2-0.2,1.2
			C497.2,389.1,497.3,389.2,497.4,389.2z"/>
		<path class="st33" d="M496.6,388.9c0.1,0,0.2,0,0.2,0c0.1,0,0.1-0.1,0.1-0.2c0,0,0.1-0.8-0.4-1.6c-0.3-0.5-0.7-0.9-1.2-1.2
			c-0.6-0.4-1.5-0.6-2.4-0.8c-0.1,0-0.2,0-0.2,0.1c-0.1,0.1-0.1,0.1-0.1,0.2c0.1,0.5,0.2,1.3,0.8,2C494,388,495,388.6,496.6,388.9z"
			/>
		<path class="st26" d="M464.6,401.8c-1.4,5.8-10.1,8.8-20.2,7.2l6.6-22.5C460,389.9,465.9,396.2,464.6,401.8z"/>
		<path class="st39" d="M439.1,400.5c0.2,0,0.3-0.1,0.3-0.3c0-0.2-0.1-0.3-0.3-0.3c-0.2,0-0.3,0.1-0.3,0.3
			C438.8,400.4,438.9,400.5,439.1,400.5z"/>
		<path class="st39" d="M438.7,400.2c0-0.2,0.2-0.4,0.5-0.4c0.2,0,0.4,0.2,0.4,0.5c0,0.2-0.2,0.4-0.5,0.4
			C438.8,400.6,438.7,400.4,438.7,400.2z M438.9,400.2c0,0.1,0.1,0.2,0.2,0.2c0.1,0,0.2-0.1,0.2-0.2c0-0.1-0.1-0.2-0.2-0.2
			C439,400,438.9,400.1,438.9,400.2z"/>
		<path class="st37" d="M415.3,414.3c-0.3,2.7-2.4,4.7-4.8,4.5c-0.8-0.1-1.5-0.4-2.1-0.9c-0.7,0.4-1.4,0.5-2.2,0.4
			c-2.4-0.2-4.1-2.6-3.8-5.3c0.3-2.7,2.4-4.7,4.8-4.5c0.8,0.1,1.5,0.4,2.1,0.9c0.7-0.4,1.4-0.5,2.2-0.4
			C413.9,409.2,415.6,411.6,415.3,414.3z"/>
		<path class="st38" d="M408.2,407.6c0,0,0.4-4-5.6-4.8C402.9,404.5,403.3,406.7,408.2,407.6z"/>
		<path class="st39" d="M404,409.4c-1.7,1.6-2.3,4.3-1.3,6.4c1,2.2,3.5,3.5,5.8,2.4c1.3,0.9,2.9,1.1,4.3,0.4
			c2.3-1.1,3.4-4.1,2.6-6.5c-0.8-2.6-3.5-4.3-6.1-3.1c-0.3-0.2-0.8-0.6-1.2-0.6c-0.1,0-0.1,0-0.2-0.1c-0.2-0.1-0.5-0.1-0.7-0.1
			C406.1,408.1,404.9,408.6,404,409.4z M402.9,412.7c0.4-2.2,2.4-4.3,4.8-3.7c0.3,0.1,0.7,0.2,1,0.4c0.7,0.4,1.3,1.1,1.7,1.9
			c0.2,0.4,0.3,0.9,0.4,1.3c0,0.2,0.1,0.5,0.1,0.7c0,0.2-0.1,0.5,0,0.7c0.1,0.2,0.3,0.3,0.5,0.2c0.2-0.1,0.2-0.3,0.2-0.5
			c0-0.5,0-1.1-0.1-1.6c-0.2-0.9-0.7-1.8-1.3-2.5c1.4-0.5,2.9-0.1,3.9,1c1.7,1.9,1.6,5-0.2,6.8c-0.8,0.8-2,1.3-3.2,1.1
			c-0.4-0.1-0.8-0.2-1.1-0.4c-0.3-0.1-0.6-0.5-0.8-0.5c-0.2,0-0.4,0.2-0.6,0.2c-0.2,0.1-0.3,0.1-0.5,0.2c-0.4,0.1-0.7,0.1-1.1,0.1
			C403.8,417.8,402.5,415,402.9,412.7z"/>
		<path class="st39" d="M408.5,418.3c-1,0.5-2.2,0.5-3.2,0.1c-1.2-0.4-2.2-1.4-2.7-2.6c-1-2.2-0.4-5,1.3-6.6c1.2-1,2.7-1.5,4.1-1.1
			c0.1,0,0.1,0,0.2,0.1c0.4,0,0.9,0.4,1.2,0.6c1.1-0.5,2.3-0.5,3.5,0c1.3,0.6,2.3,1.8,2.7,3.2c0.8,2.6-0.4,5.5-2.7,6.7
			c-0.7,0.4-1.5,0.5-2.3,0.4C409.8,419,409.1,418.7,408.5,418.3z M409.4,409.2L409.4,409.2c-0.3-0.2-0.9-0.6-1.2-0.6
			c-0.1,0-0.1,0-0.2-0.1c-1.4-0.4-2.8,0-3.9,1c-1.7,1.5-2.2,4.2-1.3,6.3c0.5,1.2,1.4,2.1,2.6,2.5c1,0.4,2.1,0.3,3.1-0.1h0.1h0.1
			c1.2,0.9,2.8,1.1,4.2,0.4c2.2-1.1,3.3-3.9,2.6-6.4c-0.4-1.3-1.4-2.5-2.6-3c-0.4-0.2-0.8-0.3-1.2-0.3
			C410.8,408.7,410.1,408.9,409.4,409.2z M403.7,416.6c-0.8-1.1-1.2-2.6-0.9-4c0.2-1.3,1-2.6,2.1-3.3c0.9-0.6,1.9-0.7,2.8-0.5
			c0.4,0.1,0.7,0.2,1,0.4c0.7,0.4,1.3,1.1,1.7,1.9c0.2,0.4,0.3,0.9,0.4,1.4c0,0.2,0.1,0.5,0.1,0.7c0,0.1,0,0.2,0,0.3
			c0,0.1,0,0.3,0,0.4c0,0.1,0.1,0.1,0.1,0.1s0.1,0,0.2,0c0.1-0.1,0.1-0.2,0.1-0.4v-0.1c0-0.5,0-1-0.1-1.5c-0.2-1-0.7-1.8-1.3-2.5
			l-0.1-0.1l0.2-0.1c1.4-0.5,3-0.2,4.1,1c1.7,1.9,1.6,5.1-0.2,7c-0.9,0.9-2.1,1.3-3.3,1.2c-0.4-0.1-0.8-0.2-1.2-0.4
			c-0.1-0.1-0.2-0.1-0.3-0.2c-0.2-0.1-0.3-0.3-0.5-0.3c-0.1,0-0.2,0.1-0.3,0.1c-0.1,0-0.1,0.1-0.2,0.1c-0.2,0.1-0.3,0.1-0.5,0.2
			c-0.4,0.1-0.8,0.1-1.2,0.1C405.3,417.9,404.4,417.5,403.7,416.6z M409.1,417.8c0.1,0.1,0.2,0.1,0.3,0.2c0.3,0.2,0.7,0.3,1.1,0.4
			c1.1,0.2,2.2-0.3,3.1-1.1c1.8-1.8,1.9-4.9,0.2-6.7c-1-1-2.4-1.4-3.7-1c0.6,0.7,1,1.5,1.3,2.4c0.1,0.5,0.2,1.1,0.1,1.6v0.1
			c0,0.2,0,0.4-0.2,0.6c-0.1,0.1-0.2,0.1-0.4,0c-0.1-0.1-0.2-0.2-0.3-0.3c0-0.1,0-0.3,0-0.5c0-0.1,0-0.2,0-0.2c0-0.2,0-0.5-0.1-0.7
			c-0.1-0.5-0.2-0.9-0.4-1.3c-0.4-0.8-0.9-1.4-1.6-1.8c-0.3-0.2-0.6-0.3-0.9-0.4c-0.9-0.2-1.8-0.1-2.6,0.5c-1,0.7-1.8,1.9-2,3.1
			c-0.2,1.3,0.1,2.8,0.9,3.8c0.6,0.8,1.5,1.3,2.5,1.4c0.4,0,0.7,0,1.1-0.1c0.2,0,0.3-0.1,0.5-0.1c0.1,0,0.1-0.1,0.2-0.1
			c0.1-0.1,0.3-0.2,0.4-0.1C408.7,417.5,409,417.6,409.1,417.8z"/>
		<path class="st39" d="M409.4,408.4c0.2,0,0.4-0.2,0.3-0.3c0,0,0-0.7,0.2-1.5c0.3-1,1-1.6,2-1.8c0.2,0,0.3-0.2,0.2-0.4
			c0-0.2-0.2-0.3-0.4-0.2c-1.2,0.2-2.1,1-2.5,2.2c-0.3,0.9-0.3,1.7-0.3,1.7C409.1,408.3,409.3,408.4,409.4,408.4z"/>
		<path class="st39" d="M409,408.1c0,0,0-0.9,0.3-1.8c0.4-1.3,1.3-2,2.6-2.3c0.2,0,0.5,0.1,0.5,0.3c0,0.2-0.1,0.5-0.3,0.5
			c-0.9,0.2-1.6,0.7-1.9,1.7c-0.2,0.7-0.2,1.4-0.2,1.5c0,0.2-0.2,0.4-0.4,0.5c0,0,0,0-0.1,0C409.2,408.5,409,408.4,409,408.1z
			 M411.9,404.3c-1.2,0.2-2,1-2.4,2.1c-0.3,0.9-0.3,1.7-0.2,1.7c0,0.1,0.1,0.2,0.2,0.2c0.1,0,0.2-0.1,0.2-0.2c0-0.1,0-0.8,0.2-1.6
			c0.4-1,1.1-1.7,2.1-1.9c0.1,0,0.2-0.1,0.2-0.2C412.1,404.4,412,404.3,411.9,404.3z"/>
		<path class="st39" d="M408.1,407.9c-2.2-0.4-3.8-1.2-4.7-2.2c-0.8-1-1-2.1-1.1-2.8c0-0.1,0-0.2,0.1-0.2c0.1,0,0.1-0.1,0.2-0.1
			c1.4,0.2,2.6,0.5,3.5,1.1c0.7,0.5,1.3,1,1.7,1.7c0.7,1.2,0.6,2.2,0.6,2.3c0,0.1,0,0.1-0.1,0.2
			C408.3,407.9,408.2,407.9,408.1,407.9z M403.9,405.3c0.8,0.9,2.1,1.5,4,2c0-0.4-0.1-1-0.5-1.6c-0.3-0.6-0.9-1.1-1.5-1.5
			c-0.8-0.5-1.8-0.8-2.9-1C403.1,403.9,403.3,404.7,403.9,405.3z"/>
		<path class="st39" d="M408.1,408c-2.3-0.4-3.8-1.2-4.7-2.3c-0.9-1-1-2.1-1.1-2.9c0-0.1,0-0.2,0.1-0.3c0.1-0.1,0.2-0.1,0.3-0.1
			c1.4,0.2,2.6,0.6,3.5,1.1c0.8,0.5,1.4,1,1.8,1.7c0.7,1.2,0.6,2.3,0.6,2.3c0,0.1-0.1,0.2-0.2,0.3C408.3,408,408.2,408,408.1,408z
			 M402.5,402.7C402.5,402.7,402.4,402.8,402.5,402.7c0.1,0.8,0.3,1.9,1.1,2.8c0.9,1,2.4,1.7,4.6,2.2h0.1l0.1-0.1
			c0,0,0.1-1.1-0.6-2.2c-0.4-0.7-1-1.2-1.7-1.7C405.2,403.2,404,402.8,402.5,402.7C402.6,402.7,402.5,402.7,402.5,402.7z
			 M407.9,407.4c-2-0.4-3.3-1.1-4.1-2c-0.6-0.7-0.8-1.5-0.9-2.2V403h0.2c1.2,0.2,2.2,0.5,3,1c0.7,0.4,1.2,0.9,1.6,1.6
			c0.4,0.7,0.5,1.3,0.5,1.7v0.2L407.9,407.4z M404,405.3c0.7,0.9,2,1.5,3.8,1.9c0-0.4-0.2-0.9-0.5-1.4c-0.3-0.6-0.8-1.1-1.5-1.5
			c-0.7-0.4-1.6-0.7-2.7-0.9C403.2,404,403.4,404.6,404,405.3z"/>
		<path class="st39" d="M410.8,415.3c0.2,0,0.3-0.1,0.3-0.3c0-0.2-0.1-0.3-0.3-0.3c-0.2,0-0.3,0.1-0.3,0.3
			C410.5,415.1,410.6,415.3,410.8,415.3z"/>
		<path class="st39" d="M410.4,414.9c0-0.2,0.2-0.4,0.5-0.4c0.2,0,0.4,0.2,0.4,0.5c0,0.2-0.2,0.4-0.5,0.4
			C410.6,415.4,410.4,415.2,410.4,414.9z M410.6,415c0,0.1,0.1,0.2,0.2,0.2c0.1,0,0.2-0.1,0.2-0.2c0-0.1-0.1-0.2-0.2-0.2
			C410.8,414.8,410.7,414.9,410.6,415z"/>
	</g>
	<g>
		<g>
			<g>
				<path class="st27" d="M230.6,347c0.2-0.1,4.3-4.1,4.3-4.1l-5.1-3.2l-0.5,0l0.6,7.3L230.6,347z"/>
				<polygon class="st44" points="208.7,348.8 230,347 229.4,339.7 207.9,341.9 				"/>
			</g>
			<path class="st19" d="M207.2,342.6l0.6,6.1c0,0.3,0.2,0.5,0.4,0.7c0.2,0.2,0.5,0.3,0.8,0.2l21.2-2.1c0.2,0,0.4-0.1,0.6-0.3l4-3.5
				c0.3-0.2,0.4-0.6,0.4-0.9c0-0.3-0.2-0.5-0.4-0.7c0,0-0.1-0.1-0.1-0.1l-4.6-2.6c-0.2-0.1-0.4-0.2-0.6-0.1l-21.2,2.1
				C207.6,341.5,207.2,342,207.2,342.6z M208.9,348.6l-0.3-2.5l20.6-2.1l0.3,2.6L208.9,348.6z M234.1,342.9l-0.9,0.7l-0.2-1.3
				L234.1,342.9z M232,341.7c0,0.1,0,0.1,0,0.2l0.3,2.3c0,0.1,0,0.2,0.1,0.2l-1.9,1.6l-0.6-5.6L232,341.7z M228.8,340.4l0.2,2.5
				l-20.6,2.1l-0.3-2.5L228.8,340.4z"/>
		</g>
		<path class="st26" d="M217.4,343.6c0.5,0,1,0.1,1.5,0.4c1,0.6,1.7,1.6,2.2,2.8c1,2.6,0.8,5.9-0.5,8.6c-1.3,2.8-3.6,5-6.2,5.8
			c-1.6,0.5-3.6,0.5-4.5-1c-1-1.5-0.4-3.8,0.1-5.7C211,351.3,213.5,343.4,217.4,343.6z"/>
	</g>
	<path class="st20" d="M577,262.7l-47.1-8.9c-3-0.6-6.3,3.2-7.3,8.5l-3.7,19.4c-0.9,4.9,0.4,9.3,3,10.4c0.4,0.2,0.6,0.8,0.4,1.5
		l-2,10.6c-0.1,0.6,0.3,1,0.6,0.5l7-10.8c0.2-0.3,0.5-0.5,0.8-0.5l41,7.8c3,0.6,6.3-3.2,7.3-8.5l3.7-19.4
		C581.7,268,580.1,263.2,577,262.7z"/>
	<g>
		<path class="st20" d="M7.8,283.2l76.4-19.7c4.9-1.3,10,1.9,11.3,7.1l4.9,19.1c1.2,4.8-1.1,9.6-5.3,11.3c-0.6,0.2-0.9,1-0.8,1.6
			l2.7,10.5c0.2,0.6-0.5,1-1,0.6l-10.8-9.5c-0.3-0.3-0.8-0.4-1.2-0.3l-66.5,17.1c-4.9,1.3-10-1.9-11.3-7.1l-4.9-19.1
			C0,289.7,2.9,284.4,7.8,283.2z"/>
		<g>
			<g>
				<path class="st27" d="M18.9,311.2c-0.2,0-0.4,0-0.5-0.1c-0.2-0.1-0.4-0.4-0.5-0.6L13,291.3c-0.1-0.5,0.2-1.1,0.7-1.2l3.3-0.9
					c0.1,0,0.2,0,0.2,0c0.2,0,0.4,0,0.5,0.1c0.2,0.1,0.4,0.4,0.5,0.6l1.8,7l6.6-1.7l-1.8-7c-0.1-0.5,0.2-1.1,0.7-1.2l3.3-0.9
					c0.1,0,0.2,0,0.2,0c0.2,0,0.4,0,0.5,0.1c0.2,0.1,0.4,0.4,0.5,0.6l4.9,19.1c0.1,0.5-0.2,1.1-0.7,1.2l-3.3,0.9c-0.1,0-0.2,0-0.2,0
					c-0.2,0-0.4,0-0.5-0.1c-0.2-0.1-0.4-0.4-0.5-0.6l-1.9-7.5l-6.6,1.7l1.9,7.5c0.1,0.5-0.2,1.1-0.7,1.2l-3.3,0.9
					C19.1,311.2,19,311.2,18.9,311.2z"/>
				<path class="st10" d="M29.2,287.1l4.9,19.1l-3.3,0.9l-2.2-8.5l-8.5,2.2l2.2,8.5l-3.3,0.9L14,291.1l3.3-0.9l2,8l8.5-2.2l-2-8
					L29.2,287.1 M29.2,285.1c-0.2,0-0.3,0-0.5,0.1l-3.3,0.9c-0.5,0.1-1,0.5-1.2,0.9c-0.3,0.5-0.3,1-0.2,1.5l1.6,6l-4.7,1.2l-1.6-6
					c-0.1-0.5-0.5-1-0.9-1.2c-0.3-0.2-0.7-0.3-1-0.3c-0.2,0-0.3,0-0.5,0.1l-3.3,0.9c-1.1,0.3-1.7,1.4-1.4,2.4l4.9,19.1
					c0.1,0.5,0.5,1,0.9,1.2c0.3,0.2,0.7,0.3,1,0.3c0.2,0,0.3,0,0.5-0.1l3.3-0.9c1.1-0.3,1.7-1.4,1.4-2.4l-1.7-6.5l4.7-1.2l1.7,6.5
					c0.2,0.9,1,1.5,1.9,1.5c0.2,0,0.3,0,0.5-0.1l3.3-0.9c1.1-0.3,1.7-1.4,1.4-2.4l-4.9-19.1c-0.1-0.5-0.5-1-0.9-1.2
					C29.9,285.2,29.5,285.1,29.2,285.1L29.2,285.1z"/>
			</g>
			<g>
				<path class="st27" d="M42.2,305.2c-0.2,0-0.4,0-0.5-0.1c-0.2-0.1-0.4-0.4-0.5-0.6l-4-15.5l-4.9,1.3c-0.1,0-0.2,0-0.2,0
					c-0.2,0-0.4,0-0.5-0.1c-0.2-0.1-0.4-0.4-0.5-0.6l-0.7-2.7c-0.1-0.5,0.2-1.1,0.7-1.2l15.2-3.9c0.1,0,0.2,0,0.3,0
					c0.4,0,0.9,0.3,1,0.8l0.7,2.7c0.1,0.3,0,0.5-0.1,0.8c-0.1,0.2-0.4,0.4-0.6,0.5l-5,1.3l4,15.5c0.1,0.5-0.2,1.1-0.7,1.2l-3.3,0.8
					C42.4,305.2,42.3,305.2,42.2,305.2z"/>
				<path class="st10" d="M46.5,282.7l0.7,2.7l-6,1.5l4.2,16.4l-3.3,0.8L38,287.7l-5.9,1.5l-0.7-2.7L46.5,282.7 M46.5,280.7
					c-0.2,0-0.3,0-0.5,0.1l-15.2,3.9c-0.5,0.1-1,0.5-1.2,0.9c-0.3,0.5-0.3,1-0.2,1.5l0.7,2.7c0.1,0.5,0.5,1,0.9,1.2
					c0.3,0.2,0.7,0.3,1,0.3c0.2,0,0.3,0,0.5-0.1l4-1l3.7,14.5c0.1,0.5,0.5,1,0.9,1.2c0.3,0.2,0.7,0.3,1,0.3c0.2,0,0.3,0,0.5-0.1
					l3.3-0.8c1.1-0.3,1.7-1.4,1.4-2.4l-3.7-14.5l4-1c0.5-0.1,1-0.5,1.2-0.9c0.3-0.5,0.3-1,0.2-1.5l-0.7-2.7
					C48.3,281.3,47.4,280.7,46.5,280.7L46.5,280.7z"/>
			</g>
			<g>
				<path class="st27" d="M54,302.2c-0.2,0-0.4,0-0.5-0.1c-0.2-0.1-0.4-0.4-0.5-0.6l-4.9-19.1c-0.1-0.5,0.2-1.1,0.7-1.2l4.3-1.1
					c0.1,0,0.2,0,0.2,0c0.3,0,0.6,0.2,0.8,0.4l7.8,11.1l1.4-13.4c0-0.4,0.3-0.8,0.7-0.9l4.3-1.1c0.1,0,0.2,0,0.2,0
					c0.4,0,0.9,0.3,1,0.8l4.9,19.1c0.1,0.3,0,0.5-0.1,0.8c-0.1,0.2-0.4,0.4-0.6,0.5l-3.3,0.9c-0.1,0-0.2,0-0.3,0
					c-0.4,0-0.9-0.3-1-0.8l-1.6-6.3l-0.6-2.6L66,298.4c0,0.4-0.3,0.8-0.7,0.9l-2.4,0.6c-0.1,0-0.2,0-0.2,0c-0.3,0-0.6-0.2-0.8-0.4
					l-5.9-8.3l0.8,2.5l1.6,6.3c0.1,0.5-0.2,1.1-0.7,1.2l-3.3,0.9C54.1,302.1,54.1,302.2,54,302.2z"/>
				<path class="st10" d="M68.7,277l4.9,19.1l-3.3,0.9l-1.6-6.3l-1.8-8.5L65,298.3l-2.4,0.6l-9.4-13.3l2.5,8.3l1.6,6.3l-3.3,0.9
					L49.1,282l4.3-1.1l9.3,13.2l1.7-16.1L68.7,277 M68.7,275c-0.2,0-0.3,0-0.5,0.1l-4.3,1.1c-0.8,0.2-1.4,0.9-1.5,1.7l-1.2,10.8
					l-6.2-8.9c-0.4-0.5-1-0.9-1.6-0.9c-0.2,0-0.3,0-0.5,0.1l-4.3,1.1c-1.1,0.3-1.7,1.4-1.4,2.4l4.9,19.1c0.1,0.5,0.5,1,0.9,1.2
					c0.3,0.2,0.7,0.3,1,0.3c0.2,0,0.3,0,0.5-0.1l3.3-0.9c1.1-0.3,1.7-1.4,1.4-2.4l-0.9-3.4l2.6,3.7c0.4,0.5,1,0.8,1.6,0.8
					c0.2,0,0.3,0,0.5-0.1l2.4-0.6c0.8-0.2,1.4-0.9,1.5-1.7l0.5-4.5l0.9,3.4c0.1,0.5,0.5,1,0.9,1.2c0.3,0.2,0.7,0.3,1,0.3
					c0.2,0,0.3,0,0.5-0.1l3.3-0.9c1.1-0.3,1.7-1.4,1.4-2.4l-4.9-19.1C70.4,275.6,69.6,275,68.7,275L68.7,275z"/>
			</g>
			<g>
				<path class="st27" d="M77.5,296.1c-0.2,0-0.4,0-0.5-0.1c-0.2-0.1-0.4-0.4-0.5-0.6l-4.9-19.1c-0.1-0.3,0-0.5,0.1-0.8
					c0.1-0.2,0.4-0.4,0.6-0.5l3.3-0.9c0.1,0,0.2,0,0.3,0c0.4,0,0.9,0.3,1,0.8l4,15.5l7.7-2c0.1,0,0.2,0,0.2,0c0.2,0,0.4,0,0.5,0.1
					c0.2,0.1,0.4,0.4,0.5,0.6l0.7,2.7c0.1,0.5-0.2,1.1-0.7,1.2l-12,3.1C77.7,296.1,77.6,296.1,77.5,296.1z"/>
				<path class="st10" d="M75.9,275.1l4.2,16.5l8.7-2.2l0.7,2.7l-12,3.1L72.6,276L75.9,275.1 M75.9,273.1c-0.2,0-0.3,0-0.5,0.1
					l-3.3,0.9c-0.5,0.1-1,0.5-1.2,0.9c-0.3,0.5-0.3,1-0.2,1.5l4.9,19.1c0.2,0.9,1,1.5,1.9,1.5c0.2,0,0.3,0,0.5-0.1l12-3.1
					c1.1-0.3,1.7-1.4,1.4-2.4l-0.7-2.7c-0.1-0.5-0.5-1-0.9-1.2c-0.3-0.2-0.7-0.3-1-0.3c-0.2,0-0.3,0-0.5,0.1l-6.7,1.7l-3.7-14.5
					C77.6,273.7,76.8,273.1,75.9,273.1L75.9,273.1z"/>
			</g>
		</g>
	</g>
	<g>
		<path class="st20" d="M97.5,201.8h48c3.1,0,5.6,4.3,5.6,9.7v19.8c0,4.9-2.1,9-4.9,9.6c-0.4,0.1-0.7,0.7-0.7,1.4v10.8
			c0,0.6-0.5,0.9-0.7,0.4l-4.9-11.9c-0.2-0.4-0.4-0.6-0.7-0.6H97.5c-3.1,0-5.6-4.4-5.6-9.7v-19.8C91.9,206.1,94.4,201.8,97.5,201.8z
			"/>
		<g>
			<g>
				<path class="st27" d="M111.8,232.5c-2.4,0-4.3-0.6-5.6-1.9c-1.4-1.3-2.1-3-2.1-5.2c0-0.6,0.4-1,1-1h3.6c0.6,0,1,0.4,1,1
					c0,0.8,0.2,1.4,0.5,1.8c0.3,0.4,0.9,0.5,1.6,0.5c0.7,0,1.2-0.2,1.5-0.6c0.4-0.4,0.6-1.1,0.6-2v-14.4c0-0.6,0.4-1,1-1h3.6
					c0.6,0,1,0.4,1,1v14.4c0,2.2-0.7,4.1-2.2,5.4C116,231.8,114.1,232.5,111.8,232.5z"/>
				<path class="st10" d="M118.5,210.7v14.4c0,2-0.6,3.5-1.8,4.7c-1.2,1.2-2.8,1.7-4.9,1.7c-2.1,0-3.8-0.5-5-1.6
					c-1.2-1.1-1.7-2.6-1.7-4.5h3.6c0,1.1,0.3,1.9,0.8,2.5c0.5,0.5,1.3,0.8,2.3,0.8c1,0,1.7-0.3,2.3-1c0.6-0.6,0.9-1.5,0.9-2.6v-14.4
					H118.5 M118.5,208.7H115c-1.1,0-2,0.9-2,2v14.4c0,0.6-0.1,1-0.3,1.3c-0.1,0.1-0.3,0.3-0.8,0.3c-0.3,0-0.7,0-0.9-0.2
					c-0.1-0.2-0.2-0.5-0.2-1.1c0-1.1-0.9-2-2-2h-3.6c-1.1,0-2,0.9-2,2c0,2.5,0.8,4.5,2.4,6c1.5,1.4,3.7,2.2,6.3,2.2
					c2.5,0,4.6-0.8,6.2-2.3c1.6-1.5,2.5-3.6,2.5-6.1v-14.4C120.5,209.6,119.6,208.7,118.5,208.7L118.5,208.7z"/>
			</g>
			<g>
				<path class="st27" d="M129.6,232.5c-1.6,0-3.1-0.3-4.5-0.9c-1.4-0.6-2.5-1.5-3.3-2.6c-0.8-1.1-1.2-2.5-1.2-4c0-0.6,0.4-1,1-1
					h3.6c0.6,0,1,0.4,1,1c0,0.9,0.3,1.5,0.8,1.9c0.6,0.5,1.5,0.7,2.7,0.7c1,0,1.7-0.2,2.2-0.5c0.4-0.3,0.6-0.7,0.6-1.2
					c0-0.8-0.3-1.1-0.6-1.3c-0.4-0.3-1.2-0.7-3.1-1.3c-1.8-0.5-3.1-1.1-4.2-1.8c-2.2-1.4-3.3-3.2-3.3-5.4c0-2,0.8-3.6,2.4-4.9
					c1.5-1.2,3.5-1.8,5.9-1.8c1.6,0,3,0.3,4.2,0.9c1.3,0.6,2.3,1.5,3,2.6c0.7,1.1,1.1,2.4,1.1,3.8c0,0.6-0.4,1-1,1h-3.6
					c-0.6,0-1-0.4-1-1c0-0.8-0.2-1.4-0.7-1.8c-0.5-0.4-1.2-0.7-2.2-0.7c-0.9,0-1.6,0.2-2.1,0.5c-0.4,0.3-0.6,0.7-0.6,1.3
					c0,0.3,0.1,0.7,0.6,1.1c0.4,0.3,1.3,0.8,3.1,1.3c1.7,0.5,3.1,1.1,4.1,1.7c1.1,0.7,1.9,1.5,2.5,2.4c0.5,0.9,0.8,2,0.8,3.3
					c0,2-0.8,3.7-2.4,4.9C134.1,231.9,132.1,232.5,129.6,232.5z"/>
				<path class="st10" d="M129.5,210.4c1.4,0,2.7,0.3,3.8,0.8c1.1,0.5,2,1.3,2.6,2.3c0.6,1,1,2.1,1,3.2h-3.6c0-1.1-0.3-1.9-1-2.5
					c-0.7-0.6-1.6-0.9-2.9-0.9c-1.2,0-2.1,0.2-2.7,0.7c-0.6,0.5-1,1.2-1,2.1c0,0.8,0.3,1.4,1,1.9c0.7,0.5,1.8,1,3.4,1.5
					c1.6,0.5,2.9,1,3.9,1.6c1,0.6,1.7,1.3,2.1,2.1c0.5,0.8,0.7,1.7,0.7,2.8c0,1.7-0.7,3.1-2,4.1c-1.3,1-3.1,1.5-5.3,1.5
					c-1.5,0-2.9-0.3-4.1-0.8c-1.2-0.6-2.2-1.3-2.9-2.3c-0.7-1-1-2.1-1-3.4h3.6c0,1.2,0.4,2.1,1.2,2.7c0.8,0.6,1.9,1,3.3,1
					c1.2,0,2.2-0.3,2.8-0.8c0.6-0.5,0.9-1.2,0.9-2c0-0.9-0.3-1.6-1-2.1c-0.6-0.5-1.8-1-3.4-1.5c-1.7-0.5-3-1.1-3.9-1.7
					c-1.9-1.2-2.8-2.7-2.8-4.6c0-1.7,0.7-3,2-4.1C125.6,210.9,127.3,210.4,129.5,210.4 M129.5,208.4c-2.6,0-4.8,0.7-6.5,2
					c-1.8,1.4-2.8,3.4-2.8,5.7c0,1.8,0.6,4.3,3.7,6.3c0.3,0.2,0.7,0.4,1.1,0.6h-3.5c-1.1,0-2,0.9-2,2c0,1.7,0.5,3.2,1.4,4.5
					c0.9,1.3,2.2,2.3,3.7,2.9c1.5,0.7,3.1,1,4.9,1c2.7,0,4.9-0.6,6.6-1.9c1.8-1.4,2.7-3.3,2.7-5.7c0-1.4-0.3-2.7-0.9-3.8
					c-0.6-1.1-1.6-2-2.8-2.8c-0.4-0.2-0.8-0.5-1.3-0.7h3c1.1,0,2-0.9,2-2c0-1.6-0.4-3-1.3-4.3c-0.8-1.3-2-2.3-3.5-3
					C132.8,208.7,131.2,208.4,129.5,208.4L129.5,208.4z M131.7,217.8c-0.3-0.1-0.6-0.2-0.9-0.3c-1.8-0.5-2.6-1-2.8-1.2
					c-0.2-0.2-0.2-0.2-0.2-0.3c0-0.4,0.1-0.4,0.2-0.5c0.3-0.2,0.8-0.3,1.5-0.3c0.5,0,1.2,0.1,1.5,0.4c0.1,0.1,0.3,0.3,0.3,1
					C131.4,217.1,131.5,217.5,131.7,217.8L131.7,217.8z M129.6,226.7c-0.9,0-1.6-0.2-2-0.5c-0.2-0.2-0.4-0.5-0.4-1.2
					c0-0.5-0.2-1-0.5-1.3c0.5,0.2,1.1,0.4,1.7,0.6c1.9,0.6,2.6,1,2.8,1.2c0.1,0.1,0.2,0.1,0.2,0.5c0,0.2-0.1,0.3-0.2,0.4
					C131.1,226.4,130.7,226.7,129.6,226.7L129.6,226.7z"/>
			</g>
		</g>
	</g>
	<g>
		<path class="st42" d="M551.3,267.6c-1.3-1.6-3.5-2.6-6.7-3.2c-3.2-0.6-5.5-0.8-7.2-0.9l-4.3,22.9l5.2,1l1.6-8.3
			c0.4,0.2,1,0.3,1.7,0.5c3.2,0.6,5.9,0.3,8-1.1c1.7-1,2.7-2.8,3.2-5.1C553.2,271.2,552.7,269.1,551.3,267.6z M542.4,275.5
			c-0.8-0.2-1.3-0.2-1.8-0.5l1.3-6.9c0.4-0.1,1.1,0,2.2,0.2c2.6,0.5,3.8,1.9,3.5,4.2C547.1,275,545.2,276.1,542.4,275.5z"/>
		<path class="st42" d="M560,280.9c-2-1.1-2.5-1.6-2.4-2.4c0.2-1,1-1.3,2.3-1c1.4,0.3,2.8,1.2,3.5,1.6l1.6-3.5
			c-1-0.7-2.5-1.5-4.5-1.8c-4.1-0.8-7.3,1.1-7.9,4.2c-0.5,2,0.6,4.2,3.8,6c1.9,1,2.3,1.5,2.1,2.4c-0.2,0.8-1,1.3-2.5,1
			c-1.5-0.3-3.4-1.4-4.3-2l-1.7,3.6c1.2,1,3,1.8,5.2,2.2c4.8,0.9,7.8-0.9,8.4-4.1C563.9,284.5,563,282.6,560,280.9z"/>
	</g>
	<g>
		<path class="st20" d="M497.7,198.8l-47.6,6.4c-3,0.4-4.9,5.1-4.2,10.4l2.6,19.6c0.7,4.9,3.3,8.7,6.1,8.9c0.4,0,0.8,0.6,0.9,1.3
			l1.4,10.7c0.1,0.6,0.6,0.8,0.7,0.3l3.3-12.5c0.1-0.4,0.3-0.6,0.6-0.7l41.4-5.6c3-0.4,4.9-5.1,4.2-10.4l-2.6-19.6
			C503.8,202.4,500.8,198.4,497.7,198.8z"/>
		<g>
			<path class="st42" d="M487.5,212.7c1.9-0.3,2.8-1.7,2.5-3.2c-0.2-1.7-1.5-2.6-3.3-2.4c-1.8,0.2-2.7,1.5-2.5,3.2
				C484.4,211.8,485.7,212.9,487.5,212.7z"/>
			<path class="st42" d="M467.5,210.8l-4.1,25.4l5.7-0.8l0.9-6.5l6.9-0.9l2.7,6l5.9-0.8l-10.8-23.4L467.5,210.8z M470.1,224.7
				c0,0,1.1-8.7,1.3-10.3c0.4,1.4,4,9.6,4.1,9.5L470.1,224.7z"/>
			
				<rect x="486.3" y="214.9" transform="matrix(0.9911 -0.1332 0.1332 0.9911 -25.4518 67.1439)" class="st42" width="5.5" height="17.8"/>
		</g>
	</g>
	<line class="st27" x1="-533" y1="287.1" x2="-533" y2="-129.9"/>
	<g>
		<path class="st17" d="M310.4,424.7c-0.1-0.6-0.1-1.2,0.1-1.8c0.5-2,1.1-5.8-0.2-10c-2.2-6.9-11.1-13-11.1-13s2.4,10.1,4.4,14.5
			c1.5,3.2,4,6.8,5.4,8.6c0.4,0.5,0.7,1.1,0.8,1.8c1.4,8,1.2,14.1,1.2,14.2l0.7,0C311.6,439,311.9,432.7,310.4,424.7z"/>
		<path class="st20" d="M317.5,418.2c1.8-5.6,2.6-12.2,2.6-12.2s-8,6.6-8.6,11.7c-0.4,3.1,0.1,5.6,0.5,7.1c0.2,0.6,0.3,1.3,0.2,1.9
			c-0.8,7.5-0.2,13.3-0.2,13.4l0.6-0.1c0-0.1-0.6-5.4,0.1-12.5c0.1-1,0.5-1.9,1.1-2.6C315,423.5,316.6,421.1,317.5,418.2z"/>
		<path class="st17" d="M325.6,405.8c0,0-8.6,3.2-10.9,10.2c-1.4,4.3-0.7,8.2-0.2,10.3c0.2,0.6,0.1,1.2,0,1.8c-2,8.1-2,16.5-2,16.6
			h0.7c0-0.1,0-8.3,2-16.2c0.2-0.8,0.5-1.5,1-2.2c1.5-2,4-5.5,5.4-8.7C323.7,413.1,325.6,405.8,325.6,405.8z"/>
		<path class="st20" d="M310.4,435.4c-0.2-2.9-1-5.6-2-7.8c-0.2-0.4-0.3-0.9-0.2-1.4c0.1-0.9,0.2-2.4-0.2-4.2
			c-0.7-3.5-5.3-10.9-11.9-11.3c0,0,2.3,3.7,3.5,6.8c1.5,3.9,3.6,8,7.1,9.5c0.6,0.3,1.1,0.8,1.4,1.4c0.9,2.1,1.5,4.5,1.7,7.1
			L310.4,435.4z"/>
		<g>
			<g>
				<path class="st17" d="M306,450.5h10.9l2.8-17.4c0.1-0.8-0.5-1.5-1.2-1.5h-14.1c-0.8,0-1.4,0.7-1.2,1.5L306,450.5z"/>
			</g>
		</g>
	</g>
</g>
</svg>
