<svg width="590" height="200" viewBox="0 0 590 200" fill="none" xmlns="http://www.w3.org/2000/svg">
<mask id="mask0" mask-type="alpha" maskUnits="userSpaceOnUse" x="0" y="0" width="590" height="200">
<rect width="590" height="200" fill="#79C8A4"/>
</mask>
<g mask="url(#mask0)">
<path d="M35.8214 221.862C35.8214 257.441 62.1232 286.276 94.5631 286.276C105.332 286.276 115.442 283.088 124.132 277.526C132.811 283.088 142.921 286.276 153.701 286.276C186.141 286.276 212.432 257.441 212.432 221.862C212.432 186.283 186.141 157.448 153.701 157.448C142.932 157.448 132.822 160.636 124.132 166.198C115.442 160.636 105.343 157.448 94.5631 157.448C62.1232 157.448 35.8214 186.283 35.8214 221.862Z" fill="#F3C4BB"/>
<path d="M142.426 144.35C142.426 144.35 142.184 91.1344 224.587 89.1924C218.999 110.523 210.287 138.144 142.426 144.35Z" fill="#79C8A4"/>
<path d="M153.669 153.437C150.457 153.437 147.245 153.711 144.088 154.228C144.077 154.228 144.066 154.228 144.055 154.228C143.109 154.386 142.173 154.576 141.238 154.766C135.804 154.766 128.434 158.925 124.1 161.426C90.615 142.059 51.0468 160.751 37.2524 193.459C24.217 224.352 34.0623 264.036 64.4562 282.063C82.6617 292.86 105.718 293.019 124.1 282.401C154.032 299.699 190.322 286.675 206.767 258.685C222.52 231.909 219.297 195.939 197.67 172.952C186.439 161.036 170.565 153.437 153.669 153.437ZM153.669 282.253C148.543 282.253 143.439 281.44 138.587 279.889C136.299 279.161 134.066 278.274 131.91 277.24C129.743 276.184 127.158 273.799 124.727 273.598C120.8 273.261 116.136 277.493 112.539 278.876C107.478 280.839 102.055 281.979 96.5992 282.2C80.3957 282.876 65.2042 275.277 55.0289 263.403C33.1273 237.861 35.3494 196.14 61.4641 173.997C76.6006 161.162 98.2272 157.795 116.477 166.682C106.323 174.799 98.8982 185.796 94.7291 197.786C92.441 204.372 91.121 211.243 90.78 218.177C90.659 220.563 90.109 223.592 92.419 225.217C94.8171 226.906 97.9082 225.66 98.9532 223.212C100.009 220.753 99.3382 216.552 99.6462 213.913C100.031 210.757 100.625 207.623 101.472 204.541C103.078 198.652 105.531 192.952 108.799 187.728C114.662 178.324 123.374 170.091 133.934 165.69C138.136 163.769 142.823 162.556 147.421 161.986H147.432C180.785 157.416 205.733 187.432 207.977 216.816C210.32 247.561 188.815 282.253 153.669 282.253Z" fill="#243842"/>
<path d="M94.5746 291.858C83.8603 291.858 73.1459 289.029 63.6307 283.383C34.0288 265.81 21.7854 226.062 35.7778 192.889C43.3461 174.968 58.7355 160.783 76.9851 154.957C92.8915 149.869 109.579 151.537 124.11 159.643C128.17 157.31 135.43 153.321 141.073 153.236C141.909 153.057 142.745 152.898 143.592 152.751L143.834 152.708C163.954 149.405 184.557 156.719 198.869 171.939C220.55 194.968 224.466 231.772 208.186 259.456C199.298 274.559 184.601 285.652 167.848 289.884C152.953 293.652 137.454 291.636 124.121 284.195C114.936 289.304 104.761 291.858 94.5746 291.858ZM95.2676 155.146C89.5034 155.146 83.6843 156.054 77.9861 157.88C60.6166 163.432 45.9532 176.962 38.7369 194.05C25.3165 225.872 36.9879 263.963 65.3027 280.765C83.1232 291.33 105.344 291.467 123.274 281.092L124.099 280.617L124.924 281.092C137.685 288.47 152.634 290.549 167.001 286.908C182.918 282.887 196.911 272.332 205.359 257.936C220.979 231.371 217.239 196.077 196.46 173.997C182.94 159.622 163.569 152.677 144.571 155.706L144.307 155.748C143.394 155.906 142.481 156.086 141.579 156.276L141.227 156.307C136.046 156.307 128.533 160.656 124.924 162.735L124.099 163.21L123.274 162.735C114.562 157.701 104.981 155.146 95.2676 155.146ZM153.668 283.794C148.41 283.794 143.174 282.971 138.081 281.356C135.705 280.607 133.384 279.678 131.184 278.623C130.392 278.243 129.545 277.694 128.665 277.124C127.301 276.237 125.761 275.235 124.561 275.14C122.526 274.981 119.82 276.596 117.433 278.021C115.926 278.918 114.496 279.784 113.11 280.311C107.808 282.359 102.264 283.52 96.6427 283.752C80.8242 284.396 64.7307 277.177 53.7744 264.395C31.0587 237.893 34.1388 195.127 60.3856 172.857C76.413 159.263 98.7107 156.307 117.202 165.321L119.369 166.376L117.499 167.875C107.83 175.59 100.482 186.113 96.2466 198.272C94.0136 204.678 92.7155 211.402 92.3745 218.251L92.3195 219.17C92.1545 221.513 92.1325 223.117 93.3646 223.982C94.1896 224.563 94.9816 224.51 95.4986 224.373C96.3676 224.141 97.1047 223.497 97.4677 222.642C98.0177 221.354 97.9847 219.191 97.9627 217.27C97.9517 216.003 97.9297 214.8 98.0617 213.745C98.4687 210.441 99.0847 207.222 99.9208 204.161C101.593 198.019 104.112 192.224 107.412 186.947C113.858 176.604 123.054 168.551 133.296 164.297C137.377 162.418 142.217 161.099 147.211 160.476C160.786 158.608 173.898 162.197 185.052 170.82C198.825 181.459 208.208 199.042 209.561 216.721C210.969 235.075 203.995 254.559 191.377 267.593C181.092 278.179 168.057 283.794 153.668 283.794ZM124.275 272.037C124.473 272.037 124.66 272.047 124.858 272.058C126.883 272.237 128.786 273.472 130.48 274.57C131.217 275.055 131.954 275.53 132.625 275.868C134.693 276.86 136.871 277.726 139.093 278.433C143.867 279.953 148.762 280.723 153.668 280.723C167.144 280.723 179.365 275.446 189.023 265.482C201.058 253.06 207.702 234.463 206.371 216.932C205.084 200.077 196.152 183.316 183.05 173.205C172.6 165.12 160.357 161.775 147.651 163.516C142.954 164.097 138.455 165.321 134.616 167.084C124.946 171.115 116.278 178.725 110.162 188.52C107.016 193.554 104.618 199.074 103.023 204.932C102.231 207.855 101.626 210.937 101.241 214.093C101.131 214.958 101.153 216.067 101.164 217.228C101.197 219.55 101.23 221.945 100.427 223.803C99.6897 225.523 98.1717 226.843 96.3676 227.328C94.6516 227.782 92.9135 227.476 91.4615 226.452C88.7224 224.521 88.9424 221.312 89.1184 218.959L89.1734 218.104C89.5254 210.979 90.8785 203.982 93.1996 197.301C97.3577 185.374 104.376 174.978 113.572 167.062C96.7086 159.875 76.9191 162.946 62.5196 175.168C37.5159 196.383 34.5788 237.175 56.2604 262.453C66.5788 274.496 81.7042 281.325 96.5326 280.691C101.791 280.47 106.972 279.383 111.933 277.472C113.055 277.04 114.364 276.248 115.75 275.425C118.39 273.82 121.371 272.037 124.275 272.037Z" fill="#243842"/>
<path d="M124.826 153.036C124.595 153.036 124.375 153.015 124.144 152.984C121.834 152.625 120.261 150.546 120.624 148.319C120.635 148.224 122.164 138.63 119.579 128.117C116.268 114.671 107.963 105.985 94.8941 102.301C92.6391 101.657 91.363 99.3987 92.0231 97.2456C92.6831 95.082 95.0372 93.8471 97.2922 94.4909C113.364 99.0293 123.957 110.101 127.906 126.524C130.81 138.556 129.083 149.163 129.017 149.617C128.665 151.601 126.861 153.036 124.826 153.036Z" fill="#243842"/>
<path d="M124.826 154.567C124.507 154.567 124.199 154.546 123.891 154.493C120.712 154.007 118.545 151.126 119.051 148.076C119.205 147.105 120.426 138.197 118.028 128.476C114.859 115.611 106.928 107.294 94.4539 103.779C91.3628 102.903 89.5808 99.7791 90.4938 96.8133C91.4068 93.837 94.6519 92.1378 97.754 93.0138C114.419 97.7105 125.387 109.183 129.479 126.176C132.449 138.503 130.667 149.395 130.601 149.849C130.128 152.583 127.708 154.567 124.826 154.567ZM96.0929 95.8635C94.9489 95.8635 93.9039 96.5811 93.5629 97.6788C93.1448 99.0087 93.9589 100.423 95.3559 100.824C109.018 104.676 117.698 113.743 121.141 127.759C123.671 138.039 122.373 147.474 122.219 148.509C121.977 149.944 122.956 151.242 124.397 151.464C125.893 151.707 127.191 150.714 127.422 149.364C127.499 148.92 129.171 138.619 126.344 126.862C122.527 111.02 112.329 100.328 96.841 95.9584C96.5879 95.8951 96.3349 95.8635 96.0929 95.8635Z" fill="#243842"/>
<path d="M142.426 148.001C141.48 148.001 140.578 147.664 139.874 147.051C139.082 146.365 138.631 145.384 138.62 144.36C138.62 143.769 138.686 129.7 149.521 115.346C155.846 106.977 164.537 100.243 175.361 95.3246C188.638 89.2875 205.161 85.9946 224.499 85.5302C225.676 85.5091 226.831 86.0051 227.568 86.9023C228.305 87.7994 228.57 88.9604 228.284 90.0686C225.83 99.4197 222.134 113.563 209.484 125.088C195.69 137.648 173.876 145.141 142.789 147.98C142.657 147.991 142.547 148.001 142.426 148.001ZM219.604 93.0238C203.533 93.8576 189.76 96.8444 178.606 101.921C168.959 106.322 161.248 112.275 155.681 119.642C149.587 127.705 147.42 135.632 146.661 140.254C173.524 137.299 192.4 130.587 204.237 119.8C213.004 111.811 216.832 102.628 219.604 93.0238Z" fill="#243842"/>
<path d="M142.426 149.533C141.084 149.533 139.797 149.058 138.796 148.192C137.663 147.221 137.025 145.817 137.014 144.371C137.014 143.759 137.069 129.205 148.234 114.45C154.714 105.869 163.602 98.9662 174.668 93.9317C188.144 87.7996 204.897 84.4538 224.456 84C224.5 84 224.544 84 224.577 84C226.216 84 227.789 84.7177 228.812 85.942C229.868 87.2086 230.242 88.8867 229.846 90.4488C227.338 99.9794 223.587 114.386 210.595 126.207C196.537 139.02 174.415 146.641 142.954 149.511C142.745 149.533 142.591 149.533 142.426 149.533ZM224.588 87.0819C224.566 87.0819 224.555 87.0819 224.533 87.0819C205.436 87.5252 189.112 90.776 176.043 96.7287C165.472 101.541 156.991 108.117 150.819 116.265C140.27 130.218 140.215 143.791 140.226 144.371C140.226 144.962 140.49 145.532 140.941 145.923C141.348 146.271 141.876 146.472 142.426 146.472L142.657 146.461C173.348 143.654 194.854 136.308 208.373 123.991C220.682 112.771 224.313 98.8923 226.722 89.71C226.887 89.0661 226.733 88.3906 226.304 87.8735C225.897 87.3669 225.248 87.0819 224.588 87.0819ZM144.736 142.018L145.066 140.012C145.946 134.767 148.267 126.819 154.384 118.735C160.115 111.167 168.024 105.046 177.924 100.528C189.255 95.3777 203.258 92.338 219.516 91.4937L221.739 91.3776L221.144 93.4357C218.471 102.66 214.709 112.37 205.337 120.909C193.215 131.949 174.074 138.778 146.837 141.786L144.736 142.018ZM217.426 94.7022C202.554 95.6732 189.728 98.5651 179.288 103.315C169.894 107.6 162.381 113.394 156.98 120.539C151.974 127.157 149.675 133.659 148.619 138.471C174.008 135.442 191.851 128.951 203.126 118.671C211.244 111.294 214.918 102.861 217.426 94.7022Z" fill="#243842"/>
</g>
</svg>
