<svg width="1180" height="350" viewBox="0 0 1180 350" fill="none" xmlns="http://www.w3.org/2000/svg">
<mask id="mask0" mask-type="alpha" maskUnits="userSpaceOnUse" x="0" y="0" width="1180" height="350">
<rect width="1180" height="350" fill="#C4C4C4"/>
</mask>
<g mask="url(#mask0)">
<path d="M556.162 371.325C556.162 371.325 601.176 354.116 630.57 371.508L643.999 361.395L637.786 317.484L623.551 298.867H555.089L546.33 325.909C546.33 325.909 542.145 367.113 556.162 371.325Z" fill="#243842"/>
<path d="M638.931 330.618C638.931 357.843 620.319 378.686 594.221 378.686C568.121 378.686 544.364 357.249 552.342 331.213C558.567 310.901 568.973 281.318 595.07 281.318C621.168 281.316 638.931 303.391 638.931 330.618Z" fill="white"/>
<path d="M594.239 379.422C579.519 379.422 565.339 372.552 557.229 361.487C550.607 352.45 548.76 341.534 552.032 330.75C555.427 319.546 559.441 307.864 565.761 298.312C573.54 286.548 583.399 280.585 595.065 280.585C607.595 280.585 618.964 285.817 627.081 295.32C634.937 304.518 639.266 317.053 639.266 330.611C639.266 344.042 634.778 356.376 626.634 365.334C618.373 374.416 606.866 379.422 594.239 379.422ZM595.053 283.633C584.906 283.633 576.628 288.987 569.744 300.002C563.981 309.228 560.277 320.657 557.132 331.637C554.315 341.477 555.904 351.431 561.608 359.673C568.739 369.971 581.257 376.371 594.271 376.371C617.261 376.371 633.951 357.122 633.951 330.606C633.951 303.827 617.229 283.633 595.053 283.633Z" fill="#243842"/>
<path d="M615.998 342.726C620.189 342.726 623.586 339.334 623.586 335.149C623.586 330.964 620.189 327.572 615.998 327.572C611.807 327.572 608.41 330.964 608.41 335.149C608.41 339.334 611.807 342.726 615.998 342.726Z" fill="#243842"/>
<path d="M616.946 340.622C618.691 340.622 620.106 339.209 620.106 337.466C620.106 335.724 618.691 334.311 616.946 334.311C615.201 334.311 613.786 335.724 613.786 337.466C613.786 339.209 615.201 340.622 616.946 340.622Z" fill="white"/>
<path d="M568.159 353.336C571.66 353.336 574.499 351.578 574.499 349.41C574.499 347.242 571.66 345.484 568.159 345.484C564.658 345.484 561.82 347.242 561.82 349.41C561.82 351.578 564.658 353.336 568.159 353.336Z" fill="#F3C4BB"/>
<path d="M619.322 353.336C622.823 353.336 625.661 351.578 625.661 349.41C625.661 347.242 622.823 345.484 619.322 345.484C615.821 345.484 612.982 347.242 612.982 349.41C612.982 351.578 615.821 353.336 619.322 353.336Z" fill="#F3C4BB"/>
<path d="M645.052 304.412C641.769 292.571 636.464 281.256 627.067 273.583C619.595 267.48 610.083 264.223 600.495 263.125C589.876 261.911 578.848 263.276 569.224 267.914C555.289 274.631 546.726 287.217 542.26 301.638C536.871 319.045 534.394 337.93 538.946 355.816C540.016 360.01 541.533 364.238 544.464 367.431C547.393 370.623 552.013 372.574 556.165 371.325C551.03 360.3 550.121 347.374 553.666 335.741C555.24 330.579 557.866 325.435 562.413 322.521C567.204 319.452 573.25 319.36 578.939 319.368C588.811 319.383 598.683 319.395 608.554 319.407C615.984 319.417 624.334 319.806 629.368 325.267C632.192 328.33 633.441 332.519 634.19 336.616C636.323 348.276 635.052 360.535 630.571 371.511C635.64 372.254 640.748 369.396 643.841 365.319C646.932 361.239 648.312 356.121 649.089 351.064C650.965 338.865 649.726 326.375 647.353 314.259C646.711 310.978 645.958 307.674 645.052 304.412Z" fill="#243842"/>
<path d="M608.249 264.806C608.249 264.806 614.397 258.366 619.324 262.644C619.324 262.644 610.843 264.558 615.033 268.943" fill="#243842"/>
<path d="M610.696 265.356C610.696 265.356 607.404 257.09 601.231 259.219C601.231 259.219 608.382 264.159 602.855 266.662" fill="#243842"/>
<path d="M538.501 316.889C538.501 316.889 537.573 356.485 530 358.572C530 358.572 540.817 355.504 544.064 346.469" fill="#243842"/>
<path d="M566.207 343.165C565.609 343.165 565.036 342.818 564.775 342.238C564.42 341.45 564.775 340.523 565.565 340.168L574.225 336.292L565.674 333.201C564.86 332.908 564.438 332.011 564.733 331.196C565.026 330.383 565.924 329.959 566.741 330.254L578.941 334.661C579.542 334.877 579.949 335.437 579.976 336.074C579.998 336.713 579.634 337.301 579.05 337.563L566.85 343.026C566.642 343.12 566.421 343.165 566.207 343.165Z" fill="#243842"/>
<path d="M571.126 194.939C569.537 203.117 574.057 210.875 581.222 212.267C583.601 212.73 585.976 212.431 588.144 211.526C589.812 213.177 591.903 214.343 594.283 214.806C601.448 216.199 608.543 210.7 610.133 202.521C611.723 194.343 607.204 186.586 600.04 185.193C597.661 184.731 595.286 185.03 593.118 185.935C591.447 184.284 589.359 183.117 586.978 182.655C579.813 181.262 572.716 186.761 571.126 194.939Z" fill="#F3C4BB"/>
<path d="M598.135 181.699C598.135 181.699 600.459 169.456 618.746 172.547C616.558 177.21 613.4 183.185 598.135 181.699Z" fill="#79C8A4"/>
<path d="M600.212 184.27C599.502 184.132 598.78 184.057 598.06 184.041C598.058 184.04 598.055 184.04 598.053 184.039C597.837 184.035 597.622 184.039 597.407 184.042C596.206 183.809 594.393 184.448 593.324 184.837C586.794 178.948 577.219 181.546 572.711 188.472C568.452 195.013 568.853 204.558 574.761 210.007C578.299 213.27 583.384 214.296 587.919 212.645C593.757 217.906 602.354 216.47 607.236 210.743C611.912 205.264 612.807 196.857 609.058 190.645C607.11 187.424 603.943 184.995 600.212 184.27ZM594.456 213.88C593.324 213.66 592.233 213.254 591.231 212.689C590.758 212.424 590.304 212.124 589.874 211.794C589.443 211.458 588.978 210.799 588.45 210.648C587.598 210.402 586.379 211.175 585.523 211.338C584.317 211.572 583.069 211.601 581.854 211.418C578.245 210.878 575.229 208.479 573.512 205.313C569.816 198.501 572.171 189.006 578.928 185.038C582.845 182.737 587.772 182.892 591.405 185.718C588.8 187.148 586.669 189.357 585.212 191.934C584.413 193.35 583.814 194.872 583.429 196.452C583.296 196.995 583.039 197.667 583.476 198.14C583.931 198.631 584.669 198.478 585.009 197.96C585.352 197.44 585.392 196.446 585.578 195.852C585.804 195.143 586.075 194.448 586.4 193.776C587.018 192.491 587.814 191.287 588.769 190.226C590.484 188.316 592.776 186.798 595.305 186.24C596.319 185.978 597.409 185.901 598.45 185.967L598.452 185.967C606.023 186.349 610.192 194.32 609.374 201.17C608.518 208.338 602.218 215.389 594.456 213.88Z" fill="#243842"/>
<path d="M580.975 213.551C578.609 213.091 576.369 211.981 574.519 210.274C568.767 204.964 567.838 195.302 572.411 188.277C574.883 184.483 578.916 181.883 583.207 181.327C586.947 180.841 590.559 181.94 593.406 184.427C594.407 184.066 596.188 183.46 597.439 183.683C597.631 183.678 597.823 183.677 598.017 183.68L598.072 183.68C602.663 183.785 606.887 186.351 609.368 190.463C613.127 196.688 612.348 205.316 607.515 210.98C604.877 214.071 601.136 215.989 597.247 216.243C593.789 216.47 590.455 215.341 587.843 213.058C585.586 213.838 583.225 213.988 580.975 213.551ZM587.236 182.156C585.963 181.908 584.638 181.867 583.297 182.042C579.213 182.573 575.37 185.053 573.013 188.671C568.627 195.41 569.503 204.667 575.006 209.744C578.469 212.938 583.371 213.924 587.795 212.308L587.998 212.235L588.159 212.379C590.648 214.623 593.857 215.743 597.192 215.522C600.888 215.282 604.45 213.456 606.959 210.51C611.596 205.074 612.347 196.8 608.744 190.833C606.4 186.948 602.432 184.52 598.101 184.401L598.041 184.399C597.832 184.397 597.622 184.399 597.414 184.404L597.335 184.396C596.191 184.173 594.337 184.85 593.447 185.173L593.244 185.247L593.083 185.102C591.384 183.571 589.382 182.573 587.236 182.156ZM594.387 214.234C593.226 214.009 592.106 213.595 591.053 213.005C590.562 212.731 590.091 212.417 589.652 212.08C589.494 211.959 589.331 211.796 589.163 211.628C588.901 211.365 588.606 211.069 588.345 210.995C587.903 210.872 587.233 211.127 586.642 211.352C586.269 211.493 585.914 211.631 585.585 211.693C584.322 211.936 583.046 211.964 581.794 211.777C578.271 211.245 575.04 208.895 573.191 205.487C569.358 198.42 571.949 188.721 578.741 184.729C582.888 182.292 587.945 182.57 591.626 185.436L592.058 185.772L591.578 186.036C589.098 187.394 587.004 189.498 585.526 192.111C584.746 193.487 584.159 194.977 583.778 196.537L583.725 196.746C583.584 197.277 583.507 197.645 583.74 197.897C583.897 198.066 584.074 198.088 584.194 198.078C584.397 198.062 584.588 197.946 584.707 197.765C584.886 197.493 584.975 196.994 585.056 196.551C585.11 196.26 585.159 195.982 585.235 195.745C585.473 195.003 585.753 194.29 586.074 193.622C586.718 192.282 587.533 191.058 588.498 189.987C590.384 187.886 592.775 186.43 595.227 185.892C596.212 185.635 597.34 185.54 598.471 185.611C601.552 185.764 604.288 187.152 606.366 189.613C608.933 192.65 610.219 197.094 609.728 201.216C609.219 205.496 606.808 209.675 603.439 212.129C600.695 214.121 597.565 214.852 594.387 214.234ZM588.42 210.27C588.464 210.278 588.505 210.289 588.548 210.3C588.987 210.428 589.352 210.793 589.678 211.118C589.819 211.262 589.96 211.403 590.093 211.509C590.506 211.826 590.948 212.118 591.407 212.376C592.394 212.931 593.441 213.318 594.524 213.528C597.5 214.107 600.435 213.419 603.014 211.543C606.227 209.204 608.525 205.215 609.014 201.128C609.483 197.198 608.259 192.962 605.818 190.075C603.871 187.768 601.316 186.474 598.432 186.328C597.369 186.26 596.32 186.349 595.394 186.589C593.078 187.101 590.823 188.478 589.035 190.466C588.115 191.489 587.339 192.654 586.725 193.932C586.419 194.57 586.148 195.253 585.922 195.962C585.859 196.156 585.814 196.412 585.765 196.679C585.668 197.214 585.569 197.766 585.308 198.159C585.069 198.523 584.674 198.761 584.254 198.795C583.855 198.826 583.485 198.681 583.21 198.383C582.691 197.821 582.883 197.093 583.027 196.56L583.077 196.366C583.474 194.743 584.085 193.193 584.896 191.757C586.347 189.194 588.362 187.105 590.747 185.681C587.343 183.304 582.835 183.161 579.109 185.352C572.639 189.155 570.167 198.406 573.827 205.147C575.567 208.358 578.603 210.577 581.906 211.068C583.078 211.243 584.271 211.216 585.452 210.989C585.719 210.938 586.043 210.812 586.386 210.683C587.041 210.427 587.779 210.145 588.42 210.27Z" fill="#243842"/>
<path d="M593.859 182.939C593.808 182.93 593.76 182.915 593.71 182.898C593.216 182.716 592.962 182.171 593.141 181.675C593.148 181.653 593.914 179.514 593.813 176.986C593.683 173.753 592.236 171.4 589.515 169.992C589.045 169.748 588.864 169.174 589.106 168.707C589.349 168.238 589.924 168.055 590.393 168.3C593.74 170.033 595.585 173.033 595.723 176.977C595.827 179.868 594.972 182.232 594.937 182.333C594.771 182.774 594.308 183.027 593.859 182.939Z" fill="#243842"/>
<path d="M593.791 183.291C593.721 183.278 593.654 183.26 593.588 183.234C592.908 182.986 592.558 182.231 592.806 181.551C592.883 181.335 593.551 179.34 593.455 177.002C593.331 173.909 591.951 171.657 589.352 170.313C588.709 169.979 588.455 169.185 588.789 168.542C589.124 167.897 589.916 167.646 590.562 167.98C594.033 169.775 595.943 172.883 596.087 176.965C596.193 179.926 595.312 182.353 595.278 182.455C595.051 183.063 594.428 183.415 593.791 183.291ZM590.068 168.564C589.815 168.515 589.553 168.635 589.428 168.873C589.276 169.16 589.393 169.521 589.684 169.673C592.529 171.145 594.041 173.601 594.175 176.971C594.275 179.443 593.566 181.556 593.486 181.787C593.368 182.107 593.527 182.447 593.835 182.56C594.155 182.68 594.486 182.507 594.597 182.207C594.634 182.108 595.463 179.812 595.364 176.988C595.229 173.183 593.455 170.287 590.229 168.618C590.176 168.593 590.122 168.574 590.068 168.564Z" fill="#243842"/>
<path d="M597.972 182.538C597.763 182.497 597.579 182.381 597.45 182.21C597.306 182.018 597.25 181.773 597.294 181.537C597.32 181.402 597.963 178.17 600.998 175.336C602.769 173.684 604.989 172.509 607.599 171.843C610.802 171.026 614.598 170.978 618.89 171.701C619.151 171.747 619.384 171.911 619.506 172.149C619.629 172.386 619.636 172.665 619.523 172.907C618.563 174.951 617.115 178.044 613.806 180.15C610.198 182.445 605.046 183.231 598.053 182.549C598.023 182.545 597.998 182.543 597.972 182.538ZM617.474 173.214C613.887 172.715 610.712 172.811 608.021 173.499C605.694 174.096 603.725 175.134 602.166 176.588C600.46 178.18 599.627 179.909 599.253 180.939C605.318 181.413 609.787 180.68 612.883 178.709C615.177 177.249 616.433 175.302 617.474 173.214Z" fill="#243842"/>
<path d="M597.904 182.89C597.607 182.832 597.344 182.668 597.162 182.426C596.955 182.154 596.877 181.804 596.939 181.471C596.966 181.33 597.629 177.987 600.754 175.075C602.568 173.381 604.84 172.176 607.509 171.493C610.759 170.662 614.609 170.613 618.949 171.348C618.959 171.35 618.968 171.352 618.976 171.353C619.338 171.424 619.653 171.656 619.824 171.981C620.001 172.318 620.008 172.72 619.851 173.062C618.871 175.145 617.399 178.295 614.002 180.455C610.324 182.797 605.098 183.598 598.021 182.908C597.974 182.904 597.94 182.897 597.904 182.89ZM618.84 172.062C618.835 172.061 618.833 172.061 618.828 172.06C614.591 171.342 610.84 171.388 607.688 172.195C605.138 172.848 602.971 173.995 601.244 175.603C598.29 178.358 597.672 181.475 597.648 181.609C597.622 181.745 597.655 181.887 597.737 181.996C597.811 182.094 597.919 182.163 598.04 182.186L598.092 182.194C604.996 182.866 610.074 182.101 613.61 179.85C616.83 177.799 618.252 174.765 619.194 172.758C619.259 172.617 619.256 172.455 619.184 172.318C619.117 172.184 618.986 172.09 618.84 172.062ZM598.749 181.262L598.912 180.815C599.341 179.647 600.208 177.92 601.921 176.324C603.524 174.83 605.545 173.763 607.933 173.15C610.666 172.452 613.895 172.355 617.523 172.858L618.019 172.927L617.796 173.375C616.793 175.38 615.529 177.451 613.077 179.011C609.906 181.028 605.374 181.776 599.224 181.298L598.749 181.262ZM616.918 173.506C613.59 173.091 610.628 173.205 608.11 173.849C605.844 174.43 603.925 175.44 602.413 176.85C601.012 178.156 600.214 179.552 599.766 180.613C605.508 181.007 609.739 180.281 612.689 178.402C614.811 177.055 616 175.274 616.918 173.506Z" fill="#243842"/>
<path d="M583.643 201.902C583.126 201.801 582.787 201.3 582.887 200.783C582.988 200.266 583.49 199.928 584.007 200.029C584.525 200.129 584.863 200.631 584.763 201.147C584.662 201.664 584.161 202.002 583.643 201.902Z" fill="#243842"/>
<path d="M583.574 202.256C582.862 202.117 582.394 201.425 582.533 200.714C582.671 200.003 583.362 199.536 584.074 199.674C584.785 199.812 585.253 200.505 585.115 201.216C584.977 201.927 584.286 202.394 583.574 202.256ZM583.938 200.383C583.618 200.32 583.304 200.531 583.242 200.852C583.18 201.172 583.391 201.485 583.712 201.547C584.033 201.61 584.346 201.399 584.408 201.078C584.47 200.758 584.261 200.446 583.938 200.383Z" fill="#243842"/>
</g>
<path d="M545.295 110.371C545.152 111.888 544.592 113.073 543.615 113.926C542.639 114.772 541.34 115.195 539.719 115.195C538.586 115.195 537.587 114.928 536.721 114.395C535.861 113.854 535.197 113.089 534.729 112.1C534.26 111.11 534.016 109.961 533.996 108.652V107.324C533.996 105.983 534.234 104.801 534.709 103.779C535.184 102.757 535.865 101.969 536.75 101.416C537.642 100.863 538.671 100.586 539.836 100.586C541.405 100.586 542.668 101.012 543.625 101.865C544.582 102.718 545.139 103.923 545.295 105.479H542.834C542.717 104.456 542.417 103.721 541.936 103.271C541.46 102.816 540.76 102.588 539.836 102.588C538.762 102.588 537.935 102.982 537.355 103.77C536.783 104.551 536.49 105.7 536.477 107.217V108.477C536.477 110.013 536.75 111.185 537.297 111.992C537.85 112.799 538.658 113.203 539.719 113.203C540.689 113.203 541.418 112.985 541.906 112.549C542.395 112.113 542.704 111.387 542.834 110.371H545.295ZM562.859 108.262C562.859 109.655 562.618 110.879 562.137 111.934C561.655 112.982 560.965 113.789 560.066 114.355C559.174 114.915 558.146 115.195 556.98 115.195C555.828 115.195 554.799 114.915 553.895 114.355C552.996 113.789 552.299 112.985 551.805 111.943C551.316 110.902 551.069 109.701 551.062 108.34V107.539C551.062 106.152 551.307 104.928 551.795 103.867C552.29 102.806 552.983 101.995 553.875 101.436C554.773 100.869 555.802 100.586 556.961 100.586C558.12 100.586 559.145 100.866 560.037 101.426C560.936 101.979 561.629 102.78 562.117 103.828C562.605 104.87 562.853 106.084 562.859 107.471V108.262ZM560.389 107.52C560.389 105.944 560.089 104.736 559.49 103.896C558.898 103.057 558.055 102.637 556.961 102.637C555.893 102.637 555.057 103.057 554.451 103.896C553.852 104.73 553.546 105.911 553.533 107.441V108.262C553.533 109.824 553.836 111.032 554.441 111.885C555.053 112.738 555.9 113.164 556.98 113.164C558.074 113.164 558.914 112.747 559.5 111.914C560.092 111.081 560.389 109.863 560.389 108.262V107.52ZM572.523 100.781L576.625 111.68L580.717 100.781H583.91V115H581.449V110.312L581.693 104.043L577.494 115H575.727L571.537 104.053L571.781 110.312V115H569.32V100.781H572.523ZM599.15 108.652H593.311V113.027H600.137V115H590.84V100.781H600.068V102.773H593.311V106.699H599.15V108.652ZM617.736 115H615.275V100.781H617.736V115ZM636.053 115H633.582L627.244 104.912V115H624.773V100.781H627.244L633.602 110.908V100.781H636.053V115ZM645.258 110.811H643.217L642.992 100.781H645.492L645.258 110.811ZM642.924 113.877C642.924 113.506 643.044 113.2 643.285 112.959C643.526 112.712 643.855 112.588 644.271 112.588C644.688 112.588 645.017 112.712 645.258 112.959C645.499 113.2 645.619 113.506 645.619 113.877C645.619 114.235 645.502 114.535 645.268 114.775C645.033 115.016 644.701 115.137 644.271 115.137C643.842 115.137 643.51 115.016 643.275 114.775C643.041 114.535 642.924 114.235 642.924 113.877Z" fill="#79C8A4"/>
</svg>
