<svg width="200" height="208" viewBox="0 0 200 208" fill="none" xmlns="http://www.w3.org/2000/svg">
<path fill-rule="evenodd" clip-rule="evenodd" d="M108.796 64.1921C109.797 65.0575 111.084 65.5325 112.426 65.5325C112.591 65.5325 112.745 65.5325 112.954 65.5114C144.415 62.6406 166.537 55.0203 180.595 42.2072C193.534 30.4338 197.307 16.0953 199.815 6.56407L199.846 6.44876C200.242 4.8867 199.868 3.20855 198.812 1.94202C197.789 0.717702 196.216 0 194.577 0H194.456C174.897 0.453841 158.144 3.7996 144.668 9.93172C133.602 14.9662 124.714 21.8688 118.234 30.4495C107.069 45.2046 107.014 59.7592 107.014 60.3714C107.025 61.8173 107.663 63.2211 108.796 64.1921ZM33.6306 199.383C43.1459 205.029 53.8602 207.858 64.5746 207.858C74.7608 207.858 84.9361 205.304 94.1214 200.195C107.454 207.636 122.953 209.652 137.848 205.884C154.601 201.652 169.298 190.559 178.186 175.456C194.466 147.771 190.55 110.968 168.869 87.9385C154.557 72.719 133.954 65.4048 113.834 68.7084L113.592 68.7506C112.745 68.8983 111.909 69.0567 111.073 69.2361C105.43 69.3205 98.1695 73.3101 94.1104 75.6426C79.579 67.5368 62.8915 65.8692 46.985 70.9565C28.7355 76.7825 13.3461 90.9676 5.77784 108.889C-8.21456 142.062 4.02879 181.809 33.6306 199.383ZM93.8906 70.4928C94.1986 70.5456 94.5067 70.5667 94.8257 70.5667C97.7078 70.5667 100.128 68.5825 100.601 65.8489L100.609 65.7962C100.752 64.855 102.375 54.1979 99.4788 42.1755C95.3867 25.183 84.4194 13.7104 67.7539 9.01373C64.6518 8.13772 61.4067 9.83697 60.4937 12.8133C59.5807 15.7791 61.3627 18.9032 64.4538 19.7792C76.9281 23.2938 84.8594 31.6106 88.0275 44.4764C90.4256 54.1969 89.2045 63.1048 89.0505 64.0758C88.5445 67.126 90.7115 70.0073 93.8906 70.4928Z" fill="#F3C4BB"/>
</svg>
