<svg width="1180" height="350" viewBox="0 0 1180 350" fill="none" xmlns="http://www.w3.org/2000/svg">
<mask id="mask0" mask-type="alpha" maskUnits="userSpaceOnUse" x="0" y="0" width="1180" height="350">
<rect width="1180" height="350" fill="#C4C4C4"/>
</mask>
<g mask="url(#mask0)">
<path d="M556.162 417.325C556.162 417.325 601.176 400.116 630.57 417.509L643.999 407.396L637.786 363.485L623.551 344.868H555.089L546.33 371.909C546.33 371.909 542.145 413.114 556.162 417.325Z" fill="#243842"/>
<path d="M638.93 376.619C638.93 403.844 620.319 424.687 594.221 424.687C568.121 424.687 544.364 403.249 552.342 377.214C558.567 356.901 568.973 327.319 595.07 327.319C621.168 327.317 638.93 349.391 638.93 376.619Z" fill="white"/>
<path d="M594.239 425.423C579.519 425.423 565.339 418.552 557.229 407.488C550.607 398.451 548.76 387.535 552.032 376.75C555.427 365.547 559.441 353.865 565.761 344.312C573.54 332.549 583.399 326.585 595.065 326.585C607.595 326.585 618.964 331.818 627.081 341.321C634.937 350.519 639.266 363.053 639.266 376.611C639.266 390.043 634.778 402.377 626.634 411.334C618.373 420.416 606.866 425.423 594.239 425.423ZM595.053 329.634C584.906 329.634 576.628 334.988 569.744 346.003C563.981 355.228 560.277 366.657 557.132 377.638C554.315 387.478 555.904 397.432 561.608 405.673C568.739 415.972 581.257 422.372 594.271 422.372C617.261 422.372 633.951 403.123 633.951 376.606C633.951 349.827 617.229 329.634 595.053 329.634Z" fill="#243842"/>
<path d="M645.052 350.412C641.768 338.572 636.464 327.257 627.066 319.583C619.595 313.481 610.083 310.224 600.495 309.126C589.876 307.911 578.847 309.277 569.224 313.915C555.289 320.632 546.725 333.218 542.26 347.639C536.871 365.046 534.394 383.931 538.946 401.817C540.016 406.01 541.533 410.239 544.464 413.431C547.393 416.624 552.013 418.575 556.165 417.325C551.03 406.3 550.121 393.374 553.666 381.742C555.239 376.579 557.866 371.436 562.413 368.521C567.204 365.453 573.25 365.361 578.939 365.368C588.811 365.383 598.683 365.396 608.554 365.408C615.983 365.418 624.334 365.807 629.367 371.267C632.192 374.331 633.441 378.52 634.19 382.617C636.323 394.277 635.052 406.536 630.571 417.511C635.64 418.255 640.748 415.397 643.841 411.32C646.931 407.24 648.311 402.121 649.088 397.065C650.965 384.865 649.726 372.375 647.353 360.26C646.71 356.978 645.958 353.674 645.052 350.412Z" fill="#243842"/>
<path d="M608.249 310.806C608.249 310.806 614.397 304.367 619.324 308.645C619.324 308.645 610.843 310.558 615.033 314.943" fill="#243842"/>
<path d="M610.696 311.357C610.696 311.357 607.404 303.09 601.231 305.219C601.231 305.219 608.382 310.159 602.855 312.663" fill="#243842"/>
<path d="M573.994 301.939C572.404 310.118 576.925 317.875 584.09 319.268C586.468 319.73 588.843 319.431 591.011 318.526C592.68 320.177 594.77 321.344 597.151 321.807C604.316 323.199 611.411 317.7 613.001 309.522C614.59 301.343 610.072 293.587 602.907 292.194C600.529 291.732 598.153 292.03 595.986 292.936C594.315 291.284 592.227 290.118 589.846 289.655C582.681 288.262 575.584 293.761 573.994 301.939Z" fill="#F3C4BB"/>
<path d="M601.002 288.699C601.002 288.699 603.327 276.456 621.613 279.548C619.426 284.211 616.268 290.186 601.002 288.699Z" fill="#79C8A4"/>
<path d="M603.079 291.27C602.37 291.133 601.648 291.058 600.928 291.041C600.925 291.041 600.923 291.04 600.92 291.04C600.704 291.035 600.489 291.039 600.274 291.042C599.074 290.809 597.261 291.449 596.192 291.838C589.661 285.948 580.087 288.546 575.579 295.472C571.319 302.014 571.721 311.558 577.628 317.007C581.167 320.27 586.252 321.297 590.786 319.645C596.624 324.907 605.221 323.471 610.104 317.743C614.78 312.264 615.675 303.858 611.925 297.645C609.977 294.424 606.811 291.996 603.079 291.27ZM597.324 320.881C596.191 320.661 595.1 320.255 594.098 319.69C593.625 319.424 593.172 319.125 592.742 318.794C592.31 318.459 591.846 317.799 591.318 317.649C590.466 317.403 589.247 318.175 588.39 318.339C587.185 318.573 585.936 318.602 584.721 318.418C581.112 317.878 578.097 315.479 576.38 312.313C572.684 305.502 575.039 296.007 581.796 292.038C585.712 289.738 590.639 289.892 594.273 292.718C591.668 294.148 589.537 296.357 588.08 298.934C587.28 300.35 586.682 301.873 586.297 303.452C586.163 303.995 585.907 304.668 586.344 305.141C586.798 305.632 587.537 305.478 587.877 304.96C588.22 304.44 588.259 303.446 588.445 302.853C588.671 302.144 588.943 301.449 589.267 300.777C589.885 299.492 590.682 298.287 591.637 297.226C593.352 295.316 595.644 293.798 598.173 293.24C599.187 292.979 600.276 292.901 601.317 292.967L601.32 292.968C608.89 293.349 613.059 301.32 612.242 308.171C611.386 315.338 605.086 322.39 597.324 320.881Z" fill="#243842"/>
<path d="M583.842 320.551C581.476 320.091 579.236 318.981 577.387 317.275C571.634 311.964 570.706 302.302 575.278 295.278C577.751 291.483 581.783 288.883 586.074 288.328C589.815 287.841 593.426 288.941 596.273 291.428C597.274 291.066 599.056 290.461 600.306 290.683C600.499 290.678 600.69 290.678 600.884 290.68L600.939 290.681C605.531 290.785 609.754 293.351 612.235 297.464C615.995 303.688 615.215 312.316 610.383 317.981C607.745 321.071 604.003 322.99 600.114 323.243C596.656 323.47 593.323 322.341 590.711 320.058C588.454 320.838 586.092 320.989 583.842 320.551ZM590.104 289.156C588.831 288.909 587.505 288.867 586.165 289.043C582.081 289.573 578.237 292.054 575.88 295.672C571.494 302.41 572.37 311.667 577.873 316.745C581.337 319.938 586.238 320.924 590.662 319.309L590.866 319.235L591.027 319.38C593.515 321.623 596.724 322.743 600.06 322.523C603.755 322.282 607.317 320.457 609.826 317.51C614.463 312.074 615.214 303.801 611.611 297.833C609.268 293.949 605.299 291.521 600.968 291.401L600.908 291.4C600.699 291.397 600.49 291.399 600.282 291.404L600.203 291.396C599.058 291.174 597.205 291.851 596.315 292.174L596.111 292.247L595.95 292.103C594.251 290.572 592.249 289.573 590.104 289.156ZM597.254 321.235C596.093 321.009 594.973 320.595 593.921 320.005C593.429 319.731 592.958 319.418 592.519 319.081C592.361 318.959 592.199 318.797 592.03 318.628C591.768 318.366 591.473 318.069 591.212 317.996C590.77 317.872 590.1 318.127 589.509 318.352C589.136 318.494 588.782 318.631 588.452 318.693C587.19 318.936 585.913 318.965 584.661 318.777C581.139 318.246 577.907 315.895 576.058 312.487C572.225 305.42 574.816 295.722 581.608 291.73C585.756 289.293 590.812 289.571 594.494 292.437L594.925 292.772L594.445 293.036C591.965 294.395 589.872 296.498 588.393 299.111C587.614 300.488 587.027 301.978 586.645 303.537L586.592 303.746C586.451 304.278 586.374 304.645 586.608 304.897C586.764 305.066 586.941 305.088 587.062 305.079C587.264 305.063 587.456 304.946 587.574 304.765C587.753 304.493 587.842 303.994 587.923 303.552C587.978 303.26 588.026 302.983 588.103 302.746C588.34 302.004 588.62 301.29 588.942 300.623C589.585 299.282 590.401 298.059 591.365 296.987C593.251 294.886 595.642 293.43 598.094 292.892C599.079 292.635 600.207 292.54 601.338 292.611C604.42 292.765 607.155 294.152 609.234 296.613C611.8 299.65 613.087 304.095 612.596 308.217C612.087 312.496 609.676 316.675 606.307 319.13C603.562 321.121 600.432 321.853 597.254 321.235ZM591.288 317.27C591.332 317.279 591.372 317.289 591.416 317.3C591.855 317.428 592.22 317.794 592.545 318.119C592.686 318.262 592.828 318.403 592.961 318.509C593.373 318.826 593.816 319.119 594.275 319.377C595.261 319.931 596.308 320.318 597.392 320.529C600.368 321.107 603.303 320.419 605.881 318.543C609.094 316.205 611.393 312.215 611.882 308.128C612.351 304.198 611.127 299.962 608.685 297.076C606.738 294.769 604.183 293.474 601.3 293.329C600.236 293.261 599.188 293.349 598.261 293.589C595.945 294.101 593.691 295.478 591.902 297.467C590.983 298.489 590.206 299.655 589.592 300.933C589.287 301.571 589.015 302.253 588.789 302.962C588.726 303.156 588.682 303.412 588.632 303.679C588.536 304.215 588.436 304.767 588.176 305.159C587.936 305.523 587.542 305.761 587.122 305.795C586.722 305.826 586.352 305.681 586.077 305.383C585.559 304.822 585.751 304.094 585.895 303.56L585.945 303.366C586.341 301.744 586.952 300.193 587.764 298.757C589.215 296.194 591.229 294.106 593.614 292.681C590.211 290.305 585.703 290.161 581.976 292.352C575.506 296.155 573.035 305.406 576.694 312.147C578.435 315.359 581.47 317.578 584.774 318.069C585.945 318.243 587.138 318.216 588.319 317.99C588.586 317.939 588.911 317.813 589.254 317.683C589.908 317.428 590.646 317.146 591.288 317.27Z" fill="#243842"/>
<path d="M596.726 289.94C596.675 289.93 596.627 289.916 596.578 289.898C596.084 289.717 595.829 289.171 596.009 288.675C596.015 288.654 596.782 286.514 596.681 283.987C596.55 280.754 595.104 278.4 592.382 276.993C591.913 276.748 591.732 276.174 591.974 275.707C592.216 275.238 592.791 275.056 593.261 275.3C596.608 277.034 598.452 280.033 598.591 283.978C598.695 286.868 597.839 289.232 597.804 289.334C597.638 289.775 597.175 290.027 596.726 289.94Z" fill="#243842"/>
<path d="M596.659 290.292C596.588 290.278 596.521 290.26 596.456 290.235C595.775 289.987 595.425 289.231 595.673 288.552C595.751 288.335 596.418 286.34 596.323 284.003C596.198 280.909 594.818 278.657 592.22 277.314C591.576 276.98 591.322 276.185 591.657 275.542C591.991 274.897 592.784 274.646 593.43 274.981C596.901 276.776 598.81 279.884 598.955 283.965C599.06 286.927 598.18 289.354 598.145 289.455C597.918 290.063 597.295 290.416 596.659 290.292ZM592.936 275.564C592.683 275.515 592.42 275.635 592.296 275.873C592.144 276.161 592.261 276.521 592.551 276.673C595.397 278.145 596.908 280.602 597.043 283.971C597.142 286.443 596.434 288.556 596.354 288.787C596.236 289.107 596.394 289.447 596.703 289.56C597.022 289.68 597.353 289.508 597.465 289.207C597.501 289.109 598.331 286.813 598.232 283.989C598.097 280.183 596.322 277.288 593.097 275.618C593.044 275.593 592.989 275.575 592.936 275.564Z" fill="#243842"/>
<path d="M600.839 289.538C600.63 289.498 600.446 289.381 600.318 289.21C600.174 289.019 600.118 288.774 600.161 288.538C600.188 288.402 600.831 285.171 603.865 282.337C605.636 280.684 607.857 279.509 610.467 278.844C613.669 278.026 617.466 277.978 621.758 278.702C622.018 278.747 622.251 278.911 622.374 279.149C622.497 279.387 622.503 279.665 622.39 279.907C621.431 281.952 619.983 285.044 616.674 287.15C613.066 289.445 607.913 290.231 600.92 289.549C600.891 289.546 600.866 289.543 600.839 289.538ZM620.342 280.214C616.755 279.716 613.579 279.811 610.889 280.499C608.562 281.097 606.593 282.134 605.034 283.588C603.328 285.18 602.495 286.909 602.121 287.939C608.186 288.413 612.655 287.681 615.751 285.709C618.044 284.249 619.3 282.303 620.342 280.214Z" fill="#243842"/>
<path d="M600.771 289.89C600.475 289.833 600.212 289.668 600.029 289.426C599.822 289.154 599.744 288.804 599.806 288.472C599.834 288.331 600.496 284.988 603.621 282.075C605.436 280.381 607.707 279.176 610.376 278.494C613.627 277.663 617.476 277.613 621.816 278.348C621.826 278.35 621.836 278.352 621.843 278.354C622.205 278.424 622.52 278.656 622.692 278.982C622.868 279.318 622.876 279.72 622.719 280.062C621.739 282.145 620.267 285.296 616.869 287.455C613.192 289.797 607.965 290.599 600.889 289.908C600.842 289.904 600.808 289.897 600.771 289.89ZM621.708 279.062C621.703 279.061 621.701 279.061 621.696 279.06C617.458 278.342 613.707 278.389 610.555 279.196C608.005 279.848 605.838 280.996 604.111 282.604C601.158 285.358 600.539 288.476 600.516 288.609C600.489 288.745 600.522 288.888 600.604 288.997C600.679 289.094 600.786 289.163 600.908 289.187L600.959 289.194C607.863 289.866 612.941 289.101 616.478 286.85C619.698 284.8 621.119 281.765 622.062 279.758C622.127 279.617 622.123 279.455 622.051 279.318C621.984 279.184 621.854 279.091 621.708 279.062ZM601.617 288.262L601.78 287.815C602.208 286.647 603.076 284.92 604.788 283.324C606.392 281.831 608.412 280.763 610.801 280.15C613.533 279.452 616.762 279.355 620.391 279.859L620.887 279.928L620.663 280.375C619.661 282.381 618.396 284.451 615.945 286.012C612.774 288.029 608.241 288.777 602.091 288.299L601.617 288.262ZM619.786 280.507C616.458 280.091 613.495 280.205 610.978 280.849C608.711 281.431 606.793 282.44 605.281 283.851C603.88 285.157 603.081 286.553 602.633 287.614C608.376 288.007 612.607 287.281 615.556 285.402C617.679 284.055 618.867 282.274 619.786 280.507Z" fill="#243842"/>
<path d="M586.511 308.902C585.993 308.801 585.655 308.3 585.755 307.783C585.855 307.266 586.357 306.928 586.875 307.029C587.392 307.13 587.731 307.631 587.631 308.148C587.53 308.664 587.028 309.002 586.511 308.902Z" fill="#243842"/>
<path d="M586.442 309.256C585.73 309.118 585.262 308.425 585.4 307.714C585.538 307.003 586.229 306.536 586.941 306.674C587.653 306.813 588.121 307.505 587.983 308.216C587.845 308.927 587.154 309.394 586.442 309.256ZM586.806 307.383C586.485 307.321 586.172 307.532 586.11 307.852C586.047 308.172 586.259 308.485 586.58 308.548C586.9 308.61 587.214 308.399 587.276 308.079C587.338 307.759 587.129 307.446 586.806 307.383Z" fill="#243842"/>
</g>
<path d="M593.431 171.187C591.878 173.78 588.122 173.78 586.569 171.187L580.637 161.284C579.04 158.618 580.96 155.229 584.068 155.229L595.932 155.229C599.04 155.229 600.96 158.618 599.363 161.284L593.431 171.187Z" fill="#79C8A4" fill-opacity="0.3"/>
<path d="M593.431 197.211C591.878 199.804 588.122 199.804 586.569 197.211L580.637 187.308C579.04 184.642 580.96 181.253 584.068 181.253L595.932 181.253C599.04 181.253 600.96 184.642 599.363 187.308L593.431 197.211Z" fill="#79C8A4" fill-opacity="0.6"/>
<path d="M593.431 222.271C591.878 224.864 588.122 224.864 586.569 222.271L580.637 212.369C579.04 209.703 580.96 206.313 584.068 206.313L595.932 206.313C599.04 206.313 600.96 209.703 599.363 212.369L593.431 222.271Z" fill="#79C8A4"/>
<path d="M522.349 92.7119V98H520.568V84.4922H525.55C527.028 84.4922 528.185 84.8695 529.02 85.624C529.861 86.3786 530.281 87.3774 530.281 88.6206C530.281 89.9318 529.87 90.943 529.047 91.6543C528.231 92.3594 527.059 92.7119 525.531 92.7119H522.349ZM522.349 91.2554H525.55C526.502 91.2554 527.232 91.0327 527.739 90.5874C528.246 90.1359 528.5 89.4865 528.5 88.6392C528.5 87.8351 528.246 87.1919 527.739 86.7095C527.232 86.2271 526.536 85.9766 525.652 85.958H522.349V91.2554ZM545.863 84.4922V93.6768C545.857 94.9508 545.455 95.993 544.657 96.8032C543.866 97.6134 542.79 98.068 541.429 98.167L540.956 98.1855C539.478 98.1855 538.299 97.7866 537.421 96.9888C536.543 96.1909 536.098 95.0931 536.085 93.6953V84.4922H537.848V93.6396C537.848 94.6169 538.117 95.3776 538.655 95.9219C539.193 96.46 539.96 96.729 540.956 96.729C541.964 96.729 542.734 96.46 543.266 95.9219C543.804 95.3838 544.073 94.6261 544.073 93.6489V84.4922H545.863ZM552.475 98V84.4922H556.891C558.356 84.4922 559.457 84.7952 560.193 85.4014C560.935 86.0075 561.307 86.9043 561.307 88.0918C561.307 88.7227 561.127 89.2824 560.768 89.771C560.41 90.2534 559.921 90.6276 559.303 90.8936C560.032 91.0977 560.608 91.4873 561.028 92.0625C561.455 92.6315 561.668 93.3118 561.668 94.1035C561.668 95.3158 561.276 96.2682 560.49 96.9609C559.705 97.6536 558.594 98 557.16 98H552.475ZM554.256 91.6821V96.5435H557.197C558.025 96.5435 558.678 96.3301 559.154 95.9033C559.637 95.4704 559.878 94.8766 559.878 94.1221C559.878 92.4954 558.993 91.6821 557.225 91.6821H554.256ZM554.256 90.2534H556.946C557.725 90.2534 558.347 90.0586 558.811 89.6689C559.281 89.2793 559.516 88.7505 559.516 88.0825C559.516 87.3403 559.3 86.8022 558.867 86.4683C558.434 86.1281 557.775 85.958 556.891 85.958H554.256V90.2534ZM569.903 96.5435H576.304V98H568.112V84.4922H569.903V96.5435ZM584.047 98H582.266V84.4922H584.047V98ZM595.093 91.979C593.565 91.5399 592.452 91.0018 591.753 90.3647C591.06 89.7215 590.714 88.9299 590.714 87.9897C590.714 86.9259 591.138 86.0477 591.985 85.355C592.838 84.6561 593.945 84.3066 595.306 84.3066C596.234 84.3066 597.06 84.486 597.783 84.8447C598.513 85.2035 599.076 85.6982 599.472 86.3291C599.874 86.96 600.075 87.6496 600.075 88.3979H598.284C598.284 87.5815 598.024 86.9414 597.505 86.4775C596.985 86.0075 596.252 85.7725 595.306 85.7725C594.428 85.7725 593.741 85.9673 593.247 86.3569C592.758 86.7404 592.514 87.2754 592.514 87.9619C592.514 88.5124 592.746 88.9793 593.209 89.3628C593.68 89.7401 594.474 90.0864 595.594 90.4019C596.719 90.7173 597.598 91.0667 598.229 91.4502C598.866 91.8275 599.336 92.2697 599.639 92.7769C599.948 93.284 600.103 93.8809 600.103 94.5674C600.103 95.6621 599.676 96.5404 598.822 97.2021C597.969 97.8577 596.828 98.1855 595.399 98.1855C594.471 98.1855 593.605 98.0093 592.801 97.6567C591.997 97.298 591.376 96.8094 590.937 96.1909C590.504 95.5724 590.287 94.8704 590.287 94.085H592.078C592.078 94.9014 592.378 95.5477 592.978 96.0239C593.584 96.494 594.391 96.729 595.399 96.729C596.339 96.729 597.06 96.5373 597.561 96.1538C598.062 95.7703 598.312 95.2477 598.312 94.5859C598.312 93.9242 598.08 93.4139 597.616 93.0552C597.152 92.6903 596.311 92.3315 595.093 91.979ZM616.575 98H614.785V91.7563H607.975V98H606.194V84.4922H607.975V90.2998H614.785V84.4922H616.575V98ZM625.45 98H623.669V84.4922H625.45V98ZM642.897 98H641.107L634.306 87.5908V98H632.516V84.4922H634.306L641.125 94.9478V84.4922H642.897V98ZM659.834 96.228C659.376 96.8836 658.736 97.3753 657.913 97.7031C657.097 98.0247 656.144 98.1855 655.056 98.1855C653.955 98.1855 652.978 97.9289 652.124 97.4155C651.271 96.896 650.609 96.16 650.139 95.2075C649.675 94.255 649.437 93.151 649.425 91.8955V90.7173C649.425 88.6825 649.898 87.1053 650.844 85.9858C651.797 84.8664 653.132 84.3066 654.852 84.3066C656.262 84.3066 657.397 84.6685 658.257 85.3921C659.116 86.1095 659.642 87.13 659.834 88.4536H658.053C657.719 86.6662 656.655 85.7725 654.861 85.7725C653.667 85.7725 652.761 86.193 652.143 87.0342C651.531 87.8691 651.221 89.0814 651.215 90.6709V91.7749C651.215 93.2902 651.561 94.4963 652.254 95.3931C652.947 96.2837 653.884 96.729 655.065 96.729C655.733 96.729 656.318 96.6548 656.819 96.5063C657.32 96.3579 657.734 96.1074 658.062 95.7549V92.7212H654.935V91.2739H659.834V96.228Z" fill="#79C8A4"/>
</svg>
