<svg width="1180" height="350" viewBox="0 0 1180 350" fill="none" xmlns="http://www.w3.org/2000/svg">
<mask id="mask0" mask-type="alpha" maskUnits="userSpaceOnUse" x="0" y="0" width="1180" height="350">
<rect width="1180" height="350" fill="#C4C4C4"/>
</mask>
<g mask="url(#mask0)">
<path d="M556.162 308.325C556.162 308.325 601.176 291.116 630.57 308.508L643.999 298.395L637.786 254.484L623.551 235.867H555.089L546.33 262.909C546.33 262.909 542.145 304.113 556.162 308.325Z" fill="#243842"/>
<path d="M638.931 267.618C638.931 294.843 620.319 315.686 594.221 315.686C568.121 315.686 544.364 294.249 552.342 268.213C558.567 247.901 568.973 218.318 595.07 218.318C621.168 218.316 638.931 240.391 638.931 267.618Z" fill="white"/>
<path d="M594.239 316.422C579.519 316.422 565.339 309.552 557.229 298.487C550.607 289.45 548.76 278.534 552.032 267.75C555.427 256.546 559.441 244.864 565.761 235.312C573.54 223.548 583.399 217.585 595.065 217.585C607.595 217.585 618.964 222.817 627.081 232.32C634.937 241.518 639.266 254.053 639.266 267.611C639.266 281.042 634.778 293.376 626.634 302.334C618.373 311.416 606.866 316.422 594.239 316.422ZM595.053 220.633C584.906 220.633 576.628 225.987 569.744 237.002C563.981 246.228 560.277 257.657 557.132 268.637C554.315 278.477 555.904 288.431 561.608 296.673C568.739 306.971 581.257 313.371 594.271 313.371C617.261 313.371 633.951 294.122 633.951 267.606C633.951 240.827 617.229 220.633 595.053 220.633Z" fill="#243842"/>
<path d="M615.998 279.726C620.189 279.726 623.586 276.334 623.586 272.149C623.586 267.964 620.189 264.572 615.998 264.572C611.807 264.572 608.41 267.964 608.41 272.149C608.41 276.334 611.807 279.726 615.998 279.726Z" fill="#243842"/>
<path d="M616.946 277.622C618.691 277.622 620.106 276.209 620.106 274.466C620.106 272.724 618.691 271.311 616.946 271.311C615.201 271.311 613.786 272.724 613.786 274.466C613.786 276.209 615.201 277.622 616.946 277.622Z" fill="white"/>
<path d="M568.159 290.336C571.66 290.336 574.499 288.578 574.499 286.41C574.499 284.242 571.66 282.484 568.159 282.484C564.658 282.484 561.82 284.242 561.82 286.41C561.82 288.578 564.658 290.336 568.159 290.336Z" fill="#F3C4BB"/>
<path d="M619.322 290.336C622.823 290.336 625.661 288.578 625.661 286.41C625.661 284.242 622.823 282.484 619.322 282.484C615.821 282.484 612.982 284.242 612.982 286.41C612.982 288.578 615.821 290.336 619.322 290.336Z" fill="#F3C4BB"/>
<path d="M645.052 241.412C641.769 229.571 636.464 218.256 627.067 210.583C619.595 204.48 610.083 201.223 600.495 200.125C589.876 198.911 578.848 200.276 569.224 204.914C555.289 211.631 546.726 224.217 542.26 238.638C536.871 256.045 534.394 274.93 538.946 292.816C540.016 297.01 541.533 301.238 544.464 304.431C547.393 307.623 552.013 309.574 556.165 308.325C551.03 297.3 550.121 284.374 553.666 272.741C555.24 267.579 557.866 262.435 562.413 259.521C567.204 256.452 573.25 256.36 578.939 256.368C588.811 256.383 598.683 256.395 608.554 256.407C615.984 256.417 624.334 256.806 629.368 262.267C632.192 265.33 633.441 269.519 634.19 273.616C636.323 285.276 635.052 297.535 630.571 308.511C635.64 309.254 640.748 306.396 643.841 302.319C646.932 298.239 648.312 293.121 649.089 288.064C650.965 275.865 649.726 263.375 647.353 251.259C646.711 247.978 645.958 244.674 645.052 241.412Z" fill="#243842"/>
<path d="M608.249 201.806C608.249 201.806 614.397 195.366 619.324 199.644C619.324 199.644 610.843 201.558 615.033 205.943" fill="#243842"/>
<path d="M610.696 202.356C610.696 202.356 607.404 194.09 601.231 196.219C601.231 196.219 608.382 201.159 602.855 203.662" fill="#243842"/>
<path d="M585.184 290.711C585.184 295.178 588.811 298.799 593.284 298.799C597.757 298.799 601.383 295.178 601.383 290.711H585.184Z" fill="#243842"/>
<path d="M538.501 253.889C538.501 253.889 537.573 293.485 530 295.572C530 295.572 540.817 292.504 544.064 283.469" fill="#243842"/>
<path d="M566.207 280.165C565.609 280.165 565.036 279.818 564.775 279.238C564.42 278.45 564.775 277.523 565.565 277.168L574.225 273.292L565.674 270.201C564.86 269.908 564.438 269.011 564.733 268.196C565.026 267.383 565.924 266.959 566.741 267.254L578.941 271.661C579.542 271.877 579.949 272.437 579.976 273.074C579.998 273.713 579.634 274.301 579.05 274.563L566.85 280.026C566.642 280.12 566.421 280.165 566.207 280.165Z" fill="#243842"/>
<path d="M571.126 141.939C569.537 150.117 574.057 157.875 581.222 159.267C583.601 159.73 585.976 159.431 588.144 158.526C589.812 160.177 591.903 161.343 594.283 161.806C601.448 163.199 608.543 157.7 610.133 149.521C611.723 141.343 607.204 133.586 600.04 132.193C597.661 131.731 595.286 132.03 593.118 132.935C591.447 131.284 589.359 130.117 586.978 129.655C579.813 128.262 572.716 133.761 571.126 141.939Z" fill="#F3C4BB"/>
<path d="M598.135 128.699C598.135 128.699 600.459 116.456 618.746 119.547C616.558 124.21 613.4 130.185 598.135 128.699Z" fill="#79C8A4"/>
<path d="M600.212 131.27C599.502 131.132 598.78 131.057 598.06 131.041C598.058 131.04 598.055 131.04 598.053 131.039C597.837 131.035 597.622 131.039 597.407 131.042C596.206 130.809 594.393 131.448 593.324 131.837C586.794 125.948 577.219 128.546 572.711 135.472C568.452 142.013 568.853 151.558 574.761 157.007C578.299 160.27 583.384 161.296 587.919 159.645C593.757 164.906 602.354 163.47 607.236 157.743C611.912 152.264 612.807 143.857 609.058 137.645C607.11 134.424 603.943 131.995 600.212 131.27ZM594.456 160.88C593.324 160.66 592.233 160.254 591.231 159.689C590.758 159.424 590.304 159.124 589.874 158.794C589.443 158.458 588.978 157.799 588.45 157.648C587.598 157.402 586.379 158.175 585.523 158.338C584.317 158.572 583.069 158.601 581.854 158.418C578.245 157.878 575.229 155.479 573.512 152.313C569.816 145.501 572.171 136.006 578.928 132.038C582.845 129.737 587.772 129.892 591.405 132.718C588.8 134.148 586.669 136.357 585.212 138.934C584.413 140.35 583.814 141.872 583.429 143.452C583.296 143.995 583.039 144.667 583.476 145.14C583.931 145.631 584.669 145.478 585.009 144.96C585.352 144.44 585.392 143.446 585.578 142.852C585.804 142.143 586.075 141.448 586.4 140.776C587.018 139.491 587.814 138.287 588.769 137.226C590.484 135.316 592.776 133.798 595.305 133.24C596.319 132.978 597.409 132.901 598.45 132.967L598.452 132.967C606.023 133.349 610.192 141.32 609.374 148.17C608.518 155.338 602.218 162.389 594.456 160.88Z" fill="#243842"/>
<path d="M580.975 160.551C578.609 160.091 576.369 158.981 574.519 157.274C568.767 151.964 567.838 142.302 572.411 135.277C574.883 131.483 578.916 128.883 583.207 128.327C586.947 127.841 590.559 128.94 593.406 131.427C594.407 131.066 596.188 130.46 597.439 130.683C597.631 130.678 597.823 130.677 598.017 130.68L598.072 130.68C602.663 130.785 606.887 133.351 609.368 137.463C613.127 143.688 612.348 152.316 607.515 157.98C604.877 161.071 601.136 162.989 597.247 163.243C593.789 163.47 590.455 162.341 587.843 160.058C585.586 160.838 583.225 160.988 580.975 160.551ZM587.236 129.156C585.963 128.908 584.638 128.867 583.297 129.042C579.213 129.573 575.37 132.053 573.013 135.671C568.627 142.41 569.503 151.667 575.006 156.744C578.469 159.938 583.371 160.924 587.795 159.308L587.998 159.235L588.159 159.379C590.648 161.623 593.857 162.743 597.192 162.522C600.888 162.282 604.45 160.456 606.959 157.51C611.596 152.074 612.347 143.8 608.744 137.833C606.4 133.948 602.432 131.52 598.101 131.401L598.041 131.399C597.832 131.397 597.622 131.399 597.414 131.404L597.335 131.396C596.191 131.173 594.337 131.85 593.447 132.173L593.244 132.247L593.083 132.102C591.384 130.571 589.382 129.573 587.236 129.156ZM594.387 161.234C593.226 161.009 592.106 160.595 591.053 160.005C590.562 159.731 590.091 159.417 589.652 159.08C589.494 158.959 589.331 158.796 589.163 158.628C588.901 158.365 588.606 158.069 588.345 157.995C587.903 157.872 587.233 158.127 586.642 158.352C586.269 158.493 585.914 158.631 585.585 158.693C584.322 158.936 583.046 158.964 581.794 158.777C578.271 158.245 575.04 155.895 573.191 152.487C569.358 145.42 571.949 135.721 578.741 131.729C582.888 129.292 587.945 129.57 591.626 132.436L592.058 132.772L591.578 133.036C589.098 134.394 587.004 136.498 585.526 139.111C584.746 140.487 584.159 141.977 583.778 143.537L583.725 143.746C583.584 144.277 583.507 144.645 583.74 144.897C583.897 145.066 584.074 145.088 584.194 145.078C584.397 145.062 584.588 144.946 584.707 144.765C584.886 144.493 584.975 143.994 585.056 143.551C585.11 143.26 585.159 142.982 585.235 142.745C585.473 142.003 585.753 141.29 586.074 140.622C586.718 139.282 587.533 138.058 588.498 136.987C590.384 134.886 592.775 133.43 595.227 132.892C596.212 132.635 597.34 132.54 598.471 132.611C601.552 132.764 604.288 134.152 606.366 136.613C608.933 139.65 610.219 144.094 609.728 148.216C609.219 152.496 606.808 156.675 603.439 159.129C600.695 161.121 597.565 161.852 594.387 161.234ZM588.42 157.27C588.464 157.278 588.505 157.289 588.548 157.3C588.987 157.428 589.352 157.793 589.678 158.118C589.819 158.262 589.96 158.403 590.093 158.509C590.506 158.826 590.948 159.118 591.407 159.376C592.394 159.931 593.441 160.318 594.524 160.528C597.5 161.107 600.435 160.419 603.014 158.543C606.227 156.204 608.525 152.215 609.014 148.128C609.483 144.198 608.259 139.962 605.818 137.075C603.871 134.768 601.316 133.474 598.432 133.328C597.369 133.26 596.32 133.349 595.394 133.589C593.078 134.101 590.823 135.478 589.035 137.466C588.115 138.489 587.339 139.654 586.725 140.932C586.419 141.57 586.148 142.253 585.922 142.962C585.859 143.156 585.814 143.412 585.765 143.679C585.668 144.214 585.569 144.766 585.308 145.159C585.069 145.523 584.674 145.761 584.254 145.795C583.855 145.826 583.485 145.681 583.21 145.383C582.691 144.821 582.883 144.093 583.027 143.56L583.077 143.366C583.474 141.743 584.085 140.193 584.896 138.757C586.347 136.194 588.362 134.105 590.747 132.681C587.343 130.304 582.835 130.161 579.109 132.352C572.639 136.155 570.167 145.406 573.827 152.147C575.567 155.358 578.603 157.577 581.906 158.068C583.078 158.243 584.271 158.216 585.452 157.989C585.719 157.938 586.043 157.812 586.386 157.683C587.041 157.427 587.779 157.145 588.42 157.27Z" fill="#243842"/>
<path d="M593.859 129.939C593.808 129.93 593.76 129.915 593.71 129.898C593.216 129.716 592.962 129.171 593.141 128.675C593.148 128.653 593.914 126.514 593.813 123.986C593.683 120.753 592.236 118.4 589.515 116.992C589.045 116.748 588.864 116.174 589.106 115.707C589.349 115.238 589.924 115.055 590.393 115.3C593.74 117.033 595.585 120.033 595.723 123.977C595.827 126.868 594.972 129.232 594.937 129.333C594.771 129.774 594.308 130.027 593.859 129.939Z" fill="#243842"/>
<path d="M593.791 130.291C593.721 130.278 593.654 130.26 593.588 130.234C592.908 129.986 592.558 129.231 592.806 128.551C592.883 128.335 593.551 126.34 593.455 124.002C593.331 120.909 591.951 118.657 589.352 117.313C588.709 116.979 588.455 116.185 588.789 115.542C589.124 114.897 589.916 114.646 590.562 114.98C594.033 116.775 595.943 119.883 596.087 123.965C596.193 126.926 595.312 129.353 595.278 129.455C595.051 130.063 594.428 130.415 593.791 130.291ZM590.068 115.564C589.815 115.515 589.553 115.635 589.428 115.873C589.276 116.16 589.393 116.521 589.684 116.673C592.529 118.145 594.041 120.601 594.175 123.971C594.275 126.443 593.566 128.556 593.486 128.787C593.368 129.107 593.527 129.447 593.835 129.56C594.155 129.68 594.486 129.507 594.597 129.207C594.634 129.108 595.463 126.812 595.364 123.988C595.229 120.183 593.455 117.287 590.229 115.618C590.176 115.593 590.122 115.574 590.068 115.564Z" fill="#243842"/>
<path d="M597.972 129.538C597.763 129.497 597.579 129.381 597.45 129.21C597.306 129.018 597.25 128.773 597.294 128.537C597.32 128.402 597.963 125.17 600.998 122.336C602.769 120.684 604.989 119.509 607.599 118.843C610.802 118.026 614.598 117.978 618.89 118.701C619.151 118.747 619.384 118.911 619.506 119.149C619.629 119.386 619.636 119.665 619.523 119.907C618.563 121.951 617.115 125.044 613.806 127.15C610.198 129.445 605.046 130.231 598.053 129.549C598.023 129.545 597.998 129.543 597.972 129.538ZM617.474 120.214C613.887 119.715 610.712 119.811 608.021 120.499C605.694 121.096 603.725 122.134 602.166 123.588C600.46 125.18 599.627 126.909 599.253 127.939C605.318 128.413 609.787 127.68 612.883 125.709C615.177 124.249 616.433 122.302 617.474 120.214Z" fill="#243842"/>
<path d="M597.904 129.89C597.607 129.832 597.344 129.668 597.162 129.426C596.955 129.154 596.877 128.804 596.939 128.471C596.966 128.33 597.629 124.987 600.754 122.075C602.568 120.381 604.84 119.176 607.509 118.493C610.759 117.662 614.609 117.613 618.949 118.348C618.959 118.35 618.968 118.352 618.976 118.353C619.338 118.424 619.653 118.656 619.824 118.981C620.001 119.318 620.008 119.72 619.851 120.062C618.871 122.145 617.399 125.295 614.002 127.455C610.324 129.797 605.098 130.598 598.021 129.908C597.974 129.904 597.94 129.897 597.904 129.89ZM618.84 119.062C618.835 119.061 618.833 119.061 618.828 119.06C614.591 118.342 610.84 118.388 607.688 119.195C605.138 119.848 602.971 120.995 601.244 122.603C598.29 125.358 597.672 128.475 597.648 128.609C597.622 128.745 597.655 128.887 597.737 128.996C597.811 129.094 597.919 129.163 598.04 129.186L598.092 129.194C604.996 129.866 610.074 129.101 613.61 126.85C616.83 124.799 618.252 121.765 619.194 119.758C619.259 119.617 619.256 119.455 619.184 119.318C619.117 119.184 618.986 119.09 618.84 119.062ZM598.749 128.262L598.912 127.815C599.341 126.647 600.208 124.92 601.921 123.324C603.524 121.83 605.545 120.763 607.933 120.15C610.666 119.452 613.895 119.355 617.523 119.858L618.019 119.927L617.796 120.375C616.793 122.38 615.529 124.451 613.077 126.011C609.906 128.028 605.374 128.776 599.224 128.298L598.749 128.262ZM616.918 120.506C613.59 120.091 610.628 120.205 608.11 120.849C605.844 121.43 603.925 122.44 602.413 123.85C601.012 125.156 600.214 126.552 599.766 127.613C605.508 128.007 609.739 127.281 612.689 125.402C614.811 124.055 616 122.274 616.918 120.506Z" fill="#243842"/>
<path d="M583.643 148.901C583.126 148.801 582.787 148.299 582.887 147.783C582.988 147.266 583.49 146.928 584.007 147.029C584.525 147.129 584.863 147.631 584.763 148.147C584.662 148.664 584.161 149.002 583.643 148.901Z" fill="#243842"/>
<path d="M583.574 149.256C582.862 149.117 582.394 148.425 582.533 147.714C582.671 147.003 583.362 146.536 584.074 146.674C584.785 146.812 585.253 147.505 585.115 148.216C584.977 148.927 584.286 149.394 583.574 149.256ZM583.938 147.383C583.618 147.32 583.304 147.531 583.242 147.852C583.18 148.172 583.391 148.485 583.712 148.547C584.033 148.61 584.346 148.399 584.408 148.078C584.47 147.758 584.261 147.446 583.938 147.383Z" fill="#243842"/>
</g>
<path d="M545.295 69.3711C545.152 70.888 544.592 72.0729 543.615 72.9258C542.639 73.7721 541.34 74.1953 539.719 74.1953C538.586 74.1953 537.587 73.9284 536.721 73.3945C535.861 72.8542 535.197 72.0892 534.729 71.0996C534.26 70.11 534.016 68.9609 533.996 67.6523V66.3242C533.996 64.9831 534.234 63.8014 534.709 62.7793C535.184 61.7572 535.865 60.9694 536.75 60.416C537.642 59.8626 538.671 59.5859 539.836 59.5859C541.405 59.5859 542.668 60.0124 543.625 60.8652C544.582 61.7181 545.139 62.9225 545.295 64.4785H542.834C542.717 63.4564 542.417 62.7207 541.936 62.2715C541.46 61.8158 540.76 61.5879 539.836 61.5879C538.762 61.5879 537.935 61.9818 537.355 62.7695C536.783 63.5508 536.49 64.6999 536.477 66.2168V67.4766C536.477 69.013 536.75 70.1849 537.297 70.9922C537.85 71.7995 538.658 72.2031 539.719 72.2031C540.689 72.2031 541.418 71.985 541.906 71.5488C542.395 71.1126 542.704 70.3867 542.834 69.3711H545.295ZM562.859 67.2617C562.859 68.6549 562.618 69.8789 562.137 70.9336C561.655 71.9818 560.965 72.7891 560.066 73.3555C559.174 73.9154 558.146 74.1953 556.98 74.1953C555.828 74.1953 554.799 73.9154 553.895 73.3555C552.996 72.7891 552.299 71.985 551.805 70.9434C551.316 69.9017 551.069 68.7005 551.062 67.3398V66.5391C551.062 65.1523 551.307 63.9284 551.795 62.8672C552.29 61.806 552.983 60.9954 553.875 60.4355C554.773 59.8691 555.802 59.5859 556.961 59.5859C558.12 59.5859 559.145 59.8659 560.037 60.4258C560.936 60.9792 561.629 61.7799 562.117 62.8281C562.605 63.8698 562.853 65.084 562.859 66.4707V67.2617ZM560.389 66.5195C560.389 64.944 560.089 63.7363 559.49 62.8965C558.898 62.0566 558.055 61.6367 556.961 61.6367C555.893 61.6367 555.057 62.0566 554.451 62.8965C553.852 63.7298 553.546 64.9115 553.533 66.4414V67.2617C553.533 68.8242 553.836 70.0319 554.441 70.8848C555.053 71.7376 555.9 72.1641 556.98 72.1641C558.074 72.1641 558.914 71.7474 559.5 70.9141C560.092 70.0807 560.389 68.8633 560.389 67.2617V66.5195ZM572.523 59.7812L576.625 70.6797L580.717 59.7812H583.91V74H581.449V69.3125L581.693 63.043L577.494 74H575.727L571.537 63.0527L571.781 69.3125V74H569.32V59.7812H572.523ZM599.15 67.6523H593.311V72.0273H600.137V74H590.84V59.7812H600.068V61.7734H593.311V65.6992H599.15V67.6523ZM617.736 74H615.275V59.7812H617.736V74ZM636.053 74H633.582L627.244 63.9121V74H624.773V59.7812H627.244L633.602 69.9082V59.7812H636.053V74ZM645.258 69.8105H643.217L642.992 59.7812H645.492L645.258 69.8105ZM642.924 72.877C642.924 72.5059 643.044 72.1999 643.285 71.959C643.526 71.7116 643.855 71.5879 644.271 71.5879C644.688 71.5879 645.017 71.7116 645.258 71.959C645.499 72.1999 645.619 72.5059 645.619 72.877C645.619 73.235 645.502 73.5345 645.268 73.7754C645.033 74.0163 644.701 74.1367 644.271 74.1367C643.842 74.1367 643.51 74.0163 643.275 73.7754C643.041 73.5345 642.924 73.235 642.924 72.877Z" fill="#79C8A4"/>
</svg>
