<svg width="200" height="208" viewBox="0 0 200 208" fill="none" xmlns="http://www.w3.org/2000/svg">
<path d="M5.82144 137.862C5.82144 173.441 32.1232 202.276 64.5632 202.276C75.3325 202.276 85.4418 199.088 94.132 193.526C102.811 199.088 112.921 202.276 123.701 202.276C156.141 202.276 182.432 173.441 182.432 137.862C182.432 102.283 156.141 73.4482 123.701 73.4482C112.932 73.4482 102.822 76.6357 94.132 82.1979C85.4418 76.6357 75.3435 73.4482 64.5632 73.4482C32.1232 73.4482 5.82144 102.283 5.82144 137.862Z" fill="#F3C4BB"/>
<path d="M112.426 60.3498C112.426 60.3498 112.184 7.1344 194.587 5.19238C188.999 26.5229 180.287 54.1438 112.426 60.3498Z" fill="#79C8A4"/>
<path d="M123.669 69.4365C120.457 69.4365 117.245 69.7109 114.088 70.2281C114.077 70.2281 114.066 70.2281 114.055 70.2281C113.109 70.3864 112.173 70.5764 111.238 70.7664C105.804 70.7664 98.4341 74.9248 94.1 77.4262C60.615 58.0589 21.0468 76.7507 7.25241 109.459C-5.78297 140.352 4.06231 180.036 34.4562 198.063C52.6617 208.86 75.7184 209.019 94.1 198.401C124.032 215.699 160.322 202.675 176.767 174.685C192.52 147.909 189.297 111.939 167.67 88.9516C156.439 77.0357 140.565 69.4365 123.669 69.4365ZM123.669 198.253C118.543 198.253 113.439 197.44 108.587 195.889C106.299 195.161 104.066 194.274 101.91 193.24C99.7431 192.184 97.158 189.799 94.727 189.598C90.7999 189.261 86.1357 193.493 82.5386 194.876C77.4785 196.839 72.0553 197.979 66.5992 198.2C50.3957 198.876 35.2042 191.277 25.0289 179.403C3.12728 153.861 5.34936 112.14 31.4641 89.9965C46.6006 77.1624 68.2272 73.7955 86.4767 82.6823C76.3234 90.7986 68.8982 101.796 64.7291 113.786C62.441 120.372 61.121 127.243 60.78 134.177C60.659 136.563 60.1089 139.592 62.419 141.217C64.8171 142.906 67.9082 141.66 68.9532 139.212C70.0092 136.753 69.3382 132.552 69.6462 129.913C70.0312 126.757 70.6253 123.623 71.4723 120.541C73.0783 114.652 75.5314 108.952 78.7985 103.728C84.6617 94.3238 93.3739 86.0914 103.934 81.6902C108.136 79.7693 112.822 78.5555 117.421 77.9856H117.432C150.785 73.4155 175.733 103.432 177.977 132.816C180.32 163.561 158.815 198.253 123.669 198.253Z" fill="#243842"/>
<path d="M64.5746 207.858C53.8603 207.858 43.1459 205.029 33.6307 199.383C4.02879 181.81 -8.21456 142.062 5.77785 108.889C13.3461 90.9677 28.7355 76.7825 46.9851 70.9565C62.8915 65.8693 79.579 67.5369 94.1105 75.6427C98.1696 73.3101 105.43 69.3206 111.073 69.2361C111.909 69.0567 112.745 68.8984 113.592 68.7506L113.834 68.7084C133.954 65.4049 154.557 72.7191 168.869 87.9386C190.55 110.968 194.466 147.772 178.186 175.456C169.298 190.559 154.601 201.652 137.848 205.884C122.953 209.652 107.454 207.636 94.1215 200.195C84.9362 205.304 74.7609 207.858 64.5746 207.858ZM65.2676 71.1465C59.5034 71.1465 53.6843 72.0542 47.9861 73.8801C30.6166 79.4317 15.9532 92.9625 8.73695 110.05C-4.68345 141.872 6.98788 179.963 35.3027 196.765C53.1232 207.33 75.3439 207.467 93.2744 197.092L94.0995 196.617L94.9245 197.092C107.685 204.47 122.634 206.549 137.001 202.908C152.918 198.887 166.911 188.332 175.359 173.936C190.979 147.371 187.239 112.077 166.46 89.9967C152.94 75.6216 133.569 68.6767 114.571 71.7059L114.307 71.7481C113.394 71.9064 112.481 72.0858 111.579 72.2758L111.227 72.3075C106.046 72.3075 98.5326 76.6559 94.9245 78.7351L94.0995 79.2101L93.2744 78.7351C84.5622 73.7007 74.9809 71.1465 65.2676 71.1465ZM123.668 199.794C118.41 199.794 113.174 198.971 108.081 197.356C105.705 196.607 103.384 195.678 101.184 194.623C100.392 194.243 99.5446 193.694 98.6646 193.124C97.3006 192.237 95.7605 191.235 94.5615 191.14C92.5264 190.981 89.8203 192.596 87.4333 194.021C85.9262 194.918 84.4962 195.784 83.1101 196.311C77.808 198.359 72.2638 199.52 66.6427 199.752C50.8242 200.396 34.7307 193.177 23.7744 180.395C1.0587 153.893 4.13879 111.127 30.3856 88.8568C46.413 75.2627 68.7107 72.3075 87.2023 81.3209L89.3693 82.3764L87.4993 83.8751C77.83 91.5904 70.4818 102.113 66.2466 114.272C64.0136 120.678 62.7155 127.402 62.3745 134.251L62.3195 135.17C62.1545 137.513 62.1325 139.117 63.3646 139.982C64.1896 140.563 64.9816 140.51 65.4986 140.373C66.3676 140.141 67.1047 139.497 67.4677 138.642C68.0177 137.354 67.9847 135.191 67.9627 133.27C67.9517 132.003 67.9297 130.8 68.0617 129.745C68.4687 126.441 69.0847 123.222 69.9208 120.161C71.5928 114.019 74.1119 108.224 77.412 102.947C83.8582 92.6036 93.0544 84.5506 103.296 80.2972C107.377 78.4185 112.217 77.0992 117.211 76.4765C130.786 74.6083 143.898 78.1968 155.052 86.8198C168.825 97.4587 178.208 115.042 179.561 132.721C180.969 151.075 173.995 170.559 161.377 183.593C151.092 194.179 138.057 199.794 123.668 199.794ZM94.2755 188.037C94.4735 188.037 94.6605 188.047 94.8585 188.058C96.8825 188.237 98.7856 189.472 100.48 190.57C101.217 191.055 101.954 191.53 102.625 191.868C104.693 192.86 106.871 193.726 109.093 194.433C113.867 195.953 118.762 196.723 123.668 196.723C137.144 196.723 149.365 191.446 159.023 181.482C171.058 169.06 177.702 150.463 176.371 132.932C175.084 116.077 166.152 99.3162 153.05 89.2051C142.6 81.1204 130.357 77.7747 117.651 79.5161C112.954 80.0966 108.455 81.3209 104.616 83.0835C94.9465 87.1153 86.2782 94.7251 80.1621 104.52C77.016 109.554 74.6179 115.074 73.0228 120.932C72.2308 123.855 71.6258 126.937 71.2408 130.093C71.1308 130.958 71.1528 132.067 71.1638 133.228C71.1968 135.55 71.2298 137.945 70.4268 139.803C69.6897 141.523 68.1717 142.843 66.3676 143.328C64.6516 143.782 62.9135 143.476 61.4615 142.452C58.7224 140.521 58.9424 137.312 59.1184 134.959L59.1734 134.104C59.5254 126.979 60.8785 119.982 63.1996 113.301C67.3577 101.374 74.3759 90.9782 83.5721 83.0624C66.7086 75.8749 46.9191 78.9462 32.5196 91.1682C7.51589 112.383 4.57881 153.175 26.2604 178.453C36.5787 190.496 51.7042 197.325 66.5326 196.691C71.7908 196.47 76.9719 195.383 81.9331 193.472C83.0551 193.04 84.3642 192.248 85.7502 191.425C88.3903 189.82 91.3714 188.037 94.2755 188.037Z" fill="#243842"/>
<path d="M94.8261 69.0364C94.5951 69.0364 94.3751 69.0153 94.144 68.9837C91.834 68.6248 90.2609 66.5456 90.6239 64.3186C90.6349 64.2236 92.164 54.6296 89.5789 44.1174C86.2678 30.671 77.9626 21.9847 64.8942 18.3012C62.6391 17.6574 61.3631 15.3987 62.0231 13.2456C62.6831 11.082 65.0372 9.84709 67.2923 10.4909C83.3637 15.0293 93.957 26.1009 97.9061 42.5237C100.81 54.5557 99.0832 65.163 99.0172 65.6168C98.6652 67.601 96.8611 69.0364 94.8261 69.0364Z" fill="#243842"/>
<path d="M94.8258 70.5668C94.5068 70.5668 94.1987 70.5457 93.8907 70.4929C90.7116 70.0074 88.5446 67.1261 89.0506 64.0759C89.2046 63.1049 90.4256 54.197 88.0276 44.4764C84.8595 31.6107 76.9282 23.2938 64.4539 19.7792C61.3628 18.9032 59.5808 15.7791 60.4938 12.8133C61.4068 9.83702 64.6519 8.13776 67.754 9.01378C84.4195 13.7105 95.3868 25.1831 99.4789 42.1756C102.449 54.5031 100.667 65.3952 100.601 65.849C100.128 68.5826 97.7078 70.5668 94.8258 70.5668ZM66.0929 11.8635C64.9489 11.8635 63.9039 12.5811 63.5629 13.6788C63.1449 15.0087 63.9589 16.4229 65.3559 16.824C79.0183 20.6763 87.6976 29.7425 91.1407 43.7587C93.6707 54.0387 92.3727 63.4743 92.2187 64.5086C91.9767 65.944 92.9557 67.2422 94.3967 67.4638C95.8928 67.7066 97.1908 66.7145 97.4218 65.3635C97.4988 64.9202 99.1709 54.6192 96.3438 42.8616C92.5267 27.0195 82.3294 16.3279 66.841 11.9584C66.588 11.8951 66.3349 11.8635 66.0929 11.8635Z" fill="#243842"/>
<path d="M112.426 64.0014C111.48 64.0014 110.578 63.6636 109.874 63.0515C109.082 62.3654 108.631 61.3839 108.62 60.3601C108.62 59.7691 108.686 45.7001 119.521 31.3462C125.846 22.9766 134.537 16.2429 145.361 11.3246C158.638 5.28753 175.161 1.99458 194.499 1.53019C195.676 1.50908 196.831 2.00513 197.568 2.90225C198.305 3.79937 198.57 4.96035 198.283 6.06856C195.83 15.4197 192.134 29.5625 179.484 41.0879C165.69 53.6475 143.876 61.1411 112.789 63.9803C112.657 63.9908 112.547 64.0014 112.426 64.0014ZM189.604 9.02377C173.533 9.85757 159.76 12.8444 148.606 17.9211C138.959 22.3222 131.248 28.2749 125.681 35.6418C119.587 43.7054 117.42 51.6317 116.661 56.2545C143.524 53.2993 162.4 46.5867 174.237 35.8001C183.004 27.8105 186.832 18.6282 189.604 9.02377Z" fill="#243842"/>
<path d="M112.426 65.5325C111.084 65.5325 109.797 65.0576 108.796 64.1921C107.663 63.2211 107.025 61.8174 107.014 60.3714C107.014 59.7593 107.069 45.2047 118.234 30.4496C124.714 21.8688 133.602 14.9662 144.668 9.93173C158.144 3.7996 174.897 0.453841 194.456 0C194.5 0 194.544 0 194.577 0C196.216 0 197.789 0.717702 198.812 1.94202C199.868 3.20855 200.242 4.88671 199.846 6.44876C197.338 15.9794 193.587 30.3862 180.595 42.2072C166.537 55.0203 144.415 62.6406 112.954 65.5114C112.745 65.5325 112.591 65.5325 112.426 65.5325ZM194.588 3.0819C194.566 3.0819 194.555 3.0819 194.533 3.0819C175.436 3.52518 159.112 6.77595 146.043 12.7287C135.472 17.5415 126.991 24.1169 120.819 32.2649C110.27 46.2179 110.215 59.7909 110.226 60.3714C110.226 60.9625 110.49 61.5324 110.941 61.9229C111.348 62.2712 111.876 62.4717 112.426 62.4717L112.657 62.4612C143.348 59.6537 164.854 52.3078 178.373 39.9908C190.682 28.7714 194.313 14.8923 196.722 5.70995C196.887 5.06613 196.733 4.39065 196.304 3.87348C195.897 3.36687 195.248 3.0819 194.588 3.0819ZM114.736 58.0178L115.066 56.0124C115.946 50.7669 118.267 42.8194 124.384 34.7347C130.115 27.1671 138.024 21.0456 147.924 16.5283C159.255 11.3777 173.258 8.33801 189.516 7.49365L191.738 7.37756L191.144 9.43567C188.471 18.6603 184.709 28.3703 175.337 36.9089C163.215 47.9488 144.074 54.7776 116.837 57.7856L114.736 58.0178ZM187.426 10.7022C172.554 11.6732 159.728 14.5651 149.288 19.3146C139.894 23.5997 132.381 29.3941 126.98 36.5395C121.974 43.1571 119.675 49.6586 118.619 54.4715C144.008 51.4423 161.851 44.9514 173.126 34.6713C181.244 27.2938 184.918 18.8608 187.426 10.7022Z" fill="#243842"/>
<path d="M66.3341 156.849C63.9911 156.849 62.088 155.023 62.088 152.775C62.088 150.527 63.9911 148.701 66.3341 148.701C68.6772 148.701 70.5802 150.527 70.5802 152.775C70.5802 155.023 68.6772 156.849 66.3341 156.849Z" fill="#243842"/>
<path d="M66.3341 158.39C63.111 158.39 60.4819 155.868 60.4819 152.775C60.4819 149.683 63.1 147.16 66.3231 147.16C69.5461 147.16 72.1752 149.683 72.1752 152.775C72.1752 155.868 69.5572 158.39 66.3341 158.39ZM66.3341 150.242C64.882 150.242 63.694 151.382 63.694 152.775C63.694 154.168 64.882 155.308 66.3341 155.308C67.7861 155.308 68.9741 154.168 68.9741 152.775C68.9741 151.382 67.7971 150.242 66.3341 150.242Z" fill="#243842"/>
</svg>
