<svg width="590" height="200" viewBox="0 0 590 200" fill="none" xmlns="http://www.w3.org/2000/svg">
<mask id="mask0" mask-type="alpha" maskUnits="userSpaceOnUse" x="0" y="0" width="590" height="200">
<rect width="590" height="200" fill="#79C8A4"/>
</mask>
<g mask="url(#mask0)">
<path fill-rule="evenodd" clip-rule="evenodd" d="M473.796 150.192C474.797 151.058 476.084 151.532 477.426 151.532C477.591 151.532 477.745 151.532 477.954 151.511C509.415 148.641 531.537 141.02 545.595 128.207C558.534 116.434 562.307 102.095 564.815 92.5641L564.846 92.4488C565.242 90.8867 564.868 89.2085 563.812 87.942C562.789 86.7177 561.216 86 559.577 86H559.456C539.897 86.4538 523.144 89.7996 509.668 95.9317C498.602 100.966 489.714 107.869 483.234 116.45C472.069 131.205 472.014 145.759 472.014 146.371C472.025 147.817 472.663 149.221 473.796 150.192ZM398.631 285.383C408.146 291.029 418.86 293.858 429.575 293.858C439.761 293.858 449.936 291.304 459.121 286.195C472.454 293.636 487.953 295.652 502.848 291.884C519.601 287.652 534.298 276.559 543.186 261.456C559.466 233.771 555.55 196.968 533.869 173.939C519.557 158.719 498.954 151.405 478.834 154.708L478.592 154.751C477.745 154.898 476.909 155.057 476.073 155.236C470.43 155.321 463.17 159.31 459.11 161.643C444.579 153.537 427.891 151.869 411.985 156.956C393.736 162.782 378.346 176.968 370.778 194.889C356.785 228.062 369.029 267.809 398.631 285.383ZM458.891 156.493C459.199 156.546 459.507 156.567 459.826 156.567C462.708 156.567 465.128 154.582 465.601 151.849L465.609 151.796C465.752 150.855 467.375 140.198 464.479 128.176C460.387 111.183 449.419 99.7104 432.754 95.0137C429.652 94.1377 426.407 95.837 425.494 98.8133C424.581 101.779 426.363 104.903 429.454 105.779C441.928 109.294 449.859 117.611 453.027 130.476C455.426 140.197 454.204 149.105 454.05 150.076C453.544 153.126 455.712 156.007 458.891 156.493Z" fill="#F3C4BB"/>
</g>
</svg>
