<svg width="295" height="350" viewBox="0 0 295 350" fill="none" xmlns="http://www.w3.org/2000/svg">
<mask id="mask0" mask-type="alpha" maskUnits="userSpaceOnUse" x="0" y="0" width="295" height="350">
<rect width="295" height="350" fill="#C4C4C4"/>
</mask>
<g mask="url(#mask0)">
<path d="M-33.838 369.326C-33.838 369.326 11.1765 352.117 40.5705 369.51L53.9992 359.397L47.7863 315.486L33.5509 296.869H-34.9103L-43.6699 323.91C-43.6699 323.91 -47.8549 365.115 -33.838 369.326Z" fill="#243842"/>
<path d="M48.9304 328.62C48.9304 355.845 30.3189 376.688 4.22119 376.688C-21.879 376.688 -45.636 355.25 -37.6583 329.215C-31.4329 308.902 -21.0276 279.32 5.0701 279.32C31.1678 279.318 48.9304 301.392 48.9304 328.62Z" fill="white"/>
<path d="M4.23897 377.424C-10.4804 377.424 -24.6611 370.553 -32.7705 359.489C-39.3929 350.452 -41.2397 339.536 -37.9682 328.751C-34.5725 317.548 -30.5588 305.866 -24.2392 296.314C-16.46 284.55 -6.60075 278.586 5.06553 278.586C17.5956 278.586 28.964 283.819 37.0808 293.322C44.9369 302.52 49.2659 315.054 49.2659 328.612C49.2659 342.044 44.7781 354.378 36.634 363.335C28.3733 372.417 16.8659 377.424 4.23897 377.424ZM5.05313 281.635C-5.09406 281.635 -13.3722 286.989 -20.2553 298.004C-26.0189 307.229 -29.7223 318.658 -32.8673 329.639C-35.6845 339.479 -34.0959 349.433 -28.3919 357.674C-21.2605 367.973 -8.74288 374.373 4.27124 374.373C27.2613 374.373 43.9515 355.124 43.9515 328.607C43.9515 301.828 27.229 281.635 5.05313 281.635Z" fill="#243842"/>
<path d="M25.9982 340.728C30.189 340.728 33.5862 337.335 33.5862 333.151C33.5862 328.966 30.189 325.573 25.9982 325.573C21.8074 325.573 18.4102 328.966 18.4102 333.151C18.4102 337.335 21.8074 340.728 25.9982 340.728Z" fill="#243842"/>
<path d="M26.9459 338.623C28.691 338.623 30.1057 337.211 30.1057 335.468C30.1057 333.726 28.691 332.313 26.9459 332.313C25.2008 332.313 23.7861 333.726 23.7861 335.468C23.7861 337.211 25.2008 338.623 26.9459 338.623Z" fill="white"/>
<path d="M29.3219 351.338C32.8231 351.338 35.6614 349.58 35.6614 347.412C35.6614 345.243 32.8231 343.486 29.3219 343.486C25.8207 343.486 22.9824 345.243 22.9824 347.412C22.9824 349.58 25.8207 351.338 29.3219 351.338Z" fill="#F3C4BB"/>
<path d="M55.052 302.413C51.7681 290.573 46.4636 279.258 37.0661 271.584C29.5947 265.482 20.083 262.225 10.4943 261.127C-0.124535 259.912 -11.1529 261.278 -20.7763 265.916C-34.7113 272.633 -43.2749 285.219 -47.7403 299.64C-53.1292 317.047 -55.6064 335.932 -51.0541 353.818C-49.9842 358.011 -48.4676 362.24 -45.5361 365.432C-42.6072 368.625 -37.9878 370.576 -33.8351 369.326C-38.9708 358.301 -39.8792 345.375 -36.3347 333.743C-34.761 328.58 -32.1348 323.437 -27.5875 320.522C-22.7968 317.454 -16.7502 317.362 -11.0611 317.369C-1.18939 317.384 8.68226 317.397 18.5539 317.409C25.9831 317.419 34.3332 317.808 39.3671 323.268C42.1918 326.332 43.4403 330.521 44.19 334.618C46.3222 346.278 45.0513 358.537 40.5709 369.512C45.6395 370.256 50.7479 367.398 53.8407 363.321C56.931 359.241 58.3111 354.122 59.088 349.066C60.9646 336.866 59.726 324.376 57.353 312.261C56.7101 308.979 55.958 305.675 55.052 302.413Z" fill="#243842"/>
<path d="M18.249 262.807C18.249 262.807 24.3974 256.368 29.3245 260.646C29.3245 260.646 20.8429 262.559 25.0328 266.944" fill="#243842"/>
<path d="M20.696 263.358C20.696 263.358 17.4047 255.091 11.2314 257.22C11.2314 257.22 18.3826 262.16 12.8548 264.664" fill="#243842"/>
</g>
</svg>
