<svg width="55" height="57" viewBox="0 0 55 57" fill="none" xmlns="http://www.w3.org/2000/svg">
<path d="M4.99401 31.9395C3.4043 40.1178 7.92503 47.875 15.0898 49.2677C17.4684 49.7301 19.8436 49.4314 22.0114 48.526C23.6798 50.1771 25.7702 51.3438 28.1512 51.8066C35.316 53.1993 42.411 47.7 44.0007 39.5216C45.5904 31.3433 41.0721 23.5866 33.9073 22.1939C31.5288 21.7315 29.1536 22.0302 26.9857 22.9357C25.3149 21.284 23.2269 20.1178 20.846 19.655C13.6812 18.2623 6.58371 23.7612 4.99401 31.9395Z" fill="#F3C4BB"/>
<path d="M32.0023 18.6989C32.0023 18.6989 34.3266 6.45624 52.6132 9.54754C50.426 14.2107 47.2676 20.1858 32.0023 18.6989Z" fill="#79C8A4"/>
<path d="M34.0789 21.2704C33.3695 21.1325 32.6478 21.0577 31.9274 21.0411C31.925 21.0406 31.9226 21.0401 31.9201 21.0396C31.7041 21.0354 31.4891 21.039 31.2741 21.0425C30.0739 20.8092 28.2603 21.4486 27.1913 21.8376C20.661 15.9481 11.0867 18.546 6.57861 25.4722C2.31925 32.0137 2.72057 41.5584 8.62799 47.007C12.1665 50.2705 17.2518 51.2968 21.786 49.6453C27.6239 54.9066 36.221 53.4708 41.1038 47.7429C45.7794 42.2642 46.6747 33.8578 42.9252 27.6453C40.9771 24.4241 37.8108 21.9958 34.0789 21.2704ZM28.3233 50.8807C27.1911 50.6607 26.1001 50.2547 25.098 49.6898C24.6252 49.4242 24.1716 49.1245 23.7416 48.7942C23.3101 48.4586 22.8458 47.7993 22.3178 47.6488C21.4655 47.4026 20.2463 48.1752 19.39 48.3386C18.1847 48.5726 16.936 48.6018 15.7211 48.4185C12.1121 47.8782 9.09643 45.4792 7.37961 42.313C3.68358 35.5016 6.03851 26.0067 12.7957 22.038C16.7122 19.7377 21.6392 19.8922 25.2727 22.7185C22.6676 24.1482 20.5363 26.3574 19.0797 28.9345C18.2801 30.3501 17.6816 31.8728 17.2964 33.4521C17.1631 33.9952 16.9063 34.6679 17.3439 35.1407C17.7981 35.6318 18.5364 35.4782 18.8767 34.9602C19.2198 34.4403 19.2593 33.4459 19.4452 32.8526C19.6712 32.1437 19.9425 31.4487 20.2672 30.7766C20.8851 29.4918 21.6816 28.2871 22.6366 27.2264C24.3517 25.3165 26.6438 23.7982 29.1728 23.2399C30.1867 22.9787 31.2759 22.9009 32.317 22.9673L32.3194 22.9678C39.89 23.3492 44.0591 31.3201 43.2419 38.1706C42.3856 45.3384 36.0857 52.3896 28.3233 50.8807Z" fill="#243842"/>
<path d="M14.8424 50.5514C12.476 50.0914 10.236 48.9812 8.38672 47.2748C2.63394 41.9645 1.70582 32.3022 6.27841 25.2778C8.75069 21.4832 12.7835 18.8833 17.0744 18.3276C20.8149 17.8411 24.426 18.9408 27.2733 21.4279C28.274 21.066 30.0558 20.4606 31.3059 20.6835C31.4986 20.6781 31.6903 20.6776 31.884 20.68L31.9393 20.6807C36.5306 20.7851 40.7544 23.3509 43.2352 27.4638C46.9949 33.6883 46.2154 42.3161 41.3827 47.9808C38.7448 51.0709 35.0033 52.9898 31.1139 53.2434C27.656 53.4701 24.3228 52.3413 21.7106 50.0585C19.4537 50.8384 17.0922 50.9887 14.8424 50.5514ZM21.1039 19.1561C19.8308 18.9087 18.505 18.8675 17.1649 19.0426C13.0806 19.573 9.23737 22.0537 6.88009 25.6717C2.4942 32.4102 3.37003 41.667 8.87297 46.7449C12.3368 49.9384 17.2384 50.9239 21.6622 49.3089L21.8656 49.2351L22.0266 49.3797C24.5153 51.6234 27.7241 52.7431 31.0598 52.5229C34.7551 52.2819 38.3171 50.4565 40.8262 47.5101C45.4632 42.0742 46.2141 33.8009 42.6112 27.8334C40.2676 23.9487 36.2994 21.5207 31.9682 21.4014L31.908 21.3997C31.6993 21.3969 31.4896 21.399 31.2819 21.4039L31.2027 21.3961C30.0584 21.1737 28.2047 21.8506 27.3149 22.1737L27.1115 22.2474L26.9505 22.1028C25.2512 20.5716 23.2492 19.5731 21.1039 19.1561ZM28.2543 51.2348C27.093 51.0091 25.9733 50.595 24.9206 50.0052C24.4293 49.7309 23.9581 49.4178 23.5194 49.0807C23.3614 48.9594 23.1989 48.7969 23.03 48.6281C22.7683 48.3657 22.473 48.0691 22.2124 47.9958C21.77 47.8721 21.1002 48.1271 20.5093 48.3521C20.1364 48.4936 19.7818 48.6312 19.4521 48.693C18.1896 48.936 16.9132 48.9649 15.6613 48.7769C12.1389 48.2458 8.90697 45.8954 7.05821 42.4871C3.2253 35.42 5.81642 25.7218 12.6084 21.7295C16.7557 19.2928 21.8125 19.5708 25.4938 22.4365L25.9253 22.7722L25.4453 23.0364C22.965 24.3948 20.8719 26.4981 19.3932 29.1111C18.6138 30.4879 18.0267 31.9776 17.6453 33.5374L17.5921 33.7461C17.451 34.2777 17.3745 34.6455 17.6079 34.8973C17.7642 35.0662 17.9415 35.088 18.0618 35.0787C18.2641 35.0626 18.4556 34.9463 18.574 34.7653C18.753 34.493 18.8424 33.9942 18.9234 33.5517C18.9775 33.2601 19.0265 32.9826 19.1028 32.7457C19.3403 32.0038 19.6202 31.2903 19.9416 30.6226C20.5853 29.2824 21.4006 28.0586 22.3652 26.9873C24.2511 24.8865 26.642 23.4302 29.094 22.8921C30.0793 22.6355 31.2073 22.54 32.3381 22.6113C35.4197 22.7647 38.1554 24.1525 40.2337 26.6134C42.8002 29.6502 44.0869 34.0949 43.5959 38.2166C43.0868 42.496 40.6759 46.6752 37.3068 49.1297C34.5621 51.1215 31.4322 51.8525 28.2543 51.2348ZM22.2879 47.2703C22.3316 47.2788 22.3724 47.2892 22.4157 47.3002C22.8547 47.4283 23.2199 47.7939 23.545 48.1189C23.6861 48.2621 23.8276 48.403 23.9607 48.5094C24.3732 48.8262 24.8155 49.1187 25.2747 49.3766C26.2612 49.9309 27.308 50.3182 28.3916 50.5288C31.3678 51.1073 34.3028 50.419 36.8811 48.5434C40.0941 46.2046 42.3925 42.2151 42.8819 38.1282C43.3507 34.1985 42.1268 29.9624 39.6849 27.0758C37.7381 24.7687 35.1835 23.4741 32.2995 23.3289C31.2361 23.2607 30.1877 23.3489 29.2611 23.5893C26.9453 24.1009 24.6908 25.478 22.9024 27.4668C21.9826 28.489 21.2063 29.6549 20.5923 30.9329C20.2867 31.5709 20.0154 32.2533 19.7893 32.9622C19.7264 33.1564 19.6817 33.4121 19.6323 33.6794C19.5358 34.2146 19.4361 34.7667 19.1757 35.1592C18.9361 35.5231 18.5418 35.7611 18.1217 35.7953C17.7224 35.8259 17.3522 35.681 17.0772 35.3833C16.5586 34.8217 16.7505 34.0937 16.8946 33.5602L16.9449 33.366C17.341 31.7436 17.9525 30.1932 18.7636 28.7571C20.2149 26.1941 22.2295 24.1057 24.6143 22.681C21.2109 20.3049 16.7029 20.1613 12.9765 22.3525C6.50618 26.1554 4.03482 35.4061 7.69406 42.1474C9.43492 45.3586 12.4705 47.5776 15.7738 48.0686C16.945 48.2434 18.1379 48.216 19.319 47.9898C19.5862 47.9385 19.9107 47.8128 20.2536 47.6831C20.9084 47.4276 21.6465 47.1456 22.2879 47.2703Z" fill="#243842"/>
<path d="M27.7258 19.9399C27.6748 19.93 27.6271 19.9157 27.5775 19.8985C27.0833 19.7168 26.8288 19.1714 27.0085 18.675C27.0152 18.6537 27.7815 16.514 27.6803 13.9867C27.5498 10.7537 26.1036 8.40048 23.3818 6.99273C22.9125 6.74793 22.7316 6.17396 22.9736 5.70738C23.2161 5.23837 23.7912 5.05558 24.2604 5.30038C27.6073 7.03357 29.4522 10.0333 29.5907 13.9778C29.6945 16.8682 28.8391 19.2323 28.8042 19.3338C28.6378 19.7748 28.1753 20.0273 27.7258 19.9399Z" fill="#243842"/>
<path d="M27.6586 20.2919C27.5882 20.2782 27.5211 20.2601 27.4554 20.2347C26.775 19.9867 26.4251 19.2313 26.6731 18.5519C26.7505 18.3353 27.4182 16.3401 27.3229 14.0027C27.1981 10.9093 25.8179 8.65709 23.2199 7.31366C22.5763 6.97959 22.3223 6.18497 22.6565 5.54244C22.9911 4.89748 23.7837 4.6462 24.4297 4.98074C27.9007 6.77582 29.8103 9.88381 29.9549 13.9655C30.0601 16.9266 29.1798 19.3538 29.1449 19.4553C28.9183 20.0634 28.2952 20.4156 27.6586 20.2919ZM23.9355 5.56447C23.6829 5.51535 23.42 5.63546 23.2956 5.87314C23.1439 6.16088 23.2605 6.52092 23.5511 6.67308C26.3965 8.14515 27.9084 10.6018 28.0425 13.9714C28.142 16.443 27.4337 18.5562 27.3535 18.7874C27.2359 19.1069 27.3942 19.4474 27.7025 19.5602C28.0221 19.6802 28.3531 19.5079 28.4645 19.2073C28.5013 19.1087 29.3309 16.8126 29.2318 13.9886C29.0966 10.1832 27.3221 7.28776 24.0965 5.61842C24.0435 5.593 23.989 5.57486 23.9355 5.56447Z" fill="#243842"/>
<path d="M31.8393 19.5383C31.6304 19.4976 31.4463 19.3813 31.3181 19.2103C31.1739 19.0186 31.1181 18.7737 31.1614 18.5379C31.1878 18.402 31.831 15.1709 34.8655 12.3366C36.6365 10.6842 38.8567 9.50949 41.4671 8.84364C44.6694 8.02594 48.4657 7.97833 52.7576 8.70182C53.0185 8.7475 53.2515 8.91111 53.3742 9.14897C53.4969 9.38683 53.5033 9.66503 53.3906 9.90749C52.431 11.9517 50.9828 15.044 47.6738 17.1501C44.0659 19.445 38.9133 20.231 31.9205 19.549C31.8908 19.5457 31.8661 19.5434 31.8393 19.5383ZM51.3416 10.2142C47.7548 9.71587 44.5795 9.81118 41.8891 10.4993C39.5617 11.0968 37.5926 12.134 36.0341 13.5885C34.3278 15.1803 33.4951 16.9093 33.1209 17.9393C39.1859 18.4133 43.655 17.6807 46.7511 15.7094C49.0445 14.2492 50.3003 12.3029 51.3416 10.2142Z" fill="#243842"/>
<path d="M31.7712 19.8903C31.4748 19.8327 31.2117 19.6682 31.0293 19.4263C30.8225 19.1545 30.7443 18.8044 30.8065 18.4716C30.8338 18.3309 31.4963 14.9877 34.6215 12.0753C36.436 10.3811 38.7075 9.17602 41.3765 8.49388C44.6268 7.66284 48.4765 7.61303 52.8165 8.34838C52.8262 8.35027 52.8359 8.35216 52.8432 8.35358C53.2052 8.42394 53.5206 8.65645 53.6919 8.9818C53.8685 9.31826 53.8761 9.72006 53.7189 10.0621C52.7391 12.1452 51.2669 15.2958 47.8694 17.4552C44.1919 19.7969 38.9656 20.5989 31.8888 19.9081C31.8417 19.904 31.8076 19.8974 31.7712 19.8903ZM52.708 9.06246C52.7031 9.06152 52.7007 9.06105 52.6958 9.0601C48.4583 8.34216 44.7076 8.38856 41.5553 9.19582C39.0054 9.84827 36.8384 10.9956 35.1114 12.6036C32.158 15.358 31.5394 18.4756 31.5159 18.6095C31.4895 18.7453 31.5223 18.8877 31.6045 18.9968C31.6788 19.0943 31.7865 19.1631 31.908 19.1867L31.9594 19.1942C38.8634 19.8665 43.9414 19.1012 47.4777 16.8504C50.6976 14.7999 52.1195 11.7654 53.0619 9.75818C53.1271 9.61727 53.1233 9.45539 53.0516 9.31809C52.9844 9.18417 52.8537 9.0908 52.708 9.06246ZM32.6172 18.2621L32.7797 17.8153C33.2084 16.6473 34.0761 14.9201 35.7882 13.3243C37.3921 11.8309 39.4125 10.7633 41.801 10.15C44.5335 9.45247 47.7622 9.35494 51.3908 9.85885L51.8868 9.92756L51.6636 10.3751C50.6611 12.3808 49.3963 14.4513 46.9448 16.0116C43.7741 18.0288 39.2416 18.7768 33.0916 18.2989L32.6172 18.2621ZM50.7858 10.5067C47.4577 10.0914 44.4956 10.2054 41.9777 10.849C39.7114 11.4307 37.7931 12.4401 36.2809 13.8506C34.8798 15.1569 34.0815 16.5527 33.6333 17.6136C39.376 18.0073 43.6068 17.2813 46.5564 15.4023C48.6791 14.055 49.8674 12.2743 50.7858 10.5067Z" fill="#243842"/>
<path d="M17.5112 38.9019C16.9938 38.8013 16.655 38.2999 16.7555 37.7832C16.8559 37.2664 17.3578 36.9284 17.8753 37.029C18.3928 37.1296 18.7315 37.631 18.6311 38.1477C18.5306 38.6645 18.0287 39.0025 17.5112 38.9019Z" fill="#243842"/>
<path d="M17.4421 39.2561C16.7303 39.1177 16.2623 38.425 16.4005 37.7142C16.5387 37.0034 17.2296 36.5359 17.9415 36.6743C18.6533 36.8127 19.1213 37.5054 18.9831 38.2162C18.8449 38.927 18.154 39.3945 17.4421 39.2561ZM17.8062 37.3832C17.4855 37.3208 17.1722 37.5318 17.1099 37.8521C17.0477 38.1723 17.2591 38.4853 17.5798 38.5477C17.9005 38.61 18.2139 38.399 18.2761 38.0788C18.3383 37.7585 18.1293 37.446 17.8062 37.3832Z" fill="#243842"/>
</svg>
