<svg width="295" height="350" viewBox="0 0 295 350" fill="none" xmlns="http://www.w3.org/2000/svg">
<mask id="mask0" mask-type="alpha" maskUnits="userSpaceOnUse" x="0" y="0" width="295" height="350">
<rect width="295" height="350" fill="#C4C4C4"/>
</mask>
<g mask="url(#mask0)">
<path d="M261.162 369.326C261.162 369.326 306.176 352.117 335.571 369.51L348.999 359.397L342.786 315.486L328.551 296.869H260.09L251.33 323.91C251.33 323.91 247.145 365.115 261.162 369.326Z" fill="#243842"/>
<path d="M343.93 328.62C343.93 355.845 325.319 376.688 299.221 376.688C273.121 376.688 249.364 355.25 257.342 329.215C263.567 308.902 273.972 279.32 300.07 279.32C326.168 279.318 343.93 301.392 343.93 328.62Z" fill="white"/>
<path d="M299.239 377.424C284.52 377.424 270.339 370.553 262.23 359.489C255.607 350.452 253.76 339.536 257.032 328.751C260.427 317.548 264.441 305.866 270.761 296.314C278.54 284.55 288.399 278.586 300.066 278.586C312.596 278.586 323.964 283.819 332.081 293.322C339.937 302.52 344.266 315.054 344.266 328.612C344.266 342.044 339.778 354.378 331.634 363.335C323.373 372.417 311.866 377.424 299.239 377.424ZM300.053 281.635C289.906 281.635 281.628 286.989 274.745 298.004C268.981 307.229 265.278 318.658 262.133 329.639C259.315 339.479 260.904 349.433 266.608 357.674C273.739 367.973 286.257 374.373 299.271 374.373C322.261 374.373 338.952 355.124 338.952 328.607C338.952 301.828 322.229 281.635 300.053 281.635Z" fill="#243842"/>
<path d="M279.588 340.728C283.779 340.728 287.176 337.335 287.176 333.151C287.176 328.966 283.779 325.573 279.588 325.573C275.397 325.573 272 328.966 272 333.151C272 337.335 275.397 340.728 279.588 340.728Z" fill="#243842"/>
<path d="M280.536 338.623C282.281 338.623 283.696 337.211 283.696 335.468C283.696 333.726 282.281 332.313 280.536 332.313C278.791 332.313 277.376 333.726 277.376 335.468C277.376 337.211 278.791 338.623 280.536 338.623Z" fill="white"/>
<path d="M273.159 351.338C276.66 351.338 279.498 349.58 279.498 347.412C279.498 345.243 276.66 343.486 273.159 343.486C269.658 343.486 266.819 345.243 266.819 347.412C266.819 349.58 269.658 351.338 273.159 351.338Z" fill="#F3C4BB"/>
<path d="M350.052 302.413C346.768 290.573 341.464 279.258 332.066 271.584C324.595 265.482 315.083 262.225 305.494 261.127C294.875 259.912 283.847 261.278 274.224 265.916C260.289 272.633 251.725 285.219 247.26 299.64C241.871 317.047 239.394 335.932 243.946 353.818C245.016 358.011 246.532 362.24 249.464 365.432C252.393 368.625 257.012 370.576 261.165 369.326C256.029 358.301 255.121 345.375 258.665 333.743C260.239 328.58 262.865 323.437 267.413 320.522C272.203 317.454 278.25 317.362 283.939 317.369C293.811 317.384 303.682 317.397 313.554 317.409C320.983 317.419 329.333 317.808 334.367 323.268C337.192 326.332 338.44 330.521 339.19 334.618C341.322 346.278 340.051 358.537 335.571 369.512C340.64 370.256 345.748 367.398 348.841 363.321C351.931 359.241 353.311 354.122 354.088 349.066C355.965 336.866 354.726 324.376 352.353 312.261C351.71 308.979 350.958 305.675 350.052 302.413Z" fill="#243842"/>
<path d="M243.501 314.891C243.501 314.891 242.573 354.487 235 356.574C235 356.574 245.817 353.505 249.064 344.471" fill="#243842"/>
</g>
</svg>
