<svg width="590" height="350" viewBox="0 0 590 350" fill="none" xmlns="http://www.w3.org/2000/svg">
<mask id="mask0" mask-type="alpha" maskUnits="userSpaceOnUse" x="0" y="0" width="590" height="350">
<rect width="590" height="350" fill="#C4C4C4"/>
</mask>
<g mask="url(#mask0)">
<path d="M556.162 369.326C556.162 369.326 601.176 352.117 630.571 369.51L643.999 359.397L637.786 315.486L623.551 296.869H555.09L546.33 323.91C546.33 323.91 542.145 365.115 556.162 369.326Z" fill="#243842"/>
<path d="M638.93 328.62C638.93 355.845 620.319 376.688 594.221 376.688C568.121 376.688 544.364 355.25 552.342 329.215C558.567 308.902 568.972 279.32 595.07 279.32C621.168 279.318 638.93 301.392 638.93 328.62Z" fill="white"/>
<path d="M594.239 377.424C579.52 377.424 565.339 370.553 557.23 359.489C550.607 350.452 548.76 339.536 552.032 328.751C555.427 317.548 559.441 305.866 565.761 296.314C573.54 284.55 583.399 278.586 595.066 278.586C607.596 278.586 618.964 283.819 627.081 293.322C634.937 302.52 639.266 315.054 639.266 328.612C639.266 342.044 634.778 354.378 626.634 363.335C618.373 372.417 606.866 377.424 594.239 377.424ZM595.053 281.635C584.906 281.635 576.628 286.989 569.745 298.004C563.981 307.229 560.278 318.658 557.133 329.639C554.315 339.479 555.904 349.433 561.608 357.674C568.739 367.973 581.257 374.373 594.271 374.373C617.261 374.373 633.952 355.124 633.952 328.607C633.952 301.828 617.229 281.635 595.053 281.635Z" fill="#243842"/>
<path d="M568.159 351.338C571.66 351.338 574.498 349.58 574.498 347.412C574.498 345.243 571.66 343.486 568.159 343.486C564.658 343.486 561.819 345.243 561.819 347.412C561.819 349.58 564.658 351.338 568.159 351.338Z" fill="#F3C4BB"/>
<path d="M645.052 302.413C641.768 290.573 636.464 279.258 627.066 271.584C619.595 265.482 610.083 262.225 600.494 261.127C589.875 259.912 578.847 261.278 569.224 265.916C555.289 272.633 546.725 285.219 542.26 299.64C536.871 317.047 534.394 335.932 538.946 353.818C540.016 358.011 541.532 362.24 544.464 365.432C547.393 368.625 552.012 370.576 556.165 369.326C551.029 358.301 550.121 345.375 553.665 333.743C555.239 328.58 557.865 323.437 562.413 320.522C567.203 317.454 573.25 317.362 578.939 317.369C588.811 317.384 598.682 317.397 608.554 317.409C615.983 317.419 624.333 317.808 629.367 323.268C632.192 326.332 633.44 330.521 634.19 334.618C636.322 346.278 635.051 358.537 630.571 369.512C635.64 370.256 640.748 367.398 643.841 363.321C646.931 359.241 648.311 354.122 649.088 349.066C650.965 336.866 649.726 324.376 647.353 312.261C646.71 308.979 645.958 305.675 645.052 302.413Z" fill="#243842"/>
<path d="M538.501 314.891C538.501 314.891 537.573 354.487 530 356.574C530 356.574 540.817 353.505 544.064 344.471" fill="#243842"/>
<path d="M566.208 341.167C565.609 341.167 565.036 340.82 564.775 340.24C564.421 339.451 564.775 338.524 565.565 338.17L574.225 334.293L565.674 331.203C564.86 330.91 564.438 330.013 564.733 329.197C565.026 328.384 565.925 327.961 566.741 328.256L578.941 332.663C579.542 332.878 579.949 333.438 579.976 334.075C579.999 334.715 579.634 335.302 579.051 335.565L566.851 341.028C566.642 341.122 566.421 341.167 566.208 341.167Z" fill="#243842"/>
</g>
</svg>
